<svg width="390" height="88" viewBox="0 0 390 88" fill="none" xmlns="http://www.w3.org/2000/svg">
<path fill-rule="evenodd" clip-rule="evenodd" d="M12 16.9152C12 16.0416 12.7118 15.3334 13.5861 15.3334H30.4139C31.2899 15.3334 32 16.0408 32 16.9152V27.0848C32 27.9585 31.2882 28.6667 30.4139 28.6667H13.5861C12.7101 28.6667 12 27.9593 12 27.0848V16.9152Z" fill="#224DBA"/>
<path fill-rule="evenodd" clip-rule="evenodd" d="M17.2084 25.2879H15.6939L14.5582 20.7626C14.5043 20.5544 14.3899 20.3704 14.2215 20.2836C13.8013 20.0657 13.3383 19.8922 12.8333 19.8047V19.6305H15.273C15.6097 19.6305 15.8623 19.8922 15.9044 20.1961L16.4936 23.4604L18.0074 19.6305H19.4798L17.2084 25.2879ZM20.3216 25.2879H18.8913L20.0691 19.6305H21.4994L20.3216 25.2879ZM23.3499 21.1978C23.392 20.893 23.6446 20.7188 23.9392 20.7188C24.4022 20.6751 24.9065 20.7626 25.3274 20.9798L25.58 19.7617C25.1591 19.5875 24.6961 19.5 24.2759 19.5C22.8877 19.5 21.8775 20.2836 21.8775 21.3712C21.8775 22.1986 22.5931 22.633 23.0981 22.8948C23.6446 23.1557 23.855 23.3299 23.8129 23.5909C23.8129 23.9823 23.392 24.1566 22.9719 24.1566C22.4668 24.1566 21.9617 24.0261 21.4994 23.8081L21.2469 25.0269C21.752 25.2442 22.2984 25.3316 22.8035 25.3316C24.3601 25.3746 25.3274 24.5918 25.3274 23.4167C25.3274 21.9369 23.3499 21.8502 23.3499 21.1978ZM30.3333 25.2879L29.1975 19.6305H27.9777C27.7251 19.6305 27.4726 19.8047 27.3884 20.0657L25.2854 25.2879H26.7578L27.0517 24.4613H28.8608L29.0292 25.2879H30.3333ZM28.1881 21.154L28.6083 23.2862H27.4305L28.1881 21.154Z" fill="white"/>
<path d="M45.445 17.1L45.895 17.895L44.155 18.885L45.895 19.89L45.445 20.67L43.75 19.695V21.585H42.745V19.695L41.05 20.67L40.6 19.89L42.34 18.885L40.6 17.895L41.05 17.1L42.745 18.075V16.2H43.75V18.075L45.445 17.1ZM51.9343 17.1L52.3843 17.895L50.6443 18.885L52.3843 19.89L51.9343 20.67L50.2393 19.695V21.585H49.2343V19.695L47.5393 20.67L47.0893 19.89L48.8293 18.885L47.0893 17.895L47.5393 17.1L49.2343 18.075V16.2H50.2393V18.075L51.9343 17.1ZM58.4235 17.1L58.8735 17.895L57.1335 18.885L58.8735 19.89L58.4235 20.67L56.7285 19.695V21.585H55.7235V19.695L54.0285 20.67L53.5785 19.89L55.3185 18.885L53.5785 17.895L54.0285 17.1L55.7235 18.075V16.2H56.7285V18.075L58.4235 17.1ZM64.9128 17.1L65.3628 17.895L63.6228 18.885L65.3628 19.89L64.9128 20.67L63.2178 19.695V21.585H62.2128V19.695L60.5178 20.67L60.0678 19.89L61.8078 18.885L60.0678 17.895L60.5178 17.1L62.2128 18.075V16.2H63.2178V18.075L64.9128 17.1ZM69.7974 18.78L72.9324 16.95H73.8324V27H72.4224V18.45L69.7974 20.19V18.78ZM81.4577 21.885C81.9377 22.045 82.3127 22.32 82.5827 22.71C82.8627 23.09 83.0027 23.55 83.0027 24.09C83.0027 24.71 82.8577 25.255 82.5677 25.725C82.2777 26.195 81.8677 26.56 81.3377 26.82C80.8177 27.07 80.2177 27.195 79.5377 27.195C78.8377 27.195 78.2177 27.06 77.6777 26.79C77.1477 26.52 76.7227 26.145 76.4027 25.665C76.0827 25.175 75.9027 24.61 75.8627 23.97L77.2277 23.7C77.2877 24.39 77.5177 24.935 77.9177 25.335C78.3277 25.725 78.8677 25.92 79.5377 25.92C80.1677 25.92 80.6777 25.755 81.0677 25.425C81.4677 25.085 81.6677 24.645 81.6677 24.105C81.6677 23.605 81.4927 23.215 81.1427 22.935C80.7927 22.655 80.3027 22.515 79.6727 22.515H78.2627V21.255H79.5827C80.1727 21.255 80.6327 21.12 80.9627 20.85C81.3027 20.58 81.4727 20.21 81.4727 19.74C81.4727 19.23 81.2927 18.82 80.9327 18.51C80.5727 18.19 80.0977 18.03 79.5077 18.03C78.8777 18.03 78.3677 18.22 77.9777 18.6C77.5877 18.97 77.3727 19.505 77.3327 20.205L75.9977 19.935C76.0377 19.305 76.2077 18.75 76.5077 18.27C76.8177 17.79 77.2277 17.42 77.7377 17.16C78.2477 16.89 78.8377 16.755 79.5077 16.755C80.1677 16.755 80.7477 16.88 81.2477 17.13C81.7477 17.38 82.1327 17.73 82.4027 18.18C82.6827 18.63 82.8227 19.15 82.8227 19.74C82.8227 20.26 82.7027 20.705 82.4627 21.075C82.2227 21.445 81.8877 21.715 81.4577 21.885ZM90.1735 21.885C90.6535 22.045 91.0285 22.32 91.2985 22.71C91.5785 23.09 91.7185 23.55 91.7185 24.09C91.7185 24.71 91.5735 25.255 91.2835 25.725C90.9935 26.195 90.5835 26.56 90.0535 26.82C89.5335 27.07 88.9335 27.195 88.2535 27.195C87.5535 27.195 86.9335 27.06 86.3935 26.79C85.8635 26.52 85.4385 26.145 85.1185 25.665C84.7985 25.175 84.6185 24.61 84.5785 23.97L85.9435 23.7C86.0035 24.39 86.2335 24.935 86.6335 25.335C87.0435 25.725 87.5835 25.92 88.2535 25.92C88.8835 25.92 89.3935 25.755 89.7835 25.425C90.1835 25.085 90.3835 24.645 90.3835 24.105C90.3835 23.605 90.2085 23.215 89.8585 22.935C89.5085 22.655 89.0185 22.515 88.3885 22.515H86.9785V21.255H88.2985C88.8885 21.255 89.3485 21.12 89.6785 20.85C90.0185 20.58 90.1885 20.21 90.1885 19.74C90.1885 19.23 90.0085 18.82 89.6485 18.51C89.2885 18.19 88.8135 18.03 88.2235 18.03C87.5935 18.03 87.0835 18.22 86.6935 18.6C86.3035 18.97 86.0885 19.505 86.0485 20.205L84.7135 19.935C84.7535 19.305 84.9235 18.75 85.2235 18.27C85.5335 17.79 85.9435 17.42 86.4535 17.16C86.9635 16.89 87.5535 16.755 88.2235 16.755C88.8835 16.755 89.4635 16.88 89.9635 17.13C90.4635 17.38 90.8485 17.73 91.1185 18.18C91.3985 18.63 91.5385 19.15 91.5385 19.74C91.5385 20.26 91.4185 20.705 91.1785 21.075C90.9385 21.445 90.6035 21.715 90.1735 21.885ZM99.7143 16.95V17.97L95.5893 27H93.9243L98.1693 18.27H92.8293V16.95H99.7143Z" fill="#353535"/>
<path d="M20.52 36.95V38.27H14.685V41.435H19.485V42.755H14.685V47H13.23V36.95H20.52ZM22.932 36.44C23.192 36.44 23.407 36.53 23.577 36.71C23.757 36.89 23.847 37.1 23.847 37.34C23.847 37.59 23.757 37.8 23.577 37.97C23.407 38.14 23.192 38.225 22.932 38.225C22.662 38.225 22.437 38.145 22.257 37.985C22.087 37.815 22.002 37.6 22.002 37.34C22.002 37.09 22.092 36.88 22.272 36.71C22.452 36.53 22.672 36.44 22.932 36.44ZM22.227 39.575H23.637V47H22.227V39.575ZM30.5282 39.5C30.7382 39.5 30.9082 39.515 31.0382 39.545L30.9482 40.91C30.8582 40.9 30.7132 40.895 30.5132 40.895C29.5732 40.895 28.8582 41.205 28.3682 41.825C27.8782 42.435 27.6332 43.26 27.6332 44.3V47H26.2232V39.575H27.6332V41.27C27.9532 40.72 28.3532 40.29 28.8332 39.98C29.3232 39.66 29.8882 39.5 30.5282 39.5ZM33.258 44.705C33.308 45.145 33.513 45.48 33.873 45.71C34.233 45.94 34.688 46.055 35.238 46.055C35.718 46.055 36.098 45.955 36.378 45.755C36.668 45.555 36.813 45.29 36.813 44.96C36.813 44.72 36.723 44.525 36.543 44.375C36.363 44.215 36.088 44.095 35.718 44.015L34.083 43.67C33.433 43.53 32.938 43.295 32.598 42.965C32.258 42.635 32.088 42.21 32.088 41.69C32.088 41 32.353 40.445 32.883 40.025C33.413 39.595 34.113 39.38 34.983 39.38C35.813 39.38 36.503 39.575 37.053 39.965C37.603 40.355 37.943 40.865 38.073 41.495L36.723 41.78C36.663 41.4 36.473 41.095 36.153 40.865C35.843 40.635 35.443 40.52 34.953 40.52C34.483 40.52 34.123 40.62 33.873 40.82C33.633 41.01 33.513 41.26 33.513 41.57C33.513 41.81 33.588 42 33.738 42.14C33.898 42.28 34.148 42.39 34.488 42.47L36.273 42.86C36.873 42.99 37.343 43.225 37.683 43.565C38.023 43.905 38.193 44.335 38.193 44.855C38.193 45.595 37.913 46.17 37.353 46.58C36.793 46.99 36.048 47.195 35.118 47.195C34.228 47.195 33.483 47.01 32.883 46.64C32.283 46.26 31.938 45.715 31.848 45.005L33.258 44.705ZM44.8213 46.625C44.5013 46.835 44.1963 46.98 43.9063 47.06C43.6263 47.15 43.3313 47.195 43.0213 47.195C42.2213 47.195 41.5863 46.97 41.1163 46.52C40.6563 46.07 40.4263 45.415 40.4263 44.555V40.76H38.8213V39.575H40.4263V36.95H41.8513V39.575H44.4313V40.76H41.8513V44.45C41.8513 44.91 41.9663 45.265 42.1963 45.515C42.4263 45.755 42.7363 45.875 43.1263 45.875C43.3163 45.875 43.5213 45.84 43.7413 45.77C43.9713 45.69 44.1863 45.585 44.3863 45.455L44.8213 46.625ZM57.38 44.54V36.95H58.85V47H57.605L51.35 39.515V47H49.895V36.95H51.14L57.38 44.54ZM67.1115 39.575H68.5365V47H67.1115V46.04C66.7815 46.41 66.3765 46.695 65.8965 46.895C65.4165 47.095 64.8915 47.195 64.3215 47.195C63.6715 47.195 63.0615 47.03 62.4915 46.7C61.9315 46.37 61.4815 45.91 61.1415 45.32C60.8015 44.73 60.6315 44.055 60.6315 43.295C60.6315 42.535 60.8015 41.86 61.1415 41.27C61.4815 40.67 61.9315 40.205 62.4915 39.875C63.0615 39.545 63.6715 39.38 64.3215 39.38C64.8915 39.38 65.4165 39.48 65.8965 39.68C66.3765 39.88 66.7815 40.17 67.1115 40.55V39.575ZM64.5615 45.95C65.0015 45.95 65.4165 45.84 65.8065 45.62C66.1965 45.4 66.5115 45.09 66.7515 44.69C66.9915 44.28 67.1115 43.815 67.1115 43.295C67.1115 42.775 66.9915 42.31 66.7515 41.9C66.5115 41.49 66.1965 41.175 65.8065 40.955C65.4165 40.735 65.0015 40.625 64.5615 40.625C64.0815 40.625 63.6465 40.735 63.2565 40.955C62.8765 41.175 62.5715 41.49 62.3415 41.9C62.1215 42.3 62.0115 42.765 62.0115 43.295C62.0115 43.825 62.1215 44.295 62.3415 44.705C62.5715 45.105 62.8765 45.415 63.2565 45.635C63.6465 45.845 64.0815 45.95 64.5615 45.95ZM80.1088 39.38C80.6188 39.38 81.0838 39.5 81.5038 39.74C81.9338 39.98 82.2738 40.32 82.5238 40.76C82.7738 41.19 82.8988 41.685 82.8988 42.245V47H81.5038V42.515C81.5038 41.965 81.3388 41.525 81.0088 41.195C80.6788 40.855 80.2538 40.685 79.7338 40.685C79.0938 40.685 78.5838 40.91 78.2038 41.36C77.8338 41.81 77.6488 42.45 77.6488 43.28V47H76.2238V42.515C76.2238 41.955 76.0588 41.51 75.7288 41.18C75.4088 40.85 74.9888 40.685 74.4688 40.685C73.8288 40.685 73.3238 40.91 72.9538 41.36C72.5838 41.81 72.3988 42.45 72.3988 43.28V47H70.9888V39.575H72.3988V40.52C72.9688 39.76 73.7788 39.38 74.8288 39.38C75.3788 39.38 75.8738 39.505 76.3138 39.755C76.7638 39.995 77.1038 40.335 77.3338 40.775C77.6338 40.335 78.0188 39.995 78.4888 39.755C78.9588 39.505 79.4988 39.38 80.1088 39.38ZM92.0531 43.625H85.9181C85.9581 44.095 86.0931 44.51 86.3231 44.87C86.5531 45.23 86.8431 45.505 87.1931 45.695C87.5431 45.885 87.9131 45.98 88.3031 45.98C88.7631 45.98 89.1831 45.895 89.5631 45.725C89.9431 45.545 90.2631 45.235 90.5231 44.795L91.6931 45.29C91.3631 45.92 90.9031 46.395 90.3131 46.715C89.7331 47.035 89.0631 47.195 88.3031 47.195C87.6331 47.195 87.0081 47.035 86.4281 46.715C85.8481 46.385 85.3831 45.925 85.0331 45.335C84.6931 44.745 84.5231 44.07 84.5231 43.31C84.5231 42.54 84.6981 41.86 85.0481 41.27C85.3981 40.67 85.8631 40.205 86.4431 39.875C87.0331 39.545 87.6731 39.38 88.3631 39.38C89.0331 39.38 89.6431 39.54 90.1931 39.86C90.7431 40.17 91.1831 40.61 91.5131 41.18C91.8531 41.74 92.0331 42.385 92.0531 43.115V43.625ZM88.3631 40.625C87.8131 40.625 87.3031 40.8 86.8331 41.15C86.3731 41.5 86.0881 41.98 85.9781 42.59H90.6131C90.5031 41.96 90.2431 41.475 89.8331 41.135C89.4231 40.795 88.9331 40.625 88.3631 40.625ZM99.06 36.95V45.68H104.64V47H97.605V36.95H99.06ZM112.243 39.575H113.668V47H112.243V46.04C111.913 46.41 111.508 46.695 111.028 46.895C110.548 47.095 110.023 47.195 109.453 47.195C108.803 47.195 108.193 47.03 107.623 46.7C107.063 46.37 106.613 45.91 106.273 45.32C105.933 44.73 105.763 44.055 105.763 43.295C105.763 42.535 105.933 41.86 106.273 41.27C106.613 40.67 107.063 40.205 107.623 39.875C108.193 39.545 108.803 39.38 109.453 39.38C110.023 39.38 110.548 39.48 111.028 39.68C111.508 39.88 111.913 40.17 112.243 40.55V39.575ZM109.693 45.95C110.133 45.95 110.548 45.84 110.938 45.62C111.328 45.4 111.643 45.09 111.883 44.69C112.123 44.28 112.243 43.815 112.243 43.295C112.243 42.775 112.123 42.31 111.883 41.9C111.643 41.49 111.328 41.175 110.938 40.955C110.548 40.735 110.133 40.625 109.693 40.625C109.213 40.625 108.778 40.735 108.388 40.955C108.008 41.175 107.703 41.49 107.473 41.9C107.253 42.3 107.143 42.765 107.143 43.295C107.143 43.825 107.253 44.295 107.473 44.705C107.703 45.105 108.008 45.415 108.388 45.635C108.778 45.845 109.213 45.95 109.693 45.95ZM116.901 44.705C116.951 45.145 117.156 45.48 117.516 45.71C117.876 45.94 118.331 46.055 118.881 46.055C119.361 46.055 119.741 45.955 120.021 45.755C120.311 45.555 120.456 45.29 120.456 44.96C120.456 44.72 120.366 44.525 120.186 44.375C120.006 44.215 119.731 44.095 119.361 44.015L117.726 43.67C117.076 43.53 116.581 43.295 116.241 42.965C115.901 42.635 115.731 42.21 115.731 41.69C115.731 41 115.996 40.445 116.526 40.025C117.056 39.595 117.756 39.38 118.626 39.38C119.456 39.38 120.146 39.575 120.696 39.965C121.246 40.355 121.586 40.865 121.716 41.495L120.366 41.78C120.306 41.4 120.116 41.095 119.796 40.865C119.486 40.635 119.086 40.52 118.596 40.52C118.126 40.52 117.766 40.62 117.516 40.82C117.276 41.01 117.156 41.26 117.156 41.57C117.156 41.81 117.231 42 117.381 42.14C117.541 42.28 117.791 42.39 118.131 42.47L119.916 42.86C120.516 42.99 120.986 43.225 121.326 43.565C121.666 43.905 121.836 44.335 121.836 44.855C121.836 45.595 121.556 46.17 120.996 46.58C120.436 46.99 119.691 47.195 118.761 47.195C117.871 47.195 117.126 47.01 116.526 46.64C115.926 46.26 115.581 45.715 115.491 45.005L116.901 44.705ZM128.464 46.625C128.144 46.835 127.839 46.98 127.549 47.06C127.269 47.15 126.974 47.195 126.664 47.195C125.864 47.195 125.229 46.97 124.759 46.52C124.299 46.07 124.069 45.415 124.069 44.555V40.76H122.464V39.575H124.069V36.95H125.494V39.575H128.074V40.76H125.494V44.45C125.494 44.91 125.609 45.265 125.839 45.515C126.069 45.755 126.379 45.875 126.769 45.875C126.959 45.875 127.164 45.84 127.384 45.77C127.614 45.69 127.829 45.585 128.029 45.455L128.464 46.625ZM141.023 44.54V36.95H142.493V47H141.248L134.993 39.515V47H133.538V36.95H134.783L141.023 44.54ZM150.754 39.575H152.179V47H150.754V46.04C150.424 46.41 150.019 46.695 149.539 46.895C149.059 47.095 148.534 47.195 147.964 47.195C147.314 47.195 146.704 47.03 146.134 46.7C145.574 46.37 145.124 45.91 144.784 45.32C144.444 44.73 144.274 44.055 144.274 43.295C144.274 42.535 144.444 41.86 144.784 41.27C145.124 40.67 145.574 40.205 146.134 39.875C146.704 39.545 147.314 39.38 147.964 39.38C148.534 39.38 149.059 39.48 149.539 39.68C150.019 39.88 150.424 40.17 150.754 40.55V39.575ZM148.204 45.95C148.644 45.95 149.059 45.84 149.449 45.62C149.839 45.4 150.154 45.09 150.394 44.69C150.634 44.28 150.754 43.815 150.754 43.295C150.754 42.775 150.634 42.31 150.394 41.9C150.154 41.49 149.839 41.175 149.449 40.955C149.059 40.735 148.644 40.625 148.204 40.625C147.724 40.625 147.289 40.735 146.899 40.955C146.519 41.175 146.214 41.49 145.984 41.9C145.764 42.3 145.654 42.765 145.654 43.295C145.654 43.825 145.764 44.295 145.984 44.705C146.214 45.105 146.519 45.415 146.899 45.635C147.289 45.845 147.724 45.95 148.204 45.95ZM163.751 39.38C164.261 39.38 164.726 39.5 165.146 39.74C165.576 39.98 165.916 40.32 166.166 40.76C166.416 41.19 166.541 41.685 166.541 42.245V47H165.146V42.515C165.146 41.965 164.981 41.525 164.651 41.195C164.321 40.855 163.896 40.685 163.376 40.685C162.736 40.685 162.226 40.91 161.846 41.36C161.476 41.81 161.291 42.45 161.291 43.28V47H159.866V42.515C159.866 41.955 159.701 41.51 159.371 41.18C159.051 40.85 158.631 40.685 158.111 40.685C157.471 40.685 156.966 40.91 156.596 41.36C156.226 41.81 156.041 42.45 156.041 43.28V47H154.631V39.575H156.041V40.52C156.611 39.76 157.421 39.38 158.471 39.38C159.021 39.38 159.516 39.505 159.956 39.755C160.406 39.995 160.746 40.335 160.976 40.775C161.276 40.335 161.661 39.995 162.131 39.755C162.601 39.505 163.141 39.38 163.751 39.38ZM175.696 43.625H169.561C169.601 44.095 169.736 44.51 169.966 44.87C170.196 45.23 170.486 45.505 170.836 45.695C171.186 45.885 171.556 45.98 171.946 45.98C172.406 45.98 172.826 45.895 173.206 45.725C173.586 45.545 173.906 45.235 174.166 44.795L175.336 45.29C175.006 45.92 174.546 46.395 173.956 46.715C173.376 47.035 172.706 47.195 171.946 47.195C171.276 47.195 170.651 47.035 170.071 46.715C169.491 46.385 169.026 45.925 168.676 45.335C168.336 44.745 168.166 44.07 168.166 43.31C168.166 42.54 168.341 41.86 168.691 41.27C169.041 40.67 169.506 40.205 170.086 39.875C170.676 39.545 171.316 39.38 172.006 39.38C172.676 39.38 173.286 39.54 173.836 39.86C174.386 40.17 174.826 40.61 175.156 41.18C175.496 41.74 175.676 42.385 175.696 43.115V43.625ZM172.006 40.625C171.456 40.625 170.946 40.8 170.476 41.15C170.016 41.5 169.731 41.98 169.621 42.59H174.256C174.146 41.96 173.886 41.475 173.476 41.135C173.066 40.795 172.576 40.625 172.006 40.625Z" fill="#353535"/>
<path d="M20.1 67.625H13.965C14.005 68.095 14.14 68.51 14.37 68.87C14.6 69.23 14.89 69.505 15.24 69.695C15.59 69.885 15.96 69.98 16.35 69.98C16.81 69.98 17.23 69.895 17.61 69.725C17.99 69.545 18.31 69.235 18.57 68.795L19.74 69.29C19.41 69.92 18.95 70.395 18.36 70.715C17.78 71.035 17.11 71.195 16.35 71.195C15.68 71.195 15.055 71.035 14.475 70.715C13.895 70.385 13.43 69.925 13.08 69.335C12.74 68.745 12.57 68.07 12.57 67.31C12.57 66.54 12.745 65.86 13.095 65.27C13.445 64.67 13.91 64.205 14.49 63.875C15.08 63.545 15.72 63.38 16.41 63.38C17.08 63.38 17.69 63.54 18.24 63.86C18.79 64.17 19.23 64.61 19.56 65.18C19.9 65.74 20.08 66.385 20.1 67.115V67.625ZM16.41 64.625C15.86 64.625 15.35 64.8 14.88 65.15C14.42 65.5 14.135 65.98 14.025 66.59H18.66C18.55 65.96 18.29 65.475 17.88 65.135C17.47 64.795 16.98 64.625 16.41 64.625ZM27.1215 63.575H28.8165L26.0865 67.355L28.8165 71H27.1215L25.0515 68.225L22.9815 71H21.2865L24.0165 67.355L21.2865 63.575H22.9815L25.0515 66.455L27.1215 63.575ZM34.847 63.38C35.497 63.38 36.102 63.545 36.662 63.875C37.232 64.205 37.687 64.67 38.027 65.27C38.367 65.86 38.537 66.535 38.537 67.295C38.537 68.055 38.367 68.73 38.027 69.32C37.687 69.91 37.232 70.37 36.662 70.7C36.102 71.03 35.497 71.195 34.847 71.195C34.267 71.195 33.737 71.095 33.257 70.895C32.787 70.695 32.387 70.405 32.057 70.025V74H30.647V63.575H32.057V64.55C32.397 64.18 32.802 63.895 33.272 63.695C33.742 63.485 34.267 63.38 34.847 63.38ZM34.622 69.95C35.092 69.95 35.517 69.845 35.897 69.635C36.287 69.415 36.592 69.105 36.812 68.705C37.042 68.295 37.157 67.825 37.157 67.295C37.157 66.765 37.042 66.3 36.812 65.9C36.592 65.49 36.287 65.175 35.897 64.955C35.517 64.735 35.092 64.625 34.622 64.625C34.182 64.625 33.767 64.735 33.377 64.955C32.987 65.175 32.667 65.49 32.417 65.9C32.177 66.31 32.057 66.775 32.057 67.295C32.057 67.815 32.177 68.28 32.417 68.69C32.667 69.09 32.987 69.4 33.377 69.62C33.767 69.84 34.182 69.95 34.622 69.95ZM41.1693 60.44C41.4293 60.44 41.6443 60.53 41.8143 60.71C41.9943 60.89 42.0843 61.1 42.0843 61.34C42.0843 61.59 41.9943 61.8 41.8143 61.97C41.6443 62.14 41.4293 62.225 41.1693 62.225C40.8993 62.225 40.6743 62.145 40.4943 61.985C40.3243 61.815 40.2393 61.6 40.2393 61.34C40.2393 61.09 40.3293 60.88 40.5093 60.71C40.6893 60.53 40.9093 60.44 41.1693 60.44ZM40.4643 63.575H41.8743V71H40.4643V63.575ZM48.7655 63.5C48.9755 63.5 49.1455 63.515 49.2755 63.545L49.1855 64.91C49.0955 64.9 48.9505 64.895 48.7505 64.895C47.8105 64.895 47.0955 65.205 46.6055 65.825C46.1155 66.435 45.8705 67.26 45.8705 68.3V71H44.4605V63.575H45.8705V65.27C46.1905 64.72 46.5905 64.29 47.0705 63.98C47.5605 63.66 48.1255 63.5 48.7655 63.5ZM57.5854 67.625H51.4504C51.4904 68.095 51.6254 68.51 51.8554 68.87C52.0854 69.23 52.3754 69.505 52.7254 69.695C53.0754 69.885 53.4454 69.98 53.8354 69.98C54.2954 69.98 54.7154 69.895 55.0954 69.725C55.4754 69.545 55.7954 69.235 56.0554 68.795L57.2254 69.29C56.8954 69.92 56.4354 70.395 55.8454 70.715C55.2654 71.035 54.5954 71.195 53.8354 71.195C53.1654 71.195 52.5404 71.035 51.9604 70.715C51.3804 70.385 50.9154 69.925 50.5654 69.335C50.2254 68.745 50.0554 68.07 50.0554 67.31C50.0554 66.54 50.2304 65.86 50.5804 65.27C50.9304 64.67 51.3954 64.205 51.9754 63.875C52.5654 63.545 53.2054 63.38 53.8954 63.38C54.5654 63.38 55.1754 63.54 55.7254 63.86C56.2754 64.17 56.7154 64.61 57.0454 65.18C57.3854 65.74 57.5654 66.385 57.5854 67.115V67.625ZM53.8954 64.625C53.3454 64.625 52.8354 64.8 52.3654 65.15C51.9054 65.5 51.6204 65.98 51.5104 66.59H56.1454C56.0354 65.96 55.7754 65.475 55.3654 65.135C54.9554 64.795 54.4654 64.625 53.8954 64.625ZM60.1819 68.705C60.2319 69.145 60.4369 69.48 60.7969 69.71C61.1569 69.94 61.6119 70.055 62.1619 70.055C62.6419 70.055 63.0219 69.955 63.3019 69.755C63.5919 69.555 63.7369 69.29 63.7369 68.96C63.7369 68.72 63.6469 68.525 63.4669 68.375C63.2869 68.215 63.0119 68.095 62.6419 68.015L61.0069 67.67C60.3569 67.53 59.8619 67.295 59.5219 66.965C59.1819 66.635 59.0119 66.21 59.0119 65.69C59.0119 65 59.2769 64.445 59.8069 64.025C60.3369 63.595 61.0369 63.38 61.9069 63.38C62.7369 63.38 63.4269 63.575 63.9769 63.965C64.5269 64.355 64.8669 64.865 64.9969 65.495L63.6469 65.78C63.5869 65.4 63.3969 65.095 63.0769 64.865C62.7669 64.635 62.3669 64.52 61.8769 64.52C61.4069 64.52 61.0469 64.62 60.7969 64.82C60.5569 65.01 60.4369 65.26 60.4369 65.57C60.4369 65.81 60.5119 66 60.6619 66.14C60.8219 66.28 61.0719 66.39 61.4119 66.47L63.1969 66.86C63.7969 66.99 64.2669 67.225 64.6069 67.565C64.9469 67.905 65.1169 68.335 65.1169 68.855C65.1169 69.595 64.8369 70.17 64.2769 70.58C63.7169 70.99 62.9719 71.195 62.0419 71.195C61.1519 71.195 60.4069 71.01 59.8069 70.64C59.2069 70.26 58.8619 69.715 58.7719 69.005L60.1819 68.705ZM74.4755 60.755C75.3055 60.755 76.0405 60.975 76.6805 61.415C77.3205 61.855 77.8155 62.47 78.1655 63.26C78.5155 64.05 78.6905 64.955 78.6905 65.975C78.6905 67.005 78.5155 67.915 78.1655 68.705C77.8155 69.495 77.3205 70.11 76.6805 70.55C76.0405 70.98 75.3055 71.195 74.4755 71.195C73.6455 71.195 72.9105 70.98 72.2705 70.55C71.6305 70.11 71.1355 69.495 70.7855 68.705C70.4355 67.915 70.2605 67.005 70.2605 65.975C70.2605 64.955 70.4355 64.05 70.7855 63.26C71.1355 62.47 71.6305 61.855 72.2705 61.415C72.9105 60.975 73.6455 60.755 74.4755 60.755ZM74.4755 69.845C75.0155 69.845 75.4905 69.685 75.9005 69.365C76.3205 69.035 76.6405 68.58 76.8605 68C77.0905 67.41 77.2055 66.735 77.2055 65.975C77.2055 65.215 77.0905 64.54 76.8605 63.95C76.6405 63.36 76.3205 62.905 75.9005 62.585C75.4905 62.255 75.0155 62.09 74.4755 62.09C73.9255 62.09 73.4455 62.255 73.0355 62.585C72.6255 62.905 72.3055 63.36 72.0755 63.95C71.8555 64.53 71.7455 65.205 71.7455 65.975C71.7455 66.745 71.8555 67.42 72.0755 68C72.3055 68.58 72.6255 69.035 73.0355 69.365C73.4455 69.685 73.9255 69.845 74.4755 69.845ZM85.8161 65.885C86.2961 66.045 86.6711 66.32 86.9411 66.71C87.2211 67.09 87.3611 67.55 87.3611 68.09C87.3611 68.71 87.2161 69.255 86.9261 69.725C86.6361 70.195 86.2261 70.56 85.6961 70.82C85.1761 71.07 84.5761 71.195 83.8961 71.195C83.1961 71.195 82.5761 71.06 82.0361 70.79C81.5061 70.52 81.0811 70.145 80.7611 69.665C80.4411 69.175 80.2611 68.61 80.2211 67.97L81.5861 67.7C81.6461 68.39 81.8761 68.935 82.2761 69.335C82.6861 69.725 83.2261 69.92 83.8961 69.92C84.5261 69.92 85.0361 69.755 85.4261 69.425C85.8261 69.085 86.0261 68.645 86.0261 68.105C86.0261 67.605 85.8511 67.215 85.5011 66.935C85.1511 66.655 84.6611 66.515 84.0311 66.515H82.6211V65.255H83.9411C84.5311 65.255 84.9911 65.12 85.3211 64.85C85.6611 64.58 85.8311 64.21 85.8311 63.74C85.8311 63.23 85.6511 62.82 85.2911 62.51C84.9311 62.19 84.4561 62.03 83.8661 62.03C83.2361 62.03 82.7261 62.22 82.3361 62.6C81.9461 62.97 81.7311 63.505 81.6911 64.205L80.3561 63.935C80.3961 63.305 80.5661 62.75 80.8661 62.27C81.1761 61.79 81.5861 61.42 82.0961 61.16C82.6061 60.89 83.1961 60.755 83.8661 60.755C84.5261 60.755 85.1061 60.88 85.6061 61.13C86.1061 61.38 86.4911 61.73 86.7611 62.18C87.0411 62.63 87.1811 63.15 87.1811 63.74C87.1811 64.26 87.0611 64.705 86.8211 65.075C86.5811 65.445 86.2461 65.715 85.8161 65.885ZM88.3219 71.66L92.5969 59.69L93.8119 60.155L89.5669 72.14L88.3219 71.66ZM96.6587 69.68H101.189V71H94.3937V70.055L97.9187 66.71C98.3587 66.3 98.6887 65.975 98.9087 65.735C99.1287 65.495 99.3137 65.22 99.4637 64.91C99.6137 64.6 99.6887 64.255 99.6887 63.875C99.6887 63.325 99.5087 62.88 99.1487 62.54C98.7887 62.19 98.3137 62.015 97.7237 62.015C97.1037 62.015 96.6087 62.21 96.2387 62.6C95.8787 62.98 95.6787 63.525 95.6387 64.235L94.3037 63.965C94.3437 62.985 94.6737 62.205 95.2937 61.625C95.9237 61.045 96.7437 60.755 97.7537 60.755C98.4037 60.755 98.9837 60.885 99.4937 61.145C100.004 61.405 100.399 61.77 100.679 62.24C100.959 62.7 101.099 63.235 101.099 63.845C101.099 64.315 101.014 64.745 100.844 65.135C100.684 65.525 100.444 65.91 100.124 66.29C99.8037 66.67 99.3587 67.125 98.7887 67.655L96.6587 69.68ZM106.673 60.755C107.503 60.755 108.238 60.975 108.878 61.415C109.518 61.855 110.013 62.47 110.363 63.26C110.713 64.05 110.888 64.955 110.888 65.975C110.888 67.005 110.713 67.915 110.363 68.705C110.013 69.495 109.518 70.11 108.878 70.55C108.238 70.98 107.503 71.195 106.673 71.195C105.843 71.195 105.108 70.98 104.468 70.55C103.828 70.11 103.333 69.495 102.983 68.705C102.633 67.915 102.458 67.005 102.458 65.975C102.458 64.955 102.633 64.05 102.983 63.26C103.333 62.47 103.828 61.855 104.468 61.415C105.108 60.975 105.843 60.755 106.673 60.755ZM106.673 69.845C107.213 69.845 107.688 69.685 108.098 69.365C108.518 69.035 108.838 68.58 109.058 68C109.288 67.41 109.403 66.735 109.403 65.975C109.403 65.215 109.288 64.54 109.058 63.95C108.838 63.36 108.518 62.905 108.098 62.585C107.688 62.255 107.213 62.09 106.673 62.09C106.123 62.09 105.643 62.255 105.233 62.585C104.823 62.905 104.503 63.36 104.273 63.95C104.053 64.53 103.943 65.205 103.943 65.975C103.943 66.745 104.053 67.42 104.273 68C104.503 68.58 104.823 69.035 105.233 69.365C105.643 69.685 106.123 69.845 106.673 69.845ZM118.013 65.885C118.493 66.045 118.868 66.32 119.138 66.71C119.418 67.09 119.558 67.55 119.558 68.09C119.558 68.71 119.413 69.255 119.123 69.725C118.833 70.195 118.423 70.56 117.893 70.82C117.373 71.07 116.773 71.195 116.093 71.195C115.393 71.195 114.773 71.06 114.233 70.79C113.703 70.52 113.278 70.145 112.958 69.665C112.638 69.175 112.458 68.61 112.418 67.97L113.783 67.7C113.843 68.39 114.073 68.935 114.473 69.335C114.883 69.725 115.423 69.92 116.093 69.92C116.723 69.92 117.233 69.755 117.623 69.425C118.023 69.085 118.223 68.645 118.223 68.105C118.223 67.605 118.048 67.215 117.698 66.935C117.348 66.655 116.858 66.515 116.228 66.515H114.818V65.255H116.138C116.728 65.255 117.188 65.12 117.518 64.85C117.858 64.58 118.028 64.21 118.028 63.74C118.028 63.23 117.848 62.82 117.488 62.51C117.128 62.19 116.653 62.03 116.063 62.03C115.433 62.03 114.923 62.22 114.533 62.6C114.143 62.97 113.928 63.505 113.888 64.205L112.553 63.935C112.593 63.305 112.763 62.75 113.063 62.27C113.373 61.79 113.783 61.42 114.293 61.16C114.803 60.89 115.393 60.755 116.063 60.755C116.723 60.755 117.303 60.88 117.803 61.13C118.303 61.38 118.688 61.73 118.958 62.18C119.238 62.63 119.378 63.15 119.378 63.74C119.378 64.26 119.258 64.705 119.018 65.075C118.778 65.445 118.443 65.715 118.013 65.885ZM125.364 60.755C126.194 60.755 126.929 60.975 127.569 61.415C128.209 61.855 128.704 62.47 129.054 63.26C129.404 64.05 129.579 64.955 129.579 65.975C129.579 67.005 129.404 67.915 129.054 68.705C128.704 69.495 128.209 70.11 127.569 70.55C126.929 70.98 126.194 71.195 125.364 71.195C124.534 71.195 123.799 70.98 123.159 70.55C122.519 70.11 122.024 69.495 121.674 68.705C121.324 67.915 121.149 67.005 121.149 65.975C121.149 64.955 121.324 64.05 121.674 63.26C122.024 62.47 122.519 61.855 123.159 61.415C123.799 60.975 124.534 60.755 125.364 60.755ZM125.364 69.845C125.904 69.845 126.379 69.685 126.789 69.365C127.209 69.035 127.529 68.58 127.749 68C127.979 67.41 128.094 66.735 128.094 65.975C128.094 65.215 127.979 64.54 127.749 63.95C127.529 63.36 127.209 62.905 126.789 62.585C126.379 62.255 125.904 62.09 125.364 62.09C124.814 62.09 124.334 62.255 123.924 62.585C123.514 62.905 123.194 63.36 122.964 63.95C122.744 64.53 122.634 65.205 122.634 65.975C122.634 66.745 122.744 67.42 122.964 68C123.194 68.58 123.514 69.035 123.924 69.365C124.334 69.685 124.814 69.845 125.364 69.845Z" fill="#858585"/>
<path fill-rule="evenodd" clip-rule="evenodd" d="M369.667 15.3334V16.3277C370.074 16.4482 370.463 16.6115 370.828 16.8125L371.536 16.1075C372.592 15.0509 373.176 15.4165 373.71 15.9275L374.074 16.2916C374.585 16.8249 374.949 17.4079 373.893 18.4645L373.249 19.1015C373.223 19.1276 373.199 19.1521 373.177 19.1751C373.374 19.5397 373.534 19.9275 373.652 20.3334H374.667C376.218 20.3334 376.325 21.0557 376.333 21.8279V22.1722C376.325 22.9443 376.218 23.6667 374.667 23.6667H373.64C373.521 24.0661 373.36 24.4477 373.164 24.8067L373.893 25.5356C374.949 26.5922 374.585 27.1751 374.073 27.7098L373.769 28.0151L373.646 28.1331C373.128 28.6123 372.552 28.9085 371.536 27.8926L370.803 27.1597C370.445 27.3542 370.065 27.5128 369.667 27.6304V28.6667C369.667 30.2184 368.944 30.3254 368.172 30.3328H367.828C367.056 30.3254 366.333 30.2184 366.333 28.6667V27.6348C365.934 27.5179 365.553 27.3599 365.193 27.1656L364.464 27.8926C363.408 28.9492 362.825 28.5848 362.28 28.0622L361.907 27.6899C361.39 27.1499 361.051 26.5922 362.107 25.5356L362.827 24.8162C362.628 24.4545 362.466 24.0697 362.345 23.6667H361.333C359.782 23.6667 359.675 22.9443 359.667 22.1722V21.8279L359.671 21.6574C359.698 20.9527 359.897 20.3334 361.333 20.3334H362.333C362.451 19.9259 362.612 19.5366 362.811 19.1707L362.107 18.4645C361.01 17.3673 361.444 16.7826 361.985 16.2308L362.29 15.9273C362.825 15.4152 363.408 15.0509 364.464 16.1075L365.162 16.8098C365.53 16.6076 365.922 16.4437 366.333 16.3234V15.3334C366.333 13.7816 367.056 13.6746 367.828 13.6672H368.172L368.343 13.6711C369.047 13.6984 369.667 13.8966 369.667 15.3334ZM367.993 17.8334C365.71 17.8334 363.86 19.6895 363.86 21.9791C363.86 24.2687 365.71 26.1248 367.993 26.1248C370.275 26.1248 372.125 24.2687 372.125 21.9791C372.125 19.6895 370.275 17.8334 367.993 17.8334Z" fill="#858585"/>
<path d="M350.009 73V64.96H352.349C353.509 64.96 354.337 65.312 354.833 66.016C355.337 66.72 355.589 67.708 355.589 68.98C355.589 70.244 355.337 71.232 354.833 71.944C354.337 72.648 353.509 73 352.349 73H350.009ZM352.361 71.572C352.761 71.572 353.073 71.488 353.297 71.32C353.529 71.144 353.693 70.872 353.789 70.504C353.893 70.128 353.945 69.62 353.945 68.98C353.945 68.332 353.893 67.824 353.789 67.456C353.693 67.08 353.529 66.808 353.297 66.64C353.073 66.472 352.761 66.388 352.361 66.388H351.641V71.572H352.361ZM358.873 69.652V71.572H362.629V73H357.229V64.96H362.593V66.376H358.873V68.296H361.705V69.652H358.873ZM367.1 68.548L368.528 64.96H370.112V73H368.588V67.768L367.364 70.72H366.836L365.612 67.744V73H364.088V64.96H365.684L367.1 68.548ZM374.295 64.792C375.215 64.792 375.931 65.164 376.443 65.908C376.955 66.644 377.211 67.672 377.211 68.992C377.211 70.304 376.955 71.328 376.443 72.064C375.931 72.8 375.215 73.168 374.295 73.168C373.375 73.168 372.659 72.8 372.147 72.064C371.635 71.328 371.379 70.304 371.379 68.992C371.379 67.672 371.635 66.644 372.147 65.908C372.659 65.164 373.375 64.792 374.295 64.792ZM374.295 71.668C374.751 71.668 375.079 71.464 375.279 71.056C375.479 70.64 375.579 69.952 375.579 68.992C375.579 68.016 375.479 67.324 375.279 66.916C375.079 66.5 374.751 66.292 374.295 66.292C373.839 66.292 373.511 66.5 373.311 66.916C373.111 67.324 373.011 68.016 373.011 68.992C373.011 69.952 373.111 70.64 373.311 71.056C373.511 71.464 373.839 71.668 374.295 71.668Z" fill="#F7A912"/>
<rect x="1" y="1" width="388" height="86" rx="7" stroke="#C7C7C7" stroke-width="2"/>
</svg>
