<svg width="220" height="40" viewBox="0 0 220 40" fill="none" xmlns="http://www.w3.org/2000/svg">
<rect x="1" y="1" width="218" height="38" fill="white"/>
<g clip-path="url(#clip0_1495_8351)">
<path fill-rule="evenodd" clip-rule="evenodd" d="M8.5 7.96624C8.5 7.61679 8.78472 7.3335 9.13443 7.3335H15.8656C16.216 7.3335 16.5 7.61647 16.5 7.96624V12.0341C16.5 12.3835 16.2153 12.6668 15.8656 12.6668H9.13443C8.78405 12.6668 8.5 12.3839 8.5 12.0341V7.96624Z" fill="#224DBA"/>
<path fill-rule="evenodd" clip-rule="evenodd" d="M10.5836 11.3152H9.97776L9.52348 9.50503C9.50192 9.42176 9.45614 9.34815 9.38879 9.31345C9.22073 9.22627 9.03553 9.15688 8.8335 9.12188V9.05219H9.8094C9.94409 9.05219 10.0451 9.15688 10.0619 9.27846L10.2977 10.5842L10.9032 9.05219H11.4921L10.5836 11.3152ZM11.8289 11.3152H11.2567L11.7278 9.05219H12.3L11.8289 11.3152ZM13.0402 9.6791C13.057 9.55722 13.158 9.48753 13.2759 9.48753C13.4611 9.47003 13.6628 9.50503 13.8312 9.59191L13.9322 9.10469C13.7638 9.035 13.5786 9 13.4106 9C12.8553 9 12.4512 9.31345 12.4512 9.74849C12.4512 10.0794 12.7374 10.2532 12.9395 10.3579C13.158 10.4623 13.2422 10.532 13.2254 10.6364C13.2254 10.7929 13.057 10.8626 12.8889 10.8626C12.6869 10.8626 12.4849 10.8104 12.3 10.7232L12.199 11.2108C12.401 11.2977 12.6196 11.3327 12.8216 11.3327C13.4442 11.3499 13.8312 11.0367 13.8312 10.5667C13.8312 9.97476 13.0402 9.94006 13.0402 9.6791ZM15.8335 11.3152L15.3792 9.05219H14.8913C14.7902 9.05219 14.6892 9.12188 14.6556 9.22627L13.8143 11.3152H14.4033L14.5209 10.9845H15.2445L15.3119 11.3152H15.8335ZM14.9754 9.6616L15.1435 10.5145H14.6724L14.9754 9.6616Z" fill="white"/>
</g>
<path d="M26.4043 9.30469L25.7354 9.44141L26.1992 10.0347L25.9307 10.2202L25.5498 9.57324L25.1641 10.2202L24.8955 10.0347L25.3594 9.44141L24.6855 9.30469L24.7954 8.99951L25.4351 9.24121L25.3789 8.49902H25.7158L25.6597 9.24121L26.3018 8.99951L26.4043 9.30469ZM28.4893 9.30469L27.8203 9.44141L28.2842 10.0347L28.0156 10.2202L27.6348 9.57324L27.249 10.2202L26.9805 10.0347L27.4443 9.44141L26.7705 9.30469L26.8804 8.99951L27.52 9.24121L27.4639 8.49902H27.8008L27.7446 9.24121L28.3867 8.99951L28.4893 9.30469ZM30.5742 9.30469L29.9053 9.44141L30.3691 10.0347L30.1006 10.2202L29.7197 9.57324L29.334 10.2202L29.0654 10.0347L29.5293 9.44141L28.8555 9.30469L28.9653 8.99951L29.605 9.24121L29.5488 8.49902H29.8857L29.8296 9.24121L30.4717 8.99951L30.5742 9.30469ZM32.6592 9.30469L31.9902 9.44141L32.4541 10.0347L32.1855 10.2202L31.8047 9.57324L31.4189 10.2202L31.1504 10.0347L31.6143 9.44141L30.9404 9.30469L31.0503 8.99951L31.6899 9.24121L31.6338 8.49902H31.9707L31.9146 9.24121L32.5566 8.99951L32.6592 9.30469ZM35.9795 12H35.5791V8.9751C35.5482 9.00602 35.5026 9.04183 35.4424 9.08252C35.3838 9.12158 35.3171 9.16064 35.2422 9.19971C35.1689 9.23877 35.0908 9.27539 35.0078 9.30957C34.9264 9.34375 34.8467 9.37061 34.7686 9.39014V8.98486C34.8564 8.96045 34.9492 8.9279 35.0469 8.88721C35.1462 8.84489 35.243 8.7985 35.3374 8.74805C35.4334 8.69596 35.5238 8.64225 35.6084 8.58691C35.693 8.52995 35.7663 8.47461 35.8281 8.4209H35.9795V12ZM39.2339 11.0088C39.2339 11.1667 39.2038 11.3107 39.1436 11.4409C39.085 11.5695 39.0011 11.6802 38.8921 11.7729C38.7847 11.8641 38.6553 11.9349 38.5039 11.9854C38.3525 12.0358 38.1857 12.061 38.0034 12.061C37.6698 12.061 37.4045 11.9976 37.2075 11.8706V11.4409C37.4435 11.6265 37.7137 11.7192 38.0181 11.7192C38.1401 11.7192 38.25 11.7038 38.3477 11.6729C38.4469 11.6419 38.5316 11.5972 38.6016 11.5386C38.6732 11.48 38.7277 11.4092 38.7651 11.3262C38.8042 11.2432 38.8237 11.1496 38.8237 11.0454C38.8237 10.5881 38.4982 10.3594 37.8472 10.3594H37.5566V10.02H37.8325C38.4087 10.02 38.6968 9.80518 38.6968 9.37549C38.6968 8.97835 38.4771 8.77979 38.0376 8.77979C37.7902 8.77979 37.5583 8.86279 37.3418 9.02881V8.64062C37.5648 8.50716 37.8301 8.44043 38.1377 8.44043C38.2842 8.44043 38.4168 8.46077 38.5356 8.50146C38.6545 8.54215 38.7562 8.59912 38.8408 8.67236C38.9255 8.74561 38.9906 8.8335 39.0361 8.93604C39.0833 9.03857 39.1069 9.15169 39.1069 9.27539C39.1069 9.736 38.8742 10.0322 38.4087 10.1641V10.1738C38.5275 10.1868 38.6374 10.2161 38.7383 10.2617C38.8392 10.3057 38.9263 10.3634 38.9995 10.4351C39.0728 10.5067 39.1297 10.5913 39.1704 10.689C39.2127 10.785 39.2339 10.8916 39.2339 11.0088ZM41.9292 11.0088C41.9292 11.1667 41.8991 11.3107 41.8389 11.4409C41.7803 11.5695 41.6965 11.6802 41.5874 11.7729C41.48 11.8641 41.3506 11.9349 41.1992 11.9854C41.0479 12.0358 40.881 12.061 40.6987 12.061C40.3651 12.061 40.0998 11.9976 39.9028 11.8706V11.4409C40.1388 11.6265 40.409 11.7192 40.7134 11.7192C40.8354 11.7192 40.9453 11.7038 41.043 11.6729C41.1423 11.6419 41.2269 11.5972 41.2969 11.5386C41.3685 11.48 41.423 11.4092 41.4604 11.3262C41.4995 11.2432 41.519 11.1496 41.519 11.0454C41.519 10.5881 41.1935 10.3594 40.5425 10.3594H40.252V10.02H40.5278C41.104 10.02 41.3921 9.80518 41.3921 9.37549C41.3921 8.97835 41.1724 8.77979 40.7329 8.77979C40.4855 8.77979 40.2536 8.86279 40.0371 9.02881V8.64062C40.2601 8.50716 40.5254 8.44043 40.833 8.44043C40.9795 8.44043 41.1121 8.46077 41.231 8.50146C41.3498 8.54215 41.4515 8.59912 41.5361 8.67236C41.6208 8.74561 41.6859 8.8335 41.7314 8.93604C41.7786 9.03857 41.8022 9.15169 41.8022 9.27539C41.8022 9.736 41.5695 10.0322 41.104 10.1641V10.1738C41.2228 10.1868 41.3327 10.2161 41.4336 10.2617C41.5345 10.3057 41.6216 10.3634 41.6948 10.4351C41.7681 10.5067 41.825 10.5913 41.8657 10.689C41.908 10.785 41.9292 10.8916 41.9292 11.0088ZM44.7637 8.73096C44.71 8.82373 44.6449 8.93929 44.5684 9.07764C44.4935 9.21598 44.4137 9.37142 44.3291 9.54395C44.2445 9.71647 44.1582 9.90202 44.0703 10.1006C43.9824 10.2992 43.9002 10.5042 43.8237 10.7158C43.7472 10.9274 43.6797 11.1423 43.6211 11.3604C43.5641 11.5768 43.5226 11.79 43.4966 12H43.0669C43.0962 11.7917 43.141 11.5793 43.2012 11.3628C43.263 11.1447 43.3322 10.9315 43.4087 10.7231C43.4868 10.5132 43.569 10.3114 43.6553 10.1177C43.7415 9.92399 43.8254 9.74577 43.9067 9.58301C43.9881 9.42025 44.0622 9.27702 44.1289 9.15332C44.1973 9.02799 44.2518 8.93034 44.2925 8.86035H42.5371V8.49902H44.7637V8.73096Z" fill="#2F2F2F"/>
<path d="M10.7363 16.8701H9.36914V18.0811H10.6338V18.4497H9.36914V20H8.95898V16.499H10.7363V16.8701ZM11.5518 16.8652C11.4801 16.8652 11.4191 16.8408 11.3687 16.792C11.3182 16.7432 11.293 16.6813 11.293 16.6064C11.293 16.5316 11.3182 16.4697 11.3687 16.4209C11.4191 16.3704 11.4801 16.3452 11.5518 16.3452C11.625 16.3452 11.6868 16.3704 11.7373 16.4209C11.7894 16.4697 11.8154 16.5316 11.8154 16.6064C11.8154 16.6781 11.7894 16.7391 11.7373 16.7896C11.6868 16.84 11.625 16.8652 11.5518 16.8652ZM11.7471 20H11.3467V17.5H11.7471V20ZM13.8613 17.9053C13.7913 17.8516 13.6904 17.8247 13.5586 17.8247C13.3877 17.8247 13.2445 17.9053 13.1289 18.0664C13.015 18.2275 12.958 18.4473 12.958 18.7256V20H12.5576V17.5H12.958V18.0151H12.9678C13.0247 17.8394 13.1118 17.7026 13.229 17.605C13.3462 17.5057 13.4772 17.4561 13.6221 17.4561C13.7262 17.4561 13.806 17.4674 13.8613 17.4902V17.9053ZM14.1445 19.9097V19.48C14.3626 19.6411 14.6027 19.7217 14.8647 19.7217C15.2163 19.7217 15.3921 19.6045 15.3921 19.3701C15.3921 19.3034 15.3766 19.2472 15.3457 19.2017C15.3164 19.1545 15.2757 19.113 15.2236 19.0771C15.1732 19.0413 15.113 19.0096 15.043 18.9819C14.9746 18.9526 14.9006 18.9225 14.8208 18.8916C14.7101 18.8477 14.6125 18.8037 14.5278 18.7598C14.4448 18.7142 14.3748 18.6637 14.3179 18.6084C14.2625 18.5514 14.2202 18.4871 14.1909 18.4155C14.1632 18.3439 14.1494 18.2601 14.1494 18.1641C14.1494 18.0469 14.1763 17.9435 14.23 17.854C14.2837 17.7629 14.3553 17.6872 14.4448 17.627C14.5343 17.5651 14.6361 17.5187 14.75 17.4878C14.8656 17.4569 14.9844 17.4414 15.1064 17.4414C15.3229 17.4414 15.5166 17.4788 15.6875 17.5537V17.959C15.5036 17.8385 15.292 17.7783 15.0527 17.7783C14.9779 17.7783 14.9103 17.7873 14.8501 17.8052C14.7899 17.8215 14.7378 17.8451 14.6938 17.876C14.6515 17.9069 14.6182 17.9443 14.5938 17.9883C14.571 18.0306 14.5596 18.0778 14.5596 18.1299C14.5596 18.195 14.571 18.2495 14.5938 18.2935C14.6182 18.3374 14.6532 18.3765 14.6987 18.4106C14.7443 18.4448 14.7996 18.4757 14.8647 18.5034C14.9299 18.5311 15.0039 18.5612 15.0869 18.5938C15.1976 18.6361 15.2969 18.68 15.3848 18.7256C15.4727 18.7695 15.5475 18.82 15.6094 18.877C15.6712 18.9323 15.7184 18.9966 15.751 19.0698C15.7852 19.1431 15.8022 19.2301 15.8022 19.3311C15.8022 19.4548 15.7746 19.5622 15.7192 19.6533C15.6655 19.7445 15.5931 19.8201 15.502 19.8804C15.4108 19.9406 15.3058 19.9854 15.187 20.0146C15.0682 20.0439 14.9437 20.0586 14.8135 20.0586C14.5563 20.0586 14.3333 20.009 14.1445 19.9097ZM17.5796 19.9756C17.4852 20.0277 17.3607 20.0537 17.2061 20.0537C16.7682 20.0537 16.5493 19.8096 16.5493 19.3213V17.8418H16.1196V17.5H16.5493V16.8896L16.9497 16.7603V17.5H17.5796V17.8418H16.9497V19.2505C16.9497 19.4181 16.9782 19.5378 17.0352 19.6094C17.0921 19.681 17.1865 19.7168 17.3184 19.7168C17.4193 19.7168 17.5063 19.6891 17.5796 19.6338V19.9756ZM22.3623 20H21.8594L20.0576 17.2095C20.012 17.1395 19.9746 17.0662 19.9453 16.9897H19.9307C19.9437 17.0646 19.9502 17.2249 19.9502 17.4707V20H19.54V16.499H20.0723L21.8252 19.2456C21.8984 19.3595 21.9456 19.4377 21.9668 19.48H21.9766C21.9603 19.3791 21.9521 19.2074 21.9521 18.9648V16.499H22.3623V20ZM25.0161 20H24.6157V19.6094H24.606C24.4318 19.9089 24.1755 20.0586 23.8369 20.0586C23.5879 20.0586 23.3926 19.9927 23.251 19.8608C23.111 19.729 23.041 19.554 23.041 19.3359C23.041 18.8688 23.3161 18.597 23.8662 18.5205L24.6157 18.4155C24.6157 17.9907 24.444 17.7783 24.1006 17.7783C23.7995 17.7783 23.5277 17.8809 23.2852 18.0859V17.6758C23.5309 17.5195 23.8141 17.4414 24.1348 17.4414C24.7223 17.4414 25.0161 17.7523 25.0161 18.374V20ZM24.6157 18.7354L24.0127 18.8184C23.8271 18.8444 23.6872 18.8908 23.5928 18.9575C23.4984 19.0226 23.4512 19.139 23.4512 19.3066C23.4512 19.4287 23.4943 19.5288 23.5806 19.6069C23.6685 19.6834 23.7848 19.7217 23.9297 19.7217C24.1283 19.7217 24.2918 19.6525 24.4204 19.5142C24.5506 19.3742 24.6157 19.1976 24.6157 18.9844V18.7354ZM29.3203 20H28.9199V18.5645C28.9199 18.2878 28.8768 18.0876 28.7905 17.9639C28.7059 17.8402 28.5627 17.7783 28.3608 17.7783C28.1899 17.7783 28.0443 17.8564 27.9238 18.0127C27.805 18.1689 27.7456 18.3561 27.7456 18.5742V20H27.3452V18.5156C27.3452 18.0241 27.1556 17.7783 26.7764 17.7783C26.6006 17.7783 26.4557 17.8524 26.3418 18.0005C26.2279 18.147 26.1709 18.3382 26.1709 18.5742V20H25.7705V17.5H26.1709V17.8955H26.1807C26.3581 17.5928 26.6169 17.4414 26.957 17.4414C27.1279 17.4414 27.2769 17.4894 27.4038 17.5854C27.5308 17.6799 27.6178 17.8044 27.665 17.959C27.8506 17.6139 28.1273 17.4414 28.4951 17.4414C29.0452 17.4414 29.3203 17.7808 29.3203 18.4595V20ZM32.0864 18.8501H30.3213C30.3278 19.1284 30.4027 19.3433 30.5459 19.4946C30.6891 19.646 30.8861 19.7217 31.1367 19.7217C31.4183 19.7217 31.6771 19.6289 31.9131 19.4434V19.8193C31.6934 19.9788 31.4028 20.0586 31.0415 20.0586C30.6883 20.0586 30.4108 19.9455 30.209 19.7192C30.0072 19.4914 29.9062 19.1715 29.9062 18.7598C29.9062 18.3708 30.0161 18.0542 30.2358 17.8101C30.4572 17.5643 30.7314 17.4414 31.0586 17.4414C31.3857 17.4414 31.6388 17.5472 31.8179 17.7588C31.9969 17.9704 32.0864 18.2642 32.0864 18.6401V18.8501ZM31.6763 18.5107C31.6746 18.2796 31.6185 18.0998 31.5078 17.9712C31.3988 17.8426 31.2466 17.7783 31.0513 17.7783C30.8625 17.7783 30.7021 17.8459 30.5703 17.981C30.4385 18.116 30.3571 18.2926 30.3262 18.5107H31.6763ZM35.9365 20H34.1201V16.499H34.5303V19.6289H35.9365V20ZM38.2095 20H37.8091V19.6094H37.7993C37.6252 19.9089 37.3688 20.0586 37.0303 20.0586C36.7812 20.0586 36.5859 19.9927 36.4443 19.8608C36.3044 19.729 36.2344 19.554 36.2344 19.3359C36.2344 18.8688 36.5094 18.597 37.0596 18.5205L37.8091 18.4155C37.8091 17.9907 37.6374 17.7783 37.2939 17.7783C36.9928 17.7783 36.721 17.8809 36.4785 18.0859V17.6758C36.7243 17.5195 37.0075 17.4414 37.3281 17.4414C37.9157 17.4414 38.2095 17.7523 38.2095 18.374V20ZM37.8091 18.7354L37.2061 18.8184C37.0205 18.8444 36.8805 18.8908 36.7861 18.9575C36.6917 19.0226 36.6445 19.139 36.6445 19.3066C36.6445 19.4287 36.6877 19.5288 36.7739 19.6069C36.8618 19.6834 36.9782 19.7217 37.123 19.7217C37.3216 19.7217 37.4852 19.6525 37.6138 19.5142C37.744 19.3742 37.8091 19.1976 37.8091 18.9844V18.7354ZM38.8125 19.9097V19.48C39.0306 19.6411 39.2707 19.7217 39.5327 19.7217C39.8843 19.7217 40.0601 19.6045 40.0601 19.3701C40.0601 19.3034 40.0446 19.2472 40.0137 19.2017C39.9844 19.1545 39.9437 19.113 39.8916 19.0771C39.8411 19.0413 39.7809 19.0096 39.7109 18.9819C39.6426 18.9526 39.5685 18.9225 39.4888 18.8916C39.3781 18.8477 39.2804 18.8037 39.1958 18.7598C39.1128 18.7142 39.0428 18.6637 38.9858 18.6084C38.9305 18.5514 38.8882 18.4871 38.8589 18.4155C38.8312 18.3439 38.8174 18.2601 38.8174 18.1641C38.8174 18.0469 38.8442 17.9435 38.8979 17.854C38.9517 17.7629 39.0233 17.6872 39.1128 17.627C39.2023 17.5651 39.304 17.5187 39.418 17.4878C39.5335 17.4569 39.6523 17.4414 39.7744 17.4414C39.9909 17.4414 40.1846 17.4788 40.3555 17.5537V17.959C40.1715 17.8385 39.96 17.7783 39.7207 17.7783C39.6458 17.7783 39.5783 17.7873 39.5181 17.8052C39.4578 17.8215 39.4058 17.8451 39.3618 17.876C39.3195 17.9069 39.2861 17.9443 39.2617 17.9883C39.2389 18.0306 39.2275 18.0778 39.2275 18.1299C39.2275 18.195 39.2389 18.2495 39.2617 18.2935C39.2861 18.3374 39.3211 18.3765 39.3667 18.4106C39.4123 18.4448 39.4676 18.4757 39.5327 18.5034C39.5978 18.5311 39.6719 18.5612 39.7549 18.5938C39.8656 18.6361 39.9648 18.68 40.0527 18.7256C40.1406 18.7695 40.2155 18.82 40.2773 18.877C40.3392 18.9323 40.3864 18.9966 40.4189 19.0698C40.4531 19.1431 40.4702 19.2301 40.4702 19.3311C40.4702 19.4548 40.4425 19.5622 40.3872 19.6533C40.3335 19.7445 40.2611 19.8201 40.1699 19.8804C40.0788 19.9406 39.9738 19.9854 39.855 20.0146C39.7362 20.0439 39.6117 20.0586 39.4814 20.0586C39.2243 20.0586 39.0013 20.009 38.8125 19.9097ZM42.2476 19.9756C42.1532 20.0277 42.0286 20.0537 41.874 20.0537C41.4362 20.0537 41.2173 19.8096 41.2173 19.3213V17.8418H40.7876V17.5H41.2173V16.8896L41.6177 16.7603V17.5H42.2476V17.8418H41.6177V19.2505C41.6177 19.4181 41.6462 19.5378 41.7031 19.6094C41.7601 19.681 41.8545 19.7168 41.9863 19.7168C42.0872 19.7168 42.1743 19.6891 42.2476 19.6338V19.9756ZM47.0303 20H46.5273L44.7256 17.2095C44.68 17.1395 44.6426 17.0662 44.6133 16.9897H44.5986C44.6117 17.0646 44.6182 17.2249 44.6182 17.4707V20H44.208V16.499H44.7402L46.4932 19.2456C46.5664 19.3595 46.6136 19.4377 46.6348 19.48H46.6445C46.6283 19.3791 46.6201 19.2074 46.6201 18.9648V16.499H47.0303V20ZM49.6841 20H49.2837V19.6094H49.2739C49.0998 19.9089 48.8434 20.0586 48.5049 20.0586C48.2559 20.0586 48.0605 19.9927 47.9189 19.8608C47.779 19.729 47.709 19.554 47.709 19.3359C47.709 18.8688 47.984 18.597 48.5342 18.5205L49.2837 18.4155C49.2837 17.9907 49.112 17.7783 48.7686 17.7783C48.4674 17.7783 48.1956 17.8809 47.9531 18.0859V17.6758C48.1989 17.5195 48.4821 17.4414 48.8027 17.4414C49.3903 17.4414 49.6841 17.7523 49.6841 18.374V20ZM49.2837 18.7354L48.6807 18.8184C48.4951 18.8444 48.3551 18.8908 48.2607 18.9575C48.1663 19.0226 48.1191 19.139 48.1191 19.3066C48.1191 19.4287 48.1623 19.5288 48.2485 19.6069C48.3364 19.6834 48.4528 19.7217 48.5977 19.7217C48.7962 19.7217 48.9598 19.6525 49.0884 19.5142C49.2186 19.3742 49.2837 19.1976 49.2837 18.9844V18.7354ZM53.9883 20H53.5879V18.5645C53.5879 18.2878 53.5448 18.0876 53.4585 17.9639C53.3739 17.8402 53.2306 17.7783 53.0288 17.7783C52.8579 17.7783 52.7122 17.8564 52.5918 18.0127C52.473 18.1689 52.4136 18.3561 52.4136 18.5742V20H52.0132V18.5156C52.0132 18.0241 51.8236 17.7783 51.4443 17.7783C51.2686 17.7783 51.1237 17.8524 51.0098 18.0005C50.8958 18.147 50.8389 18.3382 50.8389 18.5742V20H50.4385V17.5H50.8389V17.8955H50.8486C51.026 17.5928 51.2848 17.4414 51.625 17.4414C51.7959 17.4414 51.9448 17.4894 52.0718 17.5854C52.1987 17.6799 52.2858 17.8044 52.333 17.959C52.5186 17.6139 52.7952 17.4414 53.1631 17.4414C53.7132 17.4414 53.9883 17.7808 53.9883 18.4595V20ZM56.7544 18.8501H54.9893C54.9958 19.1284 55.0706 19.3433 55.2139 19.4946C55.3571 19.646 55.554 19.7217 55.8047 19.7217C56.0863 19.7217 56.3451 19.6289 56.5811 19.4434V19.8193C56.3613 19.9788 56.0708 20.0586 55.7095 20.0586C55.3563 20.0586 55.0788 19.9455 54.877 19.7192C54.6751 19.4914 54.5742 19.1715 54.5742 18.7598C54.5742 18.3708 54.6841 18.0542 54.9038 17.8101C55.1252 17.5643 55.3994 17.4414 55.7266 17.4414C56.0537 17.4414 56.3068 17.5472 56.4858 17.7588C56.6649 17.9704 56.7544 18.2642 56.7544 18.6401V18.8501ZM56.3442 18.5107C56.3426 18.2796 56.2865 18.0998 56.1758 17.9712C56.0667 17.8426 55.9146 17.7783 55.7192 17.7783C55.5304 17.7783 55.3701 17.8459 55.2383 17.981C55.1064 18.116 55.0251 18.2926 54.9941 18.5107H56.3442Z" fill="#2F2F2F"/>
<path d="M10.9146 30.8501H9.14941C9.15592 31.1284 9.23079 31.3433 9.37402 31.4946C9.51725 31.646 9.71419 31.7217 9.96484 31.7217C10.2464 31.7217 10.5052 31.6289 10.7412 31.4434V31.8193C10.5215 31.9788 10.231 32.0586 9.86963 32.0586C9.51644 32.0586 9.23893 31.9455 9.03711 31.7192C8.83529 31.4914 8.73438 31.1715 8.73438 30.7598C8.73438 30.3708 8.84424 30.0542 9.06396 29.8101C9.28532 29.5643 9.55957 29.4414 9.88672 29.4414C10.2139 29.4414 10.467 29.5472 10.646 29.7588C10.825 29.9704 10.9146 30.2642 10.9146 30.6401V30.8501ZM10.5044 30.5107C10.5028 30.2796 10.4466 30.0998 10.3359 29.9712C10.2269 29.8426 10.0747 29.7783 9.87939 29.7783C9.69059 29.7783 9.53027 29.8459 9.39844 29.981C9.2666 30.116 9.18522 30.2926 9.1543 30.5107H10.5044ZM13.3486 29.5L12.5088 30.7646L13.334 32H12.8677L12.377 31.1895C12.346 31.139 12.3094 31.0755 12.2671 30.999H12.2573C12.2492 31.0137 12.2109 31.0771 12.1426 31.1895L11.6421 32H11.1807L12.0327 30.7744L11.2173 29.5H11.6836L12.167 30.3545C12.2028 30.418 12.2378 30.4831 12.272 30.5498H12.2817L12.9067 29.5H13.3486ZM14.2275 31.6387H14.2178V33.1499H13.8174V29.5H14.2178V29.9395H14.2275C14.4245 29.6074 14.7126 29.4414 15.0918 29.4414C15.4141 29.4414 15.6655 29.5537 15.8462 29.7783C16.0269 30.0013 16.1172 30.3008 16.1172 30.6768C16.1172 31.0951 16.0155 31.4303 15.812 31.6826C15.6086 31.9333 15.3302 32.0586 14.9771 32.0586C14.6532 32.0586 14.4033 31.9186 14.2275 31.6387ZM14.2178 30.6304V30.9795C14.2178 31.1862 14.2845 31.362 14.418 31.5068C14.5531 31.6501 14.724 31.7217 14.9307 31.7217C15.1732 31.7217 15.3628 31.6289 15.4995 31.4434C15.6379 31.2578 15.707 30.9998 15.707 30.6694C15.707 30.3911 15.6427 30.173 15.5142 30.0151C15.3856 29.8573 15.2114 29.7783 14.9917 29.7783C14.759 29.7783 14.5718 29.8597 14.4302 30.0225C14.2886 30.1836 14.2178 30.3862 14.2178 30.6304ZM16.9619 28.8652C16.8903 28.8652 16.8293 28.8408 16.7788 28.792C16.7284 28.7432 16.7031 28.6813 16.7031 28.6064C16.7031 28.5316 16.7284 28.4697 16.7788 28.4209C16.8293 28.3704 16.8903 28.3452 16.9619 28.3452C17.0352 28.3452 17.097 28.3704 17.1475 28.4209C17.1995 28.4697 17.2256 28.5316 17.2256 28.6064C17.2256 28.6781 17.1995 28.7391 17.1475 28.7896C17.097 28.84 17.0352 28.8652 16.9619 28.8652ZM17.1572 32H16.7568V29.5H17.1572V32ZM19.2715 29.9053C19.2015 29.8516 19.1006 29.8247 18.9688 29.8247C18.7979 29.8247 18.6546 29.9053 18.5391 30.0664C18.4251 30.2275 18.3682 30.4473 18.3682 30.7256V32H17.9678V29.5H18.3682V30.0151H18.3779C18.4349 29.8394 18.522 29.7026 18.6392 29.605C18.7563 29.5057 18.8874 29.4561 19.0322 29.4561C19.1364 29.4561 19.2161 29.4674 19.2715 29.4902V29.9053ZM21.7153 30.8501H19.9502C19.9567 31.1284 20.0316 31.3433 20.1748 31.4946C20.318 31.646 20.515 31.7217 20.7656 31.7217C21.0472 31.7217 21.306 31.6289 21.542 31.4434V31.8193C21.3223 31.9788 21.0317 32.0586 20.6704 32.0586C20.3172 32.0586 20.0397 31.9455 19.8379 31.7192C19.6361 31.4914 19.5352 31.1715 19.5352 30.7598C19.5352 30.3708 19.645 30.0542 19.8647 29.8101C20.0861 29.5643 20.3604 29.4414 20.6875 29.4414C21.0146 29.4414 21.2677 29.5472 21.4468 29.7588C21.6258 29.9704 21.7153 30.2642 21.7153 30.6401V30.8501ZM21.3052 30.5107C21.3035 30.2796 21.2474 30.0998 21.1367 29.9712C21.0277 29.8426 20.8755 29.7783 20.6802 29.7783C20.4914 29.7783 20.3311 29.8459 20.1992 29.981C20.0674 30.116 19.986 30.2926 19.9551 30.5107H21.3052ZM22.1719 31.9097V31.48C22.39 31.6411 22.63 31.7217 22.8921 31.7217C23.2437 31.7217 23.4194 31.6045 23.4194 31.3701C23.4194 31.3034 23.404 31.2472 23.373 31.2017C23.3438 31.1545 23.3031 31.113 23.251 31.0771C23.2005 31.0413 23.1403 31.0096 23.0703 30.9819C23.002 30.9526 22.9279 30.9225 22.8481 30.8916C22.7375 30.8477 22.6398 30.8037 22.5552 30.7598C22.4722 30.7142 22.4022 30.6637 22.3452 30.6084C22.2899 30.5514 22.2476 30.4871 22.2183 30.4155C22.1906 30.3439 22.1768 30.2601 22.1768 30.1641C22.1768 30.0469 22.2036 29.9435 22.2573 29.854C22.311 29.7629 22.3826 29.6872 22.4722 29.627C22.5617 29.5651 22.6634 29.5187 22.7773 29.4878C22.8929 29.4569 23.0117 29.4414 23.1338 29.4414C23.3503 29.4414 23.5439 29.4788 23.7148 29.5537V29.959C23.5309 29.8385 23.3193 29.7783 23.0801 29.7783C23.0052 29.7783 22.9377 29.7873 22.8774 29.8052C22.8172 29.8215 22.7651 29.8451 22.7212 29.876C22.6789 29.9069 22.6455 29.9443 22.6211 29.9883C22.5983 30.0306 22.5869 30.0778 22.5869 30.1299C22.5869 30.195 22.5983 30.2495 22.6211 30.2935C22.6455 30.3374 22.6805 30.3765 22.7261 30.4106C22.7716 30.4448 22.827 30.4757 22.8921 30.5034C22.9572 30.5311 23.0312 30.5612 23.1143 30.5938C23.2249 30.6361 23.3242 30.68 23.4121 30.7256C23.5 30.7695 23.5749 30.82 23.6367 30.877C23.6986 30.9323 23.7458 30.9966 23.7783 31.0698C23.8125 31.1431 23.8296 31.2301 23.8296 31.3311C23.8296 31.4548 23.8019 31.5622 23.7466 31.6533C23.6929 31.7445 23.6204 31.8201 23.5293 31.8804C23.4382 31.9406 23.3332 31.9854 23.2144 32.0146C23.0955 32.0439 22.971 32.0586 22.8408 32.0586C22.5837 32.0586 22.3607 32.009 22.1719 31.9097ZM27.9043 30.2349C27.9043 30.5278 27.8774 30.7874 27.8237 31.0137C27.7716 31.2399 27.6951 31.4312 27.5942 31.5874C27.495 31.742 27.3721 31.86 27.2256 31.9414C27.0807 32.0212 26.9155 32.061 26.73 32.061C26.5542 32.061 26.3971 32.0228 26.2588 31.9463C26.1221 31.8682 26.0065 31.755 25.9121 31.6069C25.8177 31.4588 25.7461 31.2773 25.6973 31.0625C25.6484 30.846 25.624 30.5986 25.624 30.3203C25.624 30.0143 25.6493 29.7441 25.6997 29.5098C25.7518 29.2754 25.8275 29.0793 25.9268 28.9214C26.026 28.7619 26.1489 28.6423 26.2954 28.5625C26.4435 28.4811 26.6128 28.4404 26.8032 28.4404C27.5373 28.4404 27.9043 29.0386 27.9043 30.2349ZM27.4941 30.2739C27.4941 29.2778 27.2573 28.7798 26.7837 28.7798C26.284 28.7798 26.0342 29.2868 26.0342 30.3008C26.0342 31.2464 26.2791 31.7192 26.769 31.7192C27.2524 31.7192 27.4941 31.2375 27.4941 30.2739ZM30.436 31.0088C30.436 31.1667 30.4059 31.3107 30.3457 31.4409C30.2871 31.5695 30.2033 31.6802 30.0942 31.7729C29.9868 31.8641 29.8574 31.9349 29.7061 31.9854C29.5547 32.0358 29.3879 32.061 29.2056 32.061C28.8719 32.061 28.6066 31.9976 28.4097 31.8706V31.4409C28.6457 31.6265 28.9159 31.7192 29.2202 31.7192C29.3423 31.7192 29.4521 31.7038 29.5498 31.6729C29.6491 31.6419 29.7337 31.5972 29.8037 31.5386C29.8753 31.48 29.9299 31.4092 29.9673 31.3262C30.0063 31.2432 30.0259 31.1496 30.0259 31.0454C30.0259 30.5881 29.7004 30.3594 29.0493 30.3594H28.7588V30.02H29.0347C29.6108 30.02 29.8989 29.8052 29.8989 29.3755C29.8989 28.9784 29.6792 28.7798 29.2397 28.7798C28.9924 28.7798 28.7604 28.8628 28.5439 29.0288V28.6406C28.7669 28.5072 29.0322 28.4404 29.3398 28.4404C29.4863 28.4404 29.619 28.4608 29.7378 28.5015C29.8566 28.5422 29.9583 28.5991 30.043 28.6724C30.1276 28.7456 30.1927 28.8335 30.2383 28.936C30.2855 29.0386 30.3091 29.1517 30.3091 29.2754C30.3091 29.736 30.0763 30.0322 29.6108 30.1641V30.1738C29.7297 30.1868 29.8395 30.2161 29.9404 30.2617C30.0413 30.3057 30.1284 30.3634 30.2017 30.4351C30.2749 30.5067 30.3319 30.5913 30.3726 30.689C30.4149 30.785 30.436 30.8916 30.436 31.0088ZM32.7896 28.499L31.1099 32.5811H30.7363L32.4111 28.499H32.7896ZM34.6377 29.417C34.6377 29.3096 34.6206 29.216 34.5864 29.1362C34.5539 29.0565 34.5083 28.9906 34.4497 28.9385C34.3927 28.8848 34.3252 28.8449 34.2471 28.8188C34.1689 28.7928 34.0843 28.7798 33.9932 28.7798C33.915 28.7798 33.8385 28.7904 33.7637 28.8115C33.6888 28.8327 33.6156 28.862 33.5439 28.8994C33.474 28.9368 33.4056 28.9816 33.3389 29.0337C33.2738 29.0858 33.2127 29.1436 33.1558 29.207V28.7773C33.2681 28.6683 33.3934 28.5853 33.5317 28.5283C33.6717 28.4697 33.8418 28.4404 34.042 28.4404C34.1852 28.4404 34.3179 28.4616 34.4399 28.5039C34.562 28.5446 34.6678 28.6048 34.7573 28.6846C34.8468 28.7643 34.9168 28.8628 34.9673 28.98C35.0194 29.0972 35.0454 29.2314 35.0454 29.3828C35.0454 29.5212 35.0291 29.6465 34.9966 29.7588C34.9657 29.8711 34.9176 29.9769 34.8525 30.0762C34.7891 30.1755 34.7085 30.2707 34.6108 30.3618C34.5132 30.453 34.3984 30.5457 34.2666 30.6401C34.1022 30.7573 33.9663 30.8574 33.8589 30.9404C33.7531 31.0234 33.6685 31.1016 33.605 31.1748C33.5431 31.2464 33.4992 31.3188 33.4731 31.3921C33.4487 31.4637 33.4365 31.5467 33.4365 31.6411H35.1797V32H33.019V31.8267C33.019 31.6769 33.0353 31.5451 33.0679 31.4312C33.1004 31.3172 33.1541 31.209 33.229 31.1064C33.3039 31.0039 33.4015 30.9014 33.522 30.7988C33.644 30.6963 33.793 30.5807 33.9688 30.4521C34.0957 30.361 34.2015 30.2739 34.2861 30.1909C34.3724 30.1079 34.4416 30.0249 34.4937 29.9419C34.5457 29.8589 34.5824 29.7751 34.6035 29.6904C34.6263 29.6042 34.6377 29.513 34.6377 29.417ZM37.9385 30.2349C37.9385 30.5278 37.9116 30.7874 37.8579 31.0137C37.8058 31.2399 37.7293 31.4312 37.6284 31.5874C37.5291 31.742 37.4062 31.86 37.2598 31.9414C37.1149 32.0212 36.9497 32.061 36.7642 32.061C36.5884 32.061 36.4313 32.0228 36.293 31.9463C36.1562 31.8682 36.0407 31.755 35.9463 31.6069C35.8519 31.4588 35.7803 31.2773 35.7314 31.0625C35.6826 30.846 35.6582 30.5986 35.6582 30.3203C35.6582 30.0143 35.6834 29.7441 35.7339 29.5098C35.786 29.2754 35.8617 29.0793 35.9609 28.9214C36.0602 28.7619 36.1831 28.6423 36.3296 28.5625C36.4777 28.4811 36.647 28.4404 36.8374 28.4404C37.5715 28.4404 37.9385 29.0386 37.9385 30.2349ZM37.5283 30.2739C37.5283 29.2778 37.2915 28.7798 36.8179 28.7798C36.3182 28.7798 36.0684 29.2868 36.0684 30.3008C36.0684 31.2464 36.3133 31.7192 36.8032 31.7192C37.2866 31.7192 37.5283 31.2375 37.5283 30.2739ZM40.4702 31.0088C40.4702 31.1667 40.4401 31.3107 40.3799 31.4409C40.3213 31.5695 40.2375 31.6802 40.1284 31.7729C40.021 31.8641 39.8916 31.9349 39.7402 31.9854C39.5889 32.0358 39.422 32.061 39.2397 32.061C38.9061 32.061 38.6408 31.9976 38.4438 31.8706V31.4409C38.6799 31.6265 38.95 31.7192 39.2544 31.7192C39.3765 31.7192 39.4863 31.7038 39.584 31.6729C39.6833 31.6419 39.7679 31.5972 39.8379 31.5386C39.9095 31.48 39.964 31.4092 40.0015 31.3262C40.0405 31.2432 40.0601 31.1496 40.0601 31.0454C40.0601 30.5881 39.7345 30.3594 39.0835 30.3594H38.793V30.02H39.0688C39.645 30.02 39.9331 29.8052 39.9331 29.3755C39.9331 28.9784 39.7134 28.7798 39.2739 28.7798C39.0265 28.7798 38.7946 28.8628 38.5781 29.0288V28.6406C38.8011 28.5072 39.0664 28.4404 39.374 28.4404C39.5205 28.4404 39.6532 28.4608 39.772 28.5015C39.8908 28.5422 39.9925 28.5991 40.0771 28.6724C40.1618 28.7456 40.2269 28.8335 40.2725 28.936C40.3197 29.0386 40.3433 29.1517 40.3433 29.2754C40.3433 29.736 40.1105 30.0322 39.645 30.1641V30.1738C39.7638 30.1868 39.8737 30.2161 39.9746 30.2617C40.0755 30.3057 40.1626 30.3634 40.2358 30.4351C40.3091 30.5067 40.366 30.5913 40.4067 30.689C40.4491 30.785 40.4702 30.8916 40.4702 31.0088ZM43.3291 30.2349C43.3291 30.5278 43.3022 30.7874 43.2485 31.0137C43.1965 31.2399 43.12 31.4312 43.019 31.5874C42.9198 31.742 42.7969 31.86 42.6504 31.9414C42.5055 32.0212 42.3403 32.061 42.1548 32.061C41.979 32.061 41.8219 32.0228 41.6836 31.9463C41.5469 31.8682 41.4313 31.755 41.3369 31.6069C41.2425 31.4588 41.1709 31.2773 41.1221 31.0625C41.0732 30.846 41.0488 30.5986 41.0488 30.3203C41.0488 30.0143 41.0741 29.7441 41.1245 29.5098C41.1766 29.2754 41.2523 29.0793 41.3516 28.9214C41.4508 28.7619 41.5737 28.6423 41.7202 28.5625C41.8683 28.4811 42.0376 28.4404 42.228 28.4404C42.9621 28.4404 43.3291 29.0386 43.3291 30.2349ZM42.9189 30.2739C42.9189 29.2778 42.6821 28.7798 42.2085 28.7798C41.7088 28.7798 41.459 29.2868 41.459 30.3008C41.459 31.2464 41.7039 31.7192 42.1938 31.7192C42.6772 31.7192 42.9189 31.2375 42.9189 30.2739Z" fill="#A0A0A0"/>
<path d="M199.879 12V8.65H200.854C201.337 8.65 201.682 8.79667 201.889 9.09C202.099 9.38333 202.204 9.795 202.204 10.325C202.204 10.8517 202.099 11.2633 201.889 11.56C201.682 11.8533 201.337 12 200.854 12H199.879ZM200.859 11.405C201.026 11.405 201.156 11.37 201.249 11.3C201.346 11.2267 201.414 11.1133 201.454 10.96C201.497 10.8033 201.519 10.5917 201.519 10.325C201.519 10.055 201.497 9.84333 201.454 9.69C201.414 9.53333 201.346 9.42 201.249 9.35C201.156 9.28 201.026 9.245 200.859 9.245H200.559V11.405H200.859ZM203.572 10.605V11.405H205.137V12H202.887V8.65H205.122V9.24H203.572V10.04H204.752V10.605H203.572ZM207 10.145L207.595 8.65H208.255V12H207.62V9.82L207.11 11.05H206.89L206.38 9.81V12H205.745V8.65H206.41L207 10.145ZM209.998 8.58C210.381 8.58 210.68 8.735 210.893 9.045C211.106 9.35167 211.213 9.78 211.213 10.33C211.213 10.8767 211.106 11.3033 210.893 11.61C210.68 11.9167 210.381 12.07 209.998 12.07C209.615 12.07 209.316 11.9167 209.103 11.61C208.89 11.3033 208.783 10.8767 208.783 10.33C208.783 9.78 208.89 9.35167 209.103 9.045C209.316 8.735 209.615 8.58 209.998 8.58ZM209.998 11.445C210.188 11.445 210.325 11.36 210.408 11.19C210.491 11.0167 210.533 10.73 210.533 10.33C210.533 9.92333 210.491 9.635 210.408 9.465C210.325 9.29167 210.188 9.205 209.998 9.205C209.808 9.205 209.671 9.29167 209.588 9.465C209.505 9.635 209.463 9.92333 209.463 10.33C209.463 10.73 209.505 11.0167 209.588 11.19C209.671 11.36 209.808 11.445 209.998 11.445Z" fill="#F7A912"/>
<rect x="1" y="1" width="218" height="38" stroke="#E1E1E1"/>
<defs>
<clipPath id="clip0_1495_8351">
<rect width="8" height="8" fill="white" transform="translate(8.5 6)"/>
</clipPath>
</defs>
</svg>
