<svg width="250" height="92" viewBox="0 0 250 92" fill="none" xmlns="http://www.w3.org/2000/svg">
<path fill-rule="evenodd" clip-rule="evenodd" d="M87 50.9154C87 50.0417 87.7474 49.3335 88.6654 49.3335H106.335C107.254 49.3335 108 50.0409 108 50.9154V61.085C108 61.9586 107.253 62.6668 106.335 62.6668H88.6654C87.7456 62.6668 87 61.9594 87 61.085V50.9154Z" fill="#224DBA"/>
<path fill-rule="evenodd" clip-rule="evenodd" d="M92.4689 59.2879H90.8787L89.6862 54.7626C89.6296 54.5544 89.5094 54.3704 89.3327 54.2836C88.8915 54.0657 88.4053 53.8922 87.875 53.8047V53.6305H90.4368C90.7903 53.6305 91.0555 53.8922 91.0997 54.1961L91.7184 57.4604L93.3079 53.6305H94.8539L92.4689 59.2879ZM95.7378 59.2879H94.236L95.4726 53.6305H96.9745L95.7378 59.2879ZM98.9175 55.1978C98.9617 54.893 99.2269 54.7188 99.5363 54.7188C100.022 54.6751 100.552 54.7626 100.994 54.9798L101.259 53.7617C100.817 53.5875 100.331 53.5 99.8898 53.5C98.4322 53.5 97.3715 54.2836 97.3715 55.3712C97.3715 56.1986 98.1228 56.633 98.6531 56.8948C99.2269 57.1557 99.4479 57.3299 99.4037 57.5909C99.4037 57.9823 98.9617 58.1566 98.5205 58.1566C97.9902 58.1566 97.4599 58.0261 96.9745 57.8081L96.7093 59.0269C97.2397 59.2442 97.8134 59.3316 98.3438 59.3316C99.9782 59.3746 100.994 58.5918 100.994 57.4167C100.994 55.9369 98.9175 55.8502 98.9175 55.1978ZM106.25 59.2879L105.058 53.6305H103.777C103.511 53.6305 103.246 53.8047 103.158 54.0657L100.95 59.2879H102.496L102.804 58.4613H104.704L104.881 59.2879H106.25ZM103.998 55.154L104.439 57.2862H103.202L103.998 55.154Z" fill="white"/>
<path d="M139.274 52.311C139.258 52.4 139.24 52.491 139.22 52.5844C138.535 55.7413 136.189 56.8319 133.194 56.8319H131.669C131.302 56.8319 130.994 57.0704 130.937 57.3945L130.156 61.8363L129.934 63.0954C129.897 63.3081 130.08 63.5 130.32 63.5H133.025C133.345 63.5 133.617 63.2912 133.668 63.0079L133.694 62.8846L134.204 59.9857L134.236 59.8267C134.286 59.5424 134.559 59.3336 134.879 59.3336H135.284C137.905 59.3336 139.957 58.3792 140.556 55.6175C140.807 54.4638 140.677 53.5005 140.014 52.823C139.814 52.6187 139.565 52.4492 139.274 52.311Z" fill="#179BD7"/>
<path d="M138.557 52.0547C138.452 52.0273 138.344 52.0025 138.233 51.9801C138.121 51.9583 138.007 51.9389 137.89 51.922C137.479 51.8623 137.028 51.834 136.545 51.834H132.471C132.37 51.834 132.275 51.8544 132.19 51.8911C132.002 51.9722 131.862 52.1317 131.828 52.3271L130.961 57.251L130.937 57.3947C130.994 57.0706 131.302 56.832 131.669 56.832H133.194C136.189 56.832 138.535 55.7409 139.22 52.5846C139.241 52.4911 139.258 52.4001 139.274 52.3112C139.1 52.2287 138.912 52.1581 138.71 52.0979C138.66 52.083 138.609 52.0686 138.557 52.0547Z" fill="#222D65"/>
<path d="M131.828 52.3269C131.862 52.1316 132.002 51.972 132.19 51.8915C132.276 51.8547 132.37 51.8343 132.471 51.8343H136.545C137.028 51.8343 137.479 51.8627 137.89 51.9223C138.007 51.9392 138.121 51.9586 138.233 51.9805C138.344 52.0028 138.452 52.0277 138.557 52.055C138.609 52.0689 138.66 52.0834 138.711 52.0978C138.913 52.1579 139.101 52.229 139.274 52.311C139.478 51.1444 139.273 50.3501 138.569 49.6308C137.794 48.839 136.395 48.5 134.604 48.5H129.405C129.039 48.5 128.727 48.7386 128.671 49.0632L126.506 61.373C126.463 61.6166 126.672 61.8363 126.946 61.8363H130.156L130.961 57.2509L131.828 52.3269Z" fill="#253B80"/>
<path d="M163.23 54.8384H161.003C161.003 54.4666 160.96 54.2172 160.875 54.0901C160.742 53.9022 160.377 53.8081 159.778 53.8081C159.197 53.8081 158.812 53.8622 158.624 53.9705C158.436 54.0793 158.341 54.3156 158.341 54.6794C158.341 55.0088 158.425 55.2259 158.592 55.3297C158.711 55.4036 158.87 55.4469 159.066 55.4598L159.516 55.4921C160.478 55.557 161.079 55.6028 161.319 55.6289C162.08 55.7069 162.632 55.9128 162.974 56.2465C163.243 56.5069 163.404 56.8472 163.455 57.2673C163.485 57.5186 163.5 57.8032 163.5 58.1192C163.5 58.8477 163.432 59.381 163.295 59.719C163.047 60.3394 162.49 60.7312 161.624 60.8957C161.26 60.9653 160.705 61 159.958 61C158.711 61 157.842 60.9246 157.351 60.7727C156.749 60.5869 156.352 60.2101 156.16 59.643C156.053 59.3272 156 58.8012 156 58.0649H158.227C158.227 58.147 158.227 58.2099 158.227 58.2532C158.227 58.6461 158.338 58.8985 158.559 59.0112C158.713 59.0887 158.898 59.1294 159.116 59.1344H159.935C160.352 59.1344 160.619 59.1126 160.734 59.0689C160.939 58.9871 161.073 58.8552 161.137 58.6728C161.171 58.5603 161.188 58.4152 161.188 58.2372C161.188 57.839 161.045 57.5966 160.76 57.5096C160.653 57.4753 160.157 57.4273 159.271 57.3668C158.559 57.3151 158.064 57.2653 157.788 57.2171C157.059 57.0784 156.573 56.7929 156.33 56.3598C156.117 55.9919 156.011 55.435 156.011 54.69C156.011 54.1228 156.068 53.6679 156.184 53.3258C156.299 52.9835 156.484 52.7238 156.741 52.546C157.116 52.2731 157.596 52.1131 158.181 52.0653C158.667 52.022 159.207 52 159.801 52C160.735 52 161.401 52.0547 161.798 52.1631C162.767 52.428 163.252 53.1699 163.252 54.389C163.252 54.489 163.244 54.6385 163.23 54.8384Z" fill="#10298E"/>
<path d="M175.5 61V52H178.974H179.519H179.941C180.55 52 181.015 52.0504 181.334 52.1515C182.064 52.384 182.554 52.8603 182.806 53.5798C182.935 53.9575 183 54.5262 183 55.2855C183 56.1985 182.928 56.8544 182.786 57.254C182.501 58.0438 181.915 58.4989 181.029 58.6167C180.925 58.6345 180.482 58.6502 179.7 58.663L179.305 58.6763H177.884V61H175.5ZM177.884 56.5885H179.369C179.841 56.5714 180.127 56.5345 180.23 56.4769C180.371 56.3982 180.466 56.2405 180.513 56.0042C180.543 55.8469 180.558 55.6129 180.558 55.3023C180.558 54.9215 180.528 54.6393 180.468 54.4551C180.382 54.1969 180.177 54.0398 179.852 53.9826C179.787 53.974 179.633 53.9693 179.389 53.9693H177.884V56.5885Z" fill="#10298E"/>
<path d="M189.115 59.4446H185.91L185.48 61H183L185.676 52H189.291L192 61H189.572L189.115 59.4446ZM188.639 57.6913L187.516 53.79L186.426 57.6913H188.639Z" fill="#10298E"/>
<path d="M170.996 53.2037C171.997 53.2037 172.89 53.6708 173.477 54.4022L174 53.2661C173.182 52.4829 172.069 52 170.841 52C168.929 52 167.293 53.1698 166.622 54.8258H165.602L165 56.1336H166.312C166.302 56.255 166.296 56.3763 166.296 56.5002C166.296 56.65 166.303 56.7983 166.318 56.9447H165.659L165.057 58.2529H166.654C167.344 59.867 168.959 61 170.841 61C171.789 61 172.669 60.7121 173.398 60.2203V58.6169C172.811 59.2938 171.953 59.7215 170.996 59.7215C169.878 59.7215 168.894 59.1372 168.321 58.2529H171.664L172.267 56.9447H167.829C167.806 56.7872 167.794 56.6263 167.794 56.4624C167.794 56.3515 167.799 56.2419 167.81 56.1336H172.64L173.242 54.8258H168.227C168.782 53.8562 169.814 53.2037 170.996 53.2037Z" fill="#FFBE00"/>
<path d="M170.985 53.2709C171.928 53.2709 172.81 53.699 173.407 54.4449L173.446 54.4932L173.472 54.4369L173.989 53.3106L174 53.2849L173.98 53.2655C173.131 52.4494 172.012 52 170.832 52C169.91 52 169.023 52.2738 168.266 52.7917C167.528 53.2974 166.961 54.0008 166.628 54.8253L166.663 54.8012H165.655H165.631L165.62 54.8236L165.025 56.1204L165 56.1758H165.06H166.357L166.318 56.1336C166.308 56.2683 166.302 56.3879 166.302 56.5002C166.302 56.6457 166.31 56.7955 166.324 56.9447L166.363 56.902H165.711H165.687L165.677 56.9244L165.081 58.2212L165.056 58.2766H165.116H166.694L166.659 58.2531C167.37 59.9218 169.008 61 170.832 61C171.746 61 172.627 60.7308 173.38 60.2208L173.397 60.2093V60.1882V58.5987V58.4954L173.33 58.573C172.736 59.2604 171.881 59.6545 170.985 59.6545C169.931 59.6545 168.955 59.1167 168.373 58.2163L168.342 58.2766H171.646H171.67L171.68 58.2544L172.276 56.9572L172.301 56.902H172.241H167.855L167.893 56.9352C167.871 56.7781 167.859 56.6194 167.859 56.4627C167.859 56.356 167.864 56.2478 167.875 56.1407L167.837 56.1758H172.61H172.634L172.644 56.1534L173.239 54.8566L173.265 54.8012H173.205H168.249L168.282 54.8596C168.841 53.8797 169.877 53.2709 170.985 53.2709ZM168.249 54.879H173.205L173.17 54.8236L172.575 56.1204L172.61 56.098H167.837H167.802L167.798 56.1331C167.788 56.2426 167.783 56.3536 167.783 56.4627C167.783 56.6231 167.794 56.786 167.818 56.9466L167.823 56.9798H167.855H172.241L172.206 56.9244L171.611 58.2212L171.646 58.1988H168.342H168.271L168.31 58.2587C168.905 59.1818 169.905 59.7321 170.985 59.7321C171.903 59.7321 172.779 59.3286 173.388 58.6243L173.32 58.5987V60.1882L173.337 60.1561C172.597 60.6573 171.731 60.9222 170.832 60.9222C169.039 60.9222 167.428 59.8623 166.729 58.2221L166.719 58.1988H166.694H165.116L165.151 58.2544L165.746 56.9572L165.711 56.9798H166.363H166.405L166.401 56.9369C166.386 56.7904 166.379 56.6431 166.379 56.5002C166.379 56.3903 166.384 56.2724 166.395 56.14L166.398 56.098H166.357H165.06L165.095 56.1534L165.69 54.8566L165.655 54.879H166.663H166.689L166.698 54.8549C167.026 54.0446 167.583 53.3535 168.309 52.8562C169.053 52.3473 169.925 52.078 170.832 52.078C171.993 52.078 173.092 52.5197 173.927 53.3222L173.919 53.2774L173.403 54.4039L173.467 54.3957C172.855 53.6316 171.951 53.1931 170.985 53.1931C169.849 53.1931 168.789 53.8167 168.216 54.8206L168.183 54.879H168.249Z" fill="#10298E"/>
<path d="M70.4211 49.3335H53.5789C52.7069 49.3335 52 50.0404 52 50.9124V61.0879C52 61.9599 52.7069 62.6668 53.5789 62.6668H70.4211C71.2931 62.6668 72 61.9599 72 61.0879V50.9124C72 50.0404 71.2931 49.3335 70.4211 49.3335Z" fill="#353A48"/>
<path fill-rule="evenodd" clip-rule="evenodd" d="M65.0744 51C67.8169 51 70.0402 53.2067 70.0402 55.9287C70.0402 58.6508 67.8169 60.8575 65.0744 60.8575C63.8453 60.8575 62.7205 60.4143 61.8534 59.6801C60.9867 60.4141 59.8616 60.8575 58.6323 60.8575C55.8898 60.8575 53.6665 58.6508 53.6665 55.9287C53.6665 53.2067 55.8898 51 58.6323 51C59.8616 51 60.9867 51.4434 61.8539 52.1778C62.7205 51.4432 63.8453 51 65.0744 51Z" fill="#FF5E00"/>
<path fill-rule="evenodd" clip-rule="evenodd" d="M58.6323 51C59.8616 51 60.9867 51.4434 61.8539 52.1778C60.7857 53.0814 60.1086 54.4266 60.1086 55.9287C60.1086 57.4309 60.7857 58.7761 61.8534 59.6801C60.9867 60.4141 59.8616 60.8575 58.6323 60.8575C55.8898 60.8575 53.6665 58.6508 53.6665 55.9287C53.6665 53.2067 55.8898 51 58.6323 51Z" fill="#ED0006"/>
<path fill-rule="evenodd" clip-rule="evenodd" d="M65.0744 51C67.8169 51 70.0402 53.2067 70.0402 55.9287C70.0402 58.6508 67.8169 60.8575 65.0744 60.8575C63.8451 60.8575 62.7202 60.4141 61.853 59.6798C62.9215 58.7751 63.5981 57.4303 63.5981 55.9287C63.5981 54.4271 62.9215 53.0824 61.8544 52.1784C62.7202 51.4433 63.8451 51 65.0744 51Z" fill="#F9A000"/>
<path d="M60.801 33V26.97H62.421C62.937 26.97 63.375 27.102 63.735 27.366C64.101 27.624 64.374 27.981 64.554 28.437C64.74 28.887 64.833 29.403 64.833 29.985C64.833 30.561 64.74 31.077 64.554 31.533C64.374 31.989 64.101 32.349 63.735 32.613C63.375 32.871 62.937 33 62.421 33H60.801ZM62.403 32.271C63.471 32.271 64.005 31.509 64.005 29.985C64.005 29.217 63.873 28.644 63.609 28.266C63.345 27.888 62.943 27.699 62.403 27.699H61.62V32.271H62.403ZM68.1685 28.428C68.5885 28.428 68.9545 28.53 69.2665 28.734C69.5785 28.938 69.8155 29.229 69.9775 29.607C70.1395 29.985 70.2145 30.432 70.2025 30.948H66.7915C66.8155 31.41 66.9475 31.773 67.1875 32.037C67.4275 32.301 67.7455 32.433 68.1415 32.433C68.7055 32.433 69.1105 32.181 69.3565 31.677L70.0315 31.947C69.8515 32.331 69.5995 32.622 69.2755 32.82C68.9515 33.018 68.5735 33.117 68.1415 33.117C67.7575 33.117 67.4005 33.021 67.0705 32.829C66.7465 32.631 66.4885 32.355 66.2965 32.001C66.1045 31.647 66.0085 31.242 66.0085 30.786C66.0085 30.324 66.1045 29.913 66.2965 29.553C66.4945 29.193 66.7555 28.917 67.0795 28.725C67.4095 28.527 67.7725 28.428 68.1685 28.428ZM68.1775 29.103C67.8115 29.103 67.5085 29.217 67.2685 29.445C67.0285 29.673 66.8755 29.985 66.8095 30.381H69.4195C69.3775 29.979 69.2455 29.667 69.0235 29.445C68.8015 29.217 68.5195 29.103 68.1775 29.103ZM74.762 28.428C75.368 28.428 75.671 28.899 75.671 29.841V33H74.933V30.012C74.933 29.7 74.894 29.475 74.816 29.337C74.738 29.193 74.615 29.121 74.447 29.121C74.279 29.121 74.147 29.196 74.051 29.346C73.961 29.49 73.916 29.712 73.916 30.012V33H73.169V30.012C73.169 29.7 73.124 29.475 73.034 29.337C72.95 29.193 72.818 29.121 72.638 29.121C72.254 29.121 72.062 29.418 72.062 30.012V33H71.315V28.536H72.053V29.085C72.239 28.647 72.545 28.428 72.971 28.428C73.181 28.428 73.358 28.485 73.502 28.599C73.646 28.713 73.751 28.872 73.817 29.076C73.901 28.872 74.024 28.713 74.186 28.599C74.354 28.485 74.546 28.428 74.762 28.428ZM78.8985 33.108C78.5085 33.108 78.1515 33.009 77.8275 32.811C77.5095 32.613 77.2575 32.337 77.0715 31.983C76.8915 31.623 76.8015 31.218 76.8015 30.768C76.8015 30.324 76.8945 29.925 77.0805 29.571C77.2665 29.217 77.5185 28.941 77.8365 28.743C78.1545 28.539 78.5085 28.437 78.8985 28.437C79.2825 28.437 79.6335 28.539 79.9515 28.743C80.2695 28.941 80.5185 29.217 80.6985 29.571C80.8845 29.925 80.9775 30.324 80.9775 30.768C80.9775 31.212 80.8845 31.614 80.6985 31.974C80.5185 32.328 80.2695 32.607 79.9515 32.811C79.6335 33.009 79.2825 33.108 78.8985 33.108ZM78.8985 32.424C79.3005 32.424 79.6185 32.277 79.8525 31.983C80.0925 31.683 80.2125 31.278 80.2125 30.768C80.2125 30.27 80.0925 29.871 79.8525 29.571C79.6185 29.271 79.3005 29.121 78.8985 29.121C78.4905 29.121 78.1665 29.271 77.9265 29.571C77.6865 29.871 77.5665 30.27 77.5665 30.768C77.5665 31.278 77.6835 31.683 77.9175 31.983C78.1575 32.277 78.4845 32.424 78.8985 32.424ZM90.0244 28.437C90.3784 28.437 90.7054 28.536 91.0054 28.734C91.3054 28.926 91.5424 29.199 91.7164 29.553C91.8964 29.907 91.9864 30.315 91.9864 30.777C91.9864 31.233 91.8964 31.638 91.7164 31.992C91.5424 32.346 91.3054 32.622 91.0054 32.82C90.7054 33.012 90.3784 33.108 90.0244 33.108C89.6884 33.108 89.3974 33.036 89.1514 32.892C88.9054 32.748 88.7104 32.538 88.5664 32.262V34.8H87.7834V28.536H88.5664V29.283C88.7104 29.013 88.9054 28.806 89.1514 28.662C89.4034 28.512 89.6944 28.437 90.0244 28.437ZM89.8534 32.424C90.2614 32.424 90.5854 32.277 90.8254 31.983C91.0714 31.683 91.1944 31.281 91.1944 30.777C91.1944 30.267 91.0714 29.862 90.8254 29.562C90.5854 29.256 90.2614 29.103 89.8534 29.103C89.4454 29.103 89.1214 29.253 88.8814 29.553C88.6414 29.853 88.5214 30.261 88.5214 30.777C88.5214 31.281 88.6414 31.683 88.8814 31.983C89.1214 32.277 89.4454 32.424 89.8534 32.424ZM96.1949 28.536H96.9779V33H96.1949V32.262C96.0509 32.538 95.8559 32.748 95.6099 32.892C95.3639 33.036 95.0729 33.108 94.7369 33.108C94.3829 33.108 94.0559 33.012 93.7559 32.82C93.4559 32.622 93.2159 32.346 93.0359 31.992C92.8619 31.638 92.7749 31.233 92.7749 30.777C92.7749 30.315 92.8619 29.907 93.0359 29.553C93.2159 29.199 93.4559 28.926 93.7559 28.734C94.0559 28.536 94.3829 28.437 94.7369 28.437C95.0669 28.437 95.3549 28.512 95.6009 28.662C95.8529 28.806 96.0509 29.013 96.1949 29.283V28.536ZM94.9079 32.424C95.3159 32.424 95.6399 32.277 95.8799 31.983C96.1199 31.683 96.2399 31.281 96.2399 30.777C96.2399 30.261 96.1199 29.853 95.8799 29.553C95.6399 29.253 95.3159 29.103 94.9079 29.103C94.4999 29.103 94.1729 29.256 93.9269 29.562C93.6869 29.862 93.5669 30.267 93.5669 30.777C93.5669 31.281 93.6869 31.683 93.9269 31.983C94.1729 32.277 94.4999 32.424 94.9079 32.424ZM100.493 32.136L101.942 28.536H102.779L100.097 34.8H99.2424L100.088 33.045L98.1714 28.536H99.0084L100.493 32.136ZM107.141 28.428C107.747 28.428 108.05 28.899 108.05 29.841V33H107.312V30.012C107.312 29.7 107.273 29.475 107.195 29.337C107.117 29.193 106.994 29.121 106.826 29.121C106.658 29.121 106.526 29.196 106.43 29.346C106.34 29.49 106.295 29.712 106.295 30.012V33H105.548V30.012C105.548 29.7 105.503 29.475 105.413 29.337C105.329 29.193 105.197 29.121 105.017 29.121C104.633 29.121 104.441 29.418 104.441 30.012V33H103.694V28.536H104.432V29.085C104.618 28.647 104.924 28.428 105.35 28.428C105.56 28.428 105.737 28.485 105.881 28.599C106.025 28.713 106.13 28.872 106.196 29.076C106.28 28.872 106.403 28.713 106.565 28.599C106.733 28.485 106.925 28.428 107.141 28.428ZM111.34 28.428C111.76 28.428 112.126 28.53 112.438 28.734C112.75 28.938 112.987 29.229 113.149 29.607C113.311 29.985 113.386 30.432 113.374 30.948H109.963C109.987 31.41 110.119 31.773 110.359 32.037C110.599 32.301 110.917 32.433 111.313 32.433C111.877 32.433 112.282 32.181 112.528 31.677L113.203 31.947C113.023 32.331 112.771 32.622 112.447 32.82C112.123 33.018 111.745 33.117 111.313 33.117C110.929 33.117 110.572 33.021 110.242 32.829C109.918 32.631 109.66 32.355 109.468 32.001C109.276 31.647 109.18 31.242 109.18 30.786C109.18 30.324 109.276 29.913 109.468 29.553C109.666 29.193 109.927 28.917 110.251 28.725C110.581 28.527 110.944 28.428 111.34 28.428ZM111.349 29.103C110.983 29.103 110.68 29.217 110.44 29.445C110.2 29.673 110.047 29.985 109.981 30.381H112.591C112.549 29.979 112.417 29.667 112.195 29.445C111.973 29.217 111.691 29.103 111.349 29.103ZM116.971 28.428C117.481 28.428 117.877 28.593 118.159 28.923C118.441 29.247 118.582 29.709 118.582 30.309V33H117.799V30.345C117.799 29.961 117.709 29.667 117.529 29.463C117.349 29.253 117.097 29.148 116.773 29.148C116.395 29.148 116.095 29.271 115.873 29.517C115.657 29.757 115.549 30.132 115.549 30.642V33H114.766V28.536H115.549V29.202C115.693 28.944 115.885 28.752 116.125 28.626C116.371 28.494 116.653 28.428 116.971 28.428ZM124.329 32.604C124.125 32.79 123.921 32.922 123.717 33C123.513 33.078 123.291 33.117 123.051 33.117C122.493 33.117 122.046 32.976 121.71 32.694C121.38 32.406 121.215 32.022 121.215 31.542V29.193H119.838V28.536H121.215V26.97H121.998V28.536H124.05V29.193H121.998V31.551C121.998 31.815 122.091 32.025 122.277 32.181C122.469 32.331 122.724 32.406 123.042 32.406C123.402 32.406 123.717 32.28 123.987 32.028L124.329 32.604ZM133.484 28.536V32.352H135.167V33H130.91V32.352H132.692V29.193H131.099V28.536H133.484ZM133.079 26.718C133.241 26.718 133.373 26.772 133.475 26.88C133.583 26.982 133.637 27.108 133.637 27.258C133.637 27.414 133.583 27.543 133.475 27.645C133.373 27.747 133.241 27.798 133.079 27.798C132.917 27.798 132.785 27.747 132.683 27.645C132.581 27.543 132.53 27.414 132.53 27.258C132.53 27.108 132.581 26.982 132.683 26.88C132.791 26.772 132.923 26.718 133.079 26.718ZM138.557 28.428C139.067 28.428 139.463 28.593 139.745 28.923C140.027 29.247 140.168 29.709 140.168 30.309V33H139.385V30.345C139.385 29.961 139.295 29.667 139.115 29.463C138.935 29.253 138.683 29.148 138.359 29.148C137.981 29.148 137.681 29.271 137.459 29.517C137.243 29.757 137.135 30.132 137.135 30.642V33H136.352V28.536H137.135V29.202C137.279 28.944 137.471 28.752 137.711 28.626C137.957 28.494 138.239 28.428 138.557 28.428ZM144.763 26.943C144.469 26.943 144.235 27.036 144.061 27.222C143.887 27.408 143.8 27.66 143.8 27.978V28.536H145.636V29.193H143.8V33H143.008V29.193H141.478V28.536H143.008V27.996C143.008 27.468 143.167 27.045 143.485 26.727C143.803 26.409 144.226 26.25 144.754 26.25C145.096 26.25 145.396 26.313 145.654 26.439C145.918 26.565 146.119 26.742 146.257 26.97L145.636 27.402C145.558 27.258 145.444 27.147 145.294 27.069C145.144 26.985 144.967 26.943 144.763 26.943ZM149.053 33.108C148.663 33.108 148.306 33.009 147.982 32.811C147.664 32.613 147.412 32.337 147.226 31.983C147.046 31.623 146.956 31.218 146.956 30.768C146.956 30.324 147.049 29.925 147.235 29.571C147.421 29.217 147.673 28.941 147.991 28.743C148.309 28.539 148.663 28.437 149.053 28.437C149.437 28.437 149.788 28.539 150.106 28.743C150.424 28.941 150.673 29.217 150.853 29.571C151.039 29.925 151.132 30.324 151.132 30.768C151.132 31.212 151.039 31.614 150.853 31.974C150.673 32.328 150.424 32.607 150.106 32.811C149.788 33.009 149.437 33.108 149.053 33.108ZM149.053 32.424C149.455 32.424 149.773 32.277 150.007 31.983C150.247 31.683 150.367 31.278 150.367 30.768C150.367 30.27 150.247 29.871 150.007 29.571C149.773 29.271 149.455 29.121 149.053 29.121C148.645 29.121 148.321 29.271 148.081 29.571C147.841 29.871 147.721 30.27 147.721 30.768C147.721 31.278 147.838 31.683 148.072 31.983C148.312 32.277 148.639 32.424 149.053 32.424ZM155.007 28.455C155.391 28.455 155.727 28.554 156.015 28.752C156.303 28.95 156.507 29.28 156.627 29.742L155.988 30.084C155.892 29.742 155.751 29.499 155.565 29.355C155.385 29.211 155.154 29.139 154.872 29.139C154.446 29.139 154.113 29.286 153.873 29.58C153.639 29.874 153.522 30.246 153.522 30.696V33H152.739V28.536H153.522V29.427C153.654 29.103 153.846 28.86 154.098 28.698C154.35 28.536 154.653 28.455 155.007 28.455ZM161.106 28.428C161.712 28.428 162.015 28.899 162.015 29.841V33H161.277V30.012C161.277 29.7 161.238 29.475 161.16 29.337C161.082 29.193 160.959 29.121 160.791 29.121C160.623 29.121 160.491 29.196 160.395 29.346C160.305 29.49 160.26 29.712 160.26 30.012V33H159.513V30.012C159.513 29.7 159.468 29.475 159.378 29.337C159.294 29.193 159.162 29.121 158.982 29.121C158.598 29.121 158.406 29.418 158.406 30.012V33H157.659V28.536H158.397V29.085C158.583 28.647 158.889 28.428 159.315 28.428C159.525 28.428 159.702 28.485 159.846 28.599C159.99 28.713 160.095 28.872 160.161 29.076C160.245 28.872 160.368 28.713 160.53 28.599C160.698 28.485 160.89 28.428 161.106 28.428ZM166.349 28.536H167.132V33H166.349V32.262C166.205 32.538 166.01 32.748 165.764 32.892C165.518 33.036 165.227 33.108 164.891 33.108C164.537 33.108 164.21 33.012 163.91 32.82C163.61 32.622 163.37 32.346 163.19 31.992C163.016 31.638 162.929 31.233 162.929 30.777C162.929 30.315 163.016 29.907 163.19 29.553C163.37 29.199 163.61 28.926 163.91 28.734C164.21 28.536 164.537 28.437 164.891 28.437C165.221 28.437 165.509 28.512 165.755 28.662C166.007 28.806 166.205 29.013 166.349 29.283V28.536ZM165.062 32.424C165.47 32.424 165.794 32.277 166.034 31.983C166.274 31.683 166.394 31.281 166.394 30.777C166.394 30.261 166.274 29.853 166.034 29.553C165.794 29.253 165.47 29.103 165.062 29.103C164.654 29.103 164.327 29.256 164.081 29.562C163.841 29.862 163.721 30.267 163.721 30.777C163.721 31.281 163.841 31.683 164.081 31.983C164.327 32.277 164.654 32.424 165.062 32.424ZM172.898 32.604C172.694 32.79 172.49 32.922 172.286 33C172.082 33.078 171.86 33.117 171.62 33.117C171.062 33.117 170.615 32.976 170.279 32.694C169.949 32.406 169.784 32.022 169.784 31.542V29.193H168.407V28.536H169.784V26.97H170.567V28.536H172.619V29.193H170.567V31.551C170.567 31.815 170.66 32.025 170.846 32.181C171.038 32.331 171.293 32.406 171.611 32.406C171.971 32.406 172.286 32.28 172.556 32.028L172.898 32.604ZM176.656 28.536V32.352H178.339V33H174.082V32.352H175.864V29.193H174.271V28.536H176.656ZM176.251 26.718C176.413 26.718 176.545 26.772 176.647 26.88C176.755 26.982 176.809 27.108 176.809 27.258C176.809 27.414 176.755 27.543 176.647 27.645C176.545 27.747 176.413 27.798 176.251 27.798C176.089 27.798 175.957 27.747 175.855 27.645C175.753 27.543 175.702 27.414 175.702 27.258C175.702 27.108 175.753 26.982 175.855 26.88C175.963 26.772 176.095 26.718 176.251 26.718ZM181.432 33.108C181.042 33.108 180.685 33.009 180.361 32.811C180.043 32.613 179.791 32.337 179.605 31.983C179.425 31.623 179.335 31.218 179.335 30.768C179.335 30.324 179.428 29.925 179.614 29.571C179.8 29.217 180.052 28.941 180.37 28.743C180.688 28.539 181.042 28.437 181.432 28.437C181.816 28.437 182.167 28.539 182.485 28.743C182.803 28.941 183.052 29.217 183.232 29.571C183.418 29.925 183.511 30.324 183.511 30.768C183.511 31.212 183.418 31.614 183.232 31.974C183.052 32.328 182.803 32.607 182.485 32.811C182.167 33.009 181.816 33.108 181.432 33.108ZM181.432 32.424C181.834 32.424 182.152 32.277 182.386 31.983C182.626 31.683 182.746 31.278 182.746 30.768C182.746 30.27 182.626 29.871 182.386 29.571C182.152 29.271 181.834 29.121 181.432 29.121C181.024 29.121 180.7 29.271 180.46 29.571C180.22 29.871 180.1 30.27 180.1 30.768C180.1 31.278 180.217 31.683 180.451 31.983C180.691 32.277 181.018 32.424 181.432 32.424ZM187.125 28.428C187.635 28.428 188.031 28.593 188.313 28.923C188.595 29.247 188.736 29.709 188.736 30.309V33H187.953V30.345C187.953 29.961 187.863 29.667 187.683 29.463C187.503 29.253 187.251 29.148 186.927 29.148C186.549 29.148 186.249 29.271 186.027 29.517C185.811 29.757 185.703 30.132 185.703 30.642V33H184.92V28.536H185.703V29.202C185.847 28.944 186.039 28.752 186.279 28.626C186.525 28.494 186.807 28.428 187.125 28.428Z" fill="white"/>
</svg>
