<svg width="250" height="92" viewBox="0 0 250 92" fill="none" xmlns="http://www.w3.org/2000/svg">
<path fill-rule="evenodd" clip-rule="evenodd" d="M115 50.9154C115 50.0417 115.747 49.3335 116.665 49.3335H134.335C135.254 49.3335 136 50.0409 136 50.9154V61.085C136 61.9586 135.253 62.6668 134.335 62.6668H116.665C115.746 62.6668 115 61.9594 115 61.085V50.9154Z" fill="#224DBA"/>
<path fill-rule="evenodd" clip-rule="evenodd" d="M120.469 59.2879H118.879L117.686 54.7626C117.63 54.5544 117.509 54.3704 117.333 54.2836C116.891 54.0657 116.405 53.8922 115.875 53.8047V53.6305H118.437C118.79 53.6305 119.055 53.8922 119.1 54.1961L119.718 57.4604L121.308 53.6305H122.854L120.469 59.2879ZM123.738 59.2879H122.236L123.473 53.6305H124.974L123.738 59.2879ZM126.918 55.1978C126.962 54.893 127.227 54.7188 127.536 54.7188C128.022 54.6751 128.552 54.7626 128.994 54.9798L129.259 53.7617C128.817 53.5875 128.331 53.5 127.89 53.5C126.432 53.5 125.371 54.2836 125.371 55.3712C125.371 56.1986 126.123 56.633 126.653 56.8948C127.227 57.1557 127.448 57.3299 127.404 57.5909C127.404 57.9823 126.962 58.1566 126.521 58.1566C125.99 58.1566 125.46 58.0261 124.974 57.8081L124.709 59.0269C125.24 59.2442 125.813 59.3316 126.344 59.3316C127.978 59.3746 128.994 58.5918 128.994 57.4167C128.994 55.9369 126.918 55.8502 126.918 55.1978ZM134.25 59.2879L133.058 53.6305H131.777C131.511 53.6305 131.246 53.8047 131.158 54.0657L128.95 59.2879H130.496L130.804 58.4613H132.704L132.881 59.2879H134.25ZM131.998 55.154L132.439 57.2862H131.202L131.998 55.154Z" fill="white"/>
<path d="M167.274 52.311C167.258 52.4 167.24 52.491 167.22 52.5844C166.535 55.7413 164.189 56.8319 161.194 56.8319H159.669C159.302 56.8319 158.994 57.0704 158.937 57.3945L158.156 61.8363L157.934 63.0954C157.897 63.3081 158.08 63.5 158.32 63.5H161.025C161.345 63.5 161.617 63.2912 161.668 63.0079L161.694 62.8846L162.204 59.9857L162.236 59.8267C162.286 59.5424 162.559 59.3336 162.879 59.3336H163.284C165.905 59.3336 167.957 58.3792 168.556 55.6175C168.807 54.4638 168.677 53.5005 168.014 52.823C167.814 52.6187 167.565 52.4492 167.274 52.311Z" fill="#179BD7"/>
<path d="M166.557 52.0547C166.452 52.0273 166.344 52.0025 166.233 51.9801C166.121 51.9583 166.007 51.9389 165.89 51.922C165.479 51.8623 165.028 51.834 164.545 51.834H160.471C160.37 51.834 160.275 51.8544 160.19 51.8911C160.002 51.9722 159.862 52.1317 159.828 52.3271L158.961 57.251L158.937 57.3947C158.994 57.0706 159.302 56.832 159.669 56.832H161.194C164.189 56.832 166.535 55.7409 167.22 52.5846C167.241 52.4911 167.258 52.4001 167.274 52.3112C167.1 52.2287 166.912 52.1581 166.71 52.0979C166.66 52.083 166.609 52.0686 166.557 52.0547Z" fill="#222D65"/>
<path d="M159.828 52.3269C159.862 52.1316 160.002 51.972 160.19 51.8915C160.276 51.8547 160.37 51.8343 160.471 51.8343H164.545C165.028 51.8343 165.479 51.8627 165.89 51.9223C166.007 51.9392 166.121 51.9586 166.233 51.9805C166.344 52.0028 166.452 52.0277 166.557 52.055C166.609 52.0689 166.66 52.0834 166.711 52.0978C166.913 52.1579 167.101 52.229 167.274 52.311C167.478 51.1444 167.273 50.3501 166.569 49.6308C165.794 48.839 164.395 48.5 162.604 48.5H157.405C157.039 48.5 156.727 48.7386 156.671 49.0632L154.506 61.373C154.463 61.6166 154.672 61.8363 154.946 61.8363H158.156L158.961 57.2509L159.828 52.3269Z" fill="#253B80"/>
<path d="M98.4211 49.3335H81.5789C80.7069 49.3335 80 50.0404 80 50.9124V61.0879C80 61.9599 80.7069 62.6668 81.5789 62.6668H98.4211C99.2931 62.6668 100 61.9599 100 61.0879V50.9124C100 50.0404 99.2931 49.3335 98.4211 49.3335Z" fill="#353A48"/>
<path fill-rule="evenodd" clip-rule="evenodd" d="M93.0744 51C95.8169 51 98.0402 53.2067 98.0402 55.9287C98.0402 58.6508 95.8169 60.8575 93.0744 60.8575C91.8453 60.8575 90.7205 60.4143 89.8534 59.6801C88.9867 60.4141 87.8616 60.8575 86.6323 60.8575C83.8898 60.8575 81.6665 58.6508 81.6665 55.9287C81.6665 53.2067 83.8898 51 86.6323 51C87.8616 51 88.9867 51.4434 89.8539 52.1778C90.7205 51.4432 91.8453 51 93.0744 51Z" fill="#FF5E00"/>
<path fill-rule="evenodd" clip-rule="evenodd" d="M86.6323 51C87.8616 51 88.9867 51.4434 89.8539 52.1778C88.7857 53.0814 88.1086 54.4266 88.1086 55.9287C88.1086 57.4309 88.7857 58.7761 89.8534 59.6801C88.9867 60.4141 87.8616 60.8575 86.6323 60.8575C83.8898 60.8575 81.6665 58.6508 81.6665 55.9287C81.6665 53.2067 83.8898 51 86.6323 51Z" fill="#ED0006"/>
<path fill-rule="evenodd" clip-rule="evenodd" d="M93.0744 51C95.8169 51 98.0402 53.2067 98.0402 55.9287C98.0402 58.6508 95.8169 60.8575 93.0744 60.8575C91.8451 60.8575 90.7202 60.4141 89.853 59.6798C90.9215 58.7751 91.5981 57.4303 91.5981 55.9287C91.5981 54.4271 90.9215 53.0824 89.8544 52.1784C90.7202 51.4433 91.8451 51 93.0744 51Z" fill="#F9A000"/>
<path d="M60.801 33V26.97H62.421C62.937 26.97 63.375 27.102 63.735 27.366C64.101 27.624 64.374 27.981 64.554 28.437C64.74 28.887 64.833 29.403 64.833 29.985C64.833 30.561 64.74 31.077 64.554 31.533C64.374 31.989 64.101 32.349 63.735 32.613C63.375 32.871 62.937 33 62.421 33H60.801ZM62.403 32.271C63.471 32.271 64.005 31.509 64.005 29.985C64.005 29.217 63.873 28.644 63.609 28.266C63.345 27.888 62.943 27.699 62.403 27.699H61.62V32.271H62.403ZM68.1685 28.428C68.5885 28.428 68.9545 28.53 69.2665 28.734C69.5785 28.938 69.8155 29.229 69.9775 29.607C70.1395 29.985 70.2145 30.432 70.2025 30.948H66.7915C66.8155 31.41 66.9475 31.773 67.1875 32.037C67.4275 32.301 67.7455 32.433 68.1415 32.433C68.7055 32.433 69.1105 32.181 69.3565 31.677L70.0315 31.947C69.8515 32.331 69.5995 32.622 69.2755 32.82C68.9515 33.018 68.5735 33.117 68.1415 33.117C67.7575 33.117 67.4005 33.021 67.0705 32.829C66.7465 32.631 66.4885 32.355 66.2965 32.001C66.1045 31.647 66.0085 31.242 66.0085 30.786C66.0085 30.324 66.1045 29.913 66.2965 29.553C66.4945 29.193 66.7555 28.917 67.0795 28.725C67.4095 28.527 67.7725 28.428 68.1685 28.428ZM68.1775 29.103C67.8115 29.103 67.5085 29.217 67.2685 29.445C67.0285 29.673 66.8755 29.985 66.8095 30.381H69.4195C69.3775 29.979 69.2455 29.667 69.0235 29.445C68.8015 29.217 68.5195 29.103 68.1775 29.103ZM74.762 28.428C75.368 28.428 75.671 28.899 75.671 29.841V33H74.933V30.012C74.933 29.7 74.894 29.475 74.816 29.337C74.738 29.193 74.615 29.121 74.447 29.121C74.279 29.121 74.147 29.196 74.051 29.346C73.961 29.49 73.916 29.712 73.916 30.012V33H73.169V30.012C73.169 29.7 73.124 29.475 73.034 29.337C72.95 29.193 72.818 29.121 72.638 29.121C72.254 29.121 72.062 29.418 72.062 30.012V33H71.315V28.536H72.053V29.085C72.239 28.647 72.545 28.428 72.971 28.428C73.181 28.428 73.358 28.485 73.502 28.599C73.646 28.713 73.751 28.872 73.817 29.076C73.901 28.872 74.024 28.713 74.186 28.599C74.354 28.485 74.546 28.428 74.762 28.428ZM78.8985 33.108C78.5085 33.108 78.1515 33.009 77.8275 32.811C77.5095 32.613 77.2575 32.337 77.0715 31.983C76.8915 31.623 76.8015 31.218 76.8015 30.768C76.8015 30.324 76.8945 29.925 77.0805 29.571C77.2665 29.217 77.5185 28.941 77.8365 28.743C78.1545 28.539 78.5085 28.437 78.8985 28.437C79.2825 28.437 79.6335 28.539 79.9515 28.743C80.2695 28.941 80.5185 29.217 80.6985 29.571C80.8845 29.925 80.9775 30.324 80.9775 30.768C80.9775 31.212 80.8845 31.614 80.6985 31.974C80.5185 32.328 80.2695 32.607 79.9515 32.811C79.6335 33.009 79.2825 33.108 78.8985 33.108ZM78.8985 32.424C79.3005 32.424 79.6185 32.277 79.8525 31.983C80.0925 31.683 80.2125 31.278 80.2125 30.768C80.2125 30.27 80.0925 29.871 79.8525 29.571C79.6185 29.271 79.3005 29.121 78.8985 29.121C78.4905 29.121 78.1665 29.271 77.9265 29.571C77.6865 29.871 77.5665 30.27 77.5665 30.768C77.5665 31.278 77.6835 31.683 77.9175 31.983C78.1575 32.277 78.4845 32.424 78.8985 32.424ZM90.0244 28.437C90.3784 28.437 90.7054 28.536 91.0054 28.734C91.3054 28.926 91.5424 29.199 91.7164 29.553C91.8964 29.907 91.9864 30.315 91.9864 30.777C91.9864 31.233 91.8964 31.638 91.7164 31.992C91.5424 32.346 91.3054 32.622 91.0054 32.82C90.7054 33.012 90.3784 33.108 90.0244 33.108C89.6884 33.108 89.3974 33.036 89.1514 32.892C88.9054 32.748 88.7104 32.538 88.5664 32.262V34.8H87.7834V28.536H88.5664V29.283C88.7104 29.013 88.9054 28.806 89.1514 28.662C89.4034 28.512 89.6944 28.437 90.0244 28.437ZM89.8534 32.424C90.2614 32.424 90.5854 32.277 90.8254 31.983C91.0714 31.683 91.1944 31.281 91.1944 30.777C91.1944 30.267 91.0714 29.862 90.8254 29.562C90.5854 29.256 90.2614 29.103 89.8534 29.103C89.4454 29.103 89.1214 29.253 88.8814 29.553C88.6414 29.853 88.5214 30.261 88.5214 30.777C88.5214 31.281 88.6414 31.683 88.8814 31.983C89.1214 32.277 89.4454 32.424 89.8534 32.424ZM96.1949 28.536H96.9779V33H96.1949V32.262C96.0509 32.538 95.8559 32.748 95.6099 32.892C95.3639 33.036 95.0729 33.108 94.7369 33.108C94.3829 33.108 94.0559 33.012 93.7559 32.82C93.4559 32.622 93.2159 32.346 93.0359 31.992C92.8619 31.638 92.7749 31.233 92.7749 30.777C92.7749 30.315 92.8619 29.907 93.0359 29.553C93.2159 29.199 93.4559 28.926 93.7559 28.734C94.0559 28.536 94.3829 28.437 94.7369 28.437C95.0669 28.437 95.3549 28.512 95.6009 28.662C95.8529 28.806 96.0509 29.013 96.1949 29.283V28.536ZM94.9079 32.424C95.3159 32.424 95.6399 32.277 95.8799 31.983C96.1199 31.683 96.2399 31.281 96.2399 30.777C96.2399 30.261 96.1199 29.853 95.8799 29.553C95.6399 29.253 95.3159 29.103 94.9079 29.103C94.4999 29.103 94.1729 29.256 93.9269 29.562C93.6869 29.862 93.5669 30.267 93.5669 30.777C93.5669 31.281 93.6869 31.683 93.9269 31.983C94.1729 32.277 94.4999 32.424 94.9079 32.424ZM100.493 32.136L101.942 28.536H102.779L100.097 34.8H99.2424L100.088 33.045L98.1714 28.536H99.0084L100.493 32.136ZM107.141 28.428C107.747 28.428 108.05 28.899 108.05 29.841V33H107.312V30.012C107.312 29.7 107.273 29.475 107.195 29.337C107.117 29.193 106.994 29.121 106.826 29.121C106.658 29.121 106.526 29.196 106.43 29.346C106.34 29.49 106.295 29.712 106.295 30.012V33H105.548V30.012C105.548 29.7 105.503 29.475 105.413 29.337C105.329 29.193 105.197 29.121 105.017 29.121C104.633 29.121 104.441 29.418 104.441 30.012V33H103.694V28.536H104.432V29.085C104.618 28.647 104.924 28.428 105.35 28.428C105.56 28.428 105.737 28.485 105.881 28.599C106.025 28.713 106.13 28.872 106.196 29.076C106.28 28.872 106.403 28.713 106.565 28.599C106.733 28.485 106.925 28.428 107.141 28.428ZM111.34 28.428C111.76 28.428 112.126 28.53 112.438 28.734C112.75 28.938 112.987 29.229 113.149 29.607C113.311 29.985 113.386 30.432 113.374 30.948H109.963C109.987 31.41 110.119 31.773 110.359 32.037C110.599 32.301 110.917 32.433 111.313 32.433C111.877 32.433 112.282 32.181 112.528 31.677L113.203 31.947C113.023 32.331 112.771 32.622 112.447 32.82C112.123 33.018 111.745 33.117 111.313 33.117C110.929 33.117 110.572 33.021 110.242 32.829C109.918 32.631 109.66 32.355 109.468 32.001C109.276 31.647 109.18 31.242 109.18 30.786C109.18 30.324 109.276 29.913 109.468 29.553C109.666 29.193 109.927 28.917 110.251 28.725C110.581 28.527 110.944 28.428 111.34 28.428ZM111.349 29.103C110.983 29.103 110.68 29.217 110.44 29.445C110.2 29.673 110.047 29.985 109.981 30.381H112.591C112.549 29.979 112.417 29.667 112.195 29.445C111.973 29.217 111.691 29.103 111.349 29.103ZM116.971 28.428C117.481 28.428 117.877 28.593 118.159 28.923C118.441 29.247 118.582 29.709 118.582 30.309V33H117.799V30.345C117.799 29.961 117.709 29.667 117.529 29.463C117.349 29.253 117.097 29.148 116.773 29.148C116.395 29.148 116.095 29.271 115.873 29.517C115.657 29.757 115.549 30.132 115.549 30.642V33H114.766V28.536H115.549V29.202C115.693 28.944 115.885 28.752 116.125 28.626C116.371 28.494 116.653 28.428 116.971 28.428ZM124.329 32.604C124.125 32.79 123.921 32.922 123.717 33C123.513 33.078 123.291 33.117 123.051 33.117C122.493 33.117 122.046 32.976 121.71 32.694C121.38 32.406 121.215 32.022 121.215 31.542V29.193H119.838V28.536H121.215V26.97H121.998V28.536H124.05V29.193H121.998V31.551C121.998 31.815 122.091 32.025 122.277 32.181C122.469 32.331 122.724 32.406 123.042 32.406C123.402 32.406 123.717 32.28 123.987 32.028L124.329 32.604ZM133.484 28.536V32.352H135.167V33H130.91V32.352H132.692V29.193H131.099V28.536H133.484ZM133.079 26.718C133.241 26.718 133.373 26.772 133.475 26.88C133.583 26.982 133.637 27.108 133.637 27.258C133.637 27.414 133.583 27.543 133.475 27.645C133.373 27.747 133.241 27.798 133.079 27.798C132.917 27.798 132.785 27.747 132.683 27.645C132.581 27.543 132.53 27.414 132.53 27.258C132.53 27.108 132.581 26.982 132.683 26.88C132.791 26.772 132.923 26.718 133.079 26.718ZM138.557 28.428C139.067 28.428 139.463 28.593 139.745 28.923C140.027 29.247 140.168 29.709 140.168 30.309V33H139.385V30.345C139.385 29.961 139.295 29.667 139.115 29.463C138.935 29.253 138.683 29.148 138.359 29.148C137.981 29.148 137.681 29.271 137.459 29.517C137.243 29.757 137.135 30.132 137.135 30.642V33H136.352V28.536H137.135V29.202C137.279 28.944 137.471 28.752 137.711 28.626C137.957 28.494 138.239 28.428 138.557 28.428ZM144.763 26.943C144.469 26.943 144.235 27.036 144.061 27.222C143.887 27.408 143.8 27.66 143.8 27.978V28.536H145.636V29.193H143.8V33H143.008V29.193H141.478V28.536H143.008V27.996C143.008 27.468 143.167 27.045 143.485 26.727C143.803 26.409 144.226 26.25 144.754 26.25C145.096 26.25 145.396 26.313 145.654 26.439C145.918 26.565 146.119 26.742 146.257 26.97L145.636 27.402C145.558 27.258 145.444 27.147 145.294 27.069C145.144 26.985 144.967 26.943 144.763 26.943ZM149.053 33.108C148.663 33.108 148.306 33.009 147.982 32.811C147.664 32.613 147.412 32.337 147.226 31.983C147.046 31.623 146.956 31.218 146.956 30.768C146.956 30.324 147.049 29.925 147.235 29.571C147.421 29.217 147.673 28.941 147.991 28.743C148.309 28.539 148.663 28.437 149.053 28.437C149.437 28.437 149.788 28.539 150.106 28.743C150.424 28.941 150.673 29.217 150.853 29.571C151.039 29.925 151.132 30.324 151.132 30.768C151.132 31.212 151.039 31.614 150.853 31.974C150.673 32.328 150.424 32.607 150.106 32.811C149.788 33.009 149.437 33.108 149.053 33.108ZM149.053 32.424C149.455 32.424 149.773 32.277 150.007 31.983C150.247 31.683 150.367 31.278 150.367 30.768C150.367 30.27 150.247 29.871 150.007 29.571C149.773 29.271 149.455 29.121 149.053 29.121C148.645 29.121 148.321 29.271 148.081 29.571C147.841 29.871 147.721 30.27 147.721 30.768C147.721 31.278 147.838 31.683 148.072 31.983C148.312 32.277 148.639 32.424 149.053 32.424ZM155.007 28.455C155.391 28.455 155.727 28.554 156.015 28.752C156.303 28.95 156.507 29.28 156.627 29.742L155.988 30.084C155.892 29.742 155.751 29.499 155.565 29.355C155.385 29.211 155.154 29.139 154.872 29.139C154.446 29.139 154.113 29.286 153.873 29.58C153.639 29.874 153.522 30.246 153.522 30.696V33H152.739V28.536H153.522V29.427C153.654 29.103 153.846 28.86 154.098 28.698C154.35 28.536 154.653 28.455 155.007 28.455ZM161.106 28.428C161.712 28.428 162.015 28.899 162.015 29.841V33H161.277V30.012C161.277 29.7 161.238 29.475 161.16 29.337C161.082 29.193 160.959 29.121 160.791 29.121C160.623 29.121 160.491 29.196 160.395 29.346C160.305 29.49 160.26 29.712 160.26 30.012V33H159.513V30.012C159.513 29.7 159.468 29.475 159.378 29.337C159.294 29.193 159.162 29.121 158.982 29.121C158.598 29.121 158.406 29.418 158.406 30.012V33H157.659V28.536H158.397V29.085C158.583 28.647 158.889 28.428 159.315 28.428C159.525 28.428 159.702 28.485 159.846 28.599C159.99 28.713 160.095 28.872 160.161 29.076C160.245 28.872 160.368 28.713 160.53 28.599C160.698 28.485 160.89 28.428 161.106 28.428ZM166.349 28.536H167.132V33H166.349V32.262C166.205 32.538 166.01 32.748 165.764 32.892C165.518 33.036 165.227 33.108 164.891 33.108C164.537 33.108 164.21 33.012 163.91 32.82C163.61 32.622 163.37 32.346 163.19 31.992C163.016 31.638 162.929 31.233 162.929 30.777C162.929 30.315 163.016 29.907 163.19 29.553C163.37 29.199 163.61 28.926 163.91 28.734C164.21 28.536 164.537 28.437 164.891 28.437C165.221 28.437 165.509 28.512 165.755 28.662C166.007 28.806 166.205 29.013 166.349 29.283V28.536ZM165.062 32.424C165.47 32.424 165.794 32.277 166.034 31.983C166.274 31.683 166.394 31.281 166.394 30.777C166.394 30.261 166.274 29.853 166.034 29.553C165.794 29.253 165.47 29.103 165.062 29.103C164.654 29.103 164.327 29.256 164.081 29.562C163.841 29.862 163.721 30.267 163.721 30.777C163.721 31.281 163.841 31.683 164.081 31.983C164.327 32.277 164.654 32.424 165.062 32.424ZM172.898 32.604C172.694 32.79 172.49 32.922 172.286 33C172.082 33.078 171.86 33.117 171.62 33.117C171.062 33.117 170.615 32.976 170.279 32.694C169.949 32.406 169.784 32.022 169.784 31.542V29.193H168.407V28.536H169.784V26.97H170.567V28.536H172.619V29.193H170.567V31.551C170.567 31.815 170.66 32.025 170.846 32.181C171.038 32.331 171.293 32.406 171.611 32.406C171.971 32.406 172.286 32.28 172.556 32.028L172.898 32.604ZM176.656 28.536V32.352H178.339V33H174.082V32.352H175.864V29.193H174.271V28.536H176.656ZM176.251 26.718C176.413 26.718 176.545 26.772 176.647 26.88C176.755 26.982 176.809 27.108 176.809 27.258C176.809 27.414 176.755 27.543 176.647 27.645C176.545 27.747 176.413 27.798 176.251 27.798C176.089 27.798 175.957 27.747 175.855 27.645C175.753 27.543 175.702 27.414 175.702 27.258C175.702 27.108 175.753 26.982 175.855 26.88C175.963 26.772 176.095 26.718 176.251 26.718ZM181.432 33.108C181.042 33.108 180.685 33.009 180.361 32.811C180.043 32.613 179.791 32.337 179.605 31.983C179.425 31.623 179.335 31.218 179.335 30.768C179.335 30.324 179.428 29.925 179.614 29.571C179.8 29.217 180.052 28.941 180.37 28.743C180.688 28.539 181.042 28.437 181.432 28.437C181.816 28.437 182.167 28.539 182.485 28.743C182.803 28.941 183.052 29.217 183.232 29.571C183.418 29.925 183.511 30.324 183.511 30.768C183.511 31.212 183.418 31.614 183.232 31.974C183.052 32.328 182.803 32.607 182.485 32.811C182.167 33.009 181.816 33.108 181.432 33.108ZM181.432 32.424C181.834 32.424 182.152 32.277 182.386 31.983C182.626 31.683 182.746 31.278 182.746 30.768C182.746 30.27 182.626 29.871 182.386 29.571C182.152 29.271 181.834 29.121 181.432 29.121C181.024 29.121 180.7 29.271 180.46 29.571C180.22 29.871 180.1 30.27 180.1 30.768C180.1 31.278 180.217 31.683 180.451 31.983C180.691 32.277 181.018 32.424 181.432 32.424ZM187.125 28.428C187.635 28.428 188.031 28.593 188.313 28.923C188.595 29.247 188.736 29.709 188.736 30.309V33H187.953V30.345C187.953 29.961 187.863 29.667 187.683 29.463C187.503 29.253 187.251 29.148 186.927 29.148C186.549 29.148 186.249 29.271 186.027 29.517C185.811 29.757 185.703 30.132 185.703 30.642V33H184.92V28.536H185.703V29.202C185.847 28.944 186.039 28.752 186.279 28.626C186.525 28.494 186.807 28.428 187.125 28.428Z" fill="white"/>
</svg>
