<svg width="250" height="92" viewBox="0 0 250 92" fill="none" xmlns="http://www.w3.org/2000/svg">
<path fill-rule="evenodd" clip-rule="evenodd" d="M87 50.9154C87 50.0417 87.7474 49.3335 88.6654 49.3335H106.335C107.254 49.3335 108 50.0409 108 50.9154V61.085C108 61.9586 107.253 62.6668 106.335 62.6668H88.6654C87.7456 62.6668 87 61.9594 87 61.085V50.9154Z" fill="#224DBA"/>
<path fill-rule="evenodd" clip-rule="evenodd" d="M92.4689 59.2879H90.8787L89.6862 54.7626C89.6296 54.5544 89.5094 54.3704 89.3327 54.2836C88.8915 54.0657 88.4053 53.8922 87.875 53.8047V53.6305H90.4368C90.7903 53.6305 91.0555 53.8922 91.0997 54.1961L91.7184 57.4604L93.3079 53.6305H94.8539L92.4689 59.2879ZM95.7378 59.2879H94.236L95.4726 53.6305H96.9745L95.7378 59.2879ZM98.9175 55.1978C98.9617 54.893 99.2269 54.7188 99.5363 54.7188C100.022 54.6751 100.552 54.7626 100.994 54.9798L101.259 53.7617C100.817 53.5875 100.331 53.5 99.8898 53.5C98.4322 53.5 97.3715 54.2836 97.3715 55.3712C97.3715 56.1986 98.1228 56.633 98.6531 56.8948C99.2269 57.1557 99.4479 57.3299 99.4037 57.5909C99.4037 57.9823 98.9617 58.1566 98.5205 58.1566C97.9902 58.1566 97.4599 58.0261 96.9745 57.8081L96.7093 59.0269C97.2397 59.2442 97.8134 59.3316 98.3438 59.3316C99.9782 59.3746 100.994 58.5918 100.994 57.4167C100.994 55.9369 98.9175 55.8502 98.9175 55.1978ZM106.25 59.2879L105.058 53.6305H103.777C103.511 53.6305 103.246 53.8047 103.158 54.0657L100.95 59.2879H102.496L102.804 58.4613H104.704L104.881 59.2879H106.25ZM103.998 55.154L104.439 57.2862H103.202L103.998 55.154Z" fill="white"/>
<path d="M139.274 52.311C139.258 52.4 139.24 52.491 139.22 52.5844C138.535 55.7413 136.189 56.8319 133.194 56.8319H131.669C131.302 56.8319 130.994 57.0704 130.937 57.3945L130.156 61.8363L129.934 63.0954C129.897 63.3081 130.08 63.5 130.32 63.5H133.025C133.345 63.5 133.617 63.2912 133.668 63.0079L133.694 62.8846L134.204 59.9857L134.236 59.8267C134.286 59.5424 134.559 59.3336 134.879 59.3336H135.284C137.905 59.3336 139.957 58.3792 140.556 55.6175C140.807 54.4638 140.677 53.5005 140.014 52.823C139.814 52.6187 139.565 52.4492 139.274 52.311Z" fill="#179BD7"/>
<path d="M138.557 52.0547C138.452 52.0273 138.344 52.0025 138.233 51.9801C138.121 51.9583 138.007 51.9389 137.89 51.922C137.479 51.8623 137.028 51.834 136.545 51.834H132.471C132.37 51.834 132.275 51.8544 132.19 51.8911C132.002 51.9722 131.862 52.1317 131.828 52.3271L130.961 57.251L130.937 57.3947C130.994 57.0706 131.302 56.832 131.669 56.832H133.194C136.189 56.832 138.535 55.7409 139.22 52.5846C139.241 52.4911 139.258 52.4001 139.274 52.3112C139.1 52.2287 138.912 52.1581 138.71 52.0979C138.66 52.083 138.609 52.0686 138.557 52.0547Z" fill="#222D65"/>
<path d="M131.828 52.3269C131.862 52.1316 132.002 51.972 132.19 51.8915C132.276 51.8547 132.37 51.8343 132.471 51.8343H136.545C137.028 51.8343 137.479 51.8627 137.89 51.9223C138.007 51.9392 138.121 51.9586 138.233 51.9805C138.344 52.0028 138.452 52.0277 138.557 52.055C138.609 52.0689 138.66 52.0834 138.711 52.0978C138.913 52.1579 139.101 52.229 139.274 52.311C139.478 51.1444 139.273 50.3501 138.569 49.6308C137.794 48.839 136.395 48.5 134.604 48.5H129.405C129.039 48.5 128.727 48.7386 128.671 49.0632L126.506 61.373C126.463 61.6166 126.672 61.8363 126.946 61.8363H130.156L130.961 57.2509L131.828 52.3269Z" fill="#253B80"/>
<path d="M163.23 54.8384H161.003C161.003 54.4666 160.96 54.2172 160.875 54.0901C160.742 53.9022 160.377 53.8081 159.778 53.8081C159.197 53.8081 158.812 53.8622 158.624 53.9705C158.436 54.0793 158.341 54.3156 158.341 54.6794C158.341 55.0088 158.425 55.2259 158.592 55.3297C158.711 55.4036 158.87 55.4469 159.066 55.4598L159.516 55.4921C160.478 55.557 161.079 55.6028 161.319 55.6289C162.08 55.7069 162.632 55.9128 162.974 56.2465C163.243 56.5069 163.404 56.8472 163.455 57.2673C163.485 57.5186 163.5 57.8032 163.5 58.1192C163.5 58.8477 163.432 59.381 163.295 59.719C163.047 60.3394 162.49 60.7312 161.624 60.8957C161.26 60.9653 160.705 61 159.958 61C158.711 61 157.842 60.9246 157.351 60.7727C156.749 60.5869 156.352 60.2101 156.16 59.643C156.053 59.3272 156 58.8012 156 58.0649H158.227C158.227 58.147 158.227 58.2099 158.227 58.2532C158.227 58.6461 158.338 58.8985 158.559 59.0112C158.713 59.0887 158.898 59.1294 159.116 59.1344H159.935C160.352 59.1344 160.619 59.1126 160.734 59.0689C160.939 58.9871 161.073 58.8552 161.137 58.6728C161.171 58.5603 161.188 58.4152 161.188 58.2372C161.188 57.839 161.045 57.5966 160.76 57.5096C160.653 57.4753 160.157 57.4273 159.271 57.3668C158.559 57.3151 158.064 57.2653 157.788 57.2171C157.059 57.0784 156.573 56.7929 156.33 56.3598C156.117 55.9919 156.011 55.435 156.011 54.69C156.011 54.1228 156.068 53.6679 156.184 53.3258C156.299 52.9835 156.484 52.7238 156.741 52.546C157.116 52.2731 157.596 52.1131 158.181 52.0653C158.667 52.022 159.207 52 159.801 52C160.735 52 161.401 52.0547 161.798 52.1631C162.767 52.428 163.252 53.1699 163.252 54.389C163.252 54.489 163.244 54.6385 163.23 54.8384Z" fill="#10298E"/>
<path d="M175.5 61V52H178.974H179.519H179.941C180.55 52 181.015 52.0504 181.334 52.1515C182.064 52.384 182.554 52.8603 182.806 53.5798C182.935 53.9575 183 54.5262 183 55.2855C183 56.1985 182.928 56.8544 182.786 57.254C182.501 58.0438 181.915 58.4989 181.029 58.6167C180.925 58.6345 180.482 58.6502 179.7 58.663L179.305 58.6763H177.884V61H175.5ZM177.884 56.5885H179.369C179.841 56.5714 180.127 56.5345 180.23 56.4769C180.371 56.3982 180.466 56.2405 180.513 56.0042C180.543 55.8469 180.558 55.6129 180.558 55.3023C180.558 54.9215 180.528 54.6393 180.468 54.4551C180.382 54.1969 180.177 54.0398 179.852 53.9826C179.787 53.974 179.633 53.9693 179.389 53.9693H177.884V56.5885Z" fill="#10298E"/>
<path d="M189.115 59.4446H185.91L185.48 61H183L185.676 52H189.291L192 61H189.572L189.115 59.4446ZM188.639 57.6913L187.516 53.79L186.426 57.6913H188.639Z" fill="#10298E"/>
<path d="M170.996 53.2037C171.997 53.2037 172.89 53.6708 173.477 54.4022L174 53.2661C173.182 52.4829 172.069 52 170.841 52C168.929 52 167.293 53.1698 166.622 54.8258H165.602L165 56.1336H166.312C166.302 56.255 166.296 56.3763 166.296 56.5002C166.296 56.65 166.303 56.7983 166.318 56.9447H165.659L165.057 58.2529H166.654C167.344 59.867 168.959 61 170.841 61C171.789 61 172.669 60.7121 173.398 60.2203V58.6169C172.811 59.2938 171.953 59.7215 170.996 59.7215C169.878 59.7215 168.894 59.1372 168.321 58.2529H171.664L172.267 56.9447H167.829C167.806 56.7872 167.794 56.6263 167.794 56.4624C167.794 56.3515 167.799 56.2419 167.81 56.1336H172.64L173.242 54.8258H168.227C168.782 53.8562 169.814 53.2037 170.996 53.2037Z" fill="#FFBE00"/>
<path d="M170.985 53.2709C171.928 53.2709 172.81 53.699 173.407 54.4449L173.446 54.4932L173.472 54.4369L173.989 53.3106L174 53.2849L173.98 53.2655C173.131 52.4494 172.012 52 170.832 52C169.91 52 169.023 52.2738 168.266 52.7917C167.528 53.2974 166.961 54.0008 166.628 54.8253L166.663 54.8012H165.655H165.631L165.62 54.8236L165.025 56.1204L165 56.1758H165.06H166.357L166.318 56.1336C166.308 56.2683 166.302 56.3879 166.302 56.5002C166.302 56.6457 166.31 56.7955 166.324 56.9447L166.363 56.902H165.711H165.687L165.677 56.9244L165.081 58.2212L165.056 58.2766H165.116H166.694L166.659 58.2531C167.37 59.9218 169.008 61 170.832 61C171.746 61 172.627 60.7308 173.38 60.2208L173.397 60.2093V60.1882V58.5987V58.4954L173.33 58.573C172.736 59.2604 171.881 59.6545 170.985 59.6545C169.931 59.6545 168.955 59.1167 168.373 58.2163L168.342 58.2766H171.646H171.67L171.68 58.2544L172.276 56.9572L172.301 56.902H172.241H167.855L167.893 56.9352C167.871 56.7781 167.859 56.6194 167.859 56.4627C167.859 56.356 167.864 56.2478 167.875 56.1407L167.837 56.1758H172.61H172.634L172.644 56.1534L173.239 54.8566L173.265 54.8012H173.205H168.249L168.282 54.8596C168.841 53.8797 169.877 53.2709 170.985 53.2709ZM168.249 54.879H173.205L173.17 54.8236L172.575 56.1204L172.61 56.098H167.837H167.802L167.798 56.1331C167.788 56.2426 167.783 56.3536 167.783 56.4627C167.783 56.6231 167.794 56.786 167.818 56.9466L167.823 56.9798H167.855H172.241L172.206 56.9244L171.611 58.2212L171.646 58.1988H168.342H168.271L168.31 58.2587C168.905 59.1818 169.905 59.7321 170.985 59.7321C171.903 59.7321 172.779 59.3286 173.388 58.6243L173.32 58.5987V60.1882L173.337 60.1561C172.597 60.6573 171.731 60.9222 170.832 60.9222C169.039 60.9222 167.428 59.8623 166.729 58.2221L166.719 58.1988H166.694H165.116L165.151 58.2544L165.746 56.9572L165.711 56.9798H166.363H166.405L166.401 56.9369C166.386 56.7904 166.379 56.6431 166.379 56.5002C166.379 56.3903 166.384 56.2724 166.395 56.14L166.398 56.098H166.357H165.06L165.095 56.1534L165.69 54.8566L165.655 54.879H166.663H166.689L166.698 54.8549C167.026 54.0446 167.583 53.3535 168.309 52.8562C169.053 52.3473 169.925 52.078 170.832 52.078C171.993 52.078 173.092 52.5197 173.927 53.3222L173.919 53.2774L173.403 54.4039L173.467 54.3957C172.855 53.6316 171.951 53.1931 170.985 53.1931C169.849 53.1931 168.789 53.8167 168.216 54.8206L168.183 54.879H168.249Z" fill="#10298E"/>
<path d="M70.4211 49.3335H53.5789C52.7069 49.3335 52 50.0404 52 50.9124V61.0879C52 61.9599 52.7069 62.6668 53.5789 62.6668H70.4211C71.2931 62.6668 72 61.9599 72 61.0879V50.9124C72 50.0404 71.2931 49.3335 70.4211 49.3335Z" fill="#353A48"/>
<path fill-rule="evenodd" clip-rule="evenodd" d="M65.0744 51C67.8169 51 70.0402 53.2067 70.0402 55.9287C70.0402 58.6508 67.8169 60.8575 65.0744 60.8575C63.8453 60.8575 62.7205 60.4143 61.8534 59.6801C60.9867 60.4141 59.8616 60.8575 58.6323 60.8575C55.8898 60.8575 53.6665 58.6508 53.6665 55.9287C53.6665 53.2067 55.8898 51 58.6323 51C59.8616 51 60.9867 51.4434 61.8539 52.1778C62.7205 51.4432 63.8453 51 65.0744 51Z" fill="#FF5E00"/>
<path fill-rule="evenodd" clip-rule="evenodd" d="M58.6323 51C59.8616 51 60.9867 51.4434 61.8539 52.1778C60.7857 53.0814 60.1086 54.4266 60.1086 55.9287C60.1086 57.4309 60.7857 58.7761 61.8534 59.6801C60.9867 60.4141 59.8616 60.8575 58.6323 60.8575C55.8898 60.8575 53.6665 58.6508 53.6665 55.9287C53.6665 53.2067 55.8898 51 58.6323 51Z" fill="#ED0006"/>
<path fill-rule="evenodd" clip-rule="evenodd" d="M65.0744 51C67.8169 51 70.0402 53.2067 70.0402 55.9287C70.0402 58.6508 67.8169 60.8575 65.0744 60.8575C63.8451 60.8575 62.7202 60.4141 61.853 59.6798C62.9215 58.7751 63.5981 57.4303 63.5981 55.9287C63.5981 54.4271 62.9215 53.0824 61.8544 52.1784C62.7202 51.4433 63.8451 51 65.0744 51Z" fill="#F9A000"/>
<path d="M71.477 26.97H75.923V27.699H74.114V33H73.286V27.699H71.477V26.97ZM79.1685 28.428C79.5885 28.428 79.9545 28.53 80.2665 28.734C80.5785 28.938 80.8155 29.229 80.9775 29.607C81.1395 29.985 81.2145 30.432 81.2025 30.948H77.7915C77.8155 31.41 77.9475 31.773 78.1875 32.037C78.4275 32.301 78.7455 32.433 79.1415 32.433C79.7055 32.433 80.1105 32.181 80.3565 31.677L81.0315 31.947C80.8515 32.331 80.5995 32.622 80.2755 32.82C79.9515 33.018 79.5735 33.117 79.1415 33.117C78.7575 33.117 78.4005 33.021 78.0705 32.829C77.7465 32.631 77.4885 32.355 77.2965 32.001C77.1045 31.647 77.0085 31.242 77.0085 30.786C77.0085 30.324 77.1045 29.913 77.2965 29.553C77.4945 29.193 77.7555 28.917 78.0795 28.725C78.4095 28.527 78.7725 28.428 79.1685 28.428ZM79.1775 29.103C78.8115 29.103 78.5085 29.217 78.2685 29.445C78.0285 29.673 77.8755 29.985 77.8095 30.381H80.4195C80.3775 29.979 80.2455 29.667 80.0235 29.445C79.8015 29.217 79.5195 29.103 79.1775 29.103ZM84.574 33.117C84.004 33.117 83.527 33.003 83.143 32.775C82.759 32.547 82.54 32.223 82.486 31.803L83.251 31.632C83.287 31.902 83.428 32.112 83.674 32.262C83.926 32.412 84.244 32.487 84.628 32.487C84.982 32.487 85.258 32.427 85.456 32.307C85.654 32.181 85.753 32.013 85.753 31.803C85.753 31.641 85.696 31.515 85.582 31.425C85.468 31.335 85.327 31.269 85.159 31.227C84.997 31.185 84.763 31.14 84.457 31.092C84.073 31.032 83.758 30.969 83.512 30.903C83.272 30.831 83.065 30.711 82.891 30.543C82.723 30.369 82.639 30.126 82.639 29.814C82.639 29.388 82.804 29.052 83.134 28.806C83.464 28.554 83.905 28.428 84.457 28.428C84.985 28.428 85.42 28.542 85.762 28.77C86.104 28.998 86.32 29.298 86.41 29.67L85.699 29.832C85.639 29.592 85.498 29.403 85.276 29.265C85.054 29.121 84.769 29.049 84.421 29.049C84.103 29.049 83.854 29.109 83.674 29.229C83.494 29.349 83.404 29.511 83.404 29.715C83.404 29.889 83.461 30.024 83.575 30.12C83.695 30.216 83.839 30.288 84.007 30.336C84.181 30.378 84.424 30.426 84.736 30.48C85.114 30.54 85.42 30.606 85.654 30.678C85.888 30.75 86.086 30.87 86.248 31.038C86.416 31.2 86.5 31.431 86.5 31.731C86.5 32.157 86.323 32.496 85.969 32.748C85.621 32.994 85.156 33.117 84.574 33.117ZM92.1575 32.604C91.9535 32.79 91.7495 32.922 91.5455 33C91.3415 33.078 91.1195 33.117 90.8795 33.117C90.3215 33.117 89.8745 32.976 89.5385 32.694C89.2085 32.406 89.0435 32.022 89.0435 31.542V29.193H87.6665V28.536H89.0435V26.97H89.8265V28.536H91.8785V29.193H89.8265V31.551C89.8265 31.815 89.9195 32.025 90.1055 32.181C90.2975 32.331 90.5525 32.406 90.8705 32.406C91.2305 32.406 91.5455 32.28 91.8155 32.028L92.1575 32.604ZM101.024 28.437C101.378 28.437 101.705 28.536 102.005 28.734C102.305 28.926 102.542 29.199 102.716 29.553C102.896 29.907 102.986 30.315 102.986 30.777C102.986 31.233 102.896 31.638 102.716 31.992C102.542 32.346 102.305 32.622 102.005 32.82C101.705 33.012 101.378 33.108 101.024 33.108C100.688 33.108 100.397 33.036 100.151 32.892C99.9054 32.748 99.7104 32.538 99.5664 32.262V34.8H98.7834V28.536H99.5664V29.283C99.7104 29.013 99.9054 28.806 100.151 28.662C100.403 28.512 100.694 28.437 101.024 28.437ZM100.853 32.424C101.261 32.424 101.585 32.277 101.825 31.983C102.071 31.683 102.194 31.281 102.194 30.777C102.194 30.267 102.071 29.862 101.825 29.562C101.585 29.256 101.261 29.103 100.853 29.103C100.445 29.103 100.121 29.253 99.8814 29.553C99.6414 29.853 99.5214 30.261 99.5214 30.777C99.5214 31.281 99.6414 31.683 99.8814 31.983C100.121 32.277 100.445 32.424 100.853 32.424ZM107.195 28.536H107.978V33H107.195V32.262C107.051 32.538 106.856 32.748 106.61 32.892C106.364 33.036 106.073 33.108 105.737 33.108C105.383 33.108 105.056 33.012 104.756 32.82C104.456 32.622 104.216 32.346 104.036 31.992C103.862 31.638 103.775 31.233 103.775 30.777C103.775 30.315 103.862 29.907 104.036 29.553C104.216 29.199 104.456 28.926 104.756 28.734C105.056 28.536 105.383 28.437 105.737 28.437C106.067 28.437 106.355 28.512 106.601 28.662C106.853 28.806 107.051 29.013 107.195 29.283V28.536ZM105.908 32.424C106.316 32.424 106.64 32.277 106.88 31.983C107.12 31.683 107.24 31.281 107.24 30.777C107.24 30.261 107.12 29.853 106.88 29.553C106.64 29.253 106.316 29.103 105.908 29.103C105.5 29.103 105.173 29.256 104.927 29.562C104.687 29.862 104.567 30.267 104.567 30.777C104.567 31.281 104.687 31.683 104.927 31.983C105.173 32.277 105.5 32.424 105.908 32.424ZM111.493 32.136L112.942 28.536H113.779L111.097 34.8H110.242L111.088 33.045L109.171 28.536H110.008L111.493 32.136ZM118.141 28.428C118.747 28.428 119.05 28.899 119.05 29.841V33H118.312V30.012C118.312 29.7 118.273 29.475 118.195 29.337C118.117 29.193 117.994 29.121 117.826 29.121C117.658 29.121 117.526 29.196 117.43 29.346C117.34 29.49 117.295 29.712 117.295 30.012V33H116.548V30.012C116.548 29.7 116.503 29.475 116.413 29.337C116.329 29.193 116.197 29.121 116.017 29.121C115.633 29.121 115.441 29.418 115.441 30.012V33H114.694V28.536H115.432V29.085C115.618 28.647 115.924 28.428 116.35 28.428C116.56 28.428 116.737 28.485 116.881 28.599C117.025 28.713 117.13 28.872 117.196 29.076C117.28 28.872 117.403 28.713 117.565 28.599C117.733 28.485 117.925 28.428 118.141 28.428ZM122.34 28.428C122.76 28.428 123.126 28.53 123.438 28.734C123.75 28.938 123.987 29.229 124.149 29.607C124.311 29.985 124.386 30.432 124.374 30.948H120.963C120.987 31.41 121.119 31.773 121.359 32.037C121.599 32.301 121.917 32.433 122.313 32.433C122.877 32.433 123.282 32.181 123.528 31.677L124.203 31.947C124.023 32.331 123.771 32.622 123.447 32.82C123.123 33.018 122.745 33.117 122.313 33.117C121.929 33.117 121.572 33.021 121.242 32.829C120.918 32.631 120.66 32.355 120.468 32.001C120.276 31.647 120.18 31.242 120.18 30.786C120.18 30.324 120.276 29.913 120.468 29.553C120.666 29.193 120.927 28.917 121.251 28.725C121.581 28.527 121.944 28.428 122.34 28.428ZM122.349 29.103C121.983 29.103 121.68 29.217 121.44 29.445C121.2 29.673 121.047 29.985 120.981 30.381H123.591C123.549 29.979 123.417 29.667 123.195 29.445C122.973 29.217 122.691 29.103 122.349 29.103ZM127.971 28.428C128.481 28.428 128.877 28.593 129.159 28.923C129.441 29.247 129.582 29.709 129.582 30.309V33H128.799V30.345C128.799 29.961 128.709 29.667 128.529 29.463C128.349 29.253 128.097 29.148 127.773 29.148C127.395 29.148 127.095 29.271 126.873 29.517C126.657 29.757 126.549 30.132 126.549 30.642V33H125.766V28.536H126.549V29.202C126.693 28.944 126.885 28.752 127.125 28.626C127.371 28.494 127.653 28.428 127.971 28.428ZM135.329 32.604C135.125 32.79 134.921 32.922 134.717 33C134.513 33.078 134.291 33.117 134.051 33.117C133.493 33.117 133.046 32.976 132.71 32.694C132.38 32.406 132.215 32.022 132.215 31.542V29.193H130.838V28.536H132.215V26.97H132.998V28.536H135.05V29.193H132.998V31.551C132.998 31.815 133.091 32.025 133.277 32.181C133.469 32.331 133.724 32.406 134.042 32.406C134.402 32.406 134.717 32.28 134.987 32.028L135.329 32.604ZM138.539 33.117C137.969 33.117 137.492 33.003 137.108 32.775C136.724 32.547 136.505 32.223 136.451 31.803L137.216 31.632C137.252 31.902 137.393 32.112 137.639 32.262C137.891 32.412 138.209 32.487 138.593 32.487C138.947 32.487 139.223 32.427 139.421 32.307C139.619 32.181 139.718 32.013 139.718 31.803C139.718 31.641 139.661 31.515 139.547 31.425C139.433 31.335 139.292 31.269 139.124 31.227C138.962 31.185 138.728 31.14 138.422 31.092C138.038 31.032 137.723 30.969 137.477 30.903C137.237 30.831 137.03 30.711 136.856 30.543C136.688 30.369 136.604 30.126 136.604 29.814C136.604 29.388 136.769 29.052 137.099 28.806C137.429 28.554 137.87 28.428 138.422 28.428C138.95 28.428 139.385 28.542 139.727 28.77C140.069 28.998 140.285 29.298 140.375 29.67L139.664 29.832C139.604 29.592 139.463 29.403 139.241 29.265C139.019 29.121 138.734 29.049 138.386 29.049C138.068 29.049 137.819 29.109 137.639 29.229C137.459 29.349 137.369 29.511 137.369 29.715C137.369 29.889 137.426 30.024 137.54 30.12C137.66 30.216 137.804 30.288 137.972 30.336C138.146 30.378 138.389 30.426 138.701 30.48C139.079 30.54 139.385 30.606 139.619 30.678C139.853 30.75 140.051 30.87 140.213 31.038C140.381 31.2 140.465 31.431 140.465 31.731C140.465 32.157 140.288 32.496 139.934 32.748C139.586 32.994 139.121 33.117 138.539 33.117ZM151.699 32.604L151.222 33.126L150.484 32.406C150.256 32.652 150.007 32.832 149.737 32.946C149.467 33.06 149.164 33.117 148.828 33.117C148.27 33.117 147.823 32.97 147.487 32.676C147.151 32.382 146.983 31.983 146.983 31.479C146.983 31.125 147.067 30.816 147.235 30.552C147.409 30.282 147.646 30.066 147.946 29.904C147.73 29.64 147.571 29.391 147.469 29.157C147.367 28.917 147.316 28.665 147.316 28.401C147.316 27.933 147.463 27.558 147.757 27.276C148.051 26.994 148.435 26.853 148.909 26.853C149.233 26.853 149.512 26.919 149.746 27.051C149.986 27.177 150.166 27.351 150.286 27.573C150.412 27.789 150.475 28.029 150.475 28.293C150.475 28.995 149.995 29.577 149.035 30.039L149.125 30.12L150.376 31.326C150.544 31.026 150.709 30.651 150.871 30.201L151.501 30.453C151.315 31.011 151.114 31.47 150.898 31.83L151.699 32.604ZM148.909 27.501C148.663 27.501 148.465 27.585 148.315 27.753C148.165 27.915 148.09 28.134 148.09 28.41C148.09 28.608 148.132 28.803 148.216 28.995C148.306 29.181 148.441 29.379 148.621 29.589C148.981 29.409 149.254 29.217 149.44 29.013C149.626 28.803 149.719 28.572 149.719 28.32C149.719 28.092 149.647 27.9 149.503 27.744C149.359 27.582 149.161 27.501 148.909 27.501ZM148.855 32.46C149.299 32.46 149.674 32.28 149.98 31.92L148.531 30.525L148.396 30.39C148.192 30.504 148.036 30.651 147.928 30.831C147.82 31.011 147.766 31.215 147.766 31.443C147.766 31.761 147.862 32.01 148.054 32.19C148.252 32.37 148.519 32.46 148.855 32.46ZM161.313 28.428C161.919 28.428 162.222 28.899 162.222 29.841V33H161.484V30.012C161.484 29.7 161.445 29.475 161.367 29.337C161.289 29.193 161.166 29.121 160.998 29.121C160.83 29.121 160.698 29.196 160.602 29.346C160.512 29.49 160.467 29.712 160.467 30.012V33H159.72V30.012C159.72 29.7 159.675 29.475 159.585 29.337C159.501 29.193 159.369 29.121 159.189 29.121C158.805 29.121 158.613 29.418 158.613 30.012V33H157.866V28.536H158.604V29.085C158.79 28.647 159.096 28.428 159.522 28.428C159.732 28.428 159.909 28.485 160.053 28.599C160.197 28.713 160.302 28.872 160.368 29.076C160.452 28.872 160.575 28.713 160.737 28.599C160.905 28.485 161.097 28.428 161.313 28.428ZM165.449 33.108C165.059 33.108 164.702 33.009 164.378 32.811C164.06 32.613 163.808 32.337 163.622 31.983C163.442 31.623 163.352 31.218 163.352 30.768C163.352 30.324 163.445 29.925 163.631 29.571C163.817 29.217 164.069 28.941 164.387 28.743C164.705 28.539 165.059 28.437 165.449 28.437C165.833 28.437 166.184 28.539 166.502 28.743C166.82 28.941 167.069 29.217 167.249 29.571C167.435 29.925 167.528 30.324 167.528 30.768C167.528 31.212 167.435 31.614 167.249 31.974C167.069 32.328 166.82 32.607 166.502 32.811C166.184 33.009 165.833 33.108 165.449 33.108ZM165.449 32.424C165.851 32.424 166.169 32.277 166.403 31.983C166.643 31.683 166.763 31.278 166.763 30.768C166.763 30.27 166.643 29.871 166.403 29.571C166.169 29.271 165.851 29.121 165.449 29.121C165.041 29.121 164.717 29.271 164.477 29.571C164.237 29.871 164.117 30.27 164.117 30.768C164.117 31.278 164.234 31.683 164.468 31.983C164.708 32.277 165.035 32.424 165.449 32.424ZM171.404 28.455C171.788 28.455 172.124 28.554 172.412 28.752C172.7 28.95 172.904 29.28 173.024 29.742L172.385 30.084C172.289 29.742 172.148 29.499 171.962 29.355C171.782 29.211 171.551 29.139 171.269 29.139C170.843 29.139 170.51 29.286 170.27 29.58C170.036 29.874 169.919 30.246 169.919 30.696V33H169.136V28.536H169.919V29.427C170.051 29.103 170.243 28.86 170.495 28.698C170.747 28.536 171.05 28.455 171.404 28.455ZM176.305 28.428C176.725 28.428 177.091 28.53 177.403 28.734C177.715 28.938 177.952 29.229 178.114 29.607C178.276 29.985 178.351 30.432 178.339 30.948H174.928C174.952 31.41 175.084 31.773 175.324 32.037C175.564 32.301 175.882 32.433 176.278 32.433C176.842 32.433 177.247 32.181 177.493 31.677L178.168 31.947C177.988 32.331 177.736 32.622 177.412 32.82C177.088 33.018 176.71 33.117 176.278 33.117C175.894 33.117 175.537 33.021 175.207 32.829C174.883 32.631 174.625 32.355 174.433 32.001C174.241 31.647 174.145 31.242 174.145 30.786C174.145 30.324 174.241 29.913 174.433 29.553C174.631 29.193 174.892 28.917 175.216 28.725C175.546 28.527 175.909 28.428 176.305 28.428ZM176.314 29.103C175.948 29.103 175.645 29.217 175.405 29.445C175.165 29.673 175.012 29.985 174.946 30.381H177.556C177.514 29.979 177.382 29.667 177.16 29.445C176.938 29.217 176.656 29.103 176.314 29.103Z" fill="white"/>
</svg>
