<svg width="250" height="92" viewBox="0 0 250 92" fill="none" xmlns="http://www.w3.org/2000/svg">
<path d="M61.801 33V26.97H63.421C63.937 26.97 64.375 27.102 64.735 27.366C65.101 27.624 65.374 27.981 65.554 28.437C65.74 28.887 65.833 29.403 65.833 29.985C65.833 30.561 65.74 31.077 65.554 31.533C65.374 31.989 65.101 32.349 64.735 32.613C64.375 32.871 63.937 33 63.421 33H61.801ZM63.403 32.271C64.471 32.271 65.005 31.509 65.005 29.985C65.005 29.217 64.873 28.644 64.609 28.266C64.345 27.888 63.943 27.699 63.403 27.699H62.62V32.271H63.403ZM69.1685 28.428C69.5885 28.428 69.9545 28.53 70.2665 28.734C70.5785 28.938 70.8155 29.229 70.9775 29.607C71.1395 29.985 71.2145 30.432 71.2025 30.948H67.7915C67.8155 31.41 67.9475 31.773 68.1875 32.037C68.4275 32.301 68.7455 32.433 69.1415 32.433C69.7055 32.433 70.1105 32.181 70.3565 31.677L71.0315 31.947C70.8515 32.331 70.5995 32.622 70.2755 32.82C69.9515 33.018 69.5735 33.117 69.1415 33.117C68.7575 33.117 68.4005 33.021 68.0705 32.829C67.7465 32.631 67.4885 32.355 67.2965 32.001C67.1045 31.647 67.0085 31.242 67.0085 30.786C67.0085 30.324 67.1045 29.913 67.2965 29.553C67.4945 29.193 67.7555 28.917 68.0795 28.725C68.4095 28.527 68.7725 28.428 69.1685 28.428ZM69.1775 29.103C68.8115 29.103 68.5085 29.217 68.2685 29.445C68.0285 29.673 67.8755 29.985 67.8095 30.381H70.4195C70.3775 29.979 70.2455 29.667 70.0235 29.445C69.8015 29.217 69.5195 29.103 69.1775 29.103ZM75.762 28.428C76.368 28.428 76.671 28.899 76.671 29.841V33H75.933V30.012C75.933 29.7 75.894 29.475 75.816 29.337C75.738 29.193 75.615 29.121 75.447 29.121C75.279 29.121 75.147 29.196 75.051 29.346C74.961 29.49 74.916 29.712 74.916 30.012V33H74.169V30.012C74.169 29.7 74.124 29.475 74.034 29.337C73.95 29.193 73.818 29.121 73.638 29.121C73.254 29.121 73.062 29.418 73.062 30.012V33H72.315V28.536H73.053V29.085C73.239 28.647 73.545 28.428 73.971 28.428C74.181 28.428 74.358 28.485 74.502 28.599C74.646 28.713 74.751 28.872 74.817 29.076C74.901 28.872 75.024 28.713 75.186 28.599C75.354 28.485 75.546 28.428 75.762 28.428ZM79.8985 33.108C79.5085 33.108 79.1515 33.009 78.8275 32.811C78.5095 32.613 78.2575 32.337 78.0715 31.983C77.8915 31.623 77.8015 31.218 77.8015 30.768C77.8015 30.324 77.8945 29.925 78.0805 29.571C78.2665 29.217 78.5185 28.941 78.8365 28.743C79.1545 28.539 79.5085 28.437 79.8985 28.437C80.2825 28.437 80.6335 28.539 80.9515 28.743C81.2695 28.941 81.5185 29.217 81.6985 29.571C81.8845 29.925 81.9775 30.324 81.9775 30.768C81.9775 31.212 81.8845 31.614 81.6985 31.974C81.5185 32.328 81.2695 32.607 80.9515 32.811C80.6335 33.009 80.2825 33.108 79.8985 33.108ZM79.8985 32.424C80.3005 32.424 80.6185 32.277 80.8525 31.983C81.0925 31.683 81.2125 31.278 81.2125 30.768C81.2125 30.27 81.0925 29.871 80.8525 29.571C80.6185 29.271 80.3005 29.121 79.8985 29.121C79.4905 29.121 79.1665 29.271 78.9265 29.571C78.6865 29.871 78.5665 30.27 78.5665 30.768C78.5665 31.278 78.6835 31.683 78.9175 31.983C79.1575 32.277 79.4845 32.424 79.8985 32.424ZM91.0244 28.437C91.3784 28.437 91.7054 28.536 92.0054 28.734C92.3054 28.926 92.5424 29.199 92.7164 29.553C92.8964 29.907 92.9864 30.315 92.9864 30.777C92.9864 31.233 92.8964 31.638 92.7164 31.992C92.5424 32.346 92.3054 32.622 92.0054 32.82C91.7054 33.012 91.3784 33.108 91.0244 33.108C90.6884 33.108 90.3974 33.036 90.1514 32.892C89.9054 32.748 89.7104 32.538 89.5664 32.262V34.8H88.7834V28.536H89.5664V29.283C89.7104 29.013 89.9054 28.806 90.1514 28.662C90.4034 28.512 90.6944 28.437 91.0244 28.437ZM90.8534 32.424C91.2614 32.424 91.5854 32.277 91.8254 31.983C92.0714 31.683 92.1944 31.281 92.1944 30.777C92.1944 30.267 92.0714 29.862 91.8254 29.562C91.5854 29.256 91.2614 29.103 90.8534 29.103C90.4454 29.103 90.1214 29.253 89.8814 29.553C89.6414 29.853 89.5214 30.261 89.5214 30.777C89.5214 31.281 89.6414 31.683 89.8814 31.983C90.1214 32.277 90.4454 32.424 90.8534 32.424ZM97.1949 28.536H97.9779V33H97.1949V32.262C97.0509 32.538 96.8559 32.748 96.6099 32.892C96.3639 33.036 96.0729 33.108 95.7369 33.108C95.3829 33.108 95.0559 33.012 94.7559 32.82C94.4559 32.622 94.2159 32.346 94.0359 31.992C93.8619 31.638 93.7749 31.233 93.7749 30.777C93.7749 30.315 93.8619 29.907 94.0359 29.553C94.2159 29.199 94.4559 28.926 94.7559 28.734C95.0559 28.536 95.3829 28.437 95.7369 28.437C96.0669 28.437 96.3549 28.512 96.6009 28.662C96.8529 28.806 97.0509 29.013 97.1949 29.283V28.536ZM95.9079 32.424C96.3159 32.424 96.6399 32.277 96.8799 31.983C97.1199 31.683 97.2399 31.281 97.2399 30.777C97.2399 30.261 97.1199 29.853 96.8799 29.553C96.6399 29.253 96.3159 29.103 95.9079 29.103C95.4999 29.103 95.1729 29.256 94.9269 29.562C94.6869 29.862 94.5669 30.267 94.5669 30.777C94.5669 31.281 94.6869 31.683 94.9269 31.983C95.1729 32.277 95.4999 32.424 95.9079 32.424ZM101.493 32.136L102.942 28.536H103.779L101.097 34.8H100.242L101.088 33.045L99.1714 28.536H100.008L101.493 32.136ZM108.141 28.428C108.747 28.428 109.05 28.899 109.05 29.841V33H108.312V30.012C108.312 29.7 108.273 29.475 108.195 29.337C108.117 29.193 107.994 29.121 107.826 29.121C107.658 29.121 107.526 29.196 107.43 29.346C107.34 29.49 107.295 29.712 107.295 30.012V33H106.548V30.012C106.548 29.7 106.503 29.475 106.413 29.337C106.329 29.193 106.197 29.121 106.017 29.121C105.633 29.121 105.441 29.418 105.441 30.012V33H104.694V28.536H105.432V29.085C105.618 28.647 105.924 28.428 106.35 28.428C106.56 28.428 106.737 28.485 106.881 28.599C107.025 28.713 107.13 28.872 107.196 29.076C107.28 28.872 107.403 28.713 107.565 28.599C107.733 28.485 107.925 28.428 108.141 28.428ZM112.34 28.428C112.76 28.428 113.126 28.53 113.438 28.734C113.75 28.938 113.987 29.229 114.149 29.607C114.311 29.985 114.386 30.432 114.374 30.948H110.963C110.987 31.41 111.119 31.773 111.359 32.037C111.599 32.301 111.917 32.433 112.313 32.433C112.877 32.433 113.282 32.181 113.528 31.677L114.203 31.947C114.023 32.331 113.771 32.622 113.447 32.82C113.123 33.018 112.745 33.117 112.313 33.117C111.929 33.117 111.572 33.021 111.242 32.829C110.918 32.631 110.66 32.355 110.468 32.001C110.276 31.647 110.18 31.242 110.18 30.786C110.18 30.324 110.276 29.913 110.468 29.553C110.666 29.193 110.927 28.917 111.251 28.725C111.581 28.527 111.944 28.428 112.34 28.428ZM112.349 29.103C111.983 29.103 111.68 29.217 111.44 29.445C111.2 29.673 111.047 29.985 110.981 30.381H113.591C113.549 29.979 113.417 29.667 113.195 29.445C112.973 29.217 112.691 29.103 112.349 29.103ZM117.971 28.428C118.481 28.428 118.877 28.593 119.159 28.923C119.441 29.247 119.582 29.709 119.582 30.309V33H118.799V30.345C118.799 29.961 118.709 29.667 118.529 29.463C118.349 29.253 118.097 29.148 117.773 29.148C117.395 29.148 117.095 29.271 116.873 29.517C116.657 29.757 116.549 30.132 116.549 30.642V33H115.766V28.536H116.549V29.202C116.693 28.944 116.885 28.752 117.125 28.626C117.371 28.494 117.653 28.428 117.971 28.428ZM125.329 32.604C125.125 32.79 124.921 32.922 124.717 33C124.513 33.078 124.291 33.117 124.051 33.117C123.493 33.117 123.046 32.976 122.71 32.694C122.38 32.406 122.215 32.022 122.215 31.542V29.193H120.838V28.536H122.215V26.97H122.998V28.536H125.05V29.193H122.998V31.551C122.998 31.815 123.091 32.025 123.277 32.181C123.469 32.331 123.724 32.406 124.042 32.406C124.402 32.406 124.717 32.28 124.987 32.028L125.329 32.604ZM134.484 28.536V32.352H136.167V33H131.91V32.352H133.692V29.193H132.099V28.536H134.484ZM134.079 26.718C134.241 26.718 134.373 26.772 134.475 26.88C134.583 26.982 134.637 27.108 134.637 27.258C134.637 27.414 134.583 27.543 134.475 27.645C134.373 27.747 134.241 27.798 134.079 27.798C133.917 27.798 133.785 27.747 133.683 27.645C133.581 27.543 133.53 27.414 133.53 27.258C133.53 27.108 133.581 26.982 133.683 26.88C133.791 26.772 133.923 26.718 134.079 26.718ZM139.557 28.428C140.067 28.428 140.463 28.593 140.745 28.923C141.027 29.247 141.168 29.709 141.168 30.309V33H140.385V30.345C140.385 29.961 140.295 29.667 140.115 29.463C139.935 29.253 139.683 29.148 139.359 29.148C138.981 29.148 138.681 29.271 138.459 29.517C138.243 29.757 138.135 30.132 138.135 30.642V33H137.352V28.536H138.135V29.202C138.279 28.944 138.471 28.752 138.711 28.626C138.957 28.494 139.239 28.428 139.557 28.428ZM145.763 26.943C145.469 26.943 145.235 27.036 145.061 27.222C144.887 27.408 144.8 27.66 144.8 27.978V28.536H146.636V29.193H144.8V33H144.008V29.193H142.478V28.536H144.008V27.996C144.008 27.468 144.167 27.045 144.485 26.727C144.803 26.409 145.226 26.25 145.754 26.25C146.096 26.25 146.396 26.313 146.654 26.439C146.918 26.565 147.119 26.742 147.257 26.97L146.636 27.402C146.558 27.258 146.444 27.147 146.294 27.069C146.144 26.985 145.967 26.943 145.763 26.943ZM150.053 33.108C149.663 33.108 149.306 33.009 148.982 32.811C148.664 32.613 148.412 32.337 148.226 31.983C148.046 31.623 147.956 31.218 147.956 30.768C147.956 30.324 148.049 29.925 148.235 29.571C148.421 29.217 148.673 28.941 148.991 28.743C149.309 28.539 149.663 28.437 150.053 28.437C150.437 28.437 150.788 28.539 151.106 28.743C151.424 28.941 151.673 29.217 151.853 29.571C152.039 29.925 152.132 30.324 152.132 30.768C152.132 31.212 152.039 31.614 151.853 31.974C151.673 32.328 151.424 32.607 151.106 32.811C150.788 33.009 150.437 33.108 150.053 33.108ZM150.053 32.424C150.455 32.424 150.773 32.277 151.007 31.983C151.247 31.683 151.367 31.278 151.367 30.768C151.367 30.27 151.247 29.871 151.007 29.571C150.773 29.271 150.455 29.121 150.053 29.121C149.645 29.121 149.321 29.271 149.081 29.571C148.841 29.871 148.721 30.27 148.721 30.768C148.721 31.278 148.838 31.683 149.072 31.983C149.312 32.277 149.639 32.424 150.053 32.424ZM156.007 28.455C156.391 28.455 156.727 28.554 157.015 28.752C157.303 28.95 157.507 29.28 157.627 29.742L156.988 30.084C156.892 29.742 156.751 29.499 156.565 29.355C156.385 29.211 156.154 29.139 155.872 29.139C155.446 29.139 155.113 29.286 154.873 29.58C154.639 29.874 154.522 30.246 154.522 30.696V33H153.739V28.536H154.522V29.427C154.654 29.103 154.846 28.86 155.098 28.698C155.35 28.536 155.653 28.455 156.007 28.455ZM162.106 28.428C162.712 28.428 163.015 28.899 163.015 29.841V33H162.277V30.012C162.277 29.7 162.238 29.475 162.16 29.337C162.082 29.193 161.959 29.121 161.791 29.121C161.623 29.121 161.491 29.196 161.395 29.346C161.305 29.49 161.26 29.712 161.26 30.012V33H160.513V30.012C160.513 29.7 160.468 29.475 160.378 29.337C160.294 29.193 160.162 29.121 159.982 29.121C159.598 29.121 159.406 29.418 159.406 30.012V33H158.659V28.536H159.397V29.085C159.583 28.647 159.889 28.428 160.315 28.428C160.525 28.428 160.702 28.485 160.846 28.599C160.99 28.713 161.095 28.872 161.161 29.076C161.245 28.872 161.368 28.713 161.53 28.599C161.698 28.485 161.89 28.428 162.106 28.428ZM167.349 28.536H168.132V33H167.349V32.262C167.205 32.538 167.01 32.748 166.764 32.892C166.518 33.036 166.227 33.108 165.891 33.108C165.537 33.108 165.21 33.012 164.91 32.82C164.61 32.622 164.37 32.346 164.19 31.992C164.016 31.638 163.929 31.233 163.929 30.777C163.929 30.315 164.016 29.907 164.19 29.553C164.37 29.199 164.61 28.926 164.91 28.734C165.21 28.536 165.537 28.437 165.891 28.437C166.221 28.437 166.509 28.512 166.755 28.662C167.007 28.806 167.205 29.013 167.349 29.283V28.536ZM166.062 32.424C166.47 32.424 166.794 32.277 167.034 31.983C167.274 31.683 167.394 31.281 167.394 30.777C167.394 30.261 167.274 29.853 167.034 29.553C166.794 29.253 166.47 29.103 166.062 29.103C165.654 29.103 165.327 29.256 165.081 29.562C164.841 29.862 164.721 30.267 164.721 30.777C164.721 31.281 164.841 31.683 165.081 31.983C165.327 32.277 165.654 32.424 166.062 32.424ZM173.898 32.604C173.694 32.79 173.49 32.922 173.286 33C173.082 33.078 172.86 33.117 172.62 33.117C172.062 33.117 171.615 32.976 171.279 32.694C170.949 32.406 170.784 32.022 170.784 31.542V29.193H169.407V28.536H170.784V26.97H171.567V28.536H173.619V29.193H171.567V31.551C171.567 31.815 171.66 32.025 171.846 32.181C172.038 32.331 172.293 32.406 172.611 32.406C172.971 32.406 173.286 32.28 173.556 32.028L173.898 32.604ZM177.656 28.536V32.352H179.339V33H175.082V32.352H176.864V29.193H175.271V28.536H177.656ZM177.251 26.718C177.413 26.718 177.545 26.772 177.647 26.88C177.755 26.982 177.809 27.108 177.809 27.258C177.809 27.414 177.755 27.543 177.647 27.645C177.545 27.747 177.413 27.798 177.251 27.798C177.089 27.798 176.957 27.747 176.855 27.645C176.753 27.543 176.702 27.414 176.702 27.258C176.702 27.108 176.753 26.982 176.855 26.88C176.963 26.772 177.095 26.718 177.251 26.718ZM182.432 33.108C182.042 33.108 181.685 33.009 181.361 32.811C181.043 32.613 180.791 32.337 180.605 31.983C180.425 31.623 180.335 31.218 180.335 30.768C180.335 30.324 180.428 29.925 180.614 29.571C180.8 29.217 181.052 28.941 181.37 28.743C181.688 28.539 182.042 28.437 182.432 28.437C182.816 28.437 183.167 28.539 183.485 28.743C183.803 28.941 184.052 29.217 184.232 29.571C184.418 29.925 184.511 30.324 184.511 30.768C184.511 31.212 184.418 31.614 184.232 31.974C184.052 32.328 183.803 32.607 183.485 32.811C183.167 33.009 182.816 33.108 182.432 33.108ZM182.432 32.424C182.834 32.424 183.152 32.277 183.386 31.983C183.626 31.683 183.746 31.278 183.746 30.768C183.746 30.27 183.626 29.871 183.386 29.571C183.152 29.271 182.834 29.121 182.432 29.121C182.024 29.121 181.7 29.271 181.46 29.571C181.22 29.871 181.1 30.27 181.1 30.768C181.1 31.278 181.217 31.683 181.451 31.983C181.691 32.277 182.018 32.424 182.432 32.424ZM188.125 28.428C188.635 28.428 189.031 28.593 189.313 28.923C189.595 29.247 189.736 29.709 189.736 30.309V33H188.953V30.345C188.953 29.961 188.863 29.667 188.683 29.463C188.503 29.253 188.251 29.148 187.927 29.148C187.549 29.148 187.249 29.271 187.027 29.517C186.811 29.757 186.703 30.132 186.703 30.642V33H185.92V28.536H186.703V29.202C186.847 28.944 187.039 28.752 187.279 28.626C187.525 28.494 187.807 28.428 188.125 28.428Z" fill="black" fill-opacity="0.4"/>
<path fill-rule="evenodd" clip-rule="evenodd" d="M87 50.9154C87 50.0417 87.7474 49.3335 88.6654 49.3335H106.335C107.254 49.3335 108 50.0409 108 50.9154V61.085C108 61.9586 107.253 62.6668 106.335 62.6668H88.6654C87.7456 62.6668 87 61.9594 87 61.085V50.9154Z" fill="#224DBA"/>
<path fill-rule="evenodd" clip-rule="evenodd" d="M92.4689 59.2879H90.8787L89.6862 54.7626C89.6296 54.5544 89.5094 54.3704 89.3327 54.2836C88.8915 54.0657 88.4053 53.8922 87.875 53.8047V53.6305H90.4368C90.7903 53.6305 91.0555 53.8922 91.0997 54.1961L91.7184 57.4604L93.3079 53.6305H94.8539L92.4689 59.2879ZM95.7378 59.2879H94.236L95.4726 53.6305H96.9745L95.7378 59.2879ZM98.9175 55.1978C98.9617 54.893 99.2269 54.7188 99.5363 54.7188C100.022 54.6751 100.552 54.7626 100.994 54.9798L101.259 53.7617C100.817 53.5875 100.331 53.5 99.8898 53.5C98.4322 53.5 97.3715 54.2836 97.3715 55.3712C97.3715 56.1986 98.1228 56.633 98.6531 56.8948C99.2269 57.1557 99.4479 57.3299 99.4037 57.5909C99.4037 57.9823 98.9617 58.1566 98.5205 58.1566C97.9902 58.1566 97.4599 58.0261 96.9745 57.8081L96.7093 59.0269C97.2397 59.2442 97.8134 59.3316 98.3438 59.3316C99.9782 59.3746 100.994 58.5918 100.994 57.4167C100.994 55.9369 98.9175 55.8502 98.9175 55.1978ZM106.25 59.2879L105.058 53.6305H103.777C103.511 53.6305 103.246 53.8047 103.158 54.0657L100.95 59.2879H102.496L102.804 58.4613H104.704L104.881 59.2879H106.25ZM103.998 55.154L104.439 57.2862H103.202L103.998 55.154Z" fill="white"/>
<path d="M139.274 52.311C139.258 52.4 139.24 52.491 139.22 52.5844C138.535 55.7413 136.189 56.8319 133.194 56.8319H131.669C131.302 56.8319 130.994 57.0704 130.937 57.3945L130.156 61.8363L129.934 63.0954C129.897 63.3081 130.08 63.5 130.32 63.5H133.025C133.345 63.5 133.617 63.2912 133.668 63.0079L133.694 62.8846L134.204 59.9857L134.236 59.8267C134.286 59.5424 134.559 59.3336 134.879 59.3336H135.284C137.905 59.3336 139.957 58.3792 140.556 55.6175C140.807 54.4638 140.677 53.5005 140.014 52.823C139.814 52.6187 139.565 52.4492 139.274 52.311Z" fill="#179BD7"/>
<path d="M138.557 52.0547C138.452 52.0273 138.344 52.0025 138.233 51.9801C138.121 51.9583 138.007 51.9389 137.89 51.922C137.479 51.8623 137.028 51.834 136.545 51.834H132.471C132.37 51.834 132.275 51.8544 132.19 51.8911C132.002 51.9722 131.862 52.1317 131.828 52.3271L130.961 57.251L130.937 57.3947C130.994 57.0706 131.302 56.832 131.669 56.832H133.194C136.189 56.832 138.535 55.7409 139.22 52.5846C139.241 52.4911 139.258 52.4001 139.274 52.3112C139.1 52.2287 138.912 52.1581 138.71 52.0979C138.66 52.083 138.609 52.0686 138.557 52.0547Z" fill="#222D65"/>
<path d="M131.828 52.3269C131.862 52.1316 132.002 51.972 132.19 51.8915C132.276 51.8547 132.37 51.8343 132.471 51.8343H136.545C137.028 51.8343 137.479 51.8627 137.89 51.9223C138.007 51.9392 138.121 51.9586 138.233 51.9805C138.344 52.0028 138.452 52.0277 138.557 52.055C138.609 52.0689 138.66 52.0834 138.711 52.0978C138.913 52.1579 139.101 52.229 139.274 52.311C139.478 51.1444 139.273 50.3501 138.569 49.6308C137.794 48.839 136.395 48.5 134.604 48.5H129.405C129.039 48.5 128.727 48.7386 128.671 49.0632L126.506 61.373C126.463 61.6166 126.672 61.8363 126.946 61.8363H130.156L130.961 57.2509L131.828 52.3269Z" fill="#253B80"/>
<path d="M163.23 54.8384H161.003C161.003 54.4666 160.96 54.2172 160.875 54.0901C160.742 53.9022 160.377 53.8081 159.778 53.8081C159.197 53.8081 158.812 53.8622 158.624 53.9705C158.436 54.0793 158.341 54.3156 158.341 54.6794C158.341 55.0088 158.425 55.2259 158.592 55.3297C158.711 55.4036 158.87 55.4469 159.066 55.4598L159.516 55.4921C160.478 55.557 161.079 55.6028 161.319 55.6289C162.08 55.7069 162.632 55.9128 162.974 56.2465C163.243 56.5069 163.404 56.8472 163.455 57.2673C163.485 57.5186 163.5 57.8032 163.5 58.1192C163.5 58.8477 163.432 59.381 163.295 59.719C163.047 60.3394 162.49 60.7312 161.624 60.8957C161.26 60.9653 160.705 61 159.958 61C158.711 61 157.842 60.9246 157.351 60.7727C156.749 60.5869 156.352 60.2101 156.16 59.643C156.053 59.3272 156 58.8012 156 58.0649H158.227C158.227 58.147 158.227 58.2099 158.227 58.2532C158.227 58.6461 158.338 58.8985 158.559 59.0112C158.713 59.0887 158.898 59.1294 159.116 59.1344H159.935C160.352 59.1344 160.619 59.1126 160.734 59.0689C160.939 58.9871 161.073 58.8552 161.137 58.6728C161.171 58.5603 161.188 58.4152 161.188 58.2372C161.188 57.839 161.045 57.5966 160.76 57.5096C160.653 57.4753 160.157 57.4273 159.271 57.3668C158.559 57.3151 158.064 57.2653 157.788 57.2171C157.059 57.0784 156.573 56.7929 156.33 56.3598C156.117 55.9919 156.011 55.435 156.011 54.69C156.011 54.1228 156.068 53.6679 156.184 53.3258C156.299 52.9835 156.484 52.7238 156.741 52.546C157.116 52.2731 157.596 52.1131 158.181 52.0653C158.667 52.022 159.207 52 159.801 52C160.735 52 161.401 52.0547 161.798 52.1631C162.767 52.428 163.252 53.1699 163.252 54.389C163.252 54.489 163.244 54.6385 163.23 54.8384Z" fill="#10298E"/>
<path d="M175.5 61V52H178.974H179.519H179.941C180.55 52 181.015 52.0504 181.334 52.1515C182.064 52.384 182.554 52.8603 182.806 53.5798C182.935 53.9575 183 54.5262 183 55.2855C183 56.1985 182.928 56.8544 182.786 57.254C182.501 58.0438 181.915 58.4989 181.029 58.6167C180.925 58.6345 180.482 58.6502 179.7 58.663L179.305 58.6763H177.884V61H175.5ZM177.884 56.5885H179.369C179.841 56.5714 180.127 56.5345 180.23 56.4769C180.371 56.3982 180.466 56.2405 180.513 56.0042C180.543 55.8469 180.558 55.6129 180.558 55.3023C180.558 54.9215 180.528 54.6393 180.468 54.4551C180.382 54.1969 180.177 54.0398 179.852 53.9826C179.787 53.974 179.633 53.9693 179.389 53.9693H177.884V56.5885Z" fill="#10298E"/>
<path d="M189.115 59.4446H185.91L185.48 61H183L185.676 52H189.291L192 61H189.572L189.115 59.4446ZM188.639 57.6913L187.516 53.79L186.426 57.6913H188.639Z" fill="#10298E"/>
<path d="M170.996 53.2037C171.997 53.2037 172.89 53.6708 173.477 54.4022L174 53.2661C173.182 52.4829 172.069 52 170.841 52C168.929 52 167.293 53.1698 166.622 54.8258H165.602L165 56.1336H166.312C166.302 56.255 166.296 56.3763 166.296 56.5002C166.296 56.65 166.303 56.7983 166.318 56.9447H165.659L165.057 58.2529H166.654C167.344 59.867 168.959 61 170.841 61C171.789 61 172.669 60.7121 173.398 60.2203V58.6169C172.811 59.2938 171.953 59.7215 170.996 59.7215C169.878 59.7215 168.894 59.1372 168.321 58.2529H171.664L172.267 56.9447H167.829C167.806 56.7872 167.794 56.6263 167.794 56.4624C167.794 56.3515 167.799 56.2419 167.81 56.1336H172.64L173.242 54.8258H168.227C168.782 53.8562 169.814 53.2037 170.996 53.2037Z" fill="#FFBE00"/>
<path d="M170.985 53.2709C171.928 53.2709 172.81 53.699 173.407 54.4449L173.446 54.4932L173.472 54.4369L173.989 53.3106L174 53.2849L173.98 53.2655C173.131 52.4494 172.012 52 170.832 52C169.91 52 169.023 52.2738 168.266 52.7917C167.528 53.2974 166.961 54.0008 166.628 54.8253L166.663 54.8012H165.655H165.631L165.62 54.8236L165.025 56.1204L165 56.1758H165.06H166.357L166.318 56.1336C166.308 56.2683 166.302 56.3879 166.302 56.5002C166.302 56.6457 166.31 56.7955 166.324 56.9447L166.363 56.902H165.711H165.687L165.677 56.9244L165.081 58.2212L165.056 58.2766H165.116H166.694L166.659 58.2531C167.37 59.9218 169.008 61 170.832 61C171.746 61 172.627 60.7308 173.38 60.2208L173.397 60.2093V60.1882V58.5987V58.4954L173.33 58.573C172.736 59.2604 171.881 59.6545 170.985 59.6545C169.931 59.6545 168.955 59.1167 168.373 58.2163L168.342 58.2766H171.646H171.67L171.68 58.2544L172.276 56.9572L172.301 56.902H172.241H167.855L167.893 56.9352C167.871 56.7781 167.859 56.6194 167.859 56.4627C167.859 56.356 167.864 56.2478 167.875 56.1407L167.837 56.1758H172.61H172.634L172.644 56.1534L173.239 54.8566L173.265 54.8012H173.205H168.249L168.282 54.8596C168.841 53.8797 169.877 53.2709 170.985 53.2709ZM168.249 54.879H173.205L173.17 54.8236L172.575 56.1204L172.61 56.098H167.837H167.802L167.798 56.1331C167.788 56.2426 167.783 56.3536 167.783 56.4627C167.783 56.6231 167.794 56.786 167.818 56.9466L167.823 56.9798H167.855H172.241L172.206 56.9244L171.611 58.2212L171.646 58.1988H168.342H168.271L168.31 58.2587C168.905 59.1818 169.905 59.7321 170.985 59.7321C171.903 59.7321 172.779 59.3286 173.388 58.6243L173.32 58.5987V60.1882L173.337 60.1561C172.597 60.6573 171.731 60.9222 170.832 60.9222C169.039 60.9222 167.428 59.8623 166.729 58.2221L166.719 58.1988H166.694H165.116L165.151 58.2544L165.746 56.9572L165.711 56.9798H166.363H166.405L166.401 56.9369C166.386 56.7904 166.379 56.6431 166.379 56.5002C166.379 56.3903 166.384 56.2724 166.395 56.14L166.398 56.098H166.357H165.06L165.095 56.1534L165.69 54.8566L165.655 54.879H166.663H166.689L166.698 54.8549C167.026 54.0446 167.583 53.3535 168.309 52.8562C169.053 52.3473 169.925 52.078 170.832 52.078C171.993 52.078 173.092 52.5197 173.927 53.3222L173.919 53.2774L173.403 54.4039L173.467 54.3957C172.855 53.6316 171.951 53.1931 170.985 53.1931C169.849 53.1931 168.789 53.8167 168.216 54.8206L168.183 54.879H168.249Z" fill="#10298E"/>
<path d="M70.4211 49.3335H53.5789C52.7069 49.3335 52 50.0404 52 50.9124V61.0879C52 61.9599 52.7069 62.6668 53.5789 62.6668H70.4211C71.2931 62.6668 72 61.9599 72 61.0879V50.9124C72 50.0404 71.2931 49.3335 70.4211 49.3335Z" fill="#353A48"/>
<path fill-rule="evenodd" clip-rule="evenodd" d="M65.0744 51C67.8169 51 70.0402 53.2067 70.0402 55.9287C70.0402 58.6508 67.8169 60.8575 65.0744 60.8575C63.8453 60.8575 62.7205 60.4143 61.8534 59.6801C60.9867 60.4141 59.8616 60.8575 58.6323 60.8575C55.8898 60.8575 53.6665 58.6508 53.6665 55.9287C53.6665 53.2067 55.8898 51 58.6323 51C59.8616 51 60.9867 51.4434 61.8539 52.1778C62.7205 51.4432 63.8453 51 65.0744 51Z" fill="#FF5E00"/>
<path fill-rule="evenodd" clip-rule="evenodd" d="M58.6323 51C59.8616 51 60.9867 51.4434 61.8539 52.1778C60.7857 53.0814 60.1086 54.4266 60.1086 55.9287C60.1086 57.4309 60.7857 58.7761 61.8534 59.6801C60.9867 60.4141 59.8616 60.8575 58.6323 60.8575C55.8898 60.8575 53.6665 58.6508 53.6665 55.9287C53.6665 53.2067 55.8898 51 58.6323 51Z" fill="#ED0006"/>
<path fill-rule="evenodd" clip-rule="evenodd" d="M65.0744 51C67.8169 51 70.0402 53.2067 70.0402 55.9287C70.0402 58.6508 67.8169 60.8575 65.0744 60.8575C63.8451 60.8575 62.7202 60.4141 61.853 59.6798C62.9215 58.7751 63.5981 57.4303 63.5981 55.9287C63.5981 54.4271 62.9215 53.0824 61.8544 52.1784C62.7202 51.4433 63.8451 51 65.0744 51Z" fill="#F9A000"/>
</svg>
