<svg width="248" height="60" viewBox="0 0 248 60" fill="none" xmlns="http://www.w3.org/2000/svg">
<g clip-path="url(#clip0_5314_14063)">
<rect x="84" y="28" width="1" height="1" transform="rotate(-180 84 28)" fill="#D9D9D9"/>
<path d="M76.3333 38.3335L79.5625 38.3335L79.5625 36.6668L81.4375 36.6668L81.4375 35.0002L82.1667 35.0002L83 35.0002L83 28.3335L81.3333 28.3335L81.3333 27.5002L80.5 27.5002L75.8125 27.5002L74.5625 27.5002L74.5625 28.3335L73.625 28.3335L73 28.3335L73 35.0002L74.5625 35.0002L74.5625 36.6668L76.3333 36.6668L76.3333 38.3335Z" fill="url(#paint0_linear_5314_14063)"/>
<path d="M79.5625 25.0002L81.3333 25.0002L81.3333 26.6668L74.6667 26.6668L74.6667 25.0002L76.4375 25.0002L77.0625 25.0002L77.0625 23.3335L78.9375 23.3335L78.9375 25.0002L79.5625 25.0002Z" fill="url(#paint1_linear_5314_14063)"/>
<rect x="84.6665" y="35" width="1.66667" height="1.66667" transform="rotate(-180 84.6665 35)" fill="#41464A"/>
<rect x="86.3335" y="36.667" width="1.66667" height="1.66667" transform="rotate(-180 86.3335 36.667)" fill="#41464A"/>
<rect x="88" y="38.3335" width="1.66667" height="1.66667" transform="rotate(-180 88 38.3335)" fill="#41464A"/>
<rect x="84.6665" y="30" width="1.66667" height="1.66667" transform="rotate(-180 84.6665 30)" fill="#41464A"/>
<rect x="81.3335" y="25" width="1.66667" height="1.66667" transform="rotate(-180 81.3335 25)" fill="#41464A"/>
<rect x="83" y="23.3335" width="1.66667" height="1.66667" transform="rotate(-180 83 23.3335)" fill="#41464A"/>
<rect x="74.6665" y="23.3335" width="1.66667" height="1.66667" transform="rotate(-180 74.6665 23.3335)" fill="#41464A"/>
<rect x="76.3335" y="25" width="1.66667" height="1.66667" transform="rotate(-180 76.3335 25)" fill="#41464A"/>
<rect x="86.3335" y="28.3335" width="1.66667" height="1.66667" transform="rotate(-180 86.3335 28.3335)" fill="#41464A"/>
<rect x="88" y="26.667" width="1.66667" height="1.66667" transform="rotate(-180 88 26.667)" fill="#41464A"/>
<rect x="73" y="35" width="1.66667" height="1.66667" transform="rotate(-180 73 35)" fill="#41464A"/>
<rect x="73" y="30" width="1.66667" height="1.66667" transform="rotate(-180 73 30)" fill="#41464A"/>
<rect x="71.3335" y="36.667" width="1.66667" height="1.66667" transform="rotate(-180 71.3335 36.667)" fill="#41464A"/>
<rect x="71.3335" y="28.3335" width="1.66667" height="1.66667" transform="rotate(-180 71.3335 28.3335)" fill="#41464A"/>
<rect x="69.6665" y="38.3335" width="1.66667" height="1.66667" transform="rotate(-180 69.6665 38.3335)" fill="#41464A"/>
<rect x="69.6665" y="26.667" width="1.66667" height="1.66667" transform="rotate(-180 69.6665 26.667)" fill="#41464A"/>
</g>
<path d="M100.858 28.5455C100.815 28.1856 100.643 27.9062 100.339 27.7074C100.036 27.5085 99.6648 27.4091 99.2244 27.4091C98.9025 27.4091 98.6207 27.4612 98.3793 27.5653C98.1402 27.6695 97.9531 27.8127 97.8182 27.995C97.6856 28.1773 97.6193 28.3845 97.6193 28.6165C97.6193 28.8106 97.6655 28.9775 97.7578 29.1172C97.8525 29.2545 97.9732 29.3693 98.12 29.4616C98.2668 29.5516 98.4207 29.6262 98.5817 29.6854C98.7427 29.7422 98.8906 29.7884 99.0256 29.8239L99.7642 30.0227C99.9536 30.0724 100.164 30.1411 100.396 30.2287C100.631 30.3163 100.854 30.4358 101.067 30.5874C101.283 30.7365 101.46 30.9283 101.6 31.1626C101.74 31.397 101.81 31.6847 101.81 32.0256C101.81 32.4186 101.707 32.7737 101.501 33.0909C101.297 33.4081 100.999 33.6603 100.606 33.8473C100.215 34.0343 99.7405 34.1278 99.1818 34.1278C98.661 34.1278 98.21 34.0438 97.8288 33.8757C97.45 33.7076 97.1518 33.4732 96.9339 33.1726C96.7185 32.8719 96.5966 32.5227 96.5682 32.125H97.4773C97.5009 32.3996 97.5933 32.6269 97.7543 32.8068C97.9176 32.9844 98.1236 33.117 98.3722 33.2045C98.6231 33.2898 98.893 33.3324 99.1818 33.3324C99.518 33.3324 99.8198 33.2779 100.087 33.169C100.355 33.0578 100.567 32.9039 100.723 32.7074C100.879 32.5085 100.957 32.2765 100.957 32.0114C100.957 31.7699 100.89 31.5734 100.755 31.4219C100.62 31.2704 100.442 31.1473 100.222 31.0526C100.002 30.9579 99.7642 30.875 99.5085 30.804L98.6136 30.5483C98.0455 30.3849 97.5956 30.1518 97.2642 29.8487C96.9328 29.5457 96.767 29.1491 96.767 28.6591C96.767 28.2519 96.8771 27.8968 97.0973 27.5938C97.3198 27.2884 97.6181 27.0516 97.9922 26.8835C98.3686 26.7131 98.7888 26.6278 99.2528 26.6278C99.7216 26.6278 100.138 26.7119 100.503 26.88C100.867 27.0457 101.156 27.273 101.369 27.5618C101.585 27.8506 101.698 28.1785 101.71 28.5455H100.858ZM105.516 28.5455V29.2557H102.689V28.5455H105.516ZM103.513 27.2386H104.351V32.4375C104.351 32.6742 104.386 32.8518 104.454 32.9702C104.525 33.0862 104.615 33.1643 104.724 33.2045C104.836 33.2424 104.953 33.2614 105.076 33.2614C105.168 33.2614 105.244 33.2566 105.303 33.2472C105.362 33.2353 105.41 33.2259 105.445 33.2188L105.616 33.9716C105.559 33.9929 105.479 34.0142 105.378 34.0355C105.276 34.0592 105.147 34.071 104.991 34.071C104.754 34.071 104.522 34.0201 104.295 33.9183C104.07 33.8165 103.883 33.6615 103.733 33.4531C103.587 33.2448 103.513 32.982 103.513 32.6648V27.2386ZM108.382 34.1278C108.036 34.1278 107.723 34.0627 107.441 33.9325C107.159 33.8 106.935 33.6094 106.77 33.3608C106.604 33.1098 106.521 32.8068 106.521 32.4517C106.521 32.1392 106.583 31.8859 106.706 31.6918C106.829 31.4953 106.993 31.3414 107.199 31.2301C107.405 31.1188 107.633 31.036 107.881 30.9815C108.132 30.9247 108.384 30.8797 108.638 30.8466C108.969 30.804 109.238 30.772 109.444 30.7507C109.652 30.727 109.804 30.688 109.898 30.6335C109.995 30.5791 110.044 30.4844 110.044 30.3494V30.321C110.044 29.9706 109.948 29.6984 109.756 29.5043C109.567 29.3101 109.279 29.2131 108.893 29.2131C108.493 29.2131 108.18 29.3007 107.952 29.4759C107.725 29.651 107.565 29.8381 107.473 30.0369L106.677 29.7528C106.819 29.4214 107.009 29.1634 107.246 28.9787C107.485 28.7917 107.745 28.6615 108.027 28.5881C108.311 28.5123 108.59 28.4744 108.865 28.4744C109.04 28.4744 109.241 28.4957 109.469 28.5384C109.698 28.5786 109.92 28.6626 110.133 28.7905C110.348 28.9183 110.527 29.1113 110.669 29.3693C110.811 29.6274 110.882 29.973 110.882 30.4062V34H110.044V33.2614H110.001C109.944 33.3797 109.85 33.5064 109.717 33.6413C109.585 33.7763 109.408 33.8911 109.188 33.9858C108.968 34.0805 108.699 34.1278 108.382 34.1278ZM108.51 33.375C108.841 33.375 109.121 33.3099 109.348 33.1797C109.577 33.0495 109.75 32.8814 109.866 32.6754C109.985 32.4695 110.044 32.2528 110.044 32.0256V31.2585C110.008 31.3011 109.93 31.3402 109.809 31.3757C109.691 31.4089 109.554 31.4384 109.398 31.4645C109.244 31.4882 109.093 31.5095 108.947 31.5284C108.802 31.545 108.685 31.5592 108.595 31.571C108.377 31.5994 108.174 31.6456 107.984 31.7095C107.797 31.7711 107.646 31.8646 107.53 31.9901C107.416 32.1132 107.359 32.2812 107.359 32.4943C107.359 32.7855 107.467 33.0057 107.682 33.1548C107.9 33.3016 108.176 33.375 108.51 33.375ZM112.412 34V28.5455H113.221V29.3693H113.278C113.377 29.0994 113.557 28.8804 113.818 28.7124C114.078 28.5443 114.372 28.4602 114.699 28.4602C114.76 28.4602 114.837 28.4614 114.929 28.4638C115.022 28.4661 115.092 28.4697 115.139 28.4744V29.3267C115.11 29.3196 115.045 29.3089 114.944 29.2947C114.844 29.2782 114.739 29.2699 114.627 29.2699C114.362 29.2699 114.126 29.3255 113.917 29.4368C113.711 29.5457 113.548 29.6972 113.427 29.8913C113.309 30.0831 113.25 30.3021 113.25 30.5483V34H112.412ZM118.846 28.5455V29.2557H116.02V28.5455H118.846ZM116.843 27.2386H117.681V32.4375C117.681 32.6742 117.716 32.8518 117.784 32.9702C117.855 33.0862 117.945 33.1643 118.054 33.2045C118.166 33.2424 118.283 33.2614 118.406 33.2614C118.498 33.2614 118.574 33.2566 118.633 33.2472C118.692 33.2353 118.74 33.2259 118.775 33.2188L118.946 33.9716C118.889 33.9929 118.81 34.0142 118.708 34.0355C118.606 34.0592 118.477 34.071 118.321 34.071C118.084 34.071 117.852 34.0201 117.625 33.9183C117.4 33.8165 117.213 33.6615 117.064 33.4531C116.917 33.2448 116.843 32.982 116.843 32.6648V27.2386ZM124.979 34.1136C124.525 34.1136 124.123 33.9988 123.775 33.7692C123.427 33.5372 123.155 33.2105 122.958 32.7891C122.762 32.3653 122.664 31.8646 122.664 31.2869C122.664 30.714 122.762 30.2169 122.958 29.7955C123.155 29.3741 123.428 29.0485 123.779 28.8189C124.129 28.5893 124.534 28.4744 124.993 28.4744C125.348 28.4744 125.629 28.5336 125.835 28.652C126.043 28.768 126.202 28.9006 126.311 29.0497C126.422 29.1965 126.508 29.3172 126.57 29.4119H126.641V26.7273H127.479V34H126.669V33.1619H126.57C126.508 33.2614 126.421 33.3868 126.307 33.5384C126.194 33.6875 126.031 33.8213 125.821 33.9396C125.61 34.0556 125.329 34.1136 124.979 34.1136ZM125.093 33.3608C125.429 33.3608 125.713 33.2732 125.945 33.098C126.177 32.9205 126.353 32.6754 126.474 32.3629C126.595 32.0481 126.655 31.6847 126.655 31.2727C126.655 30.8655 126.596 30.5092 126.478 30.2038C126.359 29.8961 126.184 29.657 125.952 29.4865C125.72 29.3137 125.434 29.2273 125.093 29.2273C124.738 29.2273 124.442 29.3184 124.205 29.5007C123.971 29.6806 123.794 29.9257 123.676 30.2358C123.56 30.5436 123.502 30.8892 123.502 31.2727C123.502 31.661 123.561 32.0137 123.679 32.331C123.8 32.6458 123.978 32.8968 124.212 33.0838C124.449 33.2685 124.742 33.3608 125.093 33.3608ZM131.417 34.1136C130.892 34.1136 130.438 33.9976 130.057 33.7656C129.678 33.5312 129.386 33.2045 129.18 32.7855C128.976 32.3641 128.875 31.8741 128.875 31.3153C128.875 30.7566 128.976 30.2642 129.18 29.8381C129.386 29.4096 129.672 29.0758 130.039 28.8366C130.409 28.5952 130.84 28.4744 131.332 28.4744C131.616 28.4744 131.897 28.5218 132.174 28.6165C132.451 28.7112 132.703 28.8651 132.93 29.0781C133.157 29.2888 133.338 29.5682 133.473 29.9162C133.608 30.2642 133.676 30.6927 133.676 31.2017V31.5568H129.471V30.8324H132.824C132.824 30.5246 132.762 30.25 132.639 30.0085C132.518 29.767 132.345 29.5765 132.12 29.4368C131.898 29.2971 131.635 29.2273 131.332 29.2273C130.998 29.2273 130.709 29.3101 130.466 29.4759C130.224 29.6392 130.038 29.8523 129.908 30.1151C129.778 30.3778 129.713 30.6596 129.713 30.9602V31.4432C129.713 31.8551 129.784 32.2043 129.926 32.4908C130.07 32.7749 130.27 32.9915 130.526 33.1406C130.782 33.2874 131.079 33.3608 131.417 33.3608C131.637 33.3608 131.836 33.33 132.014 33.2685C132.194 33.2045 132.349 33.1098 132.479 32.9844C132.609 32.8565 132.71 32.6979 132.781 32.5085L133.591 32.7358C133.505 33.0104 133.362 33.2519 133.161 33.4602C132.96 33.6662 132.711 33.8272 132.415 33.9432C132.119 34.0568 131.787 34.1136 131.417 34.1136ZM134.951 34V28.5455H135.76V29.3977H135.831C135.945 29.1065 136.128 28.8804 136.382 28.7195C136.635 28.5561 136.939 28.4744 137.294 28.4744C137.654 28.4744 137.954 28.5561 138.193 28.7195C138.434 28.8804 138.623 29.1065 138.757 29.3977H138.814C138.954 29.116 139.163 28.8923 139.443 28.7266C139.722 28.5585 140.057 28.4744 140.448 28.4744C140.935 28.4744 141.334 28.6271 141.645 28.9325C141.955 29.2356 142.11 29.7079 142.11 30.3494V34H141.272V30.3494C141.272 29.947 141.162 29.6593 140.941 29.4865C140.721 29.3137 140.462 29.2273 140.164 29.2273C139.78 29.2273 139.483 29.3433 139.272 29.5753C139.062 29.8049 138.956 30.0961 138.956 30.4489V34H138.104V30.2642C138.104 29.9541 138.003 29.7043 137.802 29.5149C137.601 29.3232 137.342 29.2273 137.025 29.2273C136.807 29.2273 136.603 29.2853 136.414 29.4013C136.227 29.5173 136.075 29.6783 135.959 29.8842C135.846 30.0878 135.789 30.3234 135.789 30.5909V34H134.951ZM145.858 34.1136C145.366 34.1136 144.933 33.9964 144.562 33.7621C144.192 33.5277 143.904 33.1998 143.695 32.7784C143.489 32.357 143.386 31.8646 143.386 31.3011C143.386 30.733 143.489 30.237 143.695 29.8132C143.904 29.3894 144.192 29.0604 144.562 28.826C144.933 28.5916 145.366 28.4744 145.858 28.4744C146.35 28.4744 146.781 28.5916 147.151 28.826C147.522 29.0604 147.811 29.3894 148.017 29.8132C148.225 30.237 148.33 30.733 148.33 31.3011C148.33 31.8646 148.225 32.357 148.017 32.7784C147.811 33.1998 147.522 33.5277 147.151 33.7621C146.781 33.9964 146.35 34.1136 145.858 34.1136ZM145.858 33.3608C146.232 33.3608 146.54 33.2649 146.781 33.0732C147.023 32.8814 147.201 32.6293 147.317 32.3168C147.433 32.0043 147.491 31.6657 147.491 31.3011C147.491 30.9366 147.433 30.5968 147.317 30.282C147.201 29.9671 147.023 29.7126 146.781 29.5185C146.54 29.3243 146.232 29.2273 145.858 29.2273C145.484 29.2273 145.176 29.3243 144.935 29.5185C144.693 29.7126 144.514 29.9671 144.398 30.282C144.282 30.5968 144.224 30.9366 144.224 31.3011C144.224 31.6657 144.282 32.0043 144.398 32.3168C144.514 32.6293 144.693 32.8814 144.935 33.0732C145.176 33.2649 145.484 33.3608 145.858 33.3608Z" fill="black"/>
<path fill-rule="evenodd" clip-rule="evenodd" d="M162.333 34.0002C162.333 33.8135 162.407 33.6468 162.527 33.5268L166.06 30.0002L162.527 26.4735C162.407 26.3535 162.333 26.1868 162.333 26.0002C162.333 25.6335 162.633 25.3335 163 25.3335C163.187 25.3335 163.353 25.4068 163.473 25.5268L167.473 29.5268C167.593 29.6468 167.667 29.8135 167.667 30.0002C167.667 30.1868 167.593 30.3535 167.473 30.4735L163.473 34.4735C163.353 34.5935 163.187 34.6668 163 34.6668C162.633 34.6668 162.333 34.3668 162.333 34.0002Z" fill="#A0A0A0"/>
<defs>
<linearGradient id="paint0_linear_5314_14063" x1="83" y1="27.01" x2="71.1486" y2="32.1677" gradientUnits="userSpaceOnUse">
<stop offset="0.13" stop-color="#0BEBE9"/>
<stop offset="0.2296" stop-color="#0DD9EB"/>
<stop offset="0.4306" stop-color="#12A8F1"/>
<stop offset="0.7121" stop-color="#1B5CFA"/>
<stop offset="0.87" stop-color="#202EFF"/>
</linearGradient>
<linearGradient id="paint1_linear_5314_14063" x1="83" y1="27.01" x2="71.1486" y2="32.1677" gradientUnits="userSpaceOnUse">
<stop offset="0.13" stop-color="#0BEBE9"/>
<stop offset="0.2296" stop-color="#0DD9EB"/>
<stop offset="0.4306" stop-color="#12A8F1"/>
<stop offset="0.7121" stop-color="#1B5CFA"/>
<stop offset="0.87" stop-color="#202EFF"/>
</linearGradient>
<clipPath id="clip0_5314_14063">
<rect width="20" height="20" fill="white" transform="translate(88 40) rotate(-180)"/>
</clipPath>
</defs>
</svg>
