<svg width="210" height="32" viewBox="0 0 210 32" fill="none" xmlns="http://www.w3.org/2000/svg">
<g clip-path="url(#clip0_5519_13617)">
<rect x="24" y="14" width="1" height="1" transform="rotate(-180 24 14)" fill="#D9D9D9"/>
<path d="M16.3333 24.3333L19.5625 24.3333L19.5625 22.6666L21.4375 22.6666L21.4375 20.9999L22.1667 20.9999L23 20.9999L23 14.3333L21.3333 14.3333L21.3333 13.4999L20.5 13.4999L15.8125 13.4999L14.5625 13.4999L14.5625 14.3333L13.625 14.3333L13 14.3333L13 20.9999L14.5625 20.9999L14.5625 22.6666L16.3333 22.6666L16.3333 24.3333Z" fill="url(#paint0_linear_5519_13617)"/>
<path d="M19.5625 10.9999L21.3333 10.9999L21.3333 12.6666L14.6667 12.6666L14.6667 10.9999L16.4375 10.9999L17.0625 10.9999L17.0625 9.33325L18.9375 9.33325L18.9375 10.9999L19.5625 10.9999Z" fill="url(#paint1_linear_5519_13617)"/>
<rect x="24.6665" y="21" width="1.66667" height="1.66667" transform="rotate(-180 24.6665 21)" fill="#41464A"/>
<rect x="26.3335" y="22.6665" width="1.66667" height="1.66667" transform="rotate(-180 26.3335 22.6665)" fill="#41464A"/>
<rect x="28" y="24.3333" width="1.66667" height="1.66667" transform="rotate(-180 28 24.3333)" fill="#41464A"/>
<rect x="24.6665" y="16" width="1.66667" height="1.66667" transform="rotate(-180 24.6665 16)" fill="#41464A"/>
<rect x="21.3335" y="11" width="1.66667" height="1.66667" transform="rotate(-180 21.3335 11)" fill="#41464A"/>
<rect x="23" y="9.33325" width="1.66667" height="1.66667" transform="rotate(-180 23 9.33325)" fill="#41464A"/>
<rect x="14.6665" y="9.33325" width="1.66667" height="1.66667" transform="rotate(-180 14.6665 9.33325)" fill="#41464A"/>
<rect x="16.3335" y="11" width="1.66667" height="1.66667" transform="rotate(-180 16.3335 11)" fill="#41464A"/>
<rect x="26.3335" y="14.3333" width="1.66667" height="1.66667" transform="rotate(-180 26.3335 14.3333)" fill="#41464A"/>
<rect x="28" y="12.6665" width="1.66667" height="1.66667" transform="rotate(-180 28 12.6665)" fill="#41464A"/>
<rect x="13" y="21" width="1.66667" height="1.66667" transform="rotate(-180 13 21)" fill="#41464A"/>
<rect x="13" y="16" width="1.66667" height="1.66667" transform="rotate(-180 13 16)" fill="#41464A"/>
<rect x="11.3335" y="22.6665" width="1.66667" height="1.66667" transform="rotate(-180 11.3335 22.6665)" fill="#41464A"/>
<rect x="11.3335" y="14.3333" width="1.66667" height="1.66667" transform="rotate(-180 11.3335 14.3333)" fill="#41464A"/>
<rect x="9.6665" y="24.3333" width="1.66667" height="1.66667" transform="rotate(-180 9.6665 24.3333)" fill="#41464A"/>
<rect x="9.6665" y="12.6665" width="1.66667" height="1.66667" transform="rotate(-180 9.6665 12.6665)" fill="#41464A"/>
</g>
<path d="M40.858 14.5455C40.8153 14.1856 40.6425 13.9062 40.3395 13.7074C40.0365 13.5085 39.6648 13.4091 39.2244 13.4091C38.9025 13.4091 38.6207 13.4612 38.3793 13.5653C38.1402 13.6695 37.9531 13.8127 37.8182 13.995C37.6856 14.1773 37.6193 14.3845 37.6193 14.6165C37.6193 14.8106 37.6655 14.9775 37.7578 15.1172C37.8525 15.2545 37.9732 15.3693 38.12 15.4616C38.2668 15.5516 38.4207 15.6262 38.5817 15.6854C38.7427 15.7422 38.8906 15.7884 39.0256 15.8239L39.7642 16.0227C39.9536 16.0724 40.1643 16.1411 40.3963 16.2287C40.6307 16.3163 40.8544 16.4358 41.0675 16.5874C41.2829 16.7365 41.4605 16.9283 41.6001 17.1626C41.7398 17.397 41.8097 17.6847 41.8097 18.0256C41.8097 18.4186 41.7067 18.7737 41.5007 19.0909C41.2971 19.4081 40.9988 19.6603 40.6058 19.8473C40.2152 20.0343 39.7405 20.1278 39.1818 20.1278C38.661 20.1278 38.21 20.0438 37.8288 19.8757C37.45 19.7076 37.1518 19.4732 36.9339 19.1726C36.7185 18.8719 36.5966 18.5227 36.5682 18.125H37.4773C37.5009 18.3996 37.5933 18.6269 37.7543 18.8068C37.9176 18.9844 38.1236 19.117 38.3722 19.2045C38.6231 19.2898 38.893 19.3324 39.1818 19.3324C39.518 19.3324 39.8198 19.2779 40.0874 19.169C40.3549 19.0578 40.5668 18.9039 40.723 18.7074C40.8793 18.5085 40.9574 18.2765 40.9574 18.0114C40.9574 17.7699 40.8899 17.5734 40.755 17.4219C40.62 17.2704 40.4425 17.1473 40.2223 17.0526C40.0021 16.9579 39.7642 16.875 39.5085 16.804L38.6136 16.5483C38.0455 16.3849 37.5956 16.1518 37.2642 15.8487C36.9328 15.5457 36.767 15.1491 36.767 14.6591C36.767 14.2519 36.8771 13.8968 37.0973 13.5938C37.3198 13.2884 37.6181 13.0516 37.9922 12.8835C38.3686 12.7131 38.7888 12.6278 39.2528 12.6278C39.7216 12.6278 40.1383 12.7119 40.5028 12.88C40.8674 13.0457 41.1563 13.273 41.3693 13.5618C41.5848 13.8506 41.6984 14.1785 41.7102 14.5455H40.858ZM45.5162 14.5455V15.2557H42.6895V14.5455H45.5162ZM43.5133 13.2386H44.3514V18.4375C44.3514 18.6742 44.3857 18.8518 44.4544 18.9702C44.5254 19.0862 44.6154 19.1643 44.7243 19.2045C44.8355 19.2424 44.9527 19.2614 45.0758 19.2614C45.1681 19.2614 45.2439 19.2566 45.3031 19.2472C45.3623 19.2353 45.4096 19.2259 45.4451 19.2188L45.6156 19.9716C45.5588 19.9929 45.4795 20.0142 45.3777 20.0355C45.2759 20.0592 45.1468 20.071 44.9906 20.071C44.7538 20.071 44.5218 20.0201 44.2946 19.9183C44.0697 19.8165 43.8826 19.6615 43.7335 19.4531C43.5867 19.2448 43.5133 18.982 43.5133 18.6648V13.2386ZM48.3819 20.1278C48.0363 20.1278 47.7226 20.0627 47.4409 19.9325C47.1592 19.8 46.9354 19.6094 46.7697 19.3608C46.604 19.1098 46.5211 18.8068 46.5211 18.4517C46.5211 18.1392 46.5827 17.8859 46.7058 17.6918C46.8289 17.4953 46.9934 17.3414 47.1994 17.2301C47.4054 17.1188 47.6326 17.036 47.8812 16.9815C48.1322 16.9247 48.3843 16.8797 48.6376 16.8466C48.969 16.804 49.2377 16.772 49.4437 16.7507C49.652 16.727 49.8036 16.688 49.8983 16.6335C49.9953 16.5791 50.0439 16.4844 50.0439 16.3494V16.321C50.0439 15.9706 49.948 15.6984 49.7562 15.5043C49.5668 15.3101 49.2792 15.2131 48.8933 15.2131C48.4932 15.2131 48.1795 15.3007 47.9522 15.4759C47.725 15.651 47.5652 15.8381 47.4728 16.0369L46.6774 15.7528C46.8194 15.4214 47.0088 15.1634 47.2456 14.9787C47.4847 14.7917 47.7451 14.6615 48.0268 14.5881C48.3109 14.5123 48.5903 14.4744 48.8649 14.4744C49.0401 14.4744 49.2413 14.4957 49.4686 14.5384C49.6982 14.5786 49.9196 14.6626 50.1326 14.7905C50.3481 14.9183 50.5268 15.1113 50.6689 15.3693C50.8109 15.6274 50.8819 15.973 50.8819 16.4062V20H50.0439V19.2614H50.0012C49.9444 19.3797 49.8497 19.5064 49.7172 19.6413C49.5846 19.7763 49.4082 19.8911 49.188 19.9858C48.9679 20.0805 48.6992 20.1278 48.3819 20.1278ZM48.5098 19.375C48.8412 19.375 49.1206 19.3099 49.3478 19.1797C49.5775 19.0495 49.7503 18.8814 49.8663 18.6754C49.9847 18.4695 50.0439 18.2528 50.0439 18.0256V17.2585C50.0083 17.3011 49.9302 17.3402 49.8095 17.3757C49.6911 17.4089 49.5538 17.4384 49.3975 17.4645C49.2437 17.4882 49.0933 17.5095 48.9466 17.5284C48.8021 17.545 48.685 17.5592 48.595 17.571C48.3772 17.5994 48.1736 17.6456 47.9842 17.7095C47.7972 17.7711 47.6457 17.8646 47.5297 17.9901C47.416 18.1132 47.3592 18.2812 47.3592 18.4943C47.3592 18.7855 47.4669 19.0057 47.6824 19.1548C47.9002 19.3016 48.176 19.375 48.5098 19.375ZM52.4116 20V14.5455H53.2212V15.3693H53.2781C53.3775 15.0994 53.5574 14.8804 53.8178 14.7124C54.0782 14.5443 54.3718 14.4602 54.6985 14.4602C54.7601 14.4602 54.837 14.4614 54.9293 14.4638C55.0217 14.4661 55.0915 14.4697 55.1388 14.4744V15.3267C55.1104 15.3196 55.0453 15.3089 54.9435 15.2947C54.8441 15.2782 54.7388 15.2699 54.6275 15.2699C54.3623 15.2699 54.1256 15.3255 53.9173 15.4368C53.7113 15.5457 53.5479 15.6972 53.4272 15.8913C53.3088 16.0831 53.2496 16.3021 53.2496 16.5483V20H52.4116ZM58.8462 14.5455V15.2557H56.0195V14.5455H58.8462ZM56.8434 13.2386H57.6815V18.4375C57.6815 18.6742 57.7158 18.8518 57.7844 18.9702C57.8555 19.0862 57.9454 19.1643 58.0543 19.2045C58.1656 19.2424 58.2828 19.2614 58.4059 19.2614C58.4982 19.2614 58.574 19.2566 58.6332 19.2472C58.6924 19.2353 58.7397 19.2259 58.7752 19.2188L58.9457 19.9716C58.8888 19.9929 58.8095 20.0142 58.7077 20.0355C58.6059 20.0592 58.4769 20.071 58.3207 20.071C58.0839 20.071 57.8519 20.0201 57.6246 19.9183C57.3997 19.8165 57.2127 19.6615 57.0636 19.4531C56.9168 19.2448 56.8434 18.982 56.8434 18.6648V13.2386ZM63.033 20V12.7273H67.4222V13.5085H63.9137V15.9659H67.195V16.7472H63.9137V19.2188H67.479V20H63.033ZM71.1119 20.1136C70.6005 20.1136 70.1602 19.9929 69.7908 19.7514C69.4215 19.5099 69.1374 19.1773 68.9386 18.7536C68.7397 18.3298 68.6403 17.8456 68.6403 17.3011C68.6403 16.7472 68.7421 16.2583 68.9457 15.8345C69.1516 15.4084 69.4381 15.0758 69.805 14.8366C70.1744 14.5952 70.6052 14.4744 71.0977 14.4744C71.4812 14.4744 71.8268 14.5455 72.1346 14.6875C72.4424 14.8295 72.6945 15.0284 72.891 15.2841C73.0875 15.5398 73.2094 15.8381 73.2567 16.179H72.4187C72.3548 15.9304 72.2127 15.7102 71.9925 15.5185C71.7747 15.3243 71.4812 15.2273 71.1119 15.2273C70.7852 15.2273 70.4987 15.3125 70.2525 15.483C70.0086 15.651 69.8181 15.889 69.6808 16.1967C69.5458 16.5021 69.4783 16.8608 69.4783 17.2727C69.4783 17.6941 69.5446 18.0611 69.6772 18.3736C69.8121 18.6861 70.0015 18.9287 70.2454 19.1016C70.4916 19.2744 70.7804 19.3608 71.1119 19.3608C71.3297 19.3608 71.5273 19.3229 71.7049 19.2472C71.8825 19.1714 72.0328 19.0625 72.1559 18.9205C72.279 18.7784 72.3666 18.608 72.4187 18.4091H73.2567C73.2094 18.7311 73.0922 19.0211 72.9052 19.2791C72.7205 19.5348 72.4755 19.7384 72.1701 19.8899C71.8671 20.0391 71.5143 20.1136 71.1119 20.1136ZM75.32 12.7273V20H74.4819V12.7273H75.32ZM76.8549 20V14.5455H77.693V20H76.8549ZM77.2811 13.6364C77.1177 13.6364 76.9769 13.5807 76.8585 13.4695C76.7425 13.3582 76.6845 13.2244 76.6845 13.0682C76.6845 12.9119 76.7425 12.7782 76.8585 12.6669C76.9769 12.5556 77.1177 12.5 77.2811 12.5C77.4444 12.5 77.5841 12.5556 77.7001 12.6669C77.8185 12.7782 77.8777 12.9119 77.8777 13.0682C77.8777 13.2244 77.8185 13.3582 77.7001 13.4695C77.5841 13.5807 77.4444 13.6364 77.2811 13.6364ZM79.228 22.0455V14.5455H80.0376V15.4119H80.1371C80.1986 15.3172 80.2839 15.1965 80.3928 15.0497C80.504 14.9006 80.6626 14.768 80.8686 14.652C81.0769 14.5336 81.3587 14.4744 81.7138 14.4744C82.1731 14.4744 82.5779 14.5893 82.9283 14.8189C83.2786 15.0485 83.5521 15.3741 83.7486 15.7955C83.9451 16.2169 84.0433 16.714 84.0433 17.2869C84.0433 17.8646 83.9451 18.3653 83.7486 18.7891C83.5521 19.2105 83.2798 19.5372 82.9318 19.7692C82.5838 19.9988 82.1825 20.1136 81.728 20.1136C81.3776 20.1136 81.0971 20.0556 80.8864 19.9396C80.6757 19.8213 80.5135 19.6875 80.3999 19.5384C80.2862 19.3868 80.1986 19.2614 80.1371 19.1619H80.0661V22.0455H79.228ZM80.0518 17.2727C80.0518 17.6847 80.1122 18.0481 80.233 18.3629C80.3537 18.6754 80.5301 18.9205 80.7621 19.098C80.9941 19.2732 81.2782 19.3608 81.6143 19.3608C81.9647 19.3608 82.2571 19.2685 82.4915 19.0838C82.7282 18.8968 82.9058 18.6458 83.0241 18.331C83.1449 18.0137 83.2053 17.661 83.2053 17.2727C83.2053 16.8892 83.1461 16.5436 83.0277 16.2358C82.9117 15.9257 82.7353 15.6806 82.4986 15.5007C82.2642 15.3184 81.9695 15.2273 81.6143 15.2273C81.2734 15.2273 80.987 15.3137 80.755 15.4865C80.523 15.657 80.3478 15.8961 80.2294 16.2038C80.111 16.5092 80.0518 16.8655 80.0518 17.2727ZM89.1854 15.767L88.4325 15.9801C88.3852 15.8546 88.3153 15.7327 88.223 15.6143C88.133 15.4936 88.0099 15.3942 87.8537 15.3161C87.6974 15.2379 87.4974 15.1989 87.2536 15.1989C86.9197 15.1989 86.6416 15.2758 86.419 15.4297C86.1989 15.5812 86.0888 15.7741 86.0888 16.0085C86.0888 16.2169 86.1645 16.3814 86.3161 16.5021C86.4676 16.6229 86.7043 16.7235 87.0263 16.804L87.8359 17.0028C88.3236 17.1212 88.687 17.3023 88.9261 17.5462C89.1652 17.7876 89.2848 18.099 89.2848 18.4801C89.2848 18.7926 89.1948 19.072 89.0149 19.3182C88.8374 19.5644 88.5888 19.7585 88.2692 19.9006C87.9496 20.0426 87.5779 20.1136 87.1541 20.1136C86.5978 20.1136 86.1373 19.9929 85.7727 19.7514C85.4081 19.5099 85.1773 19.1572 85.0803 18.6932L85.8757 18.4943C85.9515 18.7879 86.0947 19.008 86.3054 19.1548C86.5185 19.3016 86.7966 19.375 87.1399 19.375C87.5305 19.375 87.8407 19.2921 88.0703 19.1264C88.3023 18.9583 88.4183 18.7571 88.4183 18.5227C88.4183 18.3333 88.352 18.1747 88.2195 18.0469C88.0869 17.9167 87.8833 17.8196 87.6087 17.7557L86.6996 17.5426C86.2 17.4242 85.8331 17.2408 85.5987 16.9922C85.3667 16.7412 85.2507 16.4276 85.2507 16.0511C85.2507 15.7434 85.3371 15.4711 85.5099 15.2344C85.6851 14.9976 85.9231 14.8118 86.2237 14.6768C86.5268 14.5419 86.87 14.4744 87.2536 14.4744C87.7933 14.4744 88.2171 14.5928 88.5249 14.8295C88.835 15.0663 89.0552 15.3788 89.1854 15.767ZM92.8333 20.1136C92.3077 20.1136 91.8543 19.9976 91.4732 19.7656C91.0944 19.5312 90.802 19.2045 90.5961 18.7855C90.3925 18.3641 90.2907 17.8741 90.2907 17.3153C90.2907 16.7566 90.3925 16.2642 90.5961 15.8381C90.802 15.4096 91.0885 15.0758 91.4554 14.8366C91.8248 14.5952 92.2556 14.4744 92.748 14.4744C93.0321 14.4744 93.3127 14.5218 93.5897 14.6165C93.8667 14.7112 94.1188 14.8651 94.3461 15.0781C94.5733 15.2888 94.7544 15.5682 94.8894 15.9162C95.0243 16.2642 95.0918 16.6927 95.0918 17.2017V17.5568H90.8873V16.8324H94.2395C94.2395 16.5246 94.178 16.25 94.0549 16.0085C93.9341 15.767 93.7613 15.5765 93.5364 15.4368C93.3139 15.2971 93.0511 15.2273 92.748 15.2273C92.4142 15.2273 92.1254 15.3101 91.8816 15.4759C91.6401 15.6392 91.4542 15.8523 91.324 16.1151C91.1938 16.3778 91.1287 16.6596 91.1287 16.9602V17.4432C91.1287 17.8551 91.1998 18.2043 91.3418 18.4908C91.4862 18.7749 91.6863 18.9915 91.9419 19.1406C92.1976 19.2874 92.4947 19.3608 92.8333 19.3608C93.0534 19.3608 93.2523 19.33 93.4299 19.2685C93.6098 19.2045 93.7649 19.1098 93.8951 18.9844C94.0253 18.8565 94.1259 18.6979 94.1969 18.5085L95.0066 18.7358C94.9213 19.0104 94.7781 19.2519 94.5769 19.4602C94.3757 19.6662 94.1271 19.8272 93.8311 19.9432C93.5352 20.0568 93.2026 20.1136 92.8333 20.1136ZM100.173 12.7273V20H99.2928V12.7273H100.173ZM102.664 16.7188V20H101.826V14.5455H102.635V15.3977H102.706C102.834 15.1207 103.028 14.8982 103.289 14.7301C103.549 14.5597 103.885 14.4744 104.297 14.4744C104.667 14.4744 104.99 14.5502 105.267 14.7017C105.544 14.8509 105.759 15.0781 105.913 15.3835C106.067 15.6866 106.144 16.0701 106.144 16.5341V20H105.306V16.5909C105.306 16.1624 105.194 15.8286 104.972 15.5895C104.749 15.348 104.444 15.2273 104.056 15.2273C103.788 15.2273 103.549 15.2853 103.338 15.4013C103.13 15.5173 102.966 15.6866 102.845 15.9091C102.724 16.1316 102.664 16.4015 102.664 16.7188ZM110.047 14.5455V15.2557H107.221V14.5455H110.047ZM108.045 13.2386H108.883V18.4375C108.883 18.6742 108.917 18.8518 108.986 18.9702C109.057 19.0862 109.147 19.1643 109.256 19.2045C109.367 19.2424 109.484 19.2614 109.607 19.2614C109.699 19.2614 109.775 19.2566 109.834 19.2472C109.894 19.2353 109.941 19.2259 109.976 19.2188L110.147 19.9716C110.09 19.9929 110.011 20.0142 109.909 20.0355C109.807 20.0592 109.678 20.071 109.522 20.071C109.285 20.071 109.053 20.0201 108.826 19.9183C108.601 19.8165 108.414 19.6615 108.265 19.4531C108.118 19.2448 108.045 18.982 108.045 18.6648V13.2386ZM111.308 20V14.5455H112.118V15.3693H112.175C112.274 15.0994 112.454 14.8804 112.714 14.7124C112.975 14.5443 113.268 14.4602 113.595 14.4602C113.657 14.4602 113.733 14.4614 113.826 14.4638C113.918 14.4661 113.988 14.4697 114.035 14.4744V15.3267C114.007 15.3196 113.942 15.3089 113.84 15.2947C113.741 15.2782 113.635 15.2699 113.524 15.2699C113.259 15.2699 113.022 15.3255 112.814 15.4368C112.608 15.5457 112.444 15.6972 112.324 15.8913C112.205 16.0831 112.146 16.3021 112.146 16.5483V20H111.308ZM118.466 17.7699V14.5455H119.304V20H118.466V19.0767H118.409C118.282 19.3537 118.083 19.5893 117.813 19.7834C117.543 19.9751 117.202 20.071 116.79 20.071C116.449 20.071 116.146 19.9964 115.881 19.8473C115.616 19.6958 115.408 19.4685 115.256 19.1655C115.105 18.8601 115.029 18.4754 115.029 18.0114V14.5455H115.867V17.9545C115.867 18.3523 115.978 18.6695 116.201 18.9062C116.426 19.143 116.712 19.2614 117.06 19.2614C117.268 19.2614 117.48 19.2081 117.696 19.1016C117.913 18.995 118.096 18.8317 118.243 18.6115C118.392 18.3913 118.466 18.1108 118.466 17.7699ZM122.899 20.1136C122.444 20.1136 122.043 19.9988 121.695 19.7692C121.347 19.5372 121.075 19.2105 120.878 18.7891C120.682 18.3653 120.584 17.8646 120.584 17.2869C120.584 16.714 120.682 16.2169 120.878 15.7955C121.075 15.3741 121.348 15.0485 121.699 14.8189C122.049 14.5893 122.454 14.4744 122.913 14.4744C123.268 14.4744 123.549 14.5336 123.755 14.652C123.963 14.768 124.122 14.9006 124.231 15.0497C124.342 15.1965 124.428 15.3172 124.49 15.4119H124.561V12.7273H125.399V20H124.589V19.1619H124.49C124.428 19.2614 124.341 19.3868 124.227 19.5384C124.113 19.6875 123.951 19.8213 123.741 19.9396C123.53 20.0556 123.249 20.1136 122.899 20.1136ZM123.013 19.3608C123.349 19.3608 123.633 19.2732 123.865 19.098C124.097 18.9205 124.273 18.6754 124.394 18.3629C124.515 18.0481 124.575 17.6847 124.575 17.2727C124.575 16.8655 124.516 16.5092 124.398 16.2038C124.279 15.8961 124.104 15.657 123.872 15.4865C123.64 15.3137 123.354 15.2273 123.013 15.2273C122.657 15.2273 122.362 15.3184 122.125 15.5007C121.89 15.6806 121.714 15.9257 121.596 16.2358C121.48 16.5436 121.422 16.8892 121.422 17.2727C121.422 17.661 121.481 18.0137 121.599 18.331C121.72 18.6458 121.898 18.8968 122.132 19.0838C122.369 19.2685 122.662 19.3608 123.013 19.3608ZM129.337 20.1136C128.812 20.1136 128.358 19.9976 127.977 19.7656C127.598 19.5312 127.306 19.2045 127.1 18.7855C126.896 18.3641 126.795 17.8741 126.795 17.3153C126.795 16.7566 126.896 16.2642 127.1 15.8381C127.306 15.4096 127.592 15.0758 127.959 14.8366C128.329 14.5952 128.76 14.4744 129.252 14.4744C129.536 14.4744 129.817 14.5218 130.094 14.6165C130.371 14.7112 130.623 14.8651 130.85 15.0781C131.077 15.2888 131.258 15.5682 131.393 15.9162C131.528 16.2642 131.596 16.6927 131.596 17.2017V17.5568H127.391V16.8324H130.743C130.743 16.5246 130.682 16.25 130.559 16.0085C130.438 15.767 130.265 15.5765 130.04 15.4368C129.818 15.2971 129.555 15.2273 129.252 15.2273C128.918 15.2273 128.629 15.3101 128.385 15.4759C128.144 15.6392 127.958 15.8523 127.828 16.1151C127.698 16.3778 127.633 16.6596 127.633 16.9602V17.4432C127.633 17.8551 127.704 18.2043 127.846 18.4908C127.99 18.7749 128.19 18.9915 128.446 19.1406C128.702 19.2874 128.999 19.3608 129.337 19.3608C129.557 19.3608 129.756 19.33 129.934 19.2685C130.114 19.2045 130.269 19.1098 130.399 18.9844C130.529 18.8565 130.63 18.6979 130.701 18.5085L131.51 18.7358C131.425 19.0104 131.282 19.2519 131.081 19.4602C130.88 19.6662 130.631 19.8272 130.335 19.9432C130.039 20.0568 129.706 20.1136 129.337 20.1136ZM132.871 20V14.5455H133.68V15.3693H133.737C133.836 15.0994 134.016 14.8804 134.277 14.7124C134.537 14.5443 134.831 14.4602 135.157 14.4602C135.219 14.4602 135.296 14.4614 135.388 14.4638C135.481 14.4661 135.55 14.4697 135.598 14.4744V15.3267C135.569 15.3196 135.504 15.3089 135.403 15.2947C135.303 15.2782 135.198 15.2699 135.086 15.2699C134.821 15.2699 134.585 15.3255 134.376 15.4368C134.17 15.5457 134.007 15.6972 133.886 15.8913C133.768 16.0831 133.709 16.3021 133.709 16.5483V20H132.871ZM140.455 15.767L139.702 15.9801C139.655 15.8546 139.585 15.7327 139.493 15.6143C139.403 15.4936 139.279 15.3942 139.123 15.3161C138.967 15.2379 138.767 15.1989 138.523 15.1989C138.189 15.1989 137.911 15.2758 137.689 15.4297C137.468 15.5812 137.358 15.7741 137.358 16.0085C137.358 16.2169 137.434 16.3814 137.586 16.5021C137.737 16.6229 137.974 16.7235 138.296 16.804L139.105 17.0028C139.593 17.1212 139.957 17.3023 140.196 17.5462C140.435 17.7876 140.554 18.099 140.554 18.4801C140.554 18.7926 140.464 19.072 140.284 19.3182C140.107 19.5644 139.858 19.7585 139.539 19.9006C139.219 20.0426 138.847 20.1136 138.424 20.1136C137.867 20.1136 137.407 19.9929 137.042 19.7514C136.678 19.5099 136.447 19.1572 136.35 18.6932L137.145 18.4943C137.221 18.7879 137.364 19.008 137.575 19.1548C137.788 19.3016 138.066 19.375 138.409 19.375C138.8 19.375 139.11 19.2921 139.34 19.1264C139.572 18.9583 139.688 18.7571 139.688 18.5227C139.688 18.3333 139.622 18.1747 139.489 18.0469C139.356 17.9167 139.153 17.8196 138.878 17.7557L137.969 17.5426C137.47 17.4242 137.103 17.2408 136.868 16.9922C136.636 16.7412 136.52 16.4276 136.52 16.0511C136.52 15.7434 136.607 15.4711 136.779 15.2344C136.955 14.9976 137.193 14.8118 137.493 14.6768C137.796 14.5419 138.14 14.4744 138.523 14.4744C139.063 14.4744 139.487 14.5928 139.794 14.8295C140.105 15.0663 140.325 15.3788 140.455 15.767ZM144.927 16.9318C144.927 16.0369 145.043 15.2143 145.275 14.4638C145.509 13.7109 145.843 13.0185 146.276 12.3864H147.015C146.844 12.6207 146.684 12.9096 146.535 13.2528C146.389 13.5937 146.26 13.969 146.148 14.3786C146.037 14.7857 145.949 15.2071 145.885 15.6428C145.824 16.0784 145.793 16.508 145.793 16.9318C145.793 17.4953 145.848 18.067 145.956 18.647C146.065 19.227 146.212 19.7656 146.397 20.2628C146.581 20.7599 146.787 21.1648 147.015 21.4773H146.276C145.843 20.8452 145.509 20.1539 145.275 19.4034C145.043 18.6506 144.927 17.8267 144.927 16.9318ZM150.194 20.1136C149.739 20.1136 149.338 19.9988 148.99 19.7692C148.642 19.5372 148.37 19.2105 148.173 18.7891C147.977 18.3653 147.879 17.8646 147.879 17.2869C147.879 16.714 147.977 16.2169 148.173 15.7955C148.37 15.3741 148.643 15.0485 148.994 14.8189C149.344 14.5893 149.749 14.4744 150.208 14.4744C150.563 14.4744 150.844 14.5336 151.05 14.652C151.258 14.768 151.417 14.9006 151.526 15.0497C151.637 15.1965 151.723 15.3172 151.785 15.4119H151.856V12.7273H152.694V20H151.884V19.1619H151.785C151.723 19.2614 151.636 19.3868 151.522 19.5384C151.408 19.6875 151.246 19.8213 151.036 19.9396C150.825 20.0556 150.544 20.1136 150.194 20.1136ZM150.308 19.3608C150.644 19.3608 150.928 19.2732 151.16 19.098C151.392 18.9205 151.568 18.6754 151.689 18.3629C151.81 18.0481 151.87 17.6847 151.87 17.2727C151.87 16.8655 151.811 16.5092 151.692 16.2038C151.574 15.8961 151.399 15.657 151.167 15.4865C150.935 15.3137 150.648 15.2273 150.308 15.2273C149.952 15.2273 149.656 15.3184 149.42 15.5007C149.185 15.6806 149.009 15.9257 148.891 16.2358C148.775 16.5436 148.717 16.8892 148.717 17.2727C148.717 17.661 148.776 18.0137 148.894 18.331C149.015 18.6458 149.192 18.8968 149.427 19.0838C149.664 19.2685 149.957 19.3608 150.308 19.3608ZM156.632 20.1136C156.107 20.1136 155.653 19.9976 155.272 19.7656C154.893 19.5312 154.601 19.2045 154.395 18.7855C154.191 18.3641 154.089 17.8741 154.089 17.3153C154.089 16.7566 154.191 16.2642 154.395 15.8381C154.601 15.4096 154.887 15.0758 155.254 14.8366C155.624 14.5952 156.054 14.4744 156.547 14.4744C156.831 14.4744 157.112 14.5218 157.388 14.6165C157.665 14.7112 157.918 14.8651 158.145 15.0781C158.372 15.2888 158.553 15.5682 158.688 15.9162C158.823 16.2642 158.891 16.6927 158.891 17.2017V17.5568H154.686V16.8324H158.038C158.038 16.5246 157.977 16.25 157.854 16.0085C157.733 15.767 157.56 15.5765 157.335 15.4368C157.113 15.2971 156.85 15.2273 156.547 15.2273C156.213 15.2273 155.924 15.3101 155.68 15.4759C155.439 15.6392 155.253 15.8523 155.123 16.1151C154.993 16.3778 154.928 16.6596 154.928 16.9602V17.4432C154.928 17.8551 154.999 18.2043 155.141 18.4908C155.285 18.7749 155.485 18.9915 155.741 19.1406C155.996 19.2874 156.294 19.3608 156.632 19.3608C156.852 19.3608 157.051 19.33 157.229 19.2685C157.409 19.2045 157.564 19.1098 157.694 18.9844C157.824 18.8565 157.925 18.6979 157.996 18.5085L158.805 18.7358C158.72 19.0104 158.577 19.2519 158.376 19.4602C158.174 19.6662 157.926 19.8272 157.63 19.9432C157.334 20.0568 157.001 20.1136 156.632 20.1136ZM160.165 20V14.5455H160.975V15.3977H161.046C161.16 15.1065 161.343 14.8804 161.597 14.7195C161.85 14.5561 162.154 14.4744 162.509 14.4744C162.869 14.4744 163.169 14.5561 163.408 14.7195C163.649 14.8804 163.837 15.1065 163.972 15.3977H164.029C164.169 15.116 164.378 14.8923 164.658 14.7266C164.937 14.5585 165.272 14.4744 165.663 14.4744C166.15 14.4744 166.549 14.6271 166.859 14.9325C167.17 15.2356 167.325 15.7079 167.325 16.3494V20H166.487V16.3494C166.487 15.947 166.376 15.6593 166.156 15.4865C165.936 15.3137 165.677 15.2273 165.379 15.2273C164.995 15.2273 164.698 15.3433 164.487 15.5753C164.277 15.8049 164.171 16.0961 164.171 16.4489V20H163.319V16.2642C163.319 15.9541 163.218 15.7043 163.017 15.5149C162.816 15.3232 162.557 15.2273 162.239 15.2273C162.022 15.2273 161.818 15.2853 161.629 15.4013C161.442 15.5173 161.29 15.6783 161.174 15.8842C161.06 16.0878 161.004 16.3234 161.004 16.5909V20H160.165ZM171.073 20.1136C170.58 20.1136 170.148 19.9964 169.777 19.7621C169.407 19.5277 169.118 19.1998 168.91 18.7784C168.704 18.357 168.601 17.8646 168.601 17.3011C168.601 16.733 168.704 16.237 168.91 15.8132C169.118 15.3894 169.407 15.0604 169.777 14.826C170.148 14.5916 170.58 14.4744 171.073 14.4744C171.565 14.4744 171.996 14.5916 172.365 14.826C172.737 15.0604 173.026 15.3894 173.232 15.8132C173.44 16.237 173.544 16.733 173.544 17.3011C173.544 17.8646 173.44 18.357 173.232 18.7784C173.026 19.1998 172.737 19.5277 172.365 19.7621C171.996 19.9964 171.565 20.1136 171.073 20.1136ZM171.073 19.3608C171.447 19.3608 171.755 19.2649 171.996 19.0732C172.238 18.8814 172.416 18.6293 172.532 18.3168C172.648 18.0043 172.706 17.6657 172.706 17.3011C172.706 16.9366 172.648 16.5968 172.532 16.282C172.416 15.9671 172.238 15.7126 171.996 15.5185C171.755 15.3243 171.447 15.2273 171.073 15.2273C170.699 15.2273 170.391 15.3243 170.15 15.5185C169.908 15.7126 169.729 15.9671 169.613 16.282C169.497 16.5968 169.439 16.9366 169.439 17.3011C169.439 17.6657 169.497 18.0043 169.613 18.3168C169.729 18.6293 169.908 18.8814 170.15 19.0732C170.391 19.2649 170.699 19.3608 171.073 19.3608ZM176.496 16.9318C176.496 17.8267 176.379 18.6506 176.145 19.4034C175.913 20.1539 175.58 20.8452 175.147 21.4773H174.408C174.579 21.2429 174.737 20.9541 174.884 20.6108C175.033 20.2699 175.163 19.8958 175.275 19.4886C175.386 19.0791 175.472 18.6565 175.534 18.2209C175.598 17.7829 175.63 17.3532 175.63 16.9318C175.63 16.3684 175.575 15.7966 175.466 15.2166C175.358 14.6366 175.211 14.098 175.026 13.6009C174.841 13.1037 174.635 12.6989 174.408 12.3864H175.147C175.58 13.0185 175.913 13.7109 176.145 14.4638C176.379 15.2143 176.496 16.0369 176.496 16.9318Z" fill="black"/>
<path fill-rule="evenodd" clip-rule="evenodd" d="M191.333 19.9999C191.333 19.8133 191.407 19.6466 191.527 19.5266L195.06 15.9999L191.527 12.4733C191.407 12.3533 191.333 12.1866 191.333 11.9999C191.333 11.6333 191.633 11.3333 192 11.3333C192.187 11.3333 192.353 11.4066 192.473 11.5266L196.473 15.5266C196.593 15.6466 196.667 15.8133 196.667 15.9999C196.667 16.1866 196.593 16.3533 196.473 16.4733L192.473 20.4733C192.353 20.5933 192.187 20.6666 192 20.6666C191.633 20.6666 191.333 20.3666 191.333 19.9999Z" fill="#A0A0A0"/>
<defs>
<linearGradient id="paint0_linear_5519_13617" x1="23" y1="13.0097" x2="11.1486" y2="18.1674" gradientUnits="userSpaceOnUse">
<stop offset="0.13" stop-color="#0BEBE9"/>
<stop offset="0.2296" stop-color="#0DD9EB"/>
<stop offset="0.4306" stop-color="#12A8F1"/>
<stop offset="0.7121" stop-color="#1B5CFA"/>
<stop offset="0.87" stop-color="#202EFF"/>
</linearGradient>
<linearGradient id="paint1_linear_5519_13617" x1="23" y1="13.0097" x2="11.1486" y2="18.1674" gradientUnits="userSpaceOnUse">
<stop offset="0.13" stop-color="#0BEBE9"/>
<stop offset="0.2296" stop-color="#0DD9EB"/>
<stop offset="0.4306" stop-color="#12A8F1"/>
<stop offset="0.7121" stop-color="#1B5CFA"/>
<stop offset="0.87" stop-color="#202EFF"/>
</linearGradient>
<clipPath id="clip0_5519_13617">
<rect width="20" height="20" fill="white" transform="translate(28 26) rotate(-180)"/>
</clipPath>
</defs>
</svg>
