<svg width="248" height="60" viewBox="0 0 248 60" fill="none" xmlns="http://www.w3.org/2000/svg">
<g clip-path="url(#clip0_5314_13989)">
<path d="M76.3333 38.3335L79.5625 38.3335L79.5625 36.6668L81.4375 36.6668L81.4375 35.0002L82.1667 35.0002L83 35.0002L83 28.3335L81.3333 28.3335L81.3333 27.5002L80.5 27.5002L75.8125 27.5002L74.5625 27.5002L74.5625 28.3335L73.625 28.3335L73 28.3335L73 35.0002L74.5625 35.0002L74.5625 36.6668L76.3333 36.6668L76.3333 38.3335Z" fill="url(#paint0_linear_5314_13989)"/>
<path d="M79.5625 25.0002L81.3333 25.0002L81.3333 26.6668L74.6667 26.6668L74.6667 25.0002L76.4375 25.0002L77.0625 25.0002L77.0625 23.3335L78.9375 23.3335L78.9375 25.0002L79.5625 25.0002Z" fill="url(#paint1_linear_5314_13989)"/>
<rect x="84.6665" y="35" width="1.66667" height="1.66667" transform="rotate(-180 84.6665 35)" fill="#41464A"/>
<rect x="86.3335" y="36.667" width="1.66667" height="1.66667" transform="rotate(-180 86.3335 36.667)" fill="#41464A"/>
<rect x="88" y="38.3335" width="1.66667" height="1.66667" transform="rotate(-180 88 38.3335)" fill="#41464A"/>
<rect x="84.6665" y="30" width="1.66667" height="1.66667" transform="rotate(-180 84.6665 30)" fill="#41464A"/>
<rect x="81.3335" y="25" width="1.66667" height="1.66667" transform="rotate(-180 81.3335 25)" fill="#41464A"/>
<rect x="83" y="23.3335" width="1.66667" height="1.66667" transform="rotate(-180 83 23.3335)" fill="#41464A"/>
<rect x="74.6665" y="23.3335" width="1.66667" height="1.66667" transform="rotate(-180 74.6665 23.3335)" fill="#41464A"/>
<rect x="76.3335" y="25" width="1.66667" height="1.66667" transform="rotate(-180 76.3335 25)" fill="#41464A"/>
<rect x="86.3335" y="28.3335" width="1.66667" height="1.66667" transform="rotate(-180 86.3335 28.3335)" fill="#41464A"/>
<rect x="88" y="26.667" width="1.66667" height="1.66667" transform="rotate(-180 88 26.667)" fill="#41464A"/>
<rect x="73" y="35" width="1.66667" height="1.66667" transform="rotate(-180 73 35)" fill="#41464A"/>
<rect x="73" y="30" width="1.66667" height="1.66667" transform="rotate(-180 73 30)" fill="#41464A"/>
<rect x="71.3335" y="36.667" width="1.66667" height="1.66667" transform="rotate(-180 71.3335 36.667)" fill="#41464A"/>
<rect x="71.3335" y="28.3335" width="1.66667" height="1.66667" transform="rotate(-180 71.3335 28.3335)" fill="#41464A"/>
<rect x="69.6665" y="38.3335" width="1.66667" height="1.66667" transform="rotate(-180 69.6665 38.3335)" fill="#41464A"/>
<rect x="69.6665" y="26.667" width="1.66667" height="1.66667" transform="rotate(-180 69.6665 26.667)" fill="#41464A"/>
</g>
<path d="M100.858 28.5455C100.815 28.1856 100.643 27.9062 100.339 27.7074C100.036 27.5085 99.6648 27.4091 99.2244 27.4091C98.9025 27.4091 98.6207 27.4612 98.3793 27.5653C98.1402 27.6695 97.9531 27.8127 97.8182 27.995C97.6856 28.1773 97.6193 28.3845 97.6193 28.6165C97.6193 28.8106 97.6655 28.9775 97.7578 29.1172C97.8525 29.2545 97.9732 29.3693 98.12 29.4616C98.2668 29.5516 98.4207 29.6262 98.5817 29.6854C98.7427 29.7422 98.8906 29.7884 99.0256 29.8239L99.7642 30.0227C99.9536 30.0724 100.164 30.1411 100.396 30.2287C100.631 30.3163 100.854 30.4358 101.067 30.5874C101.283 30.7365 101.46 30.9283 101.6 31.1626C101.74 31.397 101.81 31.6847 101.81 32.0256C101.81 32.4186 101.707 32.7737 101.501 33.0909C101.297 33.4081 100.999 33.6603 100.606 33.8473C100.215 34.0343 99.7405 34.1278 99.1818 34.1278C98.661 34.1278 98.21 34.0438 97.8288 33.8757C97.45 33.7076 97.1518 33.4732 96.9339 33.1726C96.7185 32.8719 96.5966 32.5227 96.5682 32.125H97.4773C97.5009 32.3996 97.5933 32.6269 97.7543 32.8068C97.9176 32.9844 98.1236 33.117 98.3722 33.2045C98.6231 33.2898 98.893 33.3324 99.1818 33.3324C99.518 33.3324 99.8198 33.2779 100.087 33.169C100.355 33.0578 100.567 32.9039 100.723 32.7074C100.879 32.5085 100.957 32.2765 100.957 32.0114C100.957 31.7699 100.89 31.5734 100.755 31.4219C100.62 31.2704 100.442 31.1473 100.222 31.0526C100.002 30.9579 99.7642 30.875 99.5085 30.804L98.6136 30.5483C98.0455 30.3849 97.5956 30.1518 97.2642 29.8487C96.9328 29.5457 96.767 29.1491 96.767 28.6591C96.767 28.2519 96.8771 27.8968 97.0973 27.5938C97.3198 27.2884 97.6181 27.0516 97.9922 26.8835C98.3686 26.7131 98.7888 26.6278 99.2528 26.6278C99.7216 26.6278 100.138 26.7119 100.503 26.88C100.867 27.0457 101.156 27.273 101.369 27.5618C101.585 27.8506 101.698 28.1785 101.71 28.5455H100.858ZM105.516 28.5455V29.2557H102.689V28.5455H105.516ZM103.513 27.2386H104.351V32.4375C104.351 32.6742 104.386 32.8518 104.454 32.9702C104.525 33.0862 104.615 33.1643 104.724 33.2045C104.836 33.2424 104.953 33.2614 105.076 33.2614C105.168 33.2614 105.244 33.2566 105.303 33.2472C105.362 33.2353 105.41 33.2259 105.445 33.2188L105.616 33.9716C105.559 33.9929 105.479 34.0142 105.378 34.0355C105.276 34.0592 105.147 34.071 104.991 34.071C104.754 34.071 104.522 34.0201 104.295 33.9183C104.07 33.8165 103.883 33.6615 103.733 33.4531C103.587 33.2448 103.513 32.982 103.513 32.6648V27.2386ZM108.382 34.1278C108.036 34.1278 107.723 34.0627 107.441 33.9325C107.159 33.8 106.935 33.6094 106.77 33.3608C106.604 33.1098 106.521 32.8068 106.521 32.4517C106.521 32.1392 106.583 31.8859 106.706 31.6918C106.829 31.4953 106.993 31.3414 107.199 31.2301C107.405 31.1188 107.633 31.036 107.881 30.9815C108.132 30.9247 108.384 30.8797 108.638 30.8466C108.969 30.804 109.238 30.772 109.444 30.7507C109.652 30.727 109.804 30.688 109.898 30.6335C109.995 30.5791 110.044 30.4844 110.044 30.3494V30.321C110.044 29.9706 109.948 29.6984 109.756 29.5043C109.567 29.3101 109.279 29.2131 108.893 29.2131C108.493 29.2131 108.18 29.3007 107.952 29.4759C107.725 29.651 107.565 29.8381 107.473 30.0369L106.677 29.7528C106.819 29.4214 107.009 29.1634 107.246 28.9787C107.485 28.7917 107.745 28.6615 108.027 28.5881C108.311 28.5123 108.59 28.4744 108.865 28.4744C109.04 28.4744 109.241 28.4957 109.469 28.5384C109.698 28.5786 109.92 28.6626 110.133 28.7905C110.348 28.9183 110.527 29.1113 110.669 29.3693C110.811 29.6274 110.882 29.973 110.882 30.4062V34H110.044V33.2614H110.001C109.944 33.3797 109.85 33.5064 109.717 33.6413C109.585 33.7763 109.408 33.8911 109.188 33.9858C108.968 34.0805 108.699 34.1278 108.382 34.1278ZM108.51 33.375C108.841 33.375 109.121 33.3099 109.348 33.1797C109.577 33.0495 109.75 32.8814 109.866 32.6754C109.985 32.4695 110.044 32.2528 110.044 32.0256V31.2585C110.008 31.3011 109.93 31.3402 109.809 31.3757C109.691 31.4089 109.554 31.4384 109.398 31.4645C109.244 31.4882 109.093 31.5095 108.947 31.5284C108.802 31.545 108.685 31.5592 108.595 31.571C108.377 31.5994 108.174 31.6456 107.984 31.7095C107.797 31.7711 107.646 31.8646 107.53 31.9901C107.416 32.1132 107.359 32.2812 107.359 32.4943C107.359 32.7855 107.467 33.0057 107.682 33.1548C107.9 33.3016 108.176 33.375 108.51 33.375ZM112.412 34V28.5455H113.221V29.3693H113.278C113.377 29.0994 113.557 28.8804 113.818 28.7124C114.078 28.5443 114.372 28.4602 114.699 28.4602C114.76 28.4602 114.837 28.4614 114.929 28.4638C115.022 28.4661 115.092 28.4697 115.139 28.4744V29.3267C115.11 29.3196 115.045 29.3089 114.944 29.2947C114.844 29.2782 114.739 29.2699 114.627 29.2699C114.362 29.2699 114.126 29.3255 113.917 29.4368C113.711 29.5457 113.548 29.6972 113.427 29.8913C113.309 30.0831 113.25 30.3021 113.25 30.5483V34H112.412ZM118.846 28.5455V29.2557H116.02V28.5455H118.846ZM116.843 27.2386H117.681V32.4375C117.681 32.6742 117.716 32.8518 117.784 32.9702C117.855 33.0862 117.945 33.1643 118.054 33.2045C118.166 33.2424 118.283 33.2614 118.406 33.2614C118.498 33.2614 118.574 33.2566 118.633 33.2472C118.692 33.2353 118.74 33.2259 118.775 33.2188L118.946 33.9716C118.889 33.9929 118.81 34.0142 118.708 34.0355C118.606 34.0592 118.477 34.071 118.321 34.071C118.084 34.071 117.852 34.0201 117.625 33.9183C117.4 33.8165 117.213 33.6615 117.064 33.4531C116.917 33.2448 116.843 32.982 116.843 32.6648V27.2386ZM125.292 28.5455V29.2557H122.465V28.5455H125.292ZM123.289 27.2386H124.127V32.4375C124.127 32.6742 124.161 32.8518 124.23 32.9702C124.301 33.0862 124.391 33.1643 124.5 33.2045C124.611 33.2424 124.728 33.2614 124.851 33.2614C124.944 33.2614 125.019 33.2566 125.078 33.2472C125.138 33.2353 125.185 33.2259 125.221 33.2188L125.391 33.9716C125.334 33.9929 125.255 34.0142 125.153 34.0355C125.051 34.0592 124.922 34.071 124.766 34.071C124.529 34.071 124.297 34.0201 124.07 33.9183C123.845 33.8165 123.658 33.6615 123.509 33.4531C123.362 33.2448 123.289 32.982 123.289 32.6648V27.2386ZM127.507 30.7188V34H126.669V26.7273H127.507V29.3977H127.578C127.706 29.116 127.898 28.8923 128.154 28.7266C128.412 28.5585 128.755 28.4744 129.184 28.4744C129.555 28.4744 129.881 28.549 130.16 28.6982C130.44 28.8449 130.656 29.071 130.81 29.3764C130.966 29.6795 131.044 30.0653 131.044 30.5341V34H130.206V30.5909C130.206 30.1577 130.094 29.8227 129.869 29.5859C129.646 29.3468 129.337 29.2273 128.942 29.2273C128.667 29.2273 128.421 29.2853 128.203 29.4013C127.988 29.5173 127.818 29.6866 127.692 29.9091C127.569 30.1316 127.507 30.4015 127.507 30.7188ZM134.865 34.1136C134.339 34.1136 133.886 33.9976 133.504 33.7656C133.126 33.5312 132.833 33.2045 132.627 32.7855C132.424 32.3641 132.322 31.8741 132.322 31.3153C132.322 30.7566 132.424 30.2642 132.627 29.8381C132.833 29.4096 133.12 29.0758 133.487 28.8366C133.856 28.5952 134.287 28.4744 134.779 28.4744C135.063 28.4744 135.344 28.5218 135.621 28.6165C135.898 28.7112 136.15 28.8651 136.377 29.0781C136.605 29.2888 136.786 29.5682 136.921 29.9162C137.056 30.2642 137.123 30.6927 137.123 31.2017V31.5568H132.919V30.8324H136.271C136.271 30.5246 136.209 30.25 136.086 30.0085C135.965 29.767 135.793 29.5765 135.568 29.4368C135.345 29.2971 135.082 29.2273 134.779 29.2273C134.445 29.2273 134.157 29.3101 133.913 29.4759C133.671 29.6392 133.485 29.8523 133.355 30.1151C133.225 30.3778 133.16 30.6596 133.16 30.9602V31.4432C133.16 31.8551 133.231 32.2043 133.373 32.4908C133.517 32.7749 133.718 32.9915 133.973 33.1406C134.229 33.2874 134.526 33.3608 134.865 33.3608C135.085 33.3608 135.284 33.33 135.461 33.2685C135.641 33.2045 135.796 33.1098 135.926 32.9844C136.057 32.8565 136.157 32.6979 136.228 32.5085L137.038 32.7358C136.953 33.0104 136.809 33.2519 136.608 33.4602C136.407 33.6662 136.158 33.8272 135.862 33.9432C135.566 34.0568 135.234 34.1136 134.865 34.1136ZM143.27 34.1136C142.816 34.1136 142.414 33.9988 142.066 33.7692C141.718 33.5372 141.446 33.2105 141.249 32.7891C141.053 32.3653 140.955 31.8646 140.955 31.2869C140.955 30.714 141.053 30.2169 141.249 29.7955C141.446 29.3741 141.719 29.0485 142.07 28.8189C142.42 28.5893 142.825 28.4744 143.284 28.4744C143.639 28.4744 143.92 28.5336 144.126 28.652C144.334 28.768 144.493 28.9006 144.602 29.0497C144.713 29.1965 144.799 29.3172 144.861 29.4119H144.932V26.7273H145.77V34H144.96V33.1619H144.861C144.799 33.2614 144.712 33.3868 144.598 33.5384C144.485 33.6875 144.322 33.8213 144.112 33.9396C143.901 34.0556 143.62 34.1136 143.27 34.1136ZM143.384 33.3608C143.72 33.3608 144.004 33.2732 144.236 33.098C144.468 32.9205 144.644 32.6754 144.765 32.3629C144.886 32.0481 144.946 31.6847 144.946 31.2727C144.946 30.8655 144.887 30.5092 144.769 30.2038C144.65 29.8961 144.475 29.657 144.243 29.4865C144.011 29.3137 143.725 29.2273 143.384 29.2273C143.029 29.2273 142.733 29.3184 142.496 29.5007C142.262 29.6806 142.085 29.9257 141.967 30.2358C141.851 30.5436 141.793 30.8892 141.793 31.2727C141.793 31.661 141.852 32.0137 141.97 32.331C142.091 32.6458 142.269 32.8968 142.503 33.0838C142.74 33.2685 143.033 33.3608 143.384 33.3608ZM149.708 34.1136C149.183 34.1136 148.729 33.9976 148.348 33.7656C147.969 33.5312 147.677 33.2045 147.471 32.7855C147.267 32.3641 147.166 31.8741 147.166 31.3153C147.166 30.7566 147.267 30.2642 147.471 29.8381C147.677 29.4096 147.963 29.0758 148.33 28.8366C148.7 28.5952 149.131 28.4744 149.623 28.4744C149.907 28.4744 150.188 28.5218 150.465 28.6165C150.742 28.7112 150.994 28.8651 151.221 29.0781C151.448 29.2888 151.629 29.5682 151.764 29.9162C151.899 30.2642 151.967 30.6927 151.967 31.2017V31.5568H147.762V30.8324H151.115C151.115 30.5246 151.053 30.25 150.93 30.0085C150.809 29.767 150.636 29.5765 150.411 29.4368C150.189 29.2971 149.926 29.2273 149.623 29.2273C149.289 29.2273 149 29.3101 148.757 29.4759C148.515 29.6392 148.329 29.8523 148.199 30.1151C148.069 30.3778 148.004 30.6596 148.004 30.9602V31.4432C148.004 31.8551 148.075 32.2043 148.217 32.4908C148.361 32.7749 148.561 32.9915 148.817 33.1406C149.073 33.2874 149.37 33.3608 149.708 33.3608C149.928 33.3608 150.127 33.33 150.305 33.2685C150.485 33.2045 150.64 33.1098 150.77 32.9844C150.9 32.8565 151.001 32.6979 151.072 32.5085L151.882 32.7358C151.796 33.0104 151.653 33.2519 151.452 33.4602C151.251 33.6662 151.002 33.8272 150.706 33.9432C150.41 34.0568 150.078 34.1136 149.708 34.1136ZM153.242 34V28.5455H154.051V29.3977H154.122C154.236 29.1065 154.419 28.8804 154.673 28.7195C154.926 28.5561 155.23 28.4744 155.585 28.4744C155.945 28.4744 156.245 28.5561 156.484 28.7195C156.725 28.8804 156.914 29.1065 157.048 29.3977H157.105C157.245 29.116 157.454 28.8923 157.734 28.7266C158.013 28.5585 158.348 28.4744 158.739 28.4744C159.227 28.4744 159.625 28.6271 159.936 28.9325C160.246 29.2356 160.401 29.7079 160.401 30.3494V34H159.563V30.3494C159.563 29.947 159.453 29.6593 159.232 29.4865C159.012 29.3137 158.753 29.2273 158.455 29.2273C158.071 29.2273 157.774 29.3433 157.563 29.5753C157.353 29.8049 157.247 30.0961 157.247 30.4489V34H156.395V30.2642C156.395 29.9541 156.294 29.7043 156.093 29.5149C155.892 29.3232 155.633 29.2273 155.316 29.2273C155.098 29.2273 154.894 29.2853 154.705 29.4013C154.518 29.5173 154.366 29.6783 154.25 29.8842C154.137 30.0878 154.08 30.3234 154.08 30.5909V34H153.242ZM164.149 34.1136C163.657 34.1136 163.224 33.9964 162.853 33.7621C162.483 33.5277 162.195 33.1998 161.986 32.7784C161.78 32.357 161.677 31.8646 161.677 31.3011C161.677 30.733 161.78 30.237 161.986 29.8132C162.195 29.3894 162.483 29.0604 162.853 28.826C163.224 28.5916 163.657 28.4744 164.149 28.4744C164.641 28.4744 165.072 28.5916 165.442 28.826C165.813 29.0604 166.102 29.3894 166.308 29.8132C166.516 30.237 166.621 30.733 166.621 31.3011C166.621 31.8646 166.516 32.357 166.308 32.7784C166.102 33.1998 165.813 33.5277 165.442 33.7621C165.072 33.9964 164.641 34.1136 164.149 34.1136ZM164.149 33.3608C164.523 33.3608 164.831 33.2649 165.072 33.0732C165.314 32.8814 165.492 32.6293 165.608 32.3168C165.724 32.0043 165.782 31.6657 165.782 31.3011C165.782 30.9366 165.724 30.5968 165.608 30.282C165.492 29.9671 165.314 29.7126 165.072 29.5185C164.831 29.3243 164.523 29.2273 164.149 29.2273C163.775 29.2273 163.467 29.3243 163.226 29.5185C162.984 29.7126 162.805 29.9671 162.689 30.282C162.573 30.5968 162.515 30.9366 162.515 31.3011C162.515 31.6657 162.573 32.0043 162.689 32.3168C162.805 32.6293 162.984 32.8814 163.226 33.0732C163.467 33.2649 163.775 33.3608 164.149 33.3608Z" fill="white"/>
<path fill-rule="evenodd" clip-rule="evenodd" d="M181.333 34.0002C181.333 33.8135 181.407 33.6468 181.527 33.5268L185.06 30.0002L181.527 26.4735C181.407 26.3535 181.333 26.1868 181.333 26.0002C181.333 25.6335 181.633 25.3335 182 25.3335C182.187 25.3335 182.353 25.4068 182.473 25.5268L186.473 29.5268C186.593 29.6468 186.667 29.8135 186.667 30.0002C186.667 30.1868 186.593 30.3535 186.473 30.4735L182.473 34.4735C182.353 34.5935 182.187 34.6668 182 34.6668C181.633 34.6668 181.333 34.3668 181.333 34.0002Z" fill="white"/>
<defs>
<linearGradient id="paint0_linear_5314_13989" x1="83" y1="27.01" x2="71.1486" y2="32.1677" gradientUnits="userSpaceOnUse">
<stop offset="0.13" stop-color="#0BEBE9"/>
<stop offset="0.2296" stop-color="#0DD9EB"/>
<stop offset="0.4306" stop-color="#12A8F1"/>
<stop offset="0.7121" stop-color="#1B5CFA"/>
<stop offset="0.87" stop-color="#202EFF"/>
</linearGradient>
<linearGradient id="paint1_linear_5314_13989" x1="83" y1="27.01" x2="71.1486" y2="32.1677" gradientUnits="userSpaceOnUse">
<stop offset="0.13" stop-color="#0BEBE9"/>
<stop offset="0.2296" stop-color="#0DD9EB"/>
<stop offset="0.4306" stop-color="#12A8F1"/>
<stop offset="0.7121" stop-color="#1B5CFA"/>
<stop offset="0.87" stop-color="#202EFF"/>
</linearGradient>
<clipPath id="clip0_5314_13989">
<rect width="20" height="20" fill="white" transform="translate(88 40) rotate(-180)"/>
</clipPath>
</defs>
</svg>
