<svg width="10" height="10" viewBox="0 0 10 10" fill="none" xmlns="http://www.w3.org/2000/svg">
<path fill-rule="evenodd" clip-rule="evenodd" d="M4.5 1.5C4.77614 1.5 5 1.72386 5 2C5 2.25642 4.80698 2.46775 4.55831 2.49664L4.5 2.5H1.5C1.24358 2.5 1.03225 2.69302 1.00336 2.94169L1 3V8.5C1 8.75642 1.19302 8.96775 1.44169 8.99664L1.5 9H7C7.25642 9 7.46775 8.80698 7.49664 8.55831L7.5 8.5V5.5C7.5 5.22386 7.72386 5 8 5C8.25642 5 8.46775 5.19302 8.49664 5.44169L8.5 5.5V8.5C8.5 9.29884 7.87554 9.95183 7.08814 9.99745L7 10H1.5C0.70116 10 0.0481695 9.37554 0.00254631 8.58814L0 8.5V3C0 2.20116 0.62446 1.54817 1.41186 1.50255L1.5 1.5H4.5ZM6.44169 0.00336385L6.5 0H9.5L9.53762 0.00139391L9.60036 0.01012L9.65607 0.0248691L9.71161 0.0468367L9.76035 0.0729977L9.80851 0.106464L9.85357 0.146455C9.87125 0.164144 9.88734 0.182837 9.90183 0.202347L9.93766 0.257969L9.96439 0.314332L9.98208 0.367004L9.99664 0.441689L10 0.5V3.5C10 3.77614 9.77614 4 9.5 4C9.24358 4 9.03225 3.80698 9.00336 3.55831L9 3.5V1.707L4.35355 6.35355C4.15829 6.54882 3.84171 6.54882 3.64645 6.35355C3.4662 6.17331 3.45234 5.8897 3.60485 5.69355L3.64645 5.64645L8.292 1H6.5C6.24358 1 6.03225 0.80698 6.00336 0.558311L6 0.5C6 0.243582 6.19302 0.0322464 6.44169 0.00336385Z" fill="#81888C"/>
</svg>
