<svg width="192" height="32" viewBox="0 0 192 32" fill="none" xmlns="http://www.w3.org/2000/svg">
<g clip-path="url(#clip0_5519_13617)">
<rect x="24" y="14" width="1" height="1" transform="rotate(-180 24 14)" fill="#D9D9D9"/>
<path d="M16.3333 24.3333L19.5625 24.3333L19.5625 22.6666L21.4375 22.6666L21.4375 20.9999L22.1667 20.9999L23 20.9999L23 14.3333L21.3333 14.3333L21.3333 13.4999L20.5 13.4999L15.8125 13.4999L14.5625 13.4999L14.5625 14.3333L13.625 14.3333L13 14.3333L13 20.9999L14.5625 20.9999L14.5625 22.6666L16.3333 22.6666L16.3333 24.3333Z" fill="url(#paint0_linear_5519_13617)"/>
<path d="M19.5625 10.9999L21.3333 10.9999L21.3333 12.6666L14.6667 12.6666L14.6667 10.9999L16.4375 10.9999L17.0625 10.9999L17.0625 9.33325L18.9375 9.33325L18.9375 10.9999L19.5625 10.9999Z" fill="url(#paint1_linear_5519_13617)"/>
<rect x="24.6665" y="21" width="1.66667" height="1.66667" transform="rotate(-180 24.6665 21)" fill="#41464A"/>
<rect x="26.3335" y="22.6665" width="1.66667" height="1.66667" transform="rotate(-180 26.3335 22.6665)" fill="#41464A"/>
<rect x="28" y="24.3333" width="1.66667" height="1.66667" transform="rotate(-180 28 24.3333)" fill="#41464A"/>
<rect x="24.6665" y="16" width="1.66667" height="1.66667" transform="rotate(-180 24.6665 16)" fill="#41464A"/>
<rect x="21.3335" y="11" width="1.66667" height="1.66667" transform="rotate(-180 21.3335 11)" fill="#41464A"/>
<rect x="23" y="9.33325" width="1.66667" height="1.66667" transform="rotate(-180 23 9.33325)" fill="#41464A"/>
<rect x="14.6665" y="9.33325" width="1.66667" height="1.66667" transform="rotate(-180 14.6665 9.33325)" fill="#41464A"/>
<rect x="16.3335" y="11" width="1.66667" height="1.66667" transform="rotate(-180 16.3335 11)" fill="#41464A"/>
<rect x="26.3335" y="14.3333" width="1.66667" height="1.66667" transform="rotate(-180 26.3335 14.3333)" fill="#41464A"/>
<rect x="28" y="12.6665" width="1.66667" height="1.66667" transform="rotate(-180 28 12.6665)" fill="#41464A"/>
<rect x="13" y="21" width="1.66667" height="1.66667" transform="rotate(-180 13 21)" fill="#41464A"/>
<rect x="13" y="16" width="1.66667" height="1.66667" transform="rotate(-180 13 16)" fill="#41464A"/>
<rect x="11.3335" y="22.6665" width="1.66667" height="1.66667" transform="rotate(-180 11.3335 22.6665)" fill="#41464A"/>
<rect x="11.3335" y="14.3333" width="1.66667" height="1.66667" transform="rotate(-180 11.3335 14.3333)" fill="#41464A"/>
<rect x="9.6665" y="24.3333" width="1.66667" height="1.66667" transform="rotate(-180 9.6665 24.3333)" fill="#41464A"/>
<rect x="9.6665" y="12.6665" width="1.66667" height="1.66667" transform="rotate(-180 9.6665 12.6665)" fill="#41464A"/>
</g>
<path d="M40.858 14.5455C40.8153 14.1856 40.6425 13.9062 40.3395 13.7074C40.0365 13.5085 39.6648 13.4091 39.2244 13.4091C38.9025 13.4091 38.6207 13.4612 38.3793 13.5653C38.1402 13.6695 37.9531 13.8127 37.8182 13.995C37.6856 14.1773 37.6193 14.3845 37.6193 14.6165C37.6193 14.8106 37.6655 14.9775 37.7578 15.1172C37.8525 15.2545 37.9732 15.3693 38.12 15.4616C38.2668 15.5516 38.4207 15.6262 38.5817 15.6854C38.7427 15.7422 38.8906 15.7884 39.0256 15.8239L39.7642 16.0227C39.9536 16.0724 40.1643 16.1411 40.3963 16.2287C40.6307 16.3163 40.8544 16.4358 41.0675 16.5874C41.2829 16.7365 41.4605 16.9283 41.6001 17.1626C41.7398 17.397 41.8097 17.6847 41.8097 18.0256C41.8097 18.4186 41.7067 18.7737 41.5007 19.0909C41.2971 19.4081 40.9988 19.6603 40.6058 19.8473C40.2152 20.0343 39.7405 20.1278 39.1818 20.1278C38.661 20.1278 38.21 20.0438 37.8288 19.8757C37.45 19.7076 37.1518 19.4732 36.9339 19.1726C36.7185 18.8719 36.5966 18.5227 36.5682 18.125H37.4773C37.5009 18.3996 37.5933 18.6269 37.7543 18.8068C37.9176 18.9844 38.1236 19.117 38.3722 19.2045C38.6231 19.2898 38.893 19.3324 39.1818 19.3324C39.518 19.3324 39.8198 19.2779 40.0874 19.169C40.3549 19.0578 40.5668 18.9039 40.723 18.7074C40.8793 18.5085 40.9574 18.2765 40.9574 18.0114C40.9574 17.7699 40.8899 17.5734 40.755 17.4219C40.62 17.2704 40.4425 17.1473 40.2223 17.0526C40.0021 16.9579 39.7642 16.875 39.5085 16.804L38.6136 16.5483C38.0455 16.3849 37.5956 16.1518 37.2642 15.8487C36.9328 15.5457 36.767 15.1491 36.767 14.6591C36.767 14.2519 36.8771 13.8968 37.0973 13.5938C37.3198 13.2884 37.6181 13.0516 37.9922 12.8835C38.3686 12.7131 38.7888 12.6278 39.2528 12.6278C39.7216 12.6278 40.1383 12.7119 40.5028 12.88C40.8674 13.0457 41.1563 13.273 41.3693 13.5618C41.5848 13.8506 41.6984 14.1785 41.7102 14.5455H40.858ZM45.5162 14.5455V15.2557H42.6895V14.5455H45.5162ZM43.5133 13.2386H44.3514V18.4375C44.3514 18.6742 44.3857 18.8518 44.4544 18.9702C44.5254 19.0862 44.6154 19.1643 44.7243 19.2045C44.8355 19.2424 44.9527 19.2614 45.0758 19.2614C45.1681 19.2614 45.2439 19.2566 45.3031 19.2472C45.3623 19.2353 45.4096 19.2259 45.4451 19.2188L45.6156 19.9716C45.5588 19.9929 45.4795 20.0142 45.3777 20.0355C45.2759 20.0592 45.1468 20.071 44.9906 20.071C44.7538 20.071 44.5218 20.0201 44.2946 19.9183C44.0697 19.8165 43.8826 19.6615 43.7335 19.4531C43.5867 19.2448 43.5133 18.982 43.5133 18.6648V13.2386ZM48.3819 20.1278C48.0363 20.1278 47.7226 20.0627 47.4409 19.9325C47.1592 19.8 46.9354 19.6094 46.7697 19.3608C46.604 19.1098 46.5211 18.8068 46.5211 18.4517C46.5211 18.1392 46.5827 17.8859 46.7058 17.6918C46.8289 17.4953 46.9934 17.3414 47.1994 17.2301C47.4054 17.1188 47.6326 17.036 47.8812 16.9815C48.1322 16.9247 48.3843 16.8797 48.6376 16.8466C48.969 16.804 49.2377 16.772 49.4437 16.7507C49.652 16.727 49.8036 16.688 49.8983 16.6335C49.9953 16.5791 50.0439 16.4844 50.0439 16.3494V16.321C50.0439 15.9706 49.948 15.6984 49.7562 15.5043C49.5668 15.3101 49.2792 15.2131 48.8933 15.2131C48.4932 15.2131 48.1795 15.3007 47.9522 15.4759C47.725 15.651 47.5652 15.8381 47.4728 16.0369L46.6774 15.7528C46.8194 15.4214 47.0088 15.1634 47.2456 14.9787C47.4847 14.7917 47.7451 14.6615 48.0268 14.5881C48.3109 14.5123 48.5903 14.4744 48.8649 14.4744C49.0401 14.4744 49.2413 14.4957 49.4686 14.5384C49.6982 14.5786 49.9196 14.6626 50.1326 14.7905C50.3481 14.9183 50.5268 15.1113 50.6689 15.3693C50.8109 15.6274 50.8819 15.973 50.8819 16.4062V20H50.0439V19.2614H50.0012C49.9444 19.3797 49.8497 19.5064 49.7172 19.6413C49.5846 19.7763 49.4082 19.8911 49.188 19.9858C48.9679 20.0805 48.6992 20.1278 48.3819 20.1278ZM48.5098 19.375C48.8412 19.375 49.1206 19.3099 49.3478 19.1797C49.5775 19.0495 49.7503 18.8814 49.8663 18.6754C49.9847 18.4695 50.0439 18.2528 50.0439 18.0256V17.2585C50.0083 17.3011 49.9302 17.3402 49.8095 17.3757C49.6911 17.4089 49.5538 17.4384 49.3975 17.4645C49.2437 17.4882 49.0933 17.5095 48.9466 17.5284C48.8021 17.545 48.685 17.5592 48.595 17.571C48.3772 17.5994 48.1736 17.6456 47.9842 17.7095C47.7972 17.7711 47.6457 17.8646 47.5297 17.9901C47.416 18.1132 47.3592 18.2812 47.3592 18.4943C47.3592 18.7855 47.4669 19.0057 47.6824 19.1548C47.9002 19.3016 48.176 19.375 48.5098 19.375ZM52.4116 20V14.5455H53.2212V15.3693H53.2781C53.3775 15.0994 53.5574 14.8804 53.8178 14.7124C54.0782 14.5443 54.3718 14.4602 54.6985 14.4602C54.7601 14.4602 54.837 14.4614 54.9293 14.4638C55.0217 14.4661 55.0915 14.4697 55.1388 14.4744V15.3267C55.1104 15.3196 55.0453 15.3089 54.9435 15.2947C54.8441 15.2782 54.7388 15.2699 54.6275 15.2699C54.3623 15.2699 54.1256 15.3255 53.9173 15.4368C53.7113 15.5457 53.5479 15.6972 53.4272 15.8913C53.3088 16.0831 53.2496 16.3021 53.2496 16.5483V20H52.4116ZM58.8462 14.5455V15.2557H56.0195V14.5455H58.8462ZM56.8434 13.2386H57.6815V18.4375C57.6815 18.6742 57.7158 18.8518 57.7844 18.9702C57.8555 19.0862 57.9454 19.1643 58.0543 19.2045C58.1656 19.2424 58.2828 19.2614 58.4059 19.2614C58.4982 19.2614 58.574 19.2566 58.6332 19.2472C58.6924 19.2353 58.7397 19.2259 58.7752 19.2188L58.9457 19.9716C58.8888 19.9929 58.8095 20.0142 58.7077 20.0355C58.6059 20.0592 58.4769 20.071 58.3207 20.071C58.0839 20.071 57.8519 20.0201 57.6246 19.9183C57.3997 19.8165 57.2127 19.6615 57.0636 19.4531C56.9168 19.2448 56.8434 18.982 56.8434 18.6648V13.2386ZM63.9137 12.7273V20H63.033V12.7273H63.9137ZM67.9238 20H65.6795V12.7273H68.0233C68.7288 12.7273 69.3324 12.8729 69.8343 13.1641C70.3362 13.4529 70.7209 13.8684 70.9885 14.4105C71.256 14.9503 71.3897 15.5966 71.3897 16.3494C71.3897 17.107 71.2548 17.7592 70.9849 18.3061C70.715 18.8506 70.322 19.2696 69.8059 19.5632C69.2898 19.8544 68.6625 20 67.9238 20ZM66.5602 19.2188H67.867C68.4683 19.2188 68.9667 19.1027 69.362 18.8707C69.7574 18.6387 70.0521 18.3085 70.2463 17.88C70.4404 17.4515 70.5375 16.9413 70.5375 16.3494C70.5375 15.7623 70.4416 15.2569 70.2498 14.8331C70.0581 14.407 69.7716 14.0803 69.3904 13.853C69.0093 13.6233 68.5346 13.5085 67.9664 13.5085H66.5602V19.2188ZM72.867 20V12.7273H77.2562V13.5085H73.7477V15.9659H77.0289V16.7472H73.7477V19.2188H77.313V20H72.867ZM82.5368 12.7273V20H81.6561V12.7273H82.5368ZM85.027 16.7188V20H84.1889V14.5455H84.9986V15.3977H85.0696C85.1974 15.1207 85.3916 14.8982 85.652 14.7301C85.9124 14.5597 86.2486 14.4744 86.6605 14.4744C87.0298 14.4744 87.353 14.5502 87.63 14.7017C87.907 14.8509 88.1224 15.0781 88.2763 15.3835C88.4302 15.6866 88.5071 16.0701 88.5071 16.5341V20H87.669V16.5909C87.669 16.1624 87.5578 15.8286 87.3352 15.5895C87.1127 15.348 86.8073 15.2273 86.419 15.2273C86.1515 15.2273 85.9124 15.2853 85.7017 15.4013C85.4934 15.5173 85.3288 15.6866 85.2081 15.9091C85.0874 16.1316 85.027 16.4015 85.027 16.7188ZM92.4107 14.5455V15.2557H89.584V14.5455H92.4107ZM90.4078 13.2386H91.2459V18.4375C91.2459 18.6742 91.2802 18.8518 91.3489 18.9702C91.4199 19.0862 91.5099 19.1643 91.6188 19.2045C91.7301 19.2424 91.8472 19.2614 91.9703 19.2614C92.0627 19.2614 92.1384 19.2566 92.1976 19.2472C92.2568 19.2353 92.3042 19.2259 92.3397 19.2188L92.5101 19.9716C92.4533 19.9929 92.374 20.0142 92.2722 20.0355C92.1704 20.0592 92.0414 20.071 91.8851 20.071C91.6484 20.071 91.4164 20.0201 91.1891 19.9183C90.9642 19.8165 90.7772 19.6615 90.628 19.4531C90.4812 19.2448 90.4078 18.982 90.4078 18.6648V13.2386ZM93.6713 20V14.5455H94.481V15.3693H94.5378C94.6373 15.0994 94.8172 14.8804 95.0776 14.7124C95.338 14.5443 95.6316 14.4602 95.9583 14.4602C96.0198 14.4602 96.0968 14.4614 96.1891 14.4638C96.2814 14.4661 96.3513 14.4697 96.3986 14.4744V15.3267C96.3702 15.3196 96.3051 15.3089 96.2033 15.2947C96.1039 15.2782 95.9985 15.2699 95.8873 15.2699C95.6221 15.2699 95.3854 15.3255 95.177 15.4368C94.9711 15.5457 94.8077 15.6972 94.687 15.8913C94.5686 16.0831 94.5094 16.3021 94.5094 16.5483V20H93.6713ZM100.83 17.7699V14.5455H101.668V20H100.83V19.0767H100.773C100.645 19.3537 100.446 19.5893 100.176 19.7834C99.9063 19.9751 99.5653 20.071 99.1534 20.071C98.8125 20.071 98.5095 19.9964 98.2443 19.8473C97.9792 19.6958 97.7708 19.4685 97.6193 19.1655C97.4678 18.8601 97.392 18.4754 97.392 18.0114V14.5455H98.2301V17.9545C98.2301 18.3523 98.3414 18.6695 98.5639 18.9062C98.7888 19.143 99.0753 19.2614 99.4233 19.2614C99.6316 19.2614 99.8435 19.2081 100.059 19.1016C100.277 18.995 100.459 18.8317 100.606 18.6115C100.755 18.3913 100.83 18.1108 100.83 17.7699ZM105.262 20.1136C104.808 20.1136 104.406 19.9988 104.058 19.7692C103.71 19.5372 103.438 19.2105 103.242 18.7891C103.045 18.3653 102.947 17.8646 102.947 17.2869C102.947 16.714 103.045 16.2169 103.242 15.7955C103.438 15.3741 103.712 15.0485 104.062 14.8189C104.412 14.5893 104.817 14.4744 105.276 14.4744C105.632 14.4744 105.912 14.5336 106.118 14.652C106.326 14.768 106.485 14.9006 106.594 15.0497C106.705 15.1965 106.792 15.3172 106.853 15.4119H106.924V12.7273H107.762V20H106.953V19.1619H106.853C106.792 19.2614 106.704 19.3868 106.59 19.5384C106.477 19.6875 106.315 19.8213 106.104 19.9396C105.893 20.0556 105.613 20.1136 105.262 20.1136ZM105.376 19.3608C105.712 19.3608 105.996 19.2732 106.228 19.098C106.46 18.9205 106.637 18.6754 106.757 18.3629C106.878 18.0481 106.938 17.6847 106.938 17.2727C106.938 16.8655 106.879 16.5092 106.761 16.2038C106.642 15.8961 106.467 15.657 106.235 15.4865C106.003 15.3137 105.717 15.2273 105.376 15.2273C105.021 15.2273 104.725 15.3184 104.488 15.5007C104.254 15.6806 104.077 15.9257 103.959 16.2358C103.843 16.5436 103.785 16.8892 103.785 17.2727C103.785 17.661 103.844 18.0137 103.963 18.331C104.083 18.6458 104.261 18.8968 104.495 19.0838C104.732 19.2685 105.026 19.3608 105.376 19.3608ZM111.7 20.1136C111.175 20.1136 110.722 19.9976 110.34 19.7656C109.962 19.5312 109.669 19.2045 109.463 18.7855C109.26 18.3641 109.158 17.8741 109.158 17.3153C109.158 16.7566 109.26 16.2642 109.463 15.8381C109.669 15.4096 109.956 15.0758 110.323 14.8366C110.692 14.5952 111.123 14.4744 111.615 14.4744C111.899 14.4744 112.18 14.5218 112.457 14.6165C112.734 14.7112 112.986 14.8651 113.213 15.0781C113.441 15.2888 113.622 15.5682 113.757 15.9162C113.892 16.2642 113.959 16.6927 113.959 17.2017V17.5568H109.754V16.8324H113.107C113.107 16.5246 113.045 16.25 112.922 16.0085C112.801 15.767 112.628 15.5765 112.404 15.4368C112.181 15.2971 111.918 15.2273 111.615 15.2273C111.281 15.2273 110.993 15.3101 110.749 15.4759C110.507 15.6392 110.321 15.8523 110.191 16.1151C110.061 16.3778 109.996 16.6596 109.996 16.9602V17.4432C109.996 17.8551 110.067 18.2043 110.209 18.4908C110.353 18.7749 110.553 18.9915 110.809 19.1406C111.065 19.2874 111.362 19.3608 111.7 19.3608C111.921 19.3608 112.119 19.33 112.297 19.2685C112.477 19.2045 112.632 19.1098 112.762 18.9844C112.892 18.8565 112.993 18.6979 113.064 18.5085L113.874 18.7358C113.789 19.0104 113.645 19.2519 113.444 19.4602C113.243 19.6662 112.994 19.8272 112.698 19.9432C112.402 20.0568 112.07 20.1136 111.7 20.1136ZM115.234 20V14.5455H116.044V15.3693H116.1C116.2 15.0994 116.38 14.8804 116.64 14.7124C116.901 14.5443 117.194 14.4602 117.521 14.4602C117.582 14.4602 117.659 14.4614 117.752 14.4638C117.844 14.4661 117.914 14.4697 117.961 14.4744V15.3267C117.933 15.3196 117.868 15.3089 117.766 15.2947C117.666 15.2782 117.561 15.2699 117.45 15.2699C117.185 15.2699 116.948 15.3255 116.74 15.4368C116.534 15.5457 116.37 15.6972 116.249 15.8913C116.131 16.0831 116.072 16.3021 116.072 16.5483V20H115.234ZM122.818 15.767L122.065 15.9801C122.018 15.8546 121.948 15.7327 121.856 15.6143C121.766 15.4936 121.643 15.3942 121.487 15.3161C121.33 15.2379 121.13 15.1989 120.886 15.1989C120.553 15.1989 120.274 15.2758 120.052 15.4297C119.832 15.5812 119.722 15.7741 119.722 16.0085C119.722 16.2169 119.797 16.3814 119.949 16.5021C120.1 16.6229 120.337 16.7235 120.659 16.804L121.469 17.0028C121.956 17.1212 122.32 17.3023 122.559 17.5462C122.798 17.7876 122.918 18.099 122.918 18.4801C122.918 18.7926 122.828 19.072 122.648 19.3182C122.47 19.5644 122.222 19.7585 121.902 19.9006C121.582 20.0426 121.211 20.1136 120.787 20.1136C120.231 20.1136 119.77 19.9929 119.406 19.7514C119.041 19.5099 118.81 19.1572 118.713 18.6932L119.509 18.4943C119.584 18.7879 119.728 19.008 119.938 19.1548C120.151 19.3016 120.429 19.375 120.773 19.375C121.163 19.375 121.473 19.2921 121.703 19.1264C121.935 18.9583 122.051 18.7571 122.051 18.5227C122.051 18.3333 121.985 18.1747 121.852 18.0469C121.72 17.9167 121.516 17.8196 121.241 17.7557L120.332 17.5426C119.833 17.4242 119.466 17.2408 119.232 16.9922C119 16.7412 118.884 16.4276 118.884 16.0511C118.884 15.7434 118.97 15.4711 119.143 15.2344C119.318 14.9976 119.556 14.8118 119.857 14.6768C120.16 14.5419 120.503 14.4744 120.886 14.4744C121.426 14.4744 121.85 14.5928 122.158 14.8295C122.468 15.0663 122.688 15.3788 122.818 15.767ZM127.29 16.9318C127.29 16.0369 127.406 15.2143 127.638 14.4638C127.872 13.7109 128.206 13.0185 128.639 12.3864H129.378C129.208 12.6207 129.048 12.9096 128.899 13.2528C128.752 13.5937 128.623 13.969 128.512 14.3786C128.4 14.7857 128.313 15.2071 128.249 15.6428C128.187 16.0784 128.156 16.508 128.156 16.9318C128.156 17.4953 128.211 18.067 128.32 18.647C128.429 19.227 128.575 19.7656 128.76 20.2628C128.945 20.7599 129.151 21.1648 129.378 21.4773H128.639C128.206 20.8452 127.872 20.1539 127.638 19.4034C127.406 18.6506 127.29 17.8267 127.29 16.9318ZM132.557 20.1136C132.103 20.1136 131.701 19.9988 131.353 19.7692C131.005 19.5372 130.733 19.2105 130.537 18.7891C130.34 18.3653 130.242 17.8646 130.242 17.2869C130.242 16.714 130.34 16.2169 130.537 15.7955C130.733 15.3741 131.007 15.0485 131.357 14.8189C131.707 14.5893 132.112 14.4744 132.571 14.4744C132.926 14.4744 133.207 14.5336 133.413 14.652C133.621 14.768 133.78 14.9006 133.889 15.0497C134 15.1965 134.087 15.3172 134.148 15.4119H134.219V12.7273H135.057V20H134.248V19.1619H134.148C134.087 19.2614 133.999 19.3868 133.885 19.5384C133.772 19.6875 133.609 19.8213 133.399 19.9396C133.188 20.0556 132.908 20.1136 132.557 20.1136ZM132.671 19.3608C133.007 19.3608 133.291 19.2732 133.523 19.098C133.755 18.9205 133.931 18.6754 134.052 18.3629C134.173 18.0481 134.233 17.6847 134.233 17.2727C134.233 16.8655 134.174 16.5092 134.056 16.2038C133.937 15.8961 133.762 15.657 133.53 15.4865C133.298 15.3137 133.012 15.2273 132.671 15.2273C132.316 15.2273 132.02 15.3184 131.783 15.5007C131.549 15.6806 131.372 15.9257 131.254 16.2358C131.138 16.5436 131.08 16.8892 131.08 17.2727C131.08 17.661 131.139 18.0137 131.257 18.331C131.378 18.6458 131.556 18.8968 131.79 19.0838C132.027 19.2685 132.32 19.3608 132.671 19.3608ZM138.995 20.1136C138.47 20.1136 138.016 19.9976 137.635 19.7656C137.257 19.5312 136.964 19.2045 136.758 18.7855C136.555 18.3641 136.453 17.8741 136.453 17.3153C136.453 16.7566 136.555 16.2642 136.758 15.8381C136.964 15.4096 137.251 15.0758 137.618 14.8366C137.987 14.5952 138.418 14.4744 138.91 14.4744C139.194 14.4744 139.475 14.5218 139.752 14.6165C140.029 14.7112 140.281 14.8651 140.508 15.0781C140.735 15.2888 140.917 15.5682 141.051 15.9162C141.186 16.2642 141.254 16.6927 141.254 17.2017V17.5568H137.049V16.8324H140.402C140.402 16.5246 140.34 16.25 140.217 16.0085C140.096 15.767 139.923 15.5765 139.699 15.4368C139.476 15.2971 139.213 15.2273 138.91 15.2273C138.576 15.2273 138.288 15.3101 138.044 15.4759C137.802 15.6392 137.616 15.8523 137.486 16.1151C137.356 16.3778 137.291 16.6596 137.291 16.9602V17.4432C137.291 17.8551 137.362 18.2043 137.504 18.4908C137.648 18.7749 137.848 18.9915 138.104 19.1406C138.36 19.2874 138.657 19.3608 138.995 19.3608C139.216 19.3608 139.414 19.33 139.592 19.2685C139.772 19.2045 139.927 19.1098 140.057 18.9844C140.187 18.8565 140.288 18.6979 140.359 18.5085L141.169 18.7358C141.083 19.0104 140.94 19.2519 140.739 19.4602C140.538 19.6662 140.289 19.8272 139.993 19.9432C139.697 20.0568 139.365 20.1136 138.995 20.1136ZM142.529 20V14.5455H143.338V15.3977H143.409C143.523 15.1065 143.707 14.8804 143.96 14.7195C144.213 14.5561 144.517 14.4744 144.873 14.4744C145.232 14.4744 145.532 14.5561 145.771 14.7195C146.012 14.8804 146.201 15.1065 146.336 15.3977H146.392C146.532 15.116 146.742 14.8923 147.021 14.7266C147.3 14.5585 147.635 14.4744 148.026 14.4744C148.514 14.4744 148.913 14.6271 149.223 14.9325C149.533 15.2356 149.688 15.7079 149.688 16.3494V20H148.85V16.3494C148.85 15.947 148.74 15.6593 148.52 15.4865C148.299 15.3137 148.04 15.2273 147.742 15.2273C147.358 15.2273 147.061 15.3433 146.85 15.5753C146.64 15.8049 146.534 16.0961 146.534 16.4489V20H145.682V16.2642C145.682 15.9541 145.582 15.7043 145.38 15.5149C145.179 15.3232 144.92 15.2273 144.603 15.2273C144.385 15.2273 144.181 15.2853 143.992 15.4013C143.805 15.5173 143.653 15.6783 143.537 15.8842C143.424 16.0878 143.367 16.3234 143.367 16.5909V20H142.529ZM153.436 20.1136C152.944 20.1136 152.512 19.9964 152.14 19.7621C151.771 19.5277 151.482 19.1998 151.273 18.7784C151.067 18.357 150.964 17.8646 150.964 17.3011C150.964 16.733 151.067 16.237 151.273 15.8132C151.482 15.3894 151.771 15.0604 152.14 14.826C152.512 14.5916 152.944 14.4744 153.436 14.4744C153.929 14.4744 154.359 14.5916 154.729 14.826C155.1 15.0604 155.389 15.3894 155.595 15.8132C155.804 16.237 155.908 16.733 155.908 17.3011C155.908 17.8646 155.804 18.357 155.595 18.7784C155.389 19.1998 155.1 19.5277 154.729 19.7621C154.359 19.9964 153.929 20.1136 153.436 20.1136ZM153.436 19.3608C153.81 19.3608 154.118 19.2649 154.359 19.0732C154.601 18.8814 154.78 18.6293 154.896 18.3168C155.012 18.0043 155.07 17.6657 155.07 17.3011C155.07 16.9366 155.012 16.5968 154.896 16.282C154.78 15.9671 154.601 15.7126 154.359 15.5185C154.118 15.3243 153.81 15.2273 153.436 15.2273C153.062 15.2273 152.754 15.3243 152.513 15.5185C152.271 15.7126 152.093 15.9671 151.977 16.282C151.861 16.5968 151.803 16.9366 151.803 17.3011C151.803 17.6657 151.861 18.0043 151.977 18.3168C152.093 18.6293 152.271 18.8814 152.513 19.0732C152.754 19.2649 153.062 19.3608 153.436 19.3608ZM158.86 16.9318C158.86 17.8267 158.742 18.6506 158.508 19.4034C158.276 20.1539 157.943 20.8452 157.51 21.4773H156.771C156.942 21.2429 157.101 20.9541 157.247 20.6108C157.396 20.2699 157.527 19.8958 157.638 19.4886C157.749 19.0791 157.836 18.6565 157.897 18.2209C157.961 17.7829 157.993 17.3532 157.993 16.9318C157.993 16.3684 157.939 15.7966 157.83 15.2166C157.721 14.6366 157.574 14.098 157.389 13.6009C157.205 13.1037 156.999 12.6989 156.771 12.3864H157.51C157.943 13.0185 158.276 13.7109 158.508 14.4638C158.742 15.2143 158.86 16.0369 158.86 16.9318Z" fill="black"/>
<path fill-rule="evenodd" clip-rule="evenodd" d="M173.333 19.9999C173.333 19.8133 173.407 19.6466 173.527 19.5266L177.06 15.9999L173.527 12.4733C173.407 12.3533 173.333 12.1866 173.333 11.9999C173.333 11.6333 173.633 11.3333 174 11.3333C174.187 11.3333 174.353 11.4066 174.473 11.5266L178.473 15.5266C178.593 15.6466 178.667 15.8133 178.667 15.9999C178.667 16.1866 178.593 16.3533 178.473 16.4733L174.473 20.4733C174.353 20.5933 174.187 20.6666 174 20.6666C173.633 20.6666 173.333 20.3666 173.333 19.9999Z" fill="#A0A0A0"/>
<defs>
<linearGradient id="paint0_linear_5519_13617" x1="23" y1="13.0097" x2="11.1486" y2="18.1674" gradientUnits="userSpaceOnUse">
<stop offset="0.13" stop-color="#0BEBE9"/>
<stop offset="0.2296" stop-color="#0DD9EB"/>
<stop offset="0.4306" stop-color="#12A8F1"/>
<stop offset="0.7121" stop-color="#1B5CFA"/>
<stop offset="0.87" stop-color="#202EFF"/>
</linearGradient>
<linearGradient id="paint1_linear_5519_13617" x1="23" y1="13.0097" x2="11.1486" y2="18.1674" gradientUnits="userSpaceOnUse">
<stop offset="0.13" stop-color="#0BEBE9"/>
<stop offset="0.2296" stop-color="#0DD9EB"/>
<stop offset="0.4306" stop-color="#12A8F1"/>
<stop offset="0.7121" stop-color="#1B5CFA"/>
<stop offset="0.87" stop-color="#202EFF"/>
</linearGradient>
<clipPath id="clip0_5519_13617">
<rect width="20" height="20" fill="white" transform="translate(28 26) rotate(-180)"/>
</clipPath>
</defs>
</svg>
