<svg width="61" height="19" viewBox="0 0 61 19" fill="none" xmlns="http://www.w3.org/2000/svg">
<g clip-path="url(#clip0_5519_13957)">
<path fill-rule="evenodd" clip-rule="evenodd" d="M5.2618 11.1124C4.75399 7.98659 13.8198 8.77024 12.7303 11.7659C12.2555 13.072 11.3116 15.6637 11.0079 16.4963C10.7042 17.329 9.72155 18.1756 8.41692 18.0615C7.11228 17.9473 6.28472 16.9054 6.13545 16.0698C5.98619 15.2341 5.38985 11.8961 5.26253 11.1124L5.2618 11.1124Z" fill="#0BEBE9"/>
<path d="M11.2879 11.9847C6.40304 12.8459 1.72743 9.57224 0.866211 4.68736L3.81938 4.16639C4.39377 7.42321 7.51011 9.60517 10.7669 9.03151C13.6169 8.52882 15.6438 6.0798 15.7213 3.29346C15.7411 2.58078 16.246 1.97492 16.9477 1.85126L16.9777 1.84614C17.8967 1.68443 18.7418 2.40004 18.7206 3.33297C18.6247 7.53078 15.5779 11.2281 11.2879 11.9847Z" fill="url(#paint0_linear_5519_13957)"/>
<path d="M9.72608 7.62354C11.7963 7.62354 13.4746 5.94526 13.4746 3.875C13.4746 1.80474 11.7963 0.126465 9.72608 0.126465C7.65582 0.126465 5.97754 1.80474 5.97754 3.875C5.97754 5.94526 7.65582 7.62354 9.72608 7.62354Z" fill="#202EFF"/>
<path d="M39.1309 13.8725L36.7924 13.8725L36.7924 13.2879C36.2224 13.7993 35.4621 14.092 34.5124 14.092C32.569 14.092 30.9321 12.5284 30.9321 10.2045C30.9321 7.88055 32.569 6.31689 34.5124 6.31689C35.4621 6.31689 36.2224 6.60885 36.7924 7.12104L36.7924 6.53641L39.1309 6.53641L39.1309 13.8732L39.1309 13.8725ZM36.7924 10.2045C36.7924 9.07909 35.9451 8.30421 34.9946 8.30421C33.9716 8.30421 33.226 9.07909 33.226 10.2045C33.226 11.3298 33.9716 12.1047 34.9946 12.1047C35.9443 12.1047 36.7924 11.3445 36.7924 10.2045Z" fill="#F8F3EE"/>
<path d="M51.3253 11.7096C51.0179 11.8852 50.5797 12.0023 50.2584 12.0023C49.6445 12.0023 49.2794 11.6957 49.2794 10.9355L49.2794 8.3928L51.4423 8.3928L51.4423 6.53646L49.2794 6.53646L49.2794 4.37354L46.9409 4.37354L46.9409 6.53646L43.5648 6.53646L43.5648 4.37354L41.2262 4.37354L41.2262 6.53646L39.896 6.53646L39.896 8.3928L41.2262 8.3928L41.2262 11.1696C41.2262 13.0991 42.3223 14.0928 44.1494 14.0928C44.9828 14.0928 45.5814 13.8587 46.1514 13.5521L45.6106 11.7104C45.3033 11.886 44.865 12.003 44.5438 12.003C43.9299 12.003 43.5648 11.6965 43.5648 10.9362L43.5648 8.39354L46.9409 8.39354L46.9409 11.1704C46.9409 13.0999 48.037 14.0935 49.864 14.0935C50.6975 14.0935 51.296 13.8594 51.866 13.5528L51.3253 11.7111L51.3253 11.7096Z" fill="#F8F3EE"/>
<path d="M60.3702 13.8618L58.0316 13.8618L58.0316 13.2771C57.4616 13.7886 56.7014 14.0813 55.7516 14.0813C53.8082 14.0813 52.1714 12.5176 52.1714 10.1937C52.1714 7.86981 53.8082 6.30615 55.7516 6.30615C56.7014 6.30615 57.4616 6.5981 58.0316 7.1103L58.0316 6.52566L60.3702 6.52566L60.3702 13.8625L60.3702 13.8618ZM58.0316 10.1937C58.0316 9.06835 57.1843 8.29347 56.2338 8.29347C55.2109 8.29347 54.4653 9.06835 54.4653 10.1937C54.4653 11.3191 55.2109 12.094 56.2338 12.094C57.1836 12.094 58.0316 11.3337 58.0316 10.1937Z" fill="#F8F3EE"/>
<path d="M29.5191 4.37354L27.2999 8.52744L25.0484 4.37354L22.3594 4.37354L25.9616 10.8521L24.2552 13.8726L26.9443 13.8726L32.2082 4.37354L29.5191 4.37354Z" fill="#F8F3EE"/>
</g>
<defs>
<linearGradient id="paint0_linear_5519_13957" x1="0.866211" y1="6.97322" x2="18.7213" y2="6.97322" gradientUnits="userSpaceOnUse">
<stop offset="0.13" stop-color="#0BEBE9"/>
<stop offset="0.23" stop-color="#0DD8EB"/>
<stop offset="0.43" stop-color="#12A8F0"/>
<stop offset="0.71" stop-color="#1A5BF9"/>
<stop offset="0.87" stop-color="#202EFF"/>
</linearGradient>
<clipPath id="clip0_5519_13957">
<rect width="59.6341" height="18" fill="white" transform="translate(0.805664 0.0864258)"/>
</clipPath>
</defs>
</svg>
