<svg width="60" height="19" viewBox="0 0 60 19" fill="none" xmlns="http://www.w3.org/2000/svg">
<g clip-path="url(#clip0_5519_13927)">
<path fill-rule="evenodd" clip-rule="evenodd" d="M4.7618 11.1124C4.25392 7.98689 13.3196 8.77061 12.2301 11.7658C11.7551 13.0718 10.8116 15.6634 10.5076 16.4964C10.2036 17.3293 9.22116 18.1757 7.91656 18.0615C6.61195 17.9474 5.78406 16.9052 5.63509 16.0701C5.48604 15.2345 4.8892 11.8965 4.7618 11.1124Z" fill="#0BEBE9"/>
<path d="M10.7884 11.9847C5.90324 12.8461 1.22809 9.57254 0.366699 4.68737L3.31986 4.16665C3.89412 7.42342 7.01086 9.6058 10.2676 9.03154C13.1173 8.52906 15.1444 6.08 15.2219 3.29379C15.2418 2.58112 15.7465 1.9755 16.4486 1.85169L16.4783 1.84646C17.3973 1.68442 18.2422 2.40046 18.2209 3.33334C18.1252 7.53115 15.0781 11.2283 10.7884 11.9847Z" fill="url(#paint0_linear_5519_13927)"/>
<path d="M9.22594 7.62327C11.2961 7.62327 12.9743 5.94506 12.9743 3.87487C12.9743 1.80468 11.2961 0.126465 9.22594 0.126465C7.15576 0.126465 5.47754 1.80468 5.47754 3.87487C5.47754 5.94506 7.15576 7.62327 9.22594 7.62327Z" fill="#202EFF"/>
<path d="M38.631 13.873L36.2926 13.873L36.2926 13.2884C35.7227 13.7999 34.9626 14.0922 34.0127 14.0922C32.069 14.0922 30.4321 12.5284 30.4321 10.2046C30.4321 7.89549 32.069 6.31714 34.0127 6.31714C34.9627 6.31714 35.7227 6.6094 36.2926 7.12092L36.2926 6.53633L38.631 6.53633L38.631 13.873ZM36.2926 10.2046C36.2926 9.07932 35.445 8.30475 34.495 8.30475C33.472 8.30475 32.7266 9.07932 32.7266 10.2046C32.7266 11.3446 33.472 12.1045 34.495 12.1045C35.445 12.1045 36.2926 11.3446 36.2926 10.2046Z" fill="#353535"/>
<path d="M50.8258 11.7098C50.5188 11.8853 50.0805 12.0022 49.7589 12.0022C49.1451 12.0022 48.7797 11.6953 48.7797 10.9353L48.7797 8.39229L50.9427 8.39229L50.9427 6.53624L48.7797 6.53624L48.7797 4.37329L46.4413 4.37329L46.4413 6.53624L45.2283 6.53624L45.1114 6.53624L43.0653 6.53624L43.0653 4.37329L40.7269 4.37329L40.7269 6.53624L39.397 6.53624L39.397 8.39229L40.7269 8.39229L40.7269 11.1691C40.7269 13.0983 41.823 14.0921 43.6499 14.0921C44.483 14.0921 45.0821 13.8582 45.6521 13.5513L45.1114 11.7098C44.8044 11.8853 44.366 12.0022 44.0445 12.0022C43.4307 12.0022 43.0653 11.6953 43.0653 10.9353L43.0653 8.39229L45.1114 8.39229L45.2283 8.39229L46.4413 8.39229L46.4413 11.1691C46.4413 13.0983 47.5375 14.0921 49.3643 14.0921C50.1974 14.0921 50.7965 13.8582 51.3665 13.5513L50.8258 11.7098Z" fill="#353535"/>
<path d="M59.9063 13.873L57.568 13.873L57.568 13.2884C56.998 13.7999 56.238 14.0922 55.2881 14.0922C53.3444 14.0922 51.7075 12.5284 51.7075 10.2046C51.7075 7.89549 53.3444 6.31714 55.2881 6.31714C56.238 6.31714 56.998 6.6094 57.568 7.12092L57.568 6.53633L59.9063 6.53633L59.9063 13.873ZM57.568 10.2046C57.568 9.07932 56.7203 8.30475 55.7704 8.30475C54.7474 8.30475 54.002 9.07932 54.002 10.2046C54.002 11.3446 54.7474 12.1045 55.7704 12.1045C56.7203 12.1045 57.568 11.3446 57.568 10.2046Z" fill="#353535"/>
<path d="M29.0189 4.37329L26.7998 8.52729L24.5484 4.37329L21.8594 4.37329L25.4618 10.852L23.7554 13.8729L26.4445 13.8729L31.708 4.37329L29.0189 4.37329Z" fill="#353535"/>
</g>
<defs>
<linearGradient id="paint0_linear_5519_13927" x1="0.366699" y1="6.97288" x2="18.2213" y2="6.97288" gradientUnits="userSpaceOnUse">
<stop offset="0.13" stop-color="#0BEBE9"/>
<stop offset="0.2296" stop-color="#0DD9EB"/>
<stop offset="0.4306" stop-color="#12A8F1"/>
<stop offset="0.7121" stop-color="#1B5CFA"/>
<stop offset="0.87" stop-color="#202EFF"/>
</linearGradient>
<clipPath id="clip0_5519_13927">
<rect width="59.6341" height="18" fill="white" transform="translate(0.305664 0.0864258)"/>
</clipPath>
</defs>
</svg>
