<?xml version="1.0" encoding="UTF-8"?>
<svg xmlns="http://www.w3.org/2000/svg" xmlns:xlink="http://www.w3.org/1999/xlink" version="1.2" >
<font id="PFIsotextPro-Bold">
<font-face  font-family="PF Isotext Pro" units-per-em="1000" ascent="750" descent="-250" font-style="normal" font-weight="700" font-stretch="normal" cap-height="669" x-height="468" underline-position="-85" underline-thickness="70" />
<missing-glyph  horiz-adv-x="454" d="M0 700 L454 700 L454 0 L0 0 L0 700 Z M327 85 L227 266 L127 85 L327 85 Z M327 615 L127 615 L227 434 L327 615 Z M369 184 L369 516 L277 350 L369 184 Z M85 184 L177 350 L85 516 L85 184 Z " />
<glyph glyph-name="NULL" d="" />
<glyph glyph-name="carriagereturn" unicode="&#xd;" horiz-adv-x="860" d="M693 679 Q693 685 698 689 Q703 693 710 693 L796 693 Q803 693 805.5 688 Q808 683 808 678 L808 298 Q807 278 797 273 Q787 268 773 268 L286 268 Q281 266 279.5 262 Q278 258 284 253 L366 170 Q372 165 370.5 158 Q369 151 364 146 L303 86 Q298 81 291.5 83 Q285 85 279 91 L59 311 Q48 321 59 332 L283 557 Q288 562 293 561 Q298 560 303 557 L364 494 Q369 490 370 484 Q371 478 366 474 L284 392 Q280 388 281.5 383 Q283 378 289 378 L681 378 Q689 378 691 381.5 Q693 385 693 394 L693 679 Z " />
<glyph glyph-name="space" unicode="&#x20;" horiz-adv-x="320" d="" />
<glyph glyph-name="dollar" unicode="&#x24;" horiz-adv-x="520" d="M212 699 Q212 710 221.5 721.5 Q231 733 253 733 Q273 733 284 722.5 Q295 712 295 701 L295 651 L403 651 Q410 651 418 647.5 Q426 644 433 637 Q440 630 445 619 Q450 608 450 594 Q450 576 445 565 Q440 554 433 548 Q426 542 418 539.5 Q410 537 403 537 L295 537 L295 385 L318 376 Q348 364 377 349 Q406 334 429.5 313 Q453 292 467.5 262.5 Q482 233 482 193 Q482 156 469 123 Q456 90 432.5 65 Q409 40 376 25.5 Q343 11 303 11 L295 11 L295 -38 Q295 -49 284 -59.5 Q273 -70 253 -70 Q231 -70 221.5 -59 Q212 -48 212 -37 L212 11 L99 11 Q84 11 68 23 Q52 35 52 69 Q52 85 57 96 Q62 107 69.5 113.5 Q77 120 85 122.5 Q93 125 99 125 L212 125 L212 295 L176 310 Q147 322 122 335 Q97 348 78 366.5 Q59 385 48 412 Q37 439 37 479 Q37 515 48.5 546 Q60 577 82 600 Q104 623 136.5 636.5 Q169 650 212 651 L212 699 Z M305 125 Q326 125 342.5 140.5 Q359 156 359 188 Q359 211 341.5 229.5 Q324 248 295 261 L295 125 L305 125 Z M155 481 Q155 458 168 444 Q181 430 207 421 L212 419 L212 537 L210 537 Q187 537 171 523 Q155 509 155 481 Z " />
<glyph glyph-name="percent" unicode="&#x25;" horiz-adv-x="821" d="M192 668 Q252 668 288 635.5 Q324 603 324 537 L324 394 Q324 361 313.5 336.5 Q303 312 285 295.5 Q267 279 243 271 Q219 263 192 263 L177 263 Q119 263 80.5 295.5 Q42 328 42 394 L42 537 Q42 570 53 594.5 Q64 619 83 635.5 Q102 652 126 660 Q150 668 177 668 L192 668 Z M229 543 Q229 562 218 573.5 Q207 585 187 585 L181 585 Q161 585 149 573.5 Q137 562 137 543 L137 388 Q137 368 149 356.5 Q161 345 181 345 L187 345 Q205 345 217 357.5 Q229 370 229 388 L229 543 Z M647 405 Q707 405 743 372.5 Q779 340 779 274 L779 131 Q779 98 768.5 73.5 Q758 49 740 32.5 Q722 16 698 8 Q674 0 647 0 L632 0 Q574 0 535.5 32.5 Q497 65 497 131 L497 274 Q497 307 508 331.5 Q519 356 538 372.5 Q557 389 581 397 Q605 405 632 405 L647 405 Z M684 280 Q684 299 673 310.5 Q662 322 642 322 L636 322 Q616 322 604 310.5 Q592 299 592 280 L592 125 Q592 105 604 93.5 Q616 82 636 82 L642 82 Q660 82 672 94.5 Q684 107 684 125 L684 280 Z M486 661 Q492 677 503.5 683.5 Q515 690 529 690 Q535 690 543.5 688 Q552 686 560 681.5 Q568 677 573.5 668 Q579 659 579 646 Q579 636 575 627 L340 18 Q326 -17 295 -17 Q269 -17 256 -4 Q243 9 243 26 Q243 37 248 49 L486 661 Z " />
<glyph glyph-name="ampersand" unicode="&#x26;" horiz-adv-x="650" d="M60 395 Q60 447 75.5 486.5 Q91 526 116.5 551.5 Q142 577 174.5 590 Q207 603 242 603 L396 603 Q454 603 454 542 Q454 512 439.5 498.5 Q425 485 396 485 L252 485 Q217 485 197.5 460.5 Q178 436 178 398 L178 205 Q178 167 196 142 Q214 117 248 117 L284 117 Q310 117 328.5 125.5 Q347 134 359 148.5 Q371 163 376.5 182 Q382 201 382 222 L382 278 L304 278 Q275 278 261.5 290.5 Q248 303 248 335 Q248 364 261.5 379.5 Q275 395 304 395 L483 395 Q498 395 510.5 399.5 Q523 404 533 410 Q543 416 551.5 420.5 Q560 425 569 425 Q581 425 592 419.5 Q603 414 611.5 404.5 Q620 395 625 383.5 Q630 372 630 360 Q630 342 617.5 327 Q605 312 586 301 Q567 290 545.5 284 Q524 278 505 278 L500 278 L500 225 Q500 171 482.5 129 Q465 87 436 58.5 Q407 30 368.5 15 Q330 0 288 0 L242 0 Q202 0 168.5 13 Q135 26 111 51.5 Q87 77 73.5 116 Q60 155 60 208 L60 395 Z " />
<glyph glyph-name="quoteright" unicode="&#x2019;" horiz-adv-x="216" d="M128 472 Q123 461 111.5 451.5 Q100 442 81 442 Q66 442 55 447 Q44 452 37 459.5 Q30 467 27 475.5 Q24 484 24 491 Q24 493 24.5 495.5 Q25 498 25 500 L52 639 Q56 659 73 676.5 Q90 694 119 694 Q155 694 172.5 673 Q190 652 190 628 Q190 615 186 606 L128 472 Z " />
<glyph glyph-name="parenleft" unicode="&#x28;" horiz-adv-x="284" d="M151 316 Q151 270 158.5 224.5 Q166 179 179 137 Q192 95 209 58.5 Q226 22 246 -6 Q253 -16 255.5 -24 Q258 -32 258 -39 Q258 -49 253 -58.5 Q248 -68 239.5 -75 Q231 -82 221 -86.5 Q211 -91 202 -91 Q177 -91 162 -71 Q137 -38 113 5.5 Q89 49 70 99.5 Q51 150 39.5 205 Q28 260 28 316 Q28 360 36.5 408 Q45 456 59 503 Q73 550 91.5 592.5 Q110 635 129.5 667.5 Q149 700 169 719 Q189 738 207 738 Q219 738 229.5 733 Q240 728 247.5 720.5 Q255 713 259 704 Q263 695 263 688 Q263 670 251 652 Q203 577 177 491.5 Q151 406 151 316 Z " />
<glyph glyph-name="parenright" unicode="&#x29;" horiz-adv-x="284" d="M133 316 Q133 406 107 491.5 Q81 577 33 652 Q21 670 21 688 Q21 695 25 704 Q29 713 36.5 720.5 Q44 728 54.5 733 Q65 738 77 738 Q94 738 114.5 719 Q135 700 154.5 667.5 Q174 635 192.5 592.5 Q211 550 225 503 Q239 456 247.5 408 Q256 360 256 316 Q256 260 244.5 205 Q233 150 214 99.5 Q195 49 171 5.5 Q147 -38 122 -71 Q114 -81 104 -86 Q94 -91 83 -91 Q74 -91 63.5 -86.5 Q53 -82 45 -75 Q37 -68 31.5 -58.5 Q26 -49 26 -39 Q26 -32 28.5 -24 Q31 -16 38 -6 Q57 22 74.5 58.5 Q92 95 105 137 Q118 179 125.5 224.5 Q133 270 133 316 Z " />
<glyph glyph-name="asterisk" unicode="&#x2a;" horiz-adv-x="431" d="M354 599 Q359 601 365 602.5 Q371 604 377 604 Q395 604 406 584 Q410 576 410 567 Q410 556 403.5 549 Q397 542 387 534 L293 470 L355 370 Q362 358 362 345 Q362 328 348 317 Q338 310 328 310 Q313 310 298 327 L213 420 L120 323 Q114 318 108 315 Q102 312 94 312 Q82 312 72 322 L72 321 Q58 332 58 345 Q58 352 61 359 Q64 366 69 373 L131 469 L38 531 Q29 538 22 546 Q15 554 15 565 Q15 574 20 583 Q26 594 33 597.5 Q40 601 48 601 Q58 601 70 596 Q91 588 116 577.5 Q141 567 164 559 L175 656 Q177 670 184 683 Q191 696 211 696 Q232 696 238 684 Q244 672 246 658 L259 560 L354 599 Z " />
<glyph glyph-name="plus" unicode="&#x2b;" horiz-adv-x="520" d="M316 269 L316 161 Q316 139 302.5 124 Q289 109 259 109 Q231 109 218 124.5 Q205 140 205 161 L205 269 L88 269 Q64 269 48 282 Q32 295 32 321 Q32 348 48.5 361 Q65 374 88 374 L205 374 L205 484 Q205 505 217.5 520 Q230 535 259 535 Q289 535 302.5 521.5 Q316 508 316 484 L316 374 L432 374 Q455 374 471.5 361 Q488 348 488 321 Q488 295 473 282 Q458 269 432 269 L316 269 Z " />
<glyph glyph-name="comma" unicode="&#x2c;" horiz-adv-x="188" d="M110 -87 Q105 -98 93.5 -107.5 Q82 -117 63 -117 Q48 -117 37 -112 Q26 -107 19 -99.5 Q12 -92 9 -83.5 Q6 -75 6 -68 Q6 -66 6.5 -63.5 Q7 -61 7 -59 L34 80 Q38 100 55 117.5 Q72 135 101 135 Q137 135 154.5 114 Q172 93 172 69 Q172 56 168 47 L110 -87 Z " />
<glyph glyph-name="hyphen" unicode="&#x2d;" horiz-adv-x="383" d="M298 298 Q358 298 358 241 Q358 185 298 185 L85 185 Q25 185 25 241 Q25 298 85 298 L298 298 Z " />
<glyph glyph-name="period" unicode="&#x2e;" horiz-adv-x="207" d="M104 0 Q74 0 54 20 Q34 40 34 67 Q34 101 55.5 117.5 Q77 134 103 134 Q129 134 150.5 117.5 Q172 101 172 67 Q172 41 153 20.5 Q134 0 104 0 Z " />
<glyph glyph-name="slash" unicode="&#x2f;" horiz-adv-x="503" d="M126 -23 Q111 -52 81 -52 Q57 -52 37.5 -37 Q18 -22 18 4 Q18 19 23 28 L357 688 Q364 702 376.5 708 Q389 714 403 714 Q429 714 447.5 698 Q466 682 466 661 Q466 650 460 638 L126 -23 Z " />
<glyph glyph-name="zero" unicode="0" horiz-adv-x="520" d="M275 669 Q318 669 353 656 Q388 643 413 616.5 Q438 590 452 551 Q466 512 466 460 L466 208 Q466 156 451 117 Q436 78 410 52 Q384 26 349 13 Q314 0 275 0 L251 0 Q209 0 173 13 Q137 26 110.5 52 Q84 78 69 117 Q54 156 54 208 L54 460 Q54 512 70 551 Q86 590 113 616.5 Q140 643 176 656 Q212 669 251 669 L275 669 Z M349 466 Q349 506 327 530 Q305 554 267 554 L258 554 Q220 554 196 530 Q172 506 172 466 L172 202 Q172 160 195 137 Q218 114 258 114 L267 114 Q303 114 326 139 Q349 164 349 202 L349 466 Z " />
<glyph glyph-name="one" unicode="1" horiz-adv-x="520" d="M284 -5 Q248 -5 236 11.5 Q224 28 224 48 L224 501 L172 461 Q155 449 137 449 Q117 449 98 466 Q79 483 79 511 Q79 536 100 553 L229 653 Q246 666 257 669 Q268 672 283 672 Q315 672 328 660 Q341 648 341 610 L341 46 Q341 37 338.5 28 Q336 19 329.5 11.5 Q323 4 312 -0.5 Q301 -5 284 -5 Z " />
<glyph glyph-name="two" unicode="2" horiz-adv-x="520" d="M131 551 Q104 551 89 565 Q74 579 74 609 Q74 638 89 653.5 Q104 669 131 669 L299 669 Q385 669 430.5 622 Q476 575 476 500 Q476 459 464.5 428 Q453 397 433.5 373.5 Q414 350 389 332.5 Q364 315 336 301 L226 244 Q162 208 162 152 L162 117 L415 117 Q472 117 472 60 Q472 0 415 0 L106 0 Q74 0 59 17 Q44 34 44 57 L44 148 Q44 217 74 262 Q104 307 170 344 Q202 361 235 378 Q268 395 300 412 Q326 426 342 448.5 Q358 471 358 495 Q358 524 339.5 537.5 Q321 551 299 551 L131 551 Z " />
<glyph glyph-name="three" unicode="3" horiz-adv-x="520" d="M266 669 Q293 669 325 661.5 Q357 654 384 634 Q411 614 429.5 579.5 Q448 545 448 491 Q448 453 431.5 418.5 Q415 384 382 367 Q420 344 436.5 305 Q453 266 453 221 L453 211 Q453 159 437 119.5 Q421 80 394.5 53.5 Q368 27 332.5 13.5 Q297 0 258 0 L89 0 Q74 0 57 14 Q40 28 40 59 Q40 93 56.5 104.5 Q73 116 89 116 L252 116 Q291 116 314 141.5 Q337 167 337 207 L337 222 Q337 261 311.5 284.5 Q286 308 245 308 L152 308 Q135 308 119 321 Q103 334 103 365 Q103 397 119.5 408 Q136 419 151 419 L253 419 Q282 419 306 435.5 Q330 452 330 489 Q330 524 306 538.5 Q282 553 254 553 L103 553 Q86 553 70 564 Q54 575 54 609 Q54 625 59 636 Q64 647 71.5 654.5 Q79 662 87.5 665.5 Q96 669 103 669 L266 669 Z " />
<glyph glyph-name="four" unicode="4" horiz-adv-x="520" d="M85 121 Q48 121 35.5 133.5 Q23 146 22 178 Q22 193 25.5 203 Q29 213 37 233 L206 637 Q218 666 238 671.5 Q258 677 281 671 Q303 663 314.5 644 Q326 625 315 598 L163 238 L279 238 L279 346 Q279 368 292 383.5 Q305 399 337 399 Q368 399 381.5 381.5 Q395 364 395 346 L395 238 L453 238 Q470 238 487 224 Q504 210 504 180 Q504 154 491.5 137.5 Q479 121 453 121 L395 121 L395 43 Q395 24 381.5 9 Q368 -6 337 -6 Q305 -6 292 9 Q279 24 279 43 L279 121 L85 121 Z " />
<glyph glyph-name="five" unicode="5" horiz-adv-x="520" d="M104 0 Q97 0 88.5 3.5 Q80 7 72.5 14 Q65 21 60 32 Q55 43 55 59 Q55 76 60 87 Q65 98 72.5 104 Q80 110 88.5 112.5 Q97 115 104 115 L276 115 Q314 115 331 139 Q348 163 348 203 L348 230 Q348 268 330.5 289.5 Q313 311 278 311 L116 311 Q98 311 86 317.5 Q74 324 67.5 333.5 Q61 343 58 354 Q55 365 55 374 L55 604 Q55 615 58 626 Q61 637 67.5 646 Q74 655 86 661 Q98 667 116 667 L402 667 Q423 667 437.5 653.5 Q452 640 452 608 Q452 591 446.5 580 Q441 569 433.5 563 Q426 557 417.5 554.5 Q409 552 402 552 L169 552 L169 427 L285 427 Q324 427 357.5 415.5 Q391 404 415.5 379 Q440 354 453.5 316 Q467 278 467 226 L467 207 Q467 155 453.5 116 Q440 77 415.5 51.5 Q391 26 357.5 13 Q324 0 285 0 L104 0 Z " />
<glyph glyph-name="six" unicode="6" horiz-adv-x="520" d="M216 0 Q166 0 134 16.5 Q102 33 83 59 Q64 85 57 117 Q50 149 50 180 L50 461 Q50 518 67 557.5 Q84 597 110 621.5 Q136 646 168.5 657.5 Q201 669 231 669 L380 669 Q403 669 418 654.5 Q433 640 433 610 Q433 580 419.5 567 Q406 554 379 554 L247 554 Q210 554 187.5 532.5 Q165 511 165 464 L165 421 L293 421 Q332 421 365.5 409.5 Q399 398 423.5 374 Q448 350 461.5 312 Q475 274 475 221 L475 206 Q475 154 461.5 115 Q448 76 423.5 50.5 Q399 25 365.5 12.5 Q332 0 293 0 L216 0 Z M280 111 Q317 111 338.5 135 Q360 159 360 199 L360 225 Q360 264 340 285 Q320 306 284 306 L165 306 L165 177 Q165 167 167.5 155.5 Q170 144 176.5 134 Q183 124 195.5 117.5 Q208 111 228 111 L280 111 Z " />
<glyph glyph-name="seven" unicode="7" horiz-adv-x="520" d="M401 668 Q438 668 450.5 655.5 Q463 643 464 611 Q464 600 460.5 588 Q457 576 449 556 L256 33 Q248 13 232.5 3 Q217 -7 199 -7 Q171 -7 154.5 7.5 Q138 22 138 42 Q138 51 143 66 L326 552 L96 552 Q79 552 62.5 566.5 Q46 581 46 610 Q46 638 62.5 653 Q79 668 96 668 L401 668 Z " />
<glyph glyph-name="eight" unicode="8" horiz-adv-x="520" d="M51 220 Q51 268 69 307.5 Q87 347 121 366 Q86 386 73 418.5 Q60 451 60 484 Q60 528 74 563 Q88 598 113 622 Q138 646 172 659 Q206 672 245 672 L273 672 Q312 672 346 660 Q380 648 405 624.5 Q430 601 444.5 566.5 Q459 532 459 487 Q459 455 444.5 421 Q430 387 399 369 Q438 348 454 308.5 Q470 269 470 220 L470 207 Q470 154 454.5 115.5 Q439 77 412 51 Q385 25 349.5 12.5 Q314 0 275 0 L240 0 Q201 0 166.5 12.5 Q132 25 106.5 51 Q81 77 66 115.5 Q51 154 51 207 L51 220 Z M267 110 Q305 110 329.5 137.5 Q354 165 354 205 L354 219 Q354 258 331.5 286.5 Q309 315 272 315 L248 315 Q211 315 188.5 286.5 Q166 258 166 219 L166 205 Q166 165 188 137.5 Q210 110 247 110 L267 110 Z M251 564 Q214 564 194 541.5 Q174 519 174 488 Q174 459 192.5 438.5 Q211 418 242 418 L275 418 Q306 418 325.5 440 Q345 462 345 488 Q345 517 325.5 540.5 Q306 564 269 564 L251 564 Z " />
<glyph glyph-name="nine" unicode="9" horiz-adv-x="520" d="M304 669 Q354 669 386 652.5 Q418 636 437 610 Q456 584 463 552 Q470 520 470 489 L470 208 Q470 151 453 111.5 Q436 72 410 47.5 Q384 23 351.5 11.5 Q319 0 289 0 L140 0 Q117 0 102 14.5 Q87 29 87 59 Q87 89 100.5 102 Q114 115 141 115 L273 115 Q310 115 332.5 136.5 Q355 158 355 205 L355 248 L227 248 Q188 248 154.5 259.5 Q121 271 96.5 295 Q72 319 58.5 357 Q45 395 45 448 L45 463 Q45 515 58.5 554 Q72 593 96.5 618.5 Q121 644 154.5 656.5 Q188 669 227 669 L304 669 Z M240 556 Q203 556 181.5 532 Q160 508 160 468 L160 444 Q160 405 180 384 Q200 363 236 363 L355 363 L355 490 Q355 500 352.5 511.5 Q350 523 343.5 533 Q337 543 324.5 549.5 Q312 556 292 556 L240 556 Z " />
<glyph glyph-name="colon" unicode="&#x3a;" horiz-adv-x="203" d="M104 0 Q74 0 54 20 Q34 40 34 67 Q34 101 55.5 117.5 Q77 134 103 134 Q129 134 150.5 117.5 Q172 101 172 67 Q172 41 153 20.5 Q134 0 104 0 Z M104 229 Q74 229 54 249 Q34 269 34 296 Q34 330 55.5 346.5 Q77 363 103 363 Q129 363 150.5 346.5 Q172 330 172 296 Q172 270 153 249.5 Q134 229 104 229 Z " />
<glyph glyph-name="semicolon" unicode="&#x3b;" horiz-adv-x="203" d="M104 229 Q74 229 54 249 Q34 269 34 296 Q34 330 55.5 346.5 Q77 363 103 363 Q129 363 150.5 346.5 Q172 330 172 296 Q172 270 153 249.5 Q134 229 104 229 Z M110 -87 Q105 -98 93.5 -107.5 Q82 -117 63 -117 Q48 -117 37 -112 Q26 -107 19 -99.5 Q12 -92 9 -83.5 Q6 -75 6 -68 Q6 -66 6.5 -63.5 Q7 -61 7 -59 L34 80 Q38 100 55 117.5 Q72 135 101 135 Q137 135 154.5 114 Q172 93 172 69 Q172 56 168 47 L110 -87 Z " />
<glyph glyph-name="less" unicode="&#x3c;" horiz-adv-x="520" d="M218 322 L472 236 Q493 229 502 216.5 Q511 204 511 190 Q511 160 494 144.5 Q477 129 458 129 Q452 129 446 130 Q440 131 434 133 L54 262 Q33 270 20.5 281 Q8 292 8 318 Q8 331 10 339 Q12 347 17.5 353 Q23 359 31.5 363.5 Q40 368 52 373 L433 534 Q446 539 456 539 Q477 539 493.5 522.5 Q510 506 510 479 Q510 448 474 432 L218 326 L218 322 Z " />
<glyph glyph-name="equal" unicode="&#x3d;" horiz-adv-x="520" d="M93 358 Q33 358 33 413 Q33 466 93 466 L426 466 Q486 466 486 413 Q486 358 426 358 L93 358 Z M93 202 Q33 202 33 255 Q33 310 93 310 L426 310 Q486 310 486 255 Q486 202 426 202 L93 202 Z " />
<glyph glyph-name="greater" unicode="&#x3e;" horiz-adv-x="520" d="M302 326 L46 432 Q9 448 9 479 Q9 506 27 522.5 Q45 539 64 539 Q75 539 87 534 L468 373 Q480 368 488.5 363.5 Q497 359 502.5 353 Q508 347 510 339 Q512 331 512 318 Q512 292 499.5 281 Q487 270 466 262 L86 133 Q80 131 74 130 Q68 129 62 129 Q43 129 26 144.5 Q9 160 9 190 Q9 204 18 216.5 Q27 229 48 236 L302 322 L302 326 Z " />
<glyph glyph-name="question" unicode="&#x3f;" horiz-adv-x="470" d="M237 0 Q209 0 190 18.5 Q171 37 171 64 Q171 96 191.5 112 Q212 128 237 128 Q262 128 282.5 112 Q303 96 303 64 Q303 37 284.5 18.5 Q266 0 237 0 Z M231 668 Q420 668 420 516 Q420 493 408 464 Q396 435 379 415 L333 363 Q314 339 307 321.5 Q300 304 300 286 L300 233 Q300 215 284.5 199 Q269 183 237 183 Q230 183 220.5 185.5 Q211 188 202 194 Q193 200 186.5 209.5 Q180 219 180 233 L180 313 Q180 335 190 354.5 Q200 374 215 393 L271 464 Q281 476 286.5 486 Q292 496 292 512 Q292 533 270.5 543.5 Q249 554 217 554 Q192 554 169 547 Q146 540 114 529 Q99 524 88 524 Q70 524 54 539 Q38 554 38 586 Q38 608 59 624 Q80 640 110 649.5 Q140 659 173 663.5 Q206 668 231 668 Z " />
<glyph glyph-name="at" unicode="&#x40;" horiz-adv-x="919" d="M652 223 Q652 209 659.5 200.5 Q667 192 685 192 Q708 192 724 205 Q740 218 750.5 240.5 Q761 263 765.5 292 Q770 321 770 354 Q770 417 747 469 Q724 521 683.5 558.5 Q643 596 587.5 617 Q532 638 467 638 Q401 638 343.5 614.5 Q286 591 243.5 547 Q201 503 176 438.5 Q151 374 151 293 Q151 223 172 165 Q193 107 233 66 Q273 25 330 2 Q387 -21 458 -21 Q497 -21 536.5 -13.5 Q576 -6 608 11 Q620 17 631 17 Q653 17 666 0.5 Q679 -16 679 -34 Q679 -55 656 -71 Q633 -87 598.5 -97.5 Q564 -108 523.5 -113.5 Q483 -119 449 -119 Q359 -119 285.5 -88.5 Q212 -58 159.5 -4 Q107 50 78.5 125.5 Q50 201 50 291 Q50 384 79 465.5 Q108 547 162.5 607 Q217 667 295.5 702 Q374 737 472 737 Q556 737 628.5 709.5 Q701 682 754.5 631.5 Q808 581 838.5 510.5 Q869 440 869 354 Q869 286 854 238 Q839 190 813.5 159 Q788 128 755 114 Q722 100 685 100 Q624 100 586.5 130 Q549 160 549 224 L549 284 L372 284 Q358 284 348 275 Q338 266 338 252 L338 247 Q338 235 346 222.5 Q354 210 372 210 L478 210 Q485 210 492.5 207 Q500 204 507 198 Q514 192 518.5 182 Q523 172 523 158 Q523 128 507.5 117 Q492 106 478 106 L363 106 Q306 106 269.5 143.5 Q233 181 233 246 L233 253 Q233 278 241 302.5 Q249 327 266 346 Q283 365 309 377 Q335 389 372 389 L546 389 L546 395 Q546 418 529 430 Q512 442 484 442 L349 442 Q335 442 319 452.5 Q303 463 303 492 Q303 521 319 533.5 Q335 546 349 546 L480 546 Q566 546 609 501 Q652 456 652 375 L652 223 Z " />
<glyph glyph-name="A" unicode="A" horiz-adv-x="567" d="M281 474 L209 260 L357 260 Q339 313 321.5 366.5 Q304 420 285 474 L281 474 Z M169 149 L129 34 Q116 -6 76 -6 Q44 -6 27 11 Q10 28 10 50 Q10 55 11 61 Q12 67 14 72 L207 619 Q215 640 227.5 654 Q240 668 268 668 L298 668 Q325 668 338 654.5 Q351 641 359 619 L553 72 Q557 63 557 51 Q557 28 538 11 Q519 -6 489 -6 Q453 -6 437 35 L395 149 L169 149 Z " />
<glyph glyph-name="B" unicode="B" horiz-adv-x="611" d="M180 552 L180 413 L363 413 Q372 413 381.5 417.5 Q391 422 399 431.5 Q407 441 412.5 454.5 Q418 468 418 486 Q418 519 398.5 535.5 Q379 552 358 552 L180 552 Z M180 302 L180 116 L369 116 Q380 116 392.5 121 Q405 126 416 137 Q427 148 434.5 165.5 Q442 183 442 209 Q442 225 436 241.5 Q430 258 419 271.5 Q408 285 392 293.5 Q376 302 356 302 L180 302 Z M120 0 Q60 0 60 60 L60 610 Q60 668 120 668 L375 668 Q407 668 437 655.5 Q467 643 489.5 620 Q512 597 525.5 564 Q539 531 539 489 Q539 457 526.5 422.5 Q514 388 483 363 Q501 350 515.5 335.5 Q530 321 540 302.5 Q550 284 555.5 260.5 Q561 237 561 207 Q561 156 543.5 117.5 Q526 79 498 52.5 Q470 26 435 13 Q400 0 366 0 L120 0 Z " />
<glyph glyph-name="C" unicode="C" horiz-adv-x="531" d="M242 0 Q203 0 168 12.5 Q133 25 106.5 50 Q80 75 65 113.5 Q50 152 50 205 L50 459 Q50 511 65.5 550 Q81 589 107 615.5 Q133 642 168.5 655 Q204 668 243 668 L452 668 Q480 668 493 652.5 Q506 637 506 610 Q506 583 493 567.5 Q480 552 452 552 L247 552 Q209 552 189 528 Q169 504 169 464 L169 203 Q169 162 189.5 139.5 Q210 117 247 117 L452 116 Q479 116 492.5 100.5 Q506 85 506 58 Q506 31 492.5 15.5 Q479 0 452 0 L242 0 Z " />
<glyph glyph-name="D" unicode="D" horiz-adv-x="622" d="M452 464 Q452 506 431 529 Q410 552 363 552 L180 552 L180 116 L365 116 Q411 116 431.5 138.5 Q452 161 452 203 L452 464 Z M121 0 Q60 0 60 58 L60 610 Q60 668 121 668 L388 668 Q428 668 461.5 655 Q495 642 519.5 616.5 Q544 591 558 552 Q572 513 572 461 L572 207 Q572 156 557.5 117.5 Q543 79 517 52.5 Q491 26 456 13 Q421 0 379 0 L121 0 Z " />
<glyph glyph-name="E" unicode="E" horiz-adv-x="534" d="M121 0 Q60 0 60 58 L60 610 Q60 668 121 668 L452 668 Q479 668 492.5 652.5 Q506 637 506 610 Q506 583 492.5 567.5 Q479 552 452 552 L180 552 L180 410 L410 410 Q437 410 449.5 394.5 Q462 379 462 352 Q462 325 449.5 310 Q437 295 410 295 L180 295 L180 116 L452 116 Q479 116 492.5 100.5 Q506 85 506 58 Q506 31 492.5 15.5 Q479 0 452 0 L121 0 Z " />
<glyph glyph-name="F" unicode="F" horiz-adv-x="531" d="M180 552 L180 410 L410 410 Q437 410 449.5 394.5 Q462 379 462 352 Q462 325 449.5 310 Q437 295 410 295 L180 295 L180 48 Q180 19 165 7 Q150 -5 121 -5 Q90 -5 75 7 Q60 19 60 48 L60 610 Q60 668 121 668 L452 668 Q479 668 492.5 652.5 Q506 637 506 610 Q506 583 492.5 567.5 Q479 552 452 552 L180 552 Z " />
<glyph glyph-name="G" unicode="G" horiz-adv-x="587" d="M243 0 Q204 0 168.5 13 Q133 26 107 52.5 Q81 79 65.5 117.5 Q50 156 50 207 L50 461 Q50 513 66.5 552 Q83 591 110 616.5 Q137 642 171.5 655 Q206 668 243 668 L455 668 Q483 668 497 652.5 Q511 637 511 610 Q511 583 497 567.5 Q483 552 455 552 L260 552 Q213 552 191.5 529 Q170 506 170 464 L170 203 Q170 161 192 138.5 Q214 116 260 116 L422 116 L422 295 L339 295 Q312 295 298 310.5 Q284 326 284 353 Q284 380 298 395 Q312 410 339 410 L482 410 Q509 410 525.5 399 Q542 388 542 353 L542 58 Q542 31 528 15.5 Q514 0 484 0 L243 0 Z " />
<glyph glyph-name="H" unicode="H" horiz-adv-x="592" d="M477 -5 Q447 -5 432.5 8 Q418 21 418 50 L418 295 L174 295 L174 50 Q174 21 159.5 8 Q145 -5 115 -5 Q84 -5 69.5 8 Q55 21 55 50 L55 618 Q55 673 115 673 Q174 673 174 618 L174 410 L418 410 L418 618 Q418 673 477 673 Q537 673 537 618 L537 50 Q537 21 522.5 8 Q508 -5 477 -5 Z " />
<glyph glyph-name="I" unicode="I" horiz-adv-x="269" d="M135 -5 Q104 -5 89.5 8 Q75 21 75 50 L75 618 Q75 673 135 673 Q194 673 194 618 L194 50 Q194 21 179.5 8 Q165 -5 135 -5 Z " />
<glyph glyph-name="J" unicode="J" horiz-adv-x="433" d="M63 0 Q32 0 18.5 14.5 Q5 29 5 58 Q5 89 21.5 102.5 Q38 116 66 116 L152 116 Q191 116 212.5 140.5 Q234 165 234 204 L234 552 L120 552 Q93 552 79.5 567.5 Q66 583 66 610 Q66 637 79.5 652.5 Q93 668 120 668 L292 668 Q353 668 353 610 L353 207 Q353 173 343.5 136.5 Q334 100 312 69.5 Q290 39 252.5 19.5 Q215 0 160 0 L63 0 Z " />
<glyph glyph-name="K" unicode="K" horiz-adv-x="555" d="M182 411 L433 645 Q460 670 487 670 Q496 670 506 666 Q516 662 524.5 654.5 Q533 647 538.5 636.5 Q544 626 544 613 Q544 590 528 575 L314 380 Q367 309 421.5 234.5 Q476 160 529 88 Q542 70 542 52 Q542 39 536.5 29 Q531 19 522 11.5 Q513 4 502.5 0 Q492 -4 482 -4 Q467 -4 453 3 Q439 10 429 24 L226 303 L179 261 L179 53 Q179 -5 120 -5 Q60 -5 60 53 L60 615 Q60 673 120 673 Q179 673 179 615 L179 411 L182 411 Z " />
<glyph glyph-name="L" unicode="L" horiz-adv-x="511" d="M121 0 Q60 0 60 58 L60 615 Q60 673 121 673 Q180 673 180 615 L180 116 L451 116 Q478 116 492 100.5 Q506 85 506 58 Q506 31 492 15.5 Q478 0 451 0 L121 0 Z " />
<glyph glyph-name="M" unicode="M" horiz-adv-x="674" d="M340 388 L465 637 Q481 668 520 668 L554 668 Q614 668 614 610 L614 50 Q614 21 599.5 8 Q585 -5 554 -5 Q524 -5 509.5 8 Q495 21 495 50 L495 434 L491 434 L413 277 Q406 264 393.5 249.5 Q381 235 353 235 L320 235 Q293 235 280 250 Q267 265 260 278 L183 434 L179 434 L179 50 Q179 21 164.5 8 Q150 -5 120 -5 Q89 -5 74.5 8 Q60 21 60 50 L60 610 Q60 668 120 668 L154 668 Q169 668 178.5 664.5 Q188 661 195 654.5 Q202 648 207 639 Q212 630 217 620 L334 388 L340 388 Z " />
<glyph glyph-name="N" unicode="N" horiz-adv-x="619" d="M439 233 L439 619 Q439 674 499 674 Q559 674 559 619 L559 58 Q559 0 499 0 L469 0 Q443 0 432 10.5 Q421 21 411 38 L183 445 L180 445 L180 49 Q180 20 165 7 Q150 -6 120 -6 Q90 -6 75 7 Q60 20 60 49 L60 610 Q60 668 120 668 L152 668 Q179 668 192 654 Q205 640 216 621 Q272 523 325 428 Q378 333 435 233 L439 233 Z " />
<glyph glyph-name="O" unicode="O" horiz-adv-x="588" d="M339 668 Q440 668 489 613.5 Q538 559 538 454 L538 213 Q538 161 523 121 Q508 81 481.5 54 Q455 27 419 13.5 Q383 0 340 0 L247 0 Q204 0 168 11.5 Q132 23 105.5 48 Q79 73 64.5 113 Q50 153 50 210 L50 454 Q50 506 64.5 546 Q79 586 105 613 Q131 640 167.5 654 Q204 668 248 668 L339 668 Z M420 466 Q420 506 398 532.5 Q376 559 325 559 L262 559 Q214 559 191.5 532.5 Q169 506 169 466 L169 199 Q169 158 191.5 133 Q214 108 262 108 L325 108 Q373 108 396.5 135.5 Q420 163 420 201 L420 466 Z " />
<glyph glyph-name="P" unicode="P" horiz-adv-x="573" d="M179 552 L179 364 L343 364 Q365 364 380.5 372.5 Q396 381 405.5 394.5 Q415 408 419.5 425.5 Q424 443 424 461 Q424 486 416.5 503.5 Q409 521 397 532 Q385 543 370 547.5 Q355 552 341 552 L179 552 Z M179 249 L179 50 Q179 21 164.5 8 Q150 -5 120 -5 Q89 -5 74.5 8 Q60 21 60 50 L60 610 Q60 668 120 668 L334 668 Q382 668 420.5 653.5 Q459 639 486.5 612 Q514 585 528.5 546.5 Q543 508 543 461 Q543 413 531 374 Q519 335 494 307.5 Q469 280 430 264.5 Q391 249 337 249 L179 249 Z " />
<glyph glyph-name="Q" unicode="Q" horiz-adv-x="588" d="M551 -20 Q532 -39 513 -39 Q503 -39 494.5 -34.5 Q486 -30 479 -23 L437 18 Q396 0 348 0 L242 0 Q203 0 168 12.5 Q133 25 106.5 50 Q80 75 65 113.5 Q50 152 50 205 L50 459 Q50 511 65.5 550 Q81 589 107 615.5 Q133 642 168.5 655 Q204 668 243 668 L347 668 Q390 668 426 655 Q462 642 487.5 615.5 Q513 589 527 550 Q541 511 541 459 L541 208 Q541 172 533.5 142 Q526 112 512 88 L551 51 Q559 44 564 35.5 Q569 27 569 16 Q569 -3 551 -20 Z M423 464 Q423 504 402 528 Q381 552 343 552 L247 552 Q209 552 189 528 Q169 504 169 464 L169 203 Q169 162 189.5 139.5 Q210 117 247 117 L337 117 L282 172 Q275 179 270.5 186.5 Q266 194 266 205 Q266 214 271 223.5 Q276 233 284 241 Q292 249 302 254.5 Q312 260 321 260 Q331 260 339 255.5 Q347 251 354 245 L420 179 Q423 191 423 205 L423 464 Z " />
<glyph glyph-name="R" unicode="R" horiz-adv-x="562" d="M179 552 L179 364 L352 364 Q386 364 405 392 Q424 420 424 461 Q424 486 416 503.5 Q408 521 396.5 532 Q385 543 371.5 547.5 Q358 552 347 552 L179 552 Z M543 461 Q543 430 537 399 Q531 368 517 341 Q503 314 479.5 293 Q456 272 421 260 L520 84 Q525 77 526.5 69.5 Q528 62 528 54 Q528 33 512 14 Q496 -5 470 -5 Q453 -5 438 3.5 Q423 12 415 27 L292 249 L179 249 L179 53 Q179 -5 120 -5 Q60 -5 60 53 L60 610 Q60 668 120 668 L332 668 Q380 668 418.5 653.5 Q457 639 485 612 Q513 585 528 546.5 Q543 508 543 461 Z " />
<glyph glyph-name="S" unicode="S" horiz-adv-x="531" d="M105 0 Q98 0 89.5 2.5 Q81 5 73.5 12 Q66 19 61 30 Q56 41 56 58 Q56 74 61.5 85.5 Q67 97 75 103.5 Q83 110 91.5 113 Q100 116 105 116 L318 116 Q342 116 360 133 Q378 150 378 184 Q378 210 359.5 228.5 Q341 247 309 261 L182 315 Q152 328 126.5 341 Q101 354 81.5 373.5 Q62 393 51 421 Q40 449 40 491 Q40 528 51.5 560.5 Q63 593 85.5 617 Q108 641 140.5 655 Q173 669 216 669 L413 669 Q428 669 445 655 Q462 641 462 611 Q462 593 457 582 Q452 571 445 564.5 Q438 558 429 555.5 Q420 553 413 553 L216 553 Q191 553 174 537.5 Q157 522 157 492 Q157 467 171 452 Q185 437 212 426 L333 375 Q362 363 391 348 Q420 333 443.5 312 Q467 291 481.5 261 Q496 231 496 189 Q496 151 484.5 117 Q473 83 450.5 57 Q428 31 395 15.5 Q362 0 320 0 L105 0 Z " />
<glyph glyph-name="T" unicode="T" horiz-adv-x="526" d="M322 552 L322 51 Q322 -5 262 -5 Q203 -5 203 51 L203 552 L62 552 Q35 552 21.5 567.5 Q8 583 8 610 Q8 637 21.5 652.5 Q35 668 62 668 L462 668 Q489 668 503 652.5 Q517 637 517 610 Q517 583 503 567.5 Q489 552 462 552 L322 552 Z " />
<glyph glyph-name="U" unicode="U" horiz-adv-x="611" d="M433 619 Q433 635 439 646 Q445 657 453.5 663 Q462 669 472.5 671.5 Q483 674 492 674 Q500 674 510.5 671.5 Q521 669 530 663 Q539 657 545 646 Q551 635 551 618 L551 208 Q551 156 535.5 117 Q520 78 494 52 Q468 26 433 13 Q398 0 358 0 L252 0 Q213 0 178 12.5 Q143 25 116.5 50 Q90 75 75 113.5 Q60 152 60 205 L60 618 Q60 635 66 646 Q72 657 81 663 Q90 669 100.5 671.5 Q111 674 120 674 Q129 674 139 671.5 Q149 669 158 662.5 Q167 656 173 645 Q179 634 179 618 L179 203 Q179 162 199.5 139.5 Q220 117 257 117 L353 117 Q391 117 412 142 Q433 167 433 205 L433 619 Z " />
<glyph glyph-name="V" unicode="V" horiz-adv-x="581" d="M292 171 L451 637 Q459 659 472 667.5 Q485 676 499 676 Q526 676 547.5 658.5 Q569 641 569 620 Q569 609 565 600 L370 48 Q362 25 349.5 12.5 Q337 0 309 0 L271 0 Q243 0 230.5 12.5 Q218 25 210 48 L14 600 Q11 609 11 617 Q11 638 29 656 Q47 674 76 674 Q93 674 107 665 Q121 656 128 636 L288 171 L292 171 Z " />
<glyph glyph-name="W" unicode="W" horiz-adv-x="802" d="M547 174 L551 174 L671 636 Q684 674 721 674 Q752 674 770 658.5 Q788 643 788 619 Q788 609 785 600 L629 48 Q621 25 608.5 12.5 Q596 0 568 0 L530 0 Q503 0 490 12.5 Q477 25 469 48 L399 388 L397 388 L330 48 Q322 25 309 12.5 Q296 0 269 0 L231 0 Q203 0 190.5 12.5 Q178 25 170 48 L14 600 Q11 609 11 618 Q11 641 30 657.5 Q49 674 78 674 Q95 674 109 665 Q123 656 128 636 L248 174 L252 174 L333 567 Q338 590 350.5 602.5 Q363 615 387 615 L413 615 Q438 615 449.5 602.5 Q461 590 466 567 L547 174 Z " />
<glyph glyph-name="X" unicode="X" horiz-adv-x="550" d="M519 7 Q502 -5 486 -5 Q471 -5 458 2.5 Q445 10 436 23 L274 253 L116 26 Q106 12 92.5 4 Q79 -4 64 -4 Q39 -4 24 13.5 Q9 31 9 51 Q9 72 22 92 L204 347 L40 580 Q27 599 27 616 Q27 624 31.5 634 Q36 644 44 653 Q52 662 63 668 Q74 674 86 674 Q115 674 134 646 L275 441 L418 646 Q438 674 465 674 Q477 674 487.5 668.5 Q498 663 506.5 654.5 Q515 646 519.5 635.5 Q524 625 524 615 Q524 596 512 580 L346 347 L530 89 Q541 73 541 53 Q541 25 519 7 Z " />
<glyph glyph-name="Y" unicode="Y" horiz-adv-x="553" d="M282 385 L432 644 Q441 660 453.5 667.5 Q466 675 480 675 Q505 675 524.5 657 Q544 639 544 616 Q544 604 538 592 L340 258 L340 50 Q340 -6 280 -6 Q252 -6 236.5 8.5 Q221 23 221 50 L221 260 L15 597 Q10 607 10 616 Q10 628 16 638.5 Q22 649 32 657 Q42 665 54.5 670 Q67 675 80 675 Q109 675 127 644 L278 385 L282 385 Z " />
<glyph glyph-name="Z" unicode="Z" horiz-adv-x="541" d="M92 0 Q54 0 42 16 Q30 32 30 52 Q30 69 35 82.5 Q40 96 46 105 L347 552 L105 552 Q78 552 64.5 567.5 Q51 583 51 610 Q51 637 64.5 652.5 Q78 668 105 668 L453 668 Q485 668 497 651.5 Q509 635 509 614 Q509 597 504.5 585 Q500 573 493 563 L192 116 L461 116 Q490 116 501.5 99 Q513 82 513 58 Q513 35 501.5 17.5 Q490 0 461 0 L92 0 Z " />
<glyph glyph-name="bracketleft" unicode="&#x5b;" horiz-adv-x="368" d="M132 -88 Q114 -88 102 -81.5 Q90 -75 83 -66 Q76 -57 73.5 -46.5 Q71 -36 71 -28 L71 673 Q71 682 73.5 692.5 Q76 703 83 712 Q90 721 102 727 Q114 733 132 733 L295 733 Q311 733 326 719.5 Q341 706 341 678 Q341 652 326 637 Q311 622 295 622 L185 622 L185 23 L295 23 Q311 23 326 8.5 Q341 -6 341 -32 Q341 -61 326 -74.5 Q311 -88 295 -88 L132 -88 Z " />
<glyph glyph-name="backslash" unicode="&#x5c;" horiz-adv-x="503" d="M24 638 Q18 650 18 661 Q18 682 36.5 698 Q55 714 81 714 Q95 714 107.5 708 Q120 702 127 688 L461 28 Q467 17 467 4 Q467 -22 447 -37 Q427 -52 403 -52 Q389 -52 377.5 -45 Q366 -38 358 -23 L24 638 Z " />
<glyph glyph-name="bracketright" unicode="&#x5d;" horiz-adv-x="368" d="M67 -88 Q50 -88 35 -74.5 Q20 -61 20 -32 Q20 -6 35 8.5 Q50 23 67 23 L177 23 L177 622 L67 622 Q50 622 35 637 Q20 652 20 678 Q20 706 35 719.5 Q50 733 67 733 L229 733 Q247 733 259 727 Q271 721 278 712 Q285 703 287.5 692.5 Q290 682 290 673 L290 -28 Q290 -36 287.5 -46.5 Q285 -57 278 -66 Q271 -75 259 -81.5 Q247 -88 229 -88 L67 -88 Z " />
<glyph glyph-name="asciicircum" unicode="&#x5e;" horiz-adv-x="469" d="M241 670 Q260 670 279 657 L440 507 Q457 491 456 472 Q456 459 450 449 Q444 439 435.5 431.5 Q427 424 417 420 Q407 416 398 416 Q378 416 364 430 L240 544 L102 426 Q95 420 87.5 417.5 Q80 415 72 415 Q45 415 28.5 434 Q12 453 12 474 Q11 491 27 506 L201 657 Q221 670 241 670 Z " />
<glyph glyph-name="underscore" unicode="&#x5f;" horiz-adv-x="500" d="M0 -144 Q-27 -144 -41 -134.5 Q-55 -125 -55 -99 Q-55 -73 -41.5 -63.5 Q-28 -54 0 -54 L501 -54 Q529 -54 543.5 -63.5 Q558 -73 558 -99 Q558 -125 543.5 -134.5 Q529 -144 501 -144 L0 -144 Z " />
<glyph glyph-name="quoteleft" unicode="&#x2018;" horiz-adv-x="216" d="M87 662 Q92 673 104 682.5 Q116 692 134 692 Q150 692 160.5 687 Q171 682 178 674.5 Q185 667 188 658.5 Q191 650 191 643 Q191 637 190 634 L163 495 Q159 475 142 458 Q125 441 96 441 Q60 441 42.5 461.5 Q25 482 25 506 Q25 520 29 528 L87 662 Z " />
<glyph glyph-name="a" unicode="a" horiz-adv-x="529" d="M190 190 Q174 190 165 179 Q156 168 156 155 L156 152 Q156 138 164.5 126.5 Q173 115 190 115 L365 115 L365 190 L190 190 Z M364 293 L364 301 Q364 321 349.5 338.5 Q335 356 298 356 L161 356 Q144 356 128 367.5 Q112 379 112 408 Q112 437 128 451.5 Q144 466 161 466 L304 466 Q394 466 439.5 420.5 Q485 375 485 288 L485 61 Q485 54 482 43.5 Q479 33 472 23.5 Q465 14 454 7 Q443 0 427 0 L170 0 Q143 0 118.5 10.5 Q94 21 75.5 40.5 Q57 60 46.5 87 Q36 114 36 148 L36 157 Q36 184 45.5 208.5 Q55 233 73 251.5 Q91 270 117 281.5 Q143 293 177 293 L364 293 Z " />
<glyph glyph-name="b" unicode="b" horiz-adv-x="528" d="M370 275 Q370 310 353 330 Q336 350 295 350 L167 350 L167 115 L296 115 Q337 115 353.5 134.5 Q370 154 370 186 L370 275 Z M105 0 Q89 0 78 6 Q67 12 60 21.5 Q53 31 50 42 Q47 53 47 62 L47 651 Q47 668 63 682.5 Q79 697 108 697 Q138 697 152.5 682.5 Q167 668 167 651 L167 466 L302 466 Q344 466 378.5 454 Q413 442 437.5 419 Q462 396 476 361.5 Q490 327 490 281 L490 182 Q490 137 475.5 103 Q461 69 435.5 46 Q410 23 374.5 11.5 Q339 0 298 0 L105 0 Z " />
<glyph glyph-name="c" unicode="c" horiz-adv-x="443" d="M232 0 Q189 0 154 11 Q119 22 93.5 44.5 Q68 67 54 101.5 Q40 136 40 182 L40 281 Q40 327 54 361.5 Q68 396 92.5 419 Q117 442 151.5 454 Q186 466 228 466 L369 466 Q386 466 402 450.5 Q418 435 418 408 Q418 379 402 364.5 Q386 350 369 350 L235 350 Q194 350 177 330 Q160 310 160 275 L160 187 Q160 155 176 135 Q192 115 234 115 L374 115 Q391 115 407 100.5 Q423 86 423 57 Q423 30 407.5 15 Q392 0 373 0 L232 0 Z " />
<glyph glyph-name="d" unicode="d" horiz-adv-x="528" d="M158 186 Q158 154 174.5 134.5 Q191 115 232 115 L361 115 L361 350 L233 350 Q192 350 175 330 Q158 310 158 275 L158 186 Z M230 0 Q144 0 91 44.5 Q38 89 38 179 L38 280 Q38 326 52 360.5 Q66 395 90.5 418.5 Q115 442 149.5 454 Q184 466 226 466 L361 466 L361 651 Q361 668 375.5 682.5 Q390 697 420 697 Q449 697 465 682.5 Q481 668 481 651 L481 62 Q481 53 478 42 Q475 31 468 21.5 Q461 12 450 6 Q439 0 423 0 L230 0 Z " />
<glyph glyph-name="e" unicode="e" horiz-adv-x="500" d="M345 278 Q345 312 326 331 Q307 350 269 350 L233 350 Q201 350 180.5 331 Q160 312 160 278 L160 272 L345 272 L345 278 Z M276 466 Q316 466 350.5 453.5 Q385 441 410.5 417.5 Q436 394 450.5 359 Q465 324 465 279 L465 240 Q465 232 462 221.5 Q459 211 451.5 202 Q444 193 432 186.5 Q420 180 401 180 L160 180 L160 173 Q160 144 181.5 127 Q203 110 239 110 L372 110 Q389 110 405 98 Q421 86 421 57 Q421 30 405 15 Q389 0 372 0 L225 0 Q185 0 151 12 Q117 24 92.5 46.5 Q68 69 54 102.5 Q40 136 40 179 L40 279 Q40 323 54.5 358 Q69 393 94 417 Q119 441 153.5 453.5 Q188 466 229 466 L276 466 Z " />
<glyph glyph-name="f" unicode="f" horiz-adv-x="387" d="M279 576 Q246 576 225.5 565 Q205 554 205 516 L205 466 L312 466 Q329 466 344.5 453.5 Q360 441 360 412 Q360 385 344.5 371.5 Q329 358 312 358 L205 358 L205 42 Q205 25 189.5 10 Q174 -5 145 -5 Q114 -5 99.5 10 Q85 25 85 42 L85 358 L53 358 Q36 358 20 371 Q4 384 4 412 Q4 441 20 453.5 Q36 466 53 466 L85 466 L85 512 Q85 605 134.5 648.5 Q184 692 266 692 L335 692 Q344 692 353.5 688.5 Q363 685 371 677.5 Q379 670 384 659.5 Q389 649 389 635 Q389 608 371 592 Q353 576 335 576 L279 576 Z " />
<glyph glyph-name="g" unicode="g" horiz-adv-x="528" d="M481 -20 Q481 -109 427.5 -155.5 Q374 -202 283 -202 L137 -202 Q120 -202 103.5 -187 Q87 -172 87 -144 Q87 -115 103.5 -102 Q120 -89 137 -89 L282 -89 Q361 -89 361 -15 L361 0 L226 0 Q184 0 149.5 11.5 Q115 23 90.5 46.5 Q66 70 52 104.5 Q38 139 38 185 L38 285 Q38 330 52.5 364 Q67 398 92.5 421 Q118 444 153.5 455.5 Q189 467 230 467 L423 467 Q439 467 450 461 Q461 455 468 445.5 Q475 436 478 425 Q481 414 481 405 L481 -20 Z M158 192 Q158 157 175 137 Q192 117 233 117 L361 117 L361 352 L232 352 Q191 352 174.5 332.5 Q158 313 158 281 L158 192 Z " />
<glyph glyph-name="h" unicode="h" horiz-adv-x="523" d="M424 -5 Q395 -5 379.5 10 Q364 25 364 42 L364 281 Q364 320 341 335 Q318 350 284 350 L167 350 L167 42 Q167 25 152.5 10 Q138 -5 108 -5 Q79 -5 62.5 10 Q46 25 46 42 L46 650 Q46 667 62 682 Q78 697 107 697 Q137 697 152 682 Q167 667 167 650 L167 466 L294 466 Q381 466 432.5 419.5 Q484 373 484 281 L484 43 Q484 26 469.5 10.5 Q455 -5 424 -5 Z " />
<glyph glyph-name="i" unicode="i" horiz-adv-x="340" d="M194 535 Q165 535 144.5 554 Q124 573 124 602 Q124 635 145.5 652 Q167 669 193 669 Q220 669 242 652 Q264 635 264 602 Q264 573 244 554 Q224 535 194 535 Z M197 -5 Q167 -5 152 10 Q137 25 137 42 L137 354 L75 354 Q58 354 42 368.5 Q26 383 26 410 Q26 439 42 452.5 Q58 466 75 466 L198 466 Q226 466 241.5 450 Q257 434 257 414 L257 42 Q257 25 242.5 10 Q228 -5 197 -5 Z " />
<glyph glyph-name="j" unicode="j" horiz-adv-x="305" d="M173 535 Q144 535 123 554 Q102 573 102 602 Q102 637 124 653.5 Q146 670 172 670 Q198 670 219.5 653.5 Q241 637 241 602 Q241 573 221.5 554 Q202 535 173 535 Z M-6 -202 Q-24 -202 -39.5 -186.5 Q-55 -171 -55 -144 Q-55 -115 -39 -101 Q-23 -87 -6 -87 L43 -87 Q76 -87 97 -69.5 Q118 -52 118 -14 L118 354 L56 354 Q39 354 23 368 Q7 382 7 410 Q7 439 23 452.5 Q39 466 56 466 L179 466 Q205 466 221.5 451.5 Q238 437 238 410 L238 -19 Q238 -110 188 -156 Q138 -202 50 -202 L-6 -202 Z " />
<glyph glyph-name="k" unicode="k" horiz-adv-x="461" d="M430 7 Q410 -5 392 -5 Q375 -5 361.5 3 Q348 11 340 25 L221 241 L164 202 L164 42 Q164 25 150 10 Q136 -5 105 -5 Q76 -5 60.5 10 Q45 25 45 42 L45 650 Q45 667 60.5 682 Q76 697 105 697 Q136 697 150 682 Q164 667 164 650 L164 333 L342 462 Q351 469 361.5 472 Q372 475 381 475 Q404 475 422.5 459 Q441 443 441 418 Q440 407 434.5 395 Q429 383 417 375 L319 307 L448 78 Q455 67 455 54 Q455 38 447 25.5 Q439 13 430 7 Z " />
<glyph glyph-name="l" unicode="l" horiz-adv-x="321" d="M184 181 Q184 152 199.5 131.5 Q215 111 252 111 L266 111 Q292 111 305.5 95.5 Q319 80 319 53 Q319 25 303 10.5 Q287 -4 266 -4 L241 -4 Q159 -4 112 42 Q65 88 65 182 L65 650 Q65 667 79 682 Q93 697 124 697 Q153 697 168.5 682 Q184 667 184 650 L184 181 Z " />
<glyph glyph-name="m" unicode="m" horiz-adv-x="707" d="M607 -5 Q577 -5 562 9 Q547 23 547 41 L547 283 Q547 321 523.5 335.5 Q500 350 466 350 L417 350 L417 41 Q417 25 402.5 10 Q388 -5 357 -5 Q328 -5 312 9.5 Q296 24 296 42 L296 350 L166 350 L166 41 Q166 25 151.5 10 Q137 -5 106 -5 Q77 -5 61 9.5 Q45 24 45 42 L45 404 Q45 413 48 423.5 Q51 434 58.5 443.5 Q66 453 78 459.5 Q90 466 109 466 L474 466 Q562 466 614.5 419.5 Q667 373 667 283 L667 41 Q667 25 652.5 10 Q638 -5 607 -5 Z " />
<glyph glyph-name="n" unicode="n" horiz-adv-x="523" d="M423 -5 Q391 -5 377 9 Q363 23 363 41 L363 283 Q363 321 339.5 335.5 Q316 350 282 350 L166 350 L166 41 Q166 25 152 10 Q138 -5 106 -5 Q76 -5 60.5 9.5 Q45 24 45 42 L45 404 Q45 413 48 423.5 Q51 434 58.5 443.5 Q66 453 78 459.5 Q90 466 109 466 L290 466 Q378 466 430.5 419.5 Q483 373 483 283 L483 41 Q483 25 469 10 Q455 -5 423 -5 Z " />
<glyph glyph-name="o" unicode="o" horiz-adv-x="518" d="M235 358 Q194 358 177 338 Q160 318 160 283 L160 179 Q160 147 176.5 127.5 Q193 108 234 108 L284 108 Q325 108 341.5 127.5 Q358 147 358 179 L358 283 Q358 318 341 338 Q324 358 283 358 L235 358 Z M225 0 Q186 0 152.5 11 Q119 22 94 44.5 Q69 67 54.5 101.5 Q40 136 40 182 L40 281 Q40 327 54 361.5 Q68 396 92.5 419 Q117 442 151.5 454 Q186 466 228 466 L290 466 Q332 466 366.5 454 Q401 442 425.5 419 Q450 396 464 361.5 Q478 327 478 281 L478 182 Q478 136 463.5 101.5 Q449 67 424 44.5 Q399 22 365.5 11 Q332 0 293 0 L225 0 Z " />
<glyph glyph-name="p" unicode="p" horiz-adv-x="528" d="M368 281 Q368 313 351.5 332.5 Q335 352 294 352 L165 352 L165 113 L293 113 Q334 113 351 133 Q368 153 368 188 L368 281 Z M296 467 Q337 467 372.5 455.5 Q408 444 433.5 421 Q459 398 473.5 364 Q488 330 488 285 L488 186 Q488 140 474 105.5 Q460 71 435.5 47.5 Q411 24 376.5 12.5 Q342 1 300 1 L165 1 L165 -167 Q165 -184 150.5 -197.5 Q136 -211 106 -211 Q77 -211 61 -197.5 Q45 -184 45 -167 L45 405 Q45 414 48 425 Q51 436 58 445.5 Q65 455 76 461 Q87 467 103 467 L296 467 Z " />
<glyph glyph-name="q" unicode="q" horiz-adv-x="528" d="M162 188 Q162 153 179 133 Q196 113 237 113 L365 113 L365 352 L236 352 Q195 352 178.5 332.5 Q162 313 162 281 L162 188 Z M427 467 Q443 467 454 461 Q465 455 472 445.5 Q479 436 482 425 Q485 414 485 405 L485 -167 Q485 -184 469 -197.5 Q453 -211 424 -211 Q394 -211 379.5 -197.5 Q365 -184 365 -167 L365 1 L230 1 Q188 1 153.5 12.5 Q119 24 94.5 47.5 Q70 71 56 105.5 Q42 140 42 186 L42 285 Q42 330 56.5 364 Q71 398 96.5 421 Q122 444 157.5 455.5 Q193 467 234 467 L427 467 Z " />
<glyph glyph-name="r" unicode="r" horiz-adv-x="415" d="M251 466 Q282 466 311 455.5 Q340 445 362 428 Q384 411 397 390 Q410 369 410 349 Q410 334 401 322 Q392 310 381 302 Q357 286 335 293 Q313 300 298 322 Q290 332 273 342 Q256 352 236 352 L175 352 L175 41 Q175 25 160.5 10 Q146 -5 115 -5 Q86 -5 70.5 9 Q55 23 55 41 L55 404 Q55 413 58 423.5 Q61 434 68.5 443.5 Q76 453 88 459.5 Q100 466 119 466 L251 466 Z " />
<glyph glyph-name="s" unicode="s" horiz-adv-x="459" d="M92 0 Q84 0 75 3 Q66 6 58 13 Q50 20 45 31.5 Q40 43 40 60 Q40 77 46 88.5 Q52 100 60.5 106.5 Q69 113 78 116 Q87 119 92 119 L280 119 Q308 119 308 140 Q308 154 272 165 L164 196 Q137 203 113.5 213 Q90 223 72.5 238 Q55 253 45 275.5 Q35 298 35 332 Q35 390 72.5 427.5 Q110 465 183 465 L354 465 Q361 465 370 462.5 Q379 460 387 454 Q395 448 400.5 437 Q406 426 406 410 Q406 393 401 381.5 Q396 370 388 363 Q380 356 371 353 Q362 350 354 350 L183 350 Q172 350 165 346.5 Q158 343 158 333 Q158 328 167 322.5 Q176 317 190 313 L300 283 Q328 275 351.5 265 Q375 255 392.5 239 Q410 223 419.5 199.5 Q429 176 429 142 Q429 113 420 87.5 Q411 62 392.5 42.5 Q374 23 346 11.5 Q318 0 280 0 L92 0 Z " />
<glyph glyph-name="t" unicode="t" horiz-adv-x="397" d="M340 110 Q358 110 376 95.5 Q394 81 394 54 Q394 40 389 29.5 Q384 19 376 11.5 Q368 4 358.5 0.5 Q349 -3 340 -3 L259 -3 Q225 -3 195 7 Q165 17 143 39 Q121 61 108 94 Q95 127 95 174 L95 356 L57 356 Q40 356 24 368.5 Q8 381 8 410 Q8 438 24 451 Q40 464 57 464 L94 464 L94 590 Q94 607 108.5 622 Q123 637 154 637 Q183 637 198.5 622 Q214 607 214 590 L214 464 L318 464 Q335 464 350.5 450.5 Q366 437 366 410 Q366 381 350.5 368.5 Q335 356 318 356 L214 356 L214 182 Q214 144 232.5 127 Q251 110 288 110 L340 110 Z " />
<glyph glyph-name="u" unicode="u" horiz-adv-x="523" d="M100 471 Q130 471 145 457 Q160 443 160 425 L160 183 Q160 145 183.5 130.5 Q207 116 241 116 L357 116 L357 425 Q357 441 371.5 456 Q386 471 417 471 Q446 471 462 456.5 Q478 442 478 424 L478 62 Q478 53 475 42.5 Q472 32 464.5 22.5 Q457 13 445 6.5 Q433 0 414 0 L233 0 Q145 0 92.5 46.5 Q40 93 40 183 L40 425 Q40 441 54.5 456 Q69 471 100 471 Z " />
<glyph glyph-name="v" unicode="v" horiz-adv-x="476" d="M239 141 L346 440 Q353 458 366 466 Q379 474 396 474 Q422 474 441 460 Q460 446 460 419 Q460 410 457 401 L319 46 Q311 25 296.5 12.5 Q282 0 255 0 L217 0 Q191 0 175.5 12 Q160 24 152 46 L14 401 Q11 410 11 419 Q11 445 30.5 460 Q50 475 76 475 Q115 475 129 435 L237 141 L239 141 Z " />
<glyph glyph-name="w" unicode="w" horiz-adv-x="659" d="M464 149 L527 440 Q534 458 547 466 Q560 474 577 474 Q603 474 622 460 Q641 446 641 419 Q641 410 638 401 L545 46 Q534 0 481 0 L443 0 Q417 0 401.5 12 Q386 24 378 46 L332 184 L330 184 L282 46 Q274 25 259 12.5 Q244 0 218 0 L180 0 Q129 0 115 46 L12 401 Q9 410 9 419 Q9 445 28.5 460 Q48 475 74 475 Q113 475 127 435 L200 148 L203 148 L275 343 L255 401 Q252 410 252 419 Q252 445 271.5 460 Q291 475 317 475 Q356 475 370 435 L462 149 L464 149 Z " />
<glyph glyph-name="x" unicode="x" horiz-adv-x="495" d="M344 460 Q351 469 360.5 473.5 Q370 478 381 478 Q397 478 410 471.5 Q423 465 432.5 455 Q442 445 447 433 Q452 421 452 411 Q452 397 444 387 L323 240 L456 84 Q463 76 463 60 Q463 51 459 39 Q455 27 447 16.5 Q439 6 426.5 -1 Q414 -8 398 -8 Q385 -8 373.5 -3.5 Q362 1 355 10 L246 149 L136 8 Q122 -10 97 -10 Q80 -10 67 -3 Q54 4 45 14 Q36 24 31.5 36 Q27 48 27 57 Q27 72 35 82 L168 240 L47 387 Q39 398 39 412 Q39 421 44 432.5 Q49 444 58 454 Q67 464 80 471 Q93 478 109 478 Q120 478 129.5 474 Q139 470 147 460 L246 329 L344 460 Z " />
<glyph glyph-name="y" unicode="y" horiz-adv-x="524" d="M479 -18 Q479 -67 463 -101.5 Q447 -136 420 -158.5 Q393 -181 357 -191.5 Q321 -202 281 -202 L133 -202 Q116 -202 100.5 -187 Q85 -172 85 -144 Q85 -115 100.5 -102 Q116 -89 133 -89 L280 -89 Q320 -89 339 -68.5 Q358 -48 358 -13 L358 0 L234 0 Q143 0 91.5 46 Q40 92 40 185 L40 424 Q40 441 54.5 456 Q69 471 100 471 Q129 471 145 456 Q161 441 161 424 L161 185 Q161 146 184 131 Q207 116 241 116 L358 116 L358 424 Q358 441 373 456 Q388 471 418 471 Q447 471 463 456 Q479 441 479 424 L479 -18 L479 -18 Z " />
<glyph glyph-name="z" unicode="z" horiz-adv-x="477" d="M88 0 Q35 0 35 59 Q35 73 41 83.5 Q47 94 52 100 L276 353 L90 353 Q73 353 57.5 366.5 Q42 380 42 409 Q42 436 57.5 451.5 Q73 467 90 467 L396 467 Q422 467 437.5 452 Q453 437 453 408 Q453 395 448 384 Q443 373 437 367 L216 114 L402 114 Q417 114 427 108.5 Q437 103 443 94.5 Q449 86 451 76 Q453 66 453 57 Q453 49 451 39 Q449 29 443 20.5 Q437 12 427 6 Q417 0 402 0 L88 0 Z " />
<glyph glyph-name="braceleft" unicode="&#x7b;" horiz-adv-x="401" d="M239 436 Q239 405 224 373 Q209 341 177 324 Q211 305 225 270 Q239 235 239 203 L239 97 Q239 64 255.5 44.5 Q272 25 312 25 L326 25 Q330 25 336.5 22.5 Q343 20 349 14 Q355 8 359.5 -2 Q364 -12 364 -28 Q364 -59 351 -70.5 Q338 -82 326 -82 L294 -82 Q213 -82 167 -37.5 Q121 7 121 90 L121 193 Q121 252 77 269 Q68 272 61 275 Q54 278 50 283.5 Q46 289 44 297.5 Q42 306 42 321 Q42 350 49.5 359 Q57 368 73 375 Q99 386 110 405 Q121 424 121 453 L121 556 Q121 637 167 681.5 Q213 726 294 726 L326 726 Q336 726 350 715 Q364 704 364 674 Q364 658 359.5 648 Q355 638 349 632 Q343 626 336.5 623.5 Q330 621 326 621 L312 621 Q274 621 256.5 601.5 Q239 582 239 549 L239 436 Z " />
<glyph glyph-name="bar" unicode="&#x7c;" horiz-adv-x="519" d="M260 -124 Q229 -124 214.5 -111 Q200 -98 200 -69 L200 730 Q200 785 260 785 Q319 785 319 730 L319 -69 Q319 -98 304.5 -111 Q290 -124 260 -124 Z " />
<glyph glyph-name="braceright" unicode="&#x7d;" horiz-adv-x="401" d="M158 549 Q158 582 140.5 601.5 Q123 621 85 621 L71 621 Q67 621 60.5 623.5 Q54 626 48 632 Q42 638 37.5 648 Q33 658 33 674 Q33 704 47 715 Q61 726 71 726 L103 726 Q184 726 230 681.5 Q276 637 276 556 L276 453 Q276 424 287 405 Q298 386 324 375 Q340 368 347.5 359 Q355 350 355 321 Q355 306 353 297.5 Q351 289 347 283.5 Q343 278 336 275 Q329 272 320 269 Q276 252 276 193 L276 90 Q276 7 230 -37.5 Q184 -82 103 -82 L71 -82 Q59 -82 46 -70.5 Q33 -59 33 -28 Q33 -12 37 -2 Q41 8 47 14 Q53 20 59.5 22.5 Q66 25 71 25 L85 25 Q125 25 141.5 44.5 Q158 64 158 97 L158 203 Q158 235 172 270 Q186 305 220 324 Q188 341 173 373 Q158 405 158 436 L158 549 Z " />
<glyph glyph-name="asciitilde" unicode="&#x7e;" horiz-adv-x="520" d="M164 399 Q193 399 219.5 390 Q246 381 270 370 Q290 360 314 350.5 Q338 341 356 340 Q370 339 379.5 345 Q389 351 396 359 Q402 366 411.5 374 Q421 382 435 382 Q443 382 451 379.5 Q459 377 467 369 Q482 357 487.5 346.5 Q493 336 492.5 327 Q492 318 488 311 Q484 304 481 300 Q455 266 424.5 253 Q394 240 357 240 Q325 240 295 248 Q265 256 237 270 Q222 279 200.5 288.5 Q179 298 165 298 Q151 298 138.5 293 Q126 288 114 274 Q106 266 97.5 260.5 Q89 255 78 255 Q60 255 44 270 Q27 286 27 308 Q27 325 39 339 Q71 377 104 388 Q137 399 164 399 Z " />
<glyph glyph-name="sterling" unicode="&#xa3;" horiz-adv-x="520" d="M389 353 Q403 353 416 341 Q429 329 429 302 Q429 278 416 264 Q403 250 389 250 L201 250 L201 116 L455 116 Q472 116 487.5 101.5 Q503 87 503 58 Q503 30 487.5 15 Q472 0 455 0 L145 0 Q126 0 113.5 6.5 Q101 13 94 22.5 Q87 32 84 43 Q81 54 81 62 L81 250 L56 250 Q42 250 29 264 Q16 278 16 302 Q16 329 29 341 Q42 353 56 353 L81 353 L81 461 Q81 513 99 552 Q117 591 144.5 616.5 Q172 642 206.5 655 Q241 668 274 668 L436 668 Q465 668 478.5 652.5 Q492 637 492 610 Q492 583 478 567.5 Q464 552 436 552 L291 552 Q249 552 225.5 529 Q202 506 201 464 L201 353 L389 353 Z " />
<glyph glyph-name="yen" unicode="&#xa5;" horiz-adv-x="520" d="M456 283 Q469 283 481 272 Q493 261 493 236 Q493 213 481 200.5 Q469 188 456 188 L322 188 L322 50 Q322 -6 262 -6 Q234 -6 218.5 8.5 Q203 23 203 50 L203 188 L74 188 Q61 188 49 200.5 Q37 213 37 236 Q37 261 49 272 Q61 283 74 283 L456 283 Z M75 327 Q62 327 50 339.5 Q38 352 38 375 Q38 400 50 411 Q62 422 75 422 L111 422 L17 597 Q12 607 12 616 Q12 628 18 638.5 Q24 649 34 657 Q44 665 56.5 670 Q69 675 82 675 Q111 675 129 644 L260 385 L264 385 L394 644 Q413 675 442 675 Q467 675 486.5 657 Q506 639 506 616 Q506 604 500 592 L411 422 L456 422 Q469 422 481 411 Q493 400 493 375 Q493 352 481 339.5 Q469 327 456 327 L75 327 Z " />
<glyph glyph-name="section" unicode="&#xa7;" horiz-adv-x="499" d="M310 345 Q310 370 263 389 L173 426 Q150 435 129 445.5 Q108 456 91.5 471.5 Q75 487 65 510 Q55 533 55 567 Q55 628 93.5 669 Q132 710 203 710 L366 710 Q375 710 384.5 706 Q394 702 402 695 Q410 688 415 677 Q420 666 420 653 Q420 635 415 623.5 Q410 612 402 605.5 Q394 599 384.5 596.5 Q375 594 366 594 L205 594 Q195 594 186.5 588 Q178 582 178 568 Q178 558 186.5 549.5 Q195 541 207 536 L304 498 Q328 489 351 478.5 Q374 468 391 452.5 Q408 437 418.5 414 Q429 391 429 356 L429 249 Q429 229 415 212 Q401 195 370 195 Q352 195 340.5 200 Q329 205 322.5 213 Q316 221 313 230.5 Q310 240 310 249 L310 345 Z M194 236 Q194 211 241 192 L328 157 Q350 148 371.5 138 Q393 128 409.5 112.5 Q426 97 436 74 Q446 51 446 17 Q446 -44 407.5 -85 Q369 -126 298 -126 L134 -126 Q125 -126 115.5 -122 Q106 -118 98 -111 Q90 -104 85 -93.5 Q80 -83 80 -69 Q80 -51 85 -39.5 Q90 -28 98 -21.5 Q106 -15 115.5 -12.5 Q125 -10 134 -10 L296 -10 Q306 -10 314.5 -4 Q323 2 323 16 Q323 26 314.5 34.5 Q306 43 294 48 L200 86 Q176 95 153 105.5 Q130 116 113 131.5 Q96 147 85.5 170 Q75 193 75 228 L75 331 Q75 351 89 368 Q103 385 134 385 Q152 385 163.5 380 Q175 375 181.5 367 Q188 359 191 349.5 Q194 340 194 331 L194 236 Z " />
<glyph glyph-name="quotesingle" unicode="&#x27;" horiz-adv-x="163" d="M83 430 Q64 430 52.5 436 Q41 442 35 450.5 Q29 459 27 468.5 Q25 478 25 486 L25 621 Q25 627 27 636 Q29 645 35 653.5 Q41 662 52.5 667.5 Q64 673 84 673 Q110 673 124 655.5 Q138 638 138 614 L138 485 Q138 461 124.5 445.5 Q111 430 83 430 Z " />
<glyph glyph-name="quotedblleft" unicode="&#x201c;" horiz-adv-x="385" d="M87 662 Q92 673 104 682.5 Q116 692 134 692 Q150 692 160.5 687 Q171 682 178 674.5 Q185 667 188 658.5 Q191 650 191 643 Q191 637 190 634 L163 495 Q159 475 142 458 Q125 441 96 441 Q60 441 42.5 461.5 Q25 482 25 506 Q25 520 29 528 L87 662 Z M256 662 Q261 673 273 682.5 Q285 692 303 692 Q319 692 329.5 687 Q340 682 347 674.5 Q354 667 357 658.5 Q360 650 360 643 Q360 637 359 634 L332 495 Q328 475 311 458 Q294 441 265 441 Q229 441 211.5 461.5 Q194 482 194 506 Q194 520 198 528 L256 662 Z " />
<glyph glyph-name="guillemotleft" unicode="&#xab;" horiz-adv-x="515" d="M36 238 Q36 248 39 258 Q42 268 50 276 L175 402 Q190 417 210 417 Q223 417 233.5 411.5 Q244 406 251.5 397.5 Q259 389 263 379.5 Q267 370 267 361 Q267 341 252 326 L162 237 L252 144 Q259 137 261 129 Q263 121 264 113 Q264 87 244.5 70.5 Q225 54 203 54 Q187 54 172 69 L50 198 Q41 207 39 218 Q37 229 36 238 Z M244 238 Q244 248 247 258 Q250 268 258 276 L383 402 Q398 417 418 417 Q431 417 441.5 411.5 Q452 406 459.5 397.5 Q467 389 471 379.5 Q475 370 475 361 Q475 341 460 326 L370 237 L460 144 Q467 137 469 129 Q471 121 472 113 Q472 87 452.5 70.5 Q433 54 411 54 Q395 54 380 69 L258 198 Q249 207 247 218 Q245 229 244 238 Z " />
<glyph glyph-name="endash" unicode="&#x2013;" horiz-adv-x="500" d="M82 194 Q54 194 37.5 205 Q21 216 21 242 Q21 268 37.5 279.5 Q54 291 82 291 L420 291 Q448 291 464.5 279.5 Q481 268 481 242 Q481 216 464.5 205 Q448 194 420 194 L82 194 Z " />
<glyph glyph-name="dagger" unicode="&#x2020;" horiz-adv-x="476" d="M293 425 L293 -14 Q293 -37 280 -51.5 Q267 -66 238 -66 Q183 -66 183 -14 L183 425 L91 425 Q68 425 54 438 Q40 451 40 479 Q40 506 53.5 519 Q67 532 91 532 L183 532 L183 652 Q183 675 196 688 Q209 701 238 701 Q267 701 280 687.5 Q293 674 293 652 L293 532 L384 532 Q408 532 422 519 Q436 506 436 479 Q436 425 384 425 L293 425 Z " />
<glyph glyph-name="periodcentered" unicode="&#xb7;" horiz-adv-x="213" d="M106 179 Q76 179 56 199 Q36 219 36 246 Q36 280 57.5 296.5 Q79 313 105 313 Q131 313 153 296.5 Q175 280 175 246 Q175 220 155.5 199.5 Q136 179 106 179 Z " />
<glyph glyph-name="bullet" unicode="&#x2022;" horiz-adv-x="275" d="M15 261 Q15 286 24.5 308 Q34 330 50.5 346 Q67 362 89 371.5 Q111 381 136 381 Q161 381 183 371.5 Q205 362 221.5 346 Q238 330 247.5 308 Q257 286 257 261 Q257 235 247.5 213 Q238 191 221.5 175 Q205 159 183 149.5 Q161 140 136 140 Q111 140 89 149.5 Q67 159 50.5 175 Q34 191 24.5 213 Q15 235 15 261 Z " />
<glyph glyph-name="quotedblright" unicode="&#x201d;" horiz-adv-x="385" d="M297 472 Q292 461 280.5 451.5 Q269 442 250 442 Q235 442 224 447 Q213 452 206 459.5 Q199 467 196 475.5 Q193 484 193 491 Q193 493 193.5 495.5 Q194 498 194 500 L221 639 Q225 659 242 676.5 Q259 694 288 694 Q324 694 341.5 673 Q359 652 359 628 Q359 615 355 606 L297 472 Z M128 472 Q123 461 111.5 451.5 Q100 442 81 442 Q66 442 55 447 Q44 452 37 459.5 Q30 467 27 475.5 Q24 484 24 491 Q24 493 24.5 495.5 Q25 498 25 500 L52 639 Q56 659 73 676.5 Q90 694 119 694 Q155 694 172.5 673 Q190 652 190 628 Q190 615 186 606 L128 472 Z " />
<glyph glyph-name="guillemotright" unicode="&#xbb;" horiz-adv-x="515" d="M476 238 Q476 229 473.5 218 Q471 207 462 198 L340 69 Q325 54 309 54 Q288 54 268 70.5 Q248 87 248 113 Q249 121 251 129 Q253 137 260 144 L350 237 L260 326 Q245 341 245 361 Q245 370 249 379.5 Q253 389 260.5 397.5 Q268 406 278.5 411.5 Q289 417 302 417 Q322 417 337 402 L462 276 Q471 268 473.5 258 Q476 248 476 238 Z M268 238 Q268 229 265.5 218 Q263 207 254 198 L132 69 Q117 54 101 54 Q80 54 60 70.5 Q40 87 40 113 Q41 121 43 129 Q45 137 52 144 L142 237 L52 326 Q37 341 37 361 Q37 370 41 379.5 Q45 389 52.5 397.5 Q60 406 70.5 411.5 Q81 417 94 417 Q114 417 129 402 L254 276 Q263 268 265.5 258 Q268 248 268 238 Z " />
<glyph glyph-name="ellipsis" unicode="&#x2026;" horiz-adv-x="694" d="M346 0 Q316 0 296 20 Q276 40 276 67 Q276 101 297.5 117.5 Q319 134 345 134 Q371 134 392.5 117.5 Q414 101 414 67 Q414 41 395 20.5 Q376 0 346 0 Z M109 0 Q79 0 59 20 Q39 40 39 67 Q39 101 60.5 117.5 Q82 134 108 134 Q134 134 155.5 117.5 Q177 101 177 67 Q177 41 158 20.5 Q139 0 109 0 Z M586 0 Q556 0 536 20 Q516 40 516 67 Q516 101 537.5 117.5 Q559 134 585 134 Q611 134 632.5 117.5 Q654 101 654 67 Q654 41 635 20.5 Q616 0 586 0 Z " />
<glyph glyph-name="perthousand" unicode="&#x2030;" horiz-adv-x="1132" d="M192 668 Q252 668 288 635.5 Q324 603 324 537 L324 394 Q324 361 313.5 336.5 Q303 312 285 295.5 Q267 279 243 271 Q219 263 192 263 L177 263 Q119 263 80.5 295.5 Q42 328 42 394 L42 537 Q42 570 53 594.5 Q64 619 83 635.5 Q102 652 126 660 Q150 668 177 668 L192 668 Z M229 543 Q229 562 218 573.5 Q207 585 187 585 L181 585 Q161 585 149 573.5 Q137 562 137 543 L137 388 Q137 368 149 356.5 Q161 345 181 345 L187 345 Q205 345 217 357.5 Q229 370 229 388 L229 543 Z M647 405 Q707 405 743 372.5 Q779 340 779 274 L779 131 Q779 98 768.5 73.5 Q758 49 740 32.5 Q722 16 698 8 Q674 0 647 0 L632 0 Q574 0 535.5 32.5 Q497 65 497 131 L497 274 Q497 307 508 331.5 Q519 356 538 372.5 Q557 389 581 397 Q605 405 632 405 L647 405 Z M684 280 Q684 299 673 310.5 Q662 322 642 322 L636 322 Q616 322 604 310.5 Q592 299 592 280 L592 125 Q592 105 604 93.5 Q616 82 636 82 L642 82 Q660 82 672 94.5 Q684 107 684 125 L684 280 Z M486 661 Q492 677 503.5 683.5 Q515 690 529 690 Q535 690 543.5 688 Q552 686 560 681.5 Q568 677 573.5 668 Q579 659 579 646 Q579 636 575 627 L340 18 Q326 -17 295 -17 Q269 -17 256 -4 Q243 9 243 26 Q243 37 248 49 L486 661 Z M958 405 Q1018 405 1054 372.5 Q1090 340 1090 274 L1090 131 Q1090 98 1079.5 73.5 Q1069 49 1051 32.5 Q1033 16 1009 8 Q985 0 958 0 L943 0 Q885 0 846.5 32.5 Q808 65 808 131 L808 274 Q808 307 819 331.5 Q830 356 849 372.5 Q868 389 892 397 Q916 405 943 405 L958 405 Z M995 280 Q995 299 984 310.5 Q973 322 953 322 L947 322 Q927 322 915 310.5 Q903 299 903 280 L903 125 Q903 105 915 93.5 Q927 82 947 82 L953 82 Q971 82 983 94.5 Q995 107 995 125 L995 280 Z " />
<glyph glyph-name="grave" unicode="&#x60;" horiz-adv-x="523" d="M207 639 Q190 658 190 683 Q190 706 207 723.5 Q224 741 249 741 Q269 741 283.5 729.5 Q298 718 306 703 L369 591 Q377 578 377 562 Q377 550 367.5 537 Q358 524 338 524 Q314 524 299 541 L207 639 Z " />
<glyph glyph-name="dieresis" unicode="&#xa8;" horiz-adv-x="532" d="M370 535 Q343 535 324.5 553 Q306 571 306 596 Q306 628 326 642.5 Q346 657 369 657 Q393 657 413 642.5 Q433 628 433 596 Q433 572 415 553.5 Q397 535 370 535 Z M163 535 Q136 535 117.5 553 Q99 571 99 596 Q99 628 119 642.5 Q139 657 162 657 Q186 657 206.5 642.5 Q227 628 227 596 Q227 572 208.5 553.5 Q190 535 163 535 Z " />
<glyph glyph-name="emdash" unicode="&#x2014;" horiz-adv-x="1000" d="M89 194 Q61 194 44.5 205 Q28 216 28 242 Q28 268 44.5 279.5 Q61 291 89 291 L913 291 Q941 291 957.5 279.5 Q974 268 974 242 Q974 216 957.5 205 Q941 194 913 194 L89 194 Z " />
<glyph glyph-name="oe" unicode="&#x153;" horiz-adv-x="799" d="M459 179 L459 173 Q459 144 480.5 127 Q502 110 538 110 L671 110 Q688 110 704 98 Q720 86 720 57 Q720 30 704 15 Q688 0 671 0 L524 0 Q447 0 398 40 Q373 20 341 10 Q309 0 273 0 L225 0 Q186 0 152.5 11 Q119 22 94 44.5 Q69 67 54.5 101.5 Q40 136 40 182 L40 281 Q40 327 54 361.5 Q68 396 92.5 419 Q117 442 151.5 454 Q186 466 228 466 L270 466 Q351 466 401 424 Q452 466 528 466 L575 466 Q615 466 649.5 453.5 Q684 441 709.5 417.5 Q735 394 749.5 359 Q764 324 764 279 L764 241 Q764 233 761 222.5 Q758 212 750.5 203 Q743 194 731 187.5 Q719 181 700 181 L459 179 Z M235 350 Q194 350 177 330 Q160 310 160 275 L160 186 Q160 154 176.5 134.5 Q193 115 234 115 L264 115 Q305 115 321.5 134.5 Q338 154 338 186 L338 275 Q338 310 321 330 Q304 350 263 350 L235 350 Z M644 278 Q644 312 625 331 Q606 350 568 350 L532 350 Q500 350 479.5 331 Q459 312 459 278 L459 272 L644 272 L644 278 Z " />
<glyph glyph-name="germandbls" unicode="&#xdf;" horiz-adv-x="505" d="M254 -7 Q239 -7 229 -1.5 Q219 4 213 12 Q207 20 205 30 Q203 40 203 48 Q203 57 205 66.5 Q207 76 213 84.5 Q219 93 229 98.5 Q239 104 254 104 L274 104 Q303 104 323.5 121 Q344 138 344 176 L344 232 Q344 270 324.5 290 Q305 310 274 310 L256 310 Q236 310 223.5 322 Q211 334 211 363 Q211 395 225.5 405.5 Q240 416 256 416 L266 416 Q295 416 315.5 438 Q336 460 336 495 Q336 533 312.5 553.5 Q289 574 257 574 L233 574 Q199 574 177 550.5 Q155 527 155 488 L155 -11 Q155 -31 140.5 -45 Q126 -59 94 -59 Q63 -59 49 -45.5 Q35 -32 35 -11 L35 494 Q35 538 50.5 574 Q66 610 93.5 635.5 Q121 661 157.5 675 Q194 689 236 690 L252 690 Q293 690 330.5 676.5 Q368 663 396 638 Q424 613 440.5 577 Q457 541 457 495 Q457 477 454 458.5 Q451 440 444 422.5 Q437 405 425.5 390.5 Q414 376 398 367 Q420 357 433 342.5 Q446 328 453 310.5 Q460 293 462.5 273 Q465 253 465 232 L465 176 Q465 130 450.5 95.5 Q436 61 410.5 38.5 Q385 16 351 4.5 Q317 -7 279 -7 L254 -7 Z " />
<glyph glyph-name="trademark" unicode="&#x2122;" horiz-adv-x="697" d="M328 626 Q328 668 371 668 L393 668 Q414 668 421.5 659.5 Q429 651 437 637 L492 518 L495 518 L554 646 Q561 656 570 662 Q579 668 594 668 L614 668 Q657 668 657 626 L657 364 Q657 324 614 324 Q571 324 571 364 L571 504 L569 504 L543 445 Q539 437 530.5 427 Q522 417 502 417 L483 417 Q463 417 454.5 426.5 Q446 436 442 445 L417 503 L415 503 L415 364 Q415 324 372 324 Q328 324 328 364 L328 626 Z M206 584 L206 362 Q206 342 192.5 333 Q179 324 162 324 Q146 324 132.5 333 Q119 342 119 362 L119 584 L55 584 Q35 584 25 595.5 Q15 607 15 626 Q15 643 24 655.5 Q33 668 55 668 L270 668 Q292 668 301 655.5 Q310 643 310 626 Q310 607 300 595.5 Q290 584 270 584 L206 584 Z " />
<glyph glyph-name="degree" unicode="&#xb0;" horiz-adv-x="335" d="M108 568 Q108 543 125 526.5 Q142 510 168 510 Q192 510 209 526.5 Q226 543 226 568 Q226 594 209 611 Q192 628 168 628 Q142 628 125 611 Q108 594 108 568 Z M30 568 Q30 597 40.5 622 Q51 647 69.5 666 Q88 685 113.5 695.5 Q139 706 168 706 Q196 706 221 695.5 Q246 685 265 666 Q284 647 294.5 622 Q305 597 305 568 Q305 539 294.5 514.5 Q284 490 265 471 Q246 452 221 441.5 Q196 431 168 431 Q139 431 113.5 441.5 Q88 452 69.5 471 Q51 490 40.5 514.5 Q30 539 30 568 Z " />
<glyph glyph-name="registered" unicode="&#xae;" horiz-adv-x="608" d="M256 526 L256 447 L332 447 Q346 447 353.5 459 Q361 471 361 488 Q361 509 349.5 517.5 Q338 526 329 526 L256 526 Z M425 488 Q425 459 412.5 431.5 Q400 404 371 390 L413 314 Q419 305 419 296 Q419 283 409.5 274.5 Q400 266 387 266 Q367 266 357 283 L301 384 L256 384 L256 295 Q256 265 223 265 Q190 265 190 295 L190 557 Q190 590 223 590 L322 590 Q369 590 397 562 Q425 534 425 488 Z M301 638 Q262 638 226 623 Q190 608 161.5 580.5 Q133 553 116 514 Q99 475 99 428 Q99 389 113.5 352 Q128 315 155.5 286 Q183 257 222.5 239.5 Q262 222 313 222 Q349 222 384 237 Q419 252 447 280 Q475 308 492 348 Q509 388 509 437 Q509 473 494.5 508.5 Q480 544 453 573 Q426 602 387.5 620 Q349 638 301 638 Z M301 699 Q362 699 411 675.5 Q460 652 495 614.5 Q530 577 549 531 Q568 485 568 440 Q568 376 546 324.5 Q524 273 488.5 236.5 Q453 200 407.5 180.5 Q362 161 316 161 Q250 161 199 184 Q148 207 112.5 244.5 Q77 282 58.5 330 Q40 378 40 428 Q40 489 62 539 Q84 589 120 624.5 Q156 660 203 679.5 Q250 699 301 699 Z " />
<glyph glyph-name="copyright" unicode="&#xa9;" horiz-adv-x="774" d="M373 113 Q345 113 320 122 Q295 131 276.5 149 Q258 167 247.5 194 Q237 221 237 258 L237 401 Q237 438 248 465.5 Q259 493 277.5 511.5 Q296 530 320.5 539.5 Q345 549 373 549 L474 549 Q495 549 506 537 Q517 525 517 505 Q517 484 506 472 Q495 460 474 460 L376 460 Q353 460 340 445 Q327 430 327 405 L327 256 Q327 231 340 217 Q353 203 376 203 L474 202 Q495 202 506 190 Q517 178 517 158 Q517 137 506 125 Q495 113 474 113 L373 113 Z M395 -17 Q313 -17 247 10.5 Q181 38 134.5 85.5 Q88 133 62.5 196 Q37 259 37 330 Q37 400 63.5 464 Q90 528 138.5 576.5 Q187 625 254.5 653.5 Q322 682 403 682 Q470 682 532.5 655.5 Q595 629 642 583 Q689 537 717.5 474 Q746 411 746 338 Q746 261 716.5 196 Q687 131 638 83.5 Q589 36 525.5 9.5 Q462 -17 395 -17 Z M395 75 Q447 75 493.5 94.5 Q540 114 575.5 149.5 Q611 185 631.5 233 Q652 281 652 338 Q652 391 632 437 Q612 483 578 517 Q544 551 498.5 570.5 Q453 590 401 590 Q339 590 289 569 Q239 548 204 512 Q169 476 150 429 Q131 382 131 330 Q131 278 149.5 231.5 Q168 185 202.5 150.5 Q237 116 285.5 95.5 Q334 75 395 75 Z " />
<glyph glyph-name="pi" unicode="&#x3c0;" horiz-adv-x="527" d="M362 353 L165 353 L165 41 Q165 25 150.5 10 Q136 -5 105 -5 Q76 -5 60.5 9.5 Q45 24 45 42 L45 405 Q45 414 48 424.5 Q51 435 58.5 444.5 Q66 454 78 460.5 Q90 467 109 467 L418 467 Q437 467 449 460.5 Q461 454 468.5 444.5 Q476 435 479 424.5 Q482 414 482 405 L482 41 Q482 25 467.5 10 Q453 -5 422 -5 Q392 -5 377 9 Q362 23 362 41 L362 353 Z " />
<glyph glyph-name="dieresistonos" unicode="&#x385;" horiz-adv-x="532" d="M420 535 Q393 535 374.5 553 Q356 571 356 596 Q356 628 376 642.5 Q396 657 419 657 Q443 657 463 642.5 Q483 628 483 596 Q483 572 465 553.5 Q447 535 420 535 Z M113 535 Q86 535 67.5 553 Q49 571 49 596 Q49 628 69 642.5 Q89 657 112 657 Q136 657 156.5 642.5 Q177 628 177 596 Q177 572 158.5 553.5 Q140 535 113 535 Z M262 541 Q247 524 224 524 Q203 524 193.5 537 Q184 550 184 562 Q184 578 192 591 L255 703 Q263 718 277.5 729.5 Q292 741 312 741 Q337 741 354 723.5 Q371 706 371 683 Q371 672 367 660 Q363 648 354 639 L262 541 Z " />
<glyph glyph-name="tonos" unicode="&#x384;" horiz-adv-x="523" d="M269 541 Q254 524 231 524 Q210 524 200.5 537 Q191 550 191 562 Q191 578 199 591 L262 703 Q270 718 284.5 729.5 Q299 741 319 741 Q344 741 361 723.5 Q378 706 378 683 Q378 672 374 660 Q370 648 361 639 L269 541 Z " />
<glyph glyph-name="sfthyphen" unicode="&#xad;" horiz-adv-x="383" d="M298 298 Q358 298 358 241 Q358 185 298 185 L85 185 Q25 185 25 241 Q25 298 85 298 L298 298 Z " />
<glyph glyph-name="Gamma" unicode="&#x393;" horiz-adv-x="527" d="M180 48 Q180 19 165 7 Q150 -5 121 -5 Q90 -5 75 7 Q60 19 60 48 L60 610 Q60 668 121 668 L452 668 Q479 668 492.5 652.5 Q506 637 506 610 Q506 583 492.5 567.5 Q479 552 452 552 L180 552 L180 48 Z " />
<glyph glyph-name="&amp;#x394;" unicode="&#x394;" horiz-adv-x="581" d="M289 474 L166 115 L413 115 L293 474 L289 474 Z M306 668 Q333 668 346 654.5 Q359 641 367 619 L562 71 Q568 56 568 44 Q568 25 556.5 12.5 Q545 0 521 0 L55 0 Q36 0 26 13 Q16 26 16 47 Q16 61 20 72 L215 619 Q223 640 236 654 Q249 668 276 668 L306 668 Z " />
<glyph glyph-name="&amp;#x2206;" unicode="&#x2206;" horiz-adv-x="581" d="M289 474 L166 115 L413 115 L293 474 L289 474 Z M306 668 Q333 668 346 654.5 Q359 641 367 619 L562 71 Q568 56 568 44 Q568 25 556.5 12.5 Q545 0 521 0 L55 0 Q36 0 26 13 Q16 26 16 47 Q16 61 20 72 L215 619 Q223 640 236 654 Q249 668 276 668 L306 668 Z " />
<glyph glyph-name="Theta" unicode="&#x398;" horiz-adv-x="588" d="M250 288 Q223 288 212 303 Q201 318 201 345 Q201 372 212 387.5 Q223 403 250 403 L342 403 Q369 403 380 387.5 Q391 372 391 345 Q391 318 380 303 Q369 288 342 288 L250 288 Z M347 668 Q390 668 426 655 Q462 642 487.5 615.5 Q513 589 527 550 Q541 511 541 459 L541 208 Q541 156 525.5 117 Q510 78 484 52 Q458 26 423 13 Q388 0 348 0 L242 0 Q203 0 168 12.5 Q133 25 106.5 50 Q80 75 65 113.5 Q50 152 50 205 L50 459 Q50 511 65.5 550 Q81 589 107 615.5 Q133 642 168.5 655 Q204 668 243 668 L347 668 Z M423 464 Q423 504 402 528 Q381 552 343 552 L247 552 Q209 552 189 528 Q169 504 169 464 L169 203 Q169 162 189.5 139.5 Q210 117 247 117 L343 117 Q381 117 402 142 Q423 167 423 205 L423 464 Z " />
<glyph glyph-name="Lambda" unicode="&#x39b;" horiz-adv-x="567" d="M285 474 L281 474 L129 34 Q116 -6 76 -6 Q44 -6 27 11 Q10 28 10 50 Q10 55 11 61 Q12 67 14 72 L207 619 Q215 640 227.5 654 Q240 668 268 668 L298 668 Q325 668 338 654.5 Q351 641 359 619 L553 72 Q557 63 557 51 Q557 28 538 11 Q519 -6 489 -6 Q451 -6 437 35 L285 474 Z " />
<glyph glyph-name="Xi" unicode="&#x39e;" horiz-adv-x="542" d="M94 552 Q67 552 53.5 567.5 Q40 583 40 610 Q40 637 53.5 652.5 Q67 668 94 668 L448 668 Q475 668 488.5 652.5 Q502 637 502 610 Q502 583 488.5 567.5 Q475 552 448 552 L94 552 Z M136 295 Q109 295 96.5 310 Q84 325 84 352 Q84 379 96.5 394.5 Q109 410 136 410 L404 410 Q431 410 443.5 394.5 Q456 379 456 352 Q456 325 443.5 310 Q431 295 404 295 L136 295 Z M94 0 Q67 0 53.5 15.5 Q40 31 40 58 Q40 85 53.5 100.5 Q67 116 94 116 L448 116 Q475 116 488.5 100.5 Q502 85 502 58 Q502 31 488.5 15.5 Q475 0 448 0 L94 0 Z " />
<glyph glyph-name="Pi" unicode="&#x3a0;" horiz-adv-x="592" d="M477 -5 Q447 -5 432.5 8 Q418 21 418 50 L418 553 L174 553 L174 50 Q174 21 159.5 8 Q145 -5 115 -5 Q84 -5 69.5 8 Q55 21 55 50 L55 613 Q55 668 115 668 L477 668 Q537 668 537 613 L537 50 Q537 21 522.5 8 Q508 -5 477 -5 Z " />
<glyph glyph-name="Sigma" unicode="&#x3a3;" horiz-adv-x="551" d="M207 552 L327 403 Q337 391 341.5 378.5 Q346 366 346 356 Q346 333 328 307 L201 116 L468 116 Q497 116 508.5 99 Q520 82 520 58 Q520 35 508.5 17.5 Q497 0 468 0 L103 0 Q73 0 57 16 Q41 32 41 54 Q41 68 46.5 81.5 Q52 95 57 104 L216 354 L54 561 Q47 570 41.5 582 Q36 594 36 608 Q36 630 50.5 649 Q65 668 95 668 L467 668 Q494 668 507.5 652.5 Q521 637 521 610 Q521 583 507.5 567.5 Q494 552 467 552 L207 552 Z " />
<glyph glyph-name="Iotadieresis" unicode="&#x3aa;" horiz-adv-x="269" d="M135 -5 Q104 -5 89.5 8 Q75 21 75 50 L75 618 Q75 673 135 673 Q194 673 194 618 L194 50 Q194 21 179.5 8 Q165 -5 135 -5 Z M239 690 Q212 690 193.5 708 Q175 726 175 751 Q175 783 195 797.5 Q215 812 238 812 Q262 812 282 797.5 Q302 783 302 751 Q302 727 284 708.5 Q266 690 239 690 Z M32 690 Q5 690 -13.5 708 Q-32 726 -32 751 Q-32 783 -12 797.5 Q8 812 31 812 Q55 812 75.5 797.5 Q96 783 96 751 Q96 727 77.5 708.5 Q59 690 32 690 Z " />
<glyph glyph-name="Alpha" unicode="&#x391;" horiz-adv-x="567" d="M281 474 L209 260 L357 260 Q339 313 321.5 366.5 Q304 420 285 474 L281 474 Z M169 149 L129 34 Q116 -6 76 -6 Q44 -6 27 11 Q10 28 10 50 Q10 55 11 61 Q12 67 14 72 L207 619 Q215 640 227.5 654 Q240 668 268 668 L298 668 Q325 668 338 654.5 Q351 641 359 619 L553 72 Q557 63 557 51 Q557 28 538 11 Q519 -6 489 -6 Q453 -6 437 35 L395 149 L169 149 Z " />
<glyph glyph-name="Beta" unicode="&#x392;" horiz-adv-x="611" d="M180 552 L180 413 L363 413 Q372 413 381.5 417.5 Q391 422 399 431.5 Q407 441 412.5 454.5 Q418 468 418 486 Q418 519 398.5 535.5 Q379 552 358 552 L180 552 Z M180 302 L180 116 L369 116 Q380 116 392.5 121 Q405 126 416 137 Q427 148 434.5 165.5 Q442 183 442 209 Q442 225 436 241.5 Q430 258 419 271.5 Q408 285 392 293.5 Q376 302 356 302 L180 302 Z M120 0 Q60 0 60 60 L60 610 Q60 668 120 668 L375 668 Q407 668 437 655.5 Q467 643 489.5 620 Q512 597 525.5 564 Q539 531 539 489 Q539 457 526.5 422.5 Q514 388 483 363 Q501 350 515.5 335.5 Q530 321 540 302.5 Q550 284 555.5 260.5 Q561 237 561 207 Q561 156 543.5 117.5 Q526 79 498 52.5 Q470 26 435 13 Q400 0 366 0 L120 0 Z " />
<glyph glyph-name="Epsilon" unicode="&#x395;" horiz-adv-x="534" d="M121 0 Q60 0 60 58 L60 610 Q60 668 121 668 L452 668 Q479 668 492.5 652.5 Q506 637 506 610 Q506 583 492.5 567.5 Q479 552 452 552 L180 552 L180 410 L410 410 Q437 410 449.5 394.5 Q462 379 462 352 Q462 325 449.5 310 Q437 295 410 295 L180 295 L180 116 L452 116 Q479 116 492.5 100.5 Q506 85 506 58 Q506 31 492.5 15.5 Q479 0 452 0 L121 0 Z " />
<glyph glyph-name="Zeta" unicode="&#x396;" horiz-adv-x="541" d="M92 0 Q54 0 42 16 Q30 32 30 52 Q30 69 35 82.5 Q40 96 46 105 L347 552 L105 552 Q78 552 64.5 567.5 Q51 583 51 610 Q51 637 64.5 652.5 Q78 668 105 668 L453 668 Q485 668 497 651.5 Q509 635 509 614 Q509 597 504.5 585 Q500 573 493 563 L192 116 L461 116 Q490 116 501.5 99 Q513 82 513 58 Q513 35 501.5 17.5 Q490 0 461 0 L92 0 Z " />
<glyph glyph-name="Eta" unicode="&#x397;" horiz-adv-x="592" d="M477 -5 Q447 -5 432.5 8 Q418 21 418 50 L418 295 L174 295 L174 50 Q174 21 159.5 8 Q145 -5 115 -5 Q84 -5 69.5 8 Q55 21 55 50 L55 618 Q55 673 115 673 Q174 673 174 618 L174 410 L418 410 L418 618 Q418 673 477 673 Q537 673 537 618 L537 50 Q537 21 522.5 8 Q508 -5 477 -5 Z " />
<glyph glyph-name="Iota" unicode="&#x399;" horiz-adv-x="269" d="M135 -5 Q104 -5 89.5 8 Q75 21 75 50 L75 618 Q75 673 135 673 Q194 673 194 618 L194 50 Q194 21 179.5 8 Q165 -5 135 -5 Z " />
<glyph glyph-name="Kappa" unicode="&#x39a;" horiz-adv-x="555" d="M182 411 L433 645 Q460 670 487 670 Q496 670 506 666 Q516 662 524.5 654.5 Q533 647 538.5 636.5 Q544 626 544 613 Q544 590 528 575 L314 380 Q367 309 421.5 234.5 Q476 160 529 88 Q542 70 542 52 Q542 39 536.5 29 Q531 19 522 11.5 Q513 4 502.5 0 Q492 -4 482 -4 Q467 -4 453 3 Q439 10 429 24 L226 303 L179 261 L179 53 Q179 -5 120 -5 Q60 -5 60 53 L60 615 Q60 673 120 673 Q179 673 179 615 L179 411 L182 411 Z " />
<glyph glyph-name="Mu" unicode="&#x39c;" horiz-adv-x="674" d="M340 388 L465 637 Q481 668 520 668 L554 668 Q614 668 614 610 L614 50 Q614 21 599.5 8 Q585 -5 554 -5 Q524 -5 509.5 8 Q495 21 495 50 L495 434 L491 434 L413 277 Q406 264 393.5 249.5 Q381 235 353 235 L320 235 Q293 235 280 250 Q267 265 260 278 L183 434 L179 434 L179 50 Q179 21 164.5 8 Q150 -5 120 -5 Q89 -5 74.5 8 Q60 21 60 50 L60 610 Q60 668 120 668 L154 668 Q169 668 178.5 664.5 Q188 661 195 654.5 Q202 648 207 639 Q212 630 217 620 L334 388 L340 388 Z " />
<glyph glyph-name="Phi" unicode="&#x3a6;" horiz-adv-x="680" d="M338 -5 Q307 -5 292.5 8 Q278 21 278 50 L278 78 L257 78 Q218 78 180.5 91 Q143 104 114 129.5 Q85 155 67.5 194 Q50 233 50 286 L50 399 Q50 451 67.5 490.5 Q85 530 114 556.5 Q143 583 180.5 596.5 Q218 610 258 610 L278 610 L278 618 Q278 673 338 673 Q397 673 397 618 L397 610 L421 610 Q464 610 502 596.5 Q540 583 568 556.5 Q596 530 612.5 490.5 Q629 451 629 399 L629 286 Q629 233 611.5 194 Q594 155 565 129.5 Q536 104 498.5 91 Q461 78 422 78 L397 78 L397 50 Q397 21 382.5 8 Q368 -5 338 -5 Z M427 184 Q448 184 463.5 192.5 Q479 201 489.5 215 Q500 229 505 247.5 Q510 266 510 286 L510 401 Q510 421 505.5 439 Q501 457 491 471 Q481 485 465 493.5 Q449 502 427 502 L397 502 L397 184 L427 184 Z M169 286 Q169 266 174 247.5 Q179 229 189.5 215 Q200 201 215.5 192.5 Q231 184 252 184 L278 184 L278 502 L252 502 Q231 502 215 493.5 Q199 485 189 471 Q179 457 174 439 Q169 421 169 401 L169 286 Z " />
<glyph glyph-name="Upsilondieresis" unicode="&#x3ab;" horiz-adv-x="553" d="M282 385 L432 644 Q441 660 453.5 667.5 Q466 675 480 675 Q505 675 524.5 657 Q544 639 544 616 Q544 604 538 592 L340 258 L340 50 Q340 -6 280 -6 Q252 -6 236.5 8.5 Q221 23 221 50 L221 260 L15 597 Q10 607 10 616 Q10 628 16 638.5 Q22 649 32 657 Q42 665 54.5 670 Q67 675 80 675 Q109 675 127 644 L278 385 L282 385 Z M384 691 Q357 691 338.5 709 Q320 727 320 752 Q320 784 340 798.5 Q360 813 383 813 Q407 813 427 798.5 Q447 784 447 752 Q447 728 429 709.5 Q411 691 384 691 Z M177 691 Q150 691 131.5 709 Q113 727 113 752 Q113 784 133 798.5 Q153 813 176 813 Q200 813 220.5 798.5 Q241 784 241 752 Q241 728 222.5 709.5 Q204 691 177 691 Z " />
<glyph glyph-name="Psi" unicode="&#x3a8;" horiz-adv-x="680" d="M397 147 L397 50 Q397 21 382.5 8 Q368 -5 338 -5 Q307 -5 292.5 8 Q278 21 278 50 L278 147 L257 147 Q218 147 180.5 159.5 Q143 172 114 197 Q85 222 67.5 260.5 Q50 299 50 352 L50 618 Q50 673 110 673 Q169 673 169 618 L169 355 Q169 314 189.5 285.5 Q210 257 252 257 L278 257 L278 627 Q278 682 338 682 Q397 682 397 627 L397 257 L427 257 Q469 257 489.5 285.5 Q510 314 510 355 L510 618 Q510 673 570 673 Q629 673 629 618 L629 352 Q629 299 611.5 260.5 Q594 222 565 197 Q536 172 498.5 159.5 Q461 147 422 147 L397 147 Z " />
<glyph glyph-name="Omega" unicode="&#x3a9;" horiz-adv-x="613" d="M183 230 Q183 195 199.5 170 Q216 145 246 132 Q267 123 277 112 Q287 101 287 75 L287 54 Q287 34 274.5 17 Q262 0 233 0 L87 0 Q58 0 46.5 17.5 Q35 35 35 58 Q35 82 46.5 99 Q58 116 87 116 L106 116 L107 117 Q90 132 77 158.5 Q64 185 64 241 L64 454 Q64 506 80.5 546 Q97 586 124.5 613 Q152 640 188.5 654 Q225 668 264 668 L352 668 Q395 668 431.5 654 Q468 640 495 613 Q522 586 537 546 Q552 506 552 454 L552 244 Q552 206 540 170 Q528 134 507 118 L508 116 L526 116 Q555 116 566.5 99 Q578 82 578 58 Q578 35 566.5 17.5 Q555 0 526 0 L383 0 Q354 0 341.5 17 Q329 34 329 54 L329 75 Q329 101 339 111.5 Q349 122 370 132 Q401 147 417.5 171 Q434 195 434 230 L434 462 Q434 502 413 528.5 Q392 555 348 555 L268 555 Q226 555 204.5 528.5 Q183 502 183 462 L183 230 Z " />
<glyph glyph-name="alphatonos" unicode="&#x3ac;" horiz-adv-x="533" d="M272 113 Q293 113 309.5 100.5 Q326 88 326 57 Q326 29 309.5 14.5 Q293 0 272 0 L221 0 Q185 0 152.5 10.5 Q120 21 95 42.5 Q70 64 55 97 Q40 130 40 175 L40 280 Q40 325 54 360 Q68 395 92.5 418.5 Q117 442 151.5 454.5 Q186 467 228 467 L424 467 Q449 467 468.5 450.5 Q488 434 488 396 L487 45 Q487 26 472 10.5 Q457 -5 426 -5 Q394 -5 381 10 Q368 25 368 45 L368 351 L232 351 Q202 351 181 334.5 Q160 318 160 280 L160 184 Q160 146 178.5 129.5 Q197 113 220 113 L272 113 Z M311 541 Q296 524 273 524 Q252 524 242.5 537 Q233 550 233 562 Q233 578 241 591 L304 703 Q312 718 326.5 729.5 Q341 741 361 741 Q386 741 403 723.5 Q420 706 420 683 Q420 672 416 660 Q412 648 403 639 L311 541 Z " />
<glyph glyph-name="Nu" unicode="&#x39d;" horiz-adv-x="619" d="M439 233 L439 619 Q439 674 499 674 Q559 674 559 619 L559 58 Q559 0 499 0 L469 0 Q443 0 432 10.5 Q421 21 411 38 L183 445 L180 445 L180 49 Q180 20 165 7 Q150 -6 120 -6 Q90 -6 75 7 Q60 20 60 49 L60 610 Q60 668 120 668 L152 668 Q179 668 192 654 Q205 640 216 621 Q272 523 325 428 Q378 333 435 233 L439 233 Z " />
<glyph glyph-name="Omicron" unicode="&#x39f;" horiz-adv-x="588" d="M339 668 Q440 668 489 613.5 Q538 559 538 454 L538 213 Q538 161 523 121 Q508 81 481.5 54 Q455 27 419 13.5 Q383 0 340 0 L247 0 Q204 0 168 11.5 Q132 23 105.5 48 Q79 73 64.5 113 Q50 153 50 210 L50 454 Q50 506 64.5 546 Q79 586 105 613 Q131 640 167.5 654 Q204 668 248 668 L339 668 Z M420 466 Q420 506 398 532.5 Q376 559 325 559 L262 559 Q214 559 191.5 532.5 Q169 506 169 466 L169 199 Q169 158 191.5 133 Q214 108 262 108 L325 108 Q373 108 396.5 135.5 Q420 163 420 201 L420 466 Z " />
<glyph glyph-name="Rho" unicode="&#x3a1;" horiz-adv-x="573" d="M179 552 L179 364 L343 364 Q365 364 380.5 372.5 Q396 381 405.5 394.5 Q415 408 419.5 425.5 Q424 443 424 461 Q424 486 416.5 503.5 Q409 521 397 532 Q385 543 370 547.5 Q355 552 341 552 L179 552 Z M179 249 L179 50 Q179 21 164.5 8 Q150 -5 120 -5 Q89 -5 74.5 8 Q60 21 60 50 L60 610 Q60 668 120 668 L334 668 Q382 668 420.5 653.5 Q459 639 486.5 612 Q514 585 528.5 546.5 Q543 508 543 461 Q543 413 531 374 Q519 335 494 307.5 Q469 280 430 264.5 Q391 249 337 249 L179 249 Z " />
<glyph glyph-name="Tau" unicode="&#x3a4;" horiz-adv-x="526" d="M322 552 L322 51 Q322 -5 262 -5 Q203 -5 203 51 L203 552 L62 552 Q35 552 21.5 567.5 Q8 583 8 610 Q8 637 21.5 652.5 Q35 668 62 668 L462 668 Q489 668 503 652.5 Q517 637 517 610 Q517 583 503 567.5 Q489 552 462 552 L322 552 Z " />
<glyph glyph-name="Upsilon" unicode="&#x3a5;" horiz-adv-x="553" d="M282 385 L432 644 Q441 660 453.5 667.5 Q466 675 480 675 Q505 675 524.5 657 Q544 639 544 616 Q544 604 538 592 L340 258 L340 50 Q340 -6 280 -6 Q252 -6 236.5 8.5 Q221 23 221 50 L221 260 L15 597 Q10 607 10 616 Q10 628 16 638.5 Q22 649 32 657 Q42 665 54.5 670 Q67 675 80 675 Q109 675 127 644 L278 385 L282 385 Z " />
<glyph glyph-name="Chi" unicode="&#x3a7;" horiz-adv-x="550" d="M519 7 Q502 -5 486 -5 Q471 -5 458 2.5 Q445 10 436 23 L274 253 L116 26 Q106 12 92.5 4 Q79 -4 64 -4 Q39 -4 24 13.5 Q9 31 9 51 Q9 72 22 92 L204 347 L40 580 Q27 599 27 616 Q27 624 31.5 634 Q36 644 44 653 Q52 662 63 668 Q74 674 86 674 Q115 674 134 646 L275 441 L418 646 Q438 674 465 674 Q477 674 487.5 668.5 Q498 663 506.5 654.5 Q515 646 519.5 635.5 Q524 625 524 615 Q524 596 512 580 L346 347 L530 89 Q541 73 541 53 Q541 25 519 7 Z " />
<glyph glyph-name="Alphatonos" unicode="&#x386;" horiz-adv-x="567" d="M281 474 L209 260 L357 260 Q339 313 321.5 366.5 Q304 420 285 474 L281 474 Z M169 149 L129 34 Q116 -6 76 -6 Q44 -6 27 11 Q10 28 10 50 Q10 55 11 61 Q12 67 14 72 L207 619 Q215 640 227.5 654 Q240 668 268 668 L298 668 Q325 668 338 654.5 Q351 641 359 619 L553 72 Q557 63 557 51 Q557 28 538 11 Q519 -6 489 -6 Q453 -6 437 35 L395 149 L169 149 Z M4 501 Q-11 484 -34 484 Q-55 484 -64.5 497 Q-74 510 -74 522 Q-74 538 -66 551 L-3 663 Q5 678 19.5 689.5 Q34 701 54 701 Q79 701 96 683.5 Q113 666 113 643 Q113 632 109 620 Q105 608 96 599 L4 501 Z " />
<glyph glyph-name="Epsilontonos" unicode="&#x388;" horiz-adv-x="534" d="M121 0 Q60 0 60 58 L60 610 Q60 668 121 668 L452 668 Q479 668 492.5 652.5 Q506 637 506 610 Q506 583 492.5 567.5 Q479 552 452 552 L180 552 L180 410 L410 410 Q437 410 449.5 394.5 Q462 379 462 352 Q462 325 449.5 310 Q437 295 410 295 L180 295 L180 116 L452 116 Q479 116 492.5 100.5 Q506 85 506 58 Q506 31 492.5 15.5 Q479 0 452 0 L121 0 Z M-76 501 Q-91 484 -114 484 Q-135 484 -144.5 497 Q-154 510 -154 522 Q-154 538 -146 551 L-83 663 Q-75 678 -60.5 689.5 Q-46 701 -26 701 Q-1 701 16 683.5 Q33 666 33 643 Q33 632 29 620 Q25 608 16 599 L-76 501 Z " />
<glyph glyph-name="afii00208" unicode="&#x2015;" horiz-adv-x="1000" d="M89 194 Q61 194 44.5 205 Q28 216 28 242 Q28 268 44.5 279.5 Q61 291 89 291 L913 291 Q941 291 957.5 279.5 Q974 268 974 242 Q974 216 957.5 205 Q941 194 913 194 L89 194 Z " />
<glyph glyph-name="Etatonos" unicode="&#x389;" horiz-adv-x="592" d="M477 -5 Q447 -5 432.5 8 Q418 21 418 50 L418 295 L174 295 L174 50 Q174 21 159.5 8 Q145 -5 115 -5 Q84 -5 69.5 8 Q55 21 55 50 L55 618 Q55 673 115 673 Q174 673 174 618 L174 410 L418 410 L418 618 Q418 673 477 673 Q537 673 537 618 L537 50 Q537 21 522.5 8 Q508 -5 477 -5 Z M-81 501 Q-96 484 -119 484 Q-140 484 -149.5 497 Q-159 510 -159 522 Q-159 538 -151 551 L-88 663 Q-80 678 -65.5 689.5 Q-51 701 -31 701 Q-6 701 11 683.5 Q28 666 28 643 Q28 632 24 620 Q20 608 11 599 L-81 501 Z " />
<glyph glyph-name="Iotatonos" unicode="&#x38a;" horiz-adv-x="269" d="M135 -5 Q104 -5 89.5 8 Q75 21 75 50 L75 618 Q75 673 135 673 Q194 673 194 618 L194 50 Q194 21 179.5 8 Q165 -5 135 -5 Z M-57 501 Q-72 484 -95 484 Q-116 484 -125.5 497 Q-135 510 -135 522 Q-135 538 -127 551 L-64 663 Q-56 678 -41.5 689.5 Q-27 701 -7 701 Q18 701 35 683.5 Q52 666 52 643 Q52 632 48 620 Q44 608 35 599 L-57 501 Z " />
<glyph glyph-name="Omicrontonos" unicode="&#x38c;" horiz-adv-x="588" d="M339 668 Q440 668 489 613.5 Q538 559 538 454 L538 213 Q538 161 523 121 Q508 81 481.5 54 Q455 27 419 13.5 Q383 0 340 0 L247 0 Q204 0 168 11.5 Q132 23 105.5 48 Q79 73 64.5 113 Q50 153 50 210 L50 454 Q50 506 64.5 546 Q79 586 105 613 Q131 640 167.5 654 Q204 668 248 668 L339 668 Z M420 466 Q420 506 398 532.5 Q376 559 325 559 L262 559 Q214 559 191.5 532.5 Q169 506 169 466 L169 199 Q169 158 191.5 133 Q214 108 262 108 L325 108 Q373 108 396.5 135.5 Q420 163 420 201 L420 466 Z M-56 501 Q-71 484 -94 484 Q-115 484 -124.5 497 Q-134 510 -134 522 Q-134 538 -126 551 L-63 663 Q-55 678 -40.5 689.5 Q-26 701 -6 701 Q19 701 36 683.5 Q53 666 53 643 Q53 632 49 620 Q45 608 36 599 L-56 501 Z " />
<glyph glyph-name="Upsilontonos" unicode="&#x38e;" horiz-adv-x="553" d="M282 385 L432 644 Q441 660 453.5 667.5 Q466 675 480 675 Q505 675 524.5 657 Q544 639 544 616 Q544 604 538 592 L340 258 L340 50 Q340 -6 280 -6 Q252 -6 236.5 8.5 Q221 23 221 50 L221 260 L15 597 Q10 607 10 616 Q10 628 16 638.5 Q22 649 32 657 Q42 665 54.5 670 Q67 675 80 675 Q109 675 127 644 L278 385 L282 385 Z M-131 501 Q-146 484 -169 484 Q-190 484 -199.5 497 Q-209 510 -209 522 Q-209 538 -201 551 L-138 663 Q-130 678 -115.5 689.5 Q-101 701 -81 701 Q-56 701 -39 683.5 Q-22 666 -22 643 Q-22 632 -26 620 Q-30 608 -39 599 L-131 501 Z " />
<glyph glyph-name="epsilontonos" unicode="&#x3ad;" horiz-adv-x="443" d="M194 353 Q180 353 170 345 Q160 337 160 325 Q160 315 168 304.5 Q176 294 194 294 L346 294 Q367 294 381 281 Q395 268 395 241 Q395 214 381 202 Q367 190 346 190 L195 190 Q181 190 169.5 180.5 Q158 171 158 154 Q158 138 167 126 Q176 114 197 114 L360 114 Q383 114 398 100 Q413 86 413 58 Q413 28 398 14 Q383 0 360 0 L181 0 Q151 0 125.5 8.5 Q100 17 81 35 Q62 53 51 80.5 Q40 108 40 145 Q40 169 52 196.5 Q64 224 88 241 Q65 254 54 279.5 Q43 305 43 328 Q43 356 52 381 Q61 406 79.5 425 Q98 444 125.5 455.5 Q153 467 190 467 L328 467 Q350 467 365.5 453 Q381 439 381 410 Q381 381 365.5 367 Q350 353 328 353 L194 353 Z M250 541 Q235 524 212 524 Q191 524 181.5 537 Q172 550 172 562 Q172 578 180 591 L243 703 Q251 718 265.5 729.5 Q280 741 300 741 Q325 741 342 723.5 Q359 706 359 683 Q359 672 355 660 Q351 648 342 639 L250 541 Z " />
<glyph glyph-name="etatonos" unicode="&#x3ae;" horiz-adv-x="523" d="M423 -5 Q393 -5 378 9 Q363 23 363 41 L363 283 Q363 321 339.5 335.5 Q316 350 282 350 L166 350 L166 41 Q166 25 151.5 10 Q137 -5 106 -5 Q77 -5 61 9.5 Q45 24 45 42 L45 404 Q45 413 48 423.5 Q51 434 58.5 443.5 Q66 453 78 459.5 Q90 466 109 466 L290 466 Q378 466 430.5 419.5 Q483 373 483 283 L483 41 Q483 25 468.5 10 Q454 -5 423 -5 Z M264 541 Q249 524 226 524 Q205 524 195.5 537 Q186 550 186 562 Q186 578 194 591 L257 703 Q265 718 279.5 729.5 Q294 741 314 741 Q339 741 356 723.5 Q373 706 373 683 Q373 672 369 660 Q365 648 356 639 L264 541 Z " />
<glyph glyph-name="iotatonos" unicode="&#x3af;" horiz-adv-x="340" d="M197 -5 Q167 -5 152 10 Q137 25 137 42 L137 354 L95 354 Q78 354 62 368.5 Q46 383 46 410 Q46 439 62 452.5 Q78 466 95 466 L198 466 Q226 466 241.5 450 Q257 434 257 414 L257 42 Q257 25 242.5 10 Q228 -5 197 -5 Z M204 541 Q189 524 166 524 Q145 524 135.5 537 Q126 550 126 562 Q126 578 134 591 L197 703 Q205 718 219.5 729.5 Q234 741 254 741 Q279 741 296 723.5 Q313 706 313 683 Q313 672 309 660 Q305 648 296 639 L204 541 Z " />
<glyph glyph-name="omicrontonos" unicode="&#x3cc;" horiz-adv-x="518" d="M235 358 Q194 358 177 338 Q160 318 160 283 L160 179 Q160 147 176.5 127.5 Q193 108 234 108 L284 108 Q325 108 341.5 127.5 Q358 147 358 179 L358 283 Q358 318 341 338 Q324 358 283 358 L235 358 Z M225 0 Q186 0 152.5 11 Q119 22 94 44.5 Q69 67 54.5 101.5 Q40 136 40 182 L40 281 Q40 327 54 361.5 Q68 396 92.5 419 Q117 442 151.5 454 Q186 466 228 466 L290 466 Q332 466 366.5 454 Q401 442 425.5 419 Q450 396 464 361.5 Q478 327 478 281 L478 182 Q478 136 463.5 101.5 Q449 67 424 44.5 Q399 22 365.5 11 Q332 0 293 0 L225 0 Z M289 541 Q274 524 251 524 Q230 524 220.5 537 Q211 550 211 562 Q211 578 219 591 L282 703 Q290 718 304.5 729.5 Q319 741 339 741 Q364 741 381 723.5 Q398 706 398 683 Q398 672 394 660 Q390 648 381 639 L289 541 Z " />
<glyph glyph-name="Omegatonos" unicode="&#x38f;" horiz-adv-x="613" d="M183 230 Q183 195 199.5 170 Q216 145 246 132 Q267 123 277 112 Q287 101 287 75 L287 54 Q287 34 274.5 17 Q262 0 233 0 L87 0 Q58 0 46.5 17.5 Q35 35 35 58 Q35 82 46.5 99 Q58 116 87 116 L106 116 L107 117 Q90 132 77 158.5 Q64 185 64 241 L64 454 Q64 506 80.5 546 Q97 586 124.5 613 Q152 640 188.5 654 Q225 668 264 668 L352 668 Q395 668 431.5 654 Q468 640 495 613 Q522 586 537 546 Q552 506 552 454 L552 244 Q552 206 540 170 Q528 134 507 118 L508 116 L526 116 Q555 116 566.5 99 Q578 82 578 58 Q578 35 566.5 17.5 Q555 0 526 0 L383 0 Q354 0 341.5 17 Q329 34 329 54 L329 75 Q329 101 339 111.5 Q349 122 370 132 Q401 147 417.5 171 Q434 195 434 230 L434 462 Q434 502 413 528.5 Q392 555 348 555 L268 555 Q226 555 204.5 528.5 Q183 502 183 462 L183 230 Z M-44 501 Q-59 484 -82 484 Q-103 484 -112.5 497 Q-122 510 -122 522 Q-122 538 -114 551 L-51 663 Q-43 678 -28.5 689.5 Q-14 701 6 701 Q31 701 48 683.5 Q65 666 65 643 Q65 632 61 620 Q57 608 48 599 L-44 501 Z " />
<glyph glyph-name="upsilontonos" unicode="&#x3cd;" horiz-adv-x="528" d="M238 0 Q150 0 97.5 46.5 Q45 93 45 183 L45 425 Q45 441 59.5 456 Q74 471 105 471 Q135 471 150 457 Q165 443 165 425 L165 183 Q165 145 188.5 130.5 Q212 116 246 116 L282 116 Q316 116 339.5 130.5 Q363 145 363 183 L363 425 Q363 443 378 457 Q393 471 423 471 Q454 471 468.5 456 Q483 441 483 425 L483 183 Q483 93 430.5 46.5 Q378 0 290 0 L238 0 Z M283 541 Q268 524 245 524 Q224 524 214.5 537 Q205 550 205 562 Q205 578 213 591 L276 703 Q284 718 298.5 729.5 Q313 741 333 741 Q358 741 375 723.5 Q392 706 392 683 Q392 672 388 660 Q384 648 375 639 L283 541 Z " />
<glyph glyph-name="alpha" unicode="&#x3b1;" horiz-adv-x="533" d="M272 113 Q293 113 309.5 100.5 Q326 88 326 57 Q326 29 309.5 14.5 Q293 0 272 0 L221 0 Q185 0 152.5 10.5 Q120 21 95 42.5 Q70 64 55 97 Q40 130 40 175 L40 280 Q40 325 54 360 Q68 395 92.5 418.5 Q117 442 151.5 454.5 Q186 467 228 467 L424 467 Q449 467 468.5 450.5 Q488 434 488 396 L487 45 Q487 26 472 10.5 Q457 -5 426 -5 Q394 -5 381 10 Q368 25 368 45 L368 351 L232 351 Q202 351 181 334.5 Q160 318 160 280 L160 184 Q160 146 178.5 129.5 Q197 113 220 113 L272 113 Z " />
<glyph glyph-name="beta" unicode="&#x3b2;" horiz-adv-x="505" d="M155 111 L274 111 Q300 111 322 128 Q344 145 344 183 L344 232 Q344 270 324.5 290 Q305 310 274 310 L239 310 Q219 310 206.5 322 Q194 334 194 363 Q194 395 208.5 405.5 Q223 416 239 416 L266 416 Q295 416 315.5 438 Q336 460 336 495 Q336 533 312.5 553.5 Q289 574 257 574 L233 574 Q199 574 177 550.5 Q155 527 155 488 L155 111 Z M35 494 Q35 538 50.5 574 Q66 610 93.5 635.5 Q121 661 157.5 675 Q194 689 236 690 L252 690 Q293 690 330.5 676.5 Q368 663 396 638 Q424 613 440.5 577 Q457 541 457 495 Q457 477 454 458.5 Q451 440 444 422.5 Q437 405 425.5 390.5 Q414 376 398 367 Q420 357 433 342.5 Q446 328 453 310.5 Q460 293 462.5 273 Q465 253 465 232 L465 183 Q465 136 449 102 Q433 68 406 45 Q379 22 344 11 Q309 0 272 0 L155 0 L155 -99 Q155 -119 140.5 -133 Q126 -147 94 -147 Q63 -147 49 -133.5 Q35 -120 35 -99 L35 494 Z " />
<glyph glyph-name="psi" unicode="&#x3c8;" horiz-adv-x="648" d="M163 180 Q163 143 184.5 127.5 Q206 112 233 112 L261 112 L261 447 Q261 464 276.5 479 Q292 494 321 494 Q352 494 365.5 479 Q379 464 379 447 L379 112 L415 112 Q428 112 440.5 115.5 Q453 119 463 127.5 Q473 136 479 149 Q485 162 485 180 L485 426 Q485 443 500.5 458 Q516 473 545 473 Q576 473 589.5 458 Q603 443 603 426 L603 185 Q603 140 587.5 105.5 Q572 71 546 47.5 Q520 24 486 12 Q452 0 414 0 L379 0 L379 -163 Q379 -183 365 -197.5 Q351 -212 319 -212 Q287 -212 273.5 -197.5 Q260 -183 260 -163 L260 0 L232 0 Q194 0 160.5 12 Q127 24 101 47.5 Q75 71 60 105.5 Q45 140 45 185 L45 426 Q45 443 60.5 458 Q76 473 105 473 Q136 473 149.5 458 Q163 443 163 426 L163 180 Z " />
<glyph glyph-name="delta" unicode="&#x3b4;" horiz-adv-x="518" d="M225 0 Q142 0 91 45 Q40 90 40 182 L40 260 Q40 323 62 369.5 Q84 416 129 441 Q107 457 93.5 482 Q80 507 80 550 Q80 579 89.5 604.5 Q99 630 117.5 649.5 Q136 669 164 680.5 Q192 692 228 692 L382 692 Q389 692 398 689.5 Q407 687 415 681 Q423 675 428.5 664 Q434 653 434 637 Q434 620 429 608.5 Q424 597 416.5 590 Q409 583 400 580 Q391 577 383 577 L236 577 Q206 577 206 552 Q206 547 208 543 Q210 539 218.5 533 Q227 527 243 519 Q259 511 286 499 L374 460 Q425 437 451.5 391.5 Q478 346 478 281 L478 182 Q478 136 463.5 101.5 Q449 67 424 44.5 Q399 22 365.5 11 Q332 0 293 0 L225 0 Z M358 274 Q358 313 339.5 334 Q321 355 293 367 Q283 372 273 375 Q263 378 251 382 Q224 377 206 364 Q188 351 178 333.5 Q168 316 164 296.5 Q160 277 160 259 L160 184 Q160 152 176.5 132.5 Q193 113 234 113 L284 113 Q325 113 341.5 132.5 Q358 152 358 184 L358 274 Z " />
<glyph glyph-name="epsilon" unicode="&#x3b5;" horiz-adv-x="443" d="M194 353 Q180 353 170 345 Q160 337 160 325 Q160 315 168 304.5 Q176 294 194 294 L346 294 Q367 294 381 281 Q395 268 395 241 Q395 214 381 202 Q367 190 346 190 L195 190 Q181 190 169.5 180.5 Q158 171 158 154 Q158 138 167 126 Q176 114 197 114 L360 114 Q383 114 398 100 Q413 86 413 58 Q413 28 398 14 Q383 0 360 0 L181 0 Q151 0 125.5 8.5 Q100 17 81 35 Q62 53 51 80.5 Q40 108 40 145 Q40 169 52 196.5 Q64 224 88 241 Q65 254 54 279.5 Q43 305 43 328 Q43 356 52 381 Q61 406 79.5 425 Q98 444 125.5 455.5 Q153 467 190 467 L328 467 Q350 467 365.5 453 Q381 439 381 410 Q381 381 365.5 367 Q350 353 328 353 L194 353 Z " />
<glyph glyph-name="phi" unicode="&#x3c6;" horiz-adv-x="639" d="M374 112 L410 112 Q423 112 435.5 115.5 Q448 119 458 127.5 Q468 136 474 149 Q480 162 480 180 L480 279 Q480 318 458.5 334 Q437 350 410 350 L374 350 L374 112 Z M374 0 L374 -163 Q374 -183 360 -197.5 Q346 -212 314 -212 Q282 -212 268.5 -197.5 Q255 -183 255 -163 L255 0 L227 0 Q189 0 155.5 12 Q122 24 96 47.5 Q70 71 55 105.5 Q40 140 40 185 L40 281 Q40 338 63 380 Q86 422 128 443 Q141 450 154 450 Q168 450 181 442.5 Q194 435 203 422 Q212 408 212 391 Q212 377 206 364 Q200 351 189 343 Q177 335 167.5 321.5 Q158 308 158 286 L158 180 Q158 143 179.5 127.5 Q201 112 228 112 L255 112 L255 409 Q255 431 270 449 Q285 467 314 467 L409 467 Q449 467 484 455 Q519 443 544.5 419.5 Q570 396 584.5 360.5 Q599 325 599 279 L599 185 Q599 140 583.5 105.5 Q568 71 542 47.5 Q516 24 481.5 12 Q447 0 409 0 L374 0 Z " />
<glyph glyph-name="gamma" unicode="&#x3b3;" horiz-adv-x="464" d="M235 141 L342 440 Q349 458 362 466 Q375 474 392 474 Q418 474 437 460 Q456 446 456 419 Q456 410 453 401 L288 -21 L288 -167 Q288 -184 273.5 -197.5 Q259 -211 229 -211 Q200 -211 184 -197.5 Q168 -184 168 -167 L168 -1 L10 401 Q7 410 7 419 Q7 445 26.5 460 Q46 475 72 475 Q111 475 125 435 L233 141 L235 141 Z " />
<glyph glyph-name="eta" unicode="&#x3b7;" horiz-adv-x="523" d="M423 -5 Q393 -5 378 9 Q363 23 363 41 L363 283 Q363 321 339.5 335.5 Q316 350 282 350 L166 350 L166 41 Q166 25 151.5 10 Q137 -5 106 -5 Q77 -5 61 9.5 Q45 24 45 42 L45 404 Q45 413 48 423.5 Q51 434 58.5 443.5 Q66 453 78 459.5 Q90 466 109 466 L290 466 Q378 466 430.5 419.5 Q483 373 483 283 L483 41 Q483 25 468.5 10 Q454 -5 423 -5 Z " />
<glyph glyph-name="iota" unicode="&#x3b9;" horiz-adv-x="340" d="M197 -5 Q167 -5 152 10 Q137 25 137 42 L137 354 L95 354 Q78 354 62 368.5 Q46 383 46 410 Q46 439 62 452.5 Q78 466 95 466 L198 466 Q226 466 241.5 450 Q257 434 257 414 L257 42 Q257 25 242.5 10 Q228 -5 197 -5 Z " />
<glyph glyph-name="xi" unicode="&#x3be;" horiz-adv-x="456" d="M235 306 Q208 306 186.5 287 Q165 268 165 230 L165 184 Q165 146 187 130.5 Q209 115 235 115 L365 115 Q383 115 394.5 109 Q406 103 413 94.5 Q420 86 423 75.5 Q426 65 426 56 L426 -86 Q426 -103 412.5 -119 Q399 -135 369 -135 Q337 -135 324 -120.5 Q311 -106 311 -86 L311 0 L234 0 Q193 0 158.5 12 Q124 24 98.5 47.5 Q73 71 59 105 Q45 139 45 184 L45 230 Q45 270 61 306.5 Q77 343 112 363 Q82 380 67.5 414.5 Q53 449 53 484 Q53 530 67 564.5 Q81 599 106 622 Q131 645 166 657 Q201 669 243 669 L375 669 Q395 669 410 655 Q425 641 425 610 Q425 581 408.5 567 Q392 553 375 553 L242 553 Q216 553 194 537.5 Q172 522 172 484 Q172 449 193 432 Q214 415 242 415 L379 415 Q396 415 411 404 Q426 393 426 361 Q426 332 410 319 Q394 306 379 306 L235 306 Z " />
<glyph glyph-name="kappa" unicode="&#x3ba;" horiz-adv-x="461" d="M430 7 Q410 -5 392 -5 Q375 -5 361.5 3 Q348 11 340 25 L221 241 L164 202 L164 42 Q164 25 150 10 Q136 -5 105 -5 Q76 -5 60.5 10 Q45 25 45 42 L45 429 Q45 446 60.5 461 Q76 476 105 476 Q136 476 150 461 Q164 446 164 429 L164 333 L342 462 Q351 469 361.5 472 Q372 475 381 475 Q404 475 422.5 459 Q441 443 441 418 Q440 407 434.5 395 Q429 383 417 375 L319 307 L448 78 Q455 67 455 54 Q455 38 447 25.5 Q439 13 430 7 Z " />
<glyph glyph-name="lambda" unicode="&#x3bb;" horiz-adv-x="529" d="M423 -7 Q393 -7 378.5 8 Q364 23 364 40 L364 351 L241 351 Q207 351 183.5 335.5 Q160 320 160 282 L160 40 Q160 23 144.5 8 Q129 -7 100 -7 Q69 -7 54.5 8 Q40 23 40 40 L40 282 Q40 328 54.5 362.5 Q69 397 94.5 420 Q120 443 155.5 455 Q191 467 233 467 L363 467 L363 511 Q363 549 340 564 Q317 579 285 579 L138 579 Q121 579 105.5 593 Q90 607 90 636 Q90 663 105.5 678 Q121 693 138 693 L299 693 Q339 693 373 681 Q407 669 431.5 646 Q456 623 470 589 Q484 555 484 511 L484 40 Q484 23 468 8 Q452 -7 423 -7 Z " />
<glyph glyph-name="nu" unicode="&#x3bd;" horiz-adv-x="476" d="M239 141 L346 440 Q353 458 366 466 Q379 474 396 474 Q422 474 441 460 Q460 446 460 419 Q460 410 457 401 L319 46 Q311 25 296.5 12.5 Q282 0 255 0 L217 0 Q191 0 175.5 12 Q160 24 152 46 L14 401 Q11 410 11 419 Q11 445 30.5 460 Q50 475 76 475 Q115 475 129 435 L237 141 L239 141 Z " />
<glyph glyph-name="omicron" unicode="&#x3bf;" horiz-adv-x="518" d="M235 352 Q194 352 177 332 Q160 312 160 277 L160 184 Q160 152 176.5 132.5 Q193 113 234 113 L284 113 Q325 113 341.5 132.5 Q358 152 358 184 L358 277 Q358 312 341 332 Q324 352 283 352 L235 352 Z M225 0 Q186 0 152.5 11 Q119 22 94 44.5 Q69 67 54.5 101.5 Q40 136 40 182 L40 281 Q40 327 54 361.5 Q68 396 92.5 419 Q117 442 151.5 454 Q186 466 228 466 L290 466 Q332 466 366.5 454 Q401 442 425.5 419 Q450 396 464 361.5 Q478 327 478 281 L478 182 Q478 136 463.5 101.5 Q449 67 424 44.5 Q399 22 365.5 11 Q332 0 293 0 L225 0 Z " />
<glyph glyph-name="omegatonos" unicode="&#x3ce;" horiz-adv-x="687" d="M344 374 Q376 374 390 357.5 Q404 341 404 321 L404 178 Q404 144 422 126 Q440 108 468 108 Q493 108 509.5 124 Q526 140 526 168 L526 316 Q526 337 516 351 Q506 365 493 376 Q480 387 474.5 399.5 Q469 412 469 425 Q469 444 479 458 Q486 468 498.5 476.5 Q511 485 528 485 Q542 485 556 478 Q597 457 620.5 415 Q644 373 644 318 L644 162 Q644 129 634 99 Q624 69 603 46 Q582 23 548.5 9.5 Q515 -4 468 -4 Q433 -4 398.5 9.5 Q364 23 344 47 Q333 34 318.5 24.5 Q304 15 287.5 8.5 Q271 2 254 -1 Q237 -4 222 -4 Q173 -4 139 9 Q105 22 83.5 44.5 Q62 67 52.5 96.5 Q43 126 43 159 L43 316 Q43 370 67.5 413 Q92 456 134 478 Q147 485 161 485 Q177 485 189 476.5 Q201 468 209 458 Q220 444 220 426 Q220 412 213.5 399 Q207 386 195 376 Q179 363 171 348.5 Q163 334 163 313 L163 166 Q163 138 179.5 123 Q196 108 222 108 Q251 108 268.5 127 Q286 146 286 178 L286 321 Q286 338 299 356 Q312 374 344 374 Z M366 541 Q351 524 328 524 Q307 524 297.5 537 Q288 550 288 562 Q288 578 296 591 L359 703 Q367 718 381.5 729.5 Q396 741 416 741 Q441 741 458 723.5 Q475 706 475 683 Q475 672 471 660 Q467 648 458 639 L366 541 Z " />
<glyph glyph-name="rho" unicode="&#x3c1;" horiz-adv-x="523" d="M101 -211 Q72 -211 56 -197.5 Q40 -184 40 -167 L40 281 Q40 327 54 361.5 Q68 396 92.5 419.5 Q117 443 151.5 455 Q186 467 228 467 L291 467 Q332 467 367.5 455.5 Q403 444 428.5 421 Q454 398 468.5 364 Q483 330 483 285 L483 186 Q483 140 469 105.5 Q455 71 430.5 47.5 Q406 24 371.5 12.5 Q337 1 295 1 L160 1 L160 -167 Q160 -184 145.5 -197.5 Q131 -211 101 -211 Z M288 113 Q329 113 346 133 Q363 153 363 188 L363 281 Q363 313 346.5 332.5 Q330 352 289 352 L235 352 Q194 352 177 332 Q160 312 160 277 L160 113 L288 113 Z " />
<glyph glyph-name="sigma" unicode="&#x3c3;" horiz-adv-x="560" d="M225 0 Q186 0 152.5 11 Q119 22 94 44.5 Q69 67 54.5 101.5 Q40 136 40 182 L40 271 Q40 317 54.5 353 Q69 389 95 414 Q121 439 157.5 452.5 Q194 466 238 466 L504 466 Q521 466 535.5 452.5 Q550 439 550 412 Q550 383 535.5 368.5 Q521 354 504 354 L455 354 Q471 337 474.5 319 Q478 301 478 281 L478 182 Q478 136 463.5 101.5 Q449 67 424 44.5 Q399 22 365.5 11 Q332 0 293 0 L225 0 Z M245 352 Q199 352 179.5 327 Q160 302 160 267 L160 184 Q160 152 176.5 132.5 Q193 113 234 113 L284 113 Q325 113 341.5 132.5 Q358 152 358 184 L358 277 Q358 312 341 332 Q324 352 283 352 L245 352 Z " />
<glyph glyph-name="tau" unicode="&#x3c4;" horiz-adv-x="430" d="M339 466 Q356 466 371.5 452.5 Q387 439 387 412 Q387 383 371.5 368.5 Q356 354 339 354 L240 354 L240 182 Q240 144 258.5 127 Q277 110 314 110 L366 110 Q384 110 402 95.5 Q420 81 420 54 Q420 40 415 29.5 Q410 19 402 11.5 Q394 4 384.5 0.5 Q375 -3 366 -3 L285 -3 Q251 -3 221 7 Q191 17 169 39 Q147 61 134 94 Q121 127 121 174 L121 354 L62 354 Q45 354 29 368.5 Q13 383 13 412 Q13 440 29 453 Q45 466 62 466 L339 466 Z " />
<glyph glyph-name="theta" unicode="&#x3b8;" horiz-adv-x="522" d="M235 0 Q196 0 161.5 12 Q127 24 101 47.5 Q75 71 60 106 Q45 141 45 187 L45 502 Q45 548 59.5 583.5 Q74 619 100 643 Q126 667 161 679.5 Q196 692 238 692 L284 692 Q326 692 361 679.5 Q396 667 422 643 Q448 619 462.5 583.5 Q477 548 477 502 L477 187 Q477 141 462 106 Q447 71 421 47.5 Q395 24 360.5 12 Q326 0 287 0 L235 0 Z M278 113 Q319 113 338 135 Q357 157 357 189 L357 298 L165 298 L165 189 Q165 157 183 135 Q201 113 244 113 L278 113 Z M245 578 Q204 578 184.5 555.5 Q165 533 165 498 L165 410 L357 410 L357 498 Q357 533 337.5 555.5 Q318 578 277 578 L245 578 Z " />
<glyph glyph-name="omega" unicode="&#x3c9;" horiz-adv-x="687" d="M344 374 Q376 374 390 357.5 Q404 341 404 321 L404 178 Q404 144 422 126 Q440 108 468 108 Q493 108 509.5 124 Q526 140 526 168 L526 316 Q526 337 516 351 Q506 365 493 376 Q480 387 474.5 399.5 Q469 412 469 425 Q469 444 479 458 Q486 468 498.5 476.5 Q511 485 528 485 Q542 485 556 478 Q597 457 620.5 415 Q644 373 644 318 L644 162 Q644 129 634 99 Q624 69 603 46 Q582 23 548.5 9.5 Q515 -4 468 -4 Q433 -4 398.5 9.5 Q364 23 344 47 Q333 34 318.5 24.5 Q304 15 287.5 8.5 Q271 2 254 -1 Q237 -4 222 -4 Q173 -4 139 9 Q105 22 83.5 44.5 Q62 67 52.5 96.5 Q43 126 43 159 L43 316 Q43 370 67.5 413 Q92 456 134 478 Q147 485 161 485 Q177 485 189 476.5 Q201 468 209 458 Q220 444 220 426 Q220 412 213.5 399 Q207 386 195 376 Q179 363 171 348.5 Q163 334 163 313 L163 166 Q163 138 179.5 123 Q196 108 222 108 Q251 108 268.5 127 Q286 146 286 178 L286 321 Q286 338 299 356 Q312 374 344 374 Z " />
<glyph glyph-name="sigma1" unicode="&#x3c2;" horiz-adv-x="459" d="M92 0 Q84 0 75 3 Q66 6 58 13 Q50 20 45 31.5 Q40 43 40 60 Q40 77 46 88.5 Q52 100 60.5 106.5 Q69 113 78 116 Q87 119 92 119 L280 119 Q308 119 308 140 Q308 154 272 165 L164 196 Q137 203 113.5 213 Q90 223 72.5 238 Q55 253 45 275.5 Q35 298 35 332 Q35 390 72.5 427.5 Q110 465 183 465 L354 465 Q361 465 370 462.5 Q379 460 387 454 Q395 448 400.5 437 Q406 426 406 410 Q406 393 401 381.5 Q396 370 388 363 Q380 356 371 353 Q362 350 354 350 L183 350 Q172 350 165 346.5 Q158 343 158 333 Q158 328 167 322.5 Q176 317 190 313 L300 283 Q328 275 351.5 265 Q375 255 392.5 239 Q410 223 419.5 199.5 Q429 176 429 142 Q429 113 420 87.5 Q411 62 392.5 42.5 Q374 23 346 11.5 Q318 0 280 0 L92 0 Z " />
<glyph glyph-name="chi" unicode="&#x3c7;" horiz-adv-x="495" d="M344 460 Q359 478 381 478 Q397 478 410 471.5 Q423 465 432.5 455 Q442 445 447 433 Q452 421 452 411 Q452 397 444 387 L323 240 L456 84 Q463 76 463 60 Q463 51 459 39 Q455 27 447 16.5 Q439 6 426.5 -1 Q414 -8 398 -8 Q385 -8 373.5 -3.5 Q362 1 355 10 L246 144 L136 8 Q121 -10 97 -10 Q80 -10 67 -3 Q54 4 45 14 Q36 24 31.5 36 Q27 48 27 57 Q27 72 35 82 L168 240 L47 387 Q39 398 39 412 Q39 421 44 432.5 Q49 444 58 454 Q67 464 80 471 Q93 478 109 478 Q133 478 147 460 L246 333 L344 460 Z " />
<glyph glyph-name="upsilon" unicode="&#x3c5;" horiz-adv-x="528" d="M238 0 Q150 0 97.5 46.5 Q45 93 45 183 L45 425 Q45 441 59.5 456 Q74 471 105 471 Q135 471 150 457 Q165 443 165 425 L165 183 Q165 145 188.5 130.5 Q212 116 246 116 L282 116 Q316 116 339.5 130.5 Q363 145 363 183 L363 425 Q363 443 378 457 Q393 471 423 471 Q454 471 468.5 456 Q483 441 483 425 L483 183 Q483 93 430.5 46.5 Q378 0 290 0 L238 0 Z " />
<glyph glyph-name="zeta" unicode="&#x3b6;" horiz-adv-x="447" d="M38 148 Q38 174 51.5 200.5 Q65 227 88 253 Q111 279 141.5 304 Q172 329 206 353 L95 353 Q80 353 63.5 365.5 Q47 378 47 410 Q47 426 52.5 436.5 Q58 447 65.5 454 Q73 461 81.5 464 Q90 467 95 467 L382 467 Q405 467 422 456.5 Q439 446 439 421 L439 402 Q439 368 414 356 Q378 336 335.5 310.5 Q293 285 257 258 Q221 231 196.5 205 Q172 179 172 160 Q172 141 196.5 132 Q221 123 275 112 Q297 107 324.5 100 Q352 93 376 80 Q400 67 416.5 47.5 Q433 28 433 -1 Q433 -46 364 -130 Q358 -138 347.5 -145.5 Q337 -153 322 -153 Q309 -153 291 -144 Q274 -135 266.5 -123.5 Q259 -112 259 -100 Q259 -82 272 -64 Q296 -33 296 -21 Q296 -10 276 -5 Q256 0 227 6 Q188 13 154 22 Q120 31 94 46.5 Q68 62 53 86 Q38 110 38 148 Z " />
<glyph glyph-name="iotadieresis" unicode="&#x3ca;" horiz-adv-x="340" d="M197 -5 Q167 -5 152 10 Q137 25 137 42 L137 354 L95 354 Q78 354 62 368.5 Q46 383 46 410 Q46 439 62 452.5 Q78 466 95 466 L198 466 Q226 466 241.5 450 Q257 434 257 414 L257 42 Q257 25 242.5 10 Q228 -5 197 -5 Z M286 535 Q259 535 240.5 553 Q222 571 222 596 Q222 628 242 642.5 Q262 657 285 657 Q309 657 329 642.5 Q349 628 349 596 Q349 572 331 553.5 Q313 535 286 535 Z M79 535 Q52 535 33.5 553 Q15 571 15 596 Q15 628 35 642.5 Q55 657 78 657 Q102 657 122.5 642.5 Q143 628 143 596 Q143 572 124.5 553.5 Q106 535 79 535 Z " />
<glyph glyph-name="upsilondieresis" unicode="&#x3cb;" horiz-adv-x="528" d="M238 0 Q150 0 97.5 46.5 Q45 93 45 183 L45 425 Q45 441 59.5 456 Q74 471 105 471 Q135 471 150 457 Q165 443 165 425 L165 183 Q165 145 188.5 130.5 Q212 116 246 116 L282 116 Q316 116 339.5 130.5 Q363 145 363 183 L363 425 Q363 443 378 457 Q393 471 423 471 Q454 471 468.5 456 Q483 441 483 425 L483 183 Q483 93 430.5 46.5 Q378 0 290 0 L238 0 Z M365 535 Q338 535 319.5 553 Q301 571 301 596 Q301 628 321 642.5 Q341 657 364 657 Q388 657 408 642.5 Q428 628 428 596 Q428 572 410 553.5 Q392 535 365 535 Z M158 535 Q131 535 112.5 553 Q94 571 94 596 Q94 628 114 642.5 Q134 657 157 657 Q181 657 201.5 642.5 Q222 628 222 596 Q222 572 203.5 553.5 Q185 535 158 535 Z " />
<glyph glyph-name="iotadieresistonos" unicode="&#x390;" horiz-adv-x="340" d="M197 -5 Q167 -5 152 10 Q137 25 137 42 L137 354 L95 354 Q78 354 62 368.5 Q46 383 46 410 Q46 439 62 452.5 Q78 466 95 466 L198 466 Q226 466 241.5 450 Q257 434 257 414 L257 42 Q257 25 242.5 10 Q228 -5 197 -5 Z M332 535 Q305 535 286.5 553 Q268 571 268 596 Q268 628 288 642.5 Q308 657 331 657 Q355 657 375 642.5 Q395 628 395 596 Q395 572 377 553.5 Q359 535 332 535 Z M25 535 Q-2 535 -20.5 553 Q-39 571 -39 596 Q-39 628 -19 642.5 Q1 657 24 657 Q48 657 68.5 642.5 Q89 628 89 596 Q89 572 70.5 553.5 Q52 535 25 535 Z M174 541 Q159 524 136 524 Q115 524 105.5 537 Q96 550 96 562 Q96 578 104 591 L167 703 Q175 718 189.5 729.5 Q204 741 224 741 Q249 741 266 723.5 Q283 706 283 683 Q283 672 279 660 Q275 648 266 639 L174 541 Z " />
<glyph glyph-name="upsilondieresistonos" unicode="&#x3b0;" horiz-adv-x="528" d="M238 0 Q150 0 97.5 46.5 Q45 93 45 183 L45 425 Q45 441 59.5 456 Q74 471 105 471 Q135 471 150 457 Q165 443 165 425 L165 183 Q165 145 188.5 130.5 Q212 116 246 116 L282 116 Q316 116 339.5 130.5 Q363 145 363 183 L363 425 Q363 443 378 457 Q393 471 423 471 Q454 471 468.5 456 Q483 441 483 425 L483 183 Q483 93 430.5 46.5 Q378 0 290 0 L238 0 Z M419 535 Q392 535 373.5 553 Q355 571 355 596 Q355 628 375 642.5 Q395 657 418 657 Q442 657 462 642.5 Q482 628 482 596 Q482 572 464 553.5 Q446 535 419 535 Z M112 535 Q85 535 66.5 553 Q48 571 48 596 Q48 628 68 642.5 Q88 657 111 657 Q135 657 155.5 642.5 Q176 628 176 596 Q176 572 157.5 553.5 Q139 535 112 535 Z M261 541 Q246 524 223 524 Q202 524 192.5 537 Q183 550 183 562 Q183 578 191 591 L254 703 Q262 718 276.5 729.5 Q291 741 311 741 Q336 741 353 723.5 Q370 706 370 683 Q370 672 366 660 Q362 648 353 639 L261 541 Z " />
<glyph glyph-name="Euro" unicode="&#x20ac;" horiz-adv-x="520" d="M394 310 Q407 310 419 299 Q431 288 431 263 Q431 240 419 227.5 Q407 215 394 215 L203 215 L203 203 Q203 162 223.5 139.5 Q244 117 281 117 L448 116 Q475 116 488.5 100.5 Q502 85 502 58 Q502 31 488.5 15.5 Q475 0 448 0 L276 0 Q237 0 202 12.5 Q167 25 140.5 50 Q114 75 99 113.5 Q84 152 84 205 L84 215 L54 215 Q41 215 29 227.5 Q17 240 17 263 Q17 288 29 299 Q41 310 54 310 L394 310 Z M54 357 Q41 357 29 369.5 Q17 382 17 405 Q17 430 29 441 Q41 452 54 452 L84 452 L84 459 Q84 511 99.5 550 Q115 589 141 615.5 Q167 642 202.5 655 Q238 668 277 668 L448 668 Q476 668 489 652.5 Q502 637 502 610 Q502 583 489 567.5 Q476 552 448 552 L281 552 Q243 552 223 528 Q203 504 203 464 L203 452 L394 452 Q407 452 419 441 Q431 430 431 405 Q431 382 419 369.5 Q407 357 394 357 L54 357 Z " />
<glyph glyph-name="adieresis" unicode="&#xe4;" horiz-adv-x="529" d="M190 190 Q174 190 165 179 Q156 168 156 155 L156 152 Q156 138 164.5 126.5 Q173 115 190 115 L365 115 L365 190 L190 190 Z M364 293 L364 301 Q364 321 349.5 338.5 Q335 356 298 356 L161 356 Q144 356 128 367.5 Q112 379 112 408 Q112 437 128 451.5 Q144 466 161 466 L304 466 Q394 466 439.5 420.5 Q485 375 485 288 L485 61 Q485 54 482 43.5 Q479 33 472 23.5 Q465 14 454 7 Q443 0 427 0 L170 0 Q143 0 118.5 10.5 Q94 21 75.5 40.5 Q57 60 46.5 87 Q36 114 36 148 L36 157 Q36 184 45.5 208.5 Q55 233 73 251.5 Q91 270 117 281.5 Q143 293 177 293 L364 293 Z M384 535 Q357 535 338.5 553 Q320 571 320 596 Q320 628 340 642.5 Q360 657 383 657 Q407 657 427 642.5 Q447 628 447 596 Q447 572 429 553.5 Q411 535 384 535 Z M177 535 Q150 535 131.5 553 Q113 571 113 596 Q113 628 133 642.5 Q153 657 176 657 Q200 657 220.5 642.5 Q241 628 241 596 Q241 572 222.5 553.5 Q204 535 177 535 Z " />
<glyph glyph-name="acute" unicode="&#xb4;" horiz-adv-x="523" d="M269 541 Q254 524 231 524 Q210 524 200.5 537 Q191 550 191 562 Q191 578 199 591 L262 703 Q270 718 284.5 729.5 Q299 741 319 741 Q344 741 361 723.5 Q378 706 378 683 Q378 672 374 660 Q370 648 361 639 L269 541 Z " />
<glyph glyph-name="&amp;#xb5;" unicode="&#xb5;" horiz-adv-x="528" d="M105 471 Q135 471 150 457 Q165 443 165 425 L165 183 Q165 145 188.5 130.5 Q212 116 246 116 L362 116 L362 425 Q362 441 376.5 456 Q391 471 422 471 Q451 471 467 456.5 Q483 442 483 424 L483 62 Q483 53 480 42.5 Q477 32 469.5 22.5 Q462 13 450 6.5 Q438 0 419 0 L238 0 Q198 0 165 9 L165 -167 Q165 -184 150.5 -197.5 Q136 -211 106 -211 Q77 -211 61 -197.5 Q45 -184 45 -167 L45 425 Q45 441 59.5 456 Q74 471 105 471 Z " />
<glyph glyph-name="&amp;#x3bc;" unicode="&#x3bc;" horiz-adv-x="528" d="M105 471 Q135 471 150 457 Q165 443 165 425 L165 183 Q165 145 188.5 130.5 Q212 116 246 116 L362 116 L362 425 Q362 441 376.5 456 Q391 471 422 471 Q451 471 467 456.5 Q483 442 483 424 L483 62 Q483 53 480 42.5 Q477 32 469.5 22.5 Q462 13 450 6.5 Q438 0 419 0 L238 0 Q198 0 165 9 L165 -167 Q165 -184 150.5 -197.5 Q136 -211 106 -211 Q77 -211 61 -197.5 Q45 -184 45 -167 L45 425 Q45 441 59.5 456 Q74 471 105 471 Z " />
<glyph glyph-name="tilde" unicode="&#x2dc;" horiz-adv-x="454" d="M155 647 Q174 647 194.5 640.5 Q215 634 234.5 626.5 Q254 619 270 613 Q286 607 297 607 Q309 607 316 613.5 Q323 620 329.5 627.5 Q336 635 343.5 641.5 Q351 648 365 648 Q379 648 389 642.5 Q399 637 406 629 Q413 621 416 613 Q419 605 419 601 Q419 590 415 583 Q396 544 365 529.5 Q334 515 308 515 Q290 515 271 521 Q252 527 233.5 534.5 Q215 542 198 548 Q181 554 166 554 Q157 554 150.5 548 Q144 542 137 534.5 Q130 527 122 521 Q114 515 102 515 Q89 515 79 520 Q69 525 62.5 532.5 Q56 540 52.5 547.5 Q49 555 49 561 Q49 579 60 595 Q71 611 87 622.5 Q103 634 121.5 640.5 Q140 647 155 647 Z " />
<glyph glyph-name="circumflex" unicode="&#x2c6;" horiz-adv-x="500" d="M261 719 Q269 719 277 717 Q285 715 293 708 L421 593 Q435 581 435 565 Q435 545 417.5 532 Q400 519 385 519 Q370 519 356 530 L258 611 L150 528 Q138 519 124 519 Q99 519 86 534.5 Q73 550 73 567 Q73 581 86 593 L226 708 Q235 716 243.5 717.5 Q252 719 261 719 Z " />
<glyph glyph-name="cedilla" unicode="&#xb8;" horiz-adv-x="474" d="M386 -133 Q386 -148 379.5 -164 Q373 -180 359.5 -192.5 Q346 -205 325 -213.5 Q304 -222 276 -222 Q261 -222 244 -219.5 Q227 -217 213.5 -211.5 Q200 -206 191 -197.5 Q182 -189 182 -178 Q182 -165 191.5 -154 Q201 -143 212 -143 Q222 -143 240 -152 Q258 -161 274 -161 Q293 -161 301 -152.5 Q309 -144 309 -133 Q309 -127 303.5 -118 Q298 -109 277 -109 L239 -109 Q222 -109 212.5 -100 Q203 -91 203 -78 Q203 -72 206 -64 L237 15 L296 15 L268 -49 L297 -49 Q335 -49 360.5 -71.5 Q386 -94 386 -133 Z " />
<glyph glyph-name="Ccedilla" unicode="&#xc7;" horiz-adv-x="531" d="M423 -133 Q423 -148 416.5 -164 Q410 -180 396.5 -192.5 Q383 -205 362 -213.5 Q341 -222 313 -222 Q298 -222 281 -219.5 Q264 -217 250.5 -211.5 Q237 -206 228 -197.5 Q219 -189 219 -178 Q219 -165 228.5 -154 Q238 -143 249 -143 Q259 -143 277 -152 Q295 -161 311 -161 Q330 -161 338 -152.5 Q346 -144 346 -133 Q346 -127 340.5 -118 Q335 -109 314 -109 L276 -109 Q259 -109 249.5 -100 Q240 -91 240 -78 Q240 -72 243 -64 L268 0 L242 0 Q203 0 168 12.5 Q133 25 106.5 50 Q80 75 65 113.5 Q50 152 50 205 L50 459 Q50 511 65.5 550 Q81 589 107 615.5 Q133 642 168.5 655 Q204 668 243 668 L452 668 Q480 668 493 652.5 Q506 637 506 610 Q506 583 493 567.5 Q480 552 452 552 L247 552 Q209 552 189 528 Q169 504 169 464 L169 203 Q169 162 189.5 139.5 Q210 117 247 117 L452 116 Q479 116 492.5 100.5 Q506 85 506 58 Q506 31 492.5 15.5 Q479 0 452 0 L326 0 L305 -49 L334 -49 Q372 -49 397.5 -71.5 Q423 -94 423 -133 Z " />
<glyph glyph-name="ccedilla" unicode="&#xe7;" horiz-adv-x="443" d="M371 -133 Q371 -148 364.5 -164 Q358 -180 344.5 -192.5 Q331 -205 310 -213.5 Q289 -222 261 -222 Q246 -222 229 -219.5 Q212 -217 198.5 -211.5 Q185 -206 176 -197.5 Q167 -189 167 -178 Q167 -165 176.5 -154 Q186 -143 197 -143 Q207 -143 225 -152 Q243 -161 259 -161 Q278 -161 286 -152.5 Q294 -144 294 -133 Q294 -127 288.5 -118 Q283 -109 262 -109 L224 -109 Q207 -109 197.5 -100 Q188 -91 188 -78 Q188 -72 191 -64 L216 0 Q137 4 88.5 48.5 Q40 93 40 182 L40 281 Q40 327 54 361.5 Q68 396 92.5 419 Q117 442 151.5 454 Q186 466 228 466 L369 466 Q386 466 402 450.5 Q418 435 418 408 Q418 379 402 364.5 Q386 350 369 350 L235 350 Q194 350 177 330 Q160 310 160 275 L160 187 Q160 155 176 135 Q192 115 234 115 L374 115 Q391 115 407 100.5 Q423 86 423 57 Q423 30 407.5 15 Q392 0 373 0 L274 0 L253 -49 L282 -49 Q320 -49 345.5 -71.5 Q371 -94 371 -133 Z " />
<glyph glyph-name="ecircumflex" unicode="&#xea;" horiz-adv-x="500" d="M345 278 Q345 312 326 331 Q307 350 269 350 L233 350 Q201 350 180.5 331 Q160 312 160 278 L160 272 L345 272 L345 278 Z M276 466 Q316 466 350.5 453.5 Q385 441 410.5 417.5 Q436 394 450.5 359 Q465 324 465 279 L465 240 Q465 232 462 221.5 Q459 211 451.5 202 Q444 193 432 186.5 Q420 180 401 180 L160 180 L160 173 Q160 144 181.5 127 Q203 110 239 110 L372 110 Q389 110 405 98 Q421 86 421 57 Q421 30 405 15 Q389 0 372 0 L225 0 Q185 0 151 12 Q117 24 92.5 46.5 Q68 69 54 102.5 Q40 136 40 179 L40 279 Q40 323 54.5 358 Q69 393 94 417 Q119 441 153.5 453.5 Q188 466 229 466 L276 466 Z M267 719 Q275 719 283 717 Q291 715 299 708 L427 593 Q441 581 441 565 Q441 545 423.5 532 Q406 519 391 519 Q376 519 362 530 L264 611 L156 528 Q144 519 130 519 Q105 519 92 534.5 Q79 550 79 567 Q79 581 92 593 L232 708 Q241 716 249.5 717.5 Q258 719 267 719 Z " />
<glyph glyph-name="otilde" unicode="&#xf5;" horiz-adv-x="518" d="M235 358 Q194 358 177 338 Q160 318 160 283 L160 179 Q160 147 176.5 127.5 Q193 108 234 108 L284 108 Q325 108 341.5 127.5 Q358 147 358 179 L358 283 Q358 318 341 338 Q324 358 283 358 L235 358 Z M225 0 Q186 0 152.5 11 Q119 22 94 44.5 Q69 67 54.5 101.5 Q40 136 40 182 L40 281 Q40 327 54 361.5 Q68 396 92.5 419 Q117 442 151.5 454 Q186 466 228 466 L290 466 Q332 466 366.5 454 Q401 442 425.5 419 Q450 396 464 361.5 Q478 327 478 281 L478 182 Q478 136 463.5 101.5 Q449 67 424 44.5 Q399 22 365.5 11 Q332 0 293 0 L225 0 Z M181 657 Q200 657 220.5 650.5 Q241 644 260.5 636.5 Q280 629 296 623 Q312 617 323 617 Q335 617 342 623.5 Q349 630 355.5 637.5 Q362 645 369.5 651.5 Q377 658 391 658 Q405 658 415 652.5 Q425 647 432 639 Q439 631 442 623 Q445 615 445 611 Q445 600 441 593 Q422 554 391 539.5 Q360 525 334 525 Q316 525 297 531 Q278 537 259.5 544.5 Q241 552 224 558 Q207 564 192 564 Q183 564 176.5 558 Q170 552 163 544.5 Q156 537 148 531 Q140 525 128 525 Q115 525 105 530 Q95 535 88.5 542.5 Q82 550 78.5 557.5 Q75 565 75 571 Q75 589 86 605 Q97 621 113 632.5 Q129 644 147.5 650.5 Q166 657 181 657 Z " />
<glyph glyph-name="Adieresis" unicode="&#xc4;" horiz-adv-x="567" d="M281 474 L209 260 L357 260 Q339 313 321.5 366.5 Q304 420 285 474 L281 474 Z M169 149 L129 34 Q116 -6 76 -6 Q44 -6 27 11 Q10 28 10 50 Q10 55 11 61 Q12 67 14 72 L207 619 Q215 640 227.5 654 Q240 668 268 668 L298 668 Q325 668 338 654.5 Q351 641 359 619 L553 72 Q557 63 557 51 Q557 28 538 11 Q519 -6 489 -6 Q453 -6 437 35 L395 149 L169 149 Z M387 708 Q360 708 341.5 726 Q323 744 323 769 Q323 801 343 815.5 Q363 830 386 830 Q410 830 430 815.5 Q450 801 450 769 Q450 745 432 726.5 Q414 708 387 708 Z M180 708 Q153 708 134.5 726 Q116 744 116 769 Q116 801 136 815.5 Q156 830 179 830 Q203 830 223.5 815.5 Q244 801 244 769 Q244 745 225.5 726.5 Q207 708 180 708 Z " />
<glyph glyph-name="Eacute" unicode="&#xc9;" horiz-adv-x="534" d="M121 0 Q60 0 60 58 L60 610 Q60 668 121 668 L452 668 Q479 668 492.5 652.5 Q506 637 506 610 Q506 583 492.5 567.5 Q479 552 452 552 L180 552 L180 410 L410 410 Q437 410 449.5 394.5 Q462 379 462 352 Q462 325 449.5 310 Q437 295 410 295 L180 295 L180 116 L452 116 Q479 116 492.5 100.5 Q506 85 506 58 Q506 31 492.5 15.5 Q479 0 452 0 L121 0 Z M273 694 Q265 691 256 691 Q240 691 224.5 701 Q209 711 209 731 Q209 744 216.5 754.5 Q224 765 234 771 L342 841 Q351 847 361.5 851 Q372 855 384 855 Q392 855 402 851.5 Q412 848 420.5 840.5 Q429 833 435 822 Q441 811 441 796 Q441 777 430 761 Q419 745 399 738 L273 694 Z " />
<glyph glyph-name="Ntilde" unicode="&#xd1;" horiz-adv-x="619" d="M439 233 L439 619 Q439 674 499 674 Q559 674 559 619 L559 58 Q559 0 499 0 L469 0 Q443 0 432 10.5 Q421 21 411 38 L183 445 L180 445 L180 49 Q180 20 165 7 Q150 -6 120 -6 Q90 -6 75 7 Q60 20 60 49 L60 610 Q60 668 120 668 L152 668 Q179 668 192 654 Q205 640 216 621 Q272 523 325 428 Q378 333 435 233 L439 233 Z M236 831 Q255 831 275.5 824.5 Q296 818 315.5 810.5 Q335 803 351 797 Q367 791 378 791 Q390 791 397 797.5 Q404 804 410.5 811.5 Q417 819 424.5 825.5 Q432 832 446 832 Q460 832 470 826.5 Q480 821 487 813 Q494 805 497 797 Q500 789 500 785 Q500 774 496 767 Q477 728 446 713.5 Q415 699 389 699 Q371 699 352 705 Q333 711 314.5 718.5 Q296 726 279 732 Q262 738 247 738 Q238 738 231.5 732 Q225 726 218 718.5 Q211 711 203 705 Q195 699 183 699 Q170 699 160 704 Q150 709 143.5 716.5 Q137 724 133.5 731.5 Q130 739 130 745 Q130 763 141 779 Q152 795 168 806.5 Q184 818 202.5 824.5 Q221 831 236 831 Z " />
<glyph glyph-name="Odieresis" unicode="&#xd6;" horiz-adv-x="588" d="M339 668 Q440 668 489 613.5 Q538 559 538 454 L538 213 Q538 161 523 121 Q508 81 481.5 54 Q455 27 419 13.5 Q383 0 340 0 L247 0 Q204 0 168 11.5 Q132 23 105.5 48 Q79 73 64.5 113 Q50 153 50 210 L50 454 Q50 506 64.5 546 Q79 586 105 613 Q131 640 167.5 654 Q204 668 248 668 L339 668 Z M420 466 Q420 506 398 532.5 Q376 559 325 559 L262 559 Q214 559 191.5 532.5 Q169 506 169 466 L169 199 Q169 158 191.5 133 Q214 108 262 108 L325 108 Q373 108 396.5 135.5 Q420 163 420 201 L420 466 Z M405 708 Q378 708 359.5 726 Q341 744 341 769 Q341 801 361 815.5 Q381 830 404 830 Q428 830 448 815.5 Q468 801 468 769 Q468 745 450 726.5 Q432 708 405 708 Z M198 708 Q171 708 152.5 726 Q134 744 134 769 Q134 801 154 815.5 Q174 830 197 830 Q221 830 241.5 815.5 Q262 801 262 769 Q262 745 243.5 726.5 Q225 708 198 708 Z " />
<glyph glyph-name="Udieresis" unicode="&#xdc;" horiz-adv-x="611" d="M433 619 Q433 635 439 646 Q445 657 453.5 663 Q462 669 472.5 671.5 Q483 674 492 674 Q500 674 510.5 671.5 Q521 669 530 663 Q539 657 545 646 Q551 635 551 618 L551 208 Q551 156 535.5 117 Q520 78 494 52 Q468 26 433 13 Q398 0 358 0 L252 0 Q213 0 178 12.5 Q143 25 116.5 50 Q90 75 75 113.5 Q60 152 60 205 L60 618 Q60 635 66 646 Q72 657 81 663 Q90 669 100.5 671.5 Q111 674 120 674 Q129 674 139 671.5 Q149 669 158 662.5 Q167 656 173 645 Q179 634 179 618 L179 203 Q179 162 199.5 139.5 Q220 117 257 117 L353 117 Q391 117 412 142 Q433 167 433 205 L433 619 Z M207 708 Q180 708 161.5 726 Q143 744 143 769 Q143 801 163 815.5 Q183 830 206 830 Q230 830 250.5 815.5 Q271 801 271 769 Q271 745 252.5 726.5 Q234 708 207 708 Z M414 708 Q387 708 368.5 726 Q350 744 350 769 Q350 801 370 815.5 Q390 830 413 830 Q437 830 457 815.5 Q477 801 477 769 Q477 745 459 726.5 Q441 708 414 708 Z " />
<glyph glyph-name="agrave" unicode="&#xe0;" horiz-adv-x="529" d="M190 190 Q174 190 165 179 Q156 168 156 155 L156 152 Q156 138 164.5 126.5 Q173 115 190 115 L365 115 L365 190 L190 190 Z M364 293 L364 301 Q364 321 349.5 338.5 Q335 356 298 356 L161 356 Q144 356 128 367.5 Q112 379 112 408 Q112 437 128 451.5 Q144 466 161 466 L304 466 Q394 466 439.5 420.5 Q485 375 485 288 L485 61 Q485 54 482 43.5 Q479 33 472 23.5 Q465 14 454 7 Q443 0 427 0 L170 0 Q143 0 118.5 10.5 Q94 21 75.5 40.5 Q57 60 46.5 87 Q36 114 36 148 L36 157 Q36 184 45.5 208.5 Q55 233 73 251.5 Q91 270 117 281.5 Q143 293 177 293 L364 293 Z M177 639 Q160 658 160 683 Q160 706 177 723.5 Q194 741 219 741 Q239 741 253.5 729.5 Q268 718 276 703 L339 591 Q347 578 347 562 Q347 550 337.5 537 Q328 524 308 524 Q284 524 269 541 L177 639 Z " />
<glyph glyph-name="acircumflex" unicode="&#xe2;" horiz-adv-x="529" d="M190 190 Q174 190 165 179 Q156 168 156 155 L156 152 Q156 138 164.5 126.5 Q173 115 190 115 L365 115 L365 190 L190 190 Z M364 293 L364 301 Q364 321 349.5 338.5 Q335 356 298 356 L161 356 Q144 356 128 367.5 Q112 379 112 408 Q112 437 128 451.5 Q144 466 161 466 L304 466 Q394 466 439.5 420.5 Q485 375 485 288 L485 61 Q485 54 482 43.5 Q479 33 472 23.5 Q465 14 454 7 Q443 0 427 0 L170 0 Q143 0 118.5 10.5 Q94 21 75.5 40.5 Q57 60 46.5 87 Q36 114 36 148 L36 157 Q36 184 45.5 208.5 Q55 233 73 251.5 Q91 270 117 281.5 Q143 293 177 293 L364 293 Z M288 719 Q296 719 304 717 Q312 715 320 708 L448 593 Q462 581 462 565 Q462 545 444.5 532 Q427 519 412 519 Q397 519 383 530 L285 611 L177 528 Q165 519 151 519 Q126 519 113 534.5 Q100 550 100 567 Q100 581 113 593 L253 708 Q262 716 270.5 717.5 Q279 719 288 719 Z " />
<glyph glyph-name="egrave" unicode="&#xe8;" horiz-adv-x="500" d="M345 278 Q345 312 326 331 Q307 350 269 350 L233 350 Q201 350 180.5 331 Q160 312 160 278 L160 272 L345 272 L345 278 Z M276 466 Q316 466 350.5 453.5 Q385 441 410.5 417.5 Q436 394 450.5 359 Q465 324 465 279 L465 240 Q465 232 462 221.5 Q459 211 451.5 202 Q444 193 432 186.5 Q420 180 401 180 L160 180 L160 173 Q160 144 181.5 127 Q203 110 239 110 L372 110 Q389 110 405 98 Q421 86 421 57 Q421 30 405 15 Q389 0 372 0 L225 0 Q185 0 151 12 Q117 24 92.5 46.5 Q68 69 54 102.5 Q40 136 40 179 L40 279 Q40 323 54.5 358 Q69 393 94 417 Q119 441 153.5 453.5 Q188 466 229 466 L276 466 Z M142 639 Q125 658 125 683 Q125 706 142 723.5 Q159 741 184 741 Q204 741 218.5 729.5 Q233 718 241 703 L304 591 Q312 578 312 562 Q312 550 302.5 537 Q293 524 273 524 Q249 524 234 541 L142 639 Z " />
<glyph glyph-name="eacute" unicode="&#xe9;" horiz-adv-x="500" d="M345 278 Q345 312 326 331 Q307 350 269 350 L233 350 Q201 350 180.5 331 Q160 312 160 278 L160 272 L345 272 L345 278 Z M276 466 Q316 466 350.5 453.5 Q385 441 410.5 417.5 Q436 394 450.5 359 Q465 324 465 279 L465 240 Q465 232 462 221.5 Q459 211 451.5 202 Q444 193 432 186.5 Q420 180 401 180 L160 180 L160 173 Q160 144 181.5 127 Q203 110 239 110 L372 110 Q389 110 405 98 Q421 86 421 57 Q421 30 405 15 Q389 0 372 0 L225 0 Q185 0 151 12 Q117 24 92.5 46.5 Q68 69 54 102.5 Q40 136 40 179 L40 279 Q40 323 54.5 358 Q69 393 94 417 Q119 441 153.5 453.5 Q188 466 229 466 L276 466 Z M283 541 Q268 524 245 524 Q224 524 214.5 537 Q205 550 205 562 Q205 578 213 591 L276 703 Q284 718 298.5 729.5 Q313 741 333 741 Q358 741 375 723.5 Q392 706 392 683 Q392 672 388 660 Q384 648 375 639 L283 541 Z " />
<glyph glyph-name="edieresis" unicode="&#xeb;" horiz-adv-x="500" d="M345 278 Q345 312 326 331 Q307 350 269 350 L233 350 Q201 350 180.5 331 Q160 312 160 278 L160 272 L345 272 L345 278 Z M276 466 Q316 466 350.5 453.5 Q385 441 410.5 417.5 Q436 394 450.5 359 Q465 324 465 279 L465 240 Q465 232 462 221.5 Q459 211 451.5 202 Q444 193 432 186.5 Q420 180 401 180 L160 180 L160 173 Q160 144 181.5 127 Q203 110 239 110 L372 110 Q389 110 405 98 Q421 86 421 57 Q421 30 405 15 Q389 0 372 0 L225 0 Q185 0 151 12 Q117 24 92.5 46.5 Q68 69 54 102.5 Q40 136 40 179 L40 279 Q40 323 54.5 358 Q69 393 94 417 Q119 441 153.5 453.5 Q188 466 229 466 L276 466 Z M361 535 Q334 535 315.5 553 Q297 571 297 596 Q297 628 317 642.5 Q337 657 360 657 Q384 657 404 642.5 Q424 628 424 596 Q424 572 406 553.5 Q388 535 361 535 Z M154 535 Q127 535 108.5 553 Q90 571 90 596 Q90 628 110 642.5 Q130 657 153 657 Q177 657 197.5 642.5 Q218 628 218 596 Q218 572 199.5 553.5 Q181 535 154 535 Z " />
<glyph glyph-name="ocircumflex" unicode="&#xf4;" horiz-adv-x="518" d="M235 358 Q194 358 177 338 Q160 318 160 283 L160 179 Q160 147 176.5 127.5 Q193 108 234 108 L284 108 Q325 108 341.5 127.5 Q358 147 358 179 L358 283 Q358 318 341 338 Q324 358 283 358 L235 358 Z M225 0 Q186 0 152.5 11 Q119 22 94 44.5 Q69 67 54.5 101.5 Q40 136 40 182 L40 281 Q40 327 54 361.5 Q68 396 92.5 419 Q117 442 151.5 454 Q186 466 228 466 L290 466 Q332 466 366.5 454 Q401 442 425.5 419 Q450 396 464 361.5 Q478 327 478 281 L478 182 Q478 136 463.5 101.5 Q449 67 424 44.5 Q399 22 365.5 11 Q332 0 293 0 L225 0 Z M269 719 Q277 719 285 717 Q293 715 301 708 L429 593 Q443 581 443 565 Q443 545 425.5 532 Q408 519 393 519 Q378 519 364 530 L266 611 L158 528 Q146 519 132 519 Q107 519 94 534.5 Q81 550 81 567 Q81 581 94 593 L234 708 Q243 716 251.5 717.5 Q260 719 269 719 Z " />
<glyph glyph-name="odieresis" unicode="&#xf6;" horiz-adv-x="518" d="M235 358 Q194 358 177 338 Q160 318 160 283 L160 179 Q160 147 176.5 127.5 Q193 108 234 108 L284 108 Q325 108 341.5 127.5 Q358 147 358 179 L358 283 Q358 318 341 338 Q324 358 283 358 L235 358 Z M225 0 Q186 0 152.5 11 Q119 22 94 44.5 Q69 67 54.5 101.5 Q40 136 40 182 L40 281 Q40 327 54 361.5 Q68 396 92.5 419 Q117 442 151.5 454 Q186 466 228 466 L290 466 Q332 466 366.5 454 Q401 442 425.5 419 Q450 396 464 361.5 Q478 327 478 281 L478 182 Q478 136 463.5 101.5 Q449 67 424 44.5 Q399 22 365.5 11 Q332 0 293 0 L225 0 Z M365 535 Q338 535 319.5 553 Q301 571 301 596 Q301 628 321 642.5 Q341 657 364 657 Q388 657 408 642.5 Q428 628 428 596 Q428 572 410 553.5 Q392 535 365 535 Z M158 535 Q131 535 112.5 553 Q94 571 94 596 Q94 628 114 642.5 Q134 657 157 657 Q181 657 201.5 642.5 Q222 628 222 596 Q222 572 203.5 553.5 Q185 535 158 535 Z " />
<glyph glyph-name="ugrave" unicode="&#xf9;" horiz-adv-x="523" d="M100 471 Q130 471 145 457 Q160 443 160 425 L160 183 Q160 145 183.5 130.5 Q207 116 241 116 L357 116 L357 425 Q357 441 371.5 456 Q386 471 417 471 Q446 471 462 456.5 Q478 442 478 424 L478 62 Q478 53 475 42.5 Q472 32 464.5 22.5 Q457 13 445 6.5 Q433 0 414 0 L233 0 Q145 0 92.5 46.5 Q40 93 40 183 L40 425 Q40 441 54.5 456 Q69 471 100 471 Z M136 639 Q119 658 119 683 Q119 706 136 723.5 Q153 741 178 741 Q198 741 212.5 729.5 Q227 718 235 703 L298 591 Q306 578 306 562 Q306 550 296.5 537 Q287 524 267 524 Q243 524 228 541 L136 639 Z " />
<glyph glyph-name="ucircumflex" unicode="&#xfb;" horiz-adv-x="523" d="M100 471 Q130 471 145 457 Q160 443 160 425 L160 183 Q160 145 183.5 130.5 Q207 116 241 116 L357 116 L357 425 Q357 441 371.5 456 Q386 471 417 471 Q446 471 462 456.5 Q478 442 478 424 L478 62 Q478 53 475 42.5 Q472 32 464.5 22.5 Q457 13 445 6.5 Q433 0 414 0 L233 0 Q145 0 92.5 46.5 Q40 93 40 183 L40 425 Q40 441 54.5 456 Q69 471 100 471 Z M265 719 Q273 719 281 717 Q289 715 297 708 L425 593 Q439 581 439 565 Q439 545 421.5 532 Q404 519 389 519 Q374 519 360 530 L262 611 L154 528 Q142 519 128 519 Q103 519 90 534.5 Q77 550 77 567 Q77 581 90 593 L230 708 Q239 716 247.5 717.5 Q256 719 265 719 Z " />
<glyph glyph-name="udieresis" unicode="&#xfc;" horiz-adv-x="523" d="M100 471 Q130 471 145 457 Q160 443 160 425 L160 183 Q160 145 183.5 130.5 Q207 116 241 116 L357 116 L357 425 Q357 441 371.5 456 Q386 471 417 471 Q446 471 462 456.5 Q478 442 478 424 L478 62 Q478 53 475 42.5 Q472 32 464.5 22.5 Q457 13 445 6.5 Q433 0 414 0 L233 0 Q145 0 92.5 46.5 Q40 93 40 183 L40 425 Q40 441 54.5 456 Q69 471 100 471 Z M365 535 Q338 535 319.5 553 Q301 571 301 596 Q301 628 321 642.5 Q341 657 364 657 Q388 657 408 642.5 Q428 628 428 596 Q428 572 410 553.5 Q392 535 365 535 Z M158 535 Q131 535 112.5 553 Q94 571 94 596 Q94 628 114 642.5 Q134 657 157 657 Q181 657 201.5 642.5 Q222 628 222 596 Q222 572 203.5 553.5 Q185 535 158 535 Z " />
<glyph glyph-name="dotlessi" unicode="&#x131;" horiz-adv-x="340" d="M197 -5 Q167 -5 152 10 Q137 25 137 42 L137 354 L75 354 Q58 354 42 368.5 Q26 383 26 410 Q26 439 42 452.5 Q58 466 75 466 L198 466 Q226 466 241.5 450 Q257 434 257 414 L257 42 Q257 25 242.5 10 Q228 -5 197 -5 Z " />
<glyph glyph-name="icircumflex" unicode="&#xee;" horiz-adv-x="352" d="M203 -5 Q173 -5 158 10 Q143 25 143 42 L143 354 L81 354 Q64 354 48 368.5 Q32 383 32 410 Q32 439 48 452.5 Q64 466 81 466 L204 466 Q232 466 247.5 450 Q263 434 263 414 L263 42 Q263 25 248.5 10 Q234 -5 203 -5 Z M183 719 Q191 719 199 717 Q207 715 215 708 L343 593 Q357 581 357 565 Q357 545 339.5 532 Q322 519 307 519 Q292 519 278 530 L180 611 L72 528 Q60 519 46 519 Q21 519 8 534.5 Q-5 550 -5 567 Q-5 581 8 593 L148 708 Q157 716 165.5 717.5 Q174 719 183 719 Z " />
<glyph glyph-name="idieresis" unicode="&#xef;" horiz-adv-x="340" d="M283 535 Q256 535 237.5 553 Q219 571 219 596 Q219 628 239 642.5 Q259 657 282 657 Q306 657 326 642.5 Q346 628 346 596 Q346 572 328 553.5 Q310 535 283 535 Z M76 535 Q49 535 30.5 553 Q12 571 12 596 Q12 628 32 642.5 Q52 657 75 657 Q99 657 119.5 642.5 Q140 628 140 596 Q140 572 121.5 553.5 Q103 535 76 535 Z M197 -5 Q167 -5 152 10 Q137 25 137 42 L137 354 L75 354 Q58 354 42 368.5 Q26 383 26 410 Q26 439 42 452.5 Q58 466 75 466 L198 466 Q226 466 241.5 450 Q257 434 257 414 L257 42 Q257 25 242.5 10 Q228 -5 197 -5 Z " />
<glyph glyph-name="daggerdbl" unicode="&#x2021;" horiz-adv-x="476" d="M293 425 L293 312 L384 312 Q408 312 422 299 Q436 286 436 259 Q436 205 384 205 L293 205 L293 -14 Q293 -37 280 -51.5 Q267 -66 238 -66 Q183 -66 183 -14 L183 205 L91 205 Q68 205 54 218 Q40 231 40 259 Q40 286 53.5 299 Q67 312 91 312 L183 312 L183 425 L91 425 Q68 425 54 438 Q40 451 40 479 Q40 506 53.5 519 Q67 532 91 532 L183 532 L183 652 Q183 675 196 688 Q209 701 238 701 Q267 701 280 687.5 Q293 674 293 652 L293 532 L384 532 Q408 532 422 519 Q436 506 436 479 Q436 425 384 425 L293 425 Z " />
<glyph glyph-name="logicalnot" unicode="&#xac;" horiz-adv-x="520" d="M487 161 Q487 139 474.5 124 Q462 109 432 109 Q404 109 392 124.5 Q380 140 380 161 L380 269 L88 269 Q64 269 48 282 Q32 295 32 321 Q32 348 48.5 361 Q65 374 88 374 L432 374 Q455 374 471.5 361 Q488 348 488 321 L487 161 Z " />
<glyph glyph-name="brokenbar" unicode="&#xa6;" horiz-adv-x="519" d="M260 354 Q229 354 214.5 367 Q200 380 200 409 L200 730 Q200 785 260 785 Q319 785 319 730 L319 409 Q319 380 304.5 367 Q290 354 260 354 Z M260 -124 Q229 -124 214.5 -111 Q200 -98 200 -69 L200 253 Q200 308 260 308 Q319 308 319 253 L319 -69 Q319 -98 304.5 -111 Q290 -124 260 -124 Z " />
<glyph glyph-name="quotesinglbase" unicode="&#x201a;" horiz-adv-x="188" d="M110 -87 Q105 -98 93.5 -107.5 Q82 -117 63 -117 Q48 -117 37 -112 Q26 -107 19 -99.5 Q12 -92 9 -83.5 Q6 -75 6 -68 Q6 -66 6.5 -63.5 Q7 -61 7 -59 L34 80 Q38 100 55 117.5 Q72 135 101 135 Q137 135 154.5 114 Q172 93 172 69 Q172 56 168 47 L110 -87 Z " />
<glyph glyph-name="quotedblbase" unicode="&#x201e;" horiz-adv-x="385" d="M297 -88 Q292 -99 280.5 -108.5 Q269 -118 250 -118 Q235 -118 224 -113 Q213 -108 206 -100.5 Q199 -93 196 -84.5 Q193 -76 193 -69 Q193 -67 193.5 -64.5 Q194 -62 194 -60 L221 79 Q225 99 242 116.5 Q259 134 288 134 Q324 134 341.5 113 Q359 92 359 68 Q359 55 355 46 L297 -88 Z M128 -88 Q123 -99 111.5 -108.5 Q100 -118 81 -118 Q66 -118 55 -113 Q44 -108 37 -100.5 Q30 -93 27 -84.5 Q24 -76 24 -69 Q24 -67 24.5 -64.5 Q25 -62 25 -60 L52 79 Q56 99 73 116.5 Q90 134 119 134 Q155 134 172.5 113 Q190 92 190 68 Q190 55 186 46 L128 -88 Z " />
<glyph glyph-name="guilsinglright" unicode="&#x203a;" horiz-adv-x="307" d="M268 238 Q268 229 265.5 218 Q263 207 254 198 L132 69 Q117 54 101 54 Q80 54 60 70.5 Q40 87 40 113 Q41 121 43 129 Q45 137 52 144 L142 237 L52 326 Q37 341 37 361 Q37 370 41 379.5 Q45 389 52.5 397.5 Q60 406 70.5 411.5 Q81 417 94 417 Q114 417 129 402 L254 276 Q263 268 265.5 258 Q268 248 268 238 Z " />
<glyph glyph-name="guilsinglleft" unicode="&#x2039;" horiz-adv-x="307" d="M38 238 Q38 248 41 258 Q44 268 52 276 L177 402 Q192 417 212 417 Q225 417 235.5 411.5 Q246 406 253.5 397.5 Q261 389 265 379.5 Q269 370 269 361 Q269 341 254 326 L164 237 L254 144 Q261 137 263 129 Q265 121 266 113 Q266 87 246.5 70.5 Q227 54 205 54 Q189 54 174 69 L52 198 Q43 207 41 218 Q39 229 38 238 Z " />
<glyph glyph-name="exclamdown" unicode="&#xa1;" horiz-adv-x="233" d="M116 471 Q143 471 163 452.5 Q183 434 183 407 Q183 375 162.5 359 Q142 343 117 343 Q92 343 71.5 359 Q51 375 51 407 Q51 434 69.5 452.5 Q88 471 116 471 Z M117 288 Q149 288 163 270.5 Q177 253 177 226 L177 -135 Q177 -162 163 -179.5 Q149 -197 117 -197 Q85 -197 71.5 -179.5 Q58 -162 58 -135 L58 226 Q58 253 71.5 270.5 Q85 288 117 288 Z " />
<glyph glyph-name="questiondown" unicode="&#xbf;" horiz-adv-x="470" d="M221 471 Q249 471 268 452.5 Q287 434 287 407 Q287 375 266.5 359 Q246 343 221 343 Q196 343 175.5 359 Q155 375 155 407 Q155 434 173.5 452.5 Q192 471 221 471 Z M227 -197 Q38 -197 38 -45 Q38 -22 50 7 Q62 36 79 56 L125 108 Q144 132 151 149.5 Q158 167 158 185 L158 238 Q158 256 173.5 272 Q189 288 221 288 Q228 288 237.5 285.5 Q247 283 256 277 Q265 271 271.5 261.5 Q278 252 278 238 L278 158 Q279 137 268.5 117.5 Q258 98 243 78 L187 7 Q178 -5 172 -15 Q166 -25 166 -41 Q166 -62 187.5 -72.5 Q209 -83 241 -83 Q266 -83 289 -76 Q312 -69 344 -58 Q359 -53 370 -53 Q388 -53 404 -68 Q420 -83 420 -115 Q420 -138 399.5 -153.5 Q379 -169 349 -178.5 Q319 -188 285.5 -192.5 Q252 -197 227 -197 Z " />
<glyph glyph-name="plusminus" unicode="&#xb1;" horiz-adv-x="520" d="M316 289 L316 181 Q316 159 302.5 144 Q289 129 259 129 Q231 129 218 144.5 Q205 160 205 181 L205 289 L88 289 Q64 289 48 302 Q32 315 32 341 Q32 368 48.5 381 Q65 394 88 394 L205 394 L205 504 Q205 525 217.5 540 Q230 555 259 555 Q289 555 302.5 541.5 Q316 528 316 504 L316 394 L432 394 Q455 394 471.5 381 Q488 368 488 341 Q488 315 473 302 Q458 289 432 289 L316 289 Z M432 105 Q455 105 471.5 92 Q488 79 488 52 Q488 26 473 13 Q458 0 432 0 L88 0 Q64 0 48 13 Q32 26 32 52 Q32 79 48.5 92 Q65 105 88 105 L432 105 Z " />
<glyph glyph-name="thorn" unicode="&#xfe;" horiz-adv-x="528" d="M165 467 L296 467 Q337 467 372.5 455.5 Q408 444 433.5 421 Q459 398 473.5 364 Q488 330 488 285 L488 186 Q488 140 474 105.5 Q460 71 435.5 47.5 Q411 24 376.5 12 Q342 0 300 0 L165 0 L165 -167 Q165 -184 150.5 -197.5 Q136 -211 106 -211 Q77 -211 61 -197.5 Q45 -184 45 -167 L45 650 Q45 667 59.5 682 Q74 697 105 697 Q134 697 149.5 682 Q165 667 165 650 L165 467 Z M368 281 Q368 313 351.5 332.5 Q335 352 294 352 L165 352 L165 112 L293 112 Q334 112 351 132.5 Q368 153 368 188 L368 281 Z " />
<glyph glyph-name="ae" unicode="&#xe6;" horiz-adv-x="825" d="M485 182 L485 173 Q485 144 506.5 127 Q528 110 564 110 L697 110 Q714 110 730 98 Q746 86 746 57 Q746 30 730 15 Q714 0 697 0 L550 0 Q514 0 483 11.5 Q452 23 429 43 Q378 0 300 0 L170 0 Q143 0 118.5 9 Q94 18 75.5 35.5 Q57 53 46.5 78.5 Q36 104 36 138 L36 153 Q36 207 72.5 240 Q109 273 177 273 L364 273 L364 301 Q364 321 349.5 335.5 Q335 350 298 350 L161 350 Q144 350 128 363 Q112 376 112 405 Q112 434 128 450 Q144 466 161 466 L304 466 Q384 466 430 428 Q480 466 554 466 L601 466 Q641 466 675.5 453.5 Q710 441 735.5 417.5 Q761 394 775.5 359 Q790 324 790 279 L790 241 Q790 233 787 222.5 Q784 212 776.5 203 Q769 194 757 188 Q745 182 726 182 L485 182 Z M365 181 L190 181 Q174 181 165 173 Q156 165 156 152 L156 144 Q156 130 164.5 120 Q173 110 190 110 L286 110 Q322 110 343.5 127 Q365 144 365 173 L365 181 Z M670 279 Q670 313 651 331.5 Q632 350 594 350 L558 350 Q526 350 505.5 331.5 Q485 313 485 279 L485 273 L670 273 L670 279 Z " />
<glyph glyph-name="OE" unicode="&#x152;" horiz-adv-x="846" d="M247 0 Q208 0 172 13 Q136 26 109 52.5 Q82 79 66 118 Q50 157 50 210 L50 454 Q50 506 66 546 Q82 586 109.5 613 Q137 640 173 654 Q209 668 248 668 L764 668 Q791 668 804.5 652.5 Q818 637 818 610 Q818 583 804.5 567.5 Q791 552 764 552 L492 552 L492 410 L722 410 Q749 410 761.5 394.5 Q774 379 774 352 Q774 325 761.5 310 Q749 295 722 295 L492 295 L492 116 L764 116 Q791 116 804.5 100.5 Q818 85 818 58 Q818 31 804.5 15.5 Q791 0 764 0 L247 0 Z M252 555 Q211 555 190 528.5 Q169 502 169 462 L169 204 Q169 163 190.5 138 Q212 113 252 113 L372 113 L372 555 L252 555 Z " />
<glyph glyph-name="caron" unicode="&#x2c7;" horiz-adv-x="529" d="M272 519 Q263 519 254.5 520.5 Q246 522 237 530 L97 645 Q83 657 83 673 Q83 689 97 704.5 Q111 720 134 720 Q150 720 161 710 L269 627 L367 708 Q382 720 398 720 Q413 720 429.5 706.5 Q446 693 446 674 Q446 657 432 645 L304 530 Q296 523 288 521 Q280 519 272 519 Z " />
<glyph glyph-name="breve" unicode="&#x2d8;" horiz-adv-x="529" d="M271 608 Q297 608 320 626 Q343 644 364 675 Q372 687 383 692 Q394 697 405 697 Q427 697 440 683 Q453 669 453 655 Q453 648 451 644 Q436 611 414.5 587 Q393 563 369 547.5 Q345 532 320 525 Q295 518 274 518 Q250 518 225.5 523 Q201 528 177.5 541.5 Q154 555 133 579 Q112 603 96 640 Q93 647 93 654 Q93 667 106.5 683 Q120 699 143 699 Q154 699 165.5 694 Q177 689 184 678 Q207 643 224.5 625.5 Q242 608 271 608 Z " />
<glyph glyph-name="dotaccent" unicode="&#x2d9;" horiz-adv-x="529" d="M277 531 Q250 531 230 549.5 Q210 568 210 595 Q210 627 231 643 Q252 659 276 659 Q302 659 323 643 Q344 627 344 595 Q344 568 325 549.5 Q306 531 277 531 Z " />
<glyph glyph-name="ring" unicode="&#x2da;" horiz-adv-x="529" d="M247 611 Q247 593 259.5 580.5 Q272 568 291 568 Q308 568 320.5 580.5 Q333 593 333 611 Q333 629 320.5 642 Q308 655 291 655 Q272 655 259.5 642 Q247 629 247 611 Z M171 611 Q171 636 180 657.5 Q189 679 205.5 695 Q222 711 243.5 720.5 Q265 730 291 730 Q315 730 336.5 720.5 Q358 711 374 695 Q390 679 399.5 657.5 Q409 636 409 611 Q409 586 399.5 564.5 Q390 543 374 527 Q358 511 336.5 501.5 Q315 492 291 492 Q265 492 243.5 501.5 Q222 511 205.5 527 Q189 543 180 564.5 Q171 586 171 611 Z " />
<glyph glyph-name="ogonek" unicode="&#x2db;" horiz-adv-x="555" d="M409 35 L409 12 Q381 -13 366.5 -43.5 Q352 -74 352 -97 Q352 -113 362 -125 Q372 -137 398 -137 Q404 -137 412 -134.5 Q420 -132 428 -129 Q436 -126 443 -123.5 Q450 -121 454 -121 Q467 -121 477 -133 Q487 -145 487 -157 Q487 -171 475 -180.5 Q463 -190 447 -195.5 Q431 -201 415.5 -203.5 Q400 -206 393 -206 Q360 -206 337 -196.5 Q314 -187 299.5 -172 Q285 -157 278.5 -139 Q272 -121 272 -104 Q272 -72 288.5 -37 Q305 -2 346 35 L409 35 Z " />
<glyph glyph-name="hungarumlaut" unicode="&#x2dd;" horiz-adv-x="529" d="M235 541 Q220 524 197 524 Q176 524 166.5 537 Q157 550 157 562 Q157 578 165 591 L228 703 Q236 718 250.5 729.5 Q265 741 285 741 Q310 741 327 723.5 Q344 706 344 683 Q344 659 327 639 L235 541 Z M393 541 Q378 524 355 524 Q334 524 324.5 537 Q315 550 315 562 Q315 578 323 591 L386 703 Q394 718 408.5 729.5 Q423 741 443 741 Q468 741 485 723.5 Q502 706 502 683 Q502 672 498 660 Q494 648 485 639 L393 541 Z " />
<glyph glyph-name="anoteleia" unicode="&#x387;" horiz-adv-x="203" d="M104 229 Q74 229 54 249 Q34 269 34 296 Q34 330 55.5 346.5 Q77 363 103 363 Q129 363 150.5 346.5 Q172 330 172 296 Q172 270 153 249.5 Q134 229 104 229 Z " />
<glyph glyph-name="Circumflex" unicode="&#xf6c0;" horiz-adv-x="567" d="M284 882 Q301 882 321 870 L464 779 Q482 767 482 747 Q482 737 477.5 727 Q473 717 466 709.5 Q459 702 450 697.5 Q441 693 433 693 Q418 693 398 703 L284 763 L164 699 Q156 694 148.5 692.5 Q141 691 133 691 Q108 691 95 708.5 Q82 726 82 745 Q82 767 101 779 L247 870 Q258 877 266 879.5 Q274 882 284 882 Z " />
<glyph glyph-name="commaaccent" unicode="&#xf6c3;" horiz-adv-x="587" d="M337 -224 Q333 -233 322.5 -241.5 Q312 -250 296 -250 Q269 -250 258 -234.5 Q247 -219 247 -206 L247 -199 L271 -79 Q275 -61 289 -46 Q303 -31 329 -31 Q361 -31 376 -49.5 Q391 -68 391 -88 Q391 -99 387 -107 L337 -224 Z " />
<glyph glyph-name="Acute" unicode="&#xf6c9;" horiz-adv-x="567" d="M273 694 Q265 691 256 691 Q240 691 224.5 701 Q209 711 209 731 Q209 744 216.5 754.5 Q224 765 234 771 L342 841 Q351 847 361.5 851 Q372 855 384 855 Q392 855 402 851.5 Q412 848 420.5 840.5 Q429 833 435 822 Q441 811 441 796 Q441 777 430 761 Q419 745 399 738 L273 694 Z " />
<glyph glyph-name="Caron" unicode="&#xf6ca;" horiz-adv-x="567" d="M286 694 Q277 695 270 696.5 Q263 698 253 704 L121 787 Q103 798 103 818 Q103 835 115.5 850.5 Q128 866 150 866 Q165 866 178 859 L286 801 L388 855 Q404 864 420 864 Q435 864 449.5 849.5 Q464 835 464 816 Q464 797 448 787 L319 704 Q303 694 286 694 Z " />
<glyph glyph-name="Dieresis" unicode="&#xf6cb;" horiz-adv-x="567" d="M387 708 Q360 708 341.5 726 Q323 744 323 769 Q323 801 343 815.5 Q363 830 386 830 Q410 830 430 815.5 Q450 801 450 769 Q450 745 432 726.5 Q414 708 387 708 Z M180 708 Q153 708 134.5 726 Q116 744 116 769 Q116 801 136 815.5 Q156 830 179 830 Q203 830 223.5 815.5 Q244 801 244 769 Q244 745 225.5 726.5 Q207 708 180 708 Z " />
<glyph glyph-name="DieresisAcute" unicode="&#xf6cc;" horiz-adv-x="567" d="M205 773 Q190 783 182.5 796.5 Q175 810 175 824 Q175 836 180.5 846.5 Q186 857 194.5 865.5 Q203 874 213.5 878.5 Q224 883 233 883 Q248 883 260.5 876 Q273 869 282 858 L366 764 Q372 757 376.5 747.5 Q381 738 381 727 Q381 710 369.5 700 Q358 690 341 690 Q322 690 312 699 L205 773 Z M451 688 Q424 688 405.5 706 Q387 724 387 749 Q387 781 407 795.5 Q427 810 450 810 Q474 810 494 795.5 Q514 781 514 749 Q514 725 496 706.5 Q478 688 451 688 Z M126 688 Q99 688 80.5 706 Q62 724 62 749 Q62 781 82 795.5 Q102 810 125 810 Q149 810 169.5 795.5 Q190 781 190 749 Q190 725 171.5 706.5 Q153 688 126 688 Z " />
<glyph glyph-name="DieresisGrave" unicode="&#xf6cd;" horiz-adv-x="567" d="M451 688 Q424 688 405.5 706 Q387 724 387 749 Q387 781 407 795.5 Q427 810 450 810 Q474 810 494 795.5 Q514 781 514 749 Q514 725 496 706.5 Q478 688 451 688 Z M126 688 Q99 688 80.5 706 Q62 724 62 749 Q62 781 82 795.5 Q102 810 125 810 Q149 810 169.5 795.5 Q190 781 190 749 Q190 725 171.5 706.5 Q153 688 126 688 Z M266 699 Q255 690 237 690 Q220 690 208.5 700 Q197 710 197 727 Q197 738 201.5 747.5 Q206 757 212 764 L296 858 Q306 869 318.5 876 Q331 883 345 883 Q354 883 364.5 878.5 Q375 874 383.5 865.5 Q392 857 397.5 846.5 Q403 836 403 824 Q403 794 373 773 L266 699 Z " />
<glyph glyph-name="Grave" unicode="&#xf6ce;" horiz-adv-x="567" d="M162 738 Q142 745 131 761 Q120 777 120 796 Q120 811 126 822 Q132 833 140.5 840.5 Q149 848 159 851.5 Q169 855 177 855 Q189 855 199.5 851 Q210 847 219 841 L327 771 Q337 765 345 754.5 Q353 744 353 731 Q353 711 337.5 701 Q322 691 305 691 Q295 691 288 694 L162 738 Z " />
<glyph glyph-name="Hungarumlaut" unicode="&#xf6cf;" horiz-adv-x="567" d="M385 699 Q374 690 355 690 Q337 690 325 700.5 Q313 711 313 727 Q313 738 318 747.5 Q323 757 329 764 L416 858 Q426 869 439 876.5 Q452 884 467 884 Q477 884 487.5 879.5 Q498 875 506.5 867 Q515 859 520.5 848 Q526 837 526 825 Q526 810 518 796 Q510 782 496 773 L385 699 Z M213 699 Q202 690 183 690 Q165 690 153 700.5 Q141 711 141 727 Q141 738 146 747.5 Q151 757 157 764 L244 858 Q254 869 267 876.5 Q280 884 295 884 Q305 884 315.5 879.5 Q326 875 334.5 867 Q343 859 348.5 848 Q354 837 354 825 Q354 794 324 773 L213 699 Z " />
<glyph glyph-name="Macron" unicode="&#xf6d0;" horiz-adv-x="567" d="M181 706 Q153 706 136.5 717 Q120 728 120 754 Q120 780 136.5 791.5 Q153 803 181 803 L385 803 Q413 803 429.5 792 Q446 781 446 755 Q446 729 429.5 717.5 Q413 706 385 706 L181 706 Z " />
<glyph glyph-name="cyrBreve" unicode="&#xf6d1;" horiz-adv-x="567" d="M277 800 Q303 800 326 818 Q349 836 370 867 Q378 879 389 884 Q400 889 411 889 Q433 889 446 875 Q459 861 459 847 Q459 840 457 836 Q442 803 420.5 779 Q399 755 375 739.5 Q351 724 326 717 Q301 710 280 710 Q256 710 231.5 715 Q207 720 183.5 733.5 Q160 747 139 771 Q118 795 102 832 Q99 839 99 846 Q99 859 112.5 875 Q126 891 149 891 Q160 891 171.5 886 Q183 881 190 870 Q213 835 230.5 817.5 Q248 800 277 800 Z " />
<glyph glyph-name="cyrbreve" unicode="&#xf6d4;" horiz-adv-x="529" d="M270 611 Q296 611 319 629 Q342 647 363 678 Q371 690 382 695 Q393 700 404 700 Q426 700 439 686 Q452 672 452 658 Q452 651 450 647 Q435 614 413.5 590 Q392 566 368 550.5 Q344 535 319 528 Q294 521 273 521 Q249 521 224.5 526 Q200 531 176.5 544.5 Q153 558 132 582 Q111 606 95 643 Q92 650 92 657 Q92 670 105.5 686 Q119 702 142 702 Q153 702 164.5 697 Q176 692 183 681 Q206 646 223.5 628.5 Q241 611 270 611 Z " />
<glyph glyph-name="macron" unicode="&#xaf;" horiz-adv-x="529" d="M172 515 Q144 515 127.5 526 Q111 537 111 563 Q111 589 127.5 600.5 Q144 612 172 612 L376 612 Q404 612 420.5 601 Q437 590 437 564 Q437 538 420.5 526.5 Q404 515 376 515 L172 515 Z " />
<glyph glyph-name="Thorn" unicode="&#xde;" horiz-adv-x="573" d="M60 618 Q60 673 120 673 Q179 673 179 618 L179 540 L334 540 Q382 540 420.5 525.5 Q459 511 486.5 484 Q514 457 528.5 418.5 Q543 380 543 333 Q543 285 531 246 Q519 207 494 179.5 Q469 152 430 136.5 Q391 121 337 121 L179 121 L179 50 Q179 21 164.5 8 Q150 -5 120 -5 Q89 -5 74.5 8 Q60 21 60 50 L60 618 Z M179 424 L179 236 L343 236 Q365 236 380.5 244.5 Q396 253 405.5 266.5 Q415 280 419.5 297.5 Q424 315 424 333 Q424 358 416.5 375.5 Q409 393 397 404 Q385 415 370 419.5 Q355 424 341 424 L179 424 Z " />
<glyph glyph-name="divide" unicode="&#xf7;" horiz-adv-x="520" d="M88 269 Q64 269 48 282 Q32 295 32 321 Q32 348 48.5 361 Q65 374 88 374 L432 374 Q455 374 471.5 361 Q488 348 488 321 Q488 295 473 282 Q458 269 432 269 L88 269 Z M262 95 Q232 95 212 115 Q192 135 192 162 Q192 196 213.5 212.5 Q235 229 261 229 Q287 229 308.5 212.5 Q330 196 330 162 Q330 136 311 115.5 Q292 95 262 95 Z M262 414 Q232 414 212 434 Q192 454 192 481 Q192 515 213.5 531.5 Q235 548 261 548 Q287 548 308.5 531.5 Q330 515 330 481 Q330 455 311 434.5 Q292 414 262 414 Z " />
<glyph glyph-name="multiply" unicode="&#xd7;" horiz-adv-x="520" d="M107 396 Q99 404 94.5 413 Q90 422 90 432 Q90 442 95.5 452.5 Q101 463 109 471.5 Q117 480 127.5 485.5 Q138 491 149 491 Q169 491 185 475 L260 400 L336 475 Q353 492 371 492 Q381 492 391.5 486 Q402 480 411 471 Q420 462 425.5 451.5 Q431 441 431 432 Q431 414 414 397 L338 321 L413 246 Q430 231 430 211 Q430 201 424 190.5 Q418 180 409 171 Q400 162 389.5 156.5 Q379 151 370 151 Q352 151 335 168 L260 243 L186 169 Q178 161 169 156.5 Q160 152 150 152 Q141 152 130.5 157.5 Q120 163 111 171 Q102 179 96.5 189.5 Q91 200 91 211 Q91 231 107 247 L182 321 L107 396 Z " />
<glyph glyph-name="Eth" unicode="&#xd0;" horiz-adv-x="622" d="M121 0 Q60 0 60 58 L60 278 L48 278 Q19 278 1 290 Q-17 302 -17 329 Q-17 357 1 369.5 Q19 382 48 382 L60 382 L60 610 Q60 668 121 668 L388 668 Q428 668 461.5 655 Q495 642 519.5 616.5 Q544 591 558 552 Q572 513 572 461 L572 207 Q572 156 557.5 117.5 Q543 79 517 52.5 Q491 26 456 13 Q421 0 379 0 L121 0 Z M180 278 L180 116 L365 116 Q411 116 431.5 138.5 Q452 161 452 203 L452 464 Q452 506 431 529 Q410 552 363 552 L180 552 L180 382 L267 382 Q297 382 315 370 Q333 358 333 331 Q333 303 315 290.5 Q297 278 267 278 L180 278 Z " />
<glyph glyph-name="Scaron" unicode="&#x160;" horiz-adv-x="531" d="M105 0 Q98 0 89.5 2.5 Q81 5 73.5 12 Q66 19 61 30 Q56 41 56 58 Q56 74 61.5 85.5 Q67 97 75 103.5 Q83 110 91.5 113 Q100 116 105 116 L318 116 Q342 116 360 133 Q378 150 378 184 Q378 210 359.5 228.5 Q341 247 309 261 L182 315 Q152 328 126.5 341 Q101 354 81.5 373.5 Q62 393 51 421 Q40 449 40 491 Q40 528 51.5 560.5 Q63 593 85.5 617 Q108 641 140.5 655 Q173 669 216 669 L413 669 Q428 669 445 655 Q462 641 462 611 Q462 593 457 582 Q452 571 445 564.5 Q438 558 429 555.5 Q420 553 413 553 L216 553 Q191 553 174 537.5 Q157 522 157 492 Q157 467 171 452 Q185 437 212 426 L333 375 Q362 363 391 348 Q420 333 443.5 312 Q467 291 481.5 261 Q496 231 496 189 Q496 151 484.5 117 Q473 83 450.5 57 Q428 31 395 15.5 Q362 0 320 0 L105 0 Z M274 694 Q265 695 258 696.5 Q251 698 241 704 L109 787 Q91 798 91 818 Q91 835 103.5 850.5 Q116 866 138 866 Q153 866 166 859 L274 801 L376 855 Q392 864 408 864 Q423 864 437.5 849.5 Q452 835 452 816 Q452 797 436 787 L307 704 Q291 694 274 694 Z " />
<glyph glyph-name="Zcaron" unicode="&#x17d;" horiz-adv-x="541" d="M92 0 Q54 0 42 16 Q30 32 30 52 Q30 69 35 82.5 Q40 96 46 105 L347 552 L105 552 Q78 552 64.5 567.5 Q51 583 51 610 Q51 637 64.5 652.5 Q78 668 105 668 L453 668 Q485 668 497 651.5 Q509 635 509 614 Q509 597 504.5 585 Q500 573 493 563 L192 116 L461 116 Q490 116 501.5 99 Q513 82 513 58 Q513 35 501.5 17.5 Q490 0 461 0 L92 0 Z M294 694 Q285 695 278 696.5 Q271 698 261 704 L129 787 Q111 798 111 818 Q111 835 123.5 850.5 Q136 866 158 866 Q173 866 186 859 L294 801 L396 855 Q412 864 428 864 Q443 864 457.5 849.5 Q472 835 472 816 Q472 797 456 787 L327 704 Q311 694 294 694 Z " />
<glyph glyph-name="scaron" unicode="&#x161;" horiz-adv-x="459" d="M92 0 Q84 0 75 3 Q66 6 58 13 Q50 20 45 31.5 Q40 43 40 60 Q40 77 46 88.5 Q52 100 60.5 106.5 Q69 113 78 116 Q87 119 92 119 L280 119 Q308 119 308 140 Q308 154 272 165 L164 196 Q137 203 113.5 213 Q90 223 72.5 238 Q55 253 45 275.5 Q35 298 35 332 Q35 390 72.5 427.5 Q110 465 183 465 L354 465 Q361 465 370 462.5 Q379 460 387 454 Q395 448 400.5 437 Q406 426 406 410 Q406 393 401 381.5 Q396 370 388 363 Q380 356 371 353 Q362 350 354 350 L183 350 Q172 350 165 346.5 Q158 343 158 333 Q158 328 167 322.5 Q176 317 190 313 L300 283 Q328 275 351.5 265 Q375 255 392.5 239 Q410 223 419.5 199.5 Q429 176 429 142 Q429 113 420 87.5 Q411 62 392.5 42.5 Q374 23 346 11.5 Q318 0 280 0 L92 0 Z M239 519 Q230 519 221.5 520.5 Q213 522 204 530 L64 645 Q50 657 50 673 Q50 689 64 704.5 Q78 720 101 720 Q117 720 128 710 L236 627 L334 708 Q349 720 365 720 Q380 720 396.5 706.5 Q413 693 413 674 Q413 657 399 645 L271 530 Q263 523 255 521 Q247 519 239 519 Z " />
<glyph glyph-name="zcaron" unicode="&#x17e;" horiz-adv-x="477" d="M88 0 Q35 0 35 59 Q35 73 41 83.5 Q47 94 52 100 L276 353 L90 353 Q73 353 57.5 366.5 Q42 380 42 409 Q42 436 57.5 451.5 Q73 467 90 467 L396 467 Q422 467 437.5 452 Q453 437 453 408 Q453 395 448 384 Q443 373 437 367 L216 114 L402 114 Q417 114 427 108.5 Q437 103 443 94.5 Q449 86 451 76 Q453 66 453 57 Q453 49 451 39 Q449 29 443 20.5 Q437 12 427 6 Q417 0 402 0 L88 0 Z M260 519 Q251 519 242.5 520.5 Q234 522 225 530 L85 645 Q71 657 71 673 Q71 689 85 704.5 Q99 720 122 720 Q138 720 149 710 L257 627 L355 708 Q370 720 386 720 Q401 720 417.5 706.5 Q434 693 434 674 Q434 657 420 645 L292 530 Q284 523 276 521 Q268 519 260 519 Z " />
<glyph glyph-name="Ydieresis" unicode="&#x178;" horiz-adv-x="553" d="M282 385 L432 644 Q441 660 453.5 667.5 Q466 675 480 675 Q505 675 524.5 657 Q544 639 544 616 Q544 604 538 592 L340 258 L340 50 Q340 -6 280 -6 Q252 -6 236.5 8.5 Q221 23 221 50 L221 260 L15 597 Q10 607 10 616 Q10 628 16 638.5 Q22 649 32 657 Q42 665 54.5 670 Q67 675 80 675 Q109 675 127 644 L278 385 L282 385 Z M387 708 Q360 708 341.5 726 Q323 744 323 769 Q323 801 343 815.5 Q363 830 386 830 Q410 830 430 815.5 Q450 801 450 769 Q450 745 432 726.5 Q414 708 387 708 Z M180 708 Q153 708 134.5 726 Q116 744 116 769 Q116 801 136 815.5 Q156 830 179 830 Q203 830 223.5 815.5 Q244 801 244 769 Q244 745 225.5 726.5 Q207 708 180 708 Z " />
<glyph glyph-name="Agrave" unicode="&#xc0;" horiz-adv-x="567" d="M281 474 L209 260 L357 260 Q339 313 321.5 366.5 Q304 420 285 474 L281 474 Z M169 149 L129 34 Q116 -6 76 -6 Q44 -6 27 11 Q10 28 10 50 Q10 55 11 61 Q12 67 14 72 L207 619 Q215 640 227.5 654 Q240 668 268 668 L298 668 Q325 668 338 654.5 Q351 641 359 619 L553 72 Q557 63 557 51 Q557 28 538 11 Q519 -6 489 -6 Q453 -6 437 35 L395 149 L169 149 Z M162 738 Q142 745 131 761 Q120 777 120 796 Q120 811 126 822 Q132 833 140.5 840.5 Q149 848 159 851.5 Q169 855 177 855 Q189 855 199.5 851 Q210 847 219 841 L327 771 Q337 765 345 754.5 Q353 744 353 731 Q353 711 337.5 701 Q322 691 305 691 Q295 691 288 694 L162 738 Z " />
<glyph glyph-name="Aacute" unicode="&#xc1;" horiz-adv-x="567" d="M281 474 L209 260 L357 260 Q339 313 321.5 366.5 Q304 420 285 474 L281 474 Z M169 149 L129 34 Q116 -6 76 -6 Q44 -6 27 11 Q10 28 10 50 Q10 55 11 61 Q12 67 14 72 L207 619 Q215 640 227.5 654 Q240 668 268 668 L298 668 Q325 668 338 654.5 Q351 641 359 619 L553 72 Q557 63 557 51 Q557 28 538 11 Q519 -6 489 -6 Q453 -6 437 35 L395 149 L169 149 Z M273 694 Q265 691 256 691 Q240 691 224.5 701 Q209 711 209 731 Q209 744 216.5 754.5 Q224 765 234 771 L342 841 Q351 847 361.5 851 Q372 855 384 855 Q392 855 402 851.5 Q412 848 420.5 840.5 Q429 833 435 822 Q441 811 441 796 Q441 777 430 761 Q419 745 399 738 L273 694 Z " />
<glyph glyph-name="Acircumflex" unicode="&#xc2;" horiz-adv-x="567" d="M281 474 L209 260 L357 260 Q339 313 321.5 366.5 Q304 420 285 474 L281 474 Z M169 149 L129 34 Q116 -6 76 -6 Q44 -6 27 11 Q10 28 10 50 Q10 55 11 61 Q12 67 14 72 L207 619 Q215 640 227.5 654 Q240 668 268 668 L298 668 Q325 668 338 654.5 Q351 641 359 619 L553 72 Q557 63 557 51 Q557 28 538 11 Q519 -6 489 -6 Q453 -6 437 35 L395 149 L169 149 Z M284 882 Q301 882 321 870 L464 779 Q482 767 482 747 Q482 737 477.5 727 Q473 717 466 709.5 Q459 702 450 697.5 Q441 693 433 693 Q418 693 398 703 L284 763 L164 699 Q156 694 148.5 692.5 Q141 691 133 691 Q108 691 95 708.5 Q82 726 82 745 Q82 767 101 779 L247 870 Q258 877 266 879.5 Q274 882 284 882 Z " />
<glyph glyph-name="Atilde" unicode="&#xc3;" horiz-adv-x="567" d="M281 474 L209 260 L357 260 Q339 313 321.5 366.5 Q304 420 285 474 L281 474 Z M169 149 L129 34 Q116 -6 76 -6 Q44 -6 27 11 Q10 28 10 50 Q10 55 11 61 Q12 67 14 72 L207 619 Q215 640 227.5 654 Q240 668 268 668 L298 668 Q325 668 338 654.5 Q351 641 359 619 L553 72 Q557 63 557 51 Q557 28 538 11 Q519 -6 489 -6 Q453 -6 437 35 L395 149 L169 149 Z M196 843 Q215 843 235.5 836.5 Q256 830 275.5 822.5 Q295 815 311 809 Q327 803 338 803 Q350 803 357 809.5 Q364 816 370.5 823.5 Q377 831 384.5 837.5 Q392 844 406 844 Q420 844 430 838.5 Q440 833 447 825 Q454 817 457 809 Q460 801 460 797 Q460 786 456 779 Q437 740 406 725.5 Q375 711 349 711 Q331 711 312 717 Q293 723 274.5 730.5 Q256 738 239 744 Q222 750 207 750 Q198 750 191.5 744 Q185 738 178 730.5 Q171 723 163 717 Q155 711 143 711 Q130 711 120 716 Q110 721 103.5 728.5 Q97 736 93.5 743.5 Q90 751 90 757 Q90 775 101 791 Q112 807 128 818.5 Q144 830 162.5 836.5 Q181 843 196 843 Z " />
<glyph glyph-name="AE" unicode="&#xc6;" horiz-adv-x="846" d="M451 0 Q390 0 390 58 L390 168 L191 168 L127 34 Q108 -6 69 -6 Q40 -6 25.5 8 Q11 22 11 42 Q11 58 18 72 L284 619 Q295 641 309.5 654.5 Q324 668 352 668 L782 668 Q809 668 822.5 652.5 Q836 637 836 610 Q836 583 822.5 567.5 Q809 552 782 552 L510 552 L510 410 L740 410 Q767 410 779.5 394.5 Q792 379 792 352 Q792 325 779.5 310 Q767 295 740 295 L510 295 L510 116 L782 116 Q809 116 822.5 100.5 Q836 85 836 58 Q836 31 822.5 15.5 Q809 0 782 0 L451 0 Z M338 474 L246 279 L390 279 L390 551 L373 551 L338 474 Z " />
<glyph glyph-name="Egrave" unicode="&#xc8;" horiz-adv-x="534" d="M121 0 Q60 0 60 58 L60 610 Q60 668 121 668 L452 668 Q479 668 492.5 652.5 Q506 637 506 610 Q506 583 492.5 567.5 Q479 552 452 552 L180 552 L180 410 L410 410 Q437 410 449.5 394.5 Q462 379 462 352 Q462 325 449.5 310 Q437 295 410 295 L180 295 L180 116 L452 116 Q479 116 492.5 100.5 Q506 85 506 58 Q506 31 492.5 15.5 Q479 0 452 0 L121 0 Z M176 738 Q156 745 145 761 Q134 777 134 796 Q134 811 140 822 Q146 833 154.5 840.5 Q163 848 173 851.5 Q183 855 191 855 Q203 855 213.5 851 Q224 847 233 841 L341 771 Q351 765 359 754.5 Q367 744 367 731 Q367 711 351.5 701 Q336 691 319 691 Q309 691 302 694 L176 738 Z " />
<glyph glyph-name="Ecircumflex" unicode="&#xca;" horiz-adv-x="534" d="M121 0 Q60 0 60 58 L60 610 Q60 668 121 668 L452 668 Q479 668 492.5 652.5 Q506 637 506 610 Q506 583 492.5 567.5 Q479 552 452 552 L180 552 L180 410 L410 410 Q437 410 449.5 394.5 Q462 379 462 352 Q462 325 449.5 310 Q437 295 410 295 L180 295 L180 116 L452 116 Q479 116 492.5 100.5 Q506 85 506 58 Q506 31 492.5 15.5 Q479 0 452 0 L121 0 Z M277 882 Q294 882 314 870 L457 779 Q475 767 475 747 Q475 737 470.5 727 Q466 717 459 709.5 Q452 702 443 697.5 Q434 693 426 693 Q411 693 391 703 L277 763 L157 699 Q149 694 141.5 692.5 Q134 691 126 691 Q101 691 88 708.5 Q75 726 75 745 Q75 767 94 779 L240 870 Q251 877 259 879.5 Q267 882 277 882 Z " />
<glyph glyph-name="Edieresis" unicode="&#xcb;" horiz-adv-x="534" d="M121 0 Q60 0 60 58 L60 610 Q60 668 121 668 L452 668 Q479 668 492.5 652.5 Q506 637 506 610 Q506 583 492.5 567.5 Q479 552 452 552 L180 552 L180 410 L410 410 Q437 410 449.5 394.5 Q462 379 462 352 Q462 325 449.5 310 Q437 295 410 295 L180 295 L180 116 L452 116 Q479 116 492.5 100.5 Q506 85 506 58 Q506 31 492.5 15.5 Q479 0 452 0 L121 0 Z M378 708 Q351 708 332.5 726 Q314 744 314 769 Q314 801 334 815.5 Q354 830 377 830 Q401 830 421 815.5 Q441 801 441 769 Q441 745 423 726.5 Q405 708 378 708 Z M171 708 Q144 708 125.5 726 Q107 744 107 769 Q107 801 127 815.5 Q147 830 170 830 Q194 830 214.5 815.5 Q235 801 235 769 Q235 745 216.5 726.5 Q198 708 171 708 Z " />
<glyph glyph-name="Igrave" unicode="&#xcc;" horiz-adv-x="269" d="M135 -5 Q104 -5 89.5 8 Q75 21 75 50 L75 618 Q75 673 135 673 Q194 673 194 618 L194 50 Q194 21 179.5 8 Q165 -5 135 -5 Z M14 738 Q-6 745 -17 761 Q-28 777 -28 796 Q-28 811 -22 822 Q-16 833 -7.5 840.5 Q1 848 11 851.5 Q21 855 29 855 Q41 855 51.5 851 Q62 847 71 841 L179 771 Q189 765 197 754.5 Q205 744 205 731 Q205 711 189.5 701 Q174 691 157 691 Q147 691 140 694 L14 738 Z " />
<glyph glyph-name="Iacute" unicode="&#xcd;" horiz-adv-x="269" d="M135 -5 Q104 -5 89.5 8 Q75 21 75 50 L75 618 Q75 673 135 673 Q194 673 194 618 L194 50 Q194 21 179.5 8 Q165 -5 135 -5 Z M118 694 Q110 691 101 691 Q85 691 69.5 701 Q54 711 54 731 Q54 744 61.5 754.5 Q69 765 79 771 L187 841 Q196 847 206.5 851 Q217 855 229 855 Q237 855 247 851.5 Q257 848 265.5 840.5 Q274 833 280 822 Q286 811 286 796 Q286 777 275 761 Q264 745 244 738 L118 694 Z " />
<glyph glyph-name="Icircumflex" unicode="&#xce;" horiz-adv-x="269" d="M135 -5 Q104 -5 89.5 8 Q75 21 75 50 L75 618 Q75 673 135 673 Q194 673 194 618 L194 50 Q194 21 179.5 8 Q165 -5 135 -5 Z M139 882 Q156 882 176 870 L319 779 Q337 767 337 747 Q337 737 332.5 727 Q328 717 321 709.5 Q314 702 305 697.5 Q296 693 288 693 Q273 693 253 703 L139 763 L19 699 Q11 694 3.5 692.5 Q-4 691 -12 691 Q-37 691 -50 708.5 Q-63 726 -63 745 Q-63 767 -44 779 L102 870 Q113 877 121 879.5 Q129 882 139 882 Z " />
<glyph glyph-name="Idieresis" unicode="&#xcf;" horiz-adv-x="269" d="M135 -5 Q104 -5 89.5 8 Q75 21 75 50 L75 618 Q75 673 135 673 Q194 673 194 618 L194 50 Q194 21 179.5 8 Q165 -5 135 -5 Z M237 708 Q210 708 191.5 726 Q173 744 173 769 Q173 801 193 815.5 Q213 830 236 830 Q260 830 280 815.5 Q300 801 300 769 Q300 745 282 726.5 Q264 708 237 708 Z M30 708 Q3 708 -15.5 726 Q-34 744 -34 769 Q-34 801 -14 815.5 Q6 830 29 830 Q53 830 73.5 815.5 Q94 801 94 769 Q94 745 75.5 726.5 Q57 708 30 708 Z " />
<glyph glyph-name="Ograve" unicode="&#xd2;" horiz-adv-x="588" d="M339 668 Q440 668 489 613.5 Q538 559 538 454 L538 213 Q538 161 523 121 Q508 81 481.5 54 Q455 27 419 13.5 Q383 0 340 0 L247 0 Q204 0 168 11.5 Q132 23 105.5 48 Q79 73 64.5 113 Q50 153 50 210 L50 454 Q50 506 64.5 546 Q79 586 105 613 Q131 640 167.5 654 Q204 668 248 668 L339 668 Z M420 466 Q420 506 398 532.5 Q376 559 325 559 L262 559 Q214 559 191.5 532.5 Q169 506 169 466 L169 199 Q169 158 191.5 133 Q214 108 262 108 L325 108 Q373 108 396.5 135.5 Q420 163 420 201 L420 466 Z M187 738 Q167 745 156 761 Q145 777 145 796 Q145 811 151 822 Q157 833 165.5 840.5 Q174 848 184 851.5 Q194 855 202 855 Q214 855 224.5 851 Q235 847 244 841 L352 771 Q362 765 370 754.5 Q378 744 378 731 Q378 711 362.5 701 Q347 691 330 691 Q320 691 313 694 L187 738 Z " />
<glyph glyph-name="Oacute" unicode="&#xd3;" horiz-adv-x="588" d="M339 668 Q440 668 489 613.5 Q538 559 538 454 L538 213 Q538 161 523 121 Q508 81 481.5 54 Q455 27 419 13.5 Q383 0 340 0 L247 0 Q204 0 168 11.5 Q132 23 105.5 48 Q79 73 64.5 113 Q50 153 50 210 L50 454 Q50 506 64.5 546 Q79 586 105 613 Q131 640 167.5 654 Q204 668 248 668 L339 668 Z M420 466 Q420 506 398 532.5 Q376 559 325 559 L262 559 Q214 559 191.5 532.5 Q169 506 169 466 L169 199 Q169 158 191.5 133 Q214 108 262 108 L325 108 Q373 108 396.5 135.5 Q420 163 420 201 L420 466 Z M256 694 Q248 691 239 691 Q223 691 207.5 701 Q192 711 192 731 Q192 744 199.5 754.5 Q207 765 217 771 L325 841 Q334 847 344.5 851 Q355 855 367 855 Q375 855 385 851.5 Q395 848 403.5 840.5 Q412 833 418 822 Q424 811 424 796 Q424 777 413 761 Q402 745 382 738 L256 694 Z " />
<glyph glyph-name="Ocircumflex" unicode="&#xd4;" horiz-adv-x="588" d="M339 668 Q440 668 489 613.5 Q538 559 538 454 L538 213 Q538 161 523 121 Q508 81 481.5 54 Q455 27 419 13.5 Q383 0 340 0 L247 0 Q204 0 168 11.5 Q132 23 105.5 48 Q79 73 64.5 113 Q50 153 50 210 L50 454 Q50 506 64.5 546 Q79 586 105 613 Q131 640 167.5 654 Q204 668 248 668 L339 668 Z M420 466 Q420 506 398 532.5 Q376 559 325 559 L262 559 Q214 559 191.5 532.5 Q169 506 169 466 L169 199 Q169 158 191.5 133 Q214 108 262 108 L325 108 Q373 108 396.5 135.5 Q420 163 420 201 L420 466 Z M303 882 Q320 882 340 870 L483 779 Q501 767 501 747 Q501 737 496.5 727 Q492 717 485 709.5 Q478 702 469 697.5 Q460 693 452 693 Q437 693 417 703 L303 763 L183 699 Q175 694 167.5 692.5 Q160 691 152 691 Q127 691 114 708.5 Q101 726 101 745 Q101 767 120 779 L266 870 Q277 877 285 879.5 Q293 882 303 882 Z " />
<glyph glyph-name="Otilde" unicode="&#xd5;" horiz-adv-x="588" d="M339 668 Q440 668 489 613.5 Q538 559 538 454 L538 213 Q538 161 523 121 Q508 81 481.5 54 Q455 27 419 13.5 Q383 0 340 0 L247 0 Q204 0 168 11.5 Q132 23 105.5 48 Q79 73 64.5 113 Q50 153 50 210 L50 454 Q50 506 64.5 546 Q79 586 105 613 Q131 640 167.5 654 Q204 668 248 668 L339 668 Z M420 466 Q420 506 398 532.5 Q376 559 325 559 L262 559 Q214 559 191.5 532.5 Q169 506 169 466 L169 199 Q169 158 191.5 133 Q214 108 262 108 L325 108 Q373 108 396.5 135.5 Q420 163 420 201 L420 466 Z M218 827 Q237 827 257.5 820.5 Q278 814 297.5 806.5 Q317 799 333 793 Q349 787 360 787 Q372 787 379 793.5 Q386 800 392.5 807.5 Q399 815 406.5 821.5 Q414 828 428 828 Q442 828 452 822.5 Q462 817 469 809 Q476 801 479 793 Q482 785 482 781 Q482 770 478 763 Q459 724 428 709.5 Q397 695 371 695 Q353 695 334 701 Q315 707 296.5 714.5 Q278 722 261 728 Q244 734 229 734 Q220 734 213.5 728 Q207 722 200 714.5 Q193 707 185 701 Q177 695 165 695 Q152 695 142 700 Q132 705 125.5 712.5 Q119 720 115.5 727.5 Q112 735 112 741 Q112 759 123 775 Q134 791 150 802.5 Q166 814 184.5 820.5 Q203 827 218 827 Z " />
<glyph glyph-name="Oslash" unicode="&#xd8;" horiz-adv-x="588" d="M339 668 Q419 668 466 633 L479 650 Q489 664 503 664 Q518 664 528.5 652.5 Q539 641 539 632 Q539 623 531 612 L510 583 Q538 533 538 454 L538 213 Q538 161 523 121 Q508 81 481.5 54 Q455 27 419 13.5 Q383 0 340 0 L247 0 Q210 0 178 8 Q146 16 121 35 L105 13 Q94 -1 81 -1 Q67 -1 56.5 9.5 Q46 20 46 34 Q46 45 52 54 L76 87 Q50 134 50 210 L50 454 Q50 506 64.5 546 Q79 586 105 613 Q131 640 167.5 654 Q204 668 248 668 L339 668 Z M420 456 L191 134 Q214 108 262 108 L325 108 Q373 108 396.5 135.5 Q420 163 420 201 L420 456 Z M169 217 L396 534 Q371 559 325 559 L262 559 Q214 559 191.5 532.5 Q169 506 169 466 L169 217 Z " />
<glyph glyph-name="Ugrave" unicode="&#xd9;" horiz-adv-x="611" d="M433 619 Q433 635 439 646 Q445 657 453.5 663 Q462 669 472.5 671.5 Q483 674 492 674 Q500 674 510.5 671.5 Q521 669 530 663 Q539 657 545 646 Q551 635 551 618 L551 208 Q551 156 535.5 117 Q520 78 494 52 Q468 26 433 13 Q398 0 358 0 L252 0 Q213 0 178 12.5 Q143 25 116.5 50 Q90 75 75 113.5 Q60 152 60 205 L60 618 Q60 635 66 646 Q72 657 81 663 Q90 669 100.5 671.5 Q111 674 120 674 Q129 674 139 671.5 Q149 669 158 662.5 Q167 656 173 645 Q179 634 179 618 L179 203 Q179 162 199.5 139.5 Q220 117 257 117 L353 117 Q391 117 412 142 Q433 167 433 205 L433 619 Z M206 738 Q186 745 175 761 Q164 777 164 796 Q164 811 170 822 Q176 833 184.5 840.5 Q193 848 203 851.5 Q213 855 221 855 Q233 855 243.5 851 Q254 847 263 841 L371 771 Q381 765 389 754.5 Q397 744 397 731 Q397 711 381.5 701 Q366 691 349 691 Q339 691 332 694 L206 738 Z " />
<glyph glyph-name="Uacute" unicode="&#xda;" horiz-adv-x="611" d="M433 619 Q433 635 439 646 Q445 657 453.5 663 Q462 669 472.5 671.5 Q483 674 492 674 Q500 674 510.5 671.5 Q521 669 530 663 Q539 657 545 646 Q551 635 551 618 L551 208 Q551 156 535.5 117 Q520 78 494 52 Q468 26 433 13 Q398 0 358 0 L252 0 Q213 0 178 12.5 Q143 25 116.5 50 Q90 75 75 113.5 Q60 152 60 205 L60 618 Q60 635 66 646 Q72 657 81 663 Q90 669 100.5 671.5 Q111 674 120 674 Q129 674 139 671.5 Q149 669 158 662.5 Q167 656 173 645 Q179 634 179 618 L179 203 Q179 162 199.5 139.5 Q220 117 257 117 L353 117 Q391 117 412 142 Q433 167 433 205 L433 619 Z M301 694 Q293 691 284 691 Q268 691 252.5 701 Q237 711 237 731 Q237 744 244.5 754.5 Q252 765 262 771 L370 841 Q379 847 389.5 851 Q400 855 412 855 Q420 855 430 851.5 Q440 848 448.5 840.5 Q457 833 463 822 Q469 811 469 796 Q469 777 458 761 Q447 745 427 738 L301 694 Z " />
<glyph glyph-name="Ucircumflex" unicode="&#xdb;" horiz-adv-x="611" d="M433 619 Q433 635 439 646 Q445 657 453.5 663 Q462 669 472.5 671.5 Q483 674 492 674 Q500 674 510.5 671.5 Q521 669 530 663 Q539 657 545 646 Q551 635 551 618 L551 208 Q551 156 535.5 117 Q520 78 494 52 Q468 26 433 13 Q398 0 358 0 L252 0 Q213 0 178 12.5 Q143 25 116.5 50 Q90 75 75 113.5 Q60 152 60 205 L60 618 Q60 635 66 646 Q72 657 81 663 Q90 669 100.5 671.5 Q111 674 120 674 Q129 674 139 671.5 Q149 669 158 662.5 Q167 656 173 645 Q179 634 179 618 L179 203 Q179 162 199.5 139.5 Q220 117 257 117 L353 117 Q391 117 412 142 Q433 167 433 205 L433 619 Z M308 882 Q325 882 345 870 L488 779 Q506 767 506 747 Q506 737 501.5 727 Q497 717 490 709.5 Q483 702 474 697.5 Q465 693 457 693 Q442 693 422 703 L308 763 L188 699 Q180 694 172.5 692.5 Q165 691 157 691 Q132 691 119 708.5 Q106 726 106 745 Q106 767 125 779 L271 870 Q282 877 290 879.5 Q298 882 308 882 Z " />
<glyph glyph-name="Yacute" unicode="&#xdd;" horiz-adv-x="553" d="M282 385 L432 644 Q441 660 453.5 667.5 Q466 675 480 675 Q505 675 524.5 657 Q544 639 544 616 Q544 604 538 592 L340 258 L340 50 Q340 -6 280 -6 Q252 -6 236.5 8.5 Q221 23 221 50 L221 260 L15 597 Q10 607 10 616 Q10 628 16 638.5 Q22 649 32 657 Q42 665 54.5 670 Q67 675 80 675 Q109 675 127 644 L278 385 L282 385 Z M268 694 Q260 691 251 691 Q235 691 219.5 701 Q204 711 204 731 Q204 744 211.5 754.5 Q219 765 229 771 L337 841 Q346 847 356.5 851 Q367 855 379 855 Q387 855 397 851.5 Q407 848 415.5 840.5 Q424 833 430 822 Q436 811 436 796 Q436 777 425 761 Q414 745 394 738 L268 694 Z " />
<glyph glyph-name="aacute" unicode="&#xe1;" horiz-adv-x="529" d="M190 190 Q174 190 165 179 Q156 168 156 155 L156 152 Q156 138 164.5 126.5 Q173 115 190 115 L365 115 L365 190 L190 190 Z M364 293 L364 301 Q364 321 349.5 338.5 Q335 356 298 356 L161 356 Q144 356 128 367.5 Q112 379 112 408 Q112 437 128 451.5 Q144 466 161 466 L304 466 Q394 466 439.5 420.5 Q485 375 485 288 L485 61 Q485 54 482 43.5 Q479 33 472 23.5 Q465 14 454 7 Q443 0 427 0 L170 0 Q143 0 118.5 10.5 Q94 21 75.5 40.5 Q57 60 46.5 87 Q36 114 36 148 L36 157 Q36 184 45.5 208.5 Q55 233 73 251.5 Q91 270 117 281.5 Q143 293 177 293 L364 293 Z M269 541 Q254 524 231 524 Q210 524 200.5 537 Q191 550 191 562 Q191 578 199 591 L262 703 Q270 718 284.5 729.5 Q299 741 319 741 Q344 741 361 723.5 Q378 706 378 683 Q378 672 374 660 Q370 648 361 639 L269 541 Z " />
<glyph glyph-name="atilde" unicode="&#xe3;" horiz-adv-x="529" d="M190 190 Q174 190 165 179 Q156 168 156 155 L156 152 Q156 138 164.5 126.5 Q173 115 190 115 L365 115 L365 190 L190 190 Z M364 293 L364 301 Q364 321 349.5 338.5 Q335 356 298 356 L161 356 Q144 356 128 367.5 Q112 379 112 408 Q112 437 128 451.5 Q144 466 161 466 L304 466 Q394 466 439.5 420.5 Q485 375 485 288 L485 61 Q485 54 482 43.5 Q479 33 472 23.5 Q465 14 454 7 Q443 0 427 0 L170 0 Q143 0 118.5 10.5 Q94 21 75.5 40.5 Q57 60 46.5 87 Q36 114 36 148 L36 157 Q36 184 45.5 208.5 Q55 233 73 251.5 Q91 270 117 281.5 Q143 293 177 293 L364 293 Z M203 647 Q222 647 242.5 640.5 Q263 634 282.5 626.5 Q302 619 318 613 Q334 607 345 607 Q357 607 364 613.5 Q371 620 377.5 627.5 Q384 635 391.5 641.5 Q399 648 413 648 Q427 648 437 642.5 Q447 637 454 629 Q461 621 464 613 Q467 605 467 601 Q467 590 463 583 Q444 544 413 529.5 Q382 515 356 515 Q338 515 319 521 Q300 527 281.5 534.5 Q263 542 246 548 Q229 554 214 554 Q205 554 198.5 548 Q192 542 185 534.5 Q178 527 170 521 Q162 515 150 515 Q137 515 127 520 Q117 525 110.5 532.5 Q104 540 100.5 547.5 Q97 555 97 561 Q97 579 108 595 Q119 611 135 622.5 Q151 634 169.5 640.5 Q188 647 203 647 Z " />
<glyph glyph-name="aring" unicode="&#xe5;" horiz-adv-x="529" d="M190 190 Q174 190 165 179 Q156 168 156 155 L156 152 Q156 138 164.5 126.5 Q173 115 190 115 L365 115 L365 190 L190 190 Z M364 293 L364 301 Q364 321 349.5 338.5 Q335 356 298 356 L161 356 Q144 356 128 367.5 Q112 379 112 408 Q112 437 128 451.5 Q144 466 161 466 L304 466 Q394 466 439.5 420.5 Q485 375 485 288 L485 61 Q485 54 482 43.5 Q479 33 472 23.5 Q465 14 454 7 Q443 0 427 0 L170 0 Q143 0 118.5 10.5 Q94 21 75.5 40.5 Q57 60 46.5 87 Q36 114 36 148 L36 157 Q36 184 45.5 208.5 Q55 233 73 251.5 Q91 270 117 281.5 Q143 293 177 293 L364 293 Z M225 611 Q225 593 237.5 580.5 Q250 568 269 568 Q286 568 298.5 580.5 Q311 593 311 611 Q311 629 298.5 642 Q286 655 269 655 Q250 655 237.5 642 Q225 629 225 611 Z M149 611 Q149 636 158 657.5 Q167 679 183.5 695 Q200 711 221.5 720.5 Q243 730 269 730 Q293 730 314.5 720.5 Q336 711 352 695 Q368 679 377.5 657.5 Q387 636 387 611 Q387 586 377.5 564.5 Q368 543 352 527 Q336 511 314.5 501.5 Q293 492 269 492 Q243 492 221.5 501.5 Q200 511 183.5 527 Q167 543 158 564.5 Q149 586 149 611 Z " />
<glyph glyph-name="igrave" unicode="&#xec;" horiz-adv-x="340" d="M197 -5 Q167 -5 152 10 Q137 25 137 42 L137 354 L75 354 Q58 354 42 368.5 Q26 383 26 410 Q26 439 42 452.5 Q58 466 75 466 L198 466 Q226 466 241.5 450 Q257 434 257 414 L257 42 Q257 25 242.5 10 Q228 -5 197 -5 Z M76 639 Q59 658 59 683 Q59 706 76 723.5 Q93 741 118 741 Q138 741 152.5 729.5 Q167 718 175 703 L238 591 Q246 578 246 562 Q246 550 236.5 537 Q227 524 207 524 Q183 524 168 541 L76 639 Z " />
<glyph glyph-name="iacute" unicode="&#xed;" horiz-adv-x="340" d="M197 -5 Q167 -5 152 10 Q137 25 137 42 L137 354 L75 354 Q58 354 42 368.5 Q26 383 26 410 Q26 439 42 452.5 Q58 466 75 466 L198 466 Q226 466 241.5 450 Q257 434 257 414 L257 42 Q257 25 242.5 10 Q228 -5 197 -5 Z M201 541 Q186 524 163 524 Q142 524 132.5 537 Q123 550 123 562 Q123 578 131 591 L194 703 Q202 718 216.5 729.5 Q231 741 251 741 Q276 741 293 723.5 Q310 706 310 683 Q310 672 306 660 Q302 648 293 639 L201 541 Z " />
<glyph glyph-name="eth" unicode="&#xf0;" horiz-adv-x="508" d="M439 603 Q461 574 469.5 538.5 Q478 503 478 463 L478 182 Q478 136 462 101.5 Q446 67 419.5 44.5 Q393 22 358 11 Q323 0 284 0 L225 0 Q186 0 152.5 11 Q119 22 94 44.5 Q69 67 54.5 101.5 Q40 136 40 182 L40 236 Q40 282 55 316.5 Q70 351 96 374 Q122 397 157.5 409 Q193 421 235 421 L260 421 Q283 421 309.5 416 Q336 411 358 397 L358 469 Q358 484 356 497 Q354 510 348 522 L312 489 Q293 472 278 472 Q265 472 253 484 Q241 496 241 510 Q242 518 246.5 528 Q251 538 260 546 L285 568 Q269 573 249 576.5 Q229 580 203 582 Q187 584 171 595 Q155 606 155 640 Q155 655 161 665 Q167 675 176 681 Q185 687 195.5 689.5 Q206 692 216 692 Q267 692 309.5 679.5 Q352 667 379 652 L418 687 Q437 704 453 704 Q467 704 477.5 692.5 Q488 681 488 668 Q488 659 483.5 648.5 Q479 638 469 630 L439 603 Z M235 307 Q194 307 177 287 Q160 267 160 232 L160 184 Q160 152 176.5 132.5 Q193 113 234 113 L284 113 Q325 113 341.5 132.5 Q358 152 358 184 L358 232 Q358 267 341 287 Q324 307 283 307 L235 307 Z " />
<glyph glyph-name="ograve" unicode="&#xf2;" horiz-adv-x="518" d="M235 358 Q194 358 177 338 Q160 318 160 283 L160 179 Q160 147 176.5 127.5 Q193 108 234 108 L284 108 Q325 108 341.5 127.5 Q358 147 358 179 L358 283 Q358 318 341 338 Q324 358 283 358 L235 358 Z M225 0 Q186 0 152.5 11 Q119 22 94 44.5 Q69 67 54.5 101.5 Q40 136 40 182 L40 281 Q40 327 54 361.5 Q68 396 92.5 419 Q117 442 151.5 454 Q186 466 228 466 L290 466 Q332 466 366.5 454 Q401 442 425.5 419 Q450 396 464 361.5 Q478 327 478 281 L478 182 Q478 136 463.5 101.5 Q449 67 424 44.5 Q399 22 365.5 11 Q332 0 293 0 L225 0 Z M150 639 Q133 658 133 683 Q133 706 150 723.5 Q167 741 192 741 Q212 741 226.5 729.5 Q241 718 249 703 L312 591 Q320 578 320 562 Q320 550 310.5 537 Q301 524 281 524 Q257 524 242 541 L150 639 Z " />
<glyph glyph-name="oacute" unicode="&#xf3;" horiz-adv-x="518" d="M235 358 Q194 358 177 338 Q160 318 160 283 L160 179 Q160 147 176.5 127.5 Q193 108 234 108 L284 108 Q325 108 341.5 127.5 Q358 147 358 179 L358 283 Q358 318 341 338 Q324 358 283 358 L235 358 Z M225 0 Q186 0 152.5 11 Q119 22 94 44.5 Q69 67 54.5 101.5 Q40 136 40 182 L40 281 Q40 327 54 361.5 Q68 396 92.5 419 Q117 442 151.5 454 Q186 466 228 466 L290 466 Q332 466 366.5 454 Q401 442 425.5 419 Q450 396 464 361.5 Q478 327 478 281 L478 182 Q478 136 463.5 101.5 Q449 67 424 44.5 Q399 22 365.5 11 Q332 0 293 0 L225 0 Z M271 541 Q256 524 233 524 Q212 524 202.5 537 Q193 550 193 562 Q193 578 201 591 L264 703 Q272 718 286.5 729.5 Q301 741 321 741 Q346 741 363 723.5 Q380 706 380 683 Q380 672 376 660 Q372 648 363 639 L271 541 Z " />
<glyph glyph-name="oslash" unicode="&#xf8;" horiz-adv-x="518" d="M225 0 Q163 0 118 27 L101 8 Q89 -5 79 -5 Q70 -5 57.5 6 Q45 17 45 27 Q45 35 56 48 L73 67 Q57 89 48.5 117.5 Q40 146 40 182 L40 281 Q40 327 54 361.5 Q68 396 92.5 419 Q117 442 151.5 454 Q186 466 228 466 L290 466 Q355 466 401 437 L419 457 Q431 470 443 470 Q455 470 464.5 460 Q474 450 474 440 Q474 428 464 417 L445 396 Q461 374 469.5 345 Q478 316 478 281 L478 182 Q478 136 463.5 101.5 Q449 67 424 44.5 Q399 22 365.5 11 Q332 0 293 0 L225 0 Z M235 358 Q194 358 177 338 Q160 318 160 283 L160 179 L160 166 L324 350 Q306 358 283 358 L235 358 Z M358 283 Q358 292 357 297 L195 114 Q210 108 234 108 L284 108 Q325 108 341.5 127.5 Q358 147 358 179 L358 283 Z " />
<glyph glyph-name="yacute" unicode="&#xfd;" horiz-adv-x="524" d="M479 -18 Q479 -67 463 -101.5 Q447 -136 420 -158.5 Q393 -181 357 -191.5 Q321 -202 281 -202 L133 -202 Q116 -202 100.5 -187 Q85 -172 85 -144 Q85 -115 100.5 -102 Q116 -89 133 -89 L280 -89 Q320 -89 339 -68.5 Q358 -48 358 -13 L358 0 L234 0 Q143 0 91.5 46 Q40 92 40 185 L40 424 Q40 441 54.5 456 Q69 471 100 471 Q129 471 145 456 Q161 441 161 424 L161 185 Q161 146 184 131 Q207 116 241 116 L358 116 L358 424 Q358 441 373 456 Q388 471 418 471 Q447 471 463 456 Q479 441 479 424 L479 -18 Z M279 541 Q264 524 241 524 Q220 524 210.5 537 Q201 550 201 562 Q201 578 209 591 L272 703 Q280 718 294.5 729.5 Q309 741 329 741 Q354 741 371 723.5 Q388 706 388 683 Q388 672 384 660 Q380 648 371 639 L279 541 Z " />
<glyph glyph-name="ydieresis" unicode="&#xff;" horiz-adv-x="524" d="M479 -18 Q479 -67 463 -101.5 Q447 -136 420 -158.5 Q393 -181 357 -191.5 Q321 -202 281 -202 L133 -202 Q116 -202 100.5 -187 Q85 -172 85 -144 Q85 -115 100.5 -102 Q116 -89 133 -89 L280 -89 Q320 -89 339 -68.5 Q358 -48 358 -13 L358 0 L234 0 Q143 0 91.5 46 Q40 92 40 185 L40 424 Q40 441 54.5 456 Q69 471 100 471 Q129 471 145 456 Q161 441 161 424 L161 185 Q161 146 184 131 Q207 116 241 116 L358 116 L358 424 Q358 441 373 456 Q388 471 418 471 Q447 471 463 456 Q479 441 479 424 L479 -18 Z M367 535 Q340 535 321.5 553 Q303 571 303 596 Q303 628 323 642.5 Q343 657 366 657 Q390 657 410 642.5 Q430 628 430 596 Q430 572 412 553.5 Q394 535 367 535 Z M160 535 Q133 535 114.5 553 Q96 571 96 596 Q96 628 116 642.5 Q136 657 159 657 Q183 657 203.5 642.5 Q224 628 224 596 Q224 572 205.5 553.5 Q187 535 160 535 Z " />
<glyph glyph-name="Amacron" unicode="&#x100;" horiz-adv-x="567" d="M281 474 L209 260 L357 260 Q339 313 321.5 366.5 Q304 420 285 474 L281 474 Z M169 149 L129 34 Q116 -6 76 -6 Q44 -6 27 11 Q10 28 10 50 Q10 55 11 61 Q12 67 14 72 L207 619 Q215 640 227.5 654 Q240 668 268 668 L298 668 Q325 668 338 654.5 Q351 641 359 619 L553 72 Q557 63 557 51 Q557 28 538 11 Q519 -6 489 -6 Q453 -6 437 35 L395 149 L169 149 Z M181 706 Q153 706 136.5 717 Q120 728 120 754 Q120 780 136.5 791.5 Q153 803 181 803 L385 803 Q413 803 429.5 792 Q446 781 446 755 Q446 729 429.5 717.5 Q413 706 385 706 L181 706 Z " />
<glyph glyph-name="amacron" unicode="&#x101;" horiz-adv-x="529" d="M190 190 Q174 190 165 179 Q156 168 156 155 L156 152 Q156 138 164.5 126.5 Q173 115 190 115 L365 115 L365 190 L190 190 Z M364 293 L364 301 Q364 321 349.5 338.5 Q335 356 298 356 L161 356 Q144 356 128 367.5 Q112 379 112 408 Q112 437 128 451.5 Q144 466 161 466 L304 466 Q394 466 439.5 420.5 Q485 375 485 288 L485 61 Q485 54 482 43.5 Q479 33 472 23.5 Q465 14 454 7 Q443 0 427 0 L170 0 Q143 0 118.5 10.5 Q94 21 75.5 40.5 Q57 60 46.5 87 Q36 114 36 148 L36 157 Q36 184 45.5 208.5 Q55 233 73 251.5 Q91 270 117 281.5 Q143 293 177 293 L364 293 Z M189 515 Q161 515 144.5 526 Q128 537 128 563 Q128 589 144.5 600.5 Q161 612 189 612 L393 612 Q421 612 437.5 601 Q454 590 454 564 Q454 538 437.5 526.5 Q421 515 393 515 L189 515 Z " />
<glyph glyph-name="Abreve" unicode="&#x102;" horiz-adv-x="567" d="M281 474 L209 260 L357 260 Q339 313 321.5 366.5 Q304 420 285 474 L281 474 Z M169 149 L129 34 Q116 -6 76 -6 Q44 -6 27 11 Q10 28 10 50 Q10 55 11 61 Q12 67 14 72 L207 619 Q215 640 227.5 654 Q240 668 268 668 L298 668 Q325 668 338 654.5 Q351 641 359 619 L553 72 Q557 63 557 51 Q557 28 538 11 Q519 -6 489 -6 Q453 -6 437 35 L395 149 L169 149 Z M283 800 Q309 800 332 818 Q355 836 376 867 Q384 879 395 884 Q406 889 417 889 Q439 889 452 875 Q465 861 465 847 Q465 840 463 836 Q448 803 426.5 779 Q405 755 381 739.5 Q357 724 332 717 Q307 710 286 710 Q262 710 237.5 715 Q213 720 189.5 733.5 Q166 747 145 771 Q124 795 108 832 Q105 839 105 846 Q105 859 118.5 875 Q132 891 155 891 Q166 891 177.5 886 Q189 881 196 870 Q219 835 236.5 817.5 Q254 800 283 800 Z " />
<glyph glyph-name="abreve" unicode="&#x103;" horiz-adv-x="529" d="M190 190 Q174 190 165 179 Q156 168 156 155 L156 152 Q156 138 164.5 126.5 Q173 115 190 115 L365 115 L365 190 L190 190 Z M364 293 L364 301 Q364 321 349.5 338.5 Q335 356 298 356 L161 356 Q144 356 128 367.5 Q112 379 112 408 Q112 437 128 451.5 Q144 466 161 466 L304 466 Q394 466 439.5 420.5 Q485 375 485 288 L485 61 Q485 54 482 43.5 Q479 33 472 23.5 Q465 14 454 7 Q443 0 427 0 L170 0 Q143 0 118.5 10.5 Q94 21 75.5 40.5 Q57 60 46.5 87 Q36 114 36 148 L36 157 Q36 184 45.5 208.5 Q55 233 73 251.5 Q91 270 117 281.5 Q143 293 177 293 L364 293 Z M271 608 Q297 608 320 626 Q343 644 364 675 Q372 687 383 692 Q394 697 405 697 Q427 697 440 683 Q453 669 453 655 Q453 648 451 644 Q436 611 414.5 587 Q393 563 369 547.5 Q345 532 320 525 Q295 518 274 518 Q250 518 225.5 523 Q201 528 177.5 541.5 Q154 555 133 579 Q112 603 96 640 Q93 647 93 654 Q93 667 106.5 683 Q120 699 143 699 Q154 699 165.5 694 Q177 689 184 678 Q207 643 224.5 625.5 Q242 608 271 608 Z " />
<glyph glyph-name="Aogonek" unicode="&#x104;" horiz-adv-x="567" d="M169 149 L129 34 Q116 -6 76 -6 Q44 -6 27 11 Q10 28 10 50 Q10 55 11 61 Q12 67 14 72 L207 619 Q215 640 227.5 654 Q240 668 268 668 L298 668 Q325 668 338 654.5 Q351 641 359 619 L553 72 Q557 63 557 51 Q557 23 534 8 Q509 -16 496 -44.5 Q483 -73 483 -96 Q483 -112 493 -124 Q503 -136 529 -136 Q535 -136 543 -133.5 Q551 -131 559 -128 Q567 -125 574 -122.5 Q581 -120 585 -120 Q598 -120 608 -132 Q618 -144 618 -156 Q618 -170 606 -179.5 Q594 -189 578 -194.5 Q562 -200 546.5 -202.5 Q531 -205 524 -205 Q491 -205 468 -195.5 Q445 -186 430.5 -171 Q416 -156 409.5 -138 Q403 -120 403 -103 Q403 -76 414 -47.5 Q425 -19 451 10 Q443 19 437 35 L395 149 L169 149 Z M281 474 L209 260 L357 260 Q339 313 321.5 366.5 Q304 420 285 474 L281 474 Z " />
<glyph glyph-name="aogonek" unicode="&#x105;" horiz-adv-x="529" d="M364 293 L364 301 Q364 321 349.5 338.5 Q335 356 298 356 L161 356 Q144 356 128 367.5 Q112 379 112 408 Q112 437 128 451.5 Q144 466 161 466 L304 466 Q394 466 439.5 420.5 Q485 375 485 288 L485 61 Q485 51 479 35.5 Q473 20 459 10 Q433 -14 419 -43.5 Q405 -73 405 -96 Q405 -112 415 -124 Q425 -136 451 -136 Q457 -136 465 -133.5 Q473 -131 481 -128 Q489 -125 496 -122.5 Q503 -120 507 -120 Q520 -120 530 -132 Q540 -144 540 -156 Q540 -170 528 -179.5 Q516 -189 500 -194.5 Q484 -200 468.5 -202.5 Q453 -205 446 -205 Q413 -205 390 -195.5 Q367 -186 352.5 -171 Q338 -156 331.5 -138 Q325 -120 325 -103 Q325 -78 334 -52.5 Q343 -27 365 0 L170 0 Q143 0 118.5 10.5 Q94 21 75.5 40.5 Q57 60 46.5 87 Q36 114 36 148 L36 157 Q36 184 45.5 208.5 Q55 233 73 251.5 Q91 270 117 281.5 Q143 293 177 293 L364 293 Z M190 190 Q174 190 165 179 Q156 168 156 155 L156 152 Q156 138 164.5 126.5 Q173 115 190 115 L365 115 L365 190 L190 190 Z " />
<glyph glyph-name="Cacute" unicode="&#x106;" horiz-adv-x="531" d="M242 0 Q203 0 168 12.5 Q133 25 106.5 50 Q80 75 65 113.5 Q50 152 50 205 L50 459 Q50 511 65.5 550 Q81 589 107 615.5 Q133 642 168.5 655 Q204 668 243 668 L452 668 Q480 668 493 652.5 Q506 637 506 610 Q506 583 493 567.5 Q480 552 452 552 L247 552 Q209 552 189 528 Q169 504 169 464 L169 203 Q169 162 189.5 139.5 Q210 117 247 117 L452 116 Q479 116 492.5 100.5 Q506 85 506 58 Q506 31 492.5 15.5 Q479 0 452 0 L242 0 Z M263 694 Q255 691 246 691 Q230 691 214.5 701 Q199 711 199 731 Q199 744 206.5 754.5 Q214 765 224 771 L332 841 Q341 847 351.5 851 Q362 855 374 855 Q382 855 392 851.5 Q402 848 410.5 840.5 Q419 833 425 822 Q431 811 431 796 Q431 777 420 761 Q409 745 389 738 L263 694 Z " />
<glyph glyph-name="cacute" unicode="&#x107;" horiz-adv-x="443" d="M232 0 Q189 0 154 11 Q119 22 93.5 44.5 Q68 67 54 101.5 Q40 136 40 182 L40 281 Q40 327 54 361.5 Q68 396 92.5 419 Q117 442 151.5 454 Q186 466 228 466 L369 466 Q386 466 402 450.5 Q418 435 418 408 Q418 379 402 364.5 Q386 350 369 350 L235 350 Q194 350 177 330 Q160 310 160 275 L160 187 Q160 155 176 135 Q192 115 234 115 L374 115 Q391 115 407 100.5 Q423 86 423 57 Q423 30 407.5 15 Q392 0 373 0 L232 0 Z M264 541 Q249 524 226 524 Q205 524 195.5 537 Q186 550 186 562 Q186 578 194 591 L257 703 Q265 718 279.5 729.5 Q294 741 314 741 Q339 741 356 723.5 Q373 706 373 683 Q373 672 369 660 Q365 648 356 639 L264 541 Z " />
<glyph glyph-name="Ccircumflex" unicode="&#x108;" horiz-adv-x="531" d="M242 0 Q203 0 168 12.5 Q133 25 106.5 50 Q80 75 65 113.5 Q50 152 50 205 L50 459 Q50 511 65.5 550 Q81 589 107 615.5 Q133 642 168.5 655 Q204 668 243 668 L452 668 Q480 668 493 652.5 Q506 637 506 610 Q506 583 493 567.5 Q480 552 452 552 L247 552 Q209 552 189 528 Q169 504 169 464 L169 203 Q169 162 189.5 139.5 Q210 117 247 117 L452 116 Q479 116 492.5 100.5 Q506 85 506 58 Q506 31 492.5 15.5 Q479 0 452 0 L242 0 Z M288 882 Q305 882 325 870 L468 779 Q486 767 486 747 Q486 737 481.5 727 Q477 717 470 709.5 Q463 702 454 697.5 Q445 693 437 693 Q422 693 402 703 L288 763 L168 699 Q160 694 152.5 692.5 Q145 691 137 691 Q112 691 99 708.5 Q86 726 86 745 Q86 767 105 779 L251 870 Q262 877 270 879.5 Q278 882 288 882 Z " />
<glyph glyph-name="ccircumflex" unicode="&#x109;" horiz-adv-x="443" d="M232 0 Q189 0 154 11 Q119 22 93.5 44.5 Q68 67 54 101.5 Q40 136 40 182 L40 281 Q40 327 54 361.5 Q68 396 92.5 419 Q117 442 151.5 454 Q186 466 228 466 L369 466 Q386 466 402 450.5 Q418 435 418 408 Q418 379 402 364.5 Q386 350 369 350 L235 350 Q194 350 177 330 Q160 310 160 275 L160 187 Q160 155 176 135 Q192 115 234 115 L374 115 Q391 115 407 100.5 Q423 86 423 57 Q423 30 407.5 15 Q392 0 373 0 L232 0 Z M233 719 Q241 719 249 717 Q257 715 265 708 L393 593 Q407 581 407 565 Q407 545 389.5 532 Q372 519 357 519 Q342 519 328 530 L230 611 L122 528 Q110 519 96 519 Q71 519 58 534.5 Q45 550 45 567 Q45 581 58 593 L198 708 Q207 716 215.5 717.5 Q224 719 233 719 Z " />
<glyph glyph-name="Cdotaccent" unicode="&#x10a;" horiz-adv-x="531" d="M242 0 Q203 0 168 12.5 Q133 25 106.5 50 Q80 75 65 113.5 Q50 152 50 205 L50 459 Q50 511 65.5 550 Q81 589 107 615.5 Q133 642 168.5 655 Q204 668 243 668 L452 668 Q480 668 493 652.5 Q506 637 506 610 Q506 583 493 567.5 Q480 552 452 552 L247 552 Q209 552 189 528 Q169 504 169 464 L169 203 Q169 162 189.5 139.5 Q210 117 247 117 L452 116 Q479 116 492.5 100.5 Q506 85 506 58 Q506 31 492.5 15.5 Q479 0 452 0 L242 0 Z M295 701 Q268 701 248 719.5 Q228 738 228 765 Q228 797 249 813 Q270 829 294 829 Q320 829 341 813 Q362 797 362 765 Q362 738 343 719.5 Q324 701 295 701 Z " />
<glyph glyph-name="cdotaccent" unicode="&#x10b;" horiz-adv-x="443" d="M232 0 Q189 0 154 11 Q119 22 93.5 44.5 Q68 67 54 101.5 Q40 136 40 182 L40 281 Q40 327 54 361.5 Q68 396 92.5 419 Q117 442 151.5 454 Q186 466 228 466 L369 466 Q386 466 402 450.5 Q418 435 418 408 Q418 379 402 364.5 Q386 350 369 350 L235 350 Q194 350 177 330 Q160 310 160 275 L160 187 Q160 155 176 135 Q192 115 234 115 L374 115 Q391 115 407 100.5 Q423 86 423 57 Q423 30 407.5 15 Q392 0 373 0 L232 0 Z M249 531 Q222 531 202 549.5 Q182 568 182 595 Q182 627 203 643 Q224 659 248 659 Q274 659 295 643 Q316 627 316 595 Q316 568 297 549.5 Q278 531 249 531 Z " />
<glyph glyph-name="Ccaron" unicode="&#x10c;" horiz-adv-x="531" d="M242 0 Q203 0 168 12.5 Q133 25 106.5 50 Q80 75 65 113.5 Q50 152 50 205 L50 459 Q50 511 65.5 550 Q81 589 107 615.5 Q133 642 168.5 655 Q204 668 243 668 L452 668 Q480 668 493 652.5 Q506 637 506 610 Q506 583 493 567.5 Q480 552 452 552 L247 552 Q209 552 189 528 Q169 504 169 464 L169 203 Q169 162 189.5 139.5 Q210 117 247 117 L452 116 Q479 116 492.5 100.5 Q506 85 506 58 Q506 31 492.5 15.5 Q479 0 452 0 L242 0 Z M296 694 Q287 695 280 696.5 Q273 698 263 704 L131 787 Q113 798 113 818 Q113 835 125.5 850.5 Q138 866 160 866 Q175 866 188 859 L296 801 L398 855 Q414 864 430 864 Q445 864 459.5 849.5 Q474 835 474 816 Q474 797 458 787 L329 704 Q313 694 296 694 Z " />
<glyph glyph-name="ccaron" unicode="&#x10d;" horiz-adv-x="443" d="M232 0 Q189 0 154 11 Q119 22 93.5 44.5 Q68 67 54 101.5 Q40 136 40 182 L40 281 Q40 327 54 361.5 Q68 396 92.5 419 Q117 442 151.5 454 Q186 466 228 466 L369 466 Q386 466 402 450.5 Q418 435 418 408 Q418 379 402 364.5 Q386 350 369 350 L235 350 Q194 350 177 330 Q160 310 160 275 L160 187 Q160 155 176 135 Q192 115 234 115 L374 115 Q391 115 407 100.5 Q423 86 423 57 Q423 30 407.5 15 Q392 0 373 0 L232 0 Z M245 519 Q236 519 227.5 520.5 Q219 522 210 530 L70 645 Q56 657 56 673 Q56 689 70 704.5 Q84 720 107 720 Q123 720 134 710 L242 627 L340 708 Q355 720 371 720 Q386 720 402.5 706.5 Q419 693 419 674 Q419 657 405 645 L277 530 Q269 523 261 521 Q253 519 245 519 Z " />
<glyph glyph-name="Dcaron" unicode="&#x10e;" horiz-adv-x="622" d="M452 464 Q452 506 431 529 Q410 552 363 552 L180 552 L180 116 L365 116 Q411 116 431.5 138.5 Q452 161 452 203 L452 464 Z M121 0 Q60 0 60 58 L60 610 Q60 668 121 668 L388 668 Q428 668 461.5 655 Q495 642 519.5 616.5 Q544 591 558 552 Q572 513 572 461 L572 207 Q572 156 557.5 117.5 Q543 79 517 52.5 Q491 26 456 13 Q421 0 379 0 L121 0 Z M298 694 Q289 695 282 696.5 Q275 698 265 704 L133 787 Q115 798 115 818 Q115 835 127.5 850.5 Q140 866 162 866 Q177 866 190 859 L298 801 L400 855 Q416 864 432 864 Q447 864 461.5 849.5 Q476 835 476 816 Q476 797 460 787 L331 704 Q315 694 298 694 Z " />
<glyph glyph-name="dcaron" unicode="&#x10f;" horiz-adv-x="644" d="M231 0 Q145 0 92 44.5 Q39 89 39 179 L39 280 Q39 326 53 360.5 Q67 395 91.5 418.5 Q116 442 150.5 454 Q185 466 227 466 L362 466 L362 651 Q362 668 376.5 682.5 Q391 697 421 697 Q450 697 466 682.5 Q482 668 482 651 L482 62 Q482 53 479 42 Q476 31 469 21.5 Q462 12 451 6 Q440 0 424 0 L231 0 Z M159 186 Q159 154 175.5 134.5 Q192 115 233 115 L362 115 L362 350 L234 350 Q193 350 176 330 Q159 310 159 275 L159 186 Z M596 504 Q592 495 581.5 486.5 Q571 478 555 478 Q528 478 517 493.5 Q506 509 506 522 L506 529 L530 649 Q534 667 548 682 Q562 697 588 697 Q620 697 635 678.5 Q650 660 650 640 Q650 629 646 621 L596 504 Z " />
<glyph glyph-name="Dcroat" unicode="&#x110;" horiz-adv-x="622" d="M121 0 Q60 0 60 58 L60 278 L48 278 Q19 278 1 290 Q-17 302 -17 329 Q-17 357 1 369.5 Q19 382 48 382 L60 382 L60 610 Q60 668 121 668 L388 668 Q428 668 461.5 655 Q495 642 519.5 616.5 Q544 591 558 552 Q572 513 572 461 L572 207 Q572 156 557.5 117.5 Q543 79 517 52.5 Q491 26 456 13 Q421 0 379 0 L121 0 Z M180 278 L180 116 L365 116 Q411 116 431.5 138.5 Q452 161 452 203 L452 464 Q452 506 431 529 Q410 552 363 552 L180 552 L180 382 L267 382 Q297 382 315 370 Q333 358 333 331 Q333 303 315 290.5 Q297 278 267 278 L180 278 Z " />
<glyph glyph-name="dcroat" unicode="&#x111;" horiz-adv-x="528" d="M230 0 Q144 0 91 44.5 Q38 89 38 179 L38 250 Q38 296 52 330.5 Q66 365 90.5 388.5 Q115 412 149.5 424 Q184 436 226 436 L361 436 L361 496 L207 496 Q164 496 164 543 Q164 590 207 590 L361 590 L361 651 Q361 668 375.5 682.5 Q390 697 420 697 Q449 697 465 682.5 Q481 668 481 651 L481 590 L493 590 Q539 590 539 543 Q539 496 493 496 L481 496 L481 62 Q481 53 478 42 Q475 31 468 21.5 Q461 12 450 6 Q439 0 423 0 L230 0 Z M158 186 Q158 154 174.5 134.5 Q191 115 232 115 L361 115 L361 320 L233 320 Q192 320 175 300 Q158 280 158 245 L158 186 Z " />
<glyph glyph-name="Emacron" unicode="&#x112;" horiz-adv-x="534" d="M121 0 Q60 0 60 58 L60 610 Q60 668 121 668 L452 668 Q479 668 492.5 652.5 Q506 637 506 610 Q506 583 492.5 567.5 Q479 552 452 552 L180 552 L180 410 L410 410 Q437 410 449.5 394.5 Q462 379 462 352 Q462 325 449.5 310 Q437 295 410 295 L180 295 L180 116 L452 116 Q479 116 492.5 100.5 Q506 85 506 58 Q506 31 492.5 15.5 Q479 0 452 0 L121 0 Z M179 706 Q151 706 134.5 717 Q118 728 118 754 Q118 780 134.5 791.5 Q151 803 179 803 L383 803 Q411 803 427.5 792 Q444 781 444 755 Q444 729 427.5 717.5 Q411 706 383 706 L179 706 Z " />
<glyph glyph-name="emacron" unicode="&#x113;" horiz-adv-x="500" d="M345 278 Q345 312 326 331 Q307 350 269 350 L233 350 Q201 350 180.5 331 Q160 312 160 278 L160 272 L345 272 L345 278 Z M276 466 Q316 466 350.5 453.5 Q385 441 410.5 417.5 Q436 394 450.5 359 Q465 324 465 279 L465 240 Q465 232 462 221.5 Q459 211 451.5 202 Q444 193 432 186.5 Q420 180 401 180 L160 180 L160 173 Q160 144 181.5 127 Q203 110 239 110 L372 110 Q389 110 405 98 Q421 86 421 57 Q421 30 405 15 Q389 0 372 0 L225 0 Q185 0 151 12 Q117 24 92.5 46.5 Q68 69 54 102.5 Q40 136 40 179 L40 279 Q40 323 54.5 358 Q69 393 94 417 Q119 441 153.5 453.5 Q188 466 229 466 L276 466 Z M149 515 Q121 515 104.5 526 Q88 537 88 563 Q88 589 104.5 600.5 Q121 612 149 612 L353 612 Q381 612 397.5 601 Q414 590 414 564 Q414 538 397.5 526.5 Q381 515 353 515 L149 515 Z " />
<glyph glyph-name="Ebreve" unicode="&#x114;" horiz-adv-x="534" d="M121 0 Q60 0 60 58 L60 610 Q60 668 121 668 L452 668 Q479 668 492.5 652.5 Q506 637 506 610 Q506 583 492.5 567.5 Q479 552 452 552 L180 552 L180 410 L410 410 Q437 410 449.5 394.5 Q462 379 462 352 Q462 325 449.5 310 Q437 295 410 295 L180 295 L180 116 L452 116 Q479 116 492.5 100.5 Q506 85 506 58 Q506 31 492.5 15.5 Q479 0 452 0 L121 0 Z M317 800 Q343 800 366 818 Q389 836 410 867 Q418 879 429 884 Q440 889 451 889 Q473 889 486 875 Q499 861 499 847 Q499 840 497 836 Q482 803 460.5 779 Q439 755 415 739.5 Q391 724 366 717 Q341 710 320 710 Q296 710 271.5 715 Q247 720 223.5 733.5 Q200 747 179 771 Q158 795 142 832 Q139 839 139 846 Q139 859 152.5 875 Q166 891 189 891 Q200 891 211.5 886 Q223 881 230 870 Q253 835 270.5 817.5 Q288 800 317 800 Z " />
<glyph glyph-name="ebreve" unicode="&#x115;" horiz-adv-x="500" d="M345 278 Q345 312 326 331 Q307 350 269 350 L233 350 Q201 350 180.5 331 Q160 312 160 278 L160 272 L345 272 L345 278 Z M276 466 Q316 466 350.5 453.5 Q385 441 410.5 417.5 Q436 394 450.5 359 Q465 324 465 279 L465 240 Q465 232 462 221.5 Q459 211 451.5 202 Q444 193 432 186.5 Q420 180 401 180 L160 180 L160 173 Q160 144 181.5 127 Q203 110 239 110 L372 110 Q389 110 405 98 Q421 86 421 57 Q421 30 405 15 Q389 0 372 0 L225 0 Q185 0 151 12 Q117 24 92.5 46.5 Q68 69 54 102.5 Q40 136 40 179 L40 279 Q40 323 54.5 358 Q69 393 94 417 Q119 441 153.5 453.5 Q188 466 229 466 L276 466 Z M251 608 Q277 608 300 626 Q323 644 344 675 Q352 687 363 692 Q374 697 385 697 Q407 697 420 683 Q433 669 433 655 Q433 648 431 644 Q416 611 394.5 587 Q373 563 349 547.5 Q325 532 300 525 Q275 518 254 518 Q230 518 205.5 523 Q181 528 157.5 541.5 Q134 555 113 579 Q92 603 76 640 Q73 647 73 654 Q73 667 86.5 683 Q100 699 123 699 Q134 699 145.5 694 Q157 689 164 678 Q187 643 204.5 625.5 Q222 608 251 608 Z " />
<glyph glyph-name="Edotaccent" unicode="&#x116;" horiz-adv-x="534" d="M121 0 Q60 0 60 58 L60 610 Q60 668 121 668 L452 668 Q479 668 492.5 652.5 Q506 637 506 610 Q506 583 492.5 567.5 Q479 552 452 552 L180 552 L180 410 L410 410 Q437 410 449.5 394.5 Q462 379 462 352 Q462 325 449.5 310 Q437 295 410 295 L180 295 L180 116 L452 116 Q479 116 492.5 100.5 Q506 85 506 58 Q506 31 492.5 15.5 Q479 0 452 0 L121 0 Z M293 701 Q266 701 246 719.5 Q226 738 226 765 Q226 797 247 813 Q268 829 292 829 Q318 829 339 813 Q360 797 360 765 Q360 738 341 719.5 Q322 701 293 701 Z " />
<glyph glyph-name="edotaccent" unicode="&#x117;" horiz-adv-x="500" d="M345 278 Q345 312 326 331 Q307 350 269 350 L233 350 Q201 350 180.5 331 Q160 312 160 278 L160 272 L345 272 L345 278 Z M276 466 Q316 466 350.5 453.5 Q385 441 410.5 417.5 Q436 394 450.5 359 Q465 324 465 279 L465 240 Q465 232 462 221.5 Q459 211 451.5 202 Q444 193 432 186.5 Q420 180 401 180 L160 180 L160 173 Q160 144 181.5 127 Q203 110 239 110 L372 110 Q389 110 405 98 Q421 86 421 57 Q421 30 405 15 Q389 0 372 0 L225 0 Q185 0 151 12 Q117 24 92.5 46.5 Q68 69 54 102.5 Q40 136 40 179 L40 279 Q40 323 54.5 358 Q69 393 94 417 Q119 441 153.5 453.5 Q188 466 229 466 L276 466 Z M256 531 Q229 531 209 549.5 Q189 568 189 595 Q189 627 210 643 Q231 659 255 659 Q281 659 302 643 Q323 627 323 595 Q323 568 304 549.5 Q285 531 256 531 Z " />
<glyph glyph-name="Eogonek" unicode="&#x118;" horiz-adv-x="534" d="M506 58 Q506 18 479 5 Q452 -19 438 -49 Q424 -79 424 -102 Q424 -118 434 -130 Q444 -142 470 -142 Q476 -142 484 -139.5 Q492 -137 500 -134 Q508 -131 515 -128.5 Q522 -126 526 -126 Q539 -126 549 -138 Q559 -150 559 -162 Q559 -176 547 -185.5 Q535 -195 519 -200.5 Q503 -206 487.5 -208.5 Q472 -211 465 -211 Q432 -211 409 -201.5 Q386 -192 371.5 -177 Q357 -162 350.5 -144 Q344 -126 344 -109 Q344 -83 354 -56 Q364 -29 388 0 L121 0 Q60 0 60 58 L60 610 Q60 668 121 668 L452 668 Q479 668 492.5 652.5 Q506 637 506 610 Q506 583 492.5 567.5 Q479 552 452 552 L180 552 L180 410 L410 410 Q437 410 449.5 394.5 Q462 379 462 352 Q462 325 449.5 310 Q437 295 410 295 L180 295 L180 116 L452 116 Q479 116 492.5 100.5 Q506 85 506 58 Z " />
<glyph glyph-name="eogonek" unicode="&#x119;" horiz-adv-x="500" d="M276 466 Q316 466 350.5 453.5 Q385 441 410.5 417.5 Q436 394 450.5 359 Q465 324 465 279 L465 240 Q465 232 462 221.5 Q459 211 451.5 202 Q444 193 432 186.5 Q420 180 401 180 L160 180 L160 173 Q160 144 181.5 127 Q203 110 239 110 L372 110 Q389 110 405 98 Q421 86 421 57 Q421 42 415.5 30.5 Q410 19 402 12 Q374 -13 359.5 -43.5 Q345 -74 345 -97 Q345 -113 355 -125 Q365 -137 391 -137 Q397 -137 405 -134.5 Q413 -132 421 -129 Q429 -126 436 -123.5 Q443 -121 447 -121 Q460 -121 470 -133 Q480 -145 480 -157 Q480 -171 468 -180.5 Q456 -190 440 -195.5 Q424 -201 408.5 -203.5 Q393 -206 386 -206 Q353 -206 330 -196.5 Q307 -187 292.5 -172 Q278 -157 271.5 -139 Q265 -121 265 -104 Q265 -79 274 -53 Q283 -27 305 0 L225 0 Q185 0 151 12 Q117 24 92.5 46.5 Q68 69 54 102.5 Q40 136 40 179 L40 279 Q40 323 54.5 358 Q69 393 94 417 Q119 441 153.5 453.5 Q188 466 229 466 L276 466 Z M345 278 Q345 312 326 331 Q307 350 269 350 L233 350 Q201 350 180.5 331 Q160 312 160 278 L160 272 L345 272 L345 278 Z " />
<glyph glyph-name="Ecaron" unicode="&#x11a;" horiz-adv-x="534" d="M121 0 Q60 0 60 58 L60 610 Q60 668 121 668 L452 668 Q479 668 492.5 652.5 Q506 637 506 610 Q506 583 492.5 567.5 Q479 552 452 552 L180 552 L180 410 L410 410 Q437 410 449.5 394.5 Q462 379 462 352 Q462 325 449.5 310 Q437 295 410 295 L180 295 L180 116 L452 116 Q479 116 492.5 100.5 Q506 85 506 58 Q506 31 492.5 15.5 Q479 0 452 0 L121 0 Z M274 694 Q265 695 258 696.5 Q251 698 241 704 L109 787 Q91 798 91 818 Q91 835 103.5 850.5 Q116 866 138 866 Q153 866 166 859 L274 801 L376 855 Q392 864 408 864 Q423 864 437.5 849.5 Q452 835 452 816 Q452 797 436 787 L307 704 Q291 694 274 694 Z " />
<glyph glyph-name="ecaron" unicode="&#x11b;" horiz-adv-x="500" d="M345 278 Q345 312 326 331 Q307 350 269 350 L233 350 Q201 350 180.5 331 Q160 312 160 278 L160 272 L345 272 L345 278 Z M276 466 Q316 466 350.5 453.5 Q385 441 410.5 417.5 Q436 394 450.5 359 Q465 324 465 279 L465 240 Q465 232 462 221.5 Q459 211 451.5 202 Q444 193 432 186.5 Q420 180 401 180 L160 180 L160 173 Q160 144 181.5 127 Q203 110 239 110 L372 110 Q389 110 405 98 Q421 86 421 57 Q421 30 405 15 Q389 0 372 0 L225 0 Q185 0 151 12 Q117 24 92.5 46.5 Q68 69 54 102.5 Q40 136 40 179 L40 279 Q40 323 54.5 358 Q69 393 94 417 Q119 441 153.5 453.5 Q188 466 229 466 L276 466 Z M260 519 Q251 519 242.5 520.5 Q234 522 225 530 L85 645 Q71 657 71 673 Q71 689 85 704.5 Q99 720 122 720 Q138 720 149 710 L257 627 L355 708 Q370 720 386 720 Q401 720 417.5 706.5 Q434 693 434 674 Q434 657 420 645 L292 530 Q284 523 276 521 Q268 519 260 519 Z " />
<glyph glyph-name="Gcircumflex" unicode="&#x11c;" horiz-adv-x="587" d="M243 0 Q204 0 168.5 13 Q133 26 107 52.5 Q81 79 65.5 117.5 Q50 156 50 207 L50 461 Q50 513 66.5 552 Q83 591 110 616.5 Q137 642 171.5 655 Q206 668 243 668 L455 668 Q483 668 497 652.5 Q511 637 511 610 Q511 583 497 567.5 Q483 552 455 552 L260 552 Q213 552 191.5 529 Q170 506 170 464 L170 203 Q170 161 192 138.5 Q214 116 260 116 L422 116 L422 295 L339 295 Q312 295 298 310.5 Q284 326 284 353 Q284 380 298 395 Q312 410 339 410 L482 410 Q509 410 525.5 399 Q542 388 542 353 L542 58 Q542 31 528 15.5 Q514 0 484 0 L243 0 Z M291 882 Q308 882 328 870 L471 779 Q489 767 489 747 Q489 737 484.5 727 Q480 717 473 709.5 Q466 702 457 697.5 Q448 693 440 693 Q425 693 405 703 L291 763 L171 699 Q163 694 155.5 692.5 Q148 691 140 691 Q115 691 102 708.5 Q89 726 89 745 Q89 767 108 779 L254 870 Q265 877 273 879.5 Q281 882 291 882 Z " />
<glyph glyph-name="gcircumflex" unicode="&#x11d;" horiz-adv-x="528" d="M481 -20 Q481 -109 427.5 -155.5 Q374 -202 283 -202 L137 -202 Q120 -202 103.5 -187 Q87 -172 87 -144 Q87 -115 103.5 -102 Q120 -89 137 -89 L282 -89 Q361 -89 361 -15 L361 0 L226 0 Q184 0 149.5 11.5 Q115 23 90.5 46.5 Q66 70 52 104.5 Q38 139 38 185 L38 285 Q38 330 52.5 364 Q67 398 92.5 421 Q118 444 153.5 455.5 Q189 467 230 467 L423 467 Q439 467 450 461 Q461 455 468 445.5 Q475 436 478 425 Q481 414 481 405 L481 -20 Z M158 192 Q158 157 175 137 Q192 117 233 117 L361 117 L361 352 L232 352 Q191 352 174.5 332.5 Q158 313 158 281 L158 192 Z M259 719 Q267 719 275 717 Q283 715 291 708 L419 593 Q433 581 433 565 Q433 545 415.5 532 Q398 519 383 519 Q368 519 354 530 L256 611 L148 528 Q136 519 122 519 Q97 519 84 534.5 Q71 550 71 567 Q71 581 84 593 L224 708 Q233 716 241.5 717.5 Q250 719 259 719 Z " />
<glyph glyph-name="Gbreve" unicode="&#x11e;" horiz-adv-x="587" d="M243 0 Q204 0 168.5 13 Q133 26 107 52.5 Q81 79 65.5 117.5 Q50 156 50 207 L50 461 Q50 513 66.5 552 Q83 591 110 616.5 Q137 642 171.5 655 Q206 668 243 668 L455 668 Q483 668 497 652.5 Q511 637 511 610 Q511 583 497 567.5 Q483 552 455 552 L260 552 Q213 552 191.5 529 Q170 506 170 464 L170 203 Q170 161 192 138.5 Q214 116 260 116 L422 116 L422 295 L339 295 Q312 295 298 310.5 Q284 326 284 353 Q284 380 298 395 Q312 410 339 410 L482 410 Q509 410 525.5 399 Q542 388 542 353 L542 58 Q542 31 528 15.5 Q514 0 484 0 L243 0 Z M316 800 Q342 800 365 818 Q388 836 409 867 Q417 879 428 884 Q439 889 450 889 Q472 889 485 875 Q498 861 498 847 Q498 840 496 836 Q481 803 459.5 779 Q438 755 414 739.5 Q390 724 365 717 Q340 710 319 710 Q295 710 270.5 715 Q246 720 222.5 733.5 Q199 747 178 771 Q157 795 141 832 Q138 839 138 846 Q138 859 151.5 875 Q165 891 188 891 Q199 891 210.5 886 Q222 881 229 870 Q252 835 269.5 817.5 Q287 800 316 800 Z " />
<glyph glyph-name="gbreve" unicode="&#x11f;" horiz-adv-x="528" d="M481 -20 Q481 -109 427.5 -155.5 Q374 -202 283 -202 L137 -202 Q120 -202 103.5 -187 Q87 -172 87 -144 Q87 -115 103.5 -102 Q120 -89 137 -89 L282 -89 Q361 -89 361 -15 L361 0 L226 0 Q184 0 149.5 11.5 Q115 23 90.5 46.5 Q66 70 52 104.5 Q38 139 38 185 L38 285 Q38 330 52.5 364 Q67 398 92.5 421 Q118 444 153.5 455.5 Q189 467 230 467 L423 467 Q439 467 450 461 Q461 455 468 445.5 Q475 436 478 425 Q481 414 481 405 L481 -20 Z M158 192 Q158 157 175 137 Q192 117 233 117 L361 117 L361 352 L232 352 Q191 352 174.5 332.5 Q158 313 158 281 L158 192 Z M264 608 Q290 608 313 626 Q336 644 357 675 Q365 687 376 692 Q387 697 398 697 Q420 697 433 683 Q446 669 446 655 Q446 648 444 644 Q429 611 407.5 587 Q386 563 362 547.5 Q338 532 313 525 Q288 518 267 518 Q243 518 218.5 523 Q194 528 170.5 541.5 Q147 555 126 579 Q105 603 89 640 Q86 647 86 654 Q86 667 99.5 683 Q113 699 136 699 Q147 699 158.5 694 Q170 689 177 678 Q200 643 217.5 625.5 Q235 608 264 608 Z " />
<glyph glyph-name="Gdotaccent" unicode="&#x120;" horiz-adv-x="587" d="M243 0 Q204 0 168.5 13 Q133 26 107 52.5 Q81 79 65.5 117.5 Q50 156 50 207 L50 461 Q50 513 66.5 552 Q83 591 110 616.5 Q137 642 171.5 655 Q206 668 243 668 L455 668 Q483 668 497 652.5 Q511 637 511 610 Q511 583 497 567.5 Q483 552 455 552 L260 552 Q213 552 191.5 529 Q170 506 170 464 L170 203 Q170 161 192 138.5 Q214 116 260 116 L422 116 L422 295 L339 295 Q312 295 298 310.5 Q284 326 284 353 Q284 380 298 395 Q312 410 339 410 L482 410 Q509 410 525.5 399 Q542 388 542 353 L542 58 Q542 31 528 15.5 Q514 0 484 0 L243 0 Z M318 701 Q291 701 271 719.5 Q251 738 251 765 Q251 797 272 813 Q293 829 317 829 Q343 829 364 813 Q385 797 385 765 Q385 738 366 719.5 Q347 701 318 701 Z " />
<glyph glyph-name="gdotaccent" unicode="&#x121;" horiz-adv-x="528" d="M481 -20 Q481 -109 427.5 -155.5 Q374 -202 283 -202 L137 -202 Q120 -202 103.5 -187 Q87 -172 87 -144 Q87 -115 103.5 -102 Q120 -89 137 -89 L282 -89 Q361 -89 361 -15 L361 0 L226 0 Q184 0 149.5 11.5 Q115 23 90.5 46.5 Q66 70 52 104.5 Q38 139 38 185 L38 285 Q38 330 52.5 364 Q67 398 92.5 421 Q118 444 153.5 455.5 Q189 467 230 467 L423 467 Q439 467 450 461 Q461 455 468 445.5 Q475 436 478 425 Q481 414 481 405 L481 -20 Z M158 192 Q158 157 175 137 Q192 117 233 117 L361 117 L361 352 L232 352 Q191 352 174.5 332.5 Q158 313 158 281 L158 192 Z M287 531 Q260 531 240 549.5 Q220 568 220 595 Q220 627 241 643 Q262 659 286 659 Q312 659 333 643 Q354 627 354 595 Q354 568 335 549.5 Q316 531 287 531 Z " />
<glyph glyph-name="Gcommaaccent" unicode="&#x122;" horiz-adv-x="587" d="M243 0 Q204 0 168.5 13 Q133 26 107 52.5 Q81 79 65.5 117.5 Q50 156 50 207 L50 461 Q50 513 66.5 552 Q83 591 110 616.5 Q137 642 171.5 655 Q206 668 243 668 L455 668 Q483 668 497 652.5 Q511 637 511 610 Q511 583 497 567.5 Q483 552 455 552 L260 552 Q213 552 191.5 529 Q170 506 170 464 L170 203 Q170 161 192 138.5 Q214 116 260 116 L422 116 L422 295 L339 295 Q312 295 298 310.5 Q284 326 284 353 Q284 380 298 395 Q312 410 339 410 L482 410 Q509 410 525.5 399 Q542 388 542 353 L542 58 Q542 31 528 15.5 Q514 0 484 0 L243 0 Z M317 -224 Q313 -233 302.5 -241.5 Q292 -250 276 -250 Q249 -250 238 -234.5 Q227 -219 227 -206 L227 -199 L251 -79 Q255 -61 269 -46 Q283 -31 309 -31 Q341 -31 356 -49.5 Q371 -68 371 -88 Q371 -99 367 -107 L317 -224 Z " />
<glyph glyph-name="gcommaaccent" unicode="&#x123;" horiz-adv-x="528" d="M287 721 Q291 730 301.5 738.5 Q312 747 328 747 Q355 747 366.5 731.5 Q378 716 378 703 Q378 698 377 696 L353 576 Q349 558 335 543 Q321 528 295 528 Q263 528 248 546.5 Q233 565 233 585 Q233 590 234 594.5 Q235 599 237 604 L287 721 Z M481 -20 Q481 -109 427.5 -155.5 Q374 -202 283 -202 L137 -202 Q120 -202 103.5 -187 Q87 -172 87 -144 Q87 -115 103.5 -102 Q120 -89 137 -89 L282 -89 Q361 -89 361 -15 L361 0 L226 0 Q184 0 149.5 11.5 Q115 23 90.5 46.5 Q66 70 52 104.5 Q38 139 38 185 L38 285 Q38 330 52.5 364 Q67 398 92.5 421 Q118 444 153.5 455.5 Q189 467 230 467 L423 467 Q439 467 450 461 Q461 455 468 445.5 Q475 436 478 425 Q481 414 481 405 L481 -20 Z M158 192 Q158 157 175 137 Q192 117 233 117 L361 117 L361 352 L232 352 Q191 352 174.5 332.5 Q158 313 158 281 L158 192 Z " />
<glyph glyph-name="Hcircumflex" unicode="&#x124;" horiz-adv-x="592" d="M477 -5 Q447 -5 432.5 8 Q418 21 418 50 L418 295 L174 295 L174 50 Q174 21 159.5 8 Q145 -5 115 -5 Q84 -5 69.5 8 Q55 21 55 50 L55 618 Q55 673 115 673 Q174 673 174 618 L174 410 L418 410 L418 618 Q418 673 477 673 Q537 673 537 618 L537 50 Q537 21 522.5 8 Q508 -5 477 -5 Z M298 882 Q315 882 335 870 L478 779 Q496 767 496 747 Q496 737 491.5 727 Q487 717 480 709.5 Q473 702 464 697.5 Q455 693 447 693 Q432 693 412 703 L298 763 L178 699 Q170 694 162.5 692.5 Q155 691 147 691 Q122 691 109 708.5 Q96 726 96 745 Q96 767 115 779 L261 870 Q272 877 280 879.5 Q288 882 298 882 Z " />
<glyph glyph-name="hcircumflex" unicode="&#x125;" horiz-adv-x="523" d="M424 -5 Q395 -5 379.5 10 Q364 25 364 42 L364 281 Q364 320 341 335 Q318 350 284 350 L167 350 L167 42 Q167 25 152.5 10 Q138 -5 108 -5 Q79 -5 62.5 10 Q46 25 46 42 L46 650 Q46 667 62 682 Q78 697 107 697 Q137 697 152 682 Q167 667 167 650 L167 466 L294 466 Q381 466 432.5 419.5 Q484 373 484 281 L484 43 Q484 26 469.5 10.5 Q455 -5 424 -5 Z M106 882 Q123 882 143 870 L286 779 Q304 767 304 747 Q304 737 299.5 727 Q295 717 288 709.5 Q281 702 272 697.5 Q263 693 255 693 Q240 693 220 703 L106 763 L-14 699 Q-22 694 -29.5 692.5 Q-37 691 -45 691 Q-70 691 -83 708.5 Q-96 726 -96 745 Q-96 767 -77 779 L69 870 Q80 877 88 879.5 Q96 882 106 882 Z " />
<glyph glyph-name="Hbar" unicode="&#x126;" horiz-adv-x="592" d="M477 -5 Q447 -5 432.5 8 Q418 21 418 50 L418 295 L174 295 L174 50 Q174 21 159.5 8 Q145 -5 115 -5 Q84 -5 69.5 8 Q55 21 55 50 L55 506 L37 506 Q0 506 0 547 Q0 588 37 588 L55 588 L55 618 Q55 673 115 673 Q174 673 174 618 L174 588 L418 588 L418 618 Q418 673 477 673 Q537 673 537 618 L537 588 L555 588 Q592 588 592 547 Q592 506 555 506 L537 506 L537 50 Q537 21 522.5 8 Q508 -5 477 -5 Z M418 410 L418 506 L174 506 L174 410 L418 410 Z " />
</font>
</svg>
