<?xml version="1.0" encoding="UTF-8"?>
<svg xmlns="http://www.w3.org/2000/svg" xmlns:xlink="http://www.w3.org/1999/xlink" version="1.2" >
<font id="PFIsotextPro-Regular">
<font-face  font-family="PF Isotext Pro" units-per-em="1000" ascent="750" descent="-250" font-style="normal" font-weight="400" font-stretch="normal" cap-height="672" x-height="471" underline-position="-73" underline-thickness="55" />
<missing-glyph  horiz-adv-x="446" d="M0 700 L446 700 L446 0 L0 0 L0 700 Z M346 65 L223 288 L100 65 L346 65 Z M346 635 L100 635 L223 412 L346 635 Z M381 133 L381 567 L262 350 L381 133 Z M65 133 L184 350 L65 567 L65 133 Z " />
<glyph glyph-name="NULL" d="" />
<glyph glyph-name="carriagereturn" unicode="&#xd;" horiz-adv-x="840" d="M213 290 Q209 290 208 287 Q207 284 210 282 L341 152 Q348 145 340 137 L310 107 Q305 102 301.5 103 Q298 104 297 105 L87 316 Q84 319 83.5 320.5 Q83 322 87 326 L295 536 Q297 538 300 539.5 Q303 541 308 537 L341 505 Q346 500 344.5 496.5 Q343 493 340 490 L211 362 Q209 360 209.5 356.5 Q210 353 213 353 L692 353 Q698 353 704.5 355.5 Q711 358 711 371 L711 684 Q711 692 718 692 L769 692 Q776 692 776 684 L776 311 Q776 289 752 289 L213 290 Z " />
<glyph glyph-name="space" unicode="&#x20;" horiz-adv-x="297" d="" />
<glyph glyph-name="dollar" unicode="&#x24;" horiz-adv-x="486" d="M271 4 L271 -42 Q271 -52 263 -59.5 Q255 -67 238 -67 Q221 -67 214.5 -58.5 Q208 -50 208 -42 L208 4 L96 4 Q90 4 82 5 Q74 6 66.5 10.5 Q59 15 54 22.5 Q49 30 49 44 Q49 58 54.5 66 Q60 74 67.5 77.5 Q75 81 83 82 Q91 83 96 83 L208 83 L208 309 Q175 323 143 338 Q111 353 86 373 Q61 393 45.5 422 Q30 451 30 494 Q30 570 75.5 614.5 Q121 659 208 659 L208 707 Q208 717 214.5 725 Q221 733 238 733 Q255 733 263 726 Q271 719 271 708 L271 659 L389 659 Q397 659 408.5 649 Q420 639 420 619 Q420 595 409 587.5 Q398 580 389 580 L271 580 L271 369 Q302 354 334.5 339 Q367 324 393.5 304 Q420 284 437 254.5 Q454 225 454 181 Q454 145 442.5 113 Q431 81 410 57 Q389 33 358 18.5 Q327 4 288 4 L271 4 Z M288 83 Q320 83 345 106 Q370 129 370 175 Q370 195 363 209 Q356 223 343.5 235 Q331 247 312.5 257.5 Q294 268 271 281 L271 83 L288 83 Z M111 495 Q111 472 117.5 459.5 Q124 447 136 437.5 Q148 428 166 419 Q184 410 208 396 L208 580 L200 580 Q165 580 138 560.5 Q111 541 111 495 Z " />
<glyph glyph-name="ampersand" unicode="&#x26;" horiz-adv-x="621" d="M478 217 Q478 165 461.5 124.5 Q445 84 417 56.5 Q389 29 352 14.5 Q315 0 275 0 L232 0 Q157 0 109 49 Q61 98 61 199 L61 397 Q61 447 75.5 484.5 Q90 522 114 546.5 Q138 571 169 583.5 Q200 596 232 596 L390 596 Q429 596 429 554 Q429 515 390 515 L258 515 Q203 515 172.5 486 Q142 457 142 400 L142 195 Q142 144 166.5 111.5 Q191 79 238 79 L270 79 Q303 79 327 90 Q351 101 366.5 119.5 Q382 138 389.5 162.5 Q397 187 397 213 L397 301 L292 301 Q280 301 268.5 302 Q257 303 248.5 306.5 Q240 310 235 318 Q230 326 230 340 Q230 355 235.5 363.5 Q241 372 250 376 Q259 380 270.5 380.5 Q282 381 294 381 L478 381 Q492 381 506 386 Q520 391 532 396.5 Q544 402 553.5 407 Q563 412 569 412 Q583 412 597 399 Q611 386 611 367 Q611 352 597.5 340 Q584 328 564.5 319 Q545 310 524 305.5 Q503 301 488 301 L478 301 L478 217 Z " />
<glyph glyph-name="quoteright" unicode="&#x2019;" horiz-adv-x="166" d="M89 489 Q85 480 76.5 473 Q68 466 54 466 Q35 466 27 477 Q19 488 19 499 Q19 505 20 508 L52 647 Q56 661 68 671.5 Q80 682 98 682 Q122 682 135 667 Q148 652 148 635 Q148 627 146 623 L89 489 Z " />
<glyph glyph-name="parenleft" unicode="&#x28;" horiz-adv-x="250" d="M119 314 Q119 263 127.5 213 Q136 163 151 116.5 Q166 70 185.5 29.5 Q205 -11 227 -42 Q234 -53 234 -62 Q234 -75 220.5 -86 Q207 -97 196 -97 Q182 -97 172 -85 Q146 -51 121.5 -6 Q97 39 77.5 90.5 Q58 142 46 199 Q34 256 34 314 Q34 373 47 433.5 Q60 494 80.5 549 Q101 604 126.5 649.5 Q152 695 176 724 Q189 739 203 739 Q220 739 229.5 727 Q239 715 239 706 Q239 697 232 685 Q178 603 148.5 507.5 Q119 412 119 314 Z " />
<glyph glyph-name="parenright" unicode="&#x29;" horiz-adv-x="250" d="M152 314 Q152 412 122.5 507.5 Q93 603 39 685 Q32 699 32 706 Q32 714 41.5 726.5 Q51 739 68 739 Q82 739 94 724 Q118 695 143.5 649.5 Q169 604 189.5 549 Q210 494 223 433.5 Q236 373 236 314 Q236 256 224 199 Q212 142 192.5 90.5 Q173 39 148.5 -6 Q124 -51 98 -85 Q88 -97 75 -97 Q64 -97 50.5 -86.5 Q37 -76 37 -62 Q37 -53 44 -42 Q65 -11 84.5 29.5 Q104 70 119 116.5 Q134 163 143 213 Q152 263 152 314 Z " />
<glyph glyph-name="asterisk" unicode="&#x2a;" horiz-adv-x="402" d="M197 697 Q213 697 222 686.5 Q231 676 231 667 Q229 634 228 604.5 Q227 575 226 542 L337 602 Q343 605 348 605 Q359 605 370 593 Q381 581 381 567 Q381 557 376 549 Q371 541 365 539 L242 489 L324 389 Q330 381 330 373 Q330 362 319.5 349.5 Q309 337 295 337 Q277 337 268 349 L197 455 L130 350 Q122 338 108 338 Q92 338 81 349 Q70 360 70 376 Q70 384 74 390 L153 489 L34 535 Q26 538 21.5 545.5 Q17 553 17 562 Q17 581 28.5 590 Q40 599 51 599 Q57 599 62 596 L172 542 L163 668 Q163 680 173 688 Q183 696 197 697 Z " />
<glyph glyph-name="plus" unicode="&#x2b;" horiz-adv-x="486" d="M282 290 L282 155 Q282 136 273 126 Q264 116 242 116 Q204 116 204 155 L204 290 L69 290 Q30 290 30 328 Q30 348 40.5 357.5 Q51 367 69 367 L204 367 L204 503 Q204 522 212 531.5 Q220 541 242 541 Q264 541 273 532 Q282 523 282 503 L282 367 L416 367 Q456 367 456 328 Q456 290 416 290 L282 290 Z " />
<glyph glyph-name="comma" unicode="&#x2c;" horiz-adv-x="155" d="M79 -90 Q74 -98 65.5 -105.5 Q57 -113 45 -113 Q24 -113 16 -101.5 Q8 -90 8 -79 Q8 -77 8.5 -74.5 Q9 -72 9 -70 L41 69 Q44 83 56.5 93 Q69 103 87 103 Q111 103 124.5 88.5 Q138 74 138 57 Q138 50 135 44 L79 -90 Z " />
<glyph glyph-name="hyphen" unicode="&#x2d;" horiz-adv-x="342" d="M271 280 Q293 280 305.5 271 Q318 262 318 239 Q318 216 305.5 206.5 Q293 197 271 197 L71 197 Q49 197 36.5 206.5 Q24 216 24 239 Q24 262 36.5 271 Q49 280 71 280 L271 280 Z " />
<glyph glyph-name="period" unicode="&#x2e;" horiz-adv-x="173" d="M86 -2 Q64 -2 48.5 13.5 Q33 29 33 50 Q33 75 48.5 88.5 Q64 102 84 102 Q104 102 120.5 89 Q137 76 137 50 Q137 29 122.5 13.5 Q108 -2 86 -2 Z " />
<glyph glyph-name="slash" unicode="&#x2f;" horiz-adv-x="469" d="M93 -25 Q83 -45 63 -45 Q47 -45 33.5 -34.5 Q20 -24 20 -7 Q20 3 24 10 L367 693 Q372 702 380.5 706 Q389 710 398 710 Q417 710 429 698.5 Q441 687 441 675 Q441 667 437 660 L93 -25 Z " />
<glyph glyph-name="zero" unicode="0" horiz-adv-x="486" d="M259 668 Q340 668 390 618 Q440 568 440 468 L440 199 Q440 149 425.5 111.5 Q411 74 386.5 49.5 Q362 25 329 12.5 Q296 0 259 0 L233 0 Q194 0 160.5 12.5 Q127 25 102.5 49.5 Q78 74 63.5 111.5 Q49 149 49 199 L49 468 Q49 518 63.5 555.5 Q78 593 103.5 618 Q129 643 162 655.5 Q195 668 233 668 L259 668 Z M360 473 Q360 525 331.5 556.5 Q303 588 252 588 L239 588 Q188 588 159 556.5 Q130 525 130 473 L130 195 Q130 142 159.5 110.5 Q189 79 239 79 L252 79 Q300 79 330 111 Q360 143 360 195 L360 473 Z " />
<glyph glyph-name="one" unicode="1" horiz-adv-x="486" d="M269 -5 Q244 -5 236.5 6 Q229 17 229 30 L229 555 L149 494 Q138 486 126 486 Q112 486 99 498 Q86 510 86 530 Q86 547 99 557 L227 655 Q239 665 248 667.5 Q257 670 268 669 Q290 669 299.5 660 Q309 651 309 625 L309 29 Q309 18 300.5 6.5 Q292 -5 269 -5 Z " />
<glyph glyph-name="two" unicode="2" horiz-adv-x="486" d="M101 586 Q66 586 66 627 Q66 667 101 667 L282 667 Q363 667 405.5 623.5 Q448 580 448 509 Q448 470 437 440.5 Q426 411 407 388.5 Q388 366 363 349 Q338 332 311 317 L194 256 Q150 233 132 205 Q114 177 114 138 L114 82 L409 82 Q444 82 444 41 Q444 0 409 0 L77 0 Q54 0 44 11 Q34 22 34 37 L34 134 Q34 168 40 194.5 Q46 221 60 243.5 Q74 266 98 285.5 Q122 305 157 323 L295 395 Q330 413 349 442.5 Q368 472 368 504 Q368 525 360.5 540.5 Q353 556 341 566 Q329 576 314 581 Q299 586 283 586 L101 586 Z " />
<glyph glyph-name="three" unicode="3" horiz-adv-x="486" d="M249 668 Q276 668 306 661 Q336 654 361 635 Q386 616 402.5 583.5 Q419 551 419 500 Q419 453 397 417.5 Q375 382 342 368 Q387 348 406 308 Q425 268 425 214 L425 202 Q425 152 410.5 114.5 Q396 77 371 51.5 Q346 26 312.5 13 Q279 0 242 0 L67 0 Q57 0 45.5 9.5 Q34 19 34 41 Q34 65 45 72.5 Q56 80 67 80 L236 80 Q287 80 316 113 Q345 146 345 198 L345 217 Q345 268 317 297 Q289 326 235 326 L135 326 Q124 326 113 335.5 Q102 345 102 367 Q102 390 113 397.5 Q124 405 134 405 L234 405 Q254 405 272.5 410 Q291 415 305.5 426.5 Q320 438 329 455.5 Q338 473 338 499 Q338 548 309 568 Q280 588 237 588 L81 588 Q70 588 59 595.5 Q48 603 48 626 Q48 649 60 658.5 Q72 668 81 668 L249 668 Z " />
<glyph glyph-name="four" unicode="4" horiz-adv-x="486" d="M62 128 Q39 128 27.5 137 Q16 146 16 170 Q16 178 18.5 187.5 Q21 197 26 208 L209 644 Q215 659 224 665 Q233 671 244 671 Q259 671 273.5 662.5 Q288 654 288 635 Q288 628 285 619 L112 210 L278 210 L278 338 Q278 352 287 362.5 Q296 373 318 373 Q340 373 349.5 361 Q359 349 359 338 L359 210 L440 210 Q451 210 462.5 200 Q474 190 474 170 Q474 152 465.5 140 Q457 128 440 128 L359 128 L359 26 Q359 15 349.5 4.5 Q340 -6 318 -6 Q296 -6 287 4.5 Q278 15 278 26 L278 128 L62 128 Z " />
<glyph glyph-name="five" unicode="5" horiz-adv-x="486" d="M81 0 Q73 0 60.5 9.5 Q48 19 48 41 Q48 64 60 72 Q72 80 81 80 L258 80 Q309 80 332 111 Q355 142 355 194 L355 223 Q355 274 331.5 302 Q308 330 260 330 L92 330 Q79 330 70.5 334.5 Q62 339 57 346 Q52 353 50 361 Q48 369 48 375 L48 622 Q48 638 57 653 Q66 668 92 668 L388 668 Q402 668 411.5 658.5 Q421 649 421 626 Q421 603 408.5 595.5 Q396 588 388 588 L127 588 L127 410 L265 410 Q302 410 333.5 399 Q365 388 388 364.5 Q411 341 424 305 Q437 269 437 219 L437 198 Q437 148 424 111 Q411 74 388 49 Q365 24 333.5 12 Q302 0 265 0 L81 0 Z " />
<glyph glyph-name="six" unicode="6" horiz-adv-x="486" d="M203 1 Q156 1 126 16.5 Q96 32 79 56.5 Q62 81 55 111 Q48 141 48 170 L48 469 Q48 523 64 561 Q80 599 105 623 Q130 647 160 657.5 Q190 668 219 668 L365 668 Q402 668 402 627 Q402 589 364 589 L236 589 Q188 589 158 560.5 Q128 532 128 472 L128 405 L275 405 Q312 405 343.5 394 Q375 383 398 359.5 Q421 336 434 300 Q447 264 447 214 L447 198 Q447 148 434 111 Q421 74 398 49.5 Q375 25 343.5 13 Q312 1 275 1 L203 1 Z M266 78 Q316 78 341.5 109.5 Q367 141 367 193 L367 218 Q367 270 342 297.5 Q317 325 269 325 L128 325 L128 169 Q128 155 131.5 139.5 Q135 124 144.5 110 Q154 96 171 87 Q188 78 216 78 L266 78 Z " />
<glyph glyph-name="seven" unicode="7" horiz-adv-x="486" d="M386 668 Q427 668 427 630 Q427 620 424.5 612 Q422 604 419 596 L182 20 Q177 9 167.5 1.5 Q158 -6 144 -6 Q122 -6 111.5 5.5 Q101 17 101 26 Q101 32 104 40 L332 587 L76 587 Q60 587 50.5 595.5 Q41 604 41 627 Q41 650 53 659 Q65 668 76 668 L386 668 Z " />
<glyph glyph-name="eight" unicode="8" horiz-adv-x="486" d="M46 212 Q46 269 66 308.5 Q86 348 121 368 Q86 385 70.5 418.5 Q55 452 55 493 Q55 535 68.5 567.5 Q82 600 105 623 Q128 646 160 658 Q192 670 230 670 L257 670 Q294 670 326 658.5 Q358 647 381.5 624.5 Q405 602 418.5 569 Q432 536 432 494 Q432 456 415.5 421.5 Q399 387 365 370 Q404 350 423 309.5 Q442 269 442 212 L442 198 Q442 148 428 110.5 Q414 73 389.5 48.5 Q365 24 332 12 Q299 0 262 0 L224 0 Q187 0 154.5 12 Q122 24 98 48.5 Q74 73 60 110.5 Q46 148 46 198 L46 212 Z M255 77 Q306 77 334 110 Q362 143 362 195 L362 214 Q362 265 336.5 298.5 Q311 332 260 332 L228 332 Q177 332 151.5 298.5 Q126 265 126 214 L126 195 Q126 143 153 110 Q180 77 230 77 L255 77 Z M236 594 Q185 594 159 565.5 Q133 537 133 495 Q133 456 155 429.5 Q177 403 220 403 L265 403 Q308 403 331 430.5 Q354 458 354 495 Q354 535 328.5 564.5 Q303 594 252 594 L236 594 Z " />
<glyph glyph-name="nine" unicode="9" horiz-adv-x="486" d="M285 668 Q331 668 361.5 652.5 Q392 637 409 612 Q426 587 433 557 Q440 527 440 498 L440 199 Q440 145 424 107 Q408 69 383 45.5 Q358 22 327.5 11 Q297 0 269 0 L123 0 Q86 0 86 41 Q86 62 95.5 71 Q105 80 124 80 L252 80 Q300 80 330 108 Q360 136 360 196 L360 263 L213 263 Q176 263 144.5 274 Q113 285 90.5 308 Q68 331 55 367.5 Q42 404 42 454 L42 470 Q42 520 55 557.5 Q68 595 90.5 619.5 Q113 644 144.5 656 Q176 668 213 668 L285 668 Z M222 590 Q172 590 146.5 558.5 Q121 527 121 475 L121 450 Q121 399 146 371 Q171 343 219 343 L360 343 L360 499 Q360 512 356.5 528 Q353 544 343.5 558 Q334 572 317 581 Q300 590 272 590 L222 590 Z " />
<glyph glyph-name="colon" unicode="&#x3a;" horiz-adv-x="171" d="M86 -1 Q64 -1 48.5 14.5 Q33 30 33 51 Q33 76 48.5 89.5 Q64 103 84 103 Q104 103 120.5 90 Q137 77 137 51 Q137 30 122.5 14.5 Q108 -1 86 -1 Z M86 242 Q64 242 48.5 257 Q33 272 33 293 Q33 318 48.5 331.5 Q64 345 84 345 Q104 345 120.5 332 Q137 319 137 293 Q137 273 122.5 257.5 Q108 242 86 242 Z " />
<glyph glyph-name="semicolon" unicode="&#x3b;" horiz-adv-x="188" d="M101 242 Q78 242 63 257 Q48 272 48 293 Q48 318 63.5 331.5 Q79 345 99 345 Q119 345 135 332 Q151 319 151 293 Q151 273 137 257.5 Q123 242 101 242 Z M90 -90 Q86 -98 77.5 -105.5 Q69 -113 56 -113 Q36 -113 28 -102 Q20 -91 20 -80 Q20 -73 21 -70 L53 69 Q56 83 68.5 93 Q81 103 98 103 Q122 103 135.5 88.5 Q149 74 149 57 Q149 50 146 44 L90 -90 Z " />
<glyph glyph-name="less" unicode="&#x3c;" horiz-adv-x="486" d="M6 316 Q6 334 13 340.5 Q20 347 41 357 L425 532 Q432 535 440 535 Q454 535 465.5 524 Q477 513 477 494 Q477 483 471 475 Q465 467 451 460 Q442 456 418 445 Q394 434 363.5 420 Q333 406 299 390.5 Q265 375 234 361 Q203 347 179.5 336 Q156 325 146 321 L146 319 L451 206 Q477 196 477 173 Q477 153 465.5 141.5 Q454 130 441 130 Q433 130 426 133 Q329 168 234 204 Q139 240 42 275 Q22 282 14 289 Q6 296 6 316 Z " />
<glyph glyph-name="equal" unicode="&#x3d;" horiz-adv-x="486" d="M71 377 Q30 377 30 418 Q30 439 39.5 447.5 Q49 456 71 456 L413 456 Q436 456 445.5 447.5 Q455 439 455 418 Q455 377 413 377 L71 377 Z M71 211 Q49 211 39.5 219.5 Q30 228 30 250 Q30 291 71 291 L413 291 Q455 291 455 250 Q455 228 445.5 219.5 Q436 211 413 211 L71 211 Z " />
<glyph glyph-name="greater" unicode="&#x3e;" horiz-adv-x="486" d="M478 316 Q478 296 470 289 Q462 282 443 275 L58 133 Q50 130 43 130 Q31 130 19 141.5 Q7 153 7 173 Q7 196 33 206 L338 319 L338 321 L33 460 Q7 472 7 493 Q7 512 19.5 523.5 Q32 535 45 535 Q51 535 59 532 Q156 487 251 444 Q346 401 443 357 Q464 347 471 340.5 Q478 334 478 316 Z " />
<glyph glyph-name="question" unicode="&#x3f;" horiz-adv-x="436" d="M214 0 Q194 0 180.5 13.5 Q167 27 167 47 Q167 71 181.5 83 Q196 95 214 95 Q232 95 246.5 83.5 Q261 72 261 47 Q261 27 247.5 13.5 Q234 0 214 0 Z M211 667 Q289 667 334.5 632.5 Q380 598 380 527 Q380 518 377 506 Q374 494 369.5 482 Q365 470 359.5 459.5 Q354 449 349 442 L281 357 Q267 340 262 324 Q257 308 257 292 L257 215 Q257 202 247 191 Q237 180 214 180 Q203 180 189 187.5 Q175 195 175 215 L175 315 Q175 346 198 375 L275 477 Q293 499 293 525 Q293 552 270 570 Q247 588 205 588 Q181 588 161.5 583.5 Q142 579 126.5 573 Q111 567 99.5 562.5 Q88 558 81 558 Q67 558 56 571 Q45 584 45 602 Q45 619 61 629 Q68 633 83 639.5 Q98 646 118 652 Q138 658 161.5 662.5 Q185 667 211 667 Z " />
<glyph glyph-name="at" unicode="&#x40;" horiz-adv-x="905" d="M630 223 Q630 202 641 189.5 Q652 177 678 177 Q705 177 724.5 191 Q744 205 756.5 228.5 Q769 252 774.5 284 Q780 316 780 352 Q780 419 756 474.5 Q732 530 689 570 Q646 610 587.5 632 Q529 654 460 654 Q391 654 330 629.5 Q269 605 223.5 558 Q178 511 152 443.5 Q126 376 126 290 Q126 216 148.5 155.5 Q171 95 213 51.5 Q255 8 315 -16 Q375 -40 450 -40 Q492 -40 534 -32 Q576 -24 611 -4 Q617 -1 624 -1 Q639 -1 648.5 -12 Q658 -23 658 -36 Q658 -54 640 -63 Q597 -86 546.5 -96.5 Q496 -107 442 -107 Q355 -107 284 -78 Q213 -49 162 3.5 Q111 56 83 129 Q55 202 55 289 Q55 379 83.5 458.5 Q112 538 165 596.5 Q218 655 294 689 Q370 723 465 723 Q546 723 616 696 Q686 669 738 620.5 Q790 572 819.5 503.5 Q849 435 849 352 Q849 288 835 242.5 Q821 197 797.5 168 Q774 139 743 125.5 Q712 112 678 112 Q654 112 632 118 Q610 124 593.5 137 Q577 150 567 170.5 Q557 191 557 219 L557 298 L364 298 Q343 298 328.5 284 Q314 270 314 249 L314 245 Q314 226 326 209 Q338 192 364 192 L493 192 Q503 192 513.5 183.5 Q524 175 524 155 Q524 134 513.5 126 Q503 118 493 118 L355 118 Q305 118 272 151.5 Q239 185 239 244 L239 251 Q239 273 246.5 295 Q254 317 269.5 334 Q285 351 308.5 362 Q332 373 364 373 L556 373 L556 381 Q556 416 534 436 Q512 456 474 456 L336 456 Q326 456 315.5 463.5 Q305 471 305 492 Q305 512 315.5 521 Q326 530 336 530 L472 530 Q551 530 590.5 489 Q630 448 630 373 L630 223 Z " />
<glyph glyph-name="A" unicode="A" horiz-adv-x="547" d="M402 152 L143 152 L99 22 Q90 -4 64 -4 Q55 -4 46 -1 Q31 3 24 12 Q17 21 17 33 Q17 43 19 48 L215 629 Q222 649 230.5 658 Q239 667 259 667 L288 667 Q308 667 316.5 658 Q325 649 332 629 L528 48 Q531 40 531 33 Q531 10 505 0 Q494 -3 485 -3 Q457 -3 447 22 L402 152 Z M171 231 L376 231 L274 549 L272 549 L171 231 Z " />
<glyph glyph-name="B" unicode="B" horiz-adv-x="578" d="M142 587 L142 399 L346 399 Q378 399 401.5 425 Q425 451 425 496 Q425 539 400.5 563 Q376 587 336 587 L142 587 Z M142 320 L142 80 L349 80 Q368 80 386 87 Q404 94 418 108.5 Q432 123 440 145.5 Q448 168 448 200 Q448 219 441.5 240.5 Q435 262 421.5 279.5 Q408 297 388 308.5 Q368 320 341 320 L142 320 Z M101 0 Q60 0 60 42 L60 627 Q60 667 101 667 L350 667 Q382 667 410.5 655.5 Q439 644 461 622 Q483 600 495.5 568.5 Q508 537 508 497 Q508 463 492.5 424 Q477 385 440 362 Q480 339 504.5 301.5 Q529 264 529 199 Q529 149 513.5 112 Q498 75 472.5 50 Q447 25 414.5 12.5 Q382 0 348 0 L101 0 Z " />
<glyph glyph-name="C" unicode="C" horiz-adv-x="501" d="M225 0 Q188 0 156 12 Q124 24 100.5 48.5 Q77 73 63.5 110.5 Q50 148 50 198 L50 468 Q50 518 64.5 555.5 Q79 593 103.5 617.5 Q128 642 159.5 654.5 Q191 667 226 667 L435 667 Q473 667 473 627 Q473 587 435 587 L234 587 Q185 587 158 555 Q131 523 131 471 L131 195 Q131 143 157 111.5 Q183 80 231 80 L435 80 Q473 80 473 41 Q473 0 435 0 L225 0 Z " />
<glyph glyph-name="D" unicode="D" horiz-adv-x="590" d="M458 476 Q458 529 432 558.5 Q406 588 353 588 L142 588 L142 80 L348 80 Q406 80 432 111 Q458 142 458 195 L458 476 Z M102 0 Q60 0 60 41 L60 627 Q60 667 102 667 L368 667 Q445 667 492.5 620 Q540 573 540 473 L540 199 Q540 149 526.5 112 Q513 75 489 50 Q465 25 433 12.5 Q401 0 364 0 L102 0 Z " />
<glyph glyph-name="E" unicode="E" horiz-adv-x="494" d="M102 0 Q60 0 60 41 L60 627 Q60 667 102 667 L435 667 Q473 667 473 627 Q473 587 435 587 L142 587 L142 393 L392 393 Q428 393 428 353 Q428 314 392 314 L142 314 L142 80 L435 80 Q473 80 473 41 Q473 0 435 0 L102 0 Z " />
<glyph glyph-name="F" unicode="F" horiz-adv-x="491" d="M142 587 L142 393 L392 393 Q428 393 428 353 Q428 314 392 314 L142 314 L142 34 Q142 11 132.5 3 Q123 -5 102 -5 Q80 -5 70 3.5 Q60 12 60 34 L60 627 Q60 667 102 667 L435 667 Q473 667 473 627 Q473 587 435 587 L142 587 Z " />
<glyph glyph-name="G" unicode="G" horiz-adv-x="555" d="M226 0 Q189 0 157 12.5 Q125 25 101 50 Q77 75 63.5 112 Q50 149 50 199 L50 468 Q50 518 65 555.5 Q80 593 104.5 617.5 Q129 642 161 654.5 Q193 667 226 667 L448 667 Q486 667 486 627 Q486 587 448 587 L239 587 Q187 587 159.5 555.5 Q132 524 132 471 L132 195 Q132 142 158 111 Q184 80 237 80 L428 80 L428 313 L325 313 Q288 313 288 354 Q288 393 325 393 L469 393 Q489 393 499.5 386 Q510 379 510 354 L510 41 Q510 20 501 10 Q492 0 471 0 L226 0 Z " />
<glyph glyph-name="H" unicode="H" horiz-adv-x="566" d="M467 -5 Q445 -5 436 3.5 Q427 12 427 35 L427 315 L139 315 L139 35 Q139 12 130 3.5 Q121 -5 99 -5 Q77 -5 67.5 4 Q58 13 58 35 L58 632 Q58 654 67.5 663 Q77 672 99 672 Q121 672 130 663.5 Q139 655 139 632 L139 392 L427 392 L427 632 Q427 655 436 663.5 Q445 672 467 672 Q489 672 498.5 663 Q508 654 508 632 L508 35 Q508 13 498.5 4 Q489 -5 467 -5 Z " />
<glyph glyph-name="I" unicode="I" horiz-adv-x="248" d="M125 -5 Q103 -5 93.5 4 Q84 13 84 35 L84 632 Q84 654 93.5 663 Q103 672 125 672 Q146 672 155.5 663.5 Q165 655 165 632 L165 35 Q165 12 155.5 3.5 Q146 -5 125 -5 Z " />
<glyph glyph-name="J" unicode="J" horiz-adv-x="403" d="M37 0 Q0 0 0 41 Q0 62 11.5 70.5 Q23 79 38 79 L125 79 Q173 79 200 104.5 Q227 130 227 181 L227 589 L105 589 Q90 589 80.5 598.5 Q71 608 71 628 Q71 648 80.5 658 Q90 668 105 668 L268 668 Q308 668 308 628 L308 182 Q308 145 297.5 112 Q287 79 265 54 Q243 29 208.5 14.5 Q174 0 127 0 L37 0 Z " />
<glyph glyph-name="M" unicode="M" horiz-adv-x="655" d="M553 -5 Q531 -5 522 3 Q513 11 513 34 L513 535 L511 535 L386 267 Q380 255 371 245 Q362 235 343 235 L310 235 Q291 235 282 245 Q273 255 266 268 L143 535 L141 535 L141 34 Q141 11 131.5 3 Q122 -5 101 -5 Q79 -5 69.5 3.5 Q60 12 60 34 L60 626 Q60 667 101 667 L137 667 Q157 667 164 659 Q171 651 179 637 L328 322 L478 644 Q485 656 493.5 661.5 Q502 667 517 667 L553 667 Q594 667 594 626 L594 34 Q594 12 584.5 3.5 Q575 -5 553 -5 Z " />
<glyph glyph-name="N" unicode="N" horiz-adv-x="587" d="M455 0 Q438 0 430.5 5.5 Q423 11 416 24 L143 531 L141 531 L141 34 Q141 11 131.5 3.5 Q122 -4 101 -4 Q79 -4 69.5 4.5 Q60 13 60 34 L60 626 Q60 667 101 667 L133 667 Q151 667 159 659 Q167 651 175 638 Q243 512 308.5 389.5 Q374 267 443 140 L445 140 L445 632 Q445 655 454.5 663.5 Q464 672 485 672 Q527 672 527 632 L527 40 Q527 0 485 0 L455 0 Z " />
<glyph glyph-name="O" unicode="O" horiz-adv-x="558" d="M323 667 Q363 667 397 654.5 Q431 642 456 616.5 Q481 591 494.5 553 Q508 515 508 465 L508 202 Q508 152 493.5 114 Q479 76 453.5 50.5 Q428 25 394.5 12.5 Q361 0 324 0 L234 0 Q197 0 163.5 12 Q130 24 105 48.5 Q80 73 65 110.5 Q50 148 50 198 L50 465 Q50 515 65 553 Q80 591 105.5 616.5 Q131 642 164.5 654.5 Q198 667 235 667 L323 667 Z M427 473 Q427 525 399.5 557.5 Q372 590 318 590 L239 590 Q188 590 159.5 557.5 Q131 525 131 473 L131 193 Q131 141 159.5 109 Q188 77 239 77 L318 77 Q370 77 398.5 110 Q427 143 427 194 L427 473 Z " />
<glyph glyph-name="P" unicode="P" horiz-adv-x="547" d="M141 587 L141 344 L326 344 Q355 344 375 355 Q395 366 407 384 Q419 402 424.5 424 Q430 446 430 468 Q430 500 421.5 522.5 Q413 545 398.5 559.5 Q384 574 365 580.5 Q346 587 325 587 L141 587 Z M141 264 L141 35 Q141 12 131.5 3.5 Q122 -5 101 -5 Q79 -5 69.5 4 Q60 13 60 35 L60 627 Q60 667 101 667 L315 667 Q408 667 460 614.5 Q512 562 512 468 Q512 374 464 319 Q416 264 319 264 L141 264 Z " />
<glyph glyph-name="Q" unicode="Q" horiz-adv-x="556" d="M323 667 Q363 667 397 654.5 Q431 642 456 616.5 Q481 591 494.5 553 Q508 515 508 465 L508 202 Q508 164 499.5 132.5 Q491 101 475 78 L528 24 Q541 14 541 -2 Q541 -15 527.5 -27.5 Q514 -40 502 -40 Q492 -40 475 -25.5 Q458 -11 421 26 Q378 0 324 0 L234 0 Q197 0 163.5 12 Q130 24 105 48.5 Q80 73 65 110.5 Q50 148 50 198 L50 465 Q50 515 65 553 Q80 591 105.5 616.5 Q131 642 164.5 654.5 Q198 667 235 667 L323 667 Z M427 473 Q427 525 399.5 557.5 Q372 590 318 590 L239 590 Q188 590 159.5 557.5 Q131 525 131 473 L131 193 Q131 141 159.5 109 Q188 77 239 77 L318 77 Q342 77 364 85 L297 154 Q284 169 284 180 Q284 192 296.5 206 Q309 220 323 220 Q337 220 351 206 L416 138 Q427 163 427 194 L427 473 Z " />
<glyph glyph-name="R" unicode="R" horiz-adv-x="542" d="M141 587 L141 344 L330 344 Q357 344 376 354.5 Q395 365 407 382.5 Q419 400 424.5 422.5 Q430 445 430 468 Q430 500 421 522.5 Q412 545 398 559.5 Q384 574 365.5 580.5 Q347 587 328 587 L141 587 Z M512 468 Q512 394 479.5 340.5 Q447 287 377 270 L492 58 Q498 47 498 36 Q498 19 485.5 7 Q473 -5 455 -5 Q432 -5 419 18 L287 264 L141 264 L141 36 Q141 13 131.5 4 Q122 -5 100 -5 Q79 -5 70.5 4.5 Q62 14 62 36 L62 627 Q62 667 103 667 L314 667 Q407 667 459.5 614.5 Q512 562 512 468 Z " />
<glyph glyph-name="S" unicode="S" horiz-adv-x="525" d="M90 0 Q81 0 70 8 Q59 16 59 39 Q59 62 71 71 Q83 80 90 80 L316 80 Q351 80 376 104 Q401 128 401 173 Q401 209 379 232.5 Q357 256 315 273 L180 330 Q151 342 126 355 Q101 368 82.5 387 Q64 406 53 432.5 Q42 459 42 499 Q42 534 53 565 Q64 596 85 618.5 Q106 641 137 654 Q168 667 208 667 L416 667 Q425 667 436.5 657 Q448 647 448 626 Q448 602 437 594.5 Q426 587 416 587 L208 587 Q191 587 176 580.5 Q161 574 149 562.5 Q137 551 130 535 Q123 519 123 500 Q123 465 141.5 445.5 Q160 426 195 411 L324 357 Q353 345 382 330.5 Q411 316 433.5 296 Q456 276 470 247.5 Q484 219 484 178 Q484 142 473 110 Q462 78 441 53.5 Q420 29 389 14.5 Q358 0 318 0 L90 0 Z " />
<glyph glyph-name="T" unicode="T" horiz-adv-x="492" d="M286 587 L286 35 Q286 13 277 4 Q268 -5 245 -5 Q223 -5 214 3.5 Q205 12 205 35 L205 587 L44 587 Q7 587 7 627 Q7 667 44 667 L446 667 Q484 667 484 627 Q484 587 446 587 L286 587 Z " />
<glyph glyph-name="U" unicode="U" horiz-adv-x="568" d="M54 630 Q54 643 58.5 650.5 Q63 658 69 662.5 Q75 667 82 668.5 Q89 670 95 670 Q100 670 107 668.5 Q114 667 120 662.5 Q126 658 130.5 650 Q135 642 135 630 L135 195 Q135 172 142.5 151 Q150 130 163.5 114 Q177 98 197 89 Q217 80 241 80 L326 80 Q376 80 404.5 112 Q433 144 433 195 L433 630 Q433 643 437 651 Q441 659 447 663 Q453 667 460 668.5 Q467 670 473 670 Q478 670 485 668.5 Q492 667 498 662.5 Q504 658 508.5 650.5 Q513 643 513 630 L513 199 Q513 149 498.5 111.5 Q484 74 459.5 49.5 Q435 25 401.5 12.5 Q368 0 331 0 L236 0 Q198 0 165 12 Q132 24 107.5 48 Q83 72 68.5 108.5 Q54 145 54 195 L54 630 Z " />
<glyph glyph-name="V" unicode="V" horiz-adv-x="550" d="M509 665 Q535 654 535 634 Q535 626 532 619 L333 36 Q326 16 317.5 8 Q309 0 290 0 L255 0 Q235 0 226.5 8 Q218 16 211 36 L12 619 Q10 627 10 632 Q10 655 34 665 Q47 670 56 670 Q80 670 89 644 L272 100 L274 100 Q319 237 364.5 372 Q410 507 456 644 Q461 659 468.5 664.5 Q476 670 487 670 Q497 670 509 665 Z " />
<glyph glyph-name="W" unicode="W" horiz-adv-x="765" d="M230 101 Q255 219 280 337.5 Q305 456 329 574 Q334 594 342.5 603.5 Q351 613 370 613 L394 613 Q414 613 422.5 603.5 Q431 594 435 574 L535 101 L536 101 Q571 238 604.5 373.5 Q638 509 673 646 Q681 672 706 672 Q715 672 726 669 Q740 665 746 655.5 Q752 646 752 635 Q752 632 752 628.5 Q752 625 750 621 L595 36 Q588 16 580 8 Q572 0 553 0 L517 0 Q498 0 489 8 Q480 16 474 36 L381 479 L290 36 Q283 16 274.5 8 Q266 0 247 0 L211 0 Q192 0 183.5 8 Q175 16 168 36 L10 621 Q8 629 8 634 Q8 645 13.5 654 Q19 663 32 667 Q47 672 56 672 Q67 672 75.5 666 Q84 660 88 646 Q123 509 158.5 373.5 Q194 238 229 101 L230 101 L230 101 Z " />
<glyph glyph-name="X" unicode="X" horiz-adv-x="523" d="M497 4 Q486 -4 473 -4 Q452 -4 439 15 L263 283 L88 16 Q73 -5 52 -5 Q36 -5 24 7 Q12 19 12 35 Q12 47 20 58 L215 346 L37 611 Q30 621 30 633 Q30 647 43 660 Q56 673 73 673 Q93 673 106 654 L264 410 L423 654 Q436 673 455 673 Q470 673 484 662 Q498 651 498 634 Q498 623 491 613 L312 346 L507 58 Q513 49 513 36 Q513 16 497 4 Z " />
<glyph glyph-name="Y" unicode="Y" horiz-adv-x="509" d="M256 362 L258 362 Q300 434 341.5 506 Q383 578 425 650 Q431 661 439.5 665.5 Q448 670 457 670 Q479 670 490.5 656 Q502 642 502 631 Q502 621 498 614 Q447 529 397.5 444.5 Q348 360 298 275 L298 33 Q298 11 288.5 3 Q279 -5 257 -5 Q217 -5 217 33 L217 276 L11 616 Q7 623 7 630 Q7 645 21 657.5 Q35 670 54 670 Q73 670 84 650 L256 362 Z " />
<glyph glyph-name="Z" unicode="Z" horiz-adv-x="495" d="M67 0 Q42 0 33 11 Q24 22 24 36 Q24 49 28 60 Q32 71 37 79 L361 587 L74 587 Q36 587 36 627 Q36 667 74 667 L432 667 Q451 667 460 656 Q469 645 469 631 Q469 617 465 607.5 Q461 598 455 588 L132 80 L438 80 Q458 80 465.5 69.5 Q473 59 473 41 Q473 23 465.5 11.5 Q458 0 438 0 L67 0 Z " />
<glyph glyph-name="bracketleft" unicode="&#x5b;" horiz-adv-x="298" d="M96 -85 Q70 -85 61 -70 Q52 -55 52 -41 L52 683 Q52 697 61 712 Q70 727 96 727 L252 727 Q262 727 272.5 718 Q283 709 283 688 Q283 668 272 659 Q261 650 252 650 L129 650 L129 -8 L252 -8 Q261 -8 272 -17 Q283 -26 283 -46 Q283 -66 272.5 -75.5 Q262 -85 252 -85 L96 -85 Z " />
<glyph glyph-name="backslash" unicode="&#x5c;" horiz-adv-x="469" d="M25 660 Q21 667 21 675 Q21 688 33 699 Q45 710 63 710 Q72 710 80.5 706 Q89 702 94 693 L438 10 Q442 0 442 -6 Q442 -24 428.5 -34.5 Q415 -45 398 -45 Q390 -44 381.5 -40 Q373 -36 368 -25 L25 660 Z " />
<glyph glyph-name="bracketright" unicode="&#x5d;" horiz-adv-x="307" d="M62 -79 Q51 -79 40.5 -70 Q30 -61 30 -40 Q30 -20 41.5 -11.5 Q53 -3 62 -3 L185 -3 L185 645 L62 645 Q53 645 41.5 654 Q30 663 30 683 Q30 703 40.5 712 Q51 721 62 721 L218 721 Q244 721 253 706.5 Q262 692 262 678 L262 -35 Q262 -49 253 -64 Q244 -79 218 -79 L62 -79 Z " />
<glyph glyph-name="asciicircum" unicode="&#x5e;" horiz-adv-x="429" d="M218 669 Q231 669 245 659 L398 520 Q410 509 410 494 Q410 477 396 465 Q382 453 367 453 Q354 453 345 462 L217 576 L84 461 Q75 453 62 453 Q43 453 31 466 Q19 479 19 496 Q19 510 29 519 L190 659 Q204 669 218 669 Z " />
<glyph glyph-name="underscore" unicode="&#x5f;" horiz-adv-x="500" d="M0 -123 Q-40 -123 -40 -88 Q-40 -53 0 -53 L500 -53 Q521 -53 530 -61 Q539 -69 539 -88 Q539 -108 530.5 -115.5 Q522 -123 500 -123 L0 -123 Z " />
<glyph glyph-name="quoteleft" unicode="&#x2018;" horiz-adv-x="166" d="M78 658 Q83 666 91.5 673.5 Q100 681 113 681 Q133 681 141 669 Q149 657 149 647 Q149 642 148 639 L116 500 Q113 486 100.5 475.5 Q88 465 70 465 Q46 465 33 479.5 Q20 494 20 511 Q20 516 22 524 L78 658 Z " />
<glyph glyph-name="a" unicode="a" horiz-adv-x="503" d="M454 44 Q454 29 444 14.5 Q434 0 415 0 L163 0 Q137 0 114.5 9.5 Q92 19 75 37 Q58 55 48 80 Q38 105 38 137 L38 149 Q38 173 46.5 196.5 Q55 220 72 238.5 Q89 257 113.5 268 Q138 279 171 279 L372 279 L372 296 Q372 334 348.5 359 Q325 384 278 384 L144 384 Q133 384 122.5 392 Q112 400 112 420 Q112 441 122.5 451 Q133 461 144 461 L281 461 Q366 461 410 417 Q454 373 454 290 L454 44 Z M192 205 Q165 205 142.5 192 Q120 179 120 147 L120 140 Q120 108 141 93.5 Q162 79 191 79 L372 79 L372 205 L192 205 Z " />
<glyph glyph-name="b" unicode="b" horiz-adv-x="500" d="M376 285 Q376 336 348 359 Q320 382 277 382 L130 382 L130 80 L277 80 Q319 80 347.5 102.5 Q376 125 376 174 L376 285 Z M87 0 Q67 0 57.5 15.5 Q48 31 48 45 L48 665 Q48 676 59 686.5 Q70 697 90 697 Q111 697 120.5 687 Q130 677 130 665 L130 463 L280 463 Q319 463 351.5 452 Q384 441 407.5 419 Q431 397 444.5 364 Q458 331 458 287 L458 172 Q458 130 444 97.5 Q430 65 405 43.5 Q380 22 347 11 Q314 0 277 0 L87 0 Z " />
<glyph glyph-name="c" unicode="c" horiz-adv-x="413" d="M223 0 Q183 0 150 11 Q117 22 93 43.5 Q69 65 56 97.5 Q43 130 43 173 L43 286 Q43 329 56.5 362 Q70 395 94 417.5 Q118 440 150.5 451 Q183 462 221 462 L355 462 Q365 462 376 451.5 Q387 441 387 421 Q387 400 376.5 390.5 Q366 381 355 381 L224 381 Q181 381 153 356 Q125 331 125 283 L125 176 Q125 128 153 104 Q181 80 224 80 L360 80 Q371 80 381.5 70.5 Q392 61 392 40 Q392 20 381 10 Q370 0 359 0 L223 0 Z " />
<glyph glyph-name="d" unicode="d" horiz-adv-x="502" d="M124 174 Q124 125 152.5 102.5 Q181 80 223 80 L370 80 L370 382 L223 382 Q180 382 152 359 Q124 336 124 285 L124 174 Z M223 0 Q183 0 150 11 Q117 22 93 43.5 Q69 65 55.5 97 Q42 129 42 171 L42 287 Q42 330 55.5 363 Q69 396 93 418.5 Q117 441 149.5 452 Q182 463 220 463 L370 463 L370 665 Q370 676 379 686.5 Q388 697 410 697 Q431 697 441.5 686.5 Q452 676 452 665 L452 45 Q452 31 442.5 15.5 Q433 0 413 0 L223 0 Z " />
<glyph glyph-name="e" unicode="e" horiz-adv-x="477" d="M124 190 L124 169 Q124 126 152 101.5 Q180 77 224 77 L364 77 Q376 77 386.5 69 Q397 61 397 40 Q397 20 386 10 Q375 0 364 0 L218 0 Q180 0 148 11.5 Q116 23 92.5 44.5 Q69 66 55.5 98 Q42 130 42 172 L42 284 Q42 326 56.5 359.5 Q71 393 95.5 415.5 Q120 438 153.5 450 Q187 462 226 462 L261 462 Q297 462 329 450.5 Q361 439 385.5 416.5 Q410 394 424.5 360.5 Q439 327 439 284 L439 234 Q439 221 429.5 205.5 Q420 190 394 190 L124 190 Z M357 284 Q357 335 328 358 Q299 381 257 381 L222 381 Q183 381 153.5 357.5 Q124 334 124 284 L124 258 L357 258 L357 284 Z " />
<glyph glyph-name="f" unicode="f" horiz-adv-x="337" d="M255 610 Q216 610 189.5 593 Q163 576 163 525 L163 463 L290 463 Q302 463 312 454.5 Q322 446 322 425 Q322 405 311.5 396 Q301 387 290 387 L162 387 L162 27 Q162 15 151.5 5 Q141 -5 121 -5 Q100 -5 90 5 Q80 15 80 27 L80 387 L38 387 Q27 387 16.5 396 Q6 405 6 425 Q6 446 16.5 454.5 Q27 463 38 463 L80 463 L80 523 Q80 567 92.5 598.5 Q105 630 128 650.5 Q151 671 183 680.5 Q215 690 254 690 L314 690 Q326 690 337.5 680.5 Q349 671 349 650 Q349 630 337 620 Q325 610 314 610 L255 610 Z " />
<glyph glyph-name="g" unicode="g" horiz-adv-x="502" d="M452 -32 Q452 -74 438.5 -106 Q425 -138 401 -159.5 Q377 -181 344 -192.5 Q311 -204 272 -204 L125 -204 Q114 -204 103 -194 Q92 -184 92 -164 Q92 -143 103.5 -134.5 Q115 -126 125 -126 L271 -126 Q313 -126 341.5 -103.5 Q370 -81 370 -30 L370 0 L220 0 Q182 0 149.5 11 Q117 22 93 44 Q69 66 55.5 98.5 Q42 131 42 175 L42 290 Q42 332 56 364.5 Q70 397 94.5 418.5 Q119 440 152 451 Q185 462 223 462 L412 462 Q432 462 442.5 447 Q453 432 453 418 L452 -32 Z M124 178 Q124 127 152 104 Q180 81 223 81 L370 81 L370 384 L223 384 Q181 384 152.5 360.5 Q124 337 124 288 L124 178 Z " />
<glyph glyph-name="h" unicode="h" horiz-adv-x="504" d="M417 -5 Q397 -5 386.5 5.5 Q376 16 376 27 L376 287 Q376 313 367.5 331 Q359 349 345 360.5 Q331 372 312.5 377 Q294 382 274 382 L132 382 L132 27 Q132 16 122.5 5.5 Q113 -5 92 -5 Q71 -5 60.5 5 Q50 15 50 27 L50 665 Q50 676 60.5 686.5 Q71 697 92 697 Q113 697 122.5 686.5 Q132 676 132 665 L132 462 L279 462 Q361 462 409.5 418.5 Q458 375 458 287 L458 28 Q458 16 448.5 5.5 Q439 -5 417 -5 Z " />
<glyph glyph-name="i" unicode="i" horiz-adv-x="306" d="M172 552 Q152 552 137.5 566 Q123 580 123 600 Q123 623 138 636 Q153 649 171 649 Q191 649 206 637.5 Q221 626 221 600 Q221 580 207 566 Q193 552 172 552 Z M181 -5 Q159 -5 149.5 5 Q140 15 140 27 L140 384 L56 384 Q45 384 34 393.5 Q23 403 23 423 Q23 444 33.5 453 Q44 462 56 462 L181 462 Q202 462 212 451 Q222 440 222 428 L222 27 Q222 16 212.5 5.5 Q203 -5 181 -5 Z " />
<glyph glyph-name="j" unicode="j" horiz-adv-x="295" d="M165 552 Q145 552 130 566 Q115 580 115 600 Q115 625 130 637 Q145 649 163 649 Q183 649 198 637.5 Q213 626 213 600 Q213 580 199.5 566 Q186 552 165 552 Z M-16 -204 Q-28 -204 -38.5 -193.5 Q-49 -183 -49 -163 Q-49 -143 -38 -134.5 Q-27 -126 -16 -126 L34 -126 Q77 -126 105 -103.5 Q133 -81 133 -30 L133 385 L37 385 Q26 385 15.5 394 Q5 403 5 423 Q5 444 15.5 453 Q26 462 37 462 L175 462 Q193 462 203.5 452 Q214 442 214 423 L215 -32 Q215 -117 169 -160.5 Q123 -204 38 -204 L-16 -204 Z " />
<glyph glyph-name="k" unicode="k" horiz-adv-x="437" d="M406 5 Q392 -4 379 -4 Q358 -4 346 16 L211 264 L128 204 L128 27 Q128 14 118.5 4.5 Q109 -5 87 -5 Q67 -5 56.5 4 Q46 13 46 27 L46 665 Q46 678 56.5 687.5 Q67 697 87 697 Q109 697 118.5 687.5 Q128 678 128 665 L128 295 L341 454 Q354 463 368 463 Q383 463 396 452 Q409 441 409 424 Q409 408 394 396 L279 310 L418 53 Q423 45 423 37 Q423 27 418 18.5 Q413 10 406 5 Z " />
<glyph glyph-name="l" unicode="l" horiz-adv-x="274" d="M146 160 Q146 122 163 98.5 Q180 75 221 75 L236 75 Q251 75 260.5 65.5 Q270 56 270 36 Q270 16 260 5.5 Q250 -5 236 -5 L219 -5 Q144 -5 104.5 35 Q65 75 65 160 L65 665 Q65 678 74.5 688 Q84 698 106 698 Q126 698 136 688 Q146 678 146 665 L146 160 Z " />
<glyph glyph-name="m" unicode="m" horiz-adv-x="685" d="M597 -5 Q576 -5 566.5 4.5 Q557 14 557 27 L557 286 Q557 312 548.5 330.5 Q540 349 526 360.5 Q512 372 493.5 377 Q475 382 455 382 L382 382 L382 27 Q382 15 372 5 Q362 -5 340 -5 Q320 -5 309.5 4.5 Q299 14 299 27 L299 382 L132 382 L132 27 Q132 14 122.5 4.5 Q113 -5 91 -5 Q71 -5 60.5 5 Q50 15 50 27 L50 417 Q50 430 59.5 446 Q69 462 95 462 L459 462 Q542 462 590.5 418 Q639 374 639 286 L639 27 Q639 15 629 5 Q619 -5 597 -5 Z " />
<glyph glyph-name="n" unicode="n" horiz-adv-x="504" d="M417 -5 Q394 -5 385 4.5 Q376 14 376 27 L376 286 Q376 312 367.5 330.5 Q359 349 344.5 360.5 Q330 372 311.5 377 Q293 382 273 382 L132 382 L132 27 Q132 15 123 5 Q114 -5 91 -5 Q70 -5 60 5 Q50 15 50 27 L50 417 Q50 430 59.5 446 Q69 462 95 462 L277 462 Q361 462 409 418 Q457 374 457 286 L457 27 Q457 15 448 5 Q439 -5 417 -5 Z " />
<glyph glyph-name="o" unicode="o" horiz-adv-x="492" d="M223 386 Q180 386 152.5 361.5 Q125 337 125 286 L125 172 Q125 123 152.5 99.5 Q180 76 223 76 L268 76 Q310 76 338.5 99.5 Q367 123 367 172 L367 286 Q367 338 339 362 Q311 386 268 386 L223 386 Z M218 0 Q182 0 150.5 11 Q119 22 95 43.5 Q71 65 57 97.5 Q43 130 43 173 L43 286 Q43 329 56.5 361.5 Q70 394 94 416.5 Q118 439 151.5 450.5 Q185 462 225 462 L270 462 Q309 462 342 451 Q375 440 398.5 417.5 Q422 395 435.5 362 Q449 329 449 286 L449 173 Q449 130 435 97.5 Q421 65 396.5 43.5 Q372 22 339.5 11 Q307 0 271 0 L218 0 Z " />
<glyph glyph-name="p" unicode="p" horiz-adv-x="497" d="M373 288 Q373 337 345 360.5 Q317 384 274 384 L127 384 L127 79 L274 79 Q316 79 344.5 102.5 Q373 126 373 177 L373 288 Z M274 462 Q355 462 404.5 418.5 Q454 375 454 290 L454 176 Q454 132 440.5 99.5 Q427 67 403 44.5 Q379 22 346.5 11 Q314 0 277 0 L127 0 L127 -186 Q127 -200 117.5 -209 Q108 -218 87 -218 Q66 -218 55.5 -209.5 Q45 -201 45 -187 L45 418 Q45 432 54.5 447 Q64 462 84 462 L274 462 Z " />
<glyph glyph-name="q" unicode="q" horiz-adv-x="495" d="M120 177 Q120 126 148 102.5 Q176 79 219 79 L366 79 L366 384 L218 384 Q175 384 147.5 360.5 Q120 337 120 288 L120 177 Z M409 462 Q428 462 437.5 447 Q447 432 447 418 L447 -187 Q447 -201 436.5 -209.5 Q426 -218 406 -218 Q384 -218 375 -209 Q366 -200 366 -186 L366 0 L215 0 Q177 0 145 11 Q113 22 89 44.5 Q65 67 51.5 99.5 Q38 132 38 176 L38 290 Q38 375 88 418.5 Q138 462 219 462 L409 462 Z " />
<glyph glyph-name="r" unicode="r" horiz-adv-x="384" d="M139 381 L139 26 Q139 15 129.5 5 Q120 -5 99 -5 Q78 -5 67.5 4.5 Q57 14 57 26 L57 390 Q57 408 60 428 Q62 439 72 450.5 Q82 462 103 462 L232 462 Q263 462 290 452 Q317 442 337 426.5 Q357 411 368 392.5 Q379 374 379 357 Q379 337 359 324 Q345 316 334 316 Q321 316 311 328 Q306 334 301 340.5 Q296 347 290 354 Q279 365 261.5 373 Q244 381 221 381 L139 381 Z " />
<glyph glyph-name="s" unicode="s" horiz-adv-x="460" d="M79 0 Q69 0 58 8.5 Q47 17 47 41 Q47 63 60 72 Q73 81 79 81 L284 81 Q308 81 323.5 93.5 Q339 106 339 129 Q339 148 324.5 159.5 Q310 171 281 179 L163 214 Q137 221 115 230 Q93 239 76.5 253 Q60 267 50.5 287.5 Q41 308 41 338 Q41 391 75 426.5 Q109 462 177 462 L363 462 Q371 462 383.5 453.5 Q396 445 396 422 Q396 399 384.5 390.5 Q373 382 363 382 L177 382 Q154 382 139 372 Q124 362 124 339 Q124 322 138.5 312 Q153 302 180 294 L298 261 Q325 253 347.5 243 Q370 233 386.5 218 Q403 203 412 181.5 Q421 160 421 130 Q421 104 412.5 80.5 Q404 57 387 39 Q370 21 344 10.5 Q318 0 284 0 L79 0 Z " />
<glyph glyph-name="t" unicode="t" horiz-adv-x="361" d="M322 78 Q334 78 345 68 Q356 58 356 38 Q356 18 345 8.5 Q334 -1 322 -1 L260 -1 Q223 -1 193 8.5 Q163 18 142 38 Q121 58 109.5 89.5 Q98 121 98 165 L98 386 L47 386 Q36 386 25.5 394.5 Q15 403 15 424 Q15 444 25.5 453 Q36 462 47 462 L97 462 L97 604 Q97 616 106.5 626 Q116 636 137 636 Q158 636 168.5 626 Q179 616 179 604 L179 462 L291 462 Q302 462 312.5 453 Q323 444 323 424 Q323 403 312.5 394.5 Q302 386 291 386 L179 386 L179 170 Q179 119 203.5 98.5 Q228 78 270 78 L322 78 Z " />
<glyph glyph-name="u" unicode="u" horiz-adv-x="503" d="M87 468 Q108 468 118.5 457.5 Q129 447 129 436 L129 176 Q129 150 137.5 131.5 Q146 113 160 101.5 Q174 90 192.5 85 Q211 80 231 80 L371 80 L371 434 Q371 445 380.5 455.5 Q390 466 412 466 Q432 466 442.5 456 Q453 446 453 434 L453 45 Q453 32 443.5 16 Q434 0 408 0 L227 0 Q144 0 95 44 Q46 88 46 176 L46 436 Q46 447 55.5 457.5 Q65 468 87 468 Z " />
<glyph glyph-name="v" unicode="v" horiz-adv-x="441" d="M223 85 L346 443 Q355 469 383 469 Q400 469 413 459.5 Q426 450 426 433 Q426 426 423 419 L286 36 Q273 0 240 0 L200 0 Q167 0 154 36 L16 419 Q14 427 14 432 Q14 449 26 459 Q38 469 57 469 Q70 469 80 462 Q90 455 95 441 L220 85 L223 85 Z " />
<glyph glyph-name="w" unicode="w" horiz-adv-x="636" d="M451 88 Q474 177 496 265 Q518 353 540 442 Q543 453 554.5 460.5 Q566 468 577 468 Q594 468 606.5 457.5 Q619 447 619 431 Q619 428 619 424.5 Q619 421 617 418 Q591 321 566 226.5 Q541 132 514 36 Q505 0 468 0 L431 0 Q397 0 384 36 L321 227 L320 227 Q305 179 289.5 131.5 Q274 84 258 36 Q245 0 212 0 L176 0 Q141 0 129 36 L15 418 Q12 425 12 432 Q12 448 25 458 Q38 468 56 468 Q69 468 79 461 Q89 454 94 440 Q97 429 105.5 402 Q114 375 124 339.5 Q134 304 145.5 264.5 Q157 225 167 189.5 Q177 154 185 126.5 Q193 99 196 88 L199 88 L284 341 Q278 362 268 388.5 Q258 415 258 433 Q258 449 270 458.5 Q282 468 300 468 Q329 468 338 440 Q341 430 350 403 Q359 376 370 340.5 Q381 305 393.5 264.5 Q406 224 417 188.5 Q428 153 436.5 125.5 Q445 98 448 88 L451 88 Z " />
<glyph glyph-name="x" unicode="x" horiz-adv-x="441" d="M338 457 Q348 470 364 470 Q384 470 397.5 455.5 Q411 441 411 426 Q411 414 404 407 L273 237 L417 56 Q423 48 423 39 Q423 27 410.5 10.5 Q398 -6 377 -6 Q358 -6 348 7 L221 174 L94 7 Q83 -7 65 -7 Q54 -7 45.5 -2.5 Q37 2 31 9 Q25 16 22 23 Q19 30 19 36 Q19 47 26 56 L168 237 L38 407 Q31 416 31 427 Q31 440 44.5 455.5 Q58 471 78 471 Q93 471 104 457 L221 300 L338 457 Z " />
<glyph glyph-name="y" unicode="y" horiz-adv-x="505" d="M453 -31 Q453 -75 439 -107 Q425 -139 400.5 -161 Q376 -183 343 -193.5 Q310 -204 272 -204 L125 -204 Q114 -204 103.5 -194 Q93 -184 93 -163 Q93 -143 103.5 -134.5 Q114 -126 126 -126 L271 -126 Q313 -126 342 -102.5 Q371 -79 371 -29 L371 0 L225 0 Q186 0 153 11 Q120 22 96 44 Q72 66 58.5 99 Q45 132 45 176 L45 435 Q45 448 54.5 458 Q64 468 85 468 Q105 468 116 457.5 Q127 447 127 435 L127 176 Q127 150 135.5 131.5 Q144 113 158 101.5 Q172 90 190 85 Q208 80 228 80 L371 80 L371 435 Q371 447 381 457.5 Q391 468 412 468 Q432 468 442.5 458 Q453 448 453 435 L453 -31 L453 -31 Z " />
<glyph glyph-name="z" unicode="z" horiz-adv-x="430" d="M64 0 Q46 0 35.5 11 Q25 22 25 42 Q25 52 29 60 Q33 68 37 73 L292 383 L62 383 Q52 383 41 392 Q30 401 30 422 Q30 442 40.5 452 Q51 462 62 462 L366 462 Q386 462 398 451 Q410 440 410 420 Q410 411 406 402.5 Q402 394 398 389 L145 79 L376 79 Q395 79 402.5 66.5 Q410 54 410 40 Q410 26 402.5 13 Q395 0 376 0 L64 0 Z " />
<glyph glyph-name="braceleft" unicode="&#x7b;" horiz-adv-x="341" d="M191 437 Q191 403 174 371 Q157 339 122 319 Q141 310 154 296 Q167 282 175.5 265 Q184 248 188 229.5 Q192 211 192 194 L192 77 Q192 36 213 12 Q234 -12 276 -12 L295 -12 Q301 -12 311 -19 Q321 -26 321 -49 Q321 -72 311.5 -79 Q302 -86 295 -86 L272 -86 Q197 -86 153.5 -43 Q110 0 110 79 L110 183 Q110 218 97.5 241 Q85 264 55 276 Q41 281 34.5 287.5 Q28 294 28 317 Q28 349 52 360 Q84 374 97 396.5 Q110 419 110 454 L110 553 Q110 631 153.5 673.5 Q197 716 272 716 L295 716 Q301 716 311 709 Q321 702 321 680 Q321 657 310.5 650 Q300 643 295 643 L276 643 Q234 643 213 619 Q192 595 192 554 L191 437 Z " />
<glyph glyph-name="bar" unicode="&#x7c;" horiz-adv-x="476" d="M235 -117 Q213 -117 203.5 -108 Q194 -99 194 -78 L194 740 Q194 761 203.5 770 Q213 779 235 779 Q257 779 266.5 770.5 Q276 762 276 740 L276 -78 Q276 -100 266.5 -108.5 Q257 -117 235 -117 Z " />
<glyph glyph-name="braceright" unicode="&#x7d;" horiz-adv-x="341" d="M148 554 Q148 595 127 619 Q106 643 64 643 L45 643 Q40 643 29.5 650 Q19 657 19 680 Q19 702 29 709 Q39 716 45 716 L68 716 Q143 716 186.5 673.5 Q230 631 230 553 L230 454 Q230 419 243 396.5 Q256 374 288 360 Q312 349 312 317 Q312 294 305.5 287.5 Q299 281 285 276 Q255 264 242.5 241 Q230 218 230 183 L230 79 Q230 0 186.5 -43 Q143 -86 68 -86 L45 -86 Q38 -86 28.5 -79 Q19 -72 19 -49 Q19 -26 29 -19 Q39 -12 45 -12 L64 -12 Q106 -12 127 12 Q148 36 148 77 L148 194 Q148 211 152 229.5 Q156 248 164.5 265 Q173 282 186 296 Q199 310 218 319 Q183 339 166 371 Q149 403 149 437 L148 554 Z " />
<glyph glyph-name="asciitilde" unicode="&#x7e;" horiz-adv-x="486" d="M455 301 Q432 269 404.5 257 Q377 245 342 245 Q312 245 282 253 Q252 261 225 275 Q206 284 185 295 Q164 306 146 306 Q130 306 117 301.5 Q104 297 91 285 Q83 277 74 270.5 Q65 264 54 264 Q43 264 33.5 274.5 Q24 285 24 296 Q24 314 31 321 Q58 357 87.5 367 Q117 377 142 377 Q171 377 197 367.5 Q223 358 247.5 346.5 Q272 335 295 325.5 Q318 316 341 316 Q358 316 369 322 Q380 328 388.5 335.5 Q397 343 406 349.5 Q415 356 428 356 Q437 356 443.5 351.5 Q450 347 454.5 341 Q459 335 461 329 Q463 323 463 321 Q463 314 460 309 Q457 304 455 301 Z " />
<glyph glyph-name="sterling" unicode="&#xa3;" horiz-adv-x="486" d="M356 344 Q366 344 375.5 336 Q385 328 385 308 Q385 289 375.5 280 Q366 271 355 271 L158 271 L158 80 L437 80 Q448 80 458.5 71 Q469 62 469 41 Q469 21 458.5 10.5 Q448 0 437 0 L120 0 Q94 0 85 15.5 Q76 31 76 45 L76 271 L44 271 Q34 271 24.5 279.5 Q15 288 15 307 Q15 327 24.5 335.5 Q34 344 44 344 L76 344 L76 468 Q76 518 91 555.5 Q106 593 130.5 617.5 Q155 642 186.5 654.5 Q218 667 252 667 L417 667 Q456 667 456 627 Q456 588 417 588 L265 588 Q211 588 184.5 556 Q158 524 158 471 L158 344 L356 344 Z " />
<glyph glyph-name="yen" unicode="&#xa5;" horiz-adv-x="486" d="M72 317 Q59 317 49 324 Q39 331 39 352 Q39 370 48 377.5 Q57 385 72 385 L141 385 Q103 457 70 518.5 Q37 580 18 616 Q14 624 14 630 Q14 640 21 650 Q28 660 39 665 Q49 670 61 670 Q80 670 91 650 Q129 578 167 503.5 Q205 429 243 356 L245 356 L384 634 Q390 647 400 657.5 Q410 668 425 668 Q433 668 442 664 Q451 660 456 656 Q467 648 467 633 Q467 624 464 615 Q461 606 456 598 L347 385 L432 385 Q446 385 454.5 377.5 Q463 370 463 352 Q463 333 454 325 Q445 317 432 317 L72 317 Z M432 262 Q445 262 454 254.5 Q463 247 463 228 Q463 210 454 202 Q445 194 432 194 L285 194 L285 36 Q285 14 275.5 6 Q266 -2 244 -2 Q228 -2 216 5 Q204 12 204 39 L204 194 L72 194 Q57 194 48 201 Q39 208 39 228 Q39 247 49 254.5 Q59 262 72 262 L432 262 Z " />
<glyph glyph-name="section" unicode="&#xa7;" horiz-adv-x="473" d="M320 338 Q320 379 256 407 L180 440 Q156 450 134.5 460.5 Q113 471 96.5 485 Q80 499 70 520 Q60 541 60 572 Q60 599 69 623.5 Q78 648 95 666 Q112 684 138 694.5 Q164 705 198 705 L368 705 Q378 705 390 695 Q402 685 402 665 Q402 640 390.5 632 Q379 624 368 624 L199 624 Q176 624 160 611 Q144 598 144 573 Q144 556 159 542 Q174 528 200 517 L279 484 Q304 474 326 463 Q348 452 365 437 Q382 422 392 401.5 Q402 381 402 352 L402 226 Q402 215 392.5 204 Q383 193 361 193 Q337 193 328.5 204 Q320 215 320 226 L320 338 Z M161 250 Q161 230 177 216 Q193 202 225 190 L302 160 Q326 151 347.5 140.5 Q369 130 385.5 115.5 Q402 101 412 80 Q422 59 422 28 Q422 1 413 -23 Q404 -47 386.5 -65 Q369 -83 343 -93.5 Q317 -104 283 -104 L107 -104 Q97 -104 85 -94 Q73 -84 73 -64 Q73 -39 84.5 -31.5 Q96 -24 107 -24 L282 -24 Q305 -24 321.5 -10.5 Q338 3 338 27 Q338 47 323 59.5 Q308 72 282 83 L202 114 Q177 123 154.5 133 Q132 143 115.5 157.5 Q99 172 89 193 Q79 214 79 246 L79 372 Q79 383 88.5 394.5 Q98 406 120 406 Q144 406 152.5 394.5 Q161 383 161 372 L161 250 Z " />
<glyph glyph-name="quotesingle" unicode="&#x27;" horiz-adv-x="146" d="M73 460 Q47 460 40.5 473.5 Q34 487 34 501 L34 636 Q34 640 35 646.5 Q36 653 40.5 658.5 Q45 664 52.5 668 Q60 672 74 672 Q93 672 102.5 661 Q112 650 112 632 L112 499 Q112 481 102 470.5 Q92 460 73 460 Z " />
<glyph glyph-name="quotedblleft" unicode="&#x201c;" horiz-adv-x="306" d="M80 658 Q84 666 92.5 673.5 Q101 681 114 681 Q134 681 142 669 Q150 657 150 647 Q150 642 149 639 L117 500 Q114 486 101.5 475.5 Q89 465 71 465 Q48 465 34.5 479.5 Q21 494 21 511 Q21 516 23 524 L80 658 Z M212 658 Q216 666 224.5 673.5 Q233 681 246 681 Q266 681 274 669 Q282 657 282 647 Q282 642 281 639 L249 500 Q246 486 233.5 475.5 Q221 465 203 465 Q180 465 166.5 479.5 Q153 494 153 511 Q153 516 155 524 L212 658 Z " />
<glyph glyph-name="guillemotleft" unicode="&#xab;" horiz-adv-x="456" d="M54 207 Q45 217 45 230 Q45 238 47 246.5 Q49 255 54 261 L164 378 Q172 387 180.5 393 Q189 399 200 399 Q213 399 225 387.5 Q237 376 237 363 Q237 346 219 328 L132 234 L228 128 Q237 117 237 106 Q237 89 223.5 78 Q210 67 194 67 Q184 67 174 75 L54 207 Z M217 207 Q208 217 208 230 Q208 238 210 246.5 Q212 255 217 261 L327 378 Q335 387 343.5 393 Q352 399 363 399 Q376 399 388 387.5 Q400 376 400 363 Q400 346 382 328 L295 234 L391 128 Q400 117 400 106 Q400 89 386.5 78 Q373 67 357 67 Q347 67 337 75 L217 207 Z " />
<glyph glyph-name="endash" unicode="&#x2013;" horiz-adv-x="491" d="M64 203 Q22 203 22 239 Q22 276 64 276 L430 276 Q471 276 471 239 Q471 219 461 211 Q451 203 430 203 L64 203 Z " />
<glyph glyph-name="dagger" unicode="&#x2020;" horiz-adv-x="433" d="M255 453 L255 -19 Q255 -39 246.5 -48 Q238 -57 217 -57 Q196 -57 187 -48 Q178 -39 178 -19 L178 453 L77 453 Q40 453 40 493 Q40 531 77 531 L178 531 L178 662 Q178 681 187 690 Q196 699 217 699 Q238 699 246.5 690 Q255 681 255 662 L255 531 L356 531 Q393 531 393 493 Q393 453 356 453 L255 453 Z " />
<glyph glyph-name="periodcentered" unicode="&#xb7;" horiz-adv-x="175" d="M87 190 Q64 190 49 206 Q34 222 34 243 Q34 269 50 282 Q66 295 86 296 Q106 296 123 283 Q140 270 140 243 Q140 222 125 206 Q110 190 87 190 Z " />
<glyph glyph-name="bullet" unicode="&#x2022;" horiz-adv-x="256" d="M24 256 Q24 280 32.5 299 Q41 318 55 331.5 Q69 345 88 352 Q107 359 127 359 Q147 359 165.5 352 Q184 345 198.5 331.5 Q213 318 221.5 299 Q230 280 230 256 Q230 212 200.5 183 Q171 154 127 154 Q83 154 53.5 183 Q24 212 24 256 Z " />
<glyph glyph-name="quotedblright" unicode="&#x201d;" horiz-adv-x="306" d="M222 489 Q217 480 208.5 473 Q200 466 187 466 Q167 466 159 477.5 Q151 489 151 500 Q151 502 151.5 504 Q152 506 152 508 L185 647 Q187 661 199.5 671.5 Q212 682 230 682 Q255 682 268 667 Q281 652 281 636 Q281 629 278 623 L222 489 Z M90 489 Q86 480 77 473 Q68 466 55 466 Q35 466 27 477.5 Q19 489 19 500 Q19 502 19.5 504 Q20 506 20 508 L53 647 Q55 661 67.5 671.5 Q80 682 98 682 Q123 682 136 667 Q149 652 149 636 Q149 629 146 623 L90 489 Z " />
<glyph glyph-name="guillemotright" unicode="&#xbb;" horiz-adv-x="456" d="M272 75 Q262 67 252 67 Q236 67 222.5 78 Q209 89 209 106 Q209 117 218 128 L314 234 L227 328 Q209 346 209 363 Q209 376 221 387.5 Q233 399 246 399 Q257 399 265.5 393 Q274 387 282 378 L392 261 Q397 255 399 246.5 Q401 238 401 230 Q401 217 392 207 L272 75 Z M109 75 Q99 67 89 67 Q73 67 59.5 78 Q46 89 46 106 Q46 117 55 128 L151 234 L64 328 Q46 346 46 363 Q46 376 58 387.5 Q70 399 83 399 Q94 399 102.5 393 Q111 387 119 378 L229 261 Q234 255 236 246.5 Q238 238 238 230 Q238 217 229 207 L109 75 Z " />
<glyph glyph-name="ellipsis" unicode="&#x2026;" horiz-adv-x="598" d="M300 -1 Q279 -1 264 14 Q249 29 249 50 Q249 76 264 88 Q279 100 299 100 Q319 100 334.5 88.5 Q350 77 350 50 Q350 30 336 14.5 Q322 -1 300 -1 Z M88 -1 Q66 -1 51.5 14 Q37 29 37 50 Q37 76 51.5 88 Q66 100 86 100 Q106 100 122 88.5 Q138 77 138 50 Q138 30 124 14.5 Q110 -1 88 -1 Z M511 -1 Q489 -1 474.5 14 Q460 29 460 50 Q460 76 474.5 88 Q489 100 509 100 Q529 100 545 88.5 Q561 77 561 50 Q561 30 546.5 14.5 Q532 -1 511 -1 Z " />
<glyph glyph-name="grave" unicode="&#x60;" horiz-adv-x="504" d="M190 649 Q181 659 181 675 Q181 692 194 705.5 Q207 719 225 719 Q237 719 247 713 Q257 707 262 697 L332 573 Q339 562 339 552 Q339 544 332 534.5 Q325 525 311 525 Q293 525 281 539 L190 649 Z " />
<glyph glyph-name="dieresis" unicode="&#xa8;" horiz-adv-x="504" d="M347 542 Q327 542 314 555.5 Q301 569 301 587 Q301 610 315 621.5 Q329 633 346 633 Q364 633 378.5 622 Q393 611 393 587 Q393 568 379.5 555 Q366 542 347 542 Z M160 542 Q140 542 126.5 555.5 Q113 569 113 587 Q113 610 127 621.5 Q141 633 158 633 Q176 633 190.5 622 Q205 611 205 587 Q205 568 192 555 Q179 542 160 542 Z " />
<glyph glyph-name="emdash" unicode="&#x2014;" horiz-adv-x="991" d="M70 203 Q27 203 27 239 Q27 276 70 276 L923 276 Q965 276 965 239 Q965 219 954 211 Q943 203 923 203 L70 203 Z " />
<glyph glyph-name="oe" unicode="&#x153;" horiz-adv-x="772" d="M212 0 Q176 0 144.5 11 Q113 22 89 43.5 Q65 65 51 97.5 Q37 130 37 173 L37 285 Q37 328 50.5 361 Q64 394 88 416.5 Q112 439 145.5 450.5 Q179 462 219 462 L247 462 Q291 462 327.5 446.5 Q364 431 387 402 Q411 431 447.5 446.5 Q484 462 528 462 L560 462 Q596 462 628 450.5 Q660 439 684.5 416.5 Q709 394 723.5 360.5 Q738 327 738 284 L738 234 Q738 223 732 211.5 Q726 200 709 195 Q691 190 669 190 Q608 190 547.5 190 Q487 190 426 189 L426 166 Q428 119 457 98 Q486 77 526 77 L663 77 Q675 77 685.5 69 Q696 61 696 40 Q696 20 685 10 Q674 0 663 0 L520 0 Q477 0 442 14 Q407 28 384 57 Q361 28 325 14 Q289 0 248 0 L212 0 Z M344 282 Q344 334 316 358 Q288 382 244 382 L217 382 Q174 382 146 357.5 Q118 333 118 282 L118 175 Q118 125 146 102 Q174 79 216 79 L245 79 Q250 79 255 79 Q260 79 265 81 Q302 86 323 109.5 Q344 133 344 175 L344 282 Z M656 272 Q656 278 656 284 Q656 290 655 295 Q652 341 623.5 361 Q595 381 556 381 L524 381 Q484 381 455 357.5 Q426 334 426 284 L426 258 L656 258 L656 272 Z " />
<glyph glyph-name="germandbls" unicode="&#xdf;" horiz-adv-x="483" d="M122 -16 Q122 -29 112.5 -38.5 Q103 -48 81 -48 Q60 -48 50 -39 Q40 -30 40 -16 L40 507 Q40 549 54 582 Q68 615 92.5 638.5 Q117 662 151 674.5 Q185 687 225 688 L244 688 Q283 688 317 675.5 Q351 663 376.5 640 Q402 617 416.5 583 Q431 549 431 506 Q431 464 415 427 Q399 390 363 371 Q408 354 423.5 316 Q439 278 439 230 L439 170 Q439 127 425 94.5 Q411 62 387 40.5 Q363 19 331 8 Q299 -3 264 -3 L221 -3 Q201 -3 193 10 Q185 23 185 35 Q185 48 193 61 Q201 74 221 74 L261 74 Q280 74 297 79.5 Q314 85 327.5 96.5 Q341 108 349 126 Q357 144 357 170 L357 230 Q357 246 352 261 Q344 296 320 313.5 Q296 331 261 331 L239 331 Q227 331 217 340 Q207 349 207 369 Q207 391 217.5 398.5 Q228 406 239 406 L253 406 Q292 406 320.5 431.5 Q349 457 349 506 Q349 525 343 537 Q335 572 308 590 Q281 608 248 608 L221 608 Q181 608 151.5 582.5 Q122 557 122 504 L122 -16 Z " />
<glyph glyph-name="&amp;#xb5;" unicode="&#xb5;" horiz-adv-x="502" d="M88 466 Q110 466 120 456.5 Q130 447 130 435 L130 174 Q130 124 157.5 102 Q185 80 226 80 L372 80 L372 432 Q372 443 381.5 453.5 Q391 464 413 464 Q433 464 444 454 Q455 444 455 432 L455 45 Q455 32 445 16 Q435 0 409 0 L222 0 Q196 0 173 4 Q150 8 130 30 L130 -178 Q130 -191 120.5 -200 Q111 -209 89 -209 Q69 -209 58.5 -200 Q48 -191 48 -178 L48 435 Q48 445 57 455.5 Q66 466 88 466 Z " />
<glyph glyph-name="&amp;#x3bc;" unicode="&#x3bc;" horiz-adv-x="502" d="M88 466 Q110 466 120 456.5 Q130 447 130 435 L130 174 Q130 124 157.5 102 Q185 80 226 80 L372 80 L372 432 Q372 443 381.5 453.5 Q391 464 413 464 Q433 464 444 454 Q455 444 455 432 L455 45 Q455 32 445 16 Q435 0 409 0 L222 0 Q196 0 173 4 Q150 8 130 30 L130 -178 Q130 -191 120.5 -200 Q111 -209 89 -209 Q69 -209 58.5 -200 Q48 -191 48 -178 L48 435 Q48 445 57 455.5 Q66 466 88 466 Z " />
<glyph glyph-name="trademark" unicode="&#x2122;" horiz-adv-x="675" d="M606 329 Q593 329 586 332.5 Q579 336 577 347 Q576 353 575.5 359.5 Q575 366 575 374 L575 557 L574 557 L524 450 Q520 442 513 434.5 Q506 427 492 427 L473 427 Q458 427 452 434.5 Q446 442 442 450 L391 557 L391 374 Q391 359 388 347 Q386 336 379 332.5 Q372 329 360 329 Q353 329 350 331 Q328 334 328 356 L328 636 Q328 642 330 646 Q334 667 360 667 L381 667 Q394 667 400.5 661.5 Q407 656 412 646 Q417 636 423 623.5 Q429 611 437 594 Q445 577 456 553.5 Q467 530 482 499 L484 499 Q503 537 520 573.5 Q537 610 555 648 Q560 656 567 661.5 Q574 667 586 667 L600 667 Q608 667 616 665 Q637 661 637 636 L637 356 Q637 353 635 347 Q633 336 626 332.5 Q619 329 606 329 Z M193 605 L193 356 Q193 340 183 334.5 Q173 329 161 329 Q150 329 140 334.5 Q130 340 130 356 L130 605 L48 605 Q19 605 19 636 Q19 649 25.5 658 Q32 667 48 667 L277 667 Q292 667 298 658 Q304 649 304 636 Q304 605 275 605 L193 605 Z " />
<glyph glyph-name="otilde" unicode="&#xf5;" horiz-adv-x="492" d="M223 386 Q180 386 152.5 361.5 Q125 337 125 286 L125 172 Q125 123 152.5 99.5 Q180 76 223 76 L268 76 Q310 76 338.5 99.5 Q367 123 367 172 L367 286 Q367 338 339 362 Q311 386 268 386 L223 386 Z M218 0 Q182 0 150.5 11 Q119 22 95 43.5 Q71 65 57 97.5 Q43 130 43 173 L43 286 Q43 329 56.5 361.5 Q70 394 94 416.5 Q118 439 151.5 450.5 Q185 462 225 462 L270 462 Q309 462 342 451 Q375 440 398.5 417.5 Q422 395 435.5 362 Q449 329 449 286 L449 173 Q449 130 435 97.5 Q421 65 396.5 43.5 Q372 22 339.5 11 Q307 0 271 0 L218 0 Z M406 594 Q397 577 386 565.5 Q375 554 362.5 547 Q350 540 337.5 537 Q325 534 315 534 Q298 534 280 539.5 Q262 545 245 552 Q228 559 211 565.5 Q194 572 180 572 Q166 572 151 556 Q140 542 124.5 538 Q109 534 96 547 Q79 564 88 580 Q102 607 123.5 623 Q145 639 173 639 Q192 639 213.5 631.5 Q235 624 256 616 Q272 610 285 605 Q298 600 308 600 Q318 600 326.5 605.5 Q335 611 342 619 Q350 629 361.5 636.5 Q373 644 388 635 Q400 627 404.5 620.5 Q409 614 409 607 Q409 600 406 594 Z " />
<glyph glyph-name="degree" unicode="&#xb0;" horiz-adv-x="314" d="M85 578 Q85 548 106 527.5 Q127 507 157 507 Q186 507 207 527.5 Q228 548 228 578 Q228 608 207 629 Q186 650 157 650 Q127 650 106 629 Q85 608 85 578 Z M29 578 Q29 605 39 628 Q49 651 66 668.5 Q83 686 106.5 696 Q130 706 157 706 Q184 706 207 696 Q230 686 247.5 668.5 Q265 651 275 628 Q285 605 285 578 Q285 551 275 528 Q265 505 247.5 487.5 Q230 470 207 460 Q184 450 157 450 Q130 450 106.5 460 Q83 470 66 487.5 Q49 505 39 528 Q29 551 29 578 Z " />
<glyph glyph-name="registered" unicode="&#xae;" horiz-adv-x="603" d="M249 540 L249 433 L336 433 Q354 433 366.5 447.5 Q379 462 379 488 Q379 516 364 528 Q349 540 334 540 L249 540 Z M429 488 Q429 450 411.5 424.5 Q394 399 364 389 L411 293 Q414 287 414 281 Q414 271 406.5 264.5 Q399 258 388 258 Q375 258 367 270 L310 385 L249 385 L249 281 Q249 258 224 258 Q199 258 199 281 L199 563 Q199 589 224 589 L325 589 Q374 589 401.5 562 Q429 535 429 488 Z M302 639 Q262 639 224.5 623.5 Q187 608 158 579.5 Q129 551 111.5 511 Q94 471 94 422 Q94 382 109 344 Q124 306 152 276 Q180 246 221 227.5 Q262 209 315 209 Q352 209 388 224.5 Q424 240 452.5 269.5 Q481 299 498.5 340 Q516 381 516 432 Q516 468 501 505 Q486 542 458 572 Q430 602 390.5 620.5 Q351 639 302 639 Z M301 686 Q361 686 409 663 Q457 640 491 603.5 Q525 567 543.5 522 Q562 477 562 434 Q562 372 540.5 321.5 Q519 271 484.5 235.5 Q450 200 406 181 Q362 162 317 162 Q253 162 203 184.5 Q153 207 118.5 243.5 Q84 280 66 326.5 Q48 373 48 421 Q48 481 69 530 Q90 579 125.5 613.5 Q161 648 206.5 667 Q252 686 301 686 Z " />
<glyph glyph-name="copyright" unicode="&#xa9;" horiz-adv-x="768" d="M362 114 Q307 114 274.5 148 Q242 182 242 242 L242 414 Q242 442 251 466 Q260 490 276 507 Q292 524 314 533.5 Q336 543 362 543 L480 543 Q511 543 511 510 Q511 493 502.5 485 Q494 477 480 477 L368 477 Q337 477 323 457.5 Q309 438 309 415 L309 241 Q309 213 324.5 196.5 Q340 180 368 180 L483 180 Q514 180 514 148 Q514 131 505.5 122.5 Q497 114 483 114 L362 114 Z M392 -7 Q315 -7 252 20 Q189 47 144.5 92.5 Q100 138 75.5 199 Q51 260 51 329 Q51 397 76.5 459 Q102 521 148.5 567.5 Q195 614 259 641.5 Q323 669 400 669 Q464 669 523 643.5 Q582 618 627.5 573.5 Q673 529 700 468.5 Q727 408 727 337 Q727 263 698.5 200 Q670 137 622.5 91 Q575 45 515 19 Q455 -7 392 -7 Z M392 57 Q444 57 492.5 78 Q541 99 579 136.5 Q617 174 640 225.5 Q663 277 663 337 Q663 394 641.5 443 Q620 492 583.5 528 Q547 564 499 584.5 Q451 605 399 605 Q336 605 283.5 582.5 Q231 560 194 522.5 Q157 485 136.5 434.5 Q116 384 116 329 Q116 273 135.5 224 Q155 175 191 137.5 Q227 100 278 78.5 Q329 57 392 57 Z " />
<glyph glyph-name="Adieresis" unicode="&#xc4;" horiz-adv-x="547" d="M402 152 L143 152 L99 22 Q90 -4 64 -4 Q55 -4 46 -1 Q31 3 24 12 Q17 21 17 33 Q17 43 19 48 L215 629 Q222 649 230.5 658 Q239 667 259 667 L288 667 Q308 667 316.5 658 Q325 649 332 629 L528 48 Q531 40 531 33 Q531 10 505 0 Q494 -3 485 -3 Q457 -3 447 22 L402 152 Z M171 231 L376 231 L274 549 L272 549 L171 231 Z M368 704 Q348 704 335 717.5 Q322 731 322 750 Q322 773 336 784 Q350 795 367 795 Q385 795 399.5 784 Q414 773 414 750 Q414 730 400.5 717 Q387 704 368 704 Z M181 704 Q161 704 147.5 717.5 Q134 731 134 750 Q134 773 148 784 Q162 795 179 795 Q197 795 211.5 784 Q226 773 226 750 Q226 730 213 717 Q200 704 181 704 Z " />
<glyph glyph-name="Eacute" unicode="&#xc9;" horiz-adv-x="494" d="M102 0 Q60 0 60 41 L60 627 Q60 667 102 667 L435 667 Q473 667 473 627 Q473 587 435 587 L142 587 L142 393 L392 393 Q428 393 428 353 Q428 314 392 314 L142 314 L142 80 L435 80 Q473 80 473 41 Q473 0 435 0 L102 0 Z M246 701 Q238 699 232 699 Q221 699 210 706 Q199 713 199 727 Q199 737 204.5 744 Q210 751 218 756 L332 825 Q342 831 355 831 Q369 831 383 820 Q397 809 397 788 Q397 774 390 763.5 Q383 753 371 748 L246 701 Z " />
<glyph glyph-name="Odieresis" unicode="&#xd6;" horiz-adv-x="558" d="M323 667 Q363 667 397 654.5 Q431 642 456 616.5 Q481 591 494.5 553 Q508 515 508 465 L508 202 Q508 152 493.5 114 Q479 76 453.5 50.5 Q428 25 394.5 12.5 Q361 0 324 0 L234 0 Q197 0 163.5 12 Q130 24 105 48.5 Q80 73 65 110.5 Q50 148 50 198 L50 465 Q50 515 65 553 Q80 591 105.5 616.5 Q131 642 164.5 654.5 Q198 667 235 667 L323 667 Z M427 473 Q427 525 399.5 557.5 Q372 590 318 590 L239 590 Q188 590 159.5 557.5 Q131 525 131 473 L131 193 Q131 141 159.5 109 Q188 77 239 77 L318 77 Q370 77 398.5 110 Q427 143 427 194 L427 473 Z M377 704 Q357 704 344 717.5 Q331 731 331 750 Q331 773 345 784 Q359 795 376 795 Q394 795 408.5 784 Q423 773 423 750 Q423 730 409.5 717 Q396 704 377 704 Z M190 704 Q170 704 156.5 717.5 Q143 731 143 750 Q143 773 157 784 Q171 795 188 795 Q206 795 220.5 784 Q235 773 235 750 Q235 730 222 717 Q209 704 190 704 Z " />
<glyph glyph-name="Udieresis" unicode="&#xdc;" horiz-adv-x="568" d="M54 630 Q54 643 58.5 650.5 Q63 658 69 662.5 Q75 667 82 668.5 Q89 670 95 670 Q100 670 107 668.5 Q114 667 120 662.5 Q126 658 130.5 650 Q135 642 135 630 L135 195 Q135 172 142.5 151 Q150 130 163.5 114 Q177 98 197 89 Q217 80 241 80 L326 80 Q376 80 404.5 112 Q433 144 433 195 L433 630 Q433 643 437 651 Q441 659 447 663 Q453 667 460 668.5 Q467 670 473 670 Q478 670 485 668.5 Q492 667 498 662.5 Q504 658 508.5 650.5 Q513 643 513 630 L513 199 Q513 149 498.5 111.5 Q484 74 459.5 49.5 Q435 25 401.5 12.5 Q368 0 331 0 L236 0 Q198 0 165 12 Q132 24 107.5 48 Q83 72 68.5 108.5 Q54 145 54 195 L54 630 Z M388 704 Q368 704 355 717.5 Q342 731 342 750 Q342 773 356 784 Q370 795 387 795 Q405 795 419.5 784 Q434 773 434 750 Q434 730 420.5 717 Q407 704 388 704 Z M201 704 Q181 704 167.5 717.5 Q154 731 154 750 Q154 773 168 784 Q182 795 199 795 Q217 795 231.5 784 Q246 773 246 750 Q246 730 233 717 Q220 704 201 704 Z " />
<glyph glyph-name="acircumflex" unicode="&#xe2;" horiz-adv-x="503" d="M454 44 Q454 29 444 14.5 Q434 0 415 0 L163 0 Q137 0 114.5 9.5 Q92 19 75 37 Q58 55 48 80 Q38 105 38 137 L38 149 Q38 173 46.5 196.5 Q55 220 72 238.5 Q89 257 113.5 268 Q138 279 171 279 L372 279 L372 296 Q372 334 348.5 359 Q325 384 278 384 L144 384 Q133 384 122.5 392 Q112 400 112 420 Q112 441 122.5 451 Q133 461 144 461 L281 461 Q366 461 410 417 Q454 373 454 290 L454 44 Z M192 205 Q165 205 142.5 192 Q120 179 120 147 L120 140 Q120 108 141 93.5 Q162 79 191 79 L372 79 L372 205 L192 205 Z M237 678 Q246 686 254.5 687 Q263 688 272 688 Q285 688 294 679 L410 576 Q417 571 423 564 Q429 557 429 549 Q429 538 422.5 531.5 Q416 525 408 519 Q400 514 390 514 Q379 514 372 520 L265 608 Q239 588 215 568.5 Q191 549 166 529 Q158 522 148 519 Q138 516 130 516 Q114 516 106.5 528 Q99 540 99 550 Q99 561 107 567 L237 678 Z " />
<glyph glyph-name="adieresis" unicode="&#xe4;" horiz-adv-x="503" d="M454 44 Q454 29 444 14.5 Q434 0 415 0 L163 0 Q137 0 114.5 9.5 Q92 19 75 37 Q58 55 48 80 Q38 105 38 137 L38 149 Q38 173 46.5 196.5 Q55 220 72 238.5 Q89 257 113.5 268 Q138 279 171 279 L372 279 L372 296 Q372 334 348.5 359 Q325 384 278 384 L144 384 Q133 384 122.5 392 Q112 400 112 420 Q112 441 122.5 451 Q133 461 144 461 L281 461 Q366 461 410 417 Q454 373 454 290 L454 44 Z M192 205 Q165 205 142.5 192 Q120 179 120 147 L120 140 Q120 108 141 93.5 Q162 79 191 79 L372 79 L372 205 L192 205 Z M362 542 Q342 542 329 555.5 Q316 569 316 587 Q316 610 330 621.5 Q344 633 361 633 Q379 633 393.5 622 Q408 611 408 587 Q408 568 394.5 555 Q381 542 362 542 Z M175 542 Q155 542 141.5 555.5 Q128 569 128 587 Q128 610 142 621.5 Q156 633 173 633 Q191 633 205.5 622 Q220 611 220 587 Q220 568 207 555 Q194 542 175 542 Z " />
<glyph glyph-name="agrave" unicode="&#xe0;" horiz-adv-x="503" d="M454 44 Q454 29 444 14.5 Q434 0 415 0 L163 0 Q137 0 114.5 9.5 Q92 19 75 37 Q58 55 48 80 Q38 105 38 137 L38 149 Q38 173 46.5 196.5 Q55 220 72 238.5 Q89 257 113.5 268 Q138 279 171 279 L372 279 L372 296 Q372 334 348.5 359 Q325 384 278 384 L144 384 Q133 384 122.5 392 Q112 400 112 420 Q112 441 122.5 451 Q133 461 144 461 L281 461 Q366 461 410 417 Q454 373 454 290 L454 44 Z M192 205 Q165 205 142.5 192 Q120 179 120 147 L120 140 Q120 108 141 93.5 Q162 79 191 79 L372 79 L372 205 L192 205 Z M172 649 Q163 659 163 675 Q163 692 176 705.5 Q189 719 207 719 Q219 719 229 713 Q239 707 244 697 L314 573 Q321 562 321 552 Q321 544 314 534.5 Q307 525 293 525 Q275 525 263 539 L172 649 Z " />
<glyph glyph-name="ccedilla" unicode="&#xe7;" horiz-adv-x="413" d="M347 -128 Q347 -142 341 -156.5 Q335 -171 323 -183 Q311 -195 292.5 -202.5 Q274 -210 249 -210 Q239 -210 224.5 -208 Q210 -206 196.5 -202 Q183 -198 173.5 -191 Q164 -184 164 -173 Q164 -161 172 -153.5 Q180 -146 188 -146 Q194 -146 199 -149 Q214 -158 226 -160.5 Q238 -163 249 -163 Q271 -163 281 -153 Q291 -143 291 -130 Q291 -122 284.5 -110 Q278 -98 256 -98 L218 -98 Q204 -98 197 -91.5 Q190 -85 190 -74 Q190 -67 193 -59 L216 0 Q138 2 90.5 45 Q43 88 43 173 L43 286 Q43 329 56.5 362 Q70 395 94 417.5 Q118 440 150.5 451 Q183 462 221 462 L355 462 Q365 462 376 451.5 Q387 441 387 421 Q387 400 376.5 390.5 Q366 381 355 381 L224 381 Q181 381 153 356 Q125 331 125 283 L125 176 Q125 128 153 104 Q181 80 224 80 L360 80 Q371 80 381.5 70.5 Q392 61 392 40 Q392 20 381 10 Q370 0 359 0 L260 0 L240 -52 L267 -52 Q303 -52 325 -72.5 Q347 -93 347 -128 Z " />
<glyph glyph-name="eacute" unicode="&#xe9;" horiz-adv-x="477" d="M124 190 L124 169 Q124 126 152 101.5 Q180 77 224 77 L364 77 Q376 77 386.5 69 Q397 61 397 40 Q397 20 386 10 Q375 0 364 0 L218 0 Q180 0 148 11.5 Q116 23 92.5 44.5 Q69 66 55.5 98 Q42 130 42 172 L42 284 Q42 326 56.5 359.5 Q71 393 95.5 415.5 Q120 438 153.5 450 Q187 462 226 462 L261 462 Q297 462 329 450.5 Q361 439 385.5 416.5 Q410 394 424.5 360.5 Q439 327 439 284 L439 234 Q439 221 429.5 205.5 Q420 190 394 190 L124 190 Z M357 284 Q357 335 328 358 Q299 381 257 381 L222 381 Q183 381 153.5 357.5 Q124 334 124 284 L124 258 L357 258 L357 284 Z M259 539 Q247 525 229 525 Q215 525 208 534.5 Q201 544 201 552 Q201 562 208 573 L278 697 Q283 707 293 713 Q303 719 315 719 Q334 719 346.5 705.5 Q359 692 359 675 Q359 659 350 649 L259 539 Z " />
<glyph glyph-name="ecircumflex" unicode="&#xea;" horiz-adv-x="477" d="M124 190 L124 169 Q124 126 152 101.5 Q180 77 224 77 L364 77 Q376 77 386.5 69 Q397 61 397 40 Q397 20 386 10 Q375 0 364 0 L218 0 Q180 0 148 11.5 Q116 23 92.5 44.5 Q69 66 55.5 98 Q42 130 42 172 L42 284 Q42 326 56.5 359.5 Q71 393 95.5 415.5 Q120 438 153.5 450 Q187 462 226 462 L261 462 Q297 462 329 450.5 Q361 439 385.5 416.5 Q410 394 424.5 360.5 Q439 327 439 284 L439 234 Q439 221 429.5 205.5 Q420 190 394 190 L124 190 Z M221 678 Q230 686 238.5 687 Q247 688 256 688 Q269 688 278 679 L394 576 Q401 571 407 564 Q413 557 413 549 Q413 538 406.5 531.5 Q400 525 392 519 Q384 514 374 514 Q363 514 356 520 L249 608 Q223 588 199 568.5 Q175 549 150 529 Q142 522 132 519 Q122 516 114 516 Q98 516 90.5 528 Q83 540 83 550 Q83 561 91 567 L221 678 Z M357 284 Q357 335 328 358 Q299 381 257 381 L222 381 Q183 381 153.5 357.5 Q124 334 124 284 L124 258 L357 258 L357 284 Z " />
<glyph glyph-name="edieresis" unicode="&#xeb;" horiz-adv-x="477" d="M124 190 L124 169 Q124 126 152 101.5 Q180 77 224 77 L364 77 Q376 77 386.5 69 Q397 61 397 40 Q397 20 386 10 Q375 0 364 0 L218 0 Q180 0 148 11.5 Q116 23 92.5 44.5 Q69 66 55.5 98 Q42 130 42 172 L42 284 Q42 326 56.5 359.5 Q71 393 95.5 415.5 Q120 438 153.5 450 Q187 462 226 462 L261 462 Q297 462 329 450.5 Q361 439 385.5 416.5 Q410 394 424.5 360.5 Q439 327 439 284 L439 234 Q439 221 429.5 205.5 Q420 190 394 190 L124 190 Z M357 284 Q357 335 328 358 Q299 381 257 381 L222 381 Q183 381 153.5 357.5 Q124 334 124 284 L124 258 L357 258 L357 284 Z M344 542 Q324 542 311 555.5 Q298 569 298 587 Q298 610 312 621.5 Q326 633 343 633 Q361 633 375.5 622 Q390 611 390 587 Q390 568 376.5 555 Q363 542 344 542 Z M157 542 Q137 542 123.5 555.5 Q110 569 110 587 Q110 610 124 621.5 Q138 633 155 633 Q173 633 187.5 622 Q202 611 202 587 Q202 568 189 555 Q176 542 157 542 Z " />
<glyph glyph-name="egrave" unicode="&#xe8;" horiz-adv-x="477" d="M124 190 L124 169 Q124 126 152 101.5 Q180 77 224 77 L364 77 Q376 77 386.5 69 Q397 61 397 40 Q397 20 386 10 Q375 0 364 0 L218 0 Q180 0 148 11.5 Q116 23 92.5 44.5 Q69 66 55.5 98 Q42 130 42 172 L42 284 Q42 326 56.5 359.5 Q71 393 95.5 415.5 Q120 438 153.5 450 Q187 462 226 462 L261 462 Q297 462 329 450.5 Q361 439 385.5 416.5 Q410 394 424.5 360.5 Q439 327 439 284 L439 234 Q439 221 429.5 205.5 Q420 190 394 190 L124 190 Z M357 284 Q357 335 328 358 Q299 381 257 381 L222 381 Q183 381 153.5 357.5 Q124 334 124 284 L124 258 L357 258 L357 284 Z M140 649 Q131 659 131 675 Q131 692 144 705.5 Q157 719 175 719 Q187 719 197 713 Q207 707 212 697 L282 573 Q289 562 289 552 Q289 544 282 534.5 Q275 525 261 525 Q243 525 231 539 L140 649 Z " />
<glyph glyph-name="icircumflex" unicode="&#xee;" horiz-adv-x="320" d="M184 -5 Q162 -5 152.5 5 Q143 15 143 27 L143 384 L59 384 Q48 384 37 393.5 Q26 403 26 423 Q26 444 36.5 453 Q47 462 59 462 L184 462 Q205 462 215 451 Q225 440 225 428 L225 27 Q225 16 215.5 5.5 Q206 -5 184 -5 Z M133 678 Q142 686 150.5 687 Q159 688 168 688 Q181 688 190 679 L306 576 Q313 571 319 564 Q325 557 325 549 Q325 538 318.5 531.5 Q312 525 304 519 Q296 514 286 514 Q275 514 268 520 L161 608 Q135 588 111 568.5 Q87 549 62 529 Q54 522 44 519 Q34 516 26 516 Q10 516 2.5 528 Q-5 540 -5 550 Q-5 561 3 567 L133 678 Z " />
<glyph glyph-name="idieresis" unicode="&#xef;" horiz-adv-x="306" d="M262 542 Q242 542 229 555.5 Q216 569 216 587 Q216 610 230 621.5 Q244 633 261 633 Q279 633 293.5 622 Q308 611 308 587 Q308 568 294.5 555 Q281 542 262 542 Z M75 542 Q55 542 41.5 555.5 Q28 569 28 587 Q28 610 42 621.5 Q56 633 73 633 Q91 633 105.5 622 Q120 611 120 587 Q120 568 107 555 Q94 542 75 542 Z M181 -5 Q159 -5 149.5 5 Q140 15 140 27 L140 384 L56 384 Q45 384 34 393.5 Q23 403 23 423 Q23 444 33.5 453 Q44 462 56 462 L181 462 Q202 462 212 451 Q222 440 222 428 L222 27 Q222 16 212.5 5.5 Q203 -5 181 -5 Z " />
<glyph glyph-name="ocircumflex" unicode="&#xf4;" horiz-adv-x="492" d="M218 0 Q182 0 150.5 11 Q119 22 95 43.5 Q71 65 57 97.5 Q43 130 43 173 L43 286 Q43 329 56.5 361.5 Q70 394 94 416.5 Q118 439 151.5 450.5 Q185 462 225 462 L270 462 Q309 462 342 451 Q375 440 398.5 417.5 Q422 395 435.5 362 Q449 329 449 286 L449 173 Q449 130 435 97.5 Q421 65 396.5 43.5 Q372 22 339.5 11 Q307 0 271 0 L218 0 Z M223 386 Q180 386 152.5 361.5 Q125 337 125 286 L125 172 Q125 123 152.5 99.5 Q180 76 223 76 L268 76 Q310 76 338.5 99.5 Q367 123 367 172 L367 286 Q367 338 339 362 Q311 386 268 386 L223 386 Z M217 678 Q226 686 234.5 687 Q243 688 252 688 Q265 688 274 679 L390 576 Q397 571 403 564 Q409 557 409 549 Q409 538 402.5 531.5 Q396 525 388 519 Q380 514 370 514 Q359 514 352 520 L245 608 Q219 588 195 568.5 Q171 549 146 529 Q138 522 128 519 Q118 516 110 516 Q94 516 86.5 528 Q79 540 79 550 Q79 561 87 567 L217 678 Z " />
<glyph glyph-name="odieresis" unicode="&#xf6;" horiz-adv-x="492" d="M223 386 Q180 386 152.5 361.5 Q125 337 125 286 L125 172 Q125 123 152.5 99.5 Q180 76 223 76 L268 76 Q310 76 338.5 99.5 Q367 123 367 172 L367 286 Q367 338 339 362 Q311 386 268 386 L223 386 Z M218 0 Q182 0 150.5 11 Q119 22 95 43.5 Q71 65 57 97.5 Q43 130 43 173 L43 286 Q43 329 56.5 361.5 Q70 394 94 416.5 Q118 439 151.5 450.5 Q185 462 225 462 L270 462 Q309 462 342 451 Q375 440 398.5 417.5 Q422 395 435.5 362 Q449 329 449 286 L449 173 Q449 130 435 97.5 Q421 65 396.5 43.5 Q372 22 339.5 11 Q307 0 271 0 L218 0 Z M344 542 Q324 542 311 555.5 Q298 569 298 587 Q298 610 312 621.5 Q326 633 343 633 Q361 633 375.5 622 Q390 611 390 587 Q390 568 376.5 555 Q363 542 344 542 Z M157 542 Q137 542 123.5 555.5 Q110 569 110 587 Q110 610 124 621.5 Q138 633 155 633 Q173 633 187.5 622 Q202 611 202 587 Q202 568 189 555 Q176 542 157 542 Z " />
<glyph glyph-name="ucircumflex" unicode="&#xfb;" horiz-adv-x="503" d="M87 468 Q108 468 118.5 457.5 Q129 447 129 436 L129 176 Q129 150 137.5 131.5 Q146 113 160 101.5 Q174 90 192.5 85 Q211 80 231 80 L371 80 L371 434 Q371 445 380.5 455.5 Q390 466 412 466 Q432 466 442.5 456 Q453 446 453 434 L453 45 Q453 32 443.5 16 Q434 0 408 0 L227 0 Q144 0 95 44 Q46 88 46 176 L46 436 Q46 447 55.5 457.5 Q65 468 87 468 Z M223 678 Q232 686 240.5 687 Q249 688 258 688 Q271 688 280 679 L396 576 Q403 571 409 564 Q415 557 415 549 Q415 538 408.5 531.5 Q402 525 394 519 Q386 514 376 514 Q365 514 358 520 L251 608 Q225 588 201 568.5 Q177 549 152 529 Q144 522 134 519 Q124 516 116 516 Q100 516 92.5 528 Q85 540 85 550 Q85 561 93 567 L223 678 Z " />
<glyph glyph-name="udieresis" unicode="&#xfc;" horiz-adv-x="503" d="M87 468 Q108 468 118.5 457.5 Q129 447 129 436 L129 176 Q129 150 137.5 131.5 Q146 113 160 101.5 Q174 90 192.5 85 Q211 80 231 80 L371 80 L371 434 Q371 445 380.5 455.5 Q390 466 412 466 Q432 466 442.5 456 Q453 446 453 434 L453 45 Q453 32 443.5 16 Q434 0 408 0 L227 0 Q144 0 95 44 Q46 88 46 176 L46 436 Q46 447 55.5 457.5 Q65 468 87 468 Z M347 542 Q327 542 314 555.5 Q301 569 301 587 Q301 610 315 621.5 Q329 633 346 633 Q364 633 378.5 622 Q393 611 393 587 Q393 568 379.5 555 Q366 542 347 542 Z M160 542 Q140 542 126.5 555.5 Q113 569 113 587 Q113 610 127 621.5 Q141 633 158 633 Q176 633 190.5 622 Q205 611 205 587 Q205 568 192 555 Q179 542 160 542 Z " />
<glyph glyph-name="ugrave" unicode="&#xf9;" horiz-adv-x="503" d="M87 468 Q108 468 118.5 457.5 Q129 447 129 436 L129 176 Q129 150 137.5 131.5 Q146 113 160 101.5 Q174 90 192.5 85 Q211 80 231 80 L371 80 L371 434 Q371 445 380.5 455.5 Q390 466 412 466 Q432 466 442.5 456 Q453 446 453 434 L453 45 Q453 32 443.5 16 Q434 0 408 0 L227 0 Q144 0 95 44 Q46 88 46 176 L46 436 Q46 447 55.5 457.5 Q65 468 87 468 Z M142 649 Q133 659 133 675 Q133 692 146 705.5 Q159 719 177 719 Q189 719 199 713 Q209 707 214 697 L284 573 Q291 562 291 552 Q291 544 284 534.5 Q277 525 263 525 Q245 525 233 539 L142 649 Z " />
<glyph glyph-name="pi" unicode="&#x3c0;" horiz-adv-x="506" d="M415 -2 Q394 -2 384.5 8 Q375 18 375 29 L375 382 L131 382 L131 29 Q131 19 121.5 8.5 Q112 -2 90 -2 Q70 -2 59.5 8.5 Q49 19 49 30 L49 417 Q49 430 58.5 446 Q68 462 94 462 L411 462 Q437 462 446.5 446 Q456 430 456 417 L456 29 Q456 19 446.5 8.5 Q437 -2 415 -2 Z " />
<glyph glyph-name="dieresistonos" unicode="&#x385;" horiz-adv-x="489" d="M370 542 Q350 542 337 555.5 Q324 569 324 587 Q324 610 337.5 621.5 Q351 633 368 633 Q386 633 400.5 622 Q415 611 415 587 Q415 568 402 555 Q389 542 370 542 Z M127 542 Q108 542 94.5 555.5 Q81 569 81 587 Q81 610 95 621.5 Q109 633 126 633 Q144 633 158 622 Q172 611 172 587 Q172 568 159.5 555 Q147 542 127 542 Z M240 539 Q228 525 210 525 Q196 525 189 534.5 Q182 544 182 552 Q182 562 189 573 L259 697 Q264 707 274 713 Q284 719 296 719 Q315 719 327.5 705.5 Q340 692 340 675 Q340 659 331 649 L240 539 Z " />
<glyph glyph-name="tonos" unicode="&#x384;" horiz-adv-x="504" d="M243 539 Q231 525 213 525 Q199 525 192 534.5 Q185 544 185 552 Q185 562 192 573 L262 697 Q267 707 277 713 Q287 719 299 719 Q318 719 330.5 705.5 Q343 692 343 675 Q343 659 334 649 L243 539 Z " />
<glyph glyph-name="sfthyphen" unicode="&#xad;" horiz-adv-x="342" d="M271 280 Q293 280 305.5 271 Q318 262 318 239 Q318 216 305.5 206.5 Q293 197 271 197 L71 197 Q49 197 36.5 206.5 Q24 216 24 239 Q24 262 36.5 271 Q49 280 71 280 L271 280 Z " />
<glyph glyph-name="Gamma" unicode="&#x393;" horiz-adv-x="493" d="M146 37 Q146 14 136.5 6 Q127 -2 106 -2 Q84 -2 74 6.5 Q64 15 64 37 L64 627 Q64 667 106 667 L439 667 Q477 667 477 627 Q477 586 439 586 L146 586 L146 37 Z " />
<glyph glyph-name="&amp;#x394;" unicode="&#x394;" horiz-adv-x="547" d="M49 0 Q32 0 25.5 9.5 Q19 19 19 34 Q19 43 20.5 53 Q22 63 26 73 L216 629 Q223 649 231.5 658 Q240 667 260 667 L290 667 Q309 667 317.5 658 Q326 649 333 629 L525 66 Q530 51 530 36 Q530 22 523.5 11.5 Q517 1 498 0 L49 0 Z M120 79 L427 79 L275 544 L274 544 L120 79 Z " />
<glyph glyph-name="&amp;#x2206;" unicode="&#x2206;" horiz-adv-x="547" d="M49 0 Q32 0 25.5 9.5 Q19 19 19 34 Q19 43 20.5 53 Q22 63 26 73 L216 629 Q223 649 231.5 658 Q240 667 260 667 L290 667 Q309 667 317.5 658 Q326 649 333 629 L525 66 Q530 51 530 36 Q530 22 523.5 11.5 Q517 1 498 0 L49 0 Z M120 79 L427 79 L275 544 L274 544 L120 79 Z " />
<glyph glyph-name="Theta" unicode="&#x398;" horiz-adv-x="554" d="M324 667 Q405 667 456 617 Q507 567 507 467 L507 199 Q507 149 492.5 111.5 Q478 74 453.5 49.5 Q429 25 395.5 12.5 Q362 0 325 0 L230 0 Q192 0 159 12 Q126 24 101.5 48 Q77 72 62.5 108.5 Q48 145 48 195 L48 467 Q48 517 62.5 554.5 Q77 592 102 617 Q127 642 160 654.5 Q193 667 231 667 L324 667 Z M426 471 Q426 523 398.5 555 Q371 587 320 587 L235 587 Q184 587 156.5 555 Q129 523 129 471 L129 213 Q129 200 130.5 187.5 Q132 175 134 163 Q142 124 167.5 102 Q193 80 235 80 L320 80 Q370 80 398 112 Q426 144 426 195 L426 471 Z M391 345 Q391 323 382 313.5 Q373 304 351 304 L207 304 Q185 304 176 313.5 Q167 323 167 345 Q167 366 175.5 375.5 Q184 385 207 385 L351 385 Q374 385 382.5 375.5 Q391 366 391 345 Z " />
<glyph glyph-name="Lambda" unicode="&#x39b;" horiz-adv-x="547" d="M274 549 L272 549 L99 22 Q90 -4 64 -4 Q55 -4 46 -1 Q31 3 24 12 Q17 21 17 33 Q17 43 19 48 L215 629 Q222 649 230.5 658 Q239 667 259 667 L288 667 Q308 667 316.5 658 Q325 649 332 629 Q384 484 431 339 Q478 194 528 48 Q531 40 531 33 Q531 20 519.5 8.5 Q508 -3 485 -3 Q457 -3 447 22 L274 549 Z " />
<glyph glyph-name="Xi" unicode="&#x39e;" horiz-adv-x="507" d="M77 586 Q40 586 40 627 Q40 667 77 667 L433 667 Q470 667 470 627 Q470 586 433 586 L77 586 Z M121 319 Q85 319 85 359 Q85 400 121 400 L389 400 Q425 400 425 359 Q425 319 389 319 L121 319 Z M77 0 Q40 0 40 41 Q40 81 77 81 L433 81 Q470 81 470 41 Q470 0 433 0 L77 0 Z " />
<glyph glyph-name="Pi" unicode="&#x3a0;" horiz-adv-x="570" d="M471 -2 Q449 -2 440 6.5 Q431 15 431 37 L431 587 L143 587 L143 37 Q143 15 134 6.5 Q125 -2 103 -2 Q81 -2 71.5 7 Q62 16 62 37 L62 628 Q62 649 71.5 658 Q81 667 103 667 L471 667 Q493 667 502.5 658 Q512 649 512 628 L512 37 Q512 16 502.5 7 Q493 -2 471 -2 Z " />
<glyph glyph-name="Sigma" unicode="&#x3a3;" horiz-adv-x="504" d="M143 586 L289 395 Q303 376 303 358 Q303 339 289 316 L142 81 L446 81 Q466 81 473.5 69.5 Q481 58 481 40 Q481 22 473.5 11 Q466 0 446 0 L77 0 Q60 0 47 11 Q34 22 34 36 Q34 48 38.5 59 Q43 70 48 78 L216 356 L44 587 Q39 595 34 604 Q29 613 29 624 Q29 641 40.5 654 Q52 667 69 667 L445 667 Q482 667 482 626 Q482 586 445 586 L143 586 Z " />
<glyph glyph-name="Iotadieresis" unicode="&#x3aa;" horiz-adv-x="248" d="M125 -5 Q103 -5 93.5 4 Q84 13 84 35 L84 632 Q84 654 93.5 663 Q103 672 125 672 Q146 672 155.5 663.5 Q165 655 165 632 L165 35 Q165 12 155.5 3.5 Q146 -5 125 -5 Z M221 697 Q201 697 188 710.5 Q175 724 175 742 Q175 765 189 776.5 Q203 788 220 788 Q238 788 252.5 777 Q267 766 267 742 Q267 723 253.5 710 Q240 697 221 697 Z M34 697 Q14 697 0.5 710.5 Q-13 724 -13 742 Q-13 765 1 776.5 Q15 788 32 788 Q50 788 64.5 777 Q79 766 79 742 Q79 723 66 710 Q53 697 34 697 Z " />
<glyph glyph-name="Alpha" unicode="&#x391;" horiz-adv-x="547" d="M402 152 L143 152 L99 22 Q90 -4 64 -4 Q55 -4 46 -1 Q31 3 24 12 Q17 21 17 33 Q17 43 19 48 L215 629 Q222 649 230.5 658 Q239 667 259 667 L288 667 Q308 667 316.5 658 Q325 649 332 629 L528 48 Q531 40 531 33 Q531 10 505 0 Q494 -3 485 -3 Q457 -3 447 22 L402 152 Z M171 231 L376 231 L274 549 L272 549 L171 231 Z " />
<glyph glyph-name="Beta" unicode="&#x392;" horiz-adv-x="578" d="M142 587 L142 399 L346 399 Q378 399 401.5 425 Q425 451 425 496 Q425 539 400.5 563 Q376 587 336 587 L142 587 Z M142 320 L142 80 L349 80 Q368 80 386 87 Q404 94 418 108.5 Q432 123 440 145.5 Q448 168 448 200 Q448 219 441.5 240.5 Q435 262 421.5 279.5 Q408 297 388 308.5 Q368 320 341 320 L142 320 Z M101 0 Q60 0 60 42 L60 627 Q60 667 101 667 L350 667 Q382 667 410.5 655.5 Q439 644 461 622 Q483 600 495.5 568.5 Q508 537 508 497 Q508 463 492.5 424 Q477 385 440 362 Q480 339 504.5 301.5 Q529 264 529 199 Q529 149 513.5 112 Q498 75 472.5 50 Q447 25 414.5 12.5 Q382 0 348 0 L101 0 Z " />
<glyph glyph-name="Epsilon" unicode="&#x395;" horiz-adv-x="494" d="M102 0 Q60 0 60 41 L60 627 Q60 667 102 667 L435 667 Q473 667 473 627 Q473 587 435 587 L142 587 L142 393 L392 393 Q428 393 428 353 Q428 314 392 314 L142 314 L142 80 L435 80 Q473 80 473 41 Q473 0 435 0 L102 0 Z " />
<glyph glyph-name="Zeta" unicode="&#x396;" horiz-adv-x="495" d="M67 0 Q42 0 33 11 Q24 22 24 36 Q24 49 28 60 Q32 71 37 79 L361 587 L74 587 Q36 587 36 627 Q36 667 74 667 L432 667 Q451 667 460 656 Q469 645 469 631 Q469 617 465 607.5 Q461 598 455 588 L132 80 L438 80 Q458 80 465.5 69.5 Q473 59 473 41 Q473 23 465.5 11.5 Q458 0 438 0 L67 0 Z " />
<glyph glyph-name="Eta" unicode="&#x397;" horiz-adv-x="566" d="M467 -5 Q445 -5 436 3.5 Q427 12 427 35 L427 315 L139 315 L139 35 Q139 12 130 3.5 Q121 -5 99 -5 Q77 -5 67.5 4 Q58 13 58 35 L58 632 Q58 654 67.5 663 Q77 672 99 672 Q121 672 130 663.5 Q139 655 139 632 L139 392 L427 392 L427 632 Q427 655 436 663.5 Q445 672 467 672 Q489 672 498.5 663 Q508 654 508 632 L508 35 Q508 13 498.5 4 Q489 -5 467 -5 Z " />
<glyph glyph-name="Iota" unicode="&#x399;" horiz-adv-x="248" d="M125 -5 Q103 -5 93.5 4 Q84 13 84 35 L84 632 Q84 654 93.5 663 Q103 672 125 672 Q146 672 155.5 663.5 Q165 655 165 632 L165 35 Q165 12 155.5 3.5 Q146 -5 125 -5 Z " />
<glyph glyph-name="Kappa" unicode="&#x39a;" horiz-adv-x="522" d="M271 385 L501 59 Q510 48 510 34 Q510 20 500 10 Q483 -4 467 -4 Q446 -4 432 15 L413 43 Q362 116 312 188 Q262 260 211 332 L141 264 L141 35 Q141 13 131.5 4 Q122 -5 101 -5 Q60 -5 60 35 L60 630 Q60 671 101 671 Q122 671 131.5 662 Q141 653 141 630 L141 371 L142 371 L435 652 Q453 670 471 670 Q482 670 496.5 659 Q511 648 511 630 Q511 613 500 604 L271 385 Z " />
<glyph glyph-name="Mu" unicode="&#x39c;" horiz-adv-x="655" d="M553 -5 Q531 -5 522 3 Q513 11 513 34 L513 535 L511 535 L386 267 Q380 255 371 245 Q362 235 343 235 L310 235 Q291 235 282 245 Q273 255 266 268 L143 535 L141 535 L141 34 Q141 11 131.5 3 Q122 -5 101 -5 Q79 -5 69.5 3.5 Q60 12 60 34 L60 626 Q60 667 101 667 L137 667 Q157 667 164 659 Q171 651 179 637 L328 322 L478 644 Q485 656 493.5 661.5 Q502 667 517 667 L553 667 Q594 667 594 626 L594 34 Q594 12 584.5 3.5 Q575 -5 553 -5 Z " />
<glyph glyph-name="Phi" unicode="&#x3a6;" horiz-adv-x="646" d="M321 -5 Q299 -5 289.5 4 Q280 13 280 35 L280 69 L250 69 Q213 69 177 81.5 Q141 94 112.5 119 Q84 144 66.5 181.5 Q49 219 49 269 L49 415 Q49 465 66.5 503 Q84 541 112.5 567 Q141 593 177 606 Q213 619 251 619 L280 619 L280 632 Q280 654 289.5 663 Q299 672 321 672 Q343 672 352.5 663.5 Q362 655 362 632 L362 619 L395 619 Q436 619 472.5 606 Q509 593 537 567 Q565 541 581 503 Q597 465 597 415 L597 269 Q597 219 579.5 181.5 Q562 144 533.5 119 Q505 94 469 81.5 Q433 69 396 69 L362 69 L362 35 Q362 12 352.5 3.5 Q343 -5 321 -5 Z M396 144 Q456 144 486.5 180.5 Q517 217 517 269 L517 418 Q517 444 509 466.5 Q501 489 485 506 Q469 523 446.5 533 Q424 543 396 543 L362 543 L362 144 L396 144 Z M129 269 Q129 217 161 180.5 Q193 144 250 144 L280 144 L280 543 L250 543 Q222 543 199.5 533 Q177 523 161.5 506 Q146 489 137.5 466.5 Q129 444 129 418 L129 269 Z " />
<glyph glyph-name="Upsilondieresis" unicode="&#x3ab;" horiz-adv-x="509" d="M256 362 L258 362 Q300 434 341.5 506 Q383 578 425 650 Q431 661 439.5 665.5 Q448 670 457 670 Q479 670 490.5 656 Q502 642 502 631 Q502 621 498 614 Q447 529 397.5 444.5 Q348 360 298 275 L298 33 Q298 11 288.5 3 Q279 -5 257 -5 Q217 -5 217 33 L217 276 L11 616 Q7 623 7 630 Q7 645 21 657.5 Q35 670 54 670 Q73 670 84 650 L256 362 Z M354 698 Q334 698 321 711.5 Q308 725 308 743 Q308 766 322 777.5 Q336 789 353 789 Q371 789 385.5 778 Q400 767 400 743 Q400 724 386.5 711 Q373 698 354 698 Z M167 698 Q147 698 133.5 711.5 Q120 725 120 743 Q120 766 134 777.5 Q148 789 165 789 Q183 789 197.5 778 Q212 767 212 743 Q212 724 199 711 Q186 698 167 698 Z " />
<glyph glyph-name="Psi" unicode="&#x3a8;" horiz-adv-x="630" d="M314 -5 Q292 -5 282 3.5 Q272 12 272 34 L272 149 L244 149 Q203 149 166.5 162.5 Q130 176 103 201.5 Q76 227 60 264 Q44 301 44 348 L44 629 Q44 651 54 660 Q64 669 86 669 Q107 669 116.5 660.5 Q126 652 126 629 L126 347 Q126 295 157 261 Q188 227 242 227 L272 227 L272 636 Q272 657 282 666 Q292 675 314 675 Q335 675 344.5 666.5 Q354 658 354 636 L354 227 L388 227 Q395 227 402 228 Q409 229 415 231 Q458 239 480.5 270.5 Q503 302 503 347 L503 629 Q503 651 512.5 660 Q522 669 544 669 Q566 669 575.5 660.5 Q585 652 585 629 L585 348 Q585 301 569.5 264 Q554 227 527 201.5 Q500 176 464 162.5 Q428 149 386 149 L354 149 L354 34 Q354 11 344.5 3 Q335 -5 314 -5 Z " />
<glyph glyph-name="alphatonos" unicode="&#x3ac;" horiz-adv-x="503" d="M295 79 Q309 79 320 70 Q331 61 331 39 Q331 20 320 10 Q309 0 295 0 L207 0 Q174 0 144 10 Q114 20 91.5 40 Q69 60 56 91.5 Q43 123 43 165 L43 285 Q43 328 56.5 361 Q70 394 94 416.5 Q118 439 150.5 450.5 Q183 462 221 462 L407 462 Q425 462 439 450 Q453 438 453 409 L453 28 Q453 16 443 5.5 Q433 -5 412 -5 Q389 -5 380 5 Q371 15 371 28 L371 381 L222 381 Q203 381 185.5 375.5 Q168 370 154.5 358.5 Q141 347 133 329 Q125 311 125 285 L125 174 Q125 123 149 101 Q173 79 206 79 L295 79 Z M282 539 Q270 525 252 525 Q238 525 231 534.5 Q224 544 224 552 Q224 562 231 573 L301 697 Q306 707 316 713 Q326 719 338 719 Q357 719 369.5 705.5 Q382 692 382 675 Q382 659 373 649 L282 539 Z " />
<glyph glyph-name="Nu" unicode="&#x39d;" horiz-adv-x="587" d="M455 0 Q438 0 430.5 5.5 Q423 11 416 24 L143 531 L141 531 L141 34 Q141 11 131.5 3.5 Q122 -4 101 -4 Q79 -4 69.5 4.5 Q60 13 60 34 L60 626 Q60 667 101 667 L133 667 Q151 667 159 659 Q167 651 175 638 Q243 512 308.5 389.5 Q374 267 443 140 L445 140 L445 632 Q445 655 454.5 663.5 Q464 672 485 672 Q527 672 527 632 L527 40 Q527 0 485 0 L455 0 Z " />
<glyph glyph-name="Omicron" unicode="&#x39f;" horiz-adv-x="558" d="M323 667 Q363 667 397 654.5 Q431 642 456 616.5 Q481 591 494.5 553 Q508 515 508 465 L508 202 Q508 152 493.5 114 Q479 76 453.5 50.5 Q428 25 394.5 12.5 Q361 0 324 0 L234 0 Q197 0 163.5 12 Q130 24 105 48.5 Q80 73 65 110.5 Q50 148 50 198 L50 465 Q50 515 65 553 Q80 591 105.5 616.5 Q131 642 164.5 654.5 Q198 667 235 667 L323 667 Z M427 473 Q427 525 399.5 557.5 Q372 590 318 590 L239 590 Q188 590 159.5 557.5 Q131 525 131 473 L131 193 Q131 141 159.5 109 Q188 77 239 77 L318 77 Q370 77 398.5 110 Q427 143 427 194 L427 473 Z " />
<glyph glyph-name="Rho" unicode="&#x3a1;" horiz-adv-x="547" d="M141 587 L141 344 L326 344 Q355 344 375 355 Q395 366 407 384 Q419 402 424.5 424 Q430 446 430 468 Q430 500 421.5 522.5 Q413 545 398.5 559.5 Q384 574 365 580.5 Q346 587 325 587 L141 587 Z M141 264 L141 35 Q141 12 131.5 3.5 Q122 -5 101 -5 Q79 -5 69.5 4 Q60 13 60 35 L60 627 Q60 667 101 667 L315 667 Q408 667 460 614.5 Q512 562 512 468 Q512 374 464 319 Q416 264 319 264 L141 264 Z " />
<glyph glyph-name="Tau" unicode="&#x3a4;" horiz-adv-x="492" d="M286 587 L286 35 Q286 13 277 4 Q268 -5 245 -5 Q223 -5 214 3.5 Q205 12 205 35 L205 587 L44 587 Q7 587 7 627 Q7 667 44 667 L446 667 Q484 667 484 627 Q484 587 446 587 L286 587 Z " />
<glyph glyph-name="Upsilon" unicode="&#x3a5;" horiz-adv-x="509" d="M256 362 L258 362 Q300 434 341.5 506 Q383 578 425 650 Q431 661 439.5 665.5 Q448 670 457 670 Q479 670 490.5 656 Q502 642 502 631 Q502 621 498 614 Q447 529 397.5 444.5 Q348 360 298 275 L298 33 Q298 11 288.5 3 Q279 -5 257 -5 Q217 -5 217 33 L217 276 L11 616 Q7 623 7 630 Q7 645 21 657.5 Q35 670 54 670 Q73 670 84 650 L256 362 Z " />
<glyph glyph-name="Chi" unicode="&#x3a7;" horiz-adv-x="523" d="M497 4 Q486 -4 473 -4 Q452 -4 439 15 L263 283 L88 16 Q73 -5 52 -5 Q36 -5 24 7 Q12 19 12 35 Q12 47 20 58 L215 346 L37 611 Q30 621 30 633 Q30 647 43 660 Q56 673 73 673 Q93 673 106 654 L264 410 L423 654 Q436 673 455 673 Q470 673 484 662 Q498 651 498 634 Q498 623 491 613 L312 346 L507 58 Q513 49 513 36 Q513 16 497 4 Z " />
<glyph glyph-name="Alphatonos" unicode="&#x386;" horiz-adv-x="547" d="M402 152 L143 152 L99 22 Q90 -4 64 -4 Q55 -4 46 -1 Q31 3 24 12 Q17 21 17 33 Q17 43 19 48 L215 629 Q222 649 230.5 658 Q239 667 259 667 L288 667 Q308 667 316.5 658 Q325 649 332 629 L528 48 Q531 40 531 33 Q531 10 505 0 Q494 -3 485 -3 Q457 -3 447 22 L402 152 Z M171 231 L376 231 L274 549 L272 549 L171 231 Z M15 522 Q3 508 -15 508 Q-29 508 -36 517.5 Q-43 527 -43 535 Q-43 545 -36 556 L34 680 Q39 690 49 696 Q59 702 71 702 Q90 702 102.5 688.5 Q115 675 115 658 Q115 642 106 632 L15 522 Z " />
<glyph glyph-name="Epsilontonos" unicode="&#x388;" horiz-adv-x="494" d="M102 0 Q60 0 60 41 L60 627 Q60 667 102 667 L435 667 Q473 667 473 627 Q473 587 435 587 L142 587 L142 393 L392 393 Q428 393 428 353 Q428 314 392 314 L142 314 L142 80 L435 80 Q473 80 473 41 Q473 0 435 0 L102 0 Z M-72 522 Q-84 508 -102 508 Q-116 508 -123 517.5 Q-130 527 -130 535 Q-130 545 -123 556 L-53 680 Q-48 690 -38 696 Q-28 702 -16 702 Q3 702 15.5 688.5 Q28 675 28 658 Q28 642 19 632 L-72 522 Z " />
<glyph glyph-name="afii00208" unicode="&#x2015;" horiz-adv-x="991" d="M69 203 Q25 203 25 239 Q25 276 69 276 L918 276 Q961 276 961 239 Q961 219 950.5 211 Q940 203 918 203 L69 203 Z " />
<glyph glyph-name="Etatonos" unicode="&#x389;" horiz-adv-x="566" d="M467 -5 Q445 -5 436 3.5 Q427 12 427 35 L427 315 L139 315 L139 35 Q139 12 130 3.5 Q121 -5 99 -5 Q77 -5 67.5 4 Q58 13 58 35 L58 632 Q58 654 67.5 663 Q77 672 99 672 Q121 672 130 663.5 Q139 655 139 632 L139 392 L427 392 L427 632 Q427 655 436 663.5 Q445 672 467 672 Q489 672 498.5 663 Q508 654 508 632 L508 35 Q508 13 498.5 4 Q489 -5 467 -5 Z M-77 522 Q-89 508 -107 508 Q-121 508 -128 517.5 Q-135 527 -135 535 Q-135 545 -128 556 L-58 680 Q-53 690 -43 696 Q-33 702 -21 702 Q-2 702 10.5 688.5 Q23 675 23 658 Q23 642 14 632 L-77 522 Z " />
<glyph glyph-name="Iotatonos" unicode="&#x38a;" horiz-adv-x="248" d="M125 -5 Q103 -5 93.5 4 Q84 13 84 35 L84 632 Q84 654 93.5 663 Q103 672 125 672 Q146 672 155.5 663.5 Q165 655 165 632 L165 35 Q165 12 155.5 3.5 Q146 -5 125 -5 Z M-57 522 Q-69 508 -87 508 Q-101 508 -108 517.5 Q-115 527 -115 535 Q-115 545 -108 556 L-38 680 Q-33 690 -23 696 Q-13 702 -1 702 Q18 702 30.5 688.5 Q43 675 43 658 Q43 642 34 632 L-57 522 Z " />
<glyph glyph-name="Omicrontonos" unicode="&#x38c;" horiz-adv-x="558" d="M323 667 Q363 667 397 654.5 Q431 642 456 616.5 Q481 591 494.5 553 Q508 515 508 465 L508 202 Q508 152 493.5 114 Q479 76 453.5 50.5 Q428 25 394.5 12.5 Q361 0 324 0 L234 0 Q197 0 163.5 12 Q130 24 105 48.5 Q80 73 65 110.5 Q50 148 50 198 L50 465 Q50 515 65 553 Q80 591 105.5 616.5 Q131 642 164.5 654.5 Q198 667 235 667 L323 667 Z M427 473 Q427 525 399.5 557.5 Q372 590 318 590 L239 590 Q188 590 159.5 557.5 Q131 525 131 473 L131 193 Q131 141 159.5 109 Q188 77 239 77 L318 77 Q370 77 398.5 110 Q427 143 427 194 L427 473 Z M-56 522 Q-68 508 -86 508 Q-100 508 -107 517.5 Q-114 527 -114 535 Q-114 545 -107 556 L-37 680 Q-32 690 -22 696 Q-12 702 0 702 Q19 702 31.5 688.5 Q44 675 44 658 Q44 642 35 632 L-56 522 Z " />
<glyph glyph-name="Upsilontonos" unicode="&#x38e;" horiz-adv-x="509" d="M256 362 L258 362 Q300 434 341.5 506 Q383 578 425 650 Q431 661 439.5 665.5 Q448 670 457 670 Q479 670 490.5 656 Q502 642 502 631 Q502 621 498 614 Q447 529 397.5 444.5 Q348 360 298 275 L298 33 Q298 11 288.5 3 Q279 -5 257 -5 Q217 -5 217 33 L217 276 L11 616 Q7 623 7 630 Q7 645 21 657.5 Q35 670 54 670 Q73 670 84 650 L256 362 Z M-111 522 Q-123 508 -141 508 Q-155 508 -162 517.5 Q-169 527 -169 535 Q-169 545 -162 556 L-92 680 Q-87 690 -77 696 Q-67 702 -55 702 Q-36 702 -23.5 688.5 Q-11 675 -11 658 Q-11 642 -20 632 L-111 522 Z " />
<glyph glyph-name="epsilontonos" unicode="&#x3ad;" horiz-adv-x="422" d="M184 383 Q160 383 143 370 Q126 357 126 334 Q126 314 139.5 297.5 Q153 281 184 281 L341 281 Q355 281 365.5 272 Q376 263 376 243 Q376 224 365.5 215.5 Q355 207 341 207 L185 207 Q161 207 142.5 190 Q124 173 124 144 Q124 119 138.5 99 Q153 79 187 79 L359 79 Q375 79 385 69.5 Q395 60 395 40 Q395 19 385 9.5 Q375 0 359 0 L172 0 Q118 0 80.5 35.5 Q43 71 43 141 Q43 170 55.5 197.5 Q68 225 94 242 Q70 254 58 279.5 Q46 305 46 335 Q46 360 54.5 383.5 Q63 407 80 424 Q97 441 122.5 451.5 Q148 462 182 462 L325 462 Q339 462 350 452.5 Q361 443 361 423 Q361 403 350 393 Q339 383 325 383 L184 383 Z M235 539 Q223 525 205 525 Q191 525 184 534.5 Q177 544 177 552 Q177 562 184 573 L254 697 Q259 707 269 713 Q279 719 291 719 Q310 719 322.5 705.5 Q335 692 335 675 Q335 659 326 649 L235 539 Z " />
<glyph glyph-name="etatonos" unicode="&#x3ae;" horiz-adv-x="504" d="M417 -5 Q395 -5 385.5 4.5 Q376 14 376 27 L376 286 Q376 312 367.5 330.5 Q359 349 344.5 360.5 Q330 372 311.5 377 Q293 382 273 382 L132 382 L132 27 Q132 15 122.5 5 Q113 -5 91 -5 Q71 -5 60.5 5 Q50 15 50 27 L50 417 Q50 430 59.5 446 Q69 462 95 462 L277 462 Q361 462 409 418 Q457 374 457 286 L457 27 Q457 15 447.5 5 Q438 -5 417 -5 Z M243 539 Q231 525 213 525 Q199 525 192 534.5 Q185 544 185 552 Q185 562 192 573 L262 697 Q267 707 277 713 Q287 719 299 719 Q318 719 330.5 705.5 Q343 692 343 675 Q343 659 334 649 L243 539 Z " />
<glyph glyph-name="iotatonos" unicode="&#x3af;" horiz-adv-x="306" d="M178 -5 Q157 -5 147 5 Q137 15 137 27 L137 384 L78 384 Q67 384 56.5 393.5 Q46 403 46 423 Q46 444 56.5 453 Q67 462 78 462 L179 462 Q199 462 209 451 Q219 440 219 428 L219 27 Q219 16 209.5 5.5 Q200 -5 178 -5 Z M180 539 Q168 525 150 525 Q136 525 129 534.5 Q122 544 122 552 Q122 562 129 573 L199 697 Q204 707 214 713 Q224 719 236 719 Q255 719 267.5 705.5 Q280 692 280 675 Q280 659 271 649 L180 539 Z " />
<glyph glyph-name="omicrontonos" unicode="&#x3cc;" horiz-adv-x="492" d="M223 386 Q180 386 152.5 361.5 Q125 337 125 286 L125 172 Q125 123 152.5 99.5 Q180 76 223 76 L268 76 Q310 76 338.5 99.5 Q367 123 367 172 L367 286 Q367 338 339 362 Q311 386 268 386 L223 386 Z M218 0 Q182 0 150.5 11 Q119 22 95 43.5 Q71 65 57 97.5 Q43 130 43 173 L43 286 Q43 329 56.5 361.5 Q70 394 94 416.5 Q118 439 151.5 450.5 Q185 462 225 462 L270 462 Q309 462 342 451 Q375 440 398.5 417.5 Q422 395 435.5 362 Q449 329 449 286 L449 173 Q449 130 435 97.5 Q421 65 396.5 43.5 Q372 22 339.5 11 Q307 0 271 0 L218 0 Z M268 539 Q256 525 238 525 Q224 525 217 534.5 Q210 544 210 552 Q210 562 217 573 L287 697 Q292 707 302 713 Q312 719 324 719 Q343 719 355.5 705.5 Q368 692 368 675 Q368 659 359 649 L268 539 Z " />
<glyph glyph-name="Omegatonos" unicode="&#x38f;" horiz-adv-x="569" d="M365 0 Q344 0 334.5 11.5 Q325 23 325 36 L325 64 Q325 81 331 87 Q337 93 355 101 Q392 117 413 146 Q434 175 434 218 L434 472 Q434 523 405.5 555.5 Q377 588 328 588 L244 588 Q196 588 167 555.5 Q138 523 138 472 L138 218 Q138 180 156 148.5 Q174 117 212 103 Q230 96 236 89 Q242 82 242 63 L242 36 Q242 31 239 25 Q237 15 228 7.5 Q219 0 202 0 L74 0 Q55 0 47 11 Q39 22 39 40 Q39 45 41 53 Q46 80 74 80 L123 80 Q84 103 70.5 139.5 Q57 176 57 225 L57 467 Q57 512 70.5 549 Q84 586 108.5 612 Q133 638 167 652.5 Q201 667 242 667 L330 667 Q373 667 407.5 652.5 Q442 638 466 612 Q490 586 502.5 549 Q515 512 515 467 L515 226 Q515 205 512 183.5 Q509 162 501 142.5 Q493 123 479.5 107 Q466 91 446 80 L496 80 Q515 80 523 69 Q531 58 531 40 Q531 36 529 28 Q524 0 496 0 L365 0 Z M-53 522 Q-65 508 -83 508 Q-97 508 -104 517.5 Q-111 527 -111 535 Q-111 545 -104 556 L-34 680 Q-29 690 -19 696 Q-9 702 3 702 Q22 702 34.5 688.5 Q47 675 47 658 Q47 642 38 632 L-53 522 Z " />
<glyph glyph-name="upsilontonos" unicode="&#x3cd;" horiz-adv-x="497" d="M224 0 Q186 0 153.5 11.5 Q121 23 97 45 Q73 67 59 99.5 Q45 132 45 174 L45 434 Q45 445 54.5 455.5 Q64 466 86 466 Q107 466 117 456 Q127 446 127 434 L127 174 Q127 148 135.5 130 Q144 112 158 101 Q172 90 190 85 Q208 80 228 80 L267 80 Q287 80 305.5 85 Q324 90 338 101 Q352 112 360.5 130 Q369 148 369 174 L369 434 Q369 446 379 456 Q389 466 410 466 Q432 466 442 455.5 Q452 445 452 434 L452 174 Q452 132 438 99.5 Q424 67 399.5 45 Q375 23 342 11.5 Q309 0 270 0 L224 0 Z M260 539 Q248 525 230 525 Q216 525 209 534.5 Q202 544 202 552 Q202 562 209 573 L279 697 Q284 707 294 713 Q304 719 316 719 Q335 719 347.5 705.5 Q360 692 360 675 Q360 659 351 649 L260 539 Z " />
<glyph glyph-name="alpha" unicode="&#x3b1;" horiz-adv-x="503" d="M295 79 Q309 79 320 70 Q331 61 331 39 Q331 20 320 10 Q309 0 295 0 L207 0 Q174 0 144 10 Q114 20 91.5 40 Q69 60 56 91.5 Q43 123 43 165 L43 285 Q43 328 56.5 361 Q70 394 94 416.5 Q118 439 150.5 450.5 Q183 462 221 462 L407 462 Q425 462 439 450 Q453 438 453 409 L453 28 Q453 16 443 5.5 Q433 -5 412 -5 Q389 -5 380 5 Q371 15 371 28 L371 381 L222 381 Q203 381 185.5 375.5 Q168 370 154.5 358.5 Q141 347 133 329 Q125 311 125 285 L125 174 Q125 123 149 101 Q173 79 206 79 L295 79 Z " />
<glyph glyph-name="beta" unicode="&#x3b2;" horiz-adv-x="483" d="M40 476 Q40 504 43 530 Q51 604 101 645 Q151 686 225 688 L244 688 Q283 688 317 675.5 Q351 663 376.5 640 Q402 617 416.5 583 Q431 549 431 506 Q431 464 415 427 Q399 390 363 371 Q408 354 423.5 316 Q439 278 439 230 L439 173 Q439 130 424.5 97.5 Q410 65 385 43.5 Q360 22 328 11 Q296 0 261 0 L122 0 L122 -110 Q122 -123 112.5 -133 Q103 -143 81 -143 Q60 -143 50 -133.5 Q40 -124 40 -110 L40 476 Z M122 77 L261 77 Q279 77 296 82.5 Q313 88 326.5 99.5 Q340 111 348.5 129 Q357 147 357 173 L357 230 Q357 283 330 307 Q303 331 261 331 Q223 331 209.5 331.5 Q196 332 188 333 Q165 335 165 369 Q165 404 194 406 L253 406 Q292 406 320.5 431.5 Q349 457 349 506 Q349 532 340.5 551 Q332 570 318 583 Q304 596 285.5 602 Q267 608 248 608 L221 608 Q181 608 151.5 582.5 Q122 557 122 504 L122 77 Z " />
<glyph glyph-name="psi" unicode="&#x3c8;" horiz-adv-x="604" d="M126 173 Q126 147 134 129 Q142 111 155.5 99.5 Q169 88 186.5 83 Q204 78 222 78 L258 78 L258 449 Q258 461 268.5 471 Q279 481 299 481 Q321 481 330 471.5 Q339 462 339 449 L339 78 L380 78 Q398 78 415.5 83 Q433 88 447 99.5 Q461 111 469.5 129 Q478 147 478 173 L478 434 Q478 447 488.5 456.5 Q499 466 519 466 Q540 466 549.5 456.5 Q559 447 559 434 L559 175 Q559 133 544.5 100 Q530 67 505 45 Q480 23 447.5 11.5 Q415 0 379 0 L339 0 L339 -176 Q339 -188 329.5 -198.5 Q320 -209 298 -209 Q277 -209 267.5 -199 Q258 -189 258 -176 L258 0 L221 0 Q186 0 154 11.5 Q122 23 98 45 Q74 67 59.5 100 Q45 133 45 175 L45 434 Q45 447 55.5 456.5 Q66 466 86 466 Q108 466 117 456.5 Q126 447 126 434 L126 173 Z " />
<glyph glyph-name="delta" unicode="&#x3b4;" horiz-adv-x="492" d="M218 0 Q181 0 149 11 Q117 22 93 43.5 Q69 65 55.5 97.5 Q42 130 42 173 L42 268 Q42 333 74 380.5 Q106 428 159 445 L159 446 Q122 464 98.5 494.5 Q75 525 75 568 Q75 620 108.5 655 Q142 690 206 690 L379 690 Q387 690 399 681.5 Q411 673 411 650 Q411 627 400 618.5 Q389 610 379 610 L214 610 Q193 610 175.5 599.5 Q158 589 158 566 Q158 553 168 542 Q178 531 193 521.5 Q208 512 225 504.5 Q242 497 256 490 Q279 479 304.5 467.5 Q330 456 353 445 Q403 422 425.5 379 Q448 336 448 279 L448 173 Q448 130 434 97.5 Q420 65 396 43.5 Q372 22 339.5 11 Q307 0 271 0 L218 0 Z M367 272 Q367 316 348.5 343.5 Q330 371 288 389 L251 403 Q215 398 190.5 384.5 Q166 371 151 352 Q136 333 130 309 Q124 285 124 260 L124 174 Q124 124 152 101 Q180 78 222 78 L268 78 Q310 78 338.5 102 Q367 126 367 174 L367 272 Z " />
<glyph glyph-name="epsilon" unicode="&#x3b5;" horiz-adv-x="422" d="M184 383 Q160 383 143 370 Q126 357 126 334 Q126 314 139.5 297.5 Q153 281 184 281 L341 281 Q355 281 365.5 272 Q376 263 376 243 Q376 224 365.5 215.5 Q355 207 341 207 L185 207 Q161 207 142.5 190 Q124 173 124 144 Q124 119 138.5 99 Q153 79 187 79 L359 79 Q375 79 385 69.5 Q395 60 395 40 Q395 19 385 9.5 Q375 0 359 0 L172 0 Q118 0 80.5 35.5 Q43 71 43 141 Q43 170 55.5 197.5 Q68 225 94 242 Q70 254 58 279.5 Q46 305 46 335 Q46 360 54.5 383.5 Q63 407 80 424 Q97 441 122.5 451.5 Q148 462 182 462 L325 462 Q339 462 350 452.5 Q361 443 361 423 Q361 403 350 393 Q339 383 325 383 L184 383 Z " />
<glyph glyph-name="phi" unicode="&#x3c6;" horiz-adv-x="611" d="M340 78 L389 78 Q407 78 424.5 83 Q442 88 455.5 99.5 Q469 111 477.5 129 Q486 147 486 173 L486 285 Q486 312 478 330.5 Q470 349 456.5 360.5 Q443 372 425.5 377 Q408 382 389 382 L340 382 L340 78 Z M340 0 L340 -176 Q340 -189 331 -199 Q322 -209 300 -209 Q278 -209 268.5 -199 Q259 -189 259 -176 L259 0 L219 0 Q184 0 152 11.5 Q120 23 96 45 Q72 67 57.5 100 Q43 133 43 175 L43 287 Q43 341 65 380 Q87 419 125 439 Q135 444 143 444 Q158 444 170 431.5 Q182 419 182 404 Q182 390 173 380 Q164 370 153 358.5 Q142 347 133 332 Q124 317 124 293 L124 173 Q124 147 132 129 Q140 111 153.5 99.5 Q167 88 184.5 83 Q202 78 220 78 L259 78 L259 419 Q259 435 269.5 448.5 Q280 462 300 462 L388 462 Q426 462 459 451 Q492 440 516 417.5 Q540 395 554 362 Q568 329 568 285 L568 175 Q568 133 553.5 100 Q539 67 514 45 Q489 23 456.5 11.5 Q424 0 388 0 L340 0 Z " />
<glyph glyph-name="gamma" unicode="&#x3b3;" horiz-adv-x="435" d="M252 -182 Q252 -193 242 -203 Q232 -213 211 -213 Q191 -213 180.5 -203 Q170 -193 170 -182 L170 6 L11 419 Q8 426 8 433 Q8 445 17 454.5 Q26 464 40 466 Q45 468 55 468 Q80 468 90 441 L216 107 L217 107 L340 443 Q345 456 354.5 462 Q364 468 376 468 Q395 468 408 458 Q421 448 421 433 Q421 426 418 419 Q376 309 335 200.5 Q294 92 252 -17 L252 -182 Z " />
<glyph glyph-name="eta" unicode="&#x3b7;" horiz-adv-x="504" d="M417 -5 Q395 -5 385.5 4.5 Q376 14 376 27 L376 286 Q376 312 367.5 330.5 Q359 349 344.5 360.5 Q330 372 311.5 377 Q293 382 273 382 L132 382 L132 27 Q132 15 122.5 5 Q113 -5 91 -5 Q71 -5 60.5 5 Q50 15 50 27 L50 417 Q50 430 59.5 446 Q69 462 95 462 L277 462 Q361 462 409 418 Q457 374 457 286 L457 27 Q457 15 447.5 5 Q438 -5 417 -5 Z " />
<glyph glyph-name="iota" unicode="&#x3b9;" horiz-adv-x="306" d="M178 -5 Q157 -5 147 5 Q137 15 137 27 L137 384 L78 384 Q67 384 56.5 393.5 Q46 403 46 423 Q46 444 56.5 453 Q67 462 78 462 L179 462 Q199 462 209 451 Q219 440 219 428 L219 27 Q219 16 209.5 5.5 Q200 -5 178 -5 Z " />
<glyph glyph-name="xi" unicode="&#x3be;" horiz-adv-x="432" d="M223 331 Q204 331 186.5 325 Q169 319 155.5 307 Q142 295 134 276 Q126 257 126 231 L126 174 Q126 127 155 103 Q184 79 223 79 L357 79 Q382 79 391.5 64.5 Q401 50 401 36 L401 -100 Q401 -114 392.5 -126 Q384 -138 361 -138 Q339 -138 330 -128 Q321 -118 321 -105 L321 0 L222 0 Q185 0 153 11.5 Q121 23 97 45 Q73 67 59 99.5 Q45 132 45 174 L45 231 Q45 278 64.5 315.5 Q84 353 121 371 Q90 387 71.5 417 Q53 447 53 482 L53 502 Q53 544 66 577.5 Q79 611 103 633.5 Q127 656 160 668 Q193 680 233 680 L365 680 Q379 680 389 669.5 Q399 659 399 639 Q399 619 387.5 609.5 Q376 600 365 600 L230 600 Q212 600 194.5 594.5 Q177 589 163.5 577.5 Q150 566 142 547.5 Q134 529 134 503 L134 478 Q134 460 143 446.5 Q152 433 165.5 424.5 Q179 416 196 412 Q213 408 230 408 L368 408 Q376 408 389 400.5 Q402 393 402 370 Q402 350 390 340.5 Q378 331 368 331 L223 331 Z " />
<glyph glyph-name="kappa" unicode="&#x3ba;" horiz-adv-x="434" d="M406 5 Q392 -4 379 -4 Q358 -4 346 16 L211 264 L128 204 L128 27 Q128 14 118.5 4.5 Q109 -5 87 -5 Q67 -5 56.5 4 Q46 13 46 27 L46 441 Q46 454 56.5 463.5 Q67 473 87 473 Q109 473 118.5 463.5 Q128 454 128 441 L128 295 L341 454 Q354 463 368 463 Q383 463 396 452 Q409 441 409 424 Q409 408 394 396 L279 310 L418 53 Q423 45 423 37 Q423 27 418 18.5 Q413 10 406 5 Z " />
<glyph glyph-name="lambda" unicode="&#x3bb;" horiz-adv-x="503" d="M412 -6 Q391 -6 381.5 4.5 Q372 15 372 26 L372 378 L227 378 Q207 378 188.5 373 Q170 368 156 357 Q142 346 133.5 328 Q125 310 125 284 L125 26 Q125 15 114.5 4.5 Q104 -6 83 -6 Q62 -6 52.5 4.5 Q43 15 43 26 L43 284 Q43 328 57 361 Q71 394 95 416 Q119 438 152 449 Q185 460 223 460 L371 460 L371 519 Q371 544 362.5 562 Q354 580 340.5 590.5 Q327 601 309 606 Q291 611 272 611 L125 611 Q115 611 104 620.5 Q93 630 93 651 Q93 671 104 681 Q115 691 125 691 L278 691 Q315 691 347.5 680 Q380 669 403.5 647 Q427 625 440.5 592.5 Q454 560 454 518 L454 26 Q454 15 443.5 4.5 Q433 -6 412 -6 Z " />
<glyph glyph-name="nu" unicode="&#x3bd;" horiz-adv-x="435" d="M223 85 L346 443 Q355 469 383 469 Q400 469 413 459.5 Q426 450 426 433 Q426 426 423 419 L286 36 Q273 0 240 0 L200 0 Q167 0 154 36 L16 419 Q14 427 14 432 Q14 449 26 459 Q38 469 57 469 Q70 469 80 462 Q90 455 95 441 L220 85 L223 85 Z " />
<glyph glyph-name="omicron" unicode="&#x3bf;" horiz-adv-x="492" d="M223 383 Q180 383 152.5 359 Q125 335 125 284 L125 174 Q125 125 152.5 101.5 Q180 78 223 78 L268 78 Q310 78 338.5 101.5 Q367 125 367 174 L367 284 Q367 335 339 359 Q311 383 268 383 L223 383 Z M218 0 Q182 0 150.5 11 Q119 22 95 43.5 Q71 65 57 97.5 Q43 130 43 173 L43 286 Q43 329 56.5 361.5 Q70 394 94 416.5 Q118 439 151.5 450.5 Q185 462 225 462 L270 462 Q309 462 342 451 Q375 440 398.5 417.5 Q422 395 435.5 362 Q449 329 449 286 L449 173 Q449 130 435 97.5 Q421 65 396.5 43.5 Q372 22 339.5 11 Q307 0 271 0 L218 0 Z " />
<glyph glyph-name="omegatonos" unicode="&#x3ce;" horiz-adv-x="659" d="M330 374 Q352 374 362 363 Q372 352 372 339 L372 172 Q372 125 394 100.5 Q416 76 455 76 Q491 76 512.5 99 Q534 122 534 161 L534 320 Q534 344 524.5 359.5 Q515 375 504 386.5 Q493 398 483.5 408.5 Q474 419 474 432 Q474 445 485 459 Q496 473 515 473 Q523 473 533 468 Q571 448 593 408.5 Q615 369 615 316 L615 153 Q615 123 605.5 95 Q596 67 576.5 45.5 Q557 24 527 11 Q497 -2 455 -2 Q416 -2 383 13 Q350 28 330 57 Q310 28 274.5 13 Q239 -2 204 -2 Q161 -2 131 10 Q101 22 81.5 43 Q62 64 53 91.5 Q44 119 44 150 L44 315 Q44 368 66.5 407.5 Q89 447 127 468 Q139 473 145 473 Q164 473 174.5 458.5 Q185 444 185 431 Q185 411 169 399 Q150 385 138 366.5 Q126 348 126 319 L126 159 Q126 120 147 98 Q168 76 204 76 Q242 76 266.5 101.5 Q291 127 291 172 L291 339 Q291 350 299.5 362 Q308 374 330 374 Z M345 539 Q333 525 315 525 Q301 525 294 534.5 Q287 544 287 552 Q287 562 294 573 L364 697 Q369 707 379 713 Q389 719 401 719 Q420 719 432.5 705.5 Q445 692 445 675 Q445 659 436 649 L345 539 Z " />
<glyph glyph-name="rho" unicode="&#x3c1;" horiz-adv-x="498" d="M87 -209 Q67 -209 56.5 -199 Q46 -189 46 -178 L46 283 Q46 326 59.5 359 Q73 392 96.5 415 Q120 438 153 450 Q186 462 225 462 L273 462 Q312 462 345 451 Q378 440 402.5 418 Q427 396 440.5 363.5 Q454 331 454 289 L454 176 Q454 134 440.5 101 Q427 68 403 45.5 Q379 23 346.5 11.5 Q314 0 277 0 L128 0 L128 -178 Q128 -189 118.5 -199 Q109 -209 87 -209 Z M273 78 Q316 78 344 102 Q372 126 372 177 L372 287 Q372 335 344 359 Q316 383 274 383 L226 383 Q183 383 155.5 359.5 Q128 336 128 285 L128 78 L273 78 Z " />
<glyph glyph-name="sigma" unicode="&#x3c3;" horiz-adv-x="522" d="M218 0 Q182 0 150.5 11 Q119 22 95 43.5 Q71 65 57 97.5 Q43 130 43 173 L43 281 Q43 324 56.5 357.5 Q70 391 95 414.5 Q120 438 154 450 Q188 462 229 462 L476 462 Q486 462 496.5 452.5 Q507 443 507 423 Q507 402 496 392 Q485 382 476 382 L412 382 Q431 363 438.5 339 Q446 315 446 286 L446 173 Q446 130 432 97.5 Q418 65 393.5 43.5 Q369 22 336.5 11 Q304 0 268 0 L218 0 Z M227 383 Q182 383 153.5 357 Q125 331 125 280 L125 174 Q125 125 152.5 101.5 Q180 78 223 78 L265 78 Q307 78 335.5 101.5 Q364 125 364 174 L364 284 Q364 335 336 359 Q308 383 265 383 L227 383 Z " />
<glyph glyph-name="tau" unicode="&#x3c4;" horiz-adv-x="387" d="M318 461 Q328 461 339 451.5 Q350 442 350 422 Q350 402 339 392 Q328 382 318 382 L195 382 L195 171 Q195 119 220 98.5 Q245 78 287 78 L343 78 Q354 78 366 68 Q378 58 378 38 Q378 18 366 8.5 Q354 -1 343 -1 L277 -1 Q203 -1 158.5 38 Q114 77 114 166 L114 382 L45 382 Q34 382 23 392 Q12 402 12 422 Q12 443 23.5 452 Q35 461 45 461 L318 461 Z " />
<glyph glyph-name="theta" unicode="&#x3b8;" horiz-adv-x="488" d="M221 0 Q185 0 153 11.5 Q121 23 97 45 Q73 67 58.5 100 Q44 133 44 176 L44 512 Q44 555 58 588 Q72 621 96.5 643.5 Q121 666 154.5 678 Q188 690 228 690 L263 690 Q302 690 335.5 678.5 Q369 667 393 644.5 Q417 622 431 588.5 Q445 555 445 512 L445 176 Q445 133 430.5 100 Q416 67 391.5 45 Q367 23 334 11.5 Q301 0 265 0 L221 0 Z M261 78 Q304 78 333.5 102.5 Q363 127 363 176 L363 323 L126 323 L126 176 Q126 127 154 102.5 Q182 78 226 78 L261 78 Z M226 612 Q183 612 154.5 586.5 Q126 561 126 510 L126 400 L363 400 L363 510 Q363 562 333.5 587 Q304 612 261 612 L226 612 Z " />
<glyph glyph-name="omega" unicode="&#x3c9;" horiz-adv-x="659" d="M330 374 Q352 374 362 363 Q372 352 372 339 L372 172 Q372 125 394 100.5 Q416 76 455 76 Q491 76 512.5 99 Q534 122 534 161 L534 320 Q534 344 524.5 359.5 Q515 375 504 386.5 Q493 398 483.5 408.5 Q474 419 474 432 Q474 445 485 459 Q496 473 515 473 Q523 473 533 468 Q571 448 593 408.5 Q615 369 615 316 L615 153 Q615 123 605.5 95 Q596 67 576.5 45.5 Q557 24 527 11 Q497 -2 455 -2 Q416 -2 383 13 Q350 28 330 57 Q310 28 274.5 13 Q239 -2 204 -2 Q161 -2 131 10 Q101 22 81.5 43 Q62 64 53 91.5 Q44 119 44 150 L44 315 Q44 368 66.5 407.5 Q89 447 127 468 Q139 473 145 473 Q164 473 174.5 458.5 Q185 444 185 431 Q185 411 169 399 Q150 385 138 366.5 Q126 348 126 319 L126 159 Q126 120 147 98 Q168 76 204 76 Q242 76 266.5 101.5 Q291 127 291 172 L291 339 Q291 350 299.5 362 Q308 374 330 374 Z " />
<glyph glyph-name="sigma1" unicode="&#x3c2;" horiz-adv-x="460" d="M79 0 Q69 0 58 8.5 Q47 17 47 41 Q47 63 60 72 Q73 81 79 81 L284 81 Q308 81 323.5 93.5 Q339 106 339 129 Q339 148 324.5 159.5 Q310 171 281 179 L163 214 Q137 221 115 230 Q93 239 76.5 253 Q60 267 50.5 287.5 Q41 308 41 338 Q41 391 75 426.5 Q109 462 177 462 L363 462 Q371 462 383.5 453.5 Q396 445 396 422 Q396 399 384.5 390.5 Q373 382 363 382 L177 382 Q154 382 139 372 Q124 362 124 339 Q124 322 138.5 312 Q153 302 180 294 L298 261 Q325 253 347.5 243 Q370 233 386.5 218 Q403 203 412 181.5 Q421 160 421 130 Q421 104 412.5 80.5 Q404 57 387 39 Q370 21 344 10.5 Q318 0 284 0 L79 0 Z " />
<glyph glyph-name="chi" unicode="&#x3c7;" horiz-adv-x="441" d="M338 457 Q348 470 364 470 Q384 470 397.5 455.5 Q411 441 411 426 Q411 414 404 407 L273 237 L417 56 Q423 48 423 39 Q423 27 410.5 10.5 Q398 -6 377 -6 Q358 -6 348 7 L221 172 L94 7 Q83 -7 65 -7 Q54 -7 45.5 -2.5 Q37 2 31 9 Q25 16 22 23 Q19 30 19 36 Q19 47 26 56 L168 237 L38 407 Q31 416 31 427 Q31 440 44.5 455.5 Q58 471 78 471 Q93 471 104 457 L221 302 L338 457 Z " />
<glyph glyph-name="upsilon" unicode="&#x3c5;" horiz-adv-x="497" d="M224 0 Q186 0 153.5 11.5 Q121 23 97 45 Q73 67 59 99.5 Q45 132 45 174 L45 434 Q45 445 54.5 455.5 Q64 466 86 466 Q107 466 117 456 Q127 446 127 434 L127 174 Q127 148 135.5 130 Q144 112 158 101 Q172 90 190 85 Q208 80 228 80 L267 80 Q287 80 305.5 85 Q324 90 338 101 Q352 112 360.5 130 Q369 148 369 174 L369 434 Q369 446 379 456 Q389 466 410 466 Q432 466 442 455.5 Q452 445 452 434 L452 174 Q452 132 438 99.5 Q424 67 399.5 45 Q375 23 342 11.5 Q309 0 270 0 L224 0 Z " />
<glyph glyph-name="zeta" unicode="&#x3b6;" horiz-adv-x="428" d="M40 146 Q40 176 61.5 208 Q83 240 117 271 Q151 302 191 331 Q231 360 269 383 L101 383 Q93 383 85.5 383 Q78 383 70 385 Q62 387 54.5 396 Q47 405 47 423 Q47 445 59 453 Q71 461 78 461 L363 461 Q372 461 381 461 Q390 461 398 459 Q409 457 415.5 449.5 Q422 442 422 430 L422 414 Q422 391 406 382 Q365 360 316.5 331 Q268 302 226 270.5 Q184 239 155.5 207.5 Q127 176 127 150 Q127 133 134 123 Q141 113 158 105.5 Q175 98 203 92 Q231 86 272 78 Q294 73 318 66.5 Q342 60 361.5 49 Q381 38 394 21 Q407 4 407 -20 Q407 -44 391 -71.5 Q375 -99 343 -137 Q338 -142 331 -146.5 Q324 -151 315 -151 Q310 -151 305 -150.5 Q300 -150 293 -146 Q273 -135 273 -117 Q273 -107 278 -101 Q283 -94 289.5 -84 Q296 -74 302 -64.5 Q308 -55 312.5 -46.5 Q317 -38 317 -34 Q317 -24 310 -17.5 Q303 -11 292 -6.5 Q281 -2 267 0.5 Q253 3 239 6 Q199 13 163 21 Q127 29 99.5 43.5 Q72 58 56 82 Q40 106 40 146 Z " />
<glyph glyph-name="iotadieresis" unicode="&#x3ca;" horiz-adv-x="306" d="M178 -5 Q157 -5 147 5 Q137 15 137 27 L137 384 L78 384 Q67 384 56.5 393.5 Q46 403 46 423 Q46 444 56.5 453 Q67 462 78 462 L179 462 Q199 462 209 451 Q219 440 219 428 L219 27 Q219 16 209.5 5.5 Q200 -5 178 -5 Z M260 542 Q240 542 227 555.5 Q214 569 214 587 Q214 610 228 621.5 Q242 633 259 633 Q277 633 291.5 622 Q306 611 306 587 Q306 568 292.5 555 Q279 542 260 542 Z M73 542 Q53 542 39.5 555.5 Q26 569 26 587 Q26 610 40 621.5 Q54 633 71 633 Q89 633 103.5 622 Q118 611 118 587 Q118 568 105 555 Q92 542 73 542 Z " />
<glyph glyph-name="upsilondieresis" unicode="&#x3cb;" horiz-adv-x="497" d="M224 0 Q186 0 153.5 11.5 Q121 23 97 45 Q73 67 59 99.5 Q45 132 45 174 L45 434 Q45 445 54.5 455.5 Q64 466 86 466 Q107 466 117 456 Q127 446 127 434 L127 174 Q127 148 135.5 130 Q144 112 158 101 Q172 90 190 85 Q208 80 228 80 L267 80 Q287 80 305.5 85 Q324 90 338 101 Q352 112 360.5 130 Q369 148 369 174 L369 434 Q369 446 379 456 Q389 466 410 466 Q432 466 442 455.5 Q452 445 452 434 L452 174 Q452 132 438 99.5 Q424 67 399.5 45 Q375 23 342 11.5 Q309 0 270 0 L224 0 Z M344 542 Q324 542 311 555.5 Q298 569 298 587 Q298 610 312 621.5 Q326 633 343 633 Q361 633 375.5 622 Q390 611 390 587 Q390 568 376.5 555 Q363 542 344 542 Z M157 542 Q137 542 123.5 555.5 Q110 569 110 587 Q110 610 124 621.5 Q138 633 155 633 Q173 633 187.5 622 Q202 611 202 587 Q202 568 189 555 Q176 542 157 542 Z " />
<glyph glyph-name="iotadieresistonos" unicode="&#x390;" horiz-adv-x="306" d="M178 -5 Q157 -5 147 5 Q137 15 137 27 L137 384 L78 384 Q67 384 56.5 393.5 Q46 403 46 423 Q46 444 56.5 453 Q67 462 78 462 L179 462 Q199 462 209 451 Q219 440 219 428 L219 27 Q219 16 209.5 5.5 Q200 -5 178 -5 Z M284 542 Q264 542 251 555.5 Q238 569 238 587 Q238 610 251.5 621.5 Q265 633 282 633 Q300 633 314.5 622 Q329 611 329 587 Q329 568 316 555 Q303 542 284 542 Z M41 542 Q22 542 8.5 555.5 Q-5 569 -5 587 Q-5 610 9 621.5 Q23 633 40 633 Q58 633 72 622 Q86 611 86 587 Q86 568 73.5 555 Q61 542 41 542 Z M154 539 Q142 525 124 525 Q110 525 103 534.5 Q96 544 96 552 Q96 562 103 573 L173 697 Q178 707 188 713 Q198 719 210 719 Q229 719 241.5 705.5 Q254 692 254 675 Q254 659 245 649 L154 539 Z " />
<glyph glyph-name="upsilondieresistonos" unicode="&#x3b0;" horiz-adv-x="497" d="M224 0 Q186 0 153.5 11.5 Q121 23 97 45 Q73 67 59 99.5 Q45 132 45 174 L45 434 Q45 445 54.5 455.5 Q64 466 86 466 Q107 466 117 456 Q127 446 127 434 L127 174 Q127 148 135.5 130 Q144 112 158 101 Q172 90 190 85 Q208 80 228 80 L267 80 Q287 80 305.5 85 Q324 90 338 101 Q352 112 360.5 130 Q369 148 369 174 L369 434 Q369 446 379 456 Q389 466 410 466 Q432 466 442 455.5 Q452 445 452 434 L452 174 Q452 132 438 99.5 Q424 67 399.5 45 Q375 23 342 11.5 Q309 0 270 0 L224 0 Z M379 542 Q359 542 346 555.5 Q333 569 333 587 Q333 610 346.5 621.5 Q360 633 377 633 Q395 633 409.5 622 Q424 611 424 587 Q424 568 411 555 Q398 542 379 542 Z M136 542 Q117 542 103.5 555.5 Q90 569 90 587 Q90 610 104 621.5 Q118 633 135 633 Q153 633 167 622 Q181 611 181 587 Q181 568 168.5 555 Q156 542 136 542 Z M249 539 Q237 525 219 525 Q205 525 198 534.5 Q191 544 191 552 Q191 562 198 573 L268 697 Q273 707 283 713 Q293 719 305 719 Q324 719 336.5 705.5 Q349 692 349 675 Q349 659 340 649 L249 539 Z " />
<glyph glyph-name="Euro" unicode="&#x20ac;" horiz-adv-x="486" d="M373 306 Q386 306 395 298.5 Q404 291 404 272 Q404 254 395 246 Q386 238 373 238 L157 238 L157 195 Q157 143 183 112 Q209 81 257 81 L434 81 Q471 81 471 41 Q471 0 434 0 L251 0 Q214 0 182 12 Q150 24 126.5 48.5 Q103 73 89.5 110.5 Q76 148 76 198 L76 238 L47 238 Q32 238 23 245 Q14 252 14 272 Q14 291 24 298.5 Q34 306 47 306 L373 306 Z M47 361 Q34 361 24 368 Q14 375 14 396 Q14 414 23 421.5 Q32 429 47 429 L76 429 L76 468 Q76 518 90.5 555.5 Q105 593 129.5 617.5 Q154 642 185.5 654.5 Q217 667 252 667 L434 667 Q471 667 471 627 Q471 587 434 587 L260 587 Q211 587 184 555 Q157 523 157 471 L157 429 L373 429 Q387 429 395.5 421.5 Q404 414 404 396 Q404 377 395 369 Q386 361 373 361 L47 361 Z " />
<glyph glyph-name="L" unicode="L" horiz-adv-x="484" d="M102 0 Q60 0 60 41 L60 632 Q60 672 102 672 Q123 672 132.5 663 Q142 654 142 632 L142 80 L434 80 Q472 80 472 41 Q472 0 434 0 L102 0 Z " />
<glyph glyph-name="K" unicode="K" horiz-adv-x="522" d="M271 385 L501 59 Q510 48 510 34 Q510 20 500 10 Q483 -4 467 -4 Q446 -4 432 15 L413 43 Q362 116 312 188 Q262 260 211 332 L141 264 L141 35 Q141 13 131.5 4 Q122 -5 101 -5 Q60 -5 60 35 L60 630 Q60 671 101 671 Q122 671 131.5 662 Q141 653 141 630 L141 371 L142 371 L435 652 Q453 670 471 670 Q482 670 496.5 659 Q511 648 511 630 Q511 613 500 604 L271 385 Z " />
<glyph glyph-name="acute" unicode="&#xb4;" horiz-adv-x="504" d="M243 539 Q231 525 213 525 Q199 525 192 534.5 Q185 544 185 552 Q185 562 192 573 L262 697 Q267 707 277 713 Q287 719 299 719 Q318 719 330.5 705.5 Q343 692 343 675 Q343 659 334 649 L243 539 Z " />
<glyph glyph-name="Ccedilla" unicode="&#xc7;" horiz-adv-x="501" d="M393 -128 Q393 -142 387 -156.5 Q381 -171 369 -183 Q357 -195 338.5 -202.5 Q320 -210 295 -210 Q285 -210 270.5 -208 Q256 -206 242.5 -202 Q229 -198 219.5 -191 Q210 -184 210 -173 Q210 -161 218 -153.5 Q226 -146 234 -146 Q240 -146 245 -149 Q260 -158 272 -160.5 Q284 -163 295 -163 Q317 -163 327 -153 Q337 -143 337 -130 Q337 -122 330.5 -110 Q324 -98 302 -98 L264 -98 Q250 -98 243 -91.5 Q236 -85 236 -74 Q236 -67 239 -59 L262 0 L225 0 Q188 0 156 12 Q124 24 100.5 48.5 Q77 73 63.5 110.5 Q50 148 50 198 L50 468 Q50 518 64.5 555.5 Q79 593 103.5 617.5 Q128 642 159.5 654.5 Q191 667 226 667 L435 667 Q473 667 473 627 Q473 587 435 587 L234 587 Q185 587 158 555 Q131 523 131 471 L131 195 Q131 143 157 111.5 Q183 80 231 80 L435 80 Q473 80 473 41 Q473 0 435 0 L306 0 L286 -52 L313 -52 Q349 -52 371 -72.5 Q393 -93 393 -128 Z " />
<glyph glyph-name="Ntilde" unicode="&#xd1;" horiz-adv-x="587" d="M455 0 Q438 0 430.5 5.5 Q423 11 416 24 L143 531 L141 531 L141 34 Q141 11 131.5 3.5 Q122 -4 101 -4 Q79 -4 69.5 4.5 Q60 13 60 34 L60 626 Q60 667 101 667 L133 667 Q151 667 159 659 Q167 651 175 638 Q243 512 308.5 389.5 Q374 267 443 140 L445 140 L445 632 Q445 655 454.5 663.5 Q464 672 485 672 Q527 672 527 632 L527 40 Q527 0 485 0 L455 0 Z M455 770 Q446 753 435 741.5 Q424 730 411.5 723 Q399 716 386.5 713 Q374 710 364 710 Q347 710 329 715.5 Q311 721 294 728 Q277 735 260 741.5 Q243 748 229 748 Q215 748 200 732 Q189 718 173.5 714 Q158 710 145 723 Q128 740 137 756 Q151 783 172.5 799 Q194 815 222 815 Q241 815 262.5 807.5 Q284 800 305 792 Q321 786 334 781 Q347 776 357 776 Q367 776 375.5 781.5 Q384 787 391 795 Q399 805 410.5 812.5 Q422 820 437 811 Q449 803 453.5 796.5 Q458 790 458 783 Q458 776 455 770 Z " />
<glyph glyph-name="Aring" unicode="&#xc5;" horiz-adv-x="547" d="M402 152 L143 152 L99 22 Q90 -4 64 -4 Q55 -4 46 -1 Q31 3 24 12 Q17 21 17 33 Q17 43 19 48 L215 629 Q222 649 230.5 658 Q239 667 259 667 L288 667 Q308 667 316.5 658 Q325 649 332 629 L528 48 Q531 40 531 33 Q531 10 505 0 Q494 -3 485 -3 Q457 -3 447 22 L402 152 Z M171 231 L376 231 L274 549 L272 549 L171 231 Z M180 765 Q180 808 208.5 834 Q237 860 275 860 Q312 860 340.5 834.5 Q369 809 369 765 Q369 721 340.5 695.5 Q312 670 275 670 Q256 670 238.5 676.5 Q221 683 208 695.5 Q195 708 187.5 725.5 Q180 743 180 765 Z M230 765 Q230 744 243.5 732.5 Q257 721 275 721 Q292 721 305.5 732.5 Q319 744 319 765 Q319 787 305.5 798.5 Q292 810 275 810 Q257 810 243.5 798.5 Q230 787 230 765 Z " />
<glyph glyph-name="cedilla" unicode="&#xb8;" horiz-adv-x="474" d="M378 -128 Q378 -142 372 -156.5 Q366 -171 354 -183 Q342 -195 323.5 -202.5 Q305 -210 280 -210 Q270 -210 255.5 -208 Q241 -206 227.5 -202 Q214 -198 204.5 -191 Q195 -184 195 -173 Q195 -161 203 -153.5 Q211 -146 219 -146 Q225 -146 230 -149 Q245 -158 257 -160.5 Q269 -163 280 -163 Q302 -163 312 -153 Q322 -143 322 -130 Q322 -122 315.5 -110 Q309 -98 287 -98 L249 -98 Q235 -98 228 -91.5 Q221 -85 221 -74 Q221 -67 224 -59 L253 16 L298 16 L271 -52 L298 -52 Q334 -52 356 -72.5 Q378 -93 378 -128 Z " />
<glyph glyph-name="circumflex" unicode="&#x2c6;" horiz-adv-x="490" d="M226 678 Q235 686 243.5 687 Q252 688 261 688 Q274 688 283 679 L399 576 Q406 571 412 564 Q418 557 418 549 Q418 538 411.5 531.5 Q405 525 397 519 Q389 514 379 514 Q368 514 361 520 L254 608 Q228 588 204 568.5 Q180 549 155 529 Q147 522 137 519 Q127 516 119 516 Q103 516 95.5 528 Q88 540 88 550 Q88 561 96 567 L226 678 Z " />
<glyph glyph-name="dotlessi" unicode="&#x131;" horiz-adv-x="306" d="M181 -5 Q159 -5 149.5 5 Q140 15 140 27 L140 384 L56 384 Q45 384 34 393.5 Q23 403 23 423 Q23 444 33.5 453 Q44 462 56 462 L181 462 Q202 462 212 451 Q222 440 222 428 L222 27 Q222 16 212.5 5.5 Q203 -5 181 -5 Z " />
<glyph glyph-name="tilde" unicode="&#x2dc;" horiz-adv-x="454" d="M387 590 Q378 573 367 561.5 Q356 550 343.5 543 Q331 536 318.5 533 Q306 530 296 530 Q279 530 261 535.5 Q243 541 226 548 Q209 555 192 561.5 Q175 568 161 568 Q147 568 132 552 Q121 538 105.5 534 Q90 530 77 543 Q60 560 69 576 Q83 603 104.5 619 Q126 635 154 635 Q173 635 194.5 627.5 Q216 620 237 612 Q253 606 266 601 Q279 596 289 596 Q299 596 307.5 601.5 Q316 607 323 615 Q331 625 342.5 632.5 Q354 640 369 631 Q381 623 385.5 616.5 Q390 610 390 603 Q390 596 387 590 Z " />
<glyph glyph-name="Omega" unicode="&#x3a9;" horiz-adv-x="569" d="M365 0 Q344 0 334.5 11.5 Q325 23 325 36 L325 64 Q325 81 331 87 Q337 93 355 101 Q392 117 413 146 Q434 175 434 218 L434 472 Q434 523 405.5 555.5 Q377 588 328 588 L244 588 Q196 588 167 555.5 Q138 523 138 472 L138 218 Q138 180 156 148.5 Q174 117 212 103 Q230 96 236 89 Q242 82 242 63 L242 36 Q242 31 239 25 Q237 15 228 7.5 Q219 0 202 0 L74 0 Q55 0 47 11 Q39 22 39 40 Q39 45 41 53 Q46 80 74 80 L123 80 Q84 103 70.5 139.5 Q57 176 57 225 L57 467 Q57 512 70.5 549 Q84 586 108.5 612 Q133 638 167 652.5 Q201 667 242 667 L330 667 Q373 667 407.5 652.5 Q442 638 466 612 Q490 586 502.5 549 Q515 512 515 467 L515 226 Q515 205 512 183.5 Q509 162 501 142.5 Q493 123 479.5 107 Q466 91 446 80 L496 80 Q515 80 523 69 Q531 58 531 40 Q531 36 529 28 Q524 0 496 0 L365 0 Z " />
<glyph glyph-name="numbersign" unicode="&#x23;" horiz-adv-x="486" d="M371 614 Q376 633 400 633 Q420 633 428 623.5 Q436 614 436 604 Q436 598 435 596 L394 451 L435 451 Q446 451 453.5 442.5 Q461 434 461 420 Q461 403 453 394 Q445 385 435 385 L374 385 L347 286 L401 286 Q412 286 420 277 Q428 268 428 254 Q428 237 420 228.5 Q412 220 402 220 L327 220 L272 31 Q267 14 244 14 Q224 14 215.5 22.5 Q207 31 207 42 Q207 46 209 54 L257 220 L156 220 L104 38 Q98 20 73 20 Q54 20 46.5 29.5 Q39 39 39 48 Q39 54 40 57 L87 220 L54 220 Q43 220 34 228 Q25 236 25 251 Q25 268 33.5 277 Q42 286 53 286 L106 286 L133 385 L85 385 Q74 385 65.5 393 Q57 401 57 418 Q57 435 65 443 Q73 451 84 451 L153 451 L201 619 Q207 638 230 638 Q250 638 258.5 629 Q267 620 267 610 Q267 607 266.5 604.5 Q266 602 265 599 L223 451 L324 451 L371 614 Z M176 286 L277 286 L304 385 L203 385 L176 286 Z " />
<glyph glyph-name="caron" unicode="&#x2c7;" horiz-adv-x="503" d="M98 633 Q90 639 90 650 Q90 660 97.5 672 Q105 684 121 684 Q129 684 139 681 Q149 678 157 671 Q182 651 206 631.5 Q230 612 256 592 L363 680 Q370 686 381 686 Q391 686 399 681 Q407 675 413.5 668.5 Q420 662 420 651 Q420 643 414 636 Q408 629 401 624 L285 521 Q276 512 263 512 Q254 512 245.5 513 Q237 514 228 522 L98 633 L98 633 Z " />
<glyph glyph-name="dotaccent" unicode="&#x2d9;" horiz-adv-x="503" d="M266 544 Q245 544 230 558.5 Q215 573 215 594 Q215 619 230 631.5 Q245 644 264 644 Q284 644 300 632 Q316 620 316 594 Q316 573 301.5 558.5 Q287 544 266 544 Z " />
<glyph glyph-name="ring" unicode="&#x2da;" horiz-adv-x="503" d="M231 593 Q231 572 244.5 560.5 Q258 549 276 549 Q293 549 306.5 560.5 Q320 572 320 593 Q320 615 306.5 626.5 Q293 638 276 638 Q258 638 244.5 626.5 Q231 615 231 593 Z M181 593 Q181 636 209.5 662 Q238 688 276 688 Q313 688 341.5 662.5 Q370 637 370 593 Q370 549 341.5 523.5 Q313 498 276 498 Q257 498 239.5 504.5 Q222 511 209 523.5 Q196 536 188.5 553.5 Q181 571 181 593 Z " />
<glyph glyph-name="ogonek" unicode="&#x2db;" horiz-adv-x="555" d="M418 23 L418 10 Q390 -19 375.5 -47 Q361 -75 361 -98 Q361 -118 373 -131 Q385 -144 414 -144 Q425 -144 441 -137 Q457 -130 468 -130 Q479 -130 486.5 -138.5 Q494 -147 494 -158 Q494 -170 483 -178.5 Q472 -187 457 -191.5 Q442 -196 428 -198 Q414 -200 408 -200 Q377 -200 356 -191 Q335 -182 322 -167.5 Q309 -153 303.5 -136.5 Q298 -120 298 -105 Q298 -76 313 -44 Q328 -12 363 23 L418 23 Z " />
<glyph glyph-name="hungarumlaut" unicode="&#x2dd;" horiz-adv-x="503" d="M229 539 Q217 525 199 525 Q185 525 178 534.5 Q171 544 171 552 Q171 562 178 573 L244 689 Q249 699 259 705 Q269 711 281 711 Q300 711 312.5 697.5 Q325 684 325 667 Q325 651 316 641 L229 539 Z M359 539 Q347 525 330 525 Q316 525 309 534 Q302 543 302 551 Q302 562 309 573 L375 689 Q380 699 390 705 Q400 711 412 711 Q430 711 442.5 697.5 Q455 684 455 667 Q455 651 446 641 L359 539 Z " />
<glyph glyph-name="breve" unicode="&#x2d8;" horiz-adv-x="503" d="M258 582 Q287 582 312 602.5 Q337 623 357 658 Q367 673 384 673 Q400 673 410 663 Q420 653 420 642 Q420 637 419 635 Q405 602 385.5 579.5 Q366 557 343.5 542.5 Q321 528 298.5 522 Q276 516 258 516 Q237 516 214.5 521.5 Q192 527 170.5 540 Q149 553 130.5 575.5 Q112 598 99 633 Q98 636 98 641 Q98 652 108 662.5 Q118 673 134 673 Q142 673 149 670 Q156 667 161 659 Q181 622 203 602 Q225 582 258 582 Z " />
<glyph glyph-name="Circumflex" unicode="&#xf6c0;" horiz-adv-x="547" d="M241 855 Q250 863 258.5 864 Q267 865 276 865 Q289 865 298 856 L414 760 Q421 755 427 748 Q433 741 433 733 Q433 722 426.5 715.5 Q420 709 412 703 Q404 698 394 698 Q383 698 376 704 L269 785 L170 713 Q162 706 152 703 Q142 700 134 700 Q118 700 110.5 712 Q103 724 103 734 Q103 745 111 751 L241 855 Z " />
<glyph glyph-name="commaaccent" unicode="&#xf6c3;" horiz-adv-x="555" d="M306 -218 Q302 -226 294 -233 Q286 -240 273 -240 Q256 -240 248.5 -229.5 Q241 -219 241 -209 Q241 -203 242 -200 L269 -82 Q272 -70 283.5 -61.5 Q295 -53 311 -53 Q333 -53 345 -66 Q357 -79 357 -95 Q357 -102 354 -106 L306 -218 Z " />
<glyph glyph-name="Acute" unicode="&#xf6c9;" horiz-adv-x="547" d="M260 701 Q252 699 246 699 Q235 699 224 706 Q213 713 213 727 Q213 737 218.5 744 Q224 751 232 756 L346 825 Q356 831 369 831 Q383 831 397 820 Q411 809 411 788 Q411 774 404 763.5 Q397 753 385 748 L260 701 Z " />
<glyph glyph-name="Caron" unicode="&#xf6ca;" horiz-adv-x="547" d="M117 804 Q109 810 109 821 Q109 831 116.5 843 Q124 855 140 855 Q148 855 158 852 Q168 849 176 842 L275 770 L382 851 Q389 857 400 857 Q410 857 418 852 Q426 846 432.5 839.5 Q439 833 439 822 Q439 814 433 807 Q427 800 420 795 L304 699 Q295 690 282 690 Q273 690 264.5 691 Q256 692 247 700 L117 804 Z " />
<glyph glyph-name="Dieresis" unicode="&#xf6cb;" horiz-adv-x="547" d="M368 704 Q348 704 335 717.5 Q322 731 322 750 Q322 773 336 784 Q350 795 367 795 Q385 795 399.5 784 Q414 773 414 750 Q414 730 400.5 717 Q387 704 368 704 Z M181 704 Q161 704 147.5 717.5 Q134 731 134 750 Q134 773 148 784 Q162 795 179 795 Q197 795 211.5 784 Q226 773 226 750 Q226 730 213 717 Q200 704 181 704 Z " />
<glyph glyph-name="DieresisAcute" unicode="&#xf6cc;" horiz-adv-x="547" d="M406 695 Q386 695 373 708.5 Q360 722 360 741 Q360 764 373.5 775 Q387 786 404 786 Q422 786 436.5 775 Q451 764 451 741 Q451 721 438 708 Q425 695 406 695 Z M151 695 Q131 695 117.5 708.5 Q104 722 104 741 Q104 764 118 775 Q132 786 149 786 Q167 786 181.5 775 Q196 764 196 741 Q196 721 183 708 Q170 695 151 695 Z M264 691 Q257 686 250.5 682.5 Q244 679 235 679 Q225 679 216 686 Q207 693 207 707 Q207 713 209.5 718.5 Q212 724 215 729 L288 840 Q296 848 304.5 853.5 Q313 859 324 859 Q337 859 352 849 Q367 839 367 815 Q367 798 356 787 L264 691 Z " />
<glyph glyph-name="DieresisGrave" unicode="&#xf6cd;" horiz-adv-x="547" d="M406 695 Q386 695 373 708.5 Q360 722 360 741 Q360 764 373.5 775 Q387 786 404 786 Q422 786 436.5 775 Q451 764 451 741 Q451 721 438 708 Q425 695 406 695 Z M151 695 Q131 695 117.5 708.5 Q104 722 104 741 Q104 764 118 775 Q132 786 149 786 Q167 786 181.5 775 Q196 764 196 741 Q196 721 183 708 Q170 695 151 695 Z M200 787 Q189 798 189 815 Q189 839 204 849 Q219 859 232 859 Q243 859 251.5 853.5 Q260 848 268 840 L341 729 Q344 724 346.5 718.5 Q349 713 349 707 Q349 693 340 686 Q331 679 321 679 Q312 679 305.5 682.5 Q299 686 292 691 L200 787 Z " />
<glyph glyph-name="Grave" unicode="&#xf6ce;" horiz-adv-x="547" d="M161 748 Q150 753 142.5 763.5 Q135 774 135 787 Q135 808 149.5 819.5 Q164 831 178 831 Q190 831 201 825 L314 756 Q322 751 328.5 744 Q335 737 335 727 Q335 713 323.5 706 Q312 699 301 699 Q296 699 286 701 L161 748 Z " />
<glyph glyph-name="Hungarumlaut" unicode="&#xf6cf;" horiz-adv-x="547" d="M211 699 Q206 697 200.5 695 Q195 693 189 693 Q178 693 168 700 Q158 707 158 721 Q158 729 163 735.5 Q168 742 173 747 L270 838 Q277 843 284.5 846 Q292 849 300 849 Q305 849 312 847 Q319 845 326 839.5 Q333 834 337.5 826 Q342 818 342 806 Q342 796 338 786.5 Q334 777 323 770 L211 699 Z M355 699 Q350 697 344.5 695 Q339 693 333 693 Q322 693 312 700 Q302 707 302 721 Q302 729 307 735.5 Q312 742 317 747 L414 838 Q421 843 428.5 846 Q436 849 444 849 Q449 849 456 847 Q463 845 470 839.5 Q477 834 481.5 826 Q486 818 486 806 Q486 796 482 786.5 Q478 777 467 770 L355 699 Z " />
<glyph glyph-name="Macron" unicode="&#xf6d0;" horiz-adv-x="547" d="M176 714 Q156 714 144 722 Q132 730 132 750 Q132 769 144 777 Q156 785 176 785 L372 785 Q392 785 404 777.5 Q416 770 416 750 Q416 730 404 722 Q392 714 372 714 L176 714 Z " />
<glyph glyph-name="cyrBreve" unicode="&#xf6d1;" horiz-adv-x="547" d="M270 769 Q299 769 324 789.5 Q349 810 369 845 Q379 860 396 860 Q412 860 422 850 Q432 840 432 829 Q432 824 431 822 Q417 789 397.5 766.5 Q378 744 355.5 729.5 Q333 715 310.5 709 Q288 703 270 703 Q249 703 226.5 708.5 Q204 714 182.5 727 Q161 740 142.5 762.5 Q124 785 111 820 Q110 823 110 828 Q110 839 120 849.5 Q130 860 146 860 Q154 860 161 857 Q168 854 173 846 Q193 809 215 789 Q237 769 270 769 Z " />
<glyph glyph-name="cyrbreve" unicode="&#xf6d4;" horiz-adv-x="503" d="M263 579 Q292 579 317 599.5 Q342 620 362 655 Q372 670 389 670 Q405 670 415 660 Q425 650 425 639 Q425 634 424 632 Q410 599 390.5 576.5 Q371 554 348.5 539.5 Q326 525 303.5 519 Q281 513 263 513 Q242 513 219.5 518.5 Q197 524 175.5 537 Q154 550 135.5 572.5 Q117 595 104 630 Q103 633 103 638 Q103 649 113 659.5 Q123 670 139 670 Q147 670 154 667 Q161 664 166 656 Q186 619 208 599 Q230 579 263 579 Z " />
<glyph glyph-name="macron" unicode="&#xaf;" horiz-adv-x="503" d="M154 527 Q135 527 122.5 535 Q110 543 110 563 Q110 582 122 590 Q134 598 154 598 L351 598 Q371 598 383 590.5 Q395 583 395 563 Q395 543 383 535 Q371 527 351 527 L154 527 Z " />
<glyph glyph-name="Agrave" unicode="&#xc0;" horiz-adv-x="547" d="M402 152 L143 152 L99 22 Q90 -4 64 -4 Q55 -4 46 -1 Q31 3 24 12 Q17 21 17 33 Q17 43 19 48 L215 629 Q222 649 230.5 658 Q239 667 259 667 L288 667 Q308 667 316.5 658 Q325 649 332 629 L528 48 Q531 40 531 33 Q531 10 505 0 Q494 -3 485 -3 Q457 -3 447 22 L402 152 Z M171 231 L376 231 L274 549 L272 549 L171 231 Z M161 748 Q150 753 142.5 763.5 Q135 774 135 787 Q135 808 149.5 819.5 Q164 831 178 831 Q190 831 201 825 L314 756 Q322 751 328.5 744 Q335 737 335 727 Q335 713 323.5 706 Q312 699 301 699 Q296 699 286 701 L161 748 Z " />
<glyph glyph-name="Aacute" unicode="&#xc1;" horiz-adv-x="547" d="M402 152 L143 152 L99 22 Q90 -4 64 -4 Q55 -4 46 -1 Q31 3 24 12 Q17 21 17 33 Q17 43 19 48 L215 629 Q222 649 230.5 658 Q239 667 259 667 L288 667 Q308 667 316.5 658 Q325 649 332 629 L528 48 Q531 40 531 33 Q531 10 505 0 Q494 -3 485 -3 Q457 -3 447 22 L402 152 Z M171 231 L376 231 L274 549 L272 549 L171 231 Z M260 701 Q252 699 246 699 Q235 699 224 706 Q213 713 213 727 Q213 737 218.5 744 Q224 751 232 756 L346 825 Q356 831 369 831 Q383 831 397 820 Q411 809 411 788 Q411 774 404 763.5 Q397 753 385 748 L260 701 Z " />
<glyph glyph-name="Acircumflex" unicode="&#xc2;" horiz-adv-x="547" d="M402 152 L143 152 L99 22 Q90 -4 64 -4 Q55 -4 46 -1 Q31 3 24 12 Q17 21 17 33 Q17 43 19 48 L215 629 Q222 649 230.5 658 Q239 667 259 667 L288 667 Q308 667 316.5 658 Q325 649 332 629 L528 48 Q531 40 531 33 Q531 10 505 0 Q494 -3 485 -3 Q457 -3 447 22 L402 152 Z M171 231 L376 231 L274 549 L272 549 L171 231 Z M241 855 Q250 863 258.5 864 Q267 865 276 865 Q289 865 298 856 L414 760 Q421 755 427 748 Q433 741 433 733 Q433 722 426.5 715.5 Q420 709 412 703 Q404 698 394 698 Q383 698 376 704 L269 785 L170 713 Q162 706 152 703 Q142 700 134 700 Q118 700 110.5 712 Q103 724 103 734 Q103 745 111 751 L241 855 Z " />
<glyph glyph-name="Atilde" unicode="&#xc3;" horiz-adv-x="547" d="M402 152 L143 152 L99 22 Q90 -4 64 -4 Q55 -4 46 -1 Q31 3 24 12 Q17 21 17 33 Q17 43 19 48 L215 629 Q222 649 230.5 658 Q239 667 259 667 L288 667 Q308 667 316.5 658 Q325 649 332 629 L528 48 Q531 40 531 33 Q531 10 505 0 Q494 -3 485 -3 Q457 -3 447 22 L402 152 Z M171 231 L376 231 L274 549 L272 549 L171 231 Z M428 786 Q419 769 408 757.5 Q397 746 384.5 739 Q372 732 359.5 729 Q347 726 337 726 Q320 726 302 731.5 Q284 737 267 744 Q250 751 233 757.5 Q216 764 202 764 Q188 764 173 748 Q162 734 146.5 730 Q131 726 118 739 Q101 756 110 772 Q124 799 145.5 815 Q167 831 195 831 Q214 831 235.5 823.5 Q257 816 278 808 Q294 802 307 797 Q320 792 330 792 Q340 792 348.5 797.5 Q357 803 364 811 Q372 821 383.5 828.5 Q395 836 410 827 Q422 819 426.5 812.5 Q431 806 431 799 Q431 792 428 786 Z " />
<glyph glyph-name="AE" unicode="&#xc6;" horiz-adv-x="821" d="M436 0 Q394 0 394 40 L394 188 L176 188 Q156 146 136.5 105 Q117 64 97 22 Q91 9 80.5 2.5 Q70 -4 59 -4 Q51 -4 42 -1 Q17 6 17 27 Q17 36 22 48 L299 629 Q309 649 319 658 Q329 667 349 667 L770 667 Q807 667 807 626 Q807 587 770 587 L476 587 L476 392 L726 392 Q762 392 762 353 Q762 313 726 313 L476 313 L476 80 L770 80 Q807 80 807 40 Q807 0 770 0 L436 0 Z M316 485 L215 266 L394 266 L394 586 L362 586 L316 485 Z " />
<glyph glyph-name="Egrave" unicode="&#xc8;" horiz-adv-x="494" d="M102 0 Q60 0 60 41 L60 627 Q60 667 102 667 L435 667 Q473 667 473 627 Q473 587 435 587 L142 587 L142 393 L392 393 Q428 393 428 353 Q428 314 392 314 L142 314 L142 80 L435 80 Q473 80 473 41 Q473 0 435 0 L102 0 Z M175 748 Q164 753 156.5 763.5 Q149 774 149 787 Q149 808 163.5 819.5 Q178 831 192 831 Q204 831 215 825 L328 756 Q336 751 342.5 744 Q349 737 349 727 Q349 713 337.5 706 Q326 699 315 699 Q310 699 300 701 L175 748 Z " />
<glyph glyph-name="Ecircumflex" unicode="&#xca;" horiz-adv-x="494" d="M102 0 Q60 0 60 41 L60 627 Q60 667 102 667 L435 667 Q473 667 473 627 Q473 587 435 587 L142 587 L142 393 L392 393 Q428 393 428 353 Q428 314 392 314 L142 314 L142 80 L435 80 Q473 80 473 41 Q473 0 435 0 L102 0 Z M234 855 Q243 863 251.5 864 Q260 865 269 865 Q282 865 291 856 L407 760 Q414 755 420 748 Q426 741 426 733 Q426 722 419.5 715.5 Q413 709 405 703 Q397 698 387 698 Q376 698 369 704 L262 785 L163 713 Q155 706 145 703 Q135 700 127 700 Q111 700 103.5 712 Q96 724 96 734 Q96 745 104 751 L234 855 Z " />
<glyph glyph-name="Edieresis" unicode="&#xcb;" horiz-adv-x="494" d="M102 0 Q60 0 60 41 L60 627 Q60 667 102 667 L435 667 Q473 667 473 627 Q473 587 435 587 L142 587 L142 393 L392 393 Q428 393 428 353 Q428 314 392 314 L142 314 L142 80 L435 80 Q473 80 473 41 Q473 0 435 0 L102 0 Z M359 704 Q339 704 326 717.5 Q313 731 313 750 Q313 773 327 784 Q341 795 358 795 Q376 795 390.5 784 Q405 773 405 750 Q405 730 391.5 717 Q378 704 359 704 Z M172 704 Q152 704 138.5 717.5 Q125 731 125 750 Q125 773 139 784 Q153 795 170 795 Q188 795 202.5 784 Q217 773 217 750 Q217 730 204 717 Q191 704 172 704 Z " />
<glyph glyph-name="Igrave" unicode="&#xcc;" horiz-adv-x="248" d="M125 -5 Q103 -5 93.5 4 Q84 13 84 35 L84 632 Q84 654 93.5 663 Q103 672 125 672 Q146 672 155.5 663.5 Q165 655 165 632 L165 35 Q165 12 155.5 3.5 Q146 -5 125 -5 Z M13 748 Q2 753 -5.5 763.5 Q-13 774 -13 787 Q-13 808 1.5 819.5 Q16 831 30 831 Q42 831 53 825 L166 756 Q174 751 180.5 744 Q187 737 187 727 Q187 713 175.5 706 Q164 699 153 699 Q148 699 138 701 L13 748 Z " />
<glyph glyph-name="Iacute" unicode="&#xcd;" horiz-adv-x="248" d="M125 -5 Q103 -5 93.5 4 Q84 13 84 35 L84 632 Q84 654 93.5 663 Q103 672 125 672 Q146 672 155.5 663.5 Q165 655 165 632 L165 35 Q165 12 155.5 3.5 Q146 -5 125 -5 Z M105 701 Q97 699 91 699 Q80 699 69 706 Q58 713 58 727 Q58 737 63.5 744 Q69 751 77 756 L191 825 Q201 831 214 831 Q228 831 242 820 Q256 809 256 788 Q256 774 249 763.5 Q242 753 230 748 L105 701 Z " />
<glyph glyph-name="Icircumflex" unicode="&#xce;" horiz-adv-x="248" d="M125 -5 Q103 -5 93.5 4 Q84 13 84 35 L84 632 Q84 654 93.5 663 Q103 672 125 672 Q146 672 155.5 663.5 Q165 655 165 632 L165 35 Q165 12 155.5 3.5 Q146 -5 125 -5 Z M96 855 Q105 863 113.5 864 Q122 865 131 865 Q144 865 153 856 L269 760 Q276 755 282 748 Q288 741 288 733 Q288 722 281.5 715.5 Q275 709 267 703 Q259 698 249 698 Q238 698 231 704 L124 785 L25 713 Q17 706 7 703 Q-3 700 -11 700 Q-27 700 -34.5 712 Q-42 724 -42 734 Q-42 745 -34 751 L96 855 Z " />
<glyph glyph-name="Idieresis" unicode="&#xcf;" horiz-adv-x="248" d="M125 -5 Q103 -5 93.5 4 Q84 13 84 35 L84 632 Q84 654 93.5 663 Q103 672 125 672 Q146 672 155.5 663.5 Q165 655 165 632 L165 35 Q165 12 155.5 3.5 Q146 -5 125 -5 Z M218 704 Q198 704 185 717.5 Q172 731 172 750 Q172 773 186 784 Q200 795 217 795 Q235 795 249.5 784 Q264 773 264 750 Q264 730 250.5 717 Q237 704 218 704 Z M31 704 Q11 704 -2.5 717.5 Q-16 731 -16 750 Q-16 773 -2 784 Q12 795 29 795 Q47 795 61.5 784 Q76 773 76 750 Q76 730 63 717 Q50 704 31 704 Z " />
<glyph glyph-name="Eth" unicode="&#xd0;" horiz-adv-x="590" d="M102 0 Q60 0 60 41 L60 302 L39 302 Q16 302 5 310 Q-6 318 -6 338 Q-6 358 5.5 366.5 Q17 375 39 375 L60 375 L60 627 Q60 667 102 667 L368 667 Q445 667 492.5 620 Q540 573 540 473 L540 199 Q540 149 526.5 112 Q513 75 489 50 Q465 25 433 12.5 Q401 0 364 0 L102 0 Z M142 302 L142 80 L348 80 Q406 80 432 111 Q458 142 458 195 L458 476 Q458 529 432 558.5 Q406 588 353 588 L142 588 L142 375 L280 375 Q302 375 314.5 367 Q327 359 327 339 Q327 319 315 310.5 Q303 302 280 302 L142 302 Z " />
<glyph glyph-name="Ograve" unicode="&#xd2;" horiz-adv-x="558" d="M323 667 Q363 667 397 654.5 Q431 642 456 616.5 Q481 591 494.5 553 Q508 515 508 465 L508 202 Q508 152 493.5 114 Q479 76 453.5 50.5 Q428 25 394.5 12.5 Q361 0 324 0 L234 0 Q197 0 163.5 12 Q130 24 105 48.5 Q80 73 65 110.5 Q50 148 50 198 L50 465 Q50 515 65 553 Q80 591 105.5 616.5 Q131 642 164.5 654.5 Q198 667 235 667 L323 667 Z M427 473 Q427 525 399.5 557.5 Q372 590 318 590 L239 590 Q188 590 159.5 557.5 Q131 525 131 473 L131 193 Q131 141 159.5 109 Q188 77 239 77 L318 77 Q370 77 398.5 110 Q427 143 427 194 L427 473 Z M186 748 Q175 753 167.5 763.5 Q160 774 160 787 Q160 808 174.5 819.5 Q189 831 203 831 Q215 831 226 825 L339 756 Q347 751 353.5 744 Q360 737 360 727 Q360 713 348.5 706 Q337 699 326 699 Q321 699 311 701 L186 748 Z " />
<glyph glyph-name="Oacute" unicode="&#xd3;" horiz-adv-x="558" d="M323 667 Q363 667 397 654.5 Q431 642 456 616.5 Q481 591 494.5 553 Q508 515 508 465 L508 202 Q508 152 493.5 114 Q479 76 453.5 50.5 Q428 25 394.5 12.5 Q361 0 324 0 L234 0 Q197 0 163.5 12 Q130 24 105 48.5 Q80 73 65 110.5 Q50 148 50 198 L50 465 Q50 515 65 553 Q80 591 105.5 616.5 Q131 642 164.5 654.5 Q198 667 235 667 L323 667 Z M427 473 Q427 525 399.5 557.5 Q372 590 318 590 L239 590 Q188 590 159.5 557.5 Q131 525 131 473 L131 193 Q131 141 159.5 109 Q188 77 239 77 L318 77 Q370 77 398.5 110 Q427 143 427 194 L427 473 Z M243 701 Q235 699 229 699 Q218 699 207 706 Q196 713 196 727 Q196 737 201.5 744 Q207 751 215 756 L329 825 Q339 831 352 831 Q366 831 380 820 Q394 809 394 788 Q394 774 387 763.5 Q380 753 368 748 L243 701 Z " />
<glyph glyph-name="Ocircumflex" unicode="&#xd4;" horiz-adv-x="558" d="M323 667 Q363 667 397 654.5 Q431 642 456 616.5 Q481 591 494.5 553 Q508 515 508 465 L508 202 Q508 152 493.5 114 Q479 76 453.5 50.5 Q428 25 394.5 12.5 Q361 0 324 0 L234 0 Q197 0 163.5 12 Q130 24 105 48.5 Q80 73 65 110.5 Q50 148 50 198 L50 465 Q50 515 65 553 Q80 591 105.5 616.5 Q131 642 164.5 654.5 Q198 667 235 667 L323 667 Z M427 473 Q427 525 399.5 557.5 Q372 590 318 590 L239 590 Q188 590 159.5 557.5 Q131 525 131 473 L131 193 Q131 141 159.5 109 Q188 77 239 77 L318 77 Q370 77 398.5 110 Q427 143 427 194 L427 473 Z M252 855 Q261 863 269.5 864 Q278 865 287 865 Q300 865 309 856 L425 760 Q432 755 438 748 Q444 741 444 733 Q444 722 437.5 715.5 Q431 709 423 703 Q415 698 405 698 Q394 698 387 704 L280 785 L181 713 Q173 706 163 703 Q153 700 145 700 Q129 700 121.5 712 Q114 724 114 734 Q114 745 122 751 L252 855 Z " />
<glyph glyph-name="Otilde" unicode="&#xd5;" horiz-adv-x="558" d="M323 667 Q363 667 397 654.5 Q431 642 456 616.5 Q481 591 494.5 553 Q508 515 508 465 L508 202 Q508 152 493.5 114 Q479 76 453.5 50.5 Q428 25 394.5 12.5 Q361 0 324 0 L234 0 Q197 0 163.5 12 Q130 24 105 48.5 Q80 73 65 110.5 Q50 148 50 198 L50 465 Q50 515 65 553 Q80 591 105.5 616.5 Q131 642 164.5 654.5 Q198 667 235 667 L323 667 Z M427 473 Q427 525 399.5 557.5 Q372 590 318 590 L239 590 Q188 590 159.5 557.5 Q131 525 131 473 L131 193 Q131 141 159.5 109 Q188 77 239 77 L318 77 Q370 77 398.5 110 Q427 143 427 194 L427 473 Z M439 770 Q430 753 419 741.5 Q408 730 395.5 723 Q383 716 370.5 713 Q358 710 348 710 Q331 710 313 715.5 Q295 721 278 728 Q261 735 244 741.5 Q227 748 213 748 Q199 748 184 732 Q173 718 157.5 714 Q142 710 129 723 Q112 740 121 756 Q135 783 156.5 799 Q178 815 206 815 Q225 815 246.5 807.5 Q268 800 289 792 Q305 786 318 781 Q331 776 341 776 Q351 776 359.5 781.5 Q368 787 375 795 Q383 805 394.5 812.5 Q406 820 421 811 Q433 803 437.5 796.5 Q442 790 442 783 Q442 776 439 770 Z " />
<glyph glyph-name="multiply" unicode="&#xd7;" horiz-adv-x="486" d="M95 420 Q82 435 82 447 Q82 453 86 460.5 Q90 468 96.5 474.5 Q103 481 110.5 485 Q118 489 125 489 Q139 489 151 476 L243 384 L338 479 Q353 494 365 494 Q371 494 378.5 489.5 Q386 485 392.5 478.5 Q399 472 403 464.5 Q407 457 407 451 Q407 438 393 424 L298 329 L390 237 Q403 224 403 211 Q403 204 398.5 196.5 Q394 189 387.5 182.5 Q381 176 373.5 171.5 Q366 167 360 167 Q348 167 334 181 L242 273 L147 179 Q133 165 120 165 Q107 165 92.5 179 Q78 193 78 207 Q78 221 92 233 L187 328 L95 420 Z " />
<glyph glyph-name="Oslash" unicode="&#xd8;" horiz-adv-x="558" d="M323 667 Q392 667 440 630 L460 660 Q465 669 477 669 Q490 669 498 661 Q506 653 506 645 Q506 639 501 631 L475 591 Q508 541 508 465 L508 201 Q508 151 493 113.5 Q478 76 453 50.5 Q428 25 394.5 12.5 Q361 0 324 0 L233 0 Q200 0 169.5 9 Q139 18 115 38 L95 7 Q89 -3 76 -3 Q66 -3 59 2 Q49 11 49 23 Q49 32 53 37 L80 79 Q50 126 50 198 L50 465 Q50 515 65 552.5 Q80 590 105 615.5 Q130 641 163.5 654 Q197 667 234 667 L323 667 Z M427 472 Q427 490 422 510 L161 108 Q190 76 239 76 L318 76 Q369 76 398 109.5 Q427 143 427 194 L427 472 Z M131 212 Q131 199 132 187 Q133 175 135 163 L395 561 Q366 590 318 590 L239 590 Q187 590 159 557 Q131 524 131 472 L131 212 Z " />
<glyph glyph-name="Ugrave" unicode="&#xd9;" horiz-adv-x="568" d="M54 630 Q54 643 58.5 650.5 Q63 658 69 662.5 Q75 667 82 668.5 Q89 670 95 670 Q100 670 107 668.5 Q114 667 120 662.5 Q126 658 130.5 650 Q135 642 135 630 L135 195 Q135 172 142.5 151 Q150 130 163.5 114 Q177 98 197 89 Q217 80 241 80 L326 80 Q376 80 404.5 112 Q433 144 433 195 L433 630 Q433 643 437 651 Q441 659 447 663 Q453 667 460 668.5 Q467 670 473 670 Q478 670 485 668.5 Q492 667 498 662.5 Q504 658 508.5 650.5 Q513 643 513 630 L513 199 Q513 149 498.5 111.5 Q484 74 459.5 49.5 Q435 25 401.5 12.5 Q368 0 331 0 L236 0 Q198 0 165 12 Q132 24 107.5 48 Q83 72 68.5 108.5 Q54 145 54 195 L54 630 Z M199 748 Q188 753 180.5 763.5 Q173 774 173 787 Q173 808 187.5 819.5 Q202 831 216 831 Q228 831 239 825 L352 756 Q360 751 366.5 744 Q373 737 373 727 Q373 713 361.5 706 Q350 699 339 699 Q334 699 324 701 L199 748 Z " />
<glyph glyph-name="Uacute" unicode="&#xda;" horiz-adv-x="568" d="M54 630 Q54 643 58.5 650.5 Q63 658 69 662.5 Q75 667 82 668.5 Q89 670 95 670 Q100 670 107 668.5 Q114 667 120 662.5 Q126 658 130.5 650 Q135 642 135 630 L135 195 Q135 172 142.5 151 Q150 130 163.5 114 Q177 98 197 89 Q217 80 241 80 L326 80 Q376 80 404.5 112 Q433 144 433 195 L433 630 Q433 643 437 651 Q441 659 447 663 Q453 667 460 668.5 Q467 670 473 670 Q478 670 485 668.5 Q492 667 498 662.5 Q504 658 508.5 650.5 Q513 643 513 630 L513 199 Q513 149 498.5 111.5 Q484 74 459.5 49.5 Q435 25 401.5 12.5 Q368 0 331 0 L236 0 Q198 0 165 12 Q132 24 107.5 48 Q83 72 68.5 108.5 Q54 145 54 195 L54 630 Z M265 701 Q257 699 251 699 Q240 699 229 706 Q218 713 218 727 Q218 737 223.5 744 Q229 751 237 756 L351 825 Q361 831 374 831 Q388 831 402 820 Q416 809 416 788 Q416 774 409 763.5 Q402 753 390 748 L265 701 Z " />
<glyph glyph-name="Ucircumflex" unicode="&#xdb;" horiz-adv-x="568" d="M54 630 Q54 643 58.5 650.5 Q63 658 69 662.5 Q75 667 82 668.5 Q89 670 95 670 Q100 670 107 668.5 Q114 667 120 662.5 Q126 658 130.5 650 Q135 642 135 630 L135 195 Q135 172 142.5 151 Q150 130 163.5 114 Q177 98 197 89 Q217 80 241 80 L326 80 Q376 80 404.5 112 Q433 144 433 195 L433 630 Q433 643 437 651 Q441 659 447 663 Q453 667 460 668.5 Q467 670 473 670 Q478 670 485 668.5 Q492 667 498 662.5 Q504 658 508.5 650.5 Q513 643 513 630 L513 199 Q513 149 498.5 111.5 Q484 74 459.5 49.5 Q435 25 401.5 12.5 Q368 0 331 0 L236 0 Q198 0 165 12 Q132 24 107.5 48 Q83 72 68.5 108.5 Q54 145 54 195 L54 630 Z M257 855 Q266 863 274.5 864 Q283 865 292 865 Q305 865 314 856 L430 760 Q437 755 443 748 Q449 741 449 733 Q449 722 442.5 715.5 Q436 709 428 703 Q420 698 410 698 Q399 698 392 704 L285 785 L186 713 Q178 706 168 703 Q158 700 150 700 Q134 700 126.5 712 Q119 724 119 734 Q119 745 127 751 L257 855 Z " />
<glyph glyph-name="Yacute" unicode="&#xdd;" horiz-adv-x="509" d="M256 362 L258 362 Q300 434 341.5 506 Q383 578 425 650 Q431 661 439.5 665.5 Q448 670 457 670 Q479 670 490.5 656 Q502 642 502 631 Q502 621 498 614 Q447 529 397.5 444.5 Q348 360 298 275 L298 33 Q298 11 288.5 3 Q279 -5 257 -5 Q217 -5 217 33 L217 276 L11 616 Q7 623 7 630 Q7 645 21 657.5 Q35 670 54 670 Q73 670 84 650 L256 362 Z M233 701 Q225 699 219 699 Q208 699 197 706 Q186 713 186 727 Q186 737 191.5 744 Q197 751 205 756 L319 825 Q329 831 342 831 Q356 831 370 820 Q384 809 384 788 Q384 774 377 763.5 Q370 753 358 748 L233 701 Z " />
<glyph glyph-name="Thorn" unicode="&#xde;" horiz-adv-x="547" d="M60 632 Q60 654 69 663 Q78 672 100 672 Q122 672 131.5 663.5 Q141 655 141 632 L141 537 L315 537 Q408 537 459.5 484 Q511 431 511 338 Q511 243 463.5 188 Q416 133 319 133 L141 133 L141 34 Q141 11 131.5 3 Q122 -5 100 -5 Q78 -5 69 3.5 Q60 12 60 34 L60 632 Z M141 457 L141 213 L325 213 Q354 213 374 224 Q394 235 406 253 Q418 271 423.5 293 Q429 315 429 338 Q429 369 420.5 392 Q412 415 397.5 429 Q383 443 364.5 450 Q346 457 325 457 L141 457 Z " />
<glyph glyph-name="aacute" unicode="&#xe1;" horiz-adv-x="503" d="M454 44 Q454 29 444 14.5 Q434 0 415 0 L163 0 Q137 0 114.5 9.5 Q92 19 75 37 Q58 55 48 80 Q38 105 38 137 L38 149 Q38 173 46.5 196.5 Q55 220 72 238.5 Q89 257 113.5 268 Q138 279 171 279 L372 279 L372 296 Q372 334 348.5 359 Q325 384 278 384 L144 384 Q133 384 122.5 392 Q112 400 112 420 Q112 441 122.5 451 Q133 461 144 461 L281 461 Q366 461 410 417 Q454 373 454 290 L454 44 Z M192 205 Q165 205 142.5 192 Q120 179 120 147 L120 140 Q120 108 141 93.5 Q162 79 191 79 L372 79 L372 205 L192 205 Z M243 539 Q231 525 213 525 Q199 525 192 534.5 Q185 544 185 552 Q185 562 192 573 L262 697 Q267 707 277 713 Q287 719 299 719 Q318 719 330.5 705.5 Q343 692 343 675 Q343 659 334 649 L243 539 Z " />
<glyph glyph-name="atilde" unicode="&#xe3;" horiz-adv-x="503" d="M454 44 Q454 29 444 14.5 Q434 0 415 0 L163 0 Q137 0 114.5 9.5 Q92 19 75 37 Q58 55 48 80 Q38 105 38 137 L38 149 Q38 173 46.5 196.5 Q55 220 72 238.5 Q89 257 113.5 268 Q138 279 171 279 L372 279 L372 296 Q372 334 348.5 359 Q325 384 278 384 L144 384 Q133 384 122.5 392 Q112 400 112 420 Q112 441 122.5 451 Q133 461 144 461 L281 461 Q366 461 410 417 Q454 373 454 290 L454 44 Z M192 205 Q165 205 142.5 192 Q120 179 120 147 L120 140 Q120 108 141 93.5 Q162 79 191 79 L372 79 L372 205 L192 205 Z M424 590 Q415 573 404 561.5 Q393 550 380.5 543 Q368 536 355.5 533 Q343 530 333 530 Q316 530 298 535.5 Q280 541 263 548 Q246 555 229 561.5 Q212 568 198 568 Q184 568 169 552 Q158 538 142.5 534 Q127 530 114 543 Q97 560 106 576 Q120 603 141.5 619 Q163 635 191 635 Q210 635 231.5 627.5 Q253 620 274 612 Q290 606 303 601 Q316 596 326 596 Q336 596 344.5 601.5 Q353 607 360 615 Q368 625 379.5 632.5 Q391 640 406 631 Q418 623 422.5 616.5 Q427 610 427 603 Q427 596 424 590 Z " />
<glyph glyph-name="aring" unicode="&#xe5;" horiz-adv-x="503" d="M454 44 Q454 29 444 14.5 Q434 0 415 0 L163 0 Q137 0 114.5 9.5 Q92 19 75 37 Q58 55 48 80 Q38 105 38 137 L38 149 Q38 173 46.5 196.5 Q55 220 72 238.5 Q89 257 113.5 268 Q138 279 171 279 L372 279 L372 296 Q372 334 348.5 359 Q325 384 278 384 L144 384 Q133 384 122.5 392 Q112 400 112 420 Q112 441 122.5 451 Q133 461 144 461 L281 461 Q366 461 410 417 Q454 373 454 290 L454 44 Z M192 205 Q165 205 142.5 192 Q120 179 120 147 L120 140 Q120 108 141 93.5 Q162 79 191 79 L372 79 L372 205 L192 205 Z M209 593 Q209 572 222.5 560.5 Q236 549 254 549 Q271 549 284.5 560.5 Q298 572 298 593 Q298 615 284.5 626.5 Q271 638 254 638 Q236 638 222.5 626.5 Q209 615 209 593 Z M159 593 Q159 636 187.5 662 Q216 688 254 688 Q291 688 319.5 662.5 Q348 637 348 593 Q348 549 319.5 523.5 Q291 498 254 498 Q235 498 217.5 504.5 Q200 511 187 523.5 Q174 536 166.5 553.5 Q159 571 159 593 Z " />
<glyph glyph-name="ae" unicode="&#xe6;" horiz-adv-x="808" d="M163 0 Q137 0 114.5 9 Q92 18 75 35 Q58 52 48 76.5 Q38 101 38 133 L38 147 Q38 172 46.5 194 Q55 216 72 233 Q89 250 113.5 260 Q138 270 171 270 L371 270 L371 303 Q371 327 362 342 Q353 357 338 365.5 Q323 374 303.5 377.5 Q284 381 263 381 L163 381 Q154 381 145 381.5 Q136 382 128.5 386 Q121 390 116.5 397.5 Q112 405 112 419 Q112 447 127.5 454 Q143 461 163 461 L265 461 Q286 461 308.5 458.5 Q331 456 351.5 449.5 Q372 443 389 432 Q406 421 417 405 Q443 434 481.5 448 Q520 462 566 462 L593 462 Q629 462 661.5 450.5 Q694 439 718 416.5 Q742 394 756.5 360.5 Q771 327 771 284 L771 234 Q771 223 765.5 211.5 Q760 200 743 195 Q728 191 705 191 L454 191 L454 170 Q454 123 483 100 Q512 77 554 77 L697 77 Q711 77 720.5 68 Q730 59 730 40 Q730 26 725 18 Q720 10 712 6 Q704 2 694.5 1 Q685 0 675 0 L547 0 Q505 0 471.5 14.5 Q438 29 415 58 Q392 29 356.5 14.5 Q321 0 279 0 L163 0 Z M372 201 L185 201 Q159 201 139.5 187.5 Q120 174 120 146 L120 136 Q120 109 138.5 93 Q157 77 185 77 L272 77 Q312 77 341 98 Q370 119 372 166 L372 201 Z M689 273 Q689 326 664 353.5 Q639 381 590 381 L551 381 Q512 381 483 357.5 Q454 334 454 284 L454 259 L689 259 L689 273 Z " />
<glyph glyph-name="igrave" unicode="&#xec;" horiz-adv-x="306" d="M181 -5 Q159 -5 149.5 5 Q140 15 140 27 L140 384 L56 384 Q45 384 34 393.5 Q23 403 23 423 Q23 444 33.5 453 Q44 462 56 462 L181 462 Q202 462 212 451 Q222 440 222 428 L222 27 Q222 16 212.5 5.5 Q203 -5 181 -5 Z M59 649 Q50 659 50 675 Q50 692 63 705.5 Q76 719 94 719 Q106 719 116 713 Q126 707 131 697 L201 573 Q208 562 208 552 Q208 544 201 534.5 Q194 525 180 525 Q162 525 150 539 L59 649 Z " />
<glyph glyph-name="iacute" unicode="&#xed;" horiz-adv-x="306" d="M181 -5 Q159 -5 149.5 5 Q140 15 140 27 L140 384 L56 384 Q45 384 34 393.5 Q23 403 23 423 Q23 444 33.5 453 Q44 462 56 462 L181 462 Q202 462 212 451 Q222 440 222 428 L222 27 Q222 16 212.5 5.5 Q203 -5 181 -5 Z M175 539 Q163 525 145 525 Q131 525 124 534.5 Q117 544 117 552 Q117 562 124 573 L194 697 Q199 707 209 713 Q219 719 231 719 Q250 719 262.5 705.5 Q275 692 275 675 Q275 659 266 649 L175 539 Z " />
<glyph glyph-name="eth" unicode="&#xf0;" horiz-adv-x="508" d="M417 603 Q435 577 442 546.5 Q449 516 449 482 L449 173 Q449 130 434 97.5 Q419 65 394 43.5 Q369 22 335.5 11 Q302 0 265 0 L220 0 Q182 0 150 11 Q118 22 94 43.5 Q70 65 56.5 97.5 Q43 130 43 173 L43 266 Q43 353 91.5 398 Q140 443 225 443 L260 443 Q290 443 319 434.5 Q348 426 367 406 L367 486 Q367 504 364 520 Q361 536 353 550 L294 504 Q281 493 270 493 Q260 493 251 503.5 Q242 514 242 525 Q242 539 256 551 L307 589 Q287 600 259 605.5 Q231 611 192 613 Q181 614 169.5 621 Q158 628 158 651 Q158 673 172 681 Q186 689 199 689 Q259 689 303 675.5 Q347 662 373 644 L416 678 Q430 689 440 689 Q451 689 460 679 Q469 669 469 658 Q469 644 454 632 L417 603 Z M223 364 Q175 364 150 339.5 Q125 315 125 264 L125 174 Q125 125 152.5 101.5 Q180 78 223 78 L268 78 Q310 78 338.5 101.5 Q367 125 367 174 L367 268 Q367 318 338.5 341 Q310 364 268 364 L223 364 Z " />
<glyph glyph-name="ntilde" unicode="&#xf1;" horiz-adv-x="504" d="M417 -5 Q394 -5 385 4.5 Q376 14 376 27 L376 286 Q376 312 367.5 330.5 Q359 349 344.5 360.5 Q330 372 311.5 377 Q293 382 273 382 L132 382 L132 27 Q132 15 123 5 Q114 -5 91 -5 Q70 -5 60 5 Q50 15 50 27 L50 417 Q50 430 59.5 446 Q69 462 95 462 L277 462 Q361 462 409 418 Q457 374 457 286 L457 27 Q457 15 448 5 Q439 -5 417 -5 Z M399 590 Q390 573 379 561.5 Q368 550 355.5 543 Q343 536 330.5 533 Q318 530 308 530 Q291 530 273 535.5 Q255 541 238 548 Q221 555 204 561.5 Q187 568 173 568 Q159 568 144 552 Q133 538 117.5 534 Q102 530 89 543 Q72 560 81 576 Q95 603 116.5 619 Q138 635 166 635 Q185 635 206.5 627.5 Q228 620 249 612 Q265 606 278 601 Q291 596 301 596 Q311 596 319.5 601.5 Q328 607 335 615 Q343 625 354.5 632.5 Q366 640 381 631 Q393 623 397.5 616.5 Q402 610 402 603 Q402 596 399 590 Z " />
<glyph glyph-name="ograve" unicode="&#xf2;" horiz-adv-x="492" d="M223 386 Q180 386 152.5 361.5 Q125 337 125 286 L125 172 Q125 123 152.5 99.5 Q180 76 223 76 L268 76 Q310 76 338.5 99.5 Q367 123 367 172 L367 286 Q367 338 339 362 Q311 386 268 386 L223 386 Z M218 0 Q182 0 150.5 11 Q119 22 95 43.5 Q71 65 57 97.5 Q43 130 43 173 L43 286 Q43 329 56.5 361.5 Q70 394 94 416.5 Q118 439 151.5 450.5 Q185 462 225 462 L270 462 Q309 462 342 451 Q375 440 398.5 417.5 Q422 395 435.5 362 Q449 329 449 286 L449 173 Q449 130 435 97.5 Q421 65 396.5 43.5 Q372 22 339.5 11 Q307 0 271 0 L218 0 Z M151 649 Q142 659 142 675 Q142 692 155 705.5 Q168 719 186 719 Q198 719 208 713 Q218 707 223 697 L293 573 Q300 562 300 552 Q300 544 293 534.5 Q286 525 272 525 Q254 525 242 539 L151 649 Z " />
<glyph glyph-name="oacute" unicode="&#xf3;" horiz-adv-x="492" d="M223 386 Q180 386 152.5 361.5 Q125 337 125 286 L125 172 Q125 123 152.5 99.5 Q180 76 223 76 L268 76 Q310 76 338.5 99.5 Q367 123 367 172 L367 286 Q367 338 339 362 Q311 386 268 386 L223 386 Z M218 0 Q182 0 150.5 11 Q119 22 95 43.5 Q71 65 57 97.5 Q43 130 43 173 L43 286 Q43 329 56.5 361.5 Q70 394 94 416.5 Q118 439 151.5 450.5 Q185 462 225 462 L270 462 Q309 462 342 451 Q375 440 398.5 417.5 Q422 395 435.5 362 Q449 329 449 286 L449 173 Q449 130 435 97.5 Q421 65 396.5 43.5 Q372 22 339.5 11 Q307 0 271 0 L218 0 Z M249 539 Q237 525 219 525 Q205 525 198 534.5 Q191 544 191 552 Q191 562 198 573 L268 697 Q273 707 283 713 Q293 719 305 719 Q324 719 336.5 705.5 Q349 692 349 675 Q349 659 340 649 L249 539 Z " />
<glyph glyph-name="divide" unicode="&#xf7;" horiz-adv-x="486" d="M69 290 Q30 290 30 328 Q30 348 40.5 357.5 Q51 367 69 367 L416 367 Q456 367 456 328 Q456 290 416 290 L69 290 Z M243 121 Q220 121 205 137.5 Q190 154 190 175 Q190 201 205.5 215 Q221 229 241 229 Q263 229 279.5 216 Q296 203 296 175 Q296 152 281 136.5 Q266 121 243 121 Z M244 427 Q222 427 206 443 Q190 459 190 481 Q190 507 206.5 521 Q223 535 243 535 Q264 535 280 522 Q296 509 296 481 Q296 458 281.5 442.5 Q267 427 244 427 Z " />
<glyph glyph-name="oslash" unicode="&#xf8;" horiz-adv-x="492" d="M218 0 Q165 0 125 22 L93 -20 Q87 -30 74 -30 Q64 -30 57 -25 Q47 -16 47 -4 Q47 5 51 10 L85 53 Q65 75 54 105 Q43 135 43 173 L43 286 Q43 329 56.5 361.5 Q70 394 94 416.5 Q118 439 151.5 450.5 Q185 462 225 462 L270 462 Q335 462 380 432 L417 480 Q422 489 434 489 Q447 489 455 481 Q463 473 463 465 Q463 459 458 451 L416 397 Q449 353 449 286 L449 173 Q449 130 435 97.5 Q421 65 396.5 43.5 Q372 22 339.5 11 Q307 0 271 0 L218 0 Z M223 386 Q180 386 152.5 361.5 Q125 337 125 286 L125 172 Q125 141 137 120 L330 368 Q306 386 268 386 L223 386 Z M367 286 Q367 308 361 326 L174 85 Q195 76 223 76 L268 76 Q310 76 338.5 99.5 Q367 123 367 172 L367 286 Z " />
<glyph glyph-name="uacute" unicode="&#xfa;" horiz-adv-x="503" d="M87 468 Q108 468 118.5 457.5 Q129 447 129 436 L129 176 Q129 150 137.5 131.5 Q146 113 160 101.5 Q174 90 192.5 85 Q211 80 231 80 L371 80 L371 434 Q371 445 380.5 455.5 Q390 466 412 466 Q432 466 442.5 456 Q453 446 453 434 L453 45 Q453 32 443.5 16 Q434 0 408 0 L227 0 Q144 0 95 44 Q46 88 46 176 L46 436 Q46 447 55.5 457.5 Q65 468 87 468 Z M262 539 Q250 525 232 525 Q218 525 211 534.5 Q204 544 204 552 Q204 562 211 573 L281 697 Q286 707 296 713 Q306 719 318 719 Q337 719 349.5 705.5 Q362 692 362 675 Q362 659 353 649 L262 539 Z " />
<glyph glyph-name="yacute" unicode="&#xfd;" horiz-adv-x="505" d="M453 -31 Q453 -75 439 -107 Q425 -139 400.5 -161 Q376 -183 343 -193.5 Q310 -204 272 -204 L125 -204 Q114 -204 103.5 -194 Q93 -184 93 -163 Q93 -143 103.5 -134.5 Q114 -126 126 -126 L271 -126 Q313 -126 342 -102.5 Q371 -79 371 -29 L371 0 L225 0 Q186 0 153 11 Q120 22 96 44 Q72 66 58.5 99 Q45 132 45 176 L45 435 Q45 448 54.5 458 Q64 468 85 468 Q105 468 116 457.5 Q127 447 127 435 L127 176 Q127 150 135.5 131.5 Q144 113 158 101.5 Q172 90 190 85 Q208 80 228 80 L371 80 L371 435 Q371 447 381 457.5 Q391 468 412 468 Q432 468 442.5 458 Q453 448 453 435 L453 -31 Z M253 539 Q241 525 223 525 Q209 525 202 534.5 Q195 544 195 552 Q195 562 202 573 L272 697 Q277 707 287 713 Q297 719 309 719 Q328 719 340.5 705.5 Q353 692 353 675 Q353 659 344 649 L253 539 Z " />
<glyph glyph-name="thorn" unicode="&#xfe;" horiz-adv-x="497" d="M127 462 L274 462 Q355 462 404.5 418.5 Q454 375 454 290 L454 176 Q454 132 440.5 99.5 Q427 67 403 44.5 Q379 22 346.5 11 Q314 0 277 0 L127 0 L127 -186 Q127 -200 117.5 -209 Q108 -218 87 -218 Q66 -218 55.5 -209.5 Q45 -201 45 -187 L45 665 Q45 679 55 688 Q65 697 86 697 Q107 697 117 687.5 Q127 678 127 664 L127 462 Z M373 288 Q373 337 345 360.5 Q317 384 274 384 L127 384 L127 78 L274 78 Q316 78 344.5 102 Q373 126 373 177 L373 288 Z " />
<glyph glyph-name="ydieresis" unicode="&#xff;" horiz-adv-x="505" d="M453 -31 Q453 -75 439 -107 Q425 -139 400.5 -161 Q376 -183 343 -193.5 Q310 -204 272 -204 L125 -204 Q114 -204 103.5 -194 Q93 -184 93 -163 Q93 -143 103.5 -134.5 Q114 -126 126 -126 L271 -126 Q313 -126 342 -102.5 Q371 -79 371 -29 L371 0 L225 0 Q186 0 153 11 Q120 22 96 44 Q72 66 58.5 99 Q45 132 45 176 L45 435 Q45 448 54.5 458 Q64 468 85 468 Q105 468 116 457.5 Q127 447 127 435 L127 176 Q127 150 135.5 131.5 Q144 113 158 101.5 Q172 90 190 85 Q208 80 228 80 L371 80 L371 435 Q371 447 381 457.5 Q391 468 412 468 Q432 468 442.5 458 Q453 448 453 435 L453 -31 Z M349 542 Q329 542 316 555.5 Q303 569 303 587 Q303 610 317 621.5 Q331 633 348 633 Q366 633 380.5 622 Q395 611 395 587 Q395 568 381.5 555 Q368 542 349 542 Z M162 542 Q142 542 128.5 555.5 Q115 569 115 587 Q115 610 129 621.5 Q143 633 160 633 Q178 633 192.5 622 Q207 611 207 587 Q207 568 194 555 Q181 542 162 542 Z " />
<glyph glyph-name="Amacron" unicode="&#x100;" horiz-adv-x="547" d="M402 152 L143 152 L99 22 Q90 -4 64 -4 Q55 -4 46 -1 Q31 3 24 12 Q17 21 17 33 Q17 43 19 48 L215 629 Q222 649 230.5 658 Q239 667 259 667 L288 667 Q308 667 316.5 658 Q325 649 332 629 L528 48 Q531 40 531 33 Q531 10 505 0 Q494 -3 485 -3 Q457 -3 447 22 L402 152 Z M171 231 L376 231 L274 549 L272 549 L171 231 Z M176 714 Q156 714 144 722 Q132 730 132 750 Q132 769 144 777 Q156 785 176 785 L372 785 Q392 785 404 777.5 Q416 770 416 750 Q416 730 404 722 Q392 714 372 714 L176 714 Z " />
<glyph glyph-name="amacron" unicode="&#x101;" horiz-adv-x="503" d="M454 44 Q454 29 444 14.5 Q434 0 415 0 L163 0 Q137 0 114.5 9.5 Q92 19 75 37 Q58 55 48 80 Q38 105 38 137 L38 149 Q38 173 46.5 196.5 Q55 220 72 238.5 Q89 257 113.5 268 Q138 279 171 279 L372 279 L372 296 Q372 334 348.5 359 Q325 384 278 384 L144 384 Q133 384 122.5 392 Q112 400 112 420 Q112 441 122.5 451 Q133 461 144 461 L281 461 Q366 461 410 417 Q454 373 454 290 L454 44 Z M192 205 Q165 205 142.5 192 Q120 179 120 147 L120 140 Q120 108 141 93.5 Q162 79 191 79 L372 79 L372 205 L192 205 Z M175 527 Q156 527 143.5 535 Q131 543 131 563 Q131 582 143 590 Q155 598 175 598 L372 598 Q392 598 404 590.5 Q416 583 416 563 Q416 543 404 535 Q392 527 372 527 L175 527 Z " />
<glyph glyph-name="Abreve" unicode="&#x102;" horiz-adv-x="547" d="M402 152 L143 152 L99 22 Q90 -4 64 -4 Q55 -4 46 -1 Q31 3 24 12 Q17 21 17 33 Q17 43 19 48 L215 629 Q222 649 230.5 658 Q239 667 259 667 L288 667 Q308 667 316.5 658 Q325 649 332 629 L528 48 Q531 40 531 33 Q531 10 505 0 Q494 -3 485 -3 Q457 -3 447 22 L402 152 Z M171 231 L376 231 L274 549 L272 549 L171 231 Z M272 769 Q301 769 326 789.5 Q351 810 371 845 Q381 860 398 860 Q414 860 424 850 Q434 840 434 829 Q434 824 433 822 Q419 789 399.5 766.5 Q380 744 357.5 729.5 Q335 715 312.5 709 Q290 703 272 703 Q251 703 228.5 708.5 Q206 714 184.5 727 Q163 740 144.5 762.5 Q126 785 113 820 Q112 823 112 828 Q112 839 122 849.5 Q132 860 148 860 Q156 860 163 857 Q170 854 175 846 Q195 809 217 789 Q239 769 272 769 Z " />
<glyph glyph-name="abreve" unicode="&#x103;" horiz-adv-x="503" d="M454 44 Q454 29 444 14.5 Q434 0 415 0 L163 0 Q137 0 114.5 9.5 Q92 19 75 37 Q58 55 48 80 Q38 105 38 137 L38 149 Q38 173 46.5 196.5 Q55 220 72 238.5 Q89 257 113.5 268 Q138 279 171 279 L372 279 L372 296 Q372 334 348.5 359 Q325 384 278 384 L144 384 Q133 384 122.5 392 Q112 400 112 420 Q112 441 122.5 451 Q133 461 144 461 L281 461 Q366 461 410 417 Q454 373 454 290 L454 44 Z M192 205 Q165 205 142.5 192 Q120 179 120 147 L120 140 Q120 108 141 93.5 Q162 79 191 79 L372 79 L372 205 L192 205 Z M257 582 Q286 582 311 602.5 Q336 623 356 658 Q366 673 383 673 Q399 673 409 663 Q419 653 419 642 Q419 637 418 635 Q404 602 384.5 579.5 Q365 557 342.5 542.5 Q320 528 297.5 522 Q275 516 257 516 Q236 516 213.5 521.5 Q191 527 169.5 540 Q148 553 129.5 575.5 Q111 598 98 633 Q97 636 97 641 Q97 652 107 662.5 Q117 673 133 673 Q141 673 148 670 Q155 667 160 659 Q180 622 202 602 Q224 582 257 582 Z " />
<glyph glyph-name="Aogonek" unicode="&#x104;" horiz-adv-x="547" d="M402 152 L143 152 L99 22 Q90 -4 64 -4 Q55 -4 46 -1 Q31 3 24 12 Q17 21 17 33 Q17 43 19 48 L215 629 Q222 649 230.5 658 Q239 667 259 667 L288 667 Q308 667 316.5 658 Q325 649 332 629 L528 48 Q531 40 531 33 Q531 20 522 10 Q494 -19 479.5 -47 Q465 -75 465 -98 Q465 -118 477 -131 Q489 -144 518 -144 Q529 -144 545 -137 Q561 -130 572 -130 Q583 -130 590.5 -138.5 Q598 -147 598 -158 Q598 -170 587 -178.5 Q576 -187 561 -191.5 Q546 -196 532 -198 Q518 -200 512 -200 Q481 -200 460 -191 Q439 -182 426 -167.5 Q413 -153 407.5 -136.5 Q402 -120 402 -105 Q402 -79 413.5 -50 Q425 -21 454 10 Q450 14 447 22 L402 152 Z M171 231 L376 231 L274 549 L272 549 L171 231 Z " />
<glyph glyph-name="aogonek" unicode="&#x105;" horiz-adv-x="503" d="M454 44 Q454 33 449 23 Q444 13 435 6 Q383 -51 383 -97 Q383 -117 395 -130 Q407 -143 436 -143 Q447 -143 463 -136 Q479 -129 490 -129 Q501 -129 508.5 -137.5 Q516 -146 516 -157 Q516 -169 505 -177.5 Q494 -186 479 -190.5 Q464 -195 450 -197 Q436 -199 430 -199 Q399 -199 378 -190 Q357 -181 344 -166.5 Q331 -152 325.5 -135.5 Q320 -119 320 -104 Q320 -80 330 -54 Q340 -28 363 0 L163 0 Q137 0 114.5 9.5 Q92 19 75 37 Q58 55 48 80 Q38 105 38 137 L38 149 Q38 173 46.5 196.5 Q55 220 72 238.5 Q89 257 113.5 268 Q138 279 171 279 L372 279 L372 296 Q372 334 348.5 359 Q325 384 278 384 L144 384 Q133 384 122.5 392 Q112 400 112 420 Q112 441 122.5 451 Q133 461 144 461 L281 461 Q366 461 410 417 Q454 373 454 290 L454 44 Z M192 205 Q165 205 142.5 192 Q120 179 120 147 L120 140 Q120 108 141 93.5 Q162 79 191 79 L372 79 L372 205 L192 205 Z " />
<glyph glyph-name="Cacute" unicode="&#x106;" horiz-adv-x="501" d="M225 0 Q188 0 156 12 Q124 24 100.5 48.5 Q77 73 63.5 110.5 Q50 148 50 198 L50 468 Q50 518 64.5 555.5 Q79 593 103.5 617.5 Q128 642 159.5 654.5 Q191 667 226 667 L435 667 Q473 667 473 627 Q473 587 435 587 L234 587 Q185 587 158 555 Q131 523 131 471 L131 195 Q131 143 157 111.5 Q183 80 231 80 L435 80 Q473 80 473 41 Q473 0 435 0 L225 0 Z M250 701 Q242 699 236 699 Q225 699 214 706 Q203 713 203 727 Q203 737 208.5 744 Q214 751 222 756 L336 825 Q346 831 359 831 Q373 831 387 820 Q401 809 401 788 Q401 774 394 763.5 Q387 753 375 748 L250 701 Z " />
<glyph glyph-name="cacute" unicode="&#x107;" horiz-adv-x="413" d="M223 0 Q183 0 150 11 Q117 22 93 43.5 Q69 65 56 97.5 Q43 130 43 173 L43 286 Q43 329 56.5 362 Q70 395 94 417.5 Q118 440 150.5 451 Q183 462 221 462 L355 462 Q365 462 376 451.5 Q387 441 387 421 Q387 400 376.5 390.5 Q366 381 355 381 L224 381 Q181 381 153 356 Q125 331 125 283 L125 176 Q125 128 153 104 Q181 80 224 80 L360 80 Q371 80 381.5 70.5 Q392 61 392 40 Q392 20 381 10 Q370 0 359 0 L223 0 Z M238 539 Q226 525 208 525 Q194 525 187 534.5 Q180 544 180 552 Q180 562 187 573 L257 697 Q262 707 272 713 Q282 719 294 719 Q313 719 325.5 705.5 Q338 692 338 675 Q338 659 329 649 L238 539 Z " />
<glyph glyph-name="Ccircumflex" unicode="&#x108;" horiz-adv-x="501" d="M225 0 Q188 0 156 12 Q124 24 100.5 48.5 Q77 73 63.5 110.5 Q50 148 50 198 L50 468 Q50 518 64.5 555.5 Q79 593 103.5 617.5 Q128 642 159.5 654.5 Q191 667 226 667 L435 667 Q473 667 473 627 Q473 587 435 587 L234 587 Q185 587 158 555 Q131 523 131 471 L131 195 Q131 143 157 111.5 Q183 80 231 80 L435 80 Q473 80 473 41 Q473 0 435 0 L225 0 Z M247 855 Q256 863 264.5 864 Q273 865 282 865 Q295 865 304 856 L420 760 Q427 755 433 748 Q439 741 439 733 Q439 722 432.5 715.5 Q426 709 418 703 Q410 698 400 698 Q389 698 382 704 L275 785 L176 713 Q168 706 158 703 Q148 700 140 700 Q124 700 116.5 712 Q109 724 109 734 Q109 745 117 751 L247 855 Z " />
<glyph glyph-name="ccircumflex" unicode="&#x109;" horiz-adv-x="413" d="M223 0 Q183 0 150 11 Q117 22 93 43.5 Q69 65 56 97.5 Q43 130 43 173 L43 286 Q43 329 56.5 362 Q70 395 94 417.5 Q118 440 150.5 451 Q183 462 221 462 L355 462 Q365 462 376 451.5 Q387 441 387 421 Q387 400 376.5 390.5 Q366 381 355 381 L224 381 Q181 381 153 356 Q125 331 125 283 L125 176 Q125 128 153 104 Q181 80 224 80 L360 80 Q371 80 381.5 70.5 Q392 61 392 40 Q392 20 381 10 Q370 0 359 0 L223 0 Z M197 678 Q206 686 214.5 687 Q223 688 232 688 Q245 688 254 679 L370 576 Q377 571 383 564 Q389 557 389 549 Q389 538 382.5 531.5 Q376 525 368 519 Q360 514 350 514 Q339 514 332 520 L225 608 Q199 588 175 568.5 Q151 549 126 529 Q118 522 108 519 Q98 516 90 516 Q74 516 66.5 528 Q59 540 59 550 Q59 561 67 567 L197 678 Z " />
<glyph glyph-name="Cdotaccent" unicode="&#x10a;" horiz-adv-x="501" d="M225 0 Q188 0 156 12 Q124 24 100.5 48.5 Q77 73 63.5 110.5 Q50 148 50 198 L50 468 Q50 518 64.5 555.5 Q79 593 103.5 617.5 Q128 642 159.5 654.5 Q191 667 226 667 L435 667 Q473 667 473 627 Q473 587 435 587 L234 587 Q185 587 158 555 Q131 523 131 471 L131 195 Q131 143 157 111.5 Q183 80 231 80 L435 80 Q473 80 473 41 Q473 0 435 0 L225 0 Z M295 714 Q274 714 259 728.5 Q244 743 244 764 Q244 789 259 801.5 Q274 814 293 814 Q313 814 329 802 Q345 790 345 764 Q345 743 330.5 728.5 Q316 714 295 714 Z " />
<glyph glyph-name="cdotaccent" unicode="&#x10b;" horiz-adv-x="413" d="M223 0 Q183 0 150 11 Q117 22 93 43.5 Q69 65 56 97.5 Q43 130 43 173 L43 286 Q43 329 56.5 362 Q70 395 94 417.5 Q118 440 150.5 451 Q183 462 221 462 L355 462 Q365 462 376 451.5 Q387 441 387 421 Q387 400 376.5 390.5 Q366 381 355 381 L224 381 Q181 381 153 356 Q125 331 125 283 L125 176 Q125 128 153 104 Q181 80 224 80 L360 80 Q371 80 381.5 70.5 Q392 61 392 40 Q392 20 381 10 Q370 0 359 0 L223 0 Z M243 544 Q222 544 207 558.5 Q192 573 192 594 Q192 619 207 631.5 Q222 644 241 644 Q261 644 277 632 Q293 620 293 594 Q293 573 278.5 558.5 Q264 544 243 544 Z " />
<glyph glyph-name="Ccaron" unicode="&#x10c;" horiz-adv-x="501" d="M225 0 Q188 0 156 12 Q124 24 100.5 48.5 Q77 73 63.5 110.5 Q50 148 50 198 L50 468 Q50 518 64.5 555.5 Q79 593 103.5 617.5 Q128 642 159.5 654.5 Q191 667 226 667 L435 667 Q473 667 473 627 Q473 587 435 587 L234 587 Q185 587 158 555 Q131 523 131 471 L131 195 Q131 143 157 111.5 Q183 80 231 80 L435 80 Q473 80 473 41 Q473 0 435 0 L225 0 Z M127 804 Q119 810 119 821 Q119 831 126.5 843 Q134 855 150 855 Q158 855 168 852 Q178 849 186 842 L285 770 L392 851 Q399 857 410 857 Q420 857 428 852 Q436 846 442.5 839.5 Q449 833 449 822 Q449 814 443 807 Q437 800 430 795 L314 699 Q305 690 292 690 Q283 690 274.5 691 Q266 692 257 700 L127 804 Z " />
<glyph glyph-name="ccaron" unicode="&#x10d;" horiz-adv-x="413" d="M223 0 Q183 0 150 11 Q117 22 93 43.5 Q69 65 56 97.5 Q43 130 43 173 L43 286 Q43 329 56.5 362 Q70 395 94 417.5 Q118 440 150.5 451 Q183 462 221 462 L355 462 Q365 462 376 451.5 Q387 441 387 421 Q387 400 376.5 390.5 Q366 381 355 381 L224 381 Q181 381 153 356 Q125 331 125 283 L125 176 Q125 128 153 104 Q181 80 224 80 L360 80 Q371 80 381.5 70.5 Q392 61 392 40 Q392 20 381 10 Q370 0 359 0 L223 0 Z M71 633 Q63 639 63 650 Q63 660 70.5 672 Q78 684 94 684 Q102 684 112 681 Q122 678 130 671 Q155 651 179 631.5 Q203 612 229 592 L336 680 Q343 686 354 686 Q364 686 372 681 Q380 675 386.5 668.5 Q393 662 393 651 Q393 643 387 636 Q381 629 374 624 L258 521 Q249 512 236 512 Q227 512 218.5 513 Q210 514 201 522 L71 633 Z " />
<glyph glyph-name="Dcaron" unicode="&#x10e;" horiz-adv-x="590" d="M458 476 Q458 529 432 558.5 Q406 588 353 588 L142 588 L142 80 L348 80 Q406 80 432 111 Q458 142 458 195 L458 476 Z M102 0 Q60 0 60 41 L60 627 Q60 667 102 667 L368 667 Q445 667 492.5 620 Q540 573 540 473 L540 199 Q540 149 526.5 112 Q513 75 489 50 Q465 25 433 12.5 Q401 0 364 0 L102 0 Z M129 804 Q121 810 121 821 Q121 831 128.5 843 Q136 855 152 855 Q160 855 170 852 Q180 849 188 842 L287 770 L394 851 Q401 857 412 857 Q422 857 430 852 Q438 846 444.5 839.5 Q451 833 451 822 Q451 814 445 807 Q439 800 432 795 L316 699 Q307 690 294 690 Q285 690 276.5 691 Q268 692 259 700 L129 804 Z " />
<glyph glyph-name="dcaron" unicode="&#x10f;" horiz-adv-x="608" d="M564 529 Q560 521 552 514 Q544 507 531 507 Q514 507 506.5 517.5 Q499 528 499 538 Q499 544 500 547 L527 665 Q530 677 541.5 685.5 Q553 694 569 694 Q591 694 603 681 Q615 668 615 652 Q615 645 612 641 L564 529 Z M124 174 Q124 125 152.5 102.5 Q181 80 223 80 L370 80 L370 382 L223 382 Q180 382 152 359 Q124 336 124 285 L124 174 Z M223 0 Q183 0 150 11 Q117 22 93 43.5 Q69 65 55.5 97 Q42 129 42 171 L42 287 Q42 330 55.5 363 Q69 396 93 418.5 Q117 441 149.5 452 Q182 463 220 463 L370 463 L370 665 Q370 676 379 686.5 Q388 697 410 697 Q431 697 441.5 686.5 Q452 676 452 665 L452 45 Q452 31 442.5 15.5 Q433 0 413 0 L223 0 Z " />
<glyph glyph-name="Dcroat" unicode="&#x110;" horiz-adv-x="590" d="M102 0 Q60 0 60 41 L60 302 L39 302 Q16 302 5 310 Q-6 318 -6 338 Q-6 358 5.5 366.5 Q17 375 39 375 L60 375 L60 627 Q60 667 102 667 L368 667 Q445 667 492.5 620 Q540 573 540 473 L540 199 Q540 149 526.5 112 Q513 75 489 50 Q465 25 433 12.5 Q401 0 364 0 L102 0 Z M142 302 L142 80 L348 80 Q406 80 432 111 Q458 142 458 195 L458 476 Q458 529 432 558.5 Q406 588 353 588 L142 588 L142 375 L280 375 Q302 375 314.5 367 Q327 359 327 339 Q327 319 315 310.5 Q303 302 280 302 L142 302 Z " />
<glyph glyph-name="dcroat" unicode="&#x111;" horiz-adv-x="502" d="M223 0 Q183 0 150 11 Q117 22 93 43.5 Q69 65 55.5 97 Q42 129 42 171 L42 274 Q42 317 55.5 350 Q69 383 93 405.5 Q117 428 149.5 439 Q182 450 220 450 L370 450 L370 515 L198 515 Q178 515 170.5 522.5 Q163 530 163 549 Q163 568 171.5 575.5 Q180 583 198 583 L370 583 L370 665 Q370 676 379 686.5 Q388 697 410 697 Q431 697 441.5 686.5 Q452 676 452 665 L452 583 L468 583 Q487 583 497 575.5 Q507 568 507 549 Q507 530 497.5 522.5 Q488 515 468 515 L452 515 L452 45 Q452 31 442.5 15.5 Q433 0 413 0 L223 0 Z M124 174 Q124 125 152.5 102.5 Q181 80 223 80 L370 80 L370 369 L223 369 Q180 369 152 346 Q124 323 124 272 L124 174 Z " />
<glyph glyph-name="Emacron" unicode="&#x112;" horiz-adv-x="494" d="M102 0 Q60 0 60 41 L60 627 Q60 667 102 667 L435 667 Q473 667 473 627 Q473 587 435 587 L142 587 L142 393 L392 393 Q428 393 428 353 Q428 314 392 314 L142 314 L142 80 L435 80 Q473 80 473 41 Q473 0 435 0 L102 0 Z M170 714 Q150 714 138 722 Q126 730 126 750 Q126 769 138 777 Q150 785 170 785 L366 785 Q386 785 398 777.5 Q410 770 410 750 Q410 730 398 722 Q386 714 366 714 L170 714 Z " />
<glyph glyph-name="emacron" unicode="&#x113;" horiz-adv-x="477" d="M124 190 L124 169 Q124 126 152 101.5 Q180 77 224 77 L364 77 Q376 77 386.5 69 Q397 61 397 40 Q397 20 386 10 Q375 0 364 0 L218 0 Q180 0 148 11.5 Q116 23 92.5 44.5 Q69 66 55.5 98 Q42 130 42 172 L42 284 Q42 326 56.5 359.5 Q71 393 95.5 415.5 Q120 438 153.5 450 Q187 462 226 462 L261 462 Q297 462 329 450.5 Q361 439 385.5 416.5 Q410 394 424.5 360.5 Q439 327 439 284 L439 234 Q439 221 429.5 205.5 Q420 190 394 190 L124 190 Z M357 284 Q357 335 328 358 Q299 381 257 381 L222 381 Q183 381 153.5 357.5 Q124 334 124 284 L124 258 L357 258 L357 284 Z M143 527 Q124 527 111.5 535 Q99 543 99 563 Q99 582 111 590 Q123 598 143 598 L340 598 Q360 598 372 590.5 Q384 583 384 563 Q384 543 372 535 Q360 527 340 527 L143 527 Z " />
<glyph glyph-name="Ebreve" unicode="&#x114;" horiz-adv-x="494" d="M102 0 Q60 0 60 41 L60 627 Q60 667 102 667 L435 667 Q473 667 473 627 Q473 587 435 587 L142 587 L142 393 L392 393 Q428 393 428 353 Q428 314 392 314 L142 314 L142 80 L435 80 Q473 80 473 41 Q473 0 435 0 L102 0 Z M279 769 Q308 769 333 789.5 Q358 810 378 845 Q388 860 405 860 Q421 860 431 850 Q441 840 441 829 Q441 824 440 822 Q426 789 406.5 766.5 Q387 744 364.5 729.5 Q342 715 319.5 709 Q297 703 279 703 Q258 703 235.5 708.5 Q213 714 191.5 727 Q170 740 151.5 762.5 Q133 785 120 820 Q119 823 119 828 Q119 839 129 849.5 Q139 860 155 860 Q163 860 170 857 Q177 854 182 846 Q202 809 224 789 Q246 769 279 769 Z " />
<glyph glyph-name="ebreve" unicode="&#x115;" horiz-adv-x="477" d="M124 190 L124 169 Q124 126 152 101.5 Q180 77 224 77 L364 77 Q376 77 386.5 69 Q397 61 397 40 Q397 20 386 10 Q375 0 364 0 L218 0 Q180 0 148 11.5 Q116 23 92.5 44.5 Q69 66 55.5 98 Q42 130 42 172 L42 284 Q42 326 56.5 359.5 Q71 393 95.5 415.5 Q120 438 153.5 450 Q187 462 226 462 L261 462 Q297 462 329 450.5 Q361 439 385.5 416.5 Q410 394 424.5 360.5 Q439 327 439 284 L439 234 Q439 221 429.5 205.5 Q420 190 394 190 L124 190 Z M357 284 Q357 335 328 358 Q299 381 257 381 L222 381 Q183 381 153.5 357.5 Q124 334 124 284 L124 258 L357 258 L357 284 Z M242 582 Q271 582 296 602.5 Q321 623 341 658 Q351 673 368 673 Q384 673 394 663 Q404 653 404 642 Q404 637 403 635 Q389 602 369.5 579.5 Q350 557 327.5 542.5 Q305 528 282.5 522 Q260 516 242 516 Q221 516 198.5 521.5 Q176 527 154.5 540 Q133 553 114.5 575.5 Q96 598 83 633 Q82 636 82 641 Q82 652 92 662.5 Q102 673 118 673 Q126 673 133 670 Q140 667 145 659 Q165 622 187 602 Q209 582 242 582 Z " />
<glyph glyph-name="Edotaccent" unicode="&#x116;" horiz-adv-x="494" d="M102 0 Q60 0 60 41 L60 627 Q60 667 102 667 L435 667 Q473 667 473 627 Q473 587 435 587 L142 587 L142 393 L392 393 Q428 393 428 353 Q428 314 392 314 L142 314 L142 80 L435 80 Q473 80 473 41 Q473 0 435 0 L102 0 Z M273 714 Q252 714 237 728.5 Q222 743 222 764 Q222 789 237 801.5 Q252 814 271 814 Q291 814 307 802 Q323 790 323 764 Q323 743 308.5 728.5 Q294 714 273 714 Z " />
<glyph glyph-name="edotaccent" unicode="&#x117;" horiz-adv-x="477" d="M124 190 L124 169 Q124 126 152 101.5 Q180 77 224 77 L364 77 Q376 77 386.5 69 Q397 61 397 40 Q397 20 386 10 Q375 0 364 0 L218 0 Q180 0 148 11.5 Q116 23 92.5 44.5 Q69 66 55.5 98 Q42 130 42 172 L42 284 Q42 326 56.5 359.5 Q71 393 95.5 415.5 Q120 438 153.5 450 Q187 462 226 462 L261 462 Q297 462 329 450.5 Q361 439 385.5 416.5 Q410 394 424.5 360.5 Q439 327 439 284 L439 234 Q439 221 429.5 205.5 Q420 190 394 190 L124 190 Z M357 284 Q357 335 328 358 Q299 381 257 381 L222 381 Q183 381 153.5 357.5 Q124 334 124 284 L124 258 L357 258 L357 284 Z M246 544 Q225 544 210 558.5 Q195 573 195 594 Q195 619 210 631.5 Q225 644 244 644 Q264 644 280 632 Q296 620 296 594 Q296 573 281.5 558.5 Q267 544 246 544 Z " />
<glyph glyph-name="Eogonek" unicode="&#x118;" horiz-adv-x="494" d="M473 41 Q473 13 455 4 Q427 -25 413 -52.5 Q399 -80 399 -103 Q399 -123 411 -136 Q423 -149 452 -149 Q463 -149 479 -142 Q495 -135 506 -135 Q517 -135 524.5 -143.5 Q532 -152 532 -163 Q532 -175 521 -183.5 Q510 -192 495 -196.5 Q480 -201 466 -203 Q452 -205 446 -205 Q415 -205 394 -196 Q373 -187 360 -172.5 Q347 -158 341.5 -141.5 Q336 -125 336 -110 Q336 -85 346.5 -57 Q357 -29 383 0 L102 0 Q60 0 60 41 L60 627 Q60 667 102 667 L435 667 Q473 667 473 627 Q473 587 435 587 L142 587 L142 393 L392 393 Q428 393 428 353 Q428 314 392 314 L142 314 L142 80 L435 80 Q473 80 473 41 Z " />
<glyph glyph-name="eogonek" unicode="&#x119;" horiz-adv-x="477" d="M124 190 L124 169 Q124 126 152 101.5 Q180 77 224 77 L364 77 Q376 77 386.5 69 Q397 61 397 40 Q397 21 386 10 Q358 -19 343.5 -47 Q329 -75 329 -98 Q329 -118 341 -131 Q353 -144 382 -144 Q393 -144 409 -137 Q425 -130 436 -130 Q447 -130 454.5 -138.5 Q462 -147 462 -158 Q462 -170 451 -178.5 Q440 -187 425 -191.5 Q410 -196 396 -198 Q382 -200 376 -200 Q345 -200 324 -191 Q303 -182 290 -167.5 Q277 -153 271.5 -136.5 Q266 -120 266 -105 Q266 -81 276 -54.5 Q286 -28 309 0 L218 0 Q180 0 148 11.5 Q116 23 92.5 44.5 Q69 66 55.5 98 Q42 130 42 172 L42 284 Q42 326 56.5 359.5 Q71 393 95.5 415.5 Q120 438 153.5 450 Q187 462 226 462 L261 462 Q297 462 329 450.5 Q361 439 385.5 416.5 Q410 394 424.5 360.5 Q439 327 439 284 L439 234 Q439 221 429.5 205.5 Q420 190 394 190 L124 190 Z M357 284 Q357 335 328 358 Q299 381 257 381 L222 381 Q183 381 153.5 357.5 Q124 334 124 284 L124 258 L357 258 L357 284 Z " />
<glyph glyph-name="Ecaron" unicode="&#x11a;" horiz-adv-x="494" d="M102 0 Q60 0 60 41 L60 627 Q60 667 102 667 L435 667 Q473 667 473 627 Q473 587 435 587 L142 587 L142 393 L392 393 Q428 393 428 353 Q428 314 392 314 L142 314 L142 80 L435 80 Q473 80 473 41 Q473 0 435 0 L102 0 Z M105 804 Q97 810 97 821 Q97 831 104.5 843 Q112 855 128 855 Q136 855 146 852 Q156 849 164 842 L263 770 L370 851 Q377 857 388 857 Q398 857 406 852 Q414 846 420.5 839.5 Q427 833 427 822 Q427 814 421 807 Q415 800 408 795 L292 699 Q283 690 270 690 Q261 690 252.5 691 Q244 692 235 700 L105 804 Z " />
<glyph glyph-name="ecaron" unicode="&#x11b;" horiz-adv-x="477" d="M124 190 L124 169 Q124 126 152 101.5 Q180 77 224 77 L364 77 Q376 77 386.5 69 Q397 61 397 40 Q397 20 386 10 Q375 0 364 0 L218 0 Q180 0 148 11.5 Q116 23 92.5 44.5 Q69 66 55.5 98 Q42 130 42 172 L42 284 Q42 326 56.5 359.5 Q71 393 95.5 415.5 Q120 438 153.5 450 Q187 462 226 462 L261 462 Q297 462 329 450.5 Q361 439 385.5 416.5 Q410 394 424.5 360.5 Q439 327 439 284 L439 234 Q439 221 429.5 205.5 Q420 190 394 190 L124 190 Z M81 633 Q73 639 73 650 Q73 660 80.5 672 Q88 684 104 684 Q112 684 122 681 Q132 678 140 671 Q165 651 189 631.5 Q213 612 239 592 L346 680 Q353 686 364 686 Q374 686 382 681 Q390 675 396.5 668.5 Q403 662 403 651 Q403 643 397 636 Q391 629 384 624 L268 521 Q259 512 246 512 Q237 512 228.5 513 Q220 514 211 522 L81 633 Z M357 284 Q357 335 328 358 Q299 381 257 381 L222 381 Q183 381 153.5 357.5 Q124 334 124 284 L124 258 L357 258 L357 284 Z " />
<glyph glyph-name="Gcircumflex" unicode="&#x11c;" horiz-adv-x="555" d="M226 0 Q189 0 157 12.5 Q125 25 101 50 Q77 75 63.5 112 Q50 149 50 199 L50 468 Q50 518 65 555.5 Q80 593 104.5 617.5 Q129 642 161 654.5 Q193 667 226 667 L448 667 Q486 667 486 627 Q486 587 448 587 L239 587 Q187 587 159.5 555.5 Q132 524 132 471 L132 195 Q132 142 158 111 Q184 80 237 80 L428 80 L428 313 L325 313 Q288 313 288 354 Q288 393 325 393 L469 393 Q489 393 499.5 386 Q510 379 510 354 L510 41 Q510 20 501 10 Q492 0 471 0 L226 0 Z M245 855 Q254 863 262.5 864 Q271 865 280 865 Q293 865 302 856 L418 760 Q425 755 431 748 Q437 741 437 733 Q437 722 430.5 715.5 Q424 709 416 703 Q408 698 398 698 Q387 698 380 704 L273 785 L174 713 Q166 706 156 703 Q146 700 138 700 Q122 700 114.5 712 Q107 724 107 734 Q107 745 115 751 L245 855 Z " />
<glyph glyph-name="gcircumflex" unicode="&#x11d;" horiz-adv-x="502" d="M452 -32 Q452 -74 438.5 -106 Q425 -138 401 -159.5 Q377 -181 344 -192.5 Q311 -204 272 -204 L125 -204 Q114 -204 103 -194 Q92 -184 92 -164 Q92 -143 103.5 -134.5 Q115 -126 125 -126 L271 -126 Q313 -126 341.5 -103.5 Q370 -81 370 -30 L370 0 L220 0 Q182 0 149.5 11 Q117 22 93 44 Q69 66 55.5 98.5 Q42 131 42 175 L42 290 Q42 332 56 364.5 Q70 397 94.5 418.5 Q119 440 152 451 Q185 462 223 462 L412 462 Q432 462 442.5 447 Q453 432 453 418 L452 -32 Z M124 178 Q124 127 152 104 Q180 81 223 81 L370 81 L370 384 L223 384 Q181 384 152.5 360.5 Q124 337 124 288 L124 178 Z M219 678 Q228 686 236.5 687 Q245 688 254 688 Q267 688 276 679 L392 576 Q399 571 405 564 Q411 557 411 549 Q411 538 404.5 531.5 Q398 525 390 519 Q382 514 372 514 Q361 514 354 520 L247 608 Q221 588 197 568.5 Q173 549 148 529 Q140 522 130 519 Q120 516 112 516 Q96 516 88.5 528 Q81 540 81 550 Q81 561 89 567 L219 678 Z " />
<glyph glyph-name="Gbreve" unicode="&#x11e;" horiz-adv-x="555" d="M226 0 Q189 0 157 12.5 Q125 25 101 50 Q77 75 63.5 112 Q50 149 50 199 L50 468 Q50 518 65 555.5 Q80 593 104.5 617.5 Q129 642 161 654.5 Q193 667 226 667 L448 667 Q486 667 486 627 Q486 587 448 587 L239 587 Q187 587 159.5 555.5 Q132 524 132 471 L132 195 Q132 142 158 111 Q184 80 237 80 L428 80 L428 313 L325 313 Q288 313 288 354 Q288 393 325 393 L469 393 Q489 393 499.5 386 Q510 379 510 354 L510 41 Q510 20 501 10 Q492 0 471 0 L226 0 Z M291 769 Q320 769 345 789.5 Q370 810 390 845 Q400 860 417 860 Q433 860 443 850 Q453 840 453 829 Q453 824 452 822 Q438 789 418.5 766.5 Q399 744 376.5 729.5 Q354 715 331.5 709 Q309 703 291 703 Q270 703 247.5 708.5 Q225 714 203.5 727 Q182 740 163.5 762.5 Q145 785 132 820 Q131 823 131 828 Q131 839 141 849.5 Q151 860 167 860 Q175 860 182 857 Q189 854 194 846 Q214 809 236 789 Q258 769 291 769 Z " />
<glyph glyph-name="gbreve" unicode="&#x11f;" horiz-adv-x="502" d="M452 -32 Q452 -74 438.5 -106 Q425 -138 401 -159.5 Q377 -181 344 -192.5 Q311 -204 272 -204 L125 -204 Q114 -204 103 -194 Q92 -184 92 -164 Q92 -143 103.5 -134.5 Q115 -126 125 -126 L271 -126 Q313 -126 341.5 -103.5 Q370 -81 370 -30 L370 0 L220 0 Q182 0 149.5 11 Q117 22 93 44 Q69 66 55.5 98.5 Q42 131 42 175 L42 290 Q42 332 56 364.5 Q70 397 94.5 418.5 Q119 440 152 451 Q185 462 223 462 L412 462 Q432 462 442.5 447 Q453 432 453 418 L452 -32 Z M124 178 Q124 127 152 104 Q180 81 223 81 L370 81 L370 384 L223 384 Q181 384 152.5 360.5 Q124 337 124 288 L124 178 Z M257 582 Q286 582 311 602.5 Q336 623 356 658 Q366 673 383 673 Q399 673 409 663 Q419 653 419 642 Q419 637 418 635 Q404 602 384.5 579.5 Q365 557 342.5 542.5 Q320 528 297.5 522 Q275 516 257 516 Q236 516 213.5 521.5 Q191 527 169.5 540 Q148 553 129.5 575.5 Q111 598 98 633 Q97 636 97 641 Q97 652 107 662.5 Q117 673 133 673 Q141 673 148 670 Q155 667 160 659 Q180 622 202 602 Q224 582 257 582 Z " />
<glyph glyph-name="Gdotaccent" unicode="&#x120;" horiz-adv-x="555" d="M226 0 Q189 0 157 12.5 Q125 25 101 50 Q77 75 63.5 112 Q50 149 50 199 L50 468 Q50 518 65 555.5 Q80 593 104.5 617.5 Q129 642 161 654.5 Q193 667 226 667 L448 667 Q486 667 486 627 Q486 587 448 587 L239 587 Q187 587 159.5 555.5 Q132 524 132 471 L132 195 Q132 142 158 111 Q184 80 237 80 L428 80 L428 313 L325 313 Q288 313 288 354 Q288 393 325 393 L469 393 Q489 393 499.5 386 Q510 379 510 354 L510 41 Q510 20 501 10 Q492 0 471 0 L226 0 Z M309 714 Q288 714 273 728.5 Q258 743 258 764 Q258 789 273 801.5 Q288 814 307 814 Q327 814 343 802 Q359 790 359 764 Q359 743 344.5 728.5 Q330 714 309 714 Z " />
<glyph glyph-name="gdotaccent" unicode="&#x121;" horiz-adv-x="502" d="M452 -32 Q452 -74 438.5 -106 Q425 -138 401 -159.5 Q377 -181 344 -192.5 Q311 -204 272 -204 L125 -204 Q114 -204 103 -194 Q92 -184 92 -164 Q92 -143 103.5 -134.5 Q115 -126 125 -126 L271 -126 Q313 -126 341.5 -103.5 Q370 -81 370 -30 L370 0 L220 0 Q182 0 149.5 11 Q117 22 93 44 Q69 66 55.5 98.5 Q42 131 42 175 L42 290 Q42 332 56 364.5 Q70 397 94.5 418.5 Q119 440 152 451 Q185 462 223 462 L412 462 Q432 462 442.5 447 Q453 432 453 418 L452 -32 Z M124 178 Q124 127 152 104 Q180 81 223 81 L370 81 L370 384 L223 384 Q181 384 152.5 360.5 Q124 337 124 288 L124 178 Z M276 544 Q255 544 240 558.5 Q225 573 225 594 Q225 619 240 631.5 Q255 644 274 644 Q294 644 310 632 Q326 620 326 594 Q326 573 311.5 558.5 Q297 544 276 544 Z " />
<glyph glyph-name="Gcommaaccent" unicode="&#x122;" horiz-adv-x="555" d="M226 0 Q189 0 157 12.5 Q125 25 101 50 Q77 75 63.5 112 Q50 149 50 199 L50 468 Q50 518 65 555.5 Q80 593 104.5 617.5 Q129 642 161 654.5 Q193 667 226 667 L448 667 Q486 667 486 627 Q486 587 448 587 L239 587 Q187 587 159.5 555.5 Q132 524 132 471 L132 195 Q132 142 158 111 Q184 80 237 80 L428 80 L428 313 L325 313 Q288 313 288 354 Q288 393 325 393 L469 393 Q489 393 499.5 386 Q510 379 510 354 L510 41 Q510 20 501 10 Q492 0 471 0 L226 0 Z M294 -218 Q290 -226 282 -233 Q274 -240 261 -240 Q244 -240 236.5 -229.5 Q229 -219 229 -209 Q229 -203 230 -200 L257 -82 Q260 -70 271.5 -61.5 Q283 -53 299 -53 Q321 -53 333 -66 Q345 -79 345 -95 Q345 -102 342 -106 L294 -218 Z " />
<glyph glyph-name="gcommaaccent" unicode="&#x123;" horiz-adv-x="502" d="M282 686 Q286 694 294 701 Q302 708 314 708 Q333 708 340 696.5 Q347 685 347 676 Q347 671 346 668 L319 550 Q316 538 305 529.5 Q294 521 278 521 Q255 521 243 534 Q231 547 231 562 Q231 569 234 574 L282 686 Z M452 -32 Q452 -74 438.5 -106 Q425 -138 401 -159.5 Q377 -181 344 -192.5 Q311 -204 272 -204 L125 -204 Q114 -204 103 -194 Q92 -184 92 -164 Q92 -143 103.5 -134.5 Q115 -126 125 -126 L271 -126 Q313 -126 341.5 -103.5 Q370 -81 370 -30 L370 0 L220 0 Q182 0 149.5 11 Q117 22 93 44 Q69 66 55.5 98.5 Q42 131 42 175 L42 290 Q42 332 56 364.5 Q70 397 94.5 418.5 Q119 440 152 451 Q185 462 223 462 L412 462 Q432 462 442.5 447 Q453 432 453 418 L452 -32 Z M124 178 Q124 127 152 104 Q180 81 223 81 L370 81 L370 384 L223 384 Q181 384 152.5 360.5 Q124 337 124 288 L124 178 Z " />
<glyph glyph-name="Hcircumflex" unicode="&#x124;" horiz-adv-x="566" d="M467 -5 Q445 -5 436 3.5 Q427 12 427 35 L427 315 L139 315 L139 35 Q139 12 130 3.5 Q121 -5 99 -5 Q77 -5 67.5 4 Q58 13 58 35 L58 632 Q58 654 67.5 663 Q77 672 99 672 Q121 672 130 663.5 Q139 655 139 632 L139 392 L427 392 L427 632 Q427 655 436 663.5 Q445 672 467 672 Q489 672 498.5 663 Q508 654 508 632 L508 35 Q508 13 498.5 4 Q489 -5 467 -5 Z M251 855 Q260 863 268.5 864 Q277 865 286 865 Q299 865 308 856 L424 760 Q431 755 437 748 Q443 741 443 733 Q443 722 436.5 715.5 Q430 709 422 703 Q414 698 404 698 Q393 698 386 704 L279 785 L180 713 Q172 706 162 703 Q152 700 144 700 Q128 700 120.5 712 Q113 724 113 734 Q113 745 121 751 L251 855 Z " />
<glyph glyph-name="hcircumflex" unicode="&#x125;" horiz-adv-x="504" d="M417 -5 Q397 -5 386.5 5.5 Q376 16 376 27 L376 287 Q376 313 367.5 331 Q359 349 345 360.5 Q331 372 312.5 377 Q294 382 274 382 L132 382 L132 27 Q132 16 122.5 5.5 Q113 -5 92 -5 Q71 -5 60.5 5 Q50 15 50 27 L50 665 Q50 676 60.5 686.5 Q71 697 92 697 Q113 697 122.5 686.5 Q132 676 132 665 L132 462 L279 462 Q361 462 409.5 418.5 Q458 375 458 287 L458 28 Q458 16 448.5 5.5 Q439 -5 417 -5 Z M61 855 Q70 863 78.5 864 Q87 865 96 865 Q109 865 118 856 L234 760 Q241 755 247 748 Q253 741 253 733 Q253 722 246.5 715.5 Q240 709 232 703 Q224 698 214 698 Q203 698 196 704 L89 785 L-10 713 Q-18 706 -28 703 Q-38 700 -46 700 Q-62 700 -69.5 712 Q-77 724 -77 734 Q-77 745 -69 751 L61 855 Z " />
<glyph glyph-name="Hbar" unicode="&#x126;" horiz-adv-x="566" d="M467 -5 Q445 -5 436 3.5 Q427 12 427 35 L427 315 L139 315 L139 35 Q139 12 130 3.5 Q121 -5 99 -5 Q77 -5 67.5 4 Q58 13 58 35 L58 517 L33 517 Q15 517 7.5 524 Q0 531 0 549 Q0 566 8 573 Q16 580 33 580 L58 580 L58 632 Q58 654 67.5 663 Q77 672 99 672 Q121 672 130 663.5 Q139 655 139 632 L139 580 L427 580 L427 632 Q427 655 436 663.5 Q445 672 467 672 Q489 672 498.5 663 Q508 654 508 632 L508 580 L529 580 Q546 580 555 573 Q564 566 564 549 Q564 531 555.5 524 Q547 517 529 517 L508 517 L508 35 Q508 13 498.5 4 Q489 -5 467 -5 Z M427 392 L427 517 L139 517 L139 392 L427 392 Z " />
<glyph glyph-name="hbar" unicode="&#x127;" horiz-adv-x="504" d="M-4 549 Q-4 566 4 573 Q12 580 29 580 L50 580 L50 665 Q50 676 60.5 686.5 Q71 697 92 697 Q113 697 122.5 686.5 Q132 676 132 665 L132 580 L340 580 Q357 580 366 573 Q375 566 375 549 Q375 531 366.5 524 Q358 517 340 517 L132 517 L132 449 L279 449 Q361 449 409.5 405.5 Q458 362 458 274 L458 28 Q458 16 448.5 5.5 Q439 -5 417 -5 Q397 -5 386.5 5.5 Q376 16 376 27 L376 274 Q376 300 367.5 318 Q359 336 345 347.5 Q331 359 312.5 364 Q294 369 274 369 L132 369 L132 27 Q132 16 122.5 5.5 Q113 -5 92 -5 Q71 -5 60.5 5 Q50 15 50 27 L50 517 L29 517 Q10 517 3 524 Q-4 531 -4 549 Z " />
<glyph glyph-name="Itilde" unicode="&#x128;" horiz-adv-x="248" d="M125 -5 Q103 -5 93.5 4 Q84 13 84 35 L84 632 Q84 654 93.5 663 Q103 672 125 672 Q146 672 155.5 663.5 Q165 655 165 632 L165 35 Q165 12 155.5 3.5 Q146 -5 125 -5 Z M285 760 Q276 743 265 731.5 Q254 720 241.5 713 Q229 706 216.5 703 Q204 700 194 700 Q177 700 159 705.5 Q141 711 124 718 Q107 725 90 731.5 Q73 738 59 738 Q45 738 30 722 Q19 708 3.5 704 Q-12 700 -25 713 Q-42 730 -33 746 Q-19 773 2.5 789 Q24 805 52 805 Q71 805 92.5 797.5 Q114 790 135 782 Q151 776 164 771 Q177 766 187 766 Q197 766 205.5 771.5 Q214 777 221 785 Q229 795 240.5 802.5 Q252 810 267 801 Q279 793 283.5 786.5 Q288 780 288 773 Q288 766 285 760 Z " />
<glyph glyph-name="Imacron" unicode="&#x12a;" horiz-adv-x="275" d="M139 -5 Q117 -5 107.5 4 Q98 13 98 35 L98 632 Q98 654 107.5 663 Q117 672 139 672 Q160 672 169.5 663.5 Q179 655 179 632 L179 35 Q179 12 169.5 3.5 Q160 -5 139 -5 Z M41 714 Q21 714 9 722 Q-3 730 -3 750 Q-3 769 9 777 Q21 785 41 785 L237 785 Q257 785 269 777.5 Q281 770 281 750 Q281 730 269 722 Q257 714 237 714 L41 714 Z " />
<glyph glyph-name="Ibreve" unicode="&#x12c;" horiz-adv-x="281" d="M143 -5 Q121 -5 111.5 4 Q102 13 102 35 L102 632 Q102 654 111.5 663 Q121 672 143 672 Q164 672 173.5 663.5 Q183 655 183 632 L183 35 Q183 12 173.5 3.5 Q164 -5 143 -5 Z M141 766 Q170 766 195 786.5 Q220 807 240 842 Q250 857 267 857 Q283 857 293 847 Q303 837 303 826 Q303 821 302 819 Q288 786 268.5 763.5 Q249 741 226.5 726.5 Q204 712 181.5 706 Q159 700 141 700 Q120 700 97.5 705.5 Q75 711 53.5 724 Q32 737 13.5 759.5 Q-5 782 -18 817 Q-19 820 -19 825 Q-19 836 -9 846.5 Q1 857 17 857 Q25 857 32 854 Q39 851 44 843 Q64 806 86 786 Q108 766 141 766 Z " />
<glyph glyph-name="Iogonek" unicode="&#x12e;" horiz-adv-x="248" d="M165 35 Q165 6 149 -1 Q126 -27 114 -52.5 Q102 -78 102 -98 Q102 -118 114 -131 Q126 -144 155 -144 Q166 -144 182 -137 Q198 -130 209 -130 Q220 -130 227.5 -138.5 Q235 -147 235 -158 Q235 -170 224 -178.5 Q213 -187 198 -191.5 Q183 -196 169 -198 Q155 -200 149 -200 Q118 -200 97 -191 Q76 -182 63 -167.5 Q50 -153 44.5 -136.5 Q39 -120 39 -105 Q39 -79 50.5 -50.5 Q62 -22 90 8 Q84 18 84 35 L84 632 Q84 654 93.5 663 Q103 672 125 672 Q146 672 155.5 663.5 Q165 655 165 632 L165 35 L165 35 Z " />
<glyph glyph-name="iogonek" unicode="&#x12f;" horiz-adv-x="306" d="M222 27 Q222 11 208 2 Q159 -53 159 -97 Q159 -117 171 -130 Q183 -143 212 -143 Q223 -143 239 -136 Q255 -129 266 -129 Q277 -129 284.5 -137.5 Q292 -146 292 -157 Q292 -169 281 -177.5 Q270 -186 255 -190.5 Q240 -195 226 -197 Q212 -199 206 -199 Q175 -199 154 -190 Q133 -181 120 -166.5 Q107 -152 101.5 -135.5 Q96 -119 96 -104 Q96 -78 107.5 -49.5 Q119 -21 146 9 Q140 16 140 27 L140 384 L56 384 Q45 384 34 393.5 Q23 403 23 423 Q23 444 33.5 453 Q44 462 56 462 L181 462 Q202 462 212 451 Q222 440 222 428 L222 27 Z M172 552 Q152 552 137.5 566 Q123 580 123 600 Q123 623 138 636 Q153 649 171 649 Q191 649 206 637.5 Q221 626 221 600 Q221 580 207 566 Q193 552 172 552 Z " />
<glyph glyph-name="Idotaccent" unicode="&#x130;" horiz-adv-x="248" d="M125 -5 Q103 -5 93.5 4 Q84 13 84 35 L84 632 Q84 654 93.5 663 Q103 672 125 672 Q146 672 155.5 663.5 Q165 655 165 632 L165 35 Q165 12 155.5 3.5 Q146 -5 125 -5 Z M127 714 Q106 714 91 728.5 Q76 743 76 764 Q76 789 91 801.5 Q106 814 125 814 Q145 814 161 802 Q177 790 177 764 Q177 743 162.5 728.5 Q148 714 127 714 Z " />
<glyph glyph-name="IJ" unicode="&#x132;" horiz-adv-x="634" d="M125 -5 Q103 -5 93.5 4 Q84 13 84 35 L84 632 Q84 654 93.5 663 Q103 672 125 672 Q146 672 155.5 663.5 Q165 655 165 632 L165 35 Q165 12 155.5 3.5 Q146 -5 125 -5 Z M268 0 Q231 0 231 41 Q231 62 242.5 70.5 Q254 79 269 79 L356 79 Q404 79 431 104.5 Q458 130 458 181 L458 589 L336 589 Q321 589 311.5 598.5 Q302 608 302 628 Q302 648 311.5 658 Q321 668 336 668 L499 668 Q539 668 539 628 L539 182 Q539 145 528.5 112 Q518 79 496 54 Q474 29 439.5 14.5 Q405 0 358 0 L268 0 Z " />
<glyph glyph-name="ij" unicode="&#x133;" horiz-adv-x="538" d="M457 -32 Q457 -117 411.5 -160.5 Q366 -204 281 -204 L226 -204 Q214 -204 204 -193.5 Q194 -183 194 -163 Q194 -142 205 -133.5 Q216 -125 226 -125 L277 -125 Q320 -125 347.5 -103 Q375 -81 375 -29 L375 434 Q375 446 385 456 Q395 466 417 466 Q438 466 447.5 455.5 Q457 445 457 434 L457 -32 Z M408 551 Q388 551 373 565.5 Q358 580 358 600 Q358 624 373 636.5 Q388 649 406 649 Q426 649 441 637.5 Q456 626 456 600 Q456 580 442 565.5 Q428 551 408 551 Z M181 -5 Q159 -5 149.5 5 Q140 15 140 27 L140 383 L56 383 Q45 383 34 392.5 Q23 402 23 423 Q23 443 33.5 452.5 Q44 462 56 462 L163 462 Q222 462 222 427 L222 27 Q222 15 212 5 Q202 -5 181 -5 Z M172 551 Q152 551 137.5 565.5 Q123 580 123 600 Q123 623 138 636 Q153 649 171 649 Q191 649 206 636.5 Q221 624 221 600 Q221 580 207 565.5 Q193 551 172 551 Z " />
<glyph glyph-name="Jcircumflex" unicode="&#x134;" horiz-adv-x="403" d="M37 1 Q0 1 0 42 Q0 63 11.5 71.5 Q23 80 38 80 L125 80 Q173 80 200 105.5 Q227 131 227 182 L227 590 L105 590 Q90 590 80.5 599.5 Q71 609 71 629 Q71 649 80.5 659 Q90 669 105 669 L268 669 Q308 669 308 629 L308 183 Q308 146 297.5 113 Q287 80 265 55 Q243 30 208.5 15.5 Q174 1 127 1 L37 1 Z M209 857 Q218 865 226.5 866 Q235 867 244 867 Q257 867 266 858 L382 762 Q389 757 395 750 Q401 743 401 735 Q401 724 394.5 717.5 Q388 711 380 705 Q372 700 362 700 Q351 700 344 706 L237 787 L138 715 Q130 708 120 705 Q110 702 102 702 Q86 702 78.5 714 Q71 726 71 736 Q71 747 79 753 L209 857 Z " />
<glyph glyph-name="jcircumflex" unicode="&#x135;" horiz-adv-x="329" d="M18 -204 Q6 -204 -4 -193.5 Q-14 -183 -14 -163 Q-14 -142 -3 -133.5 Q8 -125 18 -125 L68 -125 Q111 -125 139 -103 Q167 -81 167 -29 L167 384 L71 384 Q60 384 49 393 Q38 402 38 423 Q38 443 49 452.5 Q60 462 71 462 L209 462 Q227 462 237.5 452 Q248 442 248 423 L248 -32 Q248 -117 202.5 -160.5 Q157 -204 72 -204 L18 -204 Z M1 567 Q33 595 65 622.5 Q97 650 130 678 Q139 686 147.5 687 Q156 688 165 688 Q178 688 188 679 L303 576 Q309 571 315.5 564.5 Q322 558 322 550 Q322 536 311 525 Q306 520 299 517 Q292 514 284 514 Q274 514 265 520 Q239 543 212 564.5 Q185 586 158 608 L59 529 Q47 519 30 517 Q28 516 23 516 Q14 516 6 522 Q-7 537 -7 550 Q-7 561 1 567 Z " />
<glyph glyph-name="Kcommaaccent" unicode="&#x136;" horiz-adv-x="522" d="M271 385 L501 59 Q510 48 510 34 Q510 20 500 10 Q483 -4 467 -4 Q446 -4 432 15 L413 43 Q362 116 312 188 Q262 260 211 332 L141 264 L141 35 Q141 13 131.5 4 Q122 -5 101 -5 Q60 -5 60 35 L60 630 Q60 671 101 671 Q122 671 131.5 662 Q141 653 141 630 L141 371 L142 371 L435 652 Q453 670 471 670 Q482 670 496.5 659 Q511 648 511 630 Q511 613 500 604 L271 385 Z M272 -198 Q268 -206 260 -213 Q252 -220 239 -220 Q222 -220 214.5 -209.5 Q207 -199 207 -189 Q207 -183 208 -180 L235 -62 Q238 -50 249.5 -41.5 Q261 -33 277 -33 Q299 -33 311 -46 Q323 -59 323 -75 Q323 -82 320 -86 L272 -198 Z " />
<glyph glyph-name="kcommaaccent" unicode="&#x137;" horiz-adv-x="437" d="M406 5 Q392 -4 379 -4 Q358 -4 346 16 L211 264 L128 204 L128 27 Q128 14 118.5 4.5 Q109 -5 87 -5 Q67 -5 56.5 4 Q46 13 46 27 L46 665 Q46 678 56.5 687.5 Q67 697 87 697 Q109 697 118.5 687.5 Q128 678 128 665 L128 295 L341 454 Q354 463 368 463 Q383 463 396 452 Q409 441 409 424 Q409 408 394 396 L279 310 L418 53 Q423 45 423 37 Q423 27 418 18.5 Q413 10 406 5 Z M232 -218 Q228 -226 220 -233 Q212 -240 199 -240 Q182 -240 174.5 -229.5 Q167 -219 167 -209 Q167 -203 168 -200 L195 -82 Q198 -70 209.5 -61.5 Q221 -53 237 -53 Q259 -53 271 -66 Q283 -79 283 -95 Q283 -102 280 -106 L232 -218 Z " />
<glyph glyph-name="kgreenlandic" unicode="&#x138;" horiz-adv-x="434" d="M406 5 Q392 -4 379 -4 Q358 -4 346 16 L211 264 L128 204 L128 27 Q128 14 118.5 4.5 Q109 -5 87 -5 Q67 -5 56.5 4 Q46 13 46 27 L46 441 Q46 454 56.5 463.5 Q67 473 87 473 Q109 473 118.5 463.5 Q128 454 128 441 L128 295 L341 454 Q354 463 368 463 Q383 463 396 452 Q409 441 409 424 Q409 408 394 396 L279 310 L418 53 Q423 45 423 37 Q423 27 418 18.5 Q413 10 406 5 Z " />
<glyph glyph-name="Lacute" unicode="&#x139;" horiz-adv-x="484" d="M102 0 Q60 0 60 41 L60 632 Q60 672 102 672 Q123 672 132.5 663 Q142 654 142 632 L142 80 L434 80 Q472 80 472 41 Q472 0 434 0 L102 0 Z M109 701 Q101 699 95 699 Q84 699 73 706 Q62 713 62 727 Q62 737 67.5 744 Q73 751 81 756 L195 825 Q205 831 218 831 Q232 831 246 820 Q260 809 260 788 Q260 774 253 763.5 Q246 753 234 748 L109 701 Z " />
<glyph glyph-name="lacute" unicode="&#x13a;" horiz-adv-x="274" d="M146 160 Q146 122 163 98.5 Q180 75 221 75 L236 75 Q251 75 260.5 65.5 Q270 56 270 36 Q270 16 260 5.5 Q250 -5 236 -5 L219 -5 Q144 -5 104.5 35 Q65 75 65 160 L65 665 Q65 678 74.5 688 Q84 698 106 698 Q126 698 136 688 Q146 678 146 665 L146 160 Z M100 721 Q92 719 86 719 Q75 719 64 726 Q53 733 53 747 Q53 757 58.5 764 Q64 771 72 776 L186 845 Q196 851 209 851 Q223 851 237 840 Q251 829 251 808 Q251 794 244 783.5 Q237 773 225 768 L100 721 Z " />
<glyph glyph-name="Lcommaaccent" unicode="&#x13b;" horiz-adv-x="484" d="M102 0 Q60 0 60 41 L60 632 Q60 672 102 672 Q123 672 132.5 663 Q142 654 142 632 L142 80 L434 80 Q472 80 472 41 Q472 0 434 0 L102 0 Z M242 -218 Q238 -226 230 -233 Q222 -240 209 -240 Q192 -240 184.5 -229.5 Q177 -219 177 -209 Q177 -203 178 -200 L205 -82 Q208 -70 219.5 -61.5 Q231 -53 247 -53 Q269 -53 281 -66 Q293 -79 293 -95 Q293 -102 290 -106 L242 -218 Z " />
<glyph glyph-name="lcommaaccent" unicode="&#x13c;" horiz-adv-x="274" d="M146 160 Q146 122 163 98.5 Q180 75 221 75 L236 75 Q251 75 260.5 65.5 Q270 56 270 36 Q270 16 260 5.5 Q250 -5 236 -5 L219 -5 Q144 -5 104.5 35 Q65 75 65 160 L65 665 Q65 678 74.5 688 Q84 698 106 698 Q126 698 136 688 Q146 678 146 665 L146 160 Z M135 -218 Q131 -226 123 -233 Q115 -240 102 -240 Q85 -240 77.5 -229.5 Q70 -219 70 -209 Q70 -203 71 -200 L98 -82 Q101 -70 112.5 -61.5 Q124 -53 140 -53 Q162 -53 174 -66 Q186 -79 186 -95 Q186 -102 183 -106 L135 -218 Z " />
<glyph glyph-name="Lcaron" unicode="&#x13d;" horiz-adv-x="484" d="M102 0 Q60 0 60 41 L60 632 Q60 672 102 672 Q123 672 132.5 663 Q142 654 142 632 L142 80 L434 80 Q472 80 472 41 Q472 0 434 0 L102 0 Z M327 503 Q323 495 315 488 Q307 481 294 481 Q277 481 269.5 491.5 Q262 502 262 512 Q262 518 263 521 L290 639 Q293 651 304.5 659.5 Q316 668 332 668 Q354 668 366 655 Q378 642 378 626 Q378 619 375 615 L327 503 Z " />
<glyph glyph-name="lcaron" unicode="&#x13e;" horiz-adv-x="334" d="M270 530 Q266 522 258 515 Q250 508 237 508 Q220 508 212.5 518.5 Q205 529 205 539 Q205 545 206 548 L233 666 Q236 678 247.5 686.5 Q259 695 275 695 Q297 695 309 682 Q321 669 321 653 Q321 646 318 642 L270 530 Z M146 160 Q146 122 163 98.5 Q180 75 221 75 L236 75 Q251 75 260.5 65.5 Q270 56 270 36 Q270 16 260 5.5 Q250 -5 236 -5 L219 -5 Q144 -5 104.5 35 Q65 75 65 160 L65 665 Q65 678 74.5 688 Q84 698 106 698 Q126 698 136 688 Q146 678 146 665 L146 160 Z " />
<glyph glyph-name="Ldot" unicode="&#x13f;" horiz-adv-x="484" d="M102 0 Q60 0 60 41 L60 632 Q60 672 102 672 Q123 672 132.5 663 Q142 654 142 632 L142 80 L434 80 Q472 80 472 41 Q472 0 434 0 L102 0 Z M305 308 Q284 308 269 322.5 Q254 337 254 358 Q254 383 269 395.5 Q284 408 303 408 Q323 408 339 396 Q355 384 355 358 Q355 337 340.5 322.5 Q326 308 305 308 Z " />
<glyph glyph-name="ldot" unicode="&#x140;" horiz-adv-x="337" d="M262 318 Q241 318 226 332.5 Q211 347 211 368 Q211 393 226 405.5 Q241 418 260 418 Q280 418 296 406 Q312 394 312 368 Q312 347 297.5 332.5 Q283 318 262 318 Z M146 160 Q146 122 163 98.5 Q180 75 221 75 L236 75 Q251 75 260.5 65.5 Q270 56 270 36 Q270 16 260 5.5 Q250 -5 236 -5 L219 -5 Q144 -5 104.5 35 Q65 75 65 160 L65 665 Q65 678 74.5 688 Q84 698 106 698 Q126 698 136 688 Q146 678 146 665 L146 160 Z " />
<glyph glyph-name="Lslash" unicode="&#x141;" horiz-adv-x="498" d="M116 0 Q74 0 74 41 L74 203 L42 185 Q35 181 29.5 178.5 Q24 176 19 176 Q12 176 1.5 186 Q-9 196 -9 210 Q-9 222 13 235 L74 270 L74 632 Q74 672 116 672 Q137 672 146.5 663 Q156 654 156 632 L156 317 L239 365 Q254 374 264 374 Q272 374 281.5 364.5 Q291 355 291 342 Q291 327 268 315 L156 250 L156 80 L448 80 Q486 80 486 41 Q486 0 448 0 L116 0 Z " />
<glyph glyph-name="lslash" unicode="&#x142;" horiz-adv-x="298" d="M170 350 L234 386 Q249 396 258 396 Q267 396 276.5 385.5 Q286 375 286 363 Q286 350 263 337 L170 284 L170 160 Q170 122 187 98.5 Q204 75 245 75 L260 75 Q275 75 284.5 65.5 Q294 56 294 36 Q294 16 284 5.5 Q274 -5 260 -5 L243 -5 Q168 -5 128.5 35 Q89 75 89 160 L89 238 L42 211 Q35 207 29 204.5 Q23 202 18 202 Q12 202 1.5 212 Q-9 222 -9 235 Q-7 249 13 261 L89 304 L89 665 Q89 678 98.5 688 Q108 698 130 698 Q150 698 160 688 Q170 678 170 665 L170 350 Z " />
<glyph glyph-name="Nacute" unicode="&#x143;" horiz-adv-x="587" d="M455 0 Q438 0 430.5 5.5 Q423 11 416 24 L143 531 L141 531 L141 34 Q141 11 131.5 3.5 Q122 -4 101 -4 Q79 -4 69.5 4.5 Q60 13 60 34 L60 626 Q60 667 101 667 L133 667 Q151 667 159 659 Q167 651 175 638 Q243 512 308.5 389.5 Q374 267 443 140 L445 140 L445 632 Q445 655 454.5 663.5 Q464 672 485 672 Q527 672 527 632 L527 40 Q527 0 485 0 L455 0 Z M261 701 Q253 699 247 699 Q236 699 225 706 Q214 713 214 727 Q214 737 219.5 744 Q225 751 233 756 L347 825 Q357 831 370 831 Q384 831 398 820 Q412 809 412 788 Q412 774 405 763.5 Q398 753 386 748 L261 701 Z " />
<glyph glyph-name="nacute" unicode="&#x144;" horiz-adv-x="504" d="M417 -5 Q394 -5 385 4.5 Q376 14 376 27 L376 286 Q376 312 367.5 330.5 Q359 349 344.5 360.5 Q330 372 311.5 377 Q293 382 273 382 L132 382 L132 27 Q132 15 123 5 Q114 -5 91 -5 Q70 -5 60 5 Q50 15 50 27 L50 417 Q50 430 59.5 446 Q69 462 95 462 L277 462 Q361 462 409 418 Q457 374 457 286 L457 27 Q457 15 448 5 Q439 -5 417 -5 Z M243 539 Q231 525 213 525 Q199 525 192 534.5 Q185 544 185 552 Q185 562 192 573 L262 697 Q267 707 277 713 Q287 719 299 719 Q318 719 330.5 705.5 Q343 692 343 675 Q343 659 334 649 L243 539 Z " />
<glyph glyph-name="Ncommaaccent" unicode="&#x145;" horiz-adv-x="587" d="M455 0 Q438 0 430.5 5.5 Q423 11 416 24 L143 531 L141 531 L141 34 Q141 11 131.5 3.5 Q122 -4 101 -4 Q79 -4 69.5 4.5 Q60 13 60 34 L60 626 Q60 667 101 667 L133 667 Q151 667 159 659 Q167 651 175 638 Q243 512 308.5 389.5 Q374 267 443 140 L445 140 L445 632 Q445 655 454.5 663.5 Q464 672 485 672 Q527 672 527 632 L527 40 Q527 0 485 0 L455 0 Z M273 -198 Q269 -206 261 -213 Q253 -220 240 -220 Q223 -220 215.5 -209.5 Q208 -199 208 -189 Q208 -183 209 -180 L236 -62 Q239 -50 250.5 -41.5 Q262 -33 278 -33 Q300 -33 312 -46 Q324 -59 324 -75 Q324 -82 321 -86 L273 -198 Z " />
<glyph glyph-name="ncommaaccent" unicode="&#x146;" horiz-adv-x="504" d="M417 -5 Q394 -5 385 4.5 Q376 14 376 27 L376 286 Q376 312 367.5 330.5 Q359 349 344.5 360.5 Q330 372 311.5 377 Q293 382 273 382 L132 382 L132 27 Q132 15 123 5 Q114 -5 91 -5 Q70 -5 60 5 Q50 15 50 27 L50 417 Q50 430 59.5 446 Q69 462 95 462 L277 462 Q361 462 409 418 Q457 374 457 286 L457 27 Q457 15 448 5 Q439 -5 417 -5 Z M243 -218 Q239 -226 231 -233 Q223 -240 210 -240 Q193 -240 185.5 -229.5 Q178 -219 178 -209 Q178 -203 179 -200 L206 -82 Q209 -70 220.5 -61.5 Q232 -53 248 -53 Q270 -53 282 -66 Q294 -79 294 -95 Q294 -102 291 -106 L243 -218 Z " />
<glyph glyph-name="Ncaron" unicode="&#x147;" horiz-adv-x="587" d="M455 0 Q438 0 430.5 5.5 Q423 11 416 24 L143 531 L141 531 L141 34 Q141 11 131.5 3.5 Q122 -4 101 -4 Q79 -4 69.5 4.5 Q60 13 60 34 L60 626 Q60 667 101 667 L133 667 Q151 667 159 659 Q167 651 175 638 Q243 512 308.5 389.5 Q374 267 443 140 L445 140 L445 632 Q445 655 454.5 663.5 Q464 672 485 672 Q527 672 527 632 L527 40 Q527 0 485 0 L455 0 Z M134 804 Q126 810 126 821 Q126 831 133.5 843 Q141 855 157 855 Q165 855 175 852 Q185 849 193 842 L292 770 L399 851 Q406 857 417 857 Q427 857 435 852 Q443 846 449.5 839.5 Q456 833 456 822 Q456 814 450 807 Q444 800 437 795 L321 699 Q312 690 299 690 Q290 690 281.5 691 Q273 692 264 700 L134 804 Z " />
</font>
</svg>
