<?xml version="1.0" encoding="UTF-8"?>
<svg xmlns="http://www.w3.org/2000/svg" xmlns:xlink="http://www.w3.org/1999/xlink" version="1.2" >
<font id="PFIsotextPro-LightItalic">
<font-face  font-family="PF Isotext Pro" units-per-em="1000" ascent="750" descent="-250" font-style="italic" font-weight="300" font-stretch="normal" slope="-12" cap-height="672" x-height="459" underline-position="-80" underline-thickness="40" />
<missing-glyph  horiz-adv-x="440" d="M0 700 L440 700 L440 0 L0 0 L0 700 Z M360 650 L80 650 L220 395 L360 650 Z M390 95 L390 605 L250 350 L390 95 Z M360 50 L220 305 L80 50 L360 50 Z M50 95 L190 350 L50 605 L50 95 Z " />
<glyph glyph-name="NULL" d="" />
<glyph glyph-name="carriagereturn" unicode="&#xd;" horiz-adv-x="840" d="M209 294 Q205 294 204 291.5 Q203 289 206 287 L347 149 Q354 142 346 134 L321 109 Q319 106 316 107 Q313 108 312 109 L104 317 Q99 321 104 326 L310 532 Q316 538 322 532 L347 507 Q352 502 350.5 498.5 Q349 495 346 492 L208 356 Q206 354 206.5 350.5 Q207 347 210 347 L714 347 Q720 347 726.5 349.5 Q733 352 733 365 L733 684 Q733 692 740 692 L780 692 Q787 692 787 684 L787 317 Q787 294 763 294 L209 294 Z " />
<glyph glyph-name="space" unicode="&#x20;" horiz-adv-x="280" d="" />
<glyph glyph-name="dollar" unicode="&#x24;" horiz-adv-x="460" d="M220 0 L213 -46 Q211 -54 205 -60.5 Q199 -67 185 -67 Q174 -67 169.5 -62 Q165 -57 165 -51 L165 -46 L172 0 L34 0 Q29 0 24 3.5 Q19 7 19 18 Q19 38 28.5 45.5 Q38 53 42 53 L181 53 L223 320 L182 343 Q159 356 139 369.5 Q119 383 104 400 Q89 417 80 438 Q71 459 71 486 Q71 526 84.5 559 Q98 592 122.5 616 Q147 640 181 653 Q215 666 256 666 L278 666 L286 714 Q287 722 292.5 729 Q298 736 312 736 Q326 736 330.5 732 Q335 728 335 721 Q335 719 334.5 717.5 Q334 716 334 714 L326 666 L453 666 Q457 666 462.5 661 Q468 656 468 644 Q468 625 459 619 Q450 613 445 613 L318 613 L277 357 L300 345 Q325 332 348.5 317 Q372 302 390.5 283.5 Q409 265 420 241.5 Q431 218 431 188 Q431 144 417 109.5 Q403 75 378 50.5 Q353 26 319 13 Q285 0 246 0 L220 0 Z M252 53 Q274 53 295.5 61 Q317 69 334.5 84.5 Q352 100 363 123 Q374 146 374 177 Q374 215 354 239 Q334 263 293 283 L267 296 L229 53 L252 53 Z M125 486 Q125 454 143.5 436 Q162 418 194 401 L233 380 L270 613 L247 613 Q225 613 203 605 Q181 597 164 581 Q147 565 136 541 Q125 517 125 486 Z " />
<glyph glyph-name="ampersand" unicode="&#x26;" horiz-adv-x="599" d="M460 211 Q444 109 383.5 54.5 Q323 0 240 0 L200 0 Q169 0 142.5 9.5 Q116 19 96.5 37.5 Q77 56 66 84 Q55 112 55 150 Q55 170 58 193 L91 399 Q99 448 118.5 484 Q138 520 164.5 544 Q191 568 222 580 Q253 592 284 592 L444 592 Q466 592 466 572 Q466 554 458 546.5 Q450 539 436 539 L287 539 Q230 539 192 501 Q154 463 144 402 L110 189 Q107 169 107 152 Q107 106 129.5 79 Q152 52 205 52 L233 52 Q274 52 304 65 Q334 78 355 99.5 Q376 121 388.5 149 Q401 177 406 207 L424 319 L256 319 Q235 319 235 337 Q235 354 243 362.5 Q251 371 264 371 L498 371 Q521 371 545 378.5 Q569 386 588 400 Q593 404 599 404 Q609 404 616 395 Q623 386 623 377 Q623 362 607 351.5 Q591 341 569.5 333.5 Q548 326 526 322.5 Q504 319 491 319 L477 319 L460 211 Z " />
<glyph glyph-name="quoteright" unicode="&#x2019;" horiz-adv-x="129" d="M104 501 Q99 495 92 489.5 Q85 484 77 484 Q67 484 63 489 Q59 494 59 500 Q59 508 62 514 L120 653 Q124 663 133 668 Q142 673 153 673 Q167 673 175 664.5 Q183 656 183 645 Q183 639 180 635 L104 501 Z " />
<glyph glyph-name="parenleft" unicode="&#x28;" horiz-adv-x="225" d="M264 731 Q273 740 281 740 Q289 740 294 733.5 Q299 727 299 722 Q299 715 294 710 Q222 622 173.5 519.5 Q125 417 108 313 Q104 289 102.5 265 Q101 241 101 217 Q101 132 119.5 57 Q138 -18 165 -70 Q168 -76 168 -80 Q168 -91 160 -98 Q152 -105 145 -105 Q140 -105 135.5 -102 Q131 -99 129 -95 Q112 -67 97 -32 Q82 3 70.5 43.5 Q59 84 52.5 129 Q46 174 46 221 Q46 293 66.5 367.5 Q87 442 119 510.5 Q151 579 189.5 636.5 Q228 694 264 731 Z " />
<glyph glyph-name="parenright" unicode="&#x29;" horiz-adv-x="225" d="M180 313 Q185 339 186.5 364.5 Q188 390 188 416 Q188 494 170.5 569 Q153 644 120 710 Q118 716 118 718 Q118 723 125 731.5 Q132 740 143 740 Q151 740 156 731 Q172 707 187.5 671.5 Q203 636 215 593 Q227 550 234.5 501.5 Q242 453 242 403 Q242 331 223.5 260 Q205 189 174.5 124 Q144 59 106 3 Q68 -53 29 -95 Q22 -102 15 -102 Q10 -102 3 -96 Q-4 -90 -4 -82 Q-4 -76 1 -70 Q29 -37 57.5 7 Q86 51 110.5 100.5 Q135 150 153 204.5 Q171 259 180 313 Z " />
<glyph glyph-name="asterisk" unicode="&#x2a;" horiz-adv-x="380" d="M262 690 Q274 690 282 683.5 Q290 677 290 670 Q290 669 289.5 668.5 Q289 668 289 667 L264 540 L387 599 Q390 601 396 601 Q404 601 411 594 Q418 587 418 576 Q418 567 412.5 559 Q407 551 401 549 L269 499 L336 397 Q339 392 339 387 Q339 377 328 366.5 Q317 356 305 356 Q291 356 286 365 L231 473 L145 366 Q137 357 126 357 Q116 357 108 363.5 Q100 370 100 381 Q100 393 106 398 L202 499 L89 545 Q79 549 79 562 Q79 580 89.5 588.5 Q100 597 111 597 Q115 597 119 595 L222 540 L234 667 Q235 677 242.5 683.5 Q250 690 262 690 Z " />
<glyph glyph-name="plus" unicode="&#x2b;" horiz-adv-x="460" d="M269 306 L244 150 Q242 134 235 128 Q228 122 213 122 Q201 122 195.5 125.5 Q190 129 190 140 Q190 142 190.5 144.5 Q191 147 191 150 L216 306 L68 306 Q55 306 49.5 309.5 Q44 313 44 324 Q44 345 52.5 353 Q61 361 77 361 L225 361 L249 517 Q252 534 258 539.5 Q264 545 280 545 Q303 545 303 528 Q303 521 302 517 L278 361 L426 361 Q449 361 449 344 Q449 321 441.5 313.5 Q434 306 417 306 L269 306 Z " />
<glyph glyph-name="comma" unicode="&#x2c;" horiz-adv-x="130" d="M5 -92 Q0 -98 -7 -103.5 Q-14 -109 -23 -109 Q-32 -109 -36 -104 Q-40 -99 -40 -93 Q-40 -89 -36 -79 L21 60 Q25 70 34.5 75 Q44 80 54 80 Q68 80 76 71.5 Q84 63 84 52 Q84 46 81 42 L5 -92 Z " />
<glyph glyph-name="hyphen" unicode="&#x2d;" horiz-adv-x="311" d="M58 206 Q44 206 35 211 Q26 216 26 230 Q26 252 38.5 259.5 Q51 267 68 267 L258 267 Q272 267 281 262.5 Q290 258 290 244 Q290 222 277 214 Q264 206 248 206 L58 206 Z " />
<glyph glyph-name="period" unicode="&#x2e;" horiz-adv-x="147" d="M36 -3 Q22 -3 12.5 7 Q3 17 3 32 Q3 55 18.5 66 Q34 77 49 77 Q63 77 72 69.5 Q81 62 81 47 Q81 27 68 12 Q55 -3 36 -3 Z " />
<glyph glyph-name="slash" unicode="&#x2f;" horiz-adv-x="443" d="M482 704 Q494 699 494 687 Q494 682 491 676 L28 -26 Q19 -39 8 -39 Q-1 -39 -9 -33 Q-17 -27 -17 -17 Q-17 -11 -12 -4 L450 697 Q457 707 470 707 Q477 707 482 704 Z " />
<glyph glyph-name="zero" unicode="0" horiz-adv-x="460" d="M307 667 Q341 667 370 657.5 Q399 648 420 629.5 Q441 611 453 582.5 Q465 554 465 516 Q465 506 464 495.5 Q463 485 461 474 L416 193 Q400 96 345.5 48 Q291 0 219 0 L191 0 Q159 0 131 9.5 Q103 19 82 38 Q61 57 49 86 Q37 115 37 153 Q37 172 40 193 L85 474 Q101 571 154 619 Q207 667 279 667 L307 667 Z M408 478 Q411 494 411 508 Q411 556 383.5 585 Q356 614 303 614 L277 614 Q221 614 184.5 576.5 Q148 539 138 478 L92 189 Q91 181 90.5 173.5 Q90 166 90 159 Q90 111 116.5 82 Q143 53 198 53 L214 53 Q280 53 316 90.5 Q352 128 362 189 L408 478 Z " />
<glyph glyph-name="one" unicode="1" horiz-adv-x="460" d="M221 -5 Q208 -5 203.5 0 Q199 5 199 11 L199 16 L292 593 L181 518 Q173 513 166 513 Q157 513 149 519.5 Q141 526 141 539 Q141 553 151 560 L294 657 Q305 664 312 666 Q319 668 327 667 Q350 667 350 647 Q350 640 349 636 L251 16 Q250 9 243.5 2 Q237 -5 221 -5 Z " />
<glyph glyph-name="two" unicode="2" horiz-adv-x="460" d="M144 611 Q123 611 123 636 Q123 651 132 658.5 Q141 666 153 666 L325 666 Q398 666 437.5 629 Q477 592 477 529 Q477 488 462.5 457 Q448 426 425 402.5 Q402 379 372 361.5 Q342 344 312 329 L179 265 Q125 239 100 206 Q75 173 67 129 L54 55 L377 55 Q397 55 397 32 Q397 0 369 0 L23 0 Q7 0 0.5 7 Q-6 14 -4 24 L11 125 Q16 158 26 185 Q36 212 54 234.5 Q72 257 98 276 Q124 295 161 313 L317 388 Q365 411 393 444 Q421 477 421 519 Q421 568 396.5 589.5 Q372 611 327 611 L144 611 Z " />
<glyph glyph-name="three" unicode="3" horiz-adv-x="460" d="M273 667 Q299 667 327 661.5 Q355 656 378 640.5 Q401 625 416 598.5 Q431 572 431 530 Q431 466 397.5 423 Q364 380 310 363 Q345 347 366.5 315 Q388 283 388 226 Q388 170 371.5 127.5 Q355 85 326 56.5 Q297 28 258 14 Q219 0 174 0 L1 0 Q-4 0 -10 5.5 Q-16 11 -16 22 Q-16 41 -6.5 47 Q3 53 9 53 L176 53 Q217 53 247 65.5 Q277 78 296.5 100.5 Q316 123 325.5 153.5 Q335 184 335 220 Q335 280 305.5 310 Q276 340 224 340 L126 340 Q120 340 115 345.5 Q110 351 110 362 Q110 381 119 387.5 Q128 394 134 394 L226 394 Q256 394 283 401.5 Q310 409 330.5 425 Q351 441 363.5 465.5 Q376 490 376 523 Q376 573 344 593.5 Q312 614 262 614 L112 614 Q106 614 101 617.5 Q96 621 96 632 Q96 651 105.5 659 Q115 667 120 667 L273 667 Z " />
<glyph glyph-name="four" unicode="4" horiz-adv-x="460" d="M325 134 L306 14 Q304 7 297 0.5 Q290 -6 276 -6 Q262 -6 257 0 Q252 6 253 14 L272 134 L38 134 Q27 134 18 139 Q9 144 9 158 Q9 161 12 170 Q15 179 20 189 L286 650 Q296 668 312 668 Q319 668 329.5 665 Q340 662 340 648 Q340 642 336 635 L75 189 L280 189 L303 332 Q305 340 311.5 346.5 Q318 353 332 353 Q345 353 350.5 347.5 Q356 342 356 335 L356 332 L333 189 L432 189 Q438 189 444 184 Q450 179 450 168 Q450 154 442.5 144 Q435 134 424 134 L325 134 Z " />
<glyph glyph-name="five" unicode="5" horiz-adv-x="460" d="M28 0 Q25 0 18.5 5.5 Q12 11 12 23 Q12 41 21.5 47 Q31 53 36 53 L204 53 Q237 53 265 65.5 Q293 78 314 100.5 Q335 123 346.5 154.5 Q358 186 358 224 Q358 286 327.5 315 Q297 344 244 344 L93 344 Q76 344 70.5 354.5 Q65 365 67 376 L108 635 Q110 646 118 657 Q126 668 144 668 L447 668 Q464 668 464 648 Q464 628 454.5 621.5 Q445 615 439 615 L158 615 L124 398 L256 398 Q289 398 317.5 389 Q346 380 367.5 360.5 Q389 341 401.5 310 Q414 279 414 236 Q414 176 395.5 131.5 Q377 87 347 58 Q317 29 279 14.5 Q241 0 202 0 L28 0 Z " />
<glyph glyph-name="six" unicode="6" horiz-adv-x="460" d="M222 52 Q287 52 328 96 Q369 140 369 233 Q369 287 341.5 313 Q314 339 266 339 L118 339 L90 162 Q89 155 88.5 147.5 Q88 140 88 132 Q88 117 91.5 103 Q95 89 104.5 77.5 Q114 66 130.5 59 Q147 52 174 52 L222 52 Z M169 0 Q130 0 104.5 11 Q79 22 63.5 40.5 Q48 59 41.5 82.5 Q35 106 35 130 Q35 138 35.5 146 Q36 154 37 162 L87 474 Q96 526 113 563 Q130 600 153.5 623 Q177 646 205 656.5 Q233 667 263 667 L414 667 Q436 667 436 647 Q436 629 427.5 621.5 Q419 614 405 614 L280 614 Q223 614 188 581 Q153 548 141 477 L127 392 L270 392 Q302 392 330 383.5 Q358 375 379 356.5 Q400 338 412 308.5 Q424 279 424 238 Q424 172 406 126.5 Q388 81 359.5 53 Q331 25 294 12.5 Q257 0 220 0 L169 0 Z " />
<glyph glyph-name="seven" unicode="7" horiz-adv-x="460" d="M446 667 Q469 667 469 648 Q469 639 465.5 629.5 Q462 620 457 612 L115 7 Q107 -8 93 -8 Q80 -8 71.5 0 Q63 8 63 17 Q63 22 66 28 L401 612 L108 612 Q91 612 91 634 Q91 654 99.5 660.5 Q108 667 116 667 L446 667 Z " />
<glyph glyph-name="eight" unicode="8" horiz-adv-x="460" d="M304 668 Q336 668 364 658 Q392 648 413 629.5 Q434 611 446 585 Q458 559 458 527 Q458 498 449 472.5 Q440 447 425 426.5 Q410 406 390.5 390.5 Q371 375 350 366 Q382 351 401 319 Q420 287 420 236 Q420 174 401.5 129 Q383 84 353.5 55.5 Q324 27 287.5 13.5 Q251 0 214 0 L196 0 Q126 0 81 41 Q36 82 36 159 Q36 205 46 240 Q56 275 72.5 300.5 Q89 326 110 342.5 Q131 359 153 369 Q125 383 109.5 412 Q94 441 94 480 Q94 524 110 559 Q126 594 152.5 618 Q179 642 213.5 655 Q248 668 285 668 L304 668 Z M216 50 Q247 50 274.5 61.5 Q302 73 322.5 95.5 Q343 118 355 151 Q367 184 367 227 Q367 281 339.5 313 Q312 345 256 345 L241 345 Q210 345 182.5 333 Q155 321 134 298.5 Q113 276 101 243 Q89 210 89 168 Q89 114 116.5 82 Q144 50 199 50 L216 50 Z M288 620 Q256 620 229 609 Q202 598 183 579.5 Q164 561 153.5 535.5 Q143 510 143 482 Q143 441 170 416 Q197 391 244 391 L275 391 Q303 391 327.5 401.5 Q352 412 369.5 430 Q387 448 397 471.5 Q407 495 407 521 Q407 563 380 591.5 Q353 620 299 620 L288 620 Z " />
<glyph glyph-name="nine" unicode="9" horiz-adv-x="460" d="M270 615 Q205 615 164 568.5 Q123 522 123 433 Q123 379 151 353.5 Q179 328 226 328 L374 328 L402 505 Q405 518 405 535 Q405 550 401.5 564 Q398 578 388 589.5 Q378 601 361.5 608 Q345 615 318 615 L270 615 Z M326 667 Q364 667 389.5 656 Q415 645 430 627 Q445 609 451.5 586 Q458 563 458 539 Q458 521 455 505 L405 193 Q397 140 379.5 103.5 Q362 67 339 44 Q316 21 287.5 10.5 Q259 0 229 0 L78 0 Q56 0 56 20 Q56 38 64.5 45.5 Q73 53 87 53 L212 53 Q271 53 305.5 86 Q340 119 351 190 L365 275 L222 275 Q190 275 162 283.5 Q134 292 113 310.5 Q92 329 80 357.5 Q68 386 68 427 Q68 492 86 538 Q104 584 133 612.5 Q162 641 198.5 654 Q235 667 272 667 L326 667 Z " />
<glyph glyph-name="colon" unicode="&#x3a;" horiz-adv-x="147" d="M76 251 Q62 251 52.5 260.5 Q43 270 43 284 Q43 308 58 319.5 Q73 331 89 331 Q103 331 112.5 323.5 Q122 316 122 299 Q122 280 108 265.5 Q94 251 76 251 Z M36 -1 Q22 -1 12.5 8.5 Q3 18 3 32 Q3 56 18 67.5 Q33 79 49 79 Q63 79 72.5 71.5 Q82 64 82 47 Q82 28 68 13.5 Q54 -1 36 -1 Z " />
<glyph glyph-name="semicolon" unicode="&#x3b;" horiz-adv-x="177" d="M102 251 Q88 251 78.5 260.5 Q69 270 69 284 Q69 308 84 319.5 Q99 331 115 331 Q129 331 138.5 323.5 Q148 316 148 299 Q148 280 134 265.5 Q120 251 102 251 Z M25 -92 Q20 -98 13 -103.5 Q6 -109 -3 -109 Q-13 -109 -17 -104 Q-21 -99 -21 -93 Q-21 -89 -17 -79 L41 60 Q45 70 54.5 75 Q64 80 74 80 Q88 80 96 71.5 Q104 63 104 52 Q104 46 101 42 L25 -92 Z " />
<glyph glyph-name="less" unicode="&#x3c;" horiz-adv-x="460" d="M430 181 Q438 179 440.5 173.5 Q443 168 443 162 Q443 148 435 140 Q427 132 419 132 Q415 132 407 134 L43 285 Q29 291 23 295 Q17 299 19 308 L20 315 Q22 329 27.5 333 Q33 337 53 345 L466 530 Q469 532 475 532 Q483 532 490 524.5 Q497 517 497 506 Q497 498 492.5 491 Q488 484 476 479 L108 315 L430 181 Z " />
<glyph glyph-name="equal" unicode="&#x3d;" horiz-adv-x="460" d="M85 391 Q72 391 65.5 395.5 Q59 400 59 413 Q59 436 68.5 442.5 Q78 449 95 449 L437 449 Q451 449 456.5 443.5 Q462 438 462 427 Q462 391 427 391 L85 391 Z M58 218 Q44 218 37.5 222 Q31 226 31 238 Q31 261 41.5 268.5 Q52 276 67 276 L409 276 Q435 276 435 254 Q435 218 400 218 L58 218 Z " />
<glyph glyph-name="greater" unicode="&#x3e;" horiz-adv-x="460" d="M467 315 Q464 302 459 297 Q454 292 436 285 L24 134 Q18 132 15 132 Q-5 132 -5 159 Q-5 167 -1.5 174.5 Q2 182 13 186 L381 320 L65 485 Q52 492 52 505 Q52 517 61.5 525.5 Q71 534 79 534 Q83 534 88 531 L444 345 Q458 338 463 333.5 Q468 329 468 322 Q468 318 467 315 Z " />
<glyph glyph-name="question" unicode="&#x3f;" horiz-adv-x="410" d="M261 352 Q252 341 244.5 326 Q237 311 235 296 L220 202 Q219 193 213 185.5 Q207 178 189 178 Q181 178 174 182 Q167 186 167 197 L167 202 L186 316 Q187 325 191.5 338 Q196 351 207 362 L319 486 Q333 501 341.5 517 Q350 533 350 550 Q350 578 329.5 597 Q309 616 264 616 Q241 616 220 611.5 Q199 607 182.5 602 Q166 597 155 591.5 Q144 586 141 585 Q135 583 133 583 Q122 583 116.5 591 Q111 599 111 607 Q111 623 125 631 Q126 631 136.5 637 Q147 643 166 649.5 Q185 656 210.5 661.5 Q236 667 266 667 Q328 667 364.5 641 Q401 615 401 560 Q401 534 391.5 507 Q382 480 365 462 L261 352 Z M162 0 Q149 0 141.5 8.5 Q134 17 134 29 Q134 49 146.5 59.5 Q159 70 172 70 Q183 70 192 63.5 Q201 57 201 43 Q201 26 190 13 Q179 0 162 0 Z " />
<glyph glyph-name="at" unicode="&#x40;" horiz-adv-x="894" d="M602 465 L448 465 Q430 465 412 459.5 Q394 454 379.5 442.5 Q365 431 354.5 413 Q344 395 340 369 L324 270 Q322 262 322 254.5 Q322 247 322 241 Q322 205 339.5 189.5 Q357 174 390 174 L505 174 Q513 174 519 170 Q525 166 525 156 Q525 140 516.5 131.5 Q508 123 497 123 L383 123 Q333 123 301.5 151.5 Q270 180 270 235 Q270 250 273 267 L289 369 Q300 441 343 479.5 Q386 518 449 518 L630 518 Q641 518 648.5 511.5 Q656 505 656 490 Q656 483 655 479 L615 229 Q614 224 614 216 Q614 193 627.5 179.5 Q641 166 665 166 Q702 166 729 184 Q756 202 774 233 Q792 264 801 303.5 Q810 343 810 387 Q810 450 791 501.5 Q772 553 735 590 Q698 627 645 647 Q592 667 525 667 Q448 667 374 637 Q300 607 242.5 551 Q185 495 150 414.5 Q115 334 115 233 Q115 168 133.5 114.5 Q152 61 188 23.5 Q224 -14 277.5 -34.5 Q331 -55 401 -55 Q444 -55 489 -46 Q534 -37 576 -16 Q578 -15 582 -15 Q593 -15 597.5 -22 Q602 -29 602 -37 Q602 -56 575.5 -68 Q549 -80 513.5 -87 Q478 -94 442 -96.5 Q406 -99 386 -99 Q309 -99 249.5 -75 Q190 -51 149.5 -7.5 Q109 36 87.5 96.5 Q66 157 66 230 Q66 330 101 418 Q136 506 198 571.5 Q260 637 345 675 Q430 713 531 713 Q604 713 664 690 Q724 667 767 626 Q810 585 833.5 526.5 Q857 468 857 398 Q857 321 839.5 268 Q822 215 794.5 182.5 Q767 150 733 135.5 Q699 121 666 121 Q617 121 590 145 Q563 169 563 207 Q563 212 563 216 Q563 220 564 225 L602 465 Z " />
<glyph glyph-name="A" unicode="A" horiz-adv-x="532" d="M399 156 L114 156 L45 13 Q40 4 34 0.5 Q28 -3 20 -4 Q3 -4 -4 3 Q-11 10 -11 17 Q-11 21 -7 31 L288 638 Q297 656 303 661.5 Q309 667 323 667 L352 667 Q365 667 370 661.5 Q375 656 378 638 L479 31 Q480 28 480 23 Q480 16 473 6.5 Q466 -3 446 -3 Q438 -3 431.5 1 Q425 5 423 13 L399 156 Z M141 210 L391 210 L328 606 L141 210 Z " />
<glyph glyph-name="B" unicode="B" horiz-adv-x="553" d="M52 0 Q38 0 33 4.5 Q28 9 28 17 Q28 24 29 28 L126 639 Q128 655 135 661 Q142 667 157 667 L398 667 Q456 667 493.5 631.5 Q531 596 531 530 Q531 508 525 483 Q519 458 506 434.5 Q493 411 473.5 390.5 Q454 370 427 357 Q439 350 452.5 338 Q466 326 477 309 Q488 292 495 269 Q502 246 502 217 Q502 162 483.5 121 Q465 80 435.5 53 Q406 26 370 13 Q334 0 299 0 L52 0 Z M175 614 L139 388 L356 388 Q379 388 400.5 398.5 Q422 409 439 427.5 Q456 446 466.5 471 Q477 496 477 526 Q477 567 451 590.5 Q425 614 377 614 L175 614 Z M130 333 L86 53 L303 53 Q330 53 356 62.5 Q382 72 403 91.5 Q424 111 436.5 140 Q449 169 449 208 Q449 229 443.5 251.5 Q438 274 425.5 292 Q413 310 392.5 321.5 Q372 333 341 333 L130 333 Z " />
<glyph glyph-name="C" unicode="C" horiz-adv-x="478" d="M178 0 Q116 0 78.5 36 Q41 72 41 145 Q41 170 45 193 L90 474 Q121 667 272 667 L493 667 Q515 667 515 647 Q515 629 507 621.5 Q499 614 485 614 L281 614 Q216 614 184.5 576 Q153 538 143 477 L97 189 Q94 169 94 151 Q94 106 116 79.5 Q138 53 192 53 L396 53 Q418 53 418 35 Q418 18 410 9 Q402 0 388 0 L178 0 Z " />
<glyph glyph-name="D" unicode="D" horiz-adv-x="566" d="M52 0 Q37 0 32 6 Q27 12 29 28 L126 639 Q128 655 135 661 Q142 667 157 667 L418 667 Q504 667 538 623.5 Q572 580 557 482 L510 184 Q495 87 444.5 43.5 Q394 0 318 0 L52 0 Z M505 494 Q509 521 507 543.5 Q505 566 494.5 581.5 Q484 597 464 606 Q444 615 412 615 L175 615 L86 53 L308 53 Q345 53 371 63 Q397 73 414.5 91 Q432 109 442 134 Q452 159 457 189 L505 494 Z " />
<glyph glyph-name="E" unicode="E" horiz-adv-x="464" d="M52 0 Q37 0 32 6 Q27 12 29 28 L126 639 Q128 655 135 661 Q142 667 157 667 L493 667 Q518 667 514 639 Q510 614 485 614 L175 614 L138 380 L404 380 Q427 380 424 354 Q421 339 414 333.5 Q407 328 395 328 L129 328 L86 53 L396 53 Q421 53 417 28 Q413 0 388 0 L52 0 Z " />
<glyph glyph-name="F" unicode="F" horiz-adv-x="460" d="M175 614 L138 380 L404 380 Q427 380 424 354 Q421 339 414 333.5 Q407 328 395 328 L129 328 L81 23 Q79 6 72.5 0.5 Q66 -5 51 -5 Q36 -5 31 1 Q26 7 28 23 L126 639 Q128 655 135 661 Q142 667 157 667 L493 667 Q518 667 514 639 Q510 614 485 614 L175 614 Z " />
<glyph glyph-name="G" unicode="G" horiz-adv-x="531" d="M406 53 L449 327 L331 327 Q311 327 311 347 Q311 381 340 381 L484 381 Q498 381 503 378.5 Q508 376 508 365 Q508 363 508 360.5 Q508 358 507 355 L455 28 Q453 12 446.5 6 Q440 0 426 0 L178 0 Q116 0 78.5 36 Q41 72 41 145 Q41 170 45 193 L90 474 Q121 667 272 667 L513 667 Q535 667 535 647 Q535 629 527 621.5 Q519 614 505 614 L281 614 Q216 614 184.5 576 Q153 538 143 477 L97 189 Q94 169 94 151 Q94 106 116 79.5 Q138 53 192 53 L406 53 Z " />
<glyph glyph-name="H" unicode="H" horiz-adv-x="546" d="M423 -5 Q408 -5 403.5 0.5 Q399 6 401 23 L449 328 L129 328 L81 23 Q79 6 72.5 0.5 Q66 -5 51 -5 Q36 -5 31 1 Q26 7 28 23 L126 643 Q129 659 136 665 Q143 671 158 671 Q173 671 177.5 665.5 Q182 660 179 643 L138 380 L458 380 L499 643 Q502 660 508.5 665.5 Q515 671 530 671 Q545 671 550 665 Q555 659 552 643 L454 23 Q452 7 445 1 Q438 -5 423 -5 Z " />
<glyph glyph-name="I" unicode="I" horiz-adv-x="233" d="M81 -5 Q66 -5 61 1 Q56 7 58 23 L156 643 Q159 659 166 665 Q173 671 188 671 Q203 671 207.5 665.5 Q212 660 209 643 L111 23 Q109 6 102.5 0.5 Q96 -5 81 -5 Z " />
<glyph glyph-name="J" unicode="J" horiz-adv-x="380" d="M-18 0 Q-34 0 -34 22 Q-34 40 -24.5 45.5 Q-15 51 -10 51 L85 51 Q139 51 170 77 Q201 103 211 164 L287 643 Q289 659 297 665 Q305 671 319 671 Q331 671 336 668 Q341 665 341 655 Q341 648 340 643 L264 164 Q251 81 208 40.5 Q165 0 79 0 L-18 0 Z " />
<glyph glyph-name="K" unicode="K" horiz-adv-x="497" d="M265 390 L452 38 Q456 31 455 21 Q454 11 446 5 Q439 0 432 -1 Q425 -2 419.5 -0.5 Q414 1 410 4.5 Q406 8 404 12 L223 356 L120 267 L81 23 Q79 6 72.5 0.5 Q66 -5 51 -5 Q36 -5 31 3 Q26 11 28 23 L126 643 Q128 655 135.5 663 Q143 671 158 671 Q173 671 177 664 Q181 657 179 643 L132 341 L506 658 Q515 666 526 669.5 Q537 673 547 662 Q555 654 552.5 643 Q550 632 543 627 L265 390 Z " />
<glyph glyph-name="L" unicode="L" horiz-adv-x="464" d="M52 0 Q37 0 32 6 Q27 12 29 28 L126 644 Q129 660 135.5 666 Q142 672 157 672 Q172 672 177 666.5 Q182 661 179 644 L86 53 L393 53 Q419 53 416 28 Q413 0 387 0 L52 0 Z " />
<glyph glyph-name="M" unicode="M" horiz-adv-x="640" d="M516 -5 Q501 -5 496.5 0.5 Q492 6 494 23 L587 612 L372 261 Q364 249 356.5 242 Q349 235 337 235 L304 235 Q292 235 286.5 242 Q281 249 277 261 L173 612 L80 23 Q77 6 71 0.5 Q65 -5 50 -5 Q35 -5 30 1 Q25 7 27 23 L125 639 Q127 655 134 661 Q141 667 156 667 L194 667 Q205 667 209.5 663.5 Q214 660 218 651 L327 273 L556 651 Q563 660 568 663.5 Q573 667 584 667 L622 667 Q637 667 642 661 Q647 655 645 639 L547 23 Q545 7 538 1 Q531 -5 516 -5 Z " />
<glyph glyph-name="N" unicode="N" horiz-adv-x="563" d="M420 0 Q409 0 405 3.5 Q401 7 397 15 Q396 16 394 20 Q392 24 384.5 41 Q377 58 363 93 Q349 128 324 192 Q299 256 261.5 353 Q224 450 171 592 L81 24 Q79 7 72.5 1.5 Q66 -4 51 -4 Q36 -4 31 2 Q26 8 28 24 L126 639 Q128 655 135 661 Q142 667 157 667 L185 667 Q196 667 200 663.5 Q204 660 208 651 L426 75 L516 643 Q519 660 525.5 665.5 Q532 671 547 671 Q562 671 567 665 Q572 659 569 643 L472 28 Q470 12 463 6 Q456 0 441 0 L420 0 Z " />
<glyph glyph-name="O" unicode="O" horiz-adv-x="536" d="M367 667 Q401 667 430.5 656.5 Q460 646 481.5 625.5 Q503 605 515 575 Q527 545 527 506 Q527 486 524 465 L481 193 Q466 96 414.5 48 Q363 0 284 0 L201 0 Q167 0 138 10 Q109 20 87.5 40 Q66 60 54 89 Q42 118 42 157 Q42 176 45 197 L90 474 Q106 571 156 619 Q206 667 282 667 L367 667 Z M471 469 Q474 485 474 500 Q474 550 445.5 582 Q417 614 359 614 L285 614 Q225 614 189 576.5 Q153 539 143 478 L98 197 Q96 189 96 181 Q96 173 96 165 Q96 116 122 84.5 Q148 53 208 53 L279 53 Q350 53 383.5 90.5 Q417 128 427 189 L471 469 Z " />
<glyph glyph-name="P" unicode="P" horiz-adv-x="528" d="M121 275 L81 23 Q78 6 72 0.5 Q66 -5 50 -5 Q34 -5 30 2.5 Q26 10 28 23 L126 639 Q128 655 135 661 Q142 667 157 667 L363 667 Q445 667 487.5 625 Q530 583 530 505 Q530 452 515 409.5 Q500 367 472 337 Q444 307 404 291 Q364 275 314 275 L121 275 Z M175 614 L130 329 L330 329 Q368 329 395.5 344 Q423 359 440.5 383 Q458 407 466.5 436 Q475 465 475 493 Q475 557 445 585.5 Q415 614 367 614 L175 614 Z " />
<glyph glyph-name="Q" unicode="Q" horiz-adv-x="531" d="M367 667 Q401 667 430.5 656.5 Q460 646 481.5 625.5 Q503 605 515 575 Q527 545 527 506 Q527 486 524 465 L481 193 Q469 114 430 64 L476 5 Q484 -6 484 -12 Q484 -23 472 -32.5 Q460 -42 451 -42 Q441 -42 433 -31 L387 27 Q343 0 284 0 L201 0 Q167 0 138 10 Q109 20 87.5 40 Q66 60 54 89 Q42 118 42 157 Q42 176 45 197 L90 474 Q106 571 156 619 Q206 667 282 667 L367 667 Z M471 469 Q473 476 473 482.5 Q473 489 473 496 Q473 547 443 580.5 Q413 614 359 614 L285 614 Q225 614 189 576.5 Q153 539 143 478 L98 197 Q96 189 96 181 Q96 173 96 165 Q96 116 122 84.5 Q148 53 208 53 L279 53 Q321 53 353 70 L297 142 Q289 153 289 161 Q289 170 300 181 Q311 192 321 192 Q331 192 342 178 L396 108 Q419 140 427 189 L471 469 Z " />
<glyph glyph-name="R" unicode="R" horiz-adv-x="527" d="M121 275 L80 23 Q78 9 71.5 2 Q65 -5 49 -5 Q33 -5 29 4 Q25 13 27 23 L126 639 Q128 655 135 661 Q142 667 157 667 L366 667 Q447 667 488.5 624 Q530 581 530 504 Q530 455 516 415.5 Q502 376 478 347 Q454 318 421 300.5 Q388 283 351 277 L443 30 Q446 24 446 18 Q446 2 428 -4 Q423 -6 415 -6 Q399 -6 395 7 L296 275 L121 275 Z M175 614 L130 329 L327 329 Q366 329 394 344.5 Q422 360 440 384 Q458 408 466.5 437 Q475 466 475 493 Q475 557 445 585.5 Q415 614 367 614 L175 614 Z " />
<glyph glyph-name="S" unicode="S" horiz-adv-x="520" d="M45 0 Q40 0 35 3.5 Q30 7 30 18 Q30 38 39.5 45.5 Q49 53 53 53 L283 53 Q305 53 327.5 61 Q350 69 368.5 84.5 Q387 100 398.5 123 Q410 146 410 176 Q410 216 391 239.5 Q372 263 330 283 L199 343 Q175 354 154 366 Q133 378 117.5 394.5 Q102 411 93 434 Q84 457 84 490 Q84 532 98.5 564.5 Q113 597 138 619.5 Q163 642 197.5 654 Q232 666 273 666 L490 666 Q494 666 499.5 661 Q505 656 505 644 Q505 625 496 619 Q487 613 482 613 L264 613 Q241 613 219.5 605.5 Q198 598 181 583 Q164 568 154 546 Q144 524 144 496 Q144 458 159.5 437.5 Q175 417 211 401 L337 345 Q363 334 386.5 321 Q410 308 428 290 Q446 272 457 247.5 Q468 223 468 187 Q468 145 454 111 Q440 77 415 52 Q390 27 356.5 13.5 Q323 0 283 0 L45 0 Z " />
<glyph glyph-name="T" unicode="T" horiz-adv-x="466" d="M321 614 L227 23 Q225 7 218.5 1 Q212 -5 196 -5 Q181 -5 176 0.5 Q171 6 174 23 L268 614 L93 614 Q71 614 71 632 Q71 634 71.5 635.5 Q72 637 72 639 Q76 667 101 667 L504 667 Q526 667 526 647 Q526 645 525.5 643 Q525 641 525 639 Q521 614 496 614 L321 614 Z " />
<glyph glyph-name="U" unicode="U" horiz-adv-x="546" d="M486 193 Q456 0 292 0 L194 0 Q126 0 86 36.5 Q46 73 46 147 Q46 158 47 169.5 Q48 181 50 193 L121 640 Q124 659 134.5 663 Q145 667 152 667 Q157 667 167 663 Q177 659 174 640 L102 189 Q99 169 99 152 Q99 107 123 80 Q147 53 202 53 L294 53 Q357 53 389.5 90.5 Q422 128 432 189 L504 640 Q507 660 517.5 663.5 Q528 667 534 667 Q540 667 550 663 Q560 659 557 640 L486 193 Z " />
<glyph glyph-name="V" unicode="V" horiz-adv-x="527" d="M560 666 Q576 659 576 646 Q576 640 573 634 L274 28 Q266 11 260 5.5 Q254 0 241 0 L208 0 Q195 0 190 5.5 Q185 11 182 28 L76 634 Q76 636 75.5 637.5 Q75 639 75 641 Q75 650 81.5 658.5 Q88 667 105 667 Q116 667 121.5 662 Q127 657 128 649 L231 47 L522 651 Q530 668 549 668 Q556 668 560 666 Z " />
<glyph glyph-name="W" unicode="W" horiz-adv-x="737" d="M378 581 Q384 598 392.5 605.5 Q401 613 415 613 L444 613 Q458 613 464 605 Q470 597 471 581 L497 51 L739 655 Q747 671 762 671 Q765 671 768 670.5 Q771 670 775 669 Q793 665 793 650 Q793 644 790 638 L540 28 Q531 11 525.5 5.5 Q520 0 507 0 L473 0 Q460 0 455 5.5 Q450 11 447 28 L421 552 L229 28 Q220 11 214.5 5.5 Q209 0 196 0 L162 0 Q149 0 144 5.5 Q139 11 136 28 L74 638 Q73 646 75 655 Q77 664 90 667 Q95 668 99 668.5 Q103 669 106 669 Q125 669 126 651 L186 51 L378 581 Z " />
<glyph glyph-name="X" unicode="X" horiz-adv-x="503" d="M39 6 Q30 -6 14 -6 Q4 -6 -5 0 Q-14 6 -14 17 Q-14 25 -8 33 L244 346 L100 635 Q98 639 98 643 Q98 654 109 663 Q120 672 131 672 Q145 672 151 658 L280 394 L490 659 Q501 672 518 672 Q526 672 537 666 Q548 660 548 649 Q548 642 543 636 L307 345 L467 29 Q470 24 470 18 Q470 8 462 1 Q454 -6 441 -6 Q425 -6 417 9 L273 298 L39 6 Z " />
<glyph glyph-name="Y" unicode="Y" horiz-adv-x="475" d="M256 344 L488 656 Q493 662 499 664.5 Q505 667 511 667 Q525 667 531.5 658.5 Q538 650 538 645 Q538 639 533 632 L279 289 L237 21 Q234 -5 204 -5 Q193 -5 187 1.5 Q181 8 181 17 L181 21 L223 289 L72 631 Q70 637 70 641 Q70 648 77.5 657.5 Q85 667 100 667 Q115 667 121 653 L256 344 Z " />
<glyph glyph-name="Z" unicode="Z" horiz-adv-x="461" d="M14 0 Q0 1 -6 7.5 Q-12 14 -12 22 Q-12 32 -7 42 Q-2 52 3 59 L433 614 L112 614 Q90 614 90 632 Q90 650 98 658.5 Q106 667 120 667 L486 667 Q495 667 500 661.5 Q505 656 505 648 Q505 636 500 626 Q495 616 488 607 L60 53 L394 53 Q413 53 413 36 Q413 18 405.5 9 Q398 0 386 0 L14 0 Z " />
<glyph glyph-name="bracketleft" unicode="&#x5b;" horiz-adv-x="246" d="M20 -82 Q2 -82 -3.5 -72 Q-9 -62 -7 -51 L111 691 Q113 702 121 712 Q129 722 147 722 L299 722 Q304 722 309.5 717.5 Q315 713 315 702 Q315 686 306 679 Q297 672 291 672 L158 672 L46 -32 L179 -32 Q183 -32 189.5 -35.5 Q196 -39 196 -51 Q196 -67 187 -74.5 Q178 -82 172 -82 L20 -82 Z " />
<glyph glyph-name="backslash" unicode="&#x5c;" horiz-adv-x="443" d="M114 704 Q120 707 127 707 Q141 707 144 697 L384 -4 Q385 -6 385 -11 Q385 -22 375 -30.5 Q365 -39 353 -39 Q340 -39 336 -26 L97 676 Q96 678 96 683 Q96 696 114 704 Z " />
<glyph glyph-name="bracketright" unicode="&#x5d;" horiz-adv-x="261" d="M11 -72 Q6 -72 0 -67.5 Q-6 -63 -6 -52 Q-6 -33 4.5 -27.5 Q15 -22 19 -22 L152 -22 L260 662 L127 662 Q124 662 117.5 665.5 Q111 669 111 681 Q111 699 120.5 705.5 Q130 712 135 712 L287 712 Q302 712 308 705 Q314 698 314 689 Q314 684 313 681 L199 -41 Q197 -52 189 -62 Q181 -72 163 -72 L11 -72 Z " />
<glyph glyph-name="asciicircum" unicode="&#x5e;" horiz-adv-x="399" d="M270 669 Q279 669 288 660 L415 529 Q423 521 420 510 Q417 499 411 493 Q404 486 391 484 Q378 482 369 491 L264 600 L116 488 Q104 479 91 482 Q78 485 73 493 Q69 499 69.5 510.5 Q70 522 79 529 L250 660 Q262 669 270 669 Z " />
<glyph glyph-name="underscore" unicode="&#x5f;" horiz-adv-x="500" d="M-49 -107 Q-80 -107 -75 -80 Q-71 -53 -41 -53 L454 -53 Q470 -53 474 -59.5 Q478 -66 476 -80 Q474 -94 468.5 -100.5 Q463 -107 446 -107 L-49 -107 Z " />
<glyph glyph-name="quoteleft" unicode="&#x2018;" horiz-adv-x="129" d="M140 655 Q145 661 152 666.5 Q159 672 168 672 Q178 672 182 667 Q186 662 186 656 Q186 652 182 642 L124 503 Q120 494 111.5 489 Q103 484 92 484 Q78 484 70 492 Q62 500 62 511 Q62 518 64 521 L140 655 Z " />
<glyph glyph-name="a" unicode="a" horiz-adv-x="477" d="M239 463 Q281 463 323 450 Q365 437 402 416 Q405 431 414.5 446 Q424 461 447 461 Q460 461 460 454 Q460 450 459 447 L390 8 Q389 1 387 -0.5 Q385 -2 379 -2 Q359 -2 351.5 13 Q344 28 344 43 L344 51 Q306 28 262.5 14 Q219 0 181 0 Q106 0 71.5 31.5 Q37 63 37 126 Q37 137 38 148.5 Q39 160 41 173 L59 290 Q72 372 117 417.5 Q162 463 239 463 Z M94 173 Q91 153 91 137 Q91 92 115 72 Q139 52 188 52 Q223 52 265.5 66.5 Q308 81 352 104 L394 365 Q366 385 322.5 396.5 Q279 408 242 408 Q189 408 156.5 380.5 Q124 353 113 290 L94 173 Z " />
<glyph glyph-name="b" unicode="b" horiz-adv-x="461" d="M170 0 Q129 0 102.5 12 Q76 24 60 43.5 Q44 63 37.5 87.5 Q31 112 31 136 Q31 145 31.5 153 Q32 161 33 169 L112 673 Q113 678 118 688 Q123 698 137 698 Q151 698 157.5 690.5 Q164 683 164 675 L164 671 L122 411 Q159 431 203.5 446 Q248 461 286 461 Q363 461 399.5 428.5 Q436 396 436 333 Q436 322 435 311.5 Q434 301 432 289 L414 167 Q402 86 353.5 43 Q305 0 226 0 L170 0 Z M87 170 Q86 163 85.5 155.5 Q85 148 85 140 Q85 124 89 108 Q93 92 103.5 79.5 Q114 67 133 59 Q152 51 182 51 L227 51 Q249 51 271 57 Q293 63 311 76.5 Q329 90 342 111.5 Q355 133 360 163 L379 289 Q381 297 381 304 Q381 311 381 318 Q381 366 353.5 387.5 Q326 409 279 409 Q244 409 201.5 395 Q159 381 115 358 L87 170 Z " />
<glyph glyph-name="c" unicode="c" horiz-adv-x="383" d="M232 407 Q210 407 188.5 399.5 Q167 392 150 377 Q133 362 120.5 340.5 Q108 319 104 291 L86 169 Q85 161 84.5 154 Q84 147 84 140 Q84 93 110 72.5 Q136 52 180 52 L314 52 Q318 52 324.5 48 Q331 44 331 32 Q331 15 321 7.5 Q311 0 305 0 L169 0 Q103 0 67 37.5 Q31 75 31 136 Q31 144 31 152 Q31 160 33 168 L51 289 Q64 373 114.5 416 Q165 459 250 459 L369 459 Q374 459 380.5 454.5 Q387 450 387 437 Q387 419 376.5 413 Q366 407 361 407 L232 407 Z " />
<glyph glyph-name="d" unicode="d" horiz-adv-x="479" d="M384 8 Q383 1 381 -0.5 Q379 -2 373 -2 Q353 -2 345.5 13 Q338 28 338 43 L338 51 Q300 28 256.5 14 Q213 0 175 0 Q100 0 65.5 31.5 Q31 63 31 125 Q31 136 32 147.5 Q33 159 35 172 L55 292 Q69 377 116.5 418.5 Q164 460 234 460 L404 460 L439 673 Q440 678 445.5 688 Q451 698 465 698 Q479 698 485 690.5 Q491 683 491 675 L491 671 L384 8 Z M395 406 L234 406 Q189 406 154 380.5 Q119 355 108 292 L88 172 Q86 164 86 156 Q86 148 86 141 Q86 93 111 72.5 Q136 52 182 52 Q217 52 259.5 66 Q302 80 346 103 L395 406 Z " />
<glyph glyph-name="e" unicode="e" horiz-adv-x="441" d="M301 459 Q364 459 398.5 428 Q433 397 433 340 Q433 319 425 293.5 Q417 268 393 246 Q369 224 326 209.5 Q283 195 213 195 Q187 195 156.5 197.5 Q126 200 91 205 L86 169 Q85 162 84.5 155.5 Q84 149 84 142 Q84 101 106 76.5 Q128 52 179 52 L332 52 Q339 52 345.5 46 Q352 40 352 29 Q352 11 342 5.5 Q332 0 326 0 L177 0 Q103 0 67 38 Q31 76 31 134 Q31 142 31.5 149.5 Q32 157 33 165 L51 287 Q65 377 115.5 418 Q166 459 244 459 L301 459 Z M235 410 Q211 410 189 403 Q167 396 149.5 381.5 Q132 367 119.5 344.5 Q107 322 103 291 L98 252 Q134 247 164 244.5 Q194 242 219 242 Q275 242 307.5 252.5 Q340 263 356 278 Q372 293 376 309.5 Q380 326 380 339 Q380 370 356.5 390 Q333 410 293 410 L235 410 Z " />
<glyph glyph-name="f" unicode="f" horiz-adv-x="310" d="M135 410 L60 410 Q56 410 50 414 Q44 418 44 431 Q44 450 55.5 454.5 Q67 459 72 459 L144 459 L154 526 Q160 568 173 599.5 Q186 631 207 652.5 Q228 674 259 685 Q290 696 333 696 L395 696 Q400 696 406.5 691.5 Q413 687 413 674 Q413 656 402.5 650 Q392 644 387 644 L315 644 Q270 644 242.5 614.5 Q215 585 207 528 L197 459 L322 459 Q327 459 332.5 455 Q338 451 338 438 Q338 420 327 415 Q316 410 310 410 L188 410 L123 -36 Q111 -120 70 -163 Q29 -206 -56 -206 L-118 -206 Q-123 -206 -129.5 -201.5 Q-136 -197 -136 -184 Q-136 -166 -125.5 -160 Q-115 -154 -110 -154 L-38 -154 Q7 -154 34.5 -124.5 Q62 -95 70 -38 L135 410 Z " />
<glyph glyph-name="g" unicode="g" horiz-adv-x="465" d="M348 46 Q311 26 266.5 11 Q222 -4 184 -4 Q34 -4 34 124 Q34 135 35 145.5 Q36 156 38 168 L56 290 Q68 371 116.5 414.5 Q165 458 244 458 L300 458 Q340 458 367 445.5 Q394 433 410.5 413.5 Q427 394 433.5 369.5 Q440 345 440 321 Q440 304 437 288 L387 -41 Q373 -128 323.5 -168 Q274 -208 202 -208 L46 -208 Q43 -208 37 -203.5 Q31 -199 31 -187 Q31 -169 41 -162.5 Q51 -156 57 -156 L203 -156 Q225 -156 246.5 -149 Q268 -142 285.5 -128.5 Q303 -115 315.5 -94 Q328 -73 333 -45 L348 46 Z M383 287 Q386 300 386 317 Q386 333 382 349 Q378 365 367 377.5 Q356 390 337 398 Q318 406 288 406 L243 406 Q221 406 199 399.5 Q177 393 159 379.5 Q141 366 127.5 345 Q114 324 110 294 L91 168 Q90 160 89.5 153 Q89 146 89 140 Q89 91 117 69.5 Q145 48 191 48 Q226 48 268.5 62 Q311 76 355 99 L383 287 Z " />
<glyph glyph-name="h" unicode="h" horiz-adv-x="477" d="M139 411 Q176 431 220.5 446 Q265 461 303 461 Q378 461 412.5 430 Q447 399 447 337 Q447 312 443 289 L397 7 Q396 1 394 -0.5 Q392 -2 387 -2 Q364 -2 356 16.5 Q348 35 351 54 L390 289 Q393 307 393 321 Q393 368 367 388.5 Q341 409 296 409 Q261 409 218.5 395 Q176 381 132 358 L77 21 Q76 16 69.5 6 Q63 -4 49 -4 Q33 -4 27.5 5 Q22 14 24 23 L128 672 Q129 677 134 687 Q139 697 153 697 Q169 697 175.5 688 Q182 679 180 670 L139 411 Z " />
<glyph glyph-name="i" unicode="i" horiz-adv-x="211" d="M116 439 Q117 444 122 454 Q127 464 141 464 Q155 464 161.5 456.5 Q168 449 168 441 L168 437 L100 7 Q99 1 97 -0.5 Q95 -2 90 -2 Q70 -2 61.5 12 Q53 26 53 43 Q53 46 53.5 49 Q54 52 54 54 L116 439 Z M173 634 Q187 634 195 626 Q203 618 203 606 Q203 589 191 577.5 Q179 566 162 566 Q150 566 142 573.5 Q134 581 134 594 Q134 611 146.5 622.5 Q159 634 173 634 Z " />
<glyph glyph-name="j" unicode="j" horiz-adv-x="244" d="M129 439 Q130 444 135 454 Q140 464 154 464 Q168 464 174.5 456.5 Q181 449 181 441 L181 437 L104 -42 Q98 -83 87.5 -114 Q77 -145 58.5 -166 Q40 -187 11.5 -197.5 Q-17 -208 -60 -208 L-95 -208 Q-99 -208 -105 -203.5 Q-111 -199 -111 -188 Q-111 -171 -102 -163.5 Q-93 -156 -84 -156 L-49 -156 Q-4 -156 19.5 -128 Q43 -100 51 -46 L129 439 Z M186 634 Q200 634 208 626 Q216 618 216 606 Q216 589 204 577.5 Q192 566 175 566 Q163 566 155 573.5 Q147 581 147 594 Q147 611 159.5 622.5 Q172 634 186 634 Z " />
<glyph glyph-name="k" unicode="k" horiz-adv-x="426" d="M107 206 L77 21 Q76 16 70.5 6 Q65 -4 51 -4 Q37 -4 30.5 3.5 Q24 11 24 20 L24 23 L128 672 Q129 677 135 687 Q141 697 155 697 Q169 697 174.5 689.5 Q180 682 180 674 L180 670 L117 270 L391 459 Q398 465 407 465 Q418 465 424 457 Q430 449 430 439 Q430 427 419 420 L270 318 L378 30 Q379 28 379 22 Q379 14 373.5 5 Q368 -4 353 -4 Q336 -4 331 11 L227 288 L107 206 Z " />
<glyph glyph-name="l" unicode="l" horiz-adv-x="209" d="M151 672 Q152 677 157 687 Q162 697 176 697 Q192 697 198.5 688 Q205 679 203 670 L100 7 Q99 1 97 -0.5 Q95 -2 90 -2 Q67 -2 59 16.5 Q51 35 54 54 L151 672 Z " />
<glyph glyph-name="m" unicode="m" horiz-adv-x="709" d="M629 7 Q628 1 626 -0.5 Q624 -2 619 -2 Q599 -2 590.5 12 Q582 26 582 43 Q582 46 582.5 49 Q583 52 583 54 L621 289 Q623 300 624 309.5 Q625 319 625 328 Q625 371 604 390 Q583 409 542 409 Q516 409 479 393.5 Q442 378 401 352 L401 342 Q401 330 400 316.5 Q399 303 397 289 L353 7 Q352 1 350 -0.5 Q348 -2 343 -2 Q323 -2 314.5 12 Q306 26 306 43 Q306 46 306.5 49 Q307 52 307 54 L344 289 Q347 311 347 328 Q347 371 327.5 390 Q308 409 267 409 Q240 409 209.5 397.5 Q179 386 132 358 L77 21 Q75 13 70 4.5 Q65 -4 51 -4 Q36 -4 30 3.5 Q24 11 24 19 L24 23 L93 449 Q95 457 97 459 Q99 461 105 461 Q125 461 132.5 447.5 Q140 434 140 420 Q140 414 139 411 Q177 436 212.5 448.5 Q248 461 274 461 Q366 461 392 397 Q449 436 487.5 448.5 Q526 461 549 461 Q615 461 646.5 430 Q678 399 678 338 Q678 327 677 315 Q676 303 674 289 L629 7 Z " />
<glyph glyph-name="n" unicode="n" horiz-adv-x="478" d="M77 21 Q75 13 69.5 4.5 Q64 -4 50 -4 Q36 -4 30 3.5 Q24 11 24 19 L24 23 L93 449 Q95 457 97 459 Q99 461 105 461 Q125 461 132.5 447.5 Q140 434 140 420 Q140 414 139 411 Q176 431 220.5 446 Q265 461 303 461 Q378 461 412.5 430 Q447 399 447 337 Q447 312 443 289 L398 7 Q397 1 395 -0.5 Q393 -2 388 -2 Q368 -2 359.5 12 Q351 26 351 43 Q351 46 351.5 49 Q352 52 352 54 L390 289 Q393 307 393 322 Q393 368 367 388.5 Q341 409 296 409 Q261 409 218.5 395 Q176 381 132 358 L77 21 Z " />
<glyph glyph-name="o" unicode="o" horiz-adv-x="460" d="M183 0 Q111 0 71 36.5 Q31 73 31 139 Q31 156 34 176 L51 289 Q64 371 113.5 415 Q163 459 244 459 L280 459 Q347 459 390.5 423 Q434 387 434 318 Q434 302 431 284 L414 167 Q402 86 353 43 Q304 0 226 0 L183 0 Z M378 284 Q380 291 380 297.5 Q380 304 380 310 Q380 361 349 384.5 Q318 408 270 408 L233 408 Q189 408 151.5 379.5 Q114 351 104 289 L87 176 Q86 168 85.5 161 Q85 154 85 147 Q85 99 113.5 75 Q142 51 193 51 L225 51 Q275 51 313.5 78 Q352 105 361 167 L378 284 Z " />
<glyph glyph-name="p" unicode="p" horiz-adv-x="479" d="M94 449 Q96 457 98 459 Q100 461 106 461 Q126 461 133.5 447.5 Q141 434 141 420 Q141 414 140 411 Q177 431 221.5 446 Q266 461 304 461 Q379 461 413.5 430 Q448 399 448 337 Q448 312 444 289 L424 169 Q410 84 362.5 42 Q315 0 245 0 L75 0 L43 -191 Q42 -196 36.5 -206 Q31 -216 17 -216 Q3 -216 -3 -208.5 Q-9 -201 -9 -193 L-9 -189 L94 449 Z M83 52 L244 52 Q289 52 324.5 79 Q360 106 371 169 L391 289 Q394 305 394 320 Q394 368 368.5 388.5 Q343 409 297 409 Q262 409 219.5 395 Q177 381 133 358 L83 52 Z " />
<glyph glyph-name="q" unicode="q" horiz-adv-x="466" d="M296 458 Q338 458 365 446 Q392 434 407.5 415.5 Q423 397 429.5 373 Q436 349 436 325 Q436 306 433 288 L358 -191 Q357 -196 352 -206 Q347 -216 333 -216 Q319 -216 312.5 -208.5 Q306 -201 306 -193 L306 -189 L344 46 Q307 26 262.5 11 Q218 -4 180 -4 Q30 -4 30 124 Q30 135 31 145.5 Q32 156 34 168 L52 290 Q64 371 112.5 414.5 Q161 458 240 458 L296 458 Z M380 287 Q381 294 381.5 301 Q382 308 382 316 Q382 332 378 348 Q374 364 363.5 377 Q353 390 333.5 398 Q314 406 284 406 L239 406 Q217 406 195 399.5 Q173 393 155 379.5 Q137 366 123.5 345 Q110 324 106 294 L87 168 Q85 160 85 152 Q85 144 85 137 Q85 89 110.5 68.5 Q136 48 187 48 Q222 48 264.5 62 Q307 76 351 99 L380 287 Z " />
<glyph glyph-name="r" unicode="r" horiz-adv-x="322" d="M93 18 Q92 13 86.5 4 Q81 -5 67 -5 Q53 -5 45.5 2.5 Q38 10 40 20 L109 449 Q111 457 113 459.5 Q115 462 121 462 Q141 462 148.5 448 Q156 434 156 420 Q156 413 155 410 L152 390 Q178 418 222.5 440 Q267 462 319 462 Q336 445 336 424 Q336 413 330 404.5 Q324 396 312 394 Q270 388 230.5 379.5 Q191 371 146 355 L93 18 Z " />
<glyph glyph-name="s" unicode="s" horiz-adv-x="460" d="M30 0 Q25 0 20 5.5 Q15 11 15 21 Q15 41 24.5 46.5 Q34 52 38 52 L251 52 Q267 52 283 56 Q299 60 312 69 Q325 78 333 91.5 Q341 105 341 125 Q341 149 325.5 164.5 Q310 180 278 190 L158 227 Q137 233 119 241 Q101 249 87.5 260.5 Q74 272 66 289 Q58 306 58 330 Q58 387 96 423 Q134 459 203 459 L402 459 Q406 459 411.5 454 Q417 449 417 437 Q417 418 408 412 Q399 406 394 406 L201 406 Q165 406 138 389.5 Q111 373 111 338 Q111 315 127 301.5 Q143 288 176 278 L295 243 Q313 238 331 229.5 Q349 221 363 207 Q377 193 386 172.5 Q395 152 395 123 Q395 71 354.5 35.5 Q314 0 243 0 L30 0 Z " />
<glyph glyph-name="t" unicode="t" horiz-adv-x="318" d="M217 -3 Q154 -3 115 25.5 Q76 54 76 118 Q76 135 79 153 L119 410 L55 410 Q50 410 43 414 Q36 418 36 431 Q36 449 46.5 454 Q57 459 62 459 L127 459 L151 615 Q152 620 157.5 630 Q163 640 178 640 Q192 640 197.5 632.5 Q203 625 203 617 L203 613 L179 459 L302 459 Q307 459 313.5 454.5 Q320 450 320 437 Q320 418 310 414 Q300 410 295 410 L171 410 L133 160 Q130 142 130 128 Q130 84 154 67 Q178 50 225 50 L282 50 Q287 50 293.5 45.5 Q300 41 300 28 Q300 10 289.5 3.5 Q279 -3 274 -3 L217 -3 Z " />
<glyph glyph-name="u" unicode="u" horiz-adv-x="469" d="M401 437 Q403 445 408 453.5 Q413 462 427 462 Q442 462 448 454.5 Q454 447 454 439 L454 435 L385 9 Q383 1 381 -1 Q379 -3 373 -3 Q353 -3 345.5 10.5 Q338 24 338 38 Q338 40 338.5 42.5 Q339 45 339 47 Q302 27 257.5 12 Q213 -3 175 -3 Q100 -3 65.5 28.5 Q31 60 31 122 Q31 133 32 144.5 Q33 156 35 169 L80 451 Q81 457 83 458.5 Q85 460 90 460 Q110 460 118.5 446 Q127 432 127 415 Q127 408 126 404 L88 169 Q85 151 85 137 Q85 90 111 69.5 Q137 49 182 49 Q217 49 259.5 63 Q302 77 346 100 L401 437 Z " />
<glyph glyph-name="v" unicode="v" horiz-adv-x="408" d="M222 29 Q207 0 184 0 L161 0 Q141 0 133 29 L37 431 Q37 433 36.5 434.5 Q36 436 36 438 Q36 448 43.5 456.5 Q51 465 66 465 Q85 465 90 445 L179 57 L320 339 Q334 367 339 383 Q344 399 344 415 Q344 420 344 425 Q344 430 343 436 Q342 442 348 453.5 Q354 465 372 465 Q390 465 395.5 455 Q401 445 401 436 Q401 417 399.5 403.5 Q398 390 395 377.5 Q392 365 386 352 Q380 339 371 321 L222 29 Z " />
<glyph glyph-name="w" unicode="w" horiz-adv-x="599" d="M297 207 L212 29 Q198 0 174 0 L149 0 Q127 0 121 29 L38 427 Q38 429 37.5 430.5 Q37 432 37 434 Q37 444 44.5 452.5 Q52 461 67 461 Q76 461 82.5 456 Q89 451 91 441 L168 52 L283 286 L257 430 Q257 432 256.5 433.5 Q256 435 256 437 Q256 447 263.5 455.5 Q271 464 286 464 Q295 464 301.5 459 Q308 454 310 444 L377 52 L513 337 Q522 356 526.5 368.5 Q531 381 533.5 391 Q536 401 536 411 Q536 421 536 434 Q536 440 541.5 451.5 Q547 463 565 463 Q583 463 588.5 453 Q594 443 594 434 Q594 415 593 401.5 Q592 388 588.5 375.5 Q585 363 579 350 Q573 337 564 319 L420 29 Q406 0 382 0 L357 0 Q335 0 329 29 L297 207 Z " />
<glyph glyph-name="x" unicode="x" horiz-adv-x="416" d="M365 453 Q369 458 374.5 461.5 Q380 465 388 465 Q399 465 406.5 455.5 Q414 446 414 439 Q414 431 407 424 L238 237 L371 18 Q374 13 374 11 Q374 6 368 3 Q362 0 353 0 Q341 0 327 6 Q313 12 305 25 L203 197 L33 7 Q29 2 23 -1.5 Q17 -5 9 -5 Q-2 -5 -8.5 3 Q-15 11 -15 20 Q-15 30 -8 37 L176 241 L54 442 Q52 445 52 449 Q52 454 59 457.5 Q66 461 74 461 Q86 461 99 454.5 Q112 448 120 435 L211 280 L365 453 Z " />
<glyph glyph-name="y" unicode="y" horiz-adv-x="409" d="M320 337 Q329 356 333.5 368.5 Q338 381 340 391.5 Q342 402 342.5 411.5 Q343 421 343 434 Q343 440 348.5 451.5 Q354 463 372 463 Q390 463 395.5 453 Q401 443 401 434 Q401 415 399.5 401.5 Q398 388 395 375.5 Q392 363 386 350 Q380 337 371 319 L105 -197 Q103 -202 97.5 -208.5 Q92 -215 81 -215 Q67 -215 60 -206 Q53 -197 53 -190 Q53 -184 56 -179 L149 0 L137 0 Q115 0 109 29 L37 429 Q37 431 36.5 432.5 Q36 434 36 436 Q36 446 43.5 454.5 Q51 463 66 463 Q75 463 81.5 458 Q88 453 90 443 L164 31 L320 337 Z " />
<glyph glyph-name="z" unicode="z" horiz-adv-x="422" d="M341 52 Q346 52 352.5 47.5 Q359 43 359 30 Q359 12 348.5 6 Q338 0 333 0 L23 0 Q12 0 4 6.5 Q-4 13 -4 23 Q-4 31 0 39 Q4 47 9 52 L331 407 L76 407 Q73 407 67 411.5 Q61 416 61 427 Q61 445 69.5 452 Q78 459 87 459 L391 459 Q402 459 409.5 452.5 Q417 446 417 436 Q417 418 403 407 L81 52 L341 52 Z " />
<glyph glyph-name="braceleft" unicode="&#x7b;" horiz-adv-x="296" d="M189 437 Q183 402 159.5 369.5 Q136 337 96 316 Q126 302 138.5 274 Q151 246 151 215 Q151 208 151 201 Q151 194 149 187 L130 62 Q129 55 128.5 48.5 Q128 42 128 35 Q128 0 146 -21.5 Q164 -43 207 -43 L229 -43 Q232 -43 238 -46 Q244 -49 244 -60 Q244 -71 241 -77 Q238 -83 234.5 -85.5 Q231 -88 227 -88.5 Q223 -89 221 -89 L205 -89 Q142 -89 108.5 -57.5 Q75 -26 75 34 Q75 50 78 70 L94 176 Q97 191 97 204 Q97 232 85 251.5 Q73 271 47 282 Q39 285 35 288 Q31 291 31 301 Q31 330 39.5 337.5 Q48 345 56 348 Q94 363 113 389 Q132 415 139 455 L156 558 Q169 634 203 671 Q237 708 307 708 L338 708 Q342 708 347.5 705 Q353 702 353 690 Q353 670 343 665 Q333 660 330 660 L298 660 Q254 660 235 632 Q216 604 209 558 L189 437 L189 437 Z " />
<glyph glyph-name="bar" unicode="&#x7c;" horiz-adv-x="443" d="M227 -112 Q212 -112 206 -106 Q200 -100 200 -84 L200 747 Q200 763 206 769 Q212 775 227 775 Q242 775 247.5 769.5 Q253 764 253 747 L253 -84 Q253 -101 247.5 -106.5 Q242 -112 227 -112 Z " />
<glyph glyph-name="braceright" unicode="&#x7d;" horiz-adv-x="296" d="M194 558 Q196 566 196 572.5 Q196 579 196 585 Q196 620 177 640 Q158 660 116 660 L94 660 Q91 660 85 663 Q79 666 79 677 Q79 697 88.5 702.5 Q98 708 102 708 L118 708 Q179 708 214 676 Q249 644 249 583 Q249 568 246 550 L231 455 Q228 440 228 426 Q228 371 280 348 Q286 345 290 342.5 Q294 340 294 329 Q294 315 292 306.5 Q290 298 286 293.5 Q282 289 277.5 286.5 Q273 284 267 282 Q229 268 210.5 241 Q192 214 186 176 L170 70 Q159 -6 121 -47.5 Q83 -89 14 -89 L-15 -89 Q-19 -89 -24 -86 Q-29 -83 -29 -71 Q-29 -50 -20 -45 Q-11 -40 -7 -40 L18 -40 Q63 -40 85 -12.5 Q107 15 114 62 L135 187 Q141 224 164 261 Q187 298 230 316 Q201 334 187.5 360 Q174 386 174 415 Q174 420 174.5 426 Q175 432 176 437 L194 558 Z " />
<glyph glyph-name="asciitilde" unicode="&#x7e;" horiz-adv-x="460" d="M449 302 Q423 272 395.5 261 Q368 250 336 250 Q309 250 285 260 Q261 270 238 281.5 Q215 293 192.5 303 Q170 313 146 313 Q124 313 105.5 305.5 Q87 298 64 276 Q62 274 58.5 271 Q55 268 50 268 Q44 268 36.5 275 Q29 282 29 292 Q29 298 31 302.5 Q33 307 35 309 Q67 344 98 352.5 Q129 361 153 361 Q179 361 202.5 351 Q226 341 248.5 329.5 Q271 318 293.5 308 Q316 298 342 298 Q365 298 379.5 305 Q394 312 410 328 Q413 331 419 336 Q425 341 433 341 Q442 341 449.5 333 Q457 325 457 319 Q457 313 454 308.5 Q451 304 449 302 Z " />
<glyph glyph-name="sterling" unicode="&#xa3;" horiz-adv-x="460" d="M304 615 Q271 615 246.5 605 Q222 595 205.5 576.5 Q189 558 179.5 532.5 Q170 507 165 477 L143 338 L349 338 Q354 338 360 333.5 Q366 329 366 318 Q366 299 357 292.5 Q348 286 340 286 L135 286 L98 53 L397 53 Q403 53 408.5 49.5 Q414 46 414 35 Q414 16 404.5 8 Q395 0 389 0 L67 0 Q53 0 47 7.5 Q41 15 41 24 Q41 26 41.5 28 Q42 30 42 32 L82 286 L45 286 Q39 286 34 289.5 Q29 293 29 304 Q29 324 37.5 331 Q46 338 53 338 L90 338 L112 474 Q143 667 297 667 L473 667 Q495 667 495 647 Q495 629 487 622 Q479 615 465 615 L304 615 Z " />
<glyph glyph-name="yen" unicode="&#xa5;" horiz-adv-x="460" d="M82 318 Q71 318 63.5 321.5 Q56 325 56 337 Q56 354 64.5 360 Q73 366 90 366 L188 366 L86 631 Q84 637 84 640 Q84 648 93 658 Q102 668 116 668 Q127 668 132 656 L249 340 L460 656 Q465 662 471 664.5 Q477 667 483 667 Q497 667 504 658 Q511 649 511 643 Q511 636 507 632 L324 366 L430 366 Q454 366 454 350 Q454 333 445 325.5 Q436 318 422 318 L82 318 Z M416 257 Q427 257 433.5 253.5 Q440 250 440 239 Q440 221 431.5 215 Q423 209 409 209 L258 209 L230 26 Q228 10 221 5 Q214 0 199 0 Q177 0 177 19 L177 26 L205 209 L69 209 Q55 209 48.5 211 Q42 213 42 225 Q42 245 52 251 Q62 257 76 257 L416 257 Z " />
<glyph glyph-name="section" unicode="&#xa7;" horiz-adv-x="454" d="M430 701 Q434 701 439.5 696 Q445 691 445 680 Q445 660 435.5 653.5 Q426 647 421 647 L246 647 Q201 647 179 625.5 Q157 604 157 566 Q157 543 174 528.5 Q191 514 223 503 L290 479 Q317 469 337.5 458.5 Q358 448 371.5 433.5 Q385 419 390 400 Q395 381 391 354 L368 209 Q367 204 360.5 197.5 Q354 191 339 191 Q324 191 319 197 Q314 203 314 209 L337 353 Q338 357 338 364 Q338 387 321 400 Q304 413 271 425 L205 450 Q182 459 162.5 469 Q143 479 129 492.5 Q115 506 106.5 524 Q98 542 98 568 Q98 634 137.5 667.5 Q177 701 244 701 L430 701 Z M232 -34 Q277 -34 299.5 -13 Q322 8 322 45 Q322 67 305 81.5 Q288 96 256 109 L191 135 Q144 154 116 175.5 Q88 197 88 241 Q88 246 88 250.5 Q88 255 89 260 L112 403 Q112 407 119 414 Q126 421 141 421 Q157 421 161.5 415 Q166 409 166 403 L143 261 Q138 233 156 218 Q174 203 209 189 L274 163 Q296 154 315.5 144.5 Q335 135 348.5 122 Q362 109 370 91.5 Q378 74 378 49 Q378 19 367.5 -6 Q357 -31 337 -49 Q317 -67 288.5 -77.5 Q260 -88 224 -88 L51 -88 Q48 -88 42.5 -83 Q37 -78 37 -66 Q37 -46 45.5 -40 Q54 -34 59 -34 L232 -34 Z " />
<glyph glyph-name="quotesingle" unicode="&#x27;" horiz-adv-x="133" d="M107 483 Q94 483 89.5 488 Q85 493 85 501 Q85 503 85 506.5 Q85 510 86 513 L107 648 Q108 653 114 662.5 Q120 672 138 672 Q161 672 161 652 Q161 648 160 645 L138 510 Q136 496 127.5 489.5 Q119 483 107 483 Z " />
<glyph glyph-name="quotedblleft" unicode="&#x201c;" horiz-adv-x="246" d="M142 655 Q147 661 154 666.5 Q161 672 170 672 Q180 672 184 667 Q188 662 188 656 Q188 652 184 642 L126 503 Q122 494 113.5 489 Q105 484 94 484 Q80 484 72 492 Q64 500 64 511 Q64 518 66 521 L142 655 Z M246 655 Q251 661 258 666.5 Q265 672 274 672 Q284 672 288 667 Q292 662 292 656 Q292 652 288 642 L230 503 Q226 494 217.5 489 Q209 484 198 484 Q184 484 176 492 Q168 500 168 511 Q168 518 170 521 L246 655 Z " />
<glyph glyph-name="guillemotleft" unicode="&#xab;" horiz-adv-x="411" d="M54 214 Q49 221 49 228 Q49 234 52 240 Q55 246 60 251 L198 383 Q202 387 210 387 Q220 387 229.5 380 Q239 373 239 359 Q239 352 233 346 L108 229 L191 113 Q194 108 194 103 Q194 91 182 84 Q170 77 163 77 Q155 77 151 81 L54 214 Z M190 214 Q185 221 185 228 Q185 234 188 240 Q191 246 196 251 L334 383 Q338 387 346 387 Q356 387 365.5 380 Q375 373 375 359 Q375 352 369 346 L244 229 L327 113 Q330 108 330 103 Q330 91 318 84 Q306 77 299 77 Q291 77 287 81 L190 214 Z " />
<glyph glyph-name="endash" unicode="&#x2013;" horiz-adv-x="484" d="M49 210 Q23 210 23 229 Q23 264 57 264 L443 264 Q457 264 462 259.5 Q467 255 467 245 Q467 225 459.5 217.5 Q452 210 435 210 L49 210 Z " />
<glyph glyph-name="dagger" unicode="&#x2020;" horiz-adv-x="349" d="M240 475 L169 28 Q166 11 160 5.5 Q154 0 139 0 Q115 0 115 19 Q115 21 115.5 23.5 Q116 26 116 28 L187 475 L80 475 Q56 475 56 494 Q56 515 63.5 522.5 Q71 530 88 530 L195 530 L213 639 Q216 655 222.5 661 Q229 667 244 667 Q257 667 262 664 Q267 661 267 650 Q267 643 266 639 L248 530 L355 530 Q369 530 374 526.5 Q379 523 379 513 Q379 491 371.5 483 Q364 475 347 475 L240 475 Z " />
<glyph glyph-name="periodcentered" unicode="&#xb7;" horiz-adv-x="147" d="M69 199 Q54 199 44.5 209 Q35 219 35 234 Q35 259 50 271 Q65 283 82 283 Q96 283 106.5 274.5 Q117 266 117 249 Q117 229 102.5 214 Q88 199 69 199 Z " />
<glyph glyph-name="bullet" unicode="&#x2022;" horiz-adv-x="242" d="M120 164 Q82 164 56.5 189.5 Q31 215 31 253 Q31 275 38.5 291.5 Q46 308 59 319.5 Q72 331 87.5 336.5 Q103 342 120 342 Q137 342 153 336.5 Q169 331 182 319.5 Q195 308 202.5 291.5 Q210 275 210 253 Q210 215 184 189.5 Q158 164 120 164 Z " />
<glyph glyph-name="quotedblright" unicode="&#x201d;" horiz-adv-x="246" d="M209 501 Q204 495 197 489.5 Q190 484 182 484 Q172 484 168 489 Q164 494 164 500 Q164 508 167 514 L225 653 Q229 663 238 668 Q247 673 258 673 Q272 673 280 664.5 Q288 656 288 645 Q288 639 285 635 L209 501 Z M105 501 Q100 495 93 489.5 Q86 484 78 484 Q68 484 64 489 Q60 494 60 500 Q60 508 63 514 L121 653 Q125 663 134 668 Q143 673 154 673 Q168 673 176 664.5 Q184 656 184 645 Q184 639 181 635 L105 501 Z " />
<glyph glyph-name="guillemotright" unicode="&#xbb;" horiz-adv-x="411" d="M345 248 Q350 241 350 234 Q350 221 339 210 L201 79 Q197 75 189 75 Q179 75 170 82.5 Q161 90 161 103 Q161 111 166 116 L291 233 L208 349 Q205 355 205 359 Q205 371 217 378 Q229 385 236 385 Q244 385 248 381 L345 248 Z M209 248 Q214 241 214 235 Q214 222 203 211 L65 79 Q61 75 53 75 Q43 75 34 82.5 Q25 90 25 103 Q25 111 30 116 L155 233 L72 349 Q69 355 69 359 Q69 371 81 378 Q93 385 100 385 Q108 385 112 381 L209 248 Z " />
<glyph glyph-name="ellipsis" unicode="&#x2026;" horiz-adv-x="525" d="M36 -1 Q22 -1 13.5 8.5 Q5 18 5 32 Q5 55 19.5 65 Q34 75 49 75 Q62 75 70.5 68 Q79 61 79 47 Q79 28 66.5 13.5 Q54 -1 36 -1 Z M230 -1 Q216 -1 207.5 8.5 Q199 18 199 32 Q199 55 213.5 65 Q228 75 243 75 Q256 75 264.5 68 Q273 61 273 47 Q273 28 260.5 13.5 Q248 -1 230 -1 Z M418 -1 Q404 -1 395.5 8.5 Q387 18 387 32 Q387 55 401.5 65 Q416 75 431 75 Q444 75 452.5 68 Q461 61 461 47 Q461 28 448.5 13.5 Q436 -1 418 -1 Z " />
<glyph glyph-name="grave" unicode="&#x60;" horiz-adv-x="489" d="M240 662 Q235 668 238 680 Q241 692 252 698 Q263 706 275.5 703.5 Q288 701 293 691 L361 553 Q364 545 365 536.5 Q366 528 355 522 Q345 517 336.5 521 Q328 525 323 533 L240 662 Z " />
<glyph glyph-name="dieresis" unicode="&#xa8;" horiz-adv-x="457" d="M376 547 Q364 547 357 555.5 Q350 564 350 575 Q350 594 361 604.5 Q372 615 385 615 Q397 615 406 608.5 Q415 602 415 587 Q415 570 402.5 558.5 Q390 547 376 547 Z M203 547 Q192 547 184 555.5 Q176 564 176 576 Q176 595 188 605 Q200 615 212 615 Q224 615 232.5 608.5 Q241 602 241 588 Q241 570 229 558.5 Q217 547 203 547 Z " />
<glyph glyph-name="emdash" unicode="&#x2014;" horiz-adv-x="984" d="M53 210 Q28 210 28 229 Q28 264 61 264 L936 264 Q961 264 961 244 Q961 225 952 217.5 Q943 210 928 210 L53 210 Z " />
<glyph glyph-name="oe" unicode="&#x153;" horiz-adv-x="751" d="M601 459 Q664 459 698.5 428 Q733 397 733 340 Q733 319 725 293.5 Q717 268 693 246 Q669 224 626 209.5 Q583 195 513 195 Q487 195 456.5 197.5 Q426 200 391 205 L385 164 Q384 158 383.5 151.5 Q383 145 383 140 Q383 100 406 76.5 Q429 53 479 53 L632 53 Q639 53 645.5 47 Q652 41 652 30 Q652 12 642 6 Q632 0 626 0 L477 0 Q427 0 394.5 17.5 Q362 35 346 66 Q296 -1 198 -1 L166 -1 Q98 -1 61 32.5 Q24 66 24 134 Q24 153 27 176 L44 289 Q57 371 103.5 415 Q150 459 231 459 L262 459 Q307 459 340.5 441.5 Q374 424 391 391 Q417 426 455.5 442.5 Q494 459 544 459 L601 459 Z M350 284 Q353 300 353 314 Q353 362 326 384.5 Q299 407 252 407 L226 407 Q178 407 142.5 379.5 Q107 352 97 289 L80 176 Q77 158 77 142 Q77 51 176 51 L197 51 Q248 51 285.5 77.5 Q323 104 333 167 L350 284 Z M535 410 Q512 410 491 404 Q470 398 452.5 385.5 Q435 373 422.5 353 Q410 333 406 306 L398 252 Q434 247 463.5 244.5 Q493 242 518 242 Q574 242 606.5 252.5 Q639 263 655.5 278 Q672 293 676 309.5 Q680 326 680 339 Q680 370 656.5 390 Q633 410 593 410 L535 410 Z " />
<glyph glyph-name="trademark" unicode="&#x2122;" horiz-adv-x="658" d="M601 333 Q590 333 584.5 336.5 Q579 340 579 351 L579 598 L510 455 Q506 448 501 442 Q496 436 486 436 L466 436 Q455 436 450.5 442 Q446 448 442 455 L373 598 L373 351 Q373 340 368 336.5 Q363 333 352 333 Q341 333 335 336.5 Q329 340 329 351 L329 645 Q329 667 352 667 L373 667 Q387 667 394 654 L476 485 L556 650 Q560 658 564.5 662.5 Q569 667 580 667 L601 667 Q623 667 623 645 L623 351 Q623 340 617.5 336.5 Q612 333 601 333 Z M184 622 L184 352 Q184 340 177 336.5 Q170 333 161 333 Q153 333 146 336.5 Q139 340 139 352 L139 622 L43 622 Q23 622 23 644 Q23 654 27.5 660.5 Q32 667 43 667 L283 667 Q293 667 296.5 660.5 Q300 654 300 644 Q300 622 279 622 L184 622 Z " />
<glyph glyph-name="degree" unicode="&#xb0;" horiz-adv-x="299" d="M67 585 Q67 551 91 527.5 Q115 504 149 504 Q182 504 206 527.5 Q230 551 230 585 Q230 619 206 642.5 Q182 666 149 666 Q115 666 91 642.5 Q67 619 67 585 Z M28 585 Q28 610 37.5 632 Q47 654 63 670.5 Q79 687 101 696.5 Q123 706 149 706 Q174 706 196 696.5 Q218 687 234.5 670.5 Q251 654 260.5 632 Q270 610 270 585 Q270 560 260.5 538 Q251 516 234.5 499.5 Q218 483 196 473.5 Q174 464 149 464 Q123 464 101 473.5 Q79 483 63 499.5 Q47 516 37.5 538 Q28 560 28 585 Z " />
<glyph glyph-name="registered" unicode="&#xae;" horiz-adv-x="600" d="M302 640 Q261 640 223 624 Q185 608 155.5 578.5 Q126 549 108.5 508 Q91 467 91 417 Q91 377 106 338 Q121 299 150 268.5 Q179 238 220.5 219 Q262 200 316 200 Q353 200 390 216 Q427 232 456 262 Q485 292 503 334 Q521 376 521 428 Q521 465 505.5 502.5 Q490 540 461.5 570.5 Q433 601 392.5 620.5 Q352 640 302 640 Z M409 278 Q411 272 411 271 Q411 263 404 257 Q397 251 389 251 Q380 251 374 260 L317 386 L243 386 L243 270 Q243 252 224 252 Q205 252 205 270 L205 568 Q205 588 224 588 L328 588 Q379 588 405.5 562 Q432 536 432 488 Q432 443 411.5 419 Q391 395 359 389 L409 278 Z M243 550 L243 423 L339 423 Q361 423 376.5 439.5 Q392 456 392 488 Q392 520 375 535 Q358 550 338 550 L243 550 Z M301 677 Q359 677 406.5 654.5 Q454 632 488 596 Q522 560 540 516 Q558 472 558 429 Q558 368 537 319 Q516 270 482 235.5 Q448 201 405 182 Q362 163 318 163 Q255 163 206 185 Q157 207 123 242.5 Q89 278 71.5 323.5 Q54 369 54 416 Q54 475 74.5 523 Q95 571 129.5 605.5 Q164 640 208.5 658.5 Q253 677 301 677 Z " />
<glyph glyph-name="copyright" unicode="&#xa9;" horiz-adv-x="764" d="M397 617 Q332 617 278.5 593.5 Q225 570 186 530.5 Q147 491 125.5 439 Q104 387 104 329 Q104 270 124.5 218.5 Q145 167 182.5 128 Q220 89 272.5 66.5 Q325 44 390 44 Q441 44 491.5 66 Q542 88 582 127 Q622 166 646.5 219.5 Q671 273 671 336 Q671 396 648 447 Q625 498 587 536 Q549 574 499.5 595.5 Q450 617 397 617 Z M354 114 Q300 114 273 147.5 Q246 181 246 230 L246 423 Q246 446 253.5 467 Q261 488 274.5 504 Q288 520 308 529.5 Q328 539 354 539 L484 539 Q494 539 500 533.5 Q506 528 506 514 Q506 500 499 494.5 Q492 489 484 489 L362 489 Q344 489 331 482.5 Q318 476 310.5 466.5 Q303 457 299.5 445 Q296 433 296 423 L296 230 Q296 199 313 181.5 Q330 164 362 164 L490 164 Q499 164 505 159 Q511 154 511 140 Q511 126 504.5 120 Q498 114 489 114 L354 114 Z M398 660 Q459 660 516 635.5 Q573 611 616.5 567.5 Q660 524 686.5 465 Q713 406 713 337 Q713 265 684.5 203.5 Q656 142 610.5 97 Q565 52 507 26.5 Q449 1 390 1 Q316 1 255.5 27 Q195 53 151.5 97.5 Q108 142 84.5 201.5 Q61 261 61 329 Q61 395 86 455 Q111 515 155.5 560.5 Q200 606 262 633 Q324 660 398 660 Z " />
<glyph glyph-name="dieresistonos" unicode="&#x385;" horiz-adv-x="477" d="M383 547 Q371 547 364 555.5 Q357 564 357 575 Q357 594 368 604.5 Q379 615 392 615 Q404 615 413 608.5 Q422 602 422 587 Q422 570 409.5 558.5 Q397 547 383 547 Z M189 547 Q178 547 170 555.5 Q162 564 162 576 Q162 595 174 605 Q186 615 198 615 Q210 615 218.5 608.5 Q227 602 227 588 Q227 570 215 558.5 Q203 547 189 547 Z M276 537 Q268 527 255 527 Q246 527 240.5 533 Q235 539 235 545 Q235 550 237 554 Q239 558 241 562 L329 689 Q335 698 349 698 Q363 698 372 687.5 Q381 677 381 665 Q381 656 377 652 L276 537 Z " />
<glyph glyph-name="tonos" unicode="&#x384;" horiz-adv-x="477" d="M302 537 Q294 527 281 527 Q272 527 266.5 533 Q261 539 261 545 Q261 550 263 554 Q265 558 267 562 L355 689 Q361 698 375 698 Q389 698 398 687.5 Q407 677 407 665 Q407 656 403 652 L302 537 Z " />
<glyph glyph-name="sfthyphen" unicode="&#xad;" horiz-adv-x="311" d="M58 206 Q44 206 35 211 Q26 216 26 230 Q26 252 38.5 259.5 Q51 267 68 267 L258 267 Q272 267 281 262.5 Q290 258 290 244 Q290 222 277 214 Q264 206 248 206 L58 206 Z " />
<glyph glyph-name="Euro" unicode="&#x20ac;" horiz-adv-x="460" d="M62 364 Q51 364 43.5 367.5 Q36 371 36 383 Q36 400 44.5 406 Q53 412 70 412 L100 412 L111 474 Q128 572 171.5 619.5 Q215 667 293 667 L514 667 Q536 667 536 647 Q536 629 528 621.5 Q520 614 506 614 L302 614 Q237 614 207 581 Q177 548 164 477 L152 412 L376 412 Q400 412 400 396 Q400 379 391 371.5 Q382 364 368 364 L62 364 Z M362 303 Q373 303 379.5 299.5 Q386 296 386 285 Q386 267 377.5 261 Q369 255 355 255 L131 255 L118 189 Q116 177 115 165 Q114 153 114 142 Q114 101 134.5 77 Q155 53 213 53 L417 53 Q439 53 439 35 Q439 18 431 9 Q423 0 409 0 L199 0 Q139 0 99.5 30 Q60 60 60 132 Q60 160 66 193 L78 255 L49 255 Q35 255 28.5 257 Q22 259 22 271 Q22 291 32 297 Q42 303 56 303 L362 303 Z " />
<glyph glyph-name="circumflex" unicode="&#x2c6;" horiz-adv-x="482" d="M294 656 Q299 660 304 662.5 Q309 665 314 665 L331 665 Q339 665 346 658 L452 549 Q457 546 457 538 Q457 528 448.5 519 Q440 510 429 510 Q423 510 419 514 L317 613 L188 515 Q180 510 172 510 Q160 510 155 518.5 Q150 527 150 534 Q150 539 151.5 542.5 Q153 546 155 548 L294 656 Z " />
<glyph glyph-name="tilde" unicode="&#x2dc;" horiz-adv-x="454" d="M425 596 Q405 565 380.5 554 Q356 543 338 543 Q322 543 305.5 548.5 Q289 554 273 561 Q257 568 242 573.5 Q227 579 214 579 Q206 579 198 573.5 Q190 568 182.5 561.5 Q175 555 168.5 549.5 Q162 544 156 544 Q145 544 139.5 551.5 Q134 559 134 564 Q134 569 136 573 Q153 596 173.5 611 Q194 626 218 626 Q233 626 249.5 620 Q266 614 282.5 607.5 Q299 601 314.5 595 Q330 589 342 589 Q353 589 362 595 Q371 601 378.5 608.5 Q386 616 393 622 Q400 628 407 628 Q418 628 423.5 620.5 Q429 613 429 609 Q429 602 425 596 Z " />
<glyph glyph-name="acute" unicode="&#xb4;" horiz-adv-x="489" d="M272 537 Q264 527 251 527 Q242 527 236.5 533 Q231 539 231 545 Q231 550 233 554 Q235 558 237 562 L325 689 Q331 698 345 698 Q359 698 368 687.5 Q377 677 377 665 Q377 656 373 652 L272 537 Z " />
<glyph glyph-name="cedilla" unicode="&#xb8;" horiz-adv-x="474" d="M222 -165 Q247 -165 261.5 -153 Q276 -141 276 -120 Q276 -110 268.5 -100 Q261 -90 241 -90 L207 -90 Q187 -90 187 -77 Q187 -70 194 -56 L232 16 L266 16 L229 -55 L250 -55 Q282 -55 299.5 -72 Q317 -89 317 -119 Q317 -153 292 -177 Q267 -201 220 -201 Q214 -201 201 -199.5 Q188 -198 175.5 -194 Q163 -190 153.5 -184.5 Q144 -179 144 -170 Q144 -159 152 -153.5 Q160 -148 165 -148 Q170 -148 171 -149 Q188 -160 200 -162.5 Q212 -165 222 -165 Z " />
<glyph glyph-name="dotlessi" unicode="&#x131;" horiz-adv-x="211" d="M116 439 Q117 444 122 454 Q127 464 141 464 Q157 464 163.5 455 Q170 446 168 437 L100 7 Q99 1 97 -0.5 Q95 -2 90 -2 Q67 -2 59 16.5 Q51 35 54 54 L116 439 Z " />
<glyph glyph-name="Alpha" unicode="&#x391;" horiz-adv-x="532" d="M399 156 L114 156 L45 13 Q40 4 34 0.5 Q28 -3 20 -4 Q3 -4 -4 3 Q-11 10 -11 17 Q-11 21 -7 31 L288 638 Q297 656 303 661.5 Q309 667 323 667 L352 667 Q365 667 370 661.5 Q375 656 378 638 L479 31 Q480 28 480 23 Q480 16 473 6.5 Q466 -3 446 -3 Q438 -3 431.5 1 Q425 5 423 13 L399 156 Z M141 210 L391 210 L328 606 L141 210 Z " />
<glyph glyph-name="Beta" unicode="&#x392;" horiz-adv-x="553" d="M52 0 Q38 0 33 4.5 Q28 9 28 17 Q28 24 29 28 L126 639 Q128 655 135 661 Q142 667 157 667 L398 667 Q456 667 493.5 631.5 Q531 596 531 530 Q531 508 525 483 Q519 458 506 434.5 Q493 411 473.5 390.5 Q454 370 427 357 Q439 350 452.5 338 Q466 326 477 309 Q488 292 495 269 Q502 246 502 217 Q502 162 483.5 121 Q465 80 435.5 53 Q406 26 370 13 Q334 0 299 0 L52 0 Z M175 614 L139 388 L356 388 Q379 388 400.5 398.5 Q422 409 439 427.5 Q456 446 466.5 471 Q477 496 477 526 Q477 567 451 590.5 Q425 614 377 614 L175 614 Z M130 333 L86 53 L303 53 Q330 53 356 62.5 Q382 72 403 91.5 Q424 111 436.5 140 Q449 169 449 208 Q449 229 443.5 251.5 Q438 274 425.5 292 Q413 310 392.5 321.5 Q372 333 341 333 L130 333 Z " />
<glyph glyph-name="Gamma" unicode="&#x393;" horiz-adv-x="467" d="M182 614 L89 28 Q86 11 80 5.5 Q74 0 59 0 Q35 0 35 19 Q35 21 35.5 23.5 Q36 26 36 28 L133 639 Q135 655 142 661 Q149 667 164 667 L500 667 Q522 667 522 647 Q522 629 514 621.5 Q506 614 492 614 L182 614 Z " />
<glyph glyph-name="&amp;#x394;" unicode="&#x394;" horiz-adv-x="521" d="M11 0 Q-15 0 -15 20 Q-15 27 -11 35 L283 638 Q292 656 298 661.5 Q304 667 318 667 L348 667 Q361 667 365.5 661.5 Q370 656 374 638 L476 35 Q476 33 476.5 32 Q477 31 477 29 Q477 15 468.5 7.5 Q460 0 447 0 L11 0 Z M62 53 L413 53 L324 601 L62 53 Z " />
<glyph glyph-name="&amp;#x2206;" unicode="&#x2206;" horiz-adv-x="521" d="M11 0 Q-15 0 -15 20 Q-15 27 -11 35 L283 638 Q292 656 298 661.5 Q304 667 318 667 L348 667 Q361 667 365.5 661.5 Q370 656 374 638 L476 35 Q476 33 476.5 32 Q477 31 477 29 Q477 15 468.5 7.5 Q460 0 447 0 L11 0 Z M62 53 L413 53 L324 601 L62 53 Z " />
<glyph glyph-name="Epsilon" unicode="&#x395;" horiz-adv-x="464" d="M52 0 Q37 0 32 6 Q27 12 29 28 L126 639 Q128 655 135 661 Q142 667 157 667 L493 667 Q518 667 514 639 Q510 614 485 614 L175 614 L138 380 L404 380 Q427 380 424 354 Q421 339 414 333.5 Q407 328 395 328 L129 328 L86 53 L396 53 Q421 53 417 28 Q413 0 388 0 L52 0 Z " />
<glyph glyph-name="Zeta" unicode="&#x396;" horiz-adv-x="461" d="M14 0 Q0 1 -6 7.5 Q-12 14 -12 22 Q-12 32 -7 42 Q-2 52 3 59 L433 614 L112 614 Q90 614 90 632 Q90 650 98 658.5 Q106 667 120 667 L486 667 Q495 667 500 661.5 Q505 656 505 648 Q505 636 500 626 Q495 616 488 607 L60 53 L394 53 Q413 53 413 36 Q413 18 405.5 9 Q398 0 386 0 L14 0 Z " />
<glyph glyph-name="Eta" unicode="&#x397;" horiz-adv-x="546" d="M423 -5 Q408 -5 403.5 0.5 Q399 6 401 23 L449 328 L129 328 L81 23 Q79 6 72.5 0.5 Q66 -5 51 -5 Q36 -5 31 1 Q26 7 28 23 L126 643 Q129 659 136 665 Q143 671 158 671 Q173 671 177.5 665.5 Q182 660 179 643 L138 380 L458 380 L499 643 Q502 660 508.5 665.5 Q515 671 530 671 Q545 671 550 665 Q555 659 552 643 L454 23 Q452 7 445 1 Q438 -5 423 -5 Z " />
<glyph glyph-name="Theta" unicode="&#x398;" horiz-adv-x="536" d="M367 667 Q401 667 430.5 656.5 Q460 646 481.5 625.5 Q503 605 515 575 Q527 545 527 506 Q527 486 524 465 L481 193 Q466 96 414.5 48 Q363 0 284 0 L201 0 Q167 0 138 10 Q109 20 87.5 40 Q66 60 54 89 Q42 118 42 157 Q42 176 45 197 L90 474 Q106 571 156 619 Q206 667 282 667 L367 667 Z M471 469 Q474 485 474 500 Q474 550 445.5 582 Q417 614 359 614 L285 614 Q225 614 189 576.5 Q153 539 143 478 L98 197 Q96 189 96 181 Q96 173 96 165 Q96 116 122 84.5 Q148 53 208 53 L279 53 Q350 53 383.5 90.5 Q417 128 427 189 L471 469 Z M395 373 Q412 373 412 353 Q412 333 402.5 326.5 Q393 320 387 320 L175 320 Q158 320 158 340 Q158 360 167.5 366.5 Q177 373 183 373 L395 373 Z " />
<glyph glyph-name="Iota" unicode="&#x399;" horiz-adv-x="233" d="M81 -5 Q66 -5 61 1 Q56 7 58 23 L156 643 Q159 659 166 665 Q173 671 188 671 Q203 671 207.5 665.5 Q212 660 209 643 L111 23 Q109 6 102.5 0.5 Q96 -5 81 -5 Z " />
<glyph glyph-name="Kappa" unicode="&#x39a;" horiz-adv-x="497" d="M265 390 L452 38 Q456 31 455 21 Q454 11 446 5 Q439 0 432 -1 Q425 -2 419.5 -0.5 Q414 1 410 4.5 Q406 8 404 12 L223 356 L120 267 L81 23 Q79 6 72.5 0.5 Q66 -5 51 -5 Q36 -5 31 3 Q26 11 28 23 L126 643 Q128 655 135.5 663 Q143 671 158 671 Q173 671 177 664 Q181 657 179 643 L132 341 L506 658 Q515 666 526 669.5 Q537 673 547 662 Q555 654 552.5 643 Q550 632 543 627 L265 390 Z " />
<glyph glyph-name="Lambda" unicode="&#x39b;" horiz-adv-x="532" d="M329 607 L46 13 Q41 4 34.5 0.5 Q28 -3 20 -4 Q3 -4 -4 3 Q-11 10 -11 17 Q-11 21 -7 31 L288 638 Q297 656 303 661.5 Q309 667 323 667 L352 667 Q365 667 369.5 661.5 Q374 656 378 638 L479 31 Q480 28 480 23 Q480 16 473 6.5 Q466 -3 447 -3 Q428 -3 425 13 L329 607 Z " />
<glyph glyph-name="Mu" unicode="&#x39c;" horiz-adv-x="640" d="M516 -5 Q501 -5 496.5 0.5 Q492 6 494 23 L587 612 L372 261 Q364 249 356.5 242 Q349 235 337 235 L304 235 Q292 235 286.5 242 Q281 249 277 261 L173 612 L80 23 Q77 6 71 0.5 Q65 -5 50 -5 Q35 -5 30 1 Q25 7 27 23 L125 639 Q127 655 134 661 Q141 667 156 667 L194 667 Q205 667 209.5 663.5 Q214 660 218 651 L327 273 L556 651 Q563 660 568 663.5 Q573 667 584 667 L622 667 Q637 667 642 661 Q647 655 645 639 L547 23 Q545 7 538 1 Q531 -5 516 -5 Z " />
<glyph glyph-name="Nu" unicode="&#x39d;" horiz-adv-x="563" d="M420 0 Q409 0 405 3.5 Q401 7 397 15 Q396 16 394 20 Q392 24 384.5 41 Q377 58 363 93 Q349 128 324 192 Q299 256 261.5 353 Q224 450 171 592 L81 24 Q79 7 72.5 1.5 Q66 -4 51 -4 Q36 -4 31 2 Q26 8 28 24 L126 639 Q128 655 135 661 Q142 667 157 667 L185 667 Q196 667 200 663.5 Q204 660 208 651 L426 75 L516 643 Q519 660 525.5 665.5 Q532 671 547 671 Q562 671 567 665 Q572 659 569 643 L472 28 Q470 12 463 6 Q456 0 441 0 L420 0 Z " />
<glyph glyph-name="Xi" unicode="&#x39e;" horiz-adv-x="480" d="M126 614 Q105 614 105 631 Q105 649 113 658 Q121 667 135 667 L491 667 Q513 667 513 647 Q513 629 504.5 621.5 Q496 614 482 614 L126 614 Z M127 338 Q117 338 111.5 341.5 Q106 345 106 356 Q106 375 114.5 383 Q123 391 136 391 L404 391 Q424 391 424 373 Q424 353 416 345.5 Q408 338 395 338 L127 338 Z M30 0 Q8 0 8 18 Q8 35 16 44 Q24 53 38 53 L394 53 Q416 53 416 34 Q416 15 408 7.5 Q400 0 386 0 L30 0 Z " />
<glyph glyph-name="Omicron" unicode="&#x39f;" horiz-adv-x="536" d="M367 667 Q401 667 430.5 656.5 Q460 646 481.5 625.5 Q503 605 515 575 Q527 545 527 506 Q527 486 524 465 L481 193 Q466 96 414.5 48 Q363 0 284 0 L201 0 Q167 0 138 10 Q109 20 87.5 40 Q66 60 54 89 Q42 118 42 157 Q42 176 45 197 L90 474 Q106 571 156 619 Q206 667 282 667 L367 667 Z M471 469 Q474 485 474 500 Q474 550 445.5 582 Q417 614 359 614 L285 614 Q225 614 189 576.5 Q153 539 143 478 L98 197 Q96 189 96 181 Q96 173 96 165 Q96 116 122 84.5 Q148 53 208 53 L279 53 Q350 53 383.5 90.5 Q417 128 427 189 L471 469 Z " />
<glyph glyph-name="Pi" unicode="&#x3a0;" horiz-adv-x="553" d="M432 -5 Q409 -5 409 15 Q409 23 410 27 L502 615 L182 615 L88 27 Q85 10 79 2.5 Q73 -5 58 -5 Q34 -5 34 18 Q34 20 34.5 22.5 Q35 25 35 27 L133 639 Q135 655 142 661 Q149 667 164 667 L536 667 Q560 667 560 648 Q560 642 559 639 L463 27 Q461 11 454 3 Q447 -5 432 -5 Z " />
<glyph glyph-name="Rho" unicode="&#x3a1;" horiz-adv-x="528" d="M121 275 L81 23 Q78 6 72 0.5 Q66 -5 50 -5 Q34 -5 30 2.5 Q26 10 28 23 L126 639 Q128 655 135 661 Q142 667 157 667 L363 667 Q445 667 487.5 625 Q530 583 530 505 Q530 452 515 409.5 Q500 367 472 337 Q444 307 404 291 Q364 275 314 275 L121 275 Z M175 614 L130 329 L330 329 Q368 329 395.5 344 Q423 359 440.5 383 Q458 407 466.5 436 Q475 465 475 493 Q475 557 445 585.5 Q415 614 367 614 L175 614 Z " />
<glyph glyph-name="Sigma" unicode="&#x3a3;" horiz-adv-x="468" d="M156 614 L287 389 Q296 374 296 363 Q296 353 291 344.5 Q286 336 277 324 L74 53 L404 53 Q423 53 423 34 Q423 15 415.5 7.5 Q408 0 396 0 L24 0 Q9 0 3.5 8 Q-2 16 -2 24 Q-1 34 4.5 43 Q10 52 16 60 L242 362 L98 607 Q95 612 92.5 618 Q90 624 90 631 Q90 644 98.5 655.5 Q107 667 121 667 L499 667 Q521 667 521 647 Q521 629 512.5 621.5 Q504 614 490 614 L156 614 Z " />
<glyph glyph-name="Tau" unicode="&#x3a4;" horiz-adv-x="466" d="M321 614 L227 23 Q225 7 218.5 1 Q212 -5 196 -5 Q181 -5 176 0.5 Q171 6 174 23 L268 614 L93 614 Q71 614 71 632 Q71 634 71.5 635.5 Q72 637 72 639 Q76 667 101 667 L504 667 Q526 667 526 647 Q526 645 525.5 643 Q525 641 525 639 Q521 614 496 614 L321 614 Z " />
<glyph glyph-name="Upsilon" unicode="&#x3a5;" horiz-adv-x="475" d="M256 344 L488 656 Q493 662 499 664.5 Q505 667 511 667 Q525 667 531.5 658.5 Q538 650 538 645 Q538 639 533 632 L279 289 L237 21 Q234 -5 204 -5 Q193 -5 187 1.5 Q181 8 181 17 L181 21 L223 289 L72 631 Q70 637 70 641 Q70 648 77.5 657.5 Q85 667 100 667 Q115 667 121 653 L256 344 Z " />
<glyph glyph-name="Phi" unicode="&#x3a6;" horiz-adv-x="620" d="M273 -5 Q249 -5 249 14 Q249 16 249.5 18.5 Q250 21 250 23 L256 62 L217 62 Q183 62 154 72 Q125 82 103.5 102 Q82 122 70 151 Q58 180 58 219 Q58 238 61 259 L89 432 Q105 529 155 577 Q205 625 281 625 L345 625 L348 643 Q351 659 357 665 Q363 671 377 671 Q390 671 396 667.5 Q402 664 402 653 Q402 647 401 643 L398 625 L437 625 Q471 625 500.5 614.5 Q530 604 551.5 583.5 Q573 563 585 533 Q597 503 597 464 Q597 444 594 423 L568 255 Q553 158 501.5 110 Q450 62 371 62 L309 62 L303 23 Q301 6 295 0.5 Q289 -5 273 -5 Z M366 115 Q431 115 468 152.5 Q505 190 514 251 L541 427 Q543 435 543 442 Q543 449 543 456 Q543 507 514 539.5 Q485 572 429 572 L390 572 L317 115 L366 115 Z M114 259 Q111 241 111 225 Q111 177 137 146 Q163 115 224 115 L264 115 L336 572 L284 572 Q219 572 185.5 534.5 Q152 497 142 436 L114 259 Z " />
<glyph glyph-name="Chi" unicode="&#x3a7;" horiz-adv-x="503" d="M39 6 Q30 -6 14 -6 Q4 -6 -5 0 Q-14 6 -14 17 Q-14 25 -8 33 L244 346 L100 635 Q98 639 98 643 Q98 654 109 663 Q120 672 131 672 Q145 672 151 658 L280 394 L490 659 Q501 672 518 672 Q526 672 537 666 Q548 660 548 649 Q548 642 543 636 L307 345 L467 29 Q470 24 470 18 Q470 8 462 1 Q454 -6 441 -6 Q425 -6 417 9 L273 298 L39 6 Z " />
<glyph glyph-name="Psi" unicode="&#x3a8;" horiz-adv-x="592" d="M260 -5 Q244 -5 239.5 3.5 Q235 12 237 23 L258 151 L224 151 Q143 151 100.5 194.5 Q58 238 58 307 Q58 326 61 346 L107 639 Q109 653 115 660 Q121 667 136 667 Q149 667 155 661 Q161 655 161 646 Q161 641 160 639 L113 342 Q112 334 111.5 327.5 Q111 321 111 314 Q111 265 141.5 235 Q172 205 232 205 L266 205 L335 643 Q337 655 343.5 663 Q350 671 365 671 Q389 671 389 651 Q389 646 388 643 L319 205 L356 205 Q421 205 464.5 243.5 Q508 282 518 342 L565 639 Q567 651 573 659 Q579 667 594 667 Q619 667 619 647 Q619 642 618 639 L572 346 Q565 304 547.5 268 Q530 232 501.5 206 Q473 180 434.5 165.5 Q396 151 348 151 L311 151 L290 23 Q288 9 281.5 2 Q275 -5 260 -5 Z " />
<glyph glyph-name="Omega" unicode="&#x3a9;" horiz-adv-x="536" d="M474 469 Q477 484 477 499 Q477 549 448 581.5 Q419 614 362 614 L288 614 Q226 614 191 576.5 Q156 539 146 478 L103 209 Q102 202 101.5 195.5 Q101 189 101 181 Q101 149 115.5 121.5 Q130 94 165 82 Q177 77 180 70.5 Q183 64 181 50 L177 24 Q176 16 168 8 Q160 0 145 0 L31 0 Q11 0 11 20 Q11 38 19 45.5 Q27 53 39 53 L110 53 Q72 74 59 106 Q46 138 46 170 Q46 181 47 191.5 Q48 202 50 213 L93 474 Q109 571 157.5 619 Q206 667 285 667 L370 667 Q404 667 433.5 656.5 Q463 646 484.5 625.5 Q506 605 518 575 Q530 545 530 506 Q530 486 527 465 L486 213 Q483 191 476 167 Q469 143 456 121.5 Q443 100 423 82 Q403 64 373 53 L447 53 Q466 53 466 36 Q466 18 458.5 9 Q451 0 439 0 L317 0 Q302 0 295.5 8 Q289 16 291 24 L296 56 Q298 65 301.5 69.5 Q305 74 321 79 Q368 94 396.5 127.5 Q425 161 433 209 L474 469 Z " />
<glyph glyph-name="Alphatonos" unicode="&#x386;" horiz-adv-x="532" d="M399 156 L114 156 L45 13 Q40 4 34 0.5 Q28 -3 20 -4 Q3 -4 -4 3 Q-11 10 -11 17 Q-11 21 -7 31 L288 638 Q297 656 303 661.5 Q309 667 323 667 L352 667 Q365 667 370 661.5 Q375 656 378 638 L479 31 Q480 28 480 23 Q480 16 473 6.5 Q466 -3 446 -3 Q438 -3 431.5 1 Q425 5 423 13 L399 156 Z M141 210 L391 210 L328 606 L141 210 Z M101 537 Q93 527 80 527 Q71 527 65.5 533 Q60 539 60 545 Q60 550 62 554 Q64 558 66 562 L154 689 Q160 698 174 698 Q188 698 197 687.5 Q206 677 206 665 Q206 656 202 652 L101 537 Z " />
<glyph glyph-name="Epsilontonos" unicode="&#x388;" horiz-adv-x="464" d="M52 0 Q37 0 32 6 Q27 12 29 28 L126 639 Q128 655 135 661 Q142 667 157 667 L493 667 Q518 667 514 639 Q510 614 485 614 L175 614 L138 380 L404 380 Q427 380 424 354 Q421 339 414 333.5 Q407 328 395 328 L129 328 L86 53 L396 53 Q421 53 417 28 Q413 0 388 0 L52 0 Z M-42 537 Q-50 527 -63 527 Q-72 527 -77.5 533 Q-83 539 -83 545 Q-83 550 -81 554 Q-79 558 -77 562 L11 689 Q17 698 31 698 Q45 698 54 687.5 Q63 677 63 665 Q63 656 59 652 L-42 537 Z " />
<glyph glyph-name="Etatonos" unicode="&#x389;" horiz-adv-x="546" d="M423 -5 Q408 -5 403.5 0.5 Q399 6 401 23 L449 328 L129 328 L81 23 Q79 6 72.5 0.5 Q66 -5 51 -5 Q36 -5 31 1 Q26 7 28 23 L126 643 Q129 659 136 665 Q143 671 158 671 Q173 671 177.5 665.5 Q182 660 179 643 L138 380 L458 380 L499 643 Q502 660 508.5 665.5 Q515 671 530 671 Q545 671 550 665 Q555 659 552 643 L454 23 Q452 7 445 1 Q438 -5 423 -5 Z M-35 537 Q-43 527 -56 527 Q-65 527 -70.5 533 Q-76 539 -76 545 Q-76 550 -74 554 Q-72 558 -70 562 L18 689 Q24 698 38 698 Q52 698 61 687.5 Q70 677 70 665 Q70 656 66 652 L-35 537 Z " />
<glyph glyph-name="Iotatonos" unicode="&#x38a;" horiz-adv-x="233" d="M81 -5 Q66 -5 61 1 Q56 7 58 23 L156 643 Q159 659 166 665 Q173 671 188 671 Q203 671 207.5 665.5 Q212 660 209 643 L111 23 Q109 6 102.5 0.5 Q96 -5 81 -5 Z M-14 537 Q-22 527 -35 527 Q-44 527 -49.5 533 Q-55 539 -55 545 Q-55 550 -53 554 Q-51 558 -49 562 L39 689 Q45 698 59 698 Q73 698 82 687.5 Q91 677 91 665 Q91 656 87 652 L-14 537 Z " />
<glyph glyph-name="Omicrontonos" unicode="&#x38c;" horiz-adv-x="536" d="M367 667 Q401 667 430.5 656.5 Q460 646 481.5 625.5 Q503 605 515 575 Q527 545 527 506 Q527 486 524 465 L481 193 Q466 96 414.5 48 Q363 0 284 0 L201 0 Q167 0 138 10 Q109 20 87.5 40 Q66 60 54 89 Q42 118 42 157 Q42 176 45 197 L90 474 Q106 571 156 619 Q206 667 282 667 L367 667 Z M471 469 Q474 485 474 500 Q474 550 445.5 582 Q417 614 359 614 L285 614 Q225 614 189 576.5 Q153 539 143 478 L98 197 Q96 189 96 181 Q96 173 96 165 Q96 116 122 84.5 Q148 53 208 53 L279 53 Q350 53 383.5 90.5 Q417 128 427 189 L471 469 Z M-24 537 Q-32 527 -45 527 Q-54 527 -59.5 533 Q-65 539 -65 545 Q-65 550 -63 554 Q-61 558 -59 562 L29 689 Q35 698 49 698 Q63 698 72 687.5 Q81 677 81 665 Q81 656 77 652 L-24 537 Z " />
<glyph glyph-name="Upsilontonos" unicode="&#x38e;" horiz-adv-x="475" d="M256 344 L488 656 Q493 662 499 664.5 Q505 667 511 667 Q525 667 531.5 658.5 Q538 650 538 645 Q538 639 533 632 L279 289 L237 21 Q234 -5 204 -5 Q193 -5 187 1.5 Q181 8 181 17 L181 21 L223 289 L72 631 Q70 637 70 641 Q70 648 77.5 657.5 Q85 667 100 667 Q115 667 121 653 L256 344 Z M-58 537 Q-66 527 -79 527 Q-88 527 -93.5 533 Q-99 539 -99 545 Q-99 550 -97 554 Q-95 558 -93 562 L-5 689 Q1 698 15 698 Q29 698 38 687.5 Q47 677 47 665 Q47 656 43 652 L-58 537 Z " />
<glyph glyph-name="Omegatonos" unicode="&#x38f;" horiz-adv-x="536" d="M474 469 Q477 484 477 499 Q477 549 448 581.5 Q419 614 362 614 L288 614 Q226 614 191 576.5 Q156 539 146 478 L103 209 Q102 202 101.5 195.5 Q101 189 101 181 Q101 149 115.5 121.5 Q130 94 165 82 Q177 77 180 70.5 Q183 64 181 50 L177 24 Q176 16 168 8 Q160 0 145 0 L31 0 Q11 0 11 20 Q11 38 19 45.5 Q27 53 39 53 L110 53 Q72 74 59 106 Q46 138 46 170 Q46 181 47 191.5 Q48 202 50 213 L93 474 Q109 571 157.5 619 Q206 667 285 667 L370 667 Q404 667 433.5 656.5 Q463 646 484.5 625.5 Q506 605 518 575 Q530 545 530 506 Q530 486 527 465 L486 213 Q483 191 476 167 Q469 143 456 121.5 Q443 100 423 82 Q403 64 373 53 L447 53 Q466 53 466 36 Q466 18 458.5 9 Q451 0 439 0 L317 0 Q302 0 295.5 8 Q289 16 291 24 L296 56 Q298 65 301.5 69.5 Q305 74 321 79 Q368 94 396.5 127.5 Q425 161 433 209 L474 469 Z M-19 537 Q-27 527 -40 527 Q-49 527 -54.5 533 Q-60 539 -60 545 Q-60 550 -58 554 Q-56 558 -54 562 L34 689 Q40 698 54 698 Q68 698 77 687.5 Q86 677 86 665 Q86 656 82 652 L-19 537 Z " />
<glyph glyph-name="iotadieresistonos" unicode="&#x390;" horiz-adv-x="211" d="M264 547 Q252 547 245 555.5 Q238 564 238 575 Q238 594 249 604.5 Q260 615 273 615 Q285 615 294 608.5 Q303 602 303 587 Q303 570 290.5 558.5 Q278 547 264 547 Z M70 547 Q59 547 51 555.5 Q43 564 43 576 Q43 595 55 605 Q67 615 79 615 Q91 615 99.5 608.5 Q108 602 108 588 Q108 570 96 558.5 Q84 547 70 547 Z M157 537 Q149 527 136 527 Q127 527 121.5 533 Q116 539 116 545 Q116 550 118 554 Q120 558 122 562 L210 689 Q216 698 230 698 Q244 698 253 687.5 Q262 677 262 665 Q262 656 258 652 L157 537 Z M116 439 Q117 444 122 454 Q127 464 141 464 Q157 464 163.5 455 Q170 446 168 437 L100 7 Q99 1 97 -0.5 Q95 -2 90 -2 Q67 -2 59 16.5 Q51 35 54 54 L116 439 Z " />
<glyph glyph-name="Iotadieresis" unicode="&#x3aa;" horiz-adv-x="233" d="M81 -5 Q66 -5 61 1 Q56 7 58 23 L156 643 Q159 659 166 665 Q173 671 188 671 Q203 671 207.5 665.5 Q212 660 209 643 L111 23 Q109 6 102.5 0.5 Q96 -5 81 -5 Z M273 703 Q261 703 254 711.5 Q247 720 247 731 Q247 750 258 760.5 Q269 771 282 771 Q294 771 303 764.5 Q312 758 312 743 Q312 726 299.5 714.5 Q287 703 273 703 Z M100 703 Q89 703 81 711.5 Q73 720 73 732 Q73 751 85 761 Q97 771 109 771 Q121 771 129.5 764.5 Q138 758 138 744 Q138 726 126 714.5 Q114 703 100 703 Z " />
<glyph glyph-name="Upsilondieresis" unicode="&#x3ab;" horiz-adv-x="475" d="M256 344 L488 656 Q493 662 499 664.5 Q505 667 511 667 Q525 667 531.5 658.5 Q538 650 538 645 Q538 639 533 632 L279 289 L237 21 Q234 -5 204 -5 Q193 -5 187 1.5 Q181 8 181 17 L181 21 L223 289 L72 631 Q70 637 70 641 Q70 648 77.5 657.5 Q85 667 100 667 Q115 667 121 653 L256 344 Z M220 704 Q209 704 201 712.5 Q193 721 193 733 Q193 752 205 762 Q217 772 229 772 Q241 772 249.5 765.5 Q258 759 258 745 Q258 727 246 715.5 Q234 704 220 704 Z M393 704 Q381 704 374 712.5 Q367 721 367 732 Q367 751 378 761.5 Q389 772 402 772 Q414 772 423 765.5 Q432 759 432 744 Q432 727 419.5 715.5 Q407 704 393 704 Z " />
<glyph glyph-name="alphatonos" unicode="&#x3ac;" horiz-adv-x="477" d="M239 463 Q281 463 323 450 Q365 437 402 416 Q405 431 414.5 446 Q424 461 447 461 Q460 461 460 454 Q460 450 459 447 L390 8 Q389 1 387 -0.5 Q385 -2 379 -2 Q359 -2 351.5 13 Q344 28 344 43 L344 51 Q306 28 262.5 14 Q219 0 181 0 Q106 0 71.5 31.5 Q37 63 37 126 Q37 137 38 148.5 Q39 160 41 173 L59 290 Q72 372 117 417.5 Q162 463 239 463 Z M94 173 Q91 153 91 137 Q91 92 115 72 Q139 52 188 52 Q223 52 265.5 66.5 Q308 81 352 104 L394 365 Q366 385 322.5 396.5 Q279 408 242 408 Q189 408 156.5 380.5 Q124 353 113 290 L94 173 Z M298 537 Q290 527 277 527 Q268 527 262.5 533 Q257 539 257 545 Q257 550 259 554 Q261 558 263 562 L351 689 Q357 698 371 698 Q385 698 394 687.5 Q403 677 403 665 Q403 656 399 652 L298 537 Z " />
<glyph glyph-name="epsilontonos" unicode="&#x3ad;" horiz-adv-x="407" d="M203 406 Q169 406 142.5 386 Q116 366 116 328 Q116 305 131 288.5 Q146 272 182 272 L346 272 Q365 272 365 252 Q365 236 356.5 227.5 Q348 219 337 219 L176 219 Q159 219 142.5 211.5 Q126 204 113 191 Q100 178 92 160 Q84 142 84 120 Q84 94 99.5 73 Q115 52 153 52 L332 52 Q351 52 351 31 Q351 14 342.5 7 Q334 0 324 0 L135 0 Q89 0 59 29 Q29 58 29 112 Q29 163 50.5 195 Q72 227 107 243 Q87 255 75 276.5 Q63 298 63 328 Q63 354 73 377.5 Q83 401 102 419 Q121 437 149 448 Q177 459 213 459 L360 459 Q368 459 374 454.5 Q380 450 380 439 Q380 422 371 414 Q362 406 352 406 L203 406 Z M246 537 Q238 527 225 527 Q216 527 210.5 533 Q205 539 205 545 Q205 550 207 554 Q209 558 211 562 L299 689 Q305 698 319 698 Q333 698 342 687.5 Q351 677 351 665 Q351 656 347 652 L246 537 Z " />
<glyph glyph-name="etatonos" unicode="&#x3ae;" horiz-adv-x="478" d="M77 21 Q75 13 69.5 4.5 Q64 -4 50 -4 Q36 -4 30 3.5 Q24 11 24 19 L24 23 L93 449 Q95 457 97 459 Q99 461 105 461 Q125 461 132.5 447.5 Q140 434 140 420 Q140 414 139 411 Q176 431 220.5 446 Q265 461 303 461 Q378 461 412.5 430 Q447 399 447 337 Q447 312 443 289 L398 7 Q397 1 395 -0.5 Q393 -2 388 -2 Q368 -2 359.5 12 Q351 26 351 43 Q351 46 351.5 49 Q352 52 352 54 L390 289 Q393 307 393 322 Q393 368 367 388.5 Q341 409 296 409 Q261 409 218.5 395 Q176 381 132 358 L77 21 Z M274 537 Q266 527 253 527 Q244 527 238.5 533 Q233 539 233 545 Q233 550 235 554 Q237 558 239 562 L327 689 Q333 698 347 698 Q361 698 370 687.5 Q379 677 379 665 Q379 656 375 652 L274 537 Z " />
<glyph glyph-name="iotatonos" unicode="&#x3af;" horiz-adv-x="211" d="M116 439 Q117 444 122 454 Q127 464 141 464 Q157 464 163.5 455 Q170 446 168 437 L100 7 Q99 1 97 -0.5 Q95 -2 90 -2 Q67 -2 59 16.5 Q51 35 54 54 L116 439 Z M176 537 Q168 527 155 527 Q146 527 140.5 533 Q135 539 135 545 Q135 550 137 554 Q139 558 141 562 L229 689 Q235 698 249 698 Q263 698 272 687.5 Q281 677 281 665 Q281 656 277 652 L176 537 Z " />
<glyph glyph-name="upsilondieresistonos" unicode="&#x3b0;" horiz-adv-x="473" d="M229 51 Q278 51 317 78 Q356 105 365 167 L406 441 Q408 449 414.5 455.5 Q421 462 435 462 Q449 462 454 456 Q459 450 459 443 L459 440 L418 167 Q406 86 357.5 43 Q309 0 230 0 L193 0 Q120 0 77.5 37.5 Q35 75 35 142 Q35 158 38 176 L82 455 Q83 461 85 462.5 Q87 464 92 464 Q112 464 120.5 450 Q129 436 129 419 Q129 412 128 408 L91 176 Q90 168 89.5 161.5 Q89 155 89 148 Q89 100 118 75.5 Q147 51 203 51 L229 51 Z M275 537 Q267 527 254 527 Q245 527 239.5 533 Q234 539 234 545 Q234 550 236 554 Q238 558 240 562 L328 689 Q334 698 348 698 Q362 698 371 687.5 Q380 677 380 665 Q380 656 376 652 L275 537 Z M188 547 Q177 547 169 555.5 Q161 564 161 576 Q161 595 173 605 Q185 615 197 615 Q209 615 217.5 608.5 Q226 602 226 588 Q226 570 214 558.5 Q202 547 188 547 Z M382 547 Q370 547 363 555.5 Q356 564 356 575 Q356 594 367 604.5 Q378 615 391 615 Q403 615 412 608.5 Q421 602 421 587 Q421 570 408.5 558.5 Q396 547 382 547 Z " />
<glyph glyph-name="alpha" unicode="&#x3b1;" horiz-adv-x="477" d="M239 463 Q281 463 323 450 Q365 437 402 416 Q405 431 414.5 446 Q424 461 447 461 Q460 461 460 454 Q460 450 459 447 L390 8 Q389 1 387 -0.5 Q385 -2 379 -2 Q359 -2 351.5 13 Q344 28 344 43 L344 51 Q306 28 262.5 14 Q219 0 181 0 Q106 0 71.5 31.5 Q37 63 37 126 Q37 137 38 148.5 Q39 160 41 173 L59 290 Q72 372 117 417.5 Q162 463 239 463 Z M94 173 Q91 153 91 137 Q91 92 115 72 Q139 52 188 52 Q223 52 265.5 66.5 Q308 81 352 104 L394 365 Q366 385 322.5 396.5 Q279 408 242 408 Q189 408 156.5 380.5 Q124 353 113 290 L94 173 Z " />
<glyph glyph-name="beta" unicode="&#x3b2;" horiz-adv-x="466" d="M96 511 Q108 592 159.5 640 Q211 688 294 688 Q331 688 363 678.5 Q395 669 418 650.5 Q441 632 454 605 Q467 578 467 543 Q467 487 438.5 444 Q410 401 363 380 Q396 369 413 337 Q430 305 430 267 Q430 260 429.5 254 Q429 248 428 241 L418 166 Q405 85 356 42.5 Q307 0 225 0 L70 0 L43 -190 Q42 -198 34.5 -205.5 Q27 -213 13 -213 Q-2 -213 -6 -205.5 Q-10 -198 -10 -190 L96 511 Z M78 52 L232 52 Q253 52 275 58.5 Q297 65 316 78.5 Q335 92 348.5 114 Q362 136 366 167 L376 241 Q377 246 377.5 251 Q378 256 378 261 Q378 285 369.5 303.5 Q361 322 347 334 Q333 346 314.5 352.5 Q296 359 275 359 L204 359 Q199 359 192 364.5 Q185 370 185 381 Q185 398 195 404.5 Q205 411 212 411 L279 411 Q304 411 328.5 419.5 Q353 428 372 443.5 Q391 459 402.5 482 Q414 505 414 535 Q414 563 403.5 582.5 Q393 602 376 614 Q359 626 336 631.5 Q313 637 288 637 Q234 637 196.5 605.5 Q159 574 149 511 L78 52 Z " />
<glyph glyph-name="gamma" unicode="&#x3b3;" horiz-adv-x="413" d="M46 431 Q46 433 45.5 434.5 Q45 436 45 438 Q45 448 52.5 456.5 Q60 465 75 465 Q84 465 90.5 460 Q97 455 99 445 L177 62 L330 339 Q339 358 343.5 370.5 Q348 383 350 393.5 Q352 404 352.5 413.5 Q353 423 353 436 Q353 442 358 453.5 Q363 465 381 465 Q399 465 404.5 455 Q410 445 410 436 Q410 417 409 403.5 Q408 390 405 377 Q402 364 396 351 Q390 338 380 321 L187 -14 L159 -195 Q157 -202 150 -209 Q143 -216 129 -216 Q114 -216 110 -208.5 Q106 -201 106 -194 L138 12 L46 431 Z " />
<glyph glyph-name="delta" unicode="&#x3b4;" horiz-adv-x="472" d="M172 0 Q108 0 71 37 Q34 74 34 136 Q34 144 34 151.5 Q34 159 36 167 L53 278 Q58 311 70 341 Q82 371 102 394 Q122 417 151 432.5 Q180 448 219 452 L219 453 Q201 463 184 474.5 Q167 486 154 499.5 Q141 513 133 530.5 Q125 548 125 572 Q125 625 161.5 658.5 Q198 692 259 692 L451 692 Q455 692 460.5 687 Q466 682 466 670 Q466 651 456.5 645 Q447 639 442 639 L264 639 Q231 639 205 623.5 Q179 608 179 574 Q179 550 197.5 534 Q216 518 243 504 L368 437 Q406 416 421.5 385 Q437 354 437 317 Q437 300 434 282 L418 167 Q407 86 359 43 Q311 0 238 0 L172 0 Z M380 274 Q383 295 383 313 Q383 344 369 367 Q355 390 314 409 L283 423 Q232 417 199.5 403 Q167 389 147.5 368.5 Q128 348 118.5 322 Q109 296 104 265 L89 167 Q88 160 87.5 154 Q87 148 87 142 Q87 98 111.5 74.5 Q136 51 178 51 L234 51 Q255 51 276.5 57.5 Q298 64 316 78 Q334 92 347 114 Q360 136 365 167 L380 274 Z " />
<glyph glyph-name="epsilon" unicode="&#x3b5;" horiz-adv-x="407" d="M203 406 Q169 406 142.5 386 Q116 366 116 328 Q116 305 131 288.5 Q146 272 182 272 L346 272 Q365 272 365 252 Q365 236 356.5 227.5 Q348 219 337 219 L176 219 Q159 219 142.5 211.5 Q126 204 113 191 Q100 178 92 160 Q84 142 84 120 Q84 94 99.5 73 Q115 52 153 52 L332 52 Q351 52 351 31 Q351 14 342.5 7 Q334 0 324 0 L135 0 Q89 0 59 29 Q29 58 29 112 Q29 163 50.5 195 Q72 227 107 243 Q87 255 75 276.5 Q63 298 63 328 Q63 354 73 377.5 Q83 401 102 419 Q121 437 149 448 Q177 459 213 459 L360 459 Q368 459 374 454.5 Q380 450 380 439 Q380 422 371 414 Q362 406 352 406 L203 406 Z " />
<glyph glyph-name="zeta" unicode="&#x3b6;" horiz-adv-x="413" d="M420 459 Q431 459 434.5 453 Q438 447 437 439 L435 424 Q434 410 422 403 Q393 386 356 366 Q319 346 281 323 Q243 300 207 276.5 Q171 253 143 229 Q115 205 98 182 Q81 159 81 139 Q81 118 91 104.5 Q101 91 119.5 82 Q138 73 165 66.5 Q192 60 226 53 Q246 49 266 43 Q286 37 301.5 28 Q317 19 327 6.5 Q337 -6 337 -24 Q337 -45 320.5 -71 Q304 -97 259 -143 Q256 -146 251 -149.5 Q246 -153 239 -153 Q228 -153 221.5 -146 Q215 -139 215 -133 Q215 -128 217.5 -124 Q220 -120 222 -118 Q253 -84 267 -66.5 Q281 -49 281 -40 Q281 -27 273 -19 Q265 -11 253 -6.5 Q241 -2 226 1 Q211 4 197 7 Q172 12 142.5 19.5 Q113 27 87.5 40.5 Q62 54 44.5 76 Q27 98 27 131 Q27 165 54.5 201.5 Q82 238 127 274.5 Q172 311 228.5 345 Q285 379 342 407 L96 407 Q91 407 85.5 411.5 Q80 416 80 427 Q80 446 89.5 452.5 Q99 459 103 459 L420 459 Z " />
<glyph glyph-name="eta" unicode="&#x3b7;" horiz-adv-x="478" d="M77 21 Q75 13 69.5 4.5 Q64 -4 50 -4 Q36 -4 30 3.5 Q24 11 24 19 L24 23 L93 449 Q95 457 97 459 Q99 461 105 461 Q125 461 132.5 447.5 Q140 434 140 420 Q140 414 139 411 Q176 431 220.5 446 Q265 461 303 461 Q378 461 412.5 430 Q447 399 447 337 Q447 312 443 289 L398 7 Q397 1 395 -0.5 Q393 -2 388 -2 Q368 -2 359.5 12 Q351 26 351 43 Q351 46 351.5 49 Q352 52 352 54 L390 289 Q393 307 393 322 Q393 368 367 388.5 Q341 409 296 409 Q261 409 218.5 395 Q176 381 132 358 L77 21 Z " />
<glyph glyph-name="theta" unicode="&#x3b8;" horiz-adv-x="463" d="M180 0 Q111 0 71.5 37 Q32 74 32 140 Q32 158 35 176 L88 519 Q101 601 150.5 645 Q200 689 281 689 L318 689 Q384 689 425.5 653 Q467 617 467 550 Q467 533 464 514 L412 167 Q400 86 351 43 Q302 0 224 0 L180 0 Z M386 349 L114 349 L88 176 Q86 168 86 160.5 Q86 153 86 145 Q86 51 190 51 L223 51 Q274 51 312 78 Q350 105 359 167 L386 349 Z M122 397 L393 397 L411 514 Q413 522 413 528.5 Q413 535 413 542 Q413 592 384.5 615 Q356 638 308 638 L270 638 Q248 638 227 631 Q206 624 188.5 609.5 Q171 595 158.5 572.5 Q146 550 141 519 L122 397 Z " />
<glyph glyph-name="iota" unicode="&#x3b9;" horiz-adv-x="211" d="M116 439 Q117 444 122 454 Q127 464 141 464 Q157 464 163.5 455 Q170 446 168 437 L100 7 Q99 1 97 -0.5 Q95 -2 90 -2 Q67 -2 59 16.5 Q51 35 54 54 L116 439 Z " />
<glyph glyph-name="kappa" unicode="&#x3ba;" horiz-adv-x="426" d="M107 206 L77 21 Q76 16 70.5 6 Q65 -4 51 -4 Q37 -4 30.5 3.5 Q24 11 24 20 L24 23 L92 441 Q93 446 99 456 Q105 466 119 466 Q133 466 138.5 458.5 Q144 451 144 443 L144 439 L117 270 L391 459 Q398 465 407 465 Q418 465 424 457 Q430 449 430 439 Q430 427 419 420 L270 318 L378 30 Q379 28 379 22 Q379 14 373.5 5 Q368 -4 353 -4 Q336 -4 331 11 L227 288 L107 206 Z " />
<glyph glyph-name="lambda" unicode="&#x3bb;" horiz-adv-x="484" d="M406 399 L244 399 Q195 399 156.5 374 Q118 349 108 286 L65 16 Q64 9 56.5 2 Q49 -5 35 -5 Q20 -5 16 2 Q12 9 12 16 L55 286 Q69 371 117.5 412.5 Q166 454 241 454 L414 454 L427 527 Q430 542 430 554 Q430 600 401 619 Q372 638 329 638 L183 638 Q178 638 172.5 642.5 Q167 647 167 658 Q167 677 176.5 684 Q186 691 191 691 L338 691 Q405 691 444 658.5 Q483 626 483 562 Q483 545 480 526 L395 0 L386 0 Q366 0 357.5 14 Q349 28 349 45 Q349 48 349.5 51 Q350 54 350 56 L406 399 Z " />
<glyph glyph-name="nu" unicode="&#x3bd;" horiz-adv-x="408" d="M222 29 Q207 0 184 0 L161 0 Q141 0 133 29 L37 431 Q37 433 36.5 434.5 Q36 436 36 438 Q36 448 43.5 456.5 Q51 465 66 465 Q85 465 90 445 L179 57 L320 339 Q334 367 339 383 Q344 399 344 415 Q344 420 344 425 Q344 430 343 436 Q342 442 348 453.5 Q354 465 372 465 Q390 465 395.5 455 Q401 445 401 436 Q401 417 399.5 403.5 Q398 390 395 377.5 Q392 365 386 352 Q380 339 371 321 L222 29 Z " />
<glyph glyph-name="xi" unicode="&#x3be;" horiz-adv-x="414" d="M235 360 Q182 360 145.5 332.5 Q109 305 100 242 L89 167 Q88 161 87.5 154.5 Q87 148 87 143 Q87 119 95.5 101.5 Q104 84 117.5 73 Q131 62 149 57 Q167 52 187 52 L325 52 Q341 52 346.5 43.5 Q352 35 352 27 Q352 25 351.5 24 Q351 23 351 21 L324 -141 Q323 -148 316 -155 Q309 -162 295 -162 Q281 -162 276 -155.5 Q271 -149 271 -141 L295 0 L178 0 Q148 0 121.5 9 Q95 18 75.5 35 Q56 52 45 77.5 Q34 103 34 136 Q34 144 34 151.5 Q34 159 36 167 L47 242 Q55 293 78.5 333.5 Q102 374 154 391 Q123 408 109.5 435 Q96 462 96 500 Q96 549 112 584.5 Q128 620 156 643.5 Q184 667 220 678 Q256 689 297 689 L431 689 Q439 689 445 684 Q451 679 451 668 Q451 652 441 644 Q431 636 423 636 L287 636 Q263 636 239 628.5 Q215 621 195.5 605.5 Q176 590 163.5 565 Q151 540 151 504 Q151 454 179.5 433 Q208 412 251 412 L390 412 Q396 412 403 407 Q410 402 410 391 Q410 376 399.5 368 Q389 360 382 360 L235 360 Z " />
<glyph glyph-name="omicron" unicode="&#x3bf;" horiz-adv-x="460" d="M183 0 Q111 0 71 36.5 Q31 73 31 139 Q31 156 34 176 L51 289 Q64 371 113.5 415 Q163 459 244 459 L280 459 Q347 459 390.5 423 Q434 387 434 318 Q434 302 431 284 L414 167 Q402 86 353 43 Q304 0 226 0 L183 0 Z M378 284 Q380 291 380 297.5 Q380 304 380 310 Q380 361 349 384.5 Q318 408 270 408 L233 408 Q189 408 151.5 379.5 Q114 351 104 289 L87 176 Q86 168 85.5 161 Q85 154 85 147 Q85 99 113.5 75 Q142 51 193 51 L225 51 Q275 51 313.5 78 Q352 105 361 167 L378 284 Z " />
<glyph glyph-name="pi" unicode="&#x3c0;" horiz-adv-x="491" d="M405 7 Q404 1 402 -0.5 Q400 -2 395 -2 Q372 -2 364 16.5 Q356 35 359 54 L413 404 L134 404 L74 17 Q73 12 66 4 Q59 -4 45 -4 Q31 -4 25.5 4 Q20 12 21 17 L85 427 Q87 437 95 448 Q103 459 121 459 L444 459 Q462 459 467 448 Q472 437 470 427 L405 7 Z " />
<glyph glyph-name="rho" unicode="&#x3c1;" horiz-adv-x="477" d="M75 0 L43 -191 Q42 -196 36.5 -206 Q31 -216 17 -216 Q3 -216 -3 -208.5 Q-9 -201 -9 -193 L-9 -189 L65 269 Q82 369 138 415 Q194 461 287 461 Q361 461 404 427 Q447 393 447 325 Q447 308 444 289 L424 169 Q410 84 362.5 42 Q315 0 245 0 L75 0 Z M83 52 L244 52 Q289 52 324.5 79 Q360 106 371 169 L391 289 Q393 297 393 303.5 Q393 310 393 316 Q393 366 363.5 387.5 Q334 409 287 409 Q251 409 222 401 Q193 393 171.5 374 Q150 355 135.5 324 Q121 293 114 247 L83 52 Z " />
<glyph glyph-name="sigma1" unicode="&#x3c2;" horiz-adv-x="460" d="M30 0 Q25 0 20 5.5 Q15 11 15 21 Q15 41 24.5 46.5 Q34 52 38 52 L251 52 Q267 52 283 56 Q299 60 312 69 Q325 78 333 91.5 Q341 105 341 125 Q341 149 325.5 164.5 Q310 180 278 190 L158 227 Q137 233 119 241 Q101 249 87.5 260.5 Q74 272 66 289 Q58 306 58 330 Q58 387 96 423 Q134 459 203 459 L402 459 Q406 459 411.5 454 Q417 449 417 437 Q417 418 408 412 Q399 406 394 406 L201 406 Q165 406 138 389.5 Q111 373 111 338 Q111 315 127 301.5 Q143 288 176 278 L295 243 Q313 238 331 229.5 Q349 221 363 207 Q377 193 386 172.5 Q395 152 395 123 Q395 71 354.5 35.5 Q314 0 243 0 L30 0 Z " />
<glyph glyph-name="sigma" unicode="&#x3c3;" horiz-adv-x="494" d="M55 289 Q68 374 118 416.5 Q168 459 246 459 L489 459 Q494 459 500.5 454 Q507 449 507 436 Q507 418 497.5 411 Q488 404 482 404 L398 404 Q417 388 424.5 365 Q432 342 432 316 Q432 298 429 279 L413 167 Q402 86 352.5 43 Q303 0 225 0 L187 0 Q115 0 75 36.5 Q35 73 35 139 Q35 156 38 176 L55 289 Z M377 284 Q378 291 378.5 297 Q379 303 379 309 Q379 336 369.5 355 Q360 374 344.5 386 Q329 398 309 403 Q289 408 269 408 L237 408 Q193 408 155.5 379.5 Q118 351 108 289 L91 176 Q90 168 89.5 161 Q89 154 89 147 Q89 99 117.5 75 Q146 51 197 51 L224 51 Q274 51 312.5 78 Q351 105 360 167 L377 284 Z " />
<glyph glyph-name="tau" unicode="&#x3c4;" horiz-adv-x="354" d="M50 404 Q45 404 39.5 409 Q34 414 34 426 Q34 445 44.5 451.5 Q55 458 59 458 L332 458 Q336 458 342.5 453 Q349 448 349 436 Q349 419 338.5 411.5 Q328 404 323 404 L188 404 L150 157 Q147 139 147 125 Q147 81 171 64.5 Q195 48 242 48 L299 48 Q304 48 310.5 43.5 Q317 39 317 26 Q317 8 306.5 2.5 Q296 -3 291 -3 L234 -3 Q172 -3 132.5 24 Q93 51 93 115 Q93 132 96 150 L136 404 L50 404 Z " />
<glyph glyph-name="upsilon" unicode="&#x3c5;" horiz-adv-x="473" d="M229 51 Q278 51 317 78 Q356 105 365 167 L406 441 Q408 449 414.5 455.5 Q421 462 435 462 Q449 462 454 456 Q459 450 459 443 L459 440 L418 167 Q406 86 357.5 43 Q309 0 230 0 L193 0 Q120 0 77.5 37.5 Q35 75 35 142 Q35 158 38 176 L82 455 Q83 461 85 462.5 Q87 464 92 464 Q112 464 120.5 450 Q129 436 129 419 Q129 412 128 408 L91 176 Q90 168 89.5 161.5 Q89 155 89 148 Q89 100 118 75.5 Q147 51 203 51 L229 51 Z " />
<glyph glyph-name="phi" unicode="&#x3c6;" horiz-adv-x="589" d="M280 0 L250 -193 Q248 -201 241.5 -207.5 Q235 -214 221 -214 Q208 -214 202.5 -208.5 Q197 -203 197 -196 L197 -193 L227 0 L178 0 Q148 0 121.5 9 Q95 18 75.5 35 Q56 52 45 78 Q34 104 34 137 Q34 145 34 152 Q34 159 36 167 L54 291 Q62 342 86 380 Q110 418 153 437 Q159 440 165 440 Q173 440 177.5 435.5 Q182 431 185 426 Q187 420 187 416 Q187 401 174 392 Q151 378 132 356 Q113 334 108 299 L89 167 Q88 161 87.5 155.5 Q87 150 87 145 Q87 120 96 102 Q105 84 119.5 73 Q134 62 152.5 56.5 Q171 51 191 51 L234 51 L294 427 Q296 438 303.5 448.5 Q311 459 331 459 L402 459 Q468 459 512 422 Q556 385 556 316 Q556 300 553 284 L535 167 Q522 86 473.5 43 Q425 0 356 0 L280 0 Z M288 51 L352 51 Q374 51 395 57.5 Q416 64 434 78 Q452 92 464.5 114 Q477 136 482 167 L499 281 Q500 288 500.5 294.5 Q501 301 501 307 Q501 358 470 382.5 Q439 407 391 407 L344 407 L288 51 Z " />
<glyph glyph-name="chi" unicode="&#x3c7;" horiz-adv-x="416" d="M365 453 Q369 458 374.5 461.5 Q380 465 388 465 Q399 465 406.5 455.5 Q414 446 414 439 Q414 431 407 424 L238 237 L371 18 Q374 13 374 11 Q374 6 368 3 Q362 0 353 0 Q341 0 327 6 Q313 12 305 25 L203 197 L33 7 Q29 2 23 -1.5 Q17 -5 9 -5 Q-2 -5 -8.5 3 Q-15 11 -15 20 Q-15 30 -8 37 L176 241 L54 442 Q52 445 52 449 Q52 454 59 457.5 Q66 461 74 461 Q86 461 99 454.5 Q112 448 120 435 L211 280 L365 453 Z " />
<glyph glyph-name="psi" unicode="&#x3c8;" horiz-adv-x="570" d="M517 178 Q511 137 497 104.5 Q483 72 459.5 48.5 Q436 25 401 12.5 Q366 0 318 0 L274 0 L244 -186 Q243 -193 236.5 -200 Q230 -207 216 -207 Q202 -207 195.5 -200.5 Q189 -194 191 -186 L221 0 L188 0 Q150 0 119 11 Q88 22 67.5 43 Q47 64 38.5 95 Q30 126 36 167 L79 440 Q81 449 87.5 455.5 Q94 462 108 462 Q135 462 132 440 L89 167 Q79 105 110 78.5 Q141 52 197 52 L229 52 L292 449 Q294 458 300.5 464.5 Q307 471 321 471 Q348 471 345 449 L282 52 L327 52 Q391 52 422.5 83.5 Q454 115 464 178 L500 408 Q503 427 515 445.5 Q527 464 552 464 Q557 464 559 462.5 Q561 461 560 455 L517 178 Z " />
<glyph glyph-name="omega" unicode="&#x3c9;" horiz-adv-x="638" d="M343 374 Q356 374 361.5 369 Q367 364 367 356 L367 352 L338 165 Q335 148 335 134 Q335 49 418 49 Q470 49 495.5 77 Q521 105 529 153 L556 323 Q557 328 557.5 332.5 Q558 337 558 342 Q558 368 547 386.5 Q536 405 519 416 Q512 423 512 432 Q512 441 519 450 Q523 455 528.5 459 Q534 463 542 463 Q547 463 553 460 Q580 444 595 415.5 Q610 387 610 349 Q610 333 607 315 L581 144 Q576 115 564.5 88.5 Q553 62 532.5 42 Q512 22 482 9.5 Q452 -3 410 -3 Q323 -3 295 64 Q269 32 231.5 14.5 Q194 -3 155 -3 Q122 -3 98.5 7 Q75 17 60.5 33.5 Q46 50 39 72 Q32 94 32 119 Q32 127 32 134.5 Q32 142 34 150 L59 315 Q67 366 90.5 403.5 Q114 441 159 460 Q166 463 172 463 Q180 463 184 459 Q188 455 191 450 Q195 442 195 433 Q195 420 185 414 Q159 400 139 379 Q119 358 114 323 L87 150 Q86 144 85.5 138 Q85 132 85 127 Q85 90 105 69.5 Q125 49 163 49 Q209 49 243 80 Q277 111 285 165 L314 352 Q316 360 322.5 367 Q329 374 343 374 Z " />
<glyph glyph-name="iotadieresis" unicode="&#x3ca;" horiz-adv-x="211" d="M116 439 Q117 444 122 454 Q127 464 141 464 Q157 464 163.5 455 Q170 446 168 437 L100 7 Q99 1 97 -0.5 Q95 -2 90 -2 Q67 -2 59 16.5 Q51 35 54 54 L116 439 Z M244 547 Q232 547 225 555.5 Q218 564 218 575 Q218 594 229 604.5 Q240 615 253 615 Q265 615 274 608.5 Q283 602 283 587 Q283 570 270.5 558.5 Q258 547 244 547 Z M71 547 Q60 547 52 555.5 Q44 564 44 576 Q44 595 56 605 Q68 615 80 615 Q92 615 100.5 608.5 Q109 602 109 588 Q109 570 97 558.5 Q85 547 71 547 Z " />
<glyph glyph-name="upsilondieresis" unicode="&#x3cb;" horiz-adv-x="473" d="M229 51 Q278 51 317 78 Q356 105 365 167 L406 441 Q408 449 414.5 455.5 Q421 462 435 462 Q449 462 454 456 Q459 450 459 443 L459 440 L418 167 Q406 86 357.5 43 Q309 0 230 0 L193 0 Q120 0 77.5 37.5 Q35 75 35 142 Q35 158 38 176 L82 455 Q83 461 85 462.5 Q87 464 92 464 Q112 464 120.5 450 Q129 436 129 419 Q129 412 128 408 L91 176 Q90 168 89.5 161.5 Q89 155 89 148 Q89 100 118 75.5 Q147 51 203 51 L229 51 Z M190 547 Q179 547 171 555.5 Q163 564 163 576 Q163 595 175 605 Q187 615 199 615 Q211 615 219.5 608.5 Q228 602 228 588 Q228 570 216 558.5 Q204 547 190 547 Z M363 547 Q351 547 344 555.5 Q337 564 337 575 Q337 594 348 604.5 Q359 615 372 615 Q384 615 393 608.5 Q402 602 402 587 Q402 570 389.5 558.5 Q377 547 363 547 Z " />
<glyph glyph-name="omicrontonos" unicode="&#x3cc;" horiz-adv-x="460" d="M183 0 Q111 0 71 36.5 Q31 73 31 139 Q31 156 34 176 L51 289 Q64 371 113.5 415 Q163 459 244 459 L280 459 Q347 459 390.5 423 Q434 387 434 318 Q434 302 431 284 L414 167 Q402 86 353 43 Q304 0 226 0 L183 0 Z M378 284 Q380 291 380 297.5 Q380 304 380 310 Q380 361 349 384.5 Q318 408 270 408 L233 408 Q189 408 151.5 379.5 Q114 351 104 289 L87 176 Q86 168 85.5 161 Q85 154 85 147 Q85 99 113.5 75 Q142 51 193 51 L225 51 Q275 51 313.5 78 Q352 105 361 167 L378 284 Z M297 537 Q289 527 276 527 Q267 527 261.5 533 Q256 539 256 545 Q256 550 258 554 Q260 558 262 562 L350 689 Q356 698 370 698 Q384 698 393 687.5 Q402 677 402 665 Q402 656 398 652 L297 537 Z " />
<glyph glyph-name="upsilontonos" unicode="&#x3cd;" horiz-adv-x="473" d="M229 51 Q278 51 317 78 Q356 105 365 167 L406 441 Q408 449 414.5 455.5 Q421 462 435 462 Q449 462 454 456 Q459 450 459 443 L459 440 L418 167 Q406 86 357.5 43 Q309 0 230 0 L193 0 Q120 0 77.5 37.5 Q35 75 35 142 Q35 158 38 176 L82 455 Q83 461 85 462.5 Q87 464 92 464 Q112 464 120.5 450 Q129 436 129 419 Q129 412 128 408 L91 176 Q90 168 89.5 161.5 Q89 155 89 148 Q89 100 118 75.5 Q147 51 203 51 L229 51 Z M290 537 Q282 527 269 527 Q260 527 254.5 533 Q249 539 249 545 Q249 550 251 554 Q253 558 255 562 L343 689 Q349 698 363 698 Q377 698 386 687.5 Q395 677 395 665 Q395 656 391 652 L290 537 Z " />
<glyph glyph-name="omegatonos" unicode="&#x3ce;" horiz-adv-x="638" d="M343 374 Q356 374 361.5 369 Q367 364 367 356 L367 352 L338 165 Q335 148 335 134 Q335 49 418 49 Q470 49 495.5 77 Q521 105 529 153 L556 323 Q557 328 557.5 332.5 Q558 337 558 342 Q558 368 547 386.5 Q536 405 519 416 Q512 423 512 432 Q512 441 519 450 Q523 455 528.5 459 Q534 463 542 463 Q547 463 553 460 Q580 444 595 415.5 Q610 387 610 349 Q610 333 607 315 L581 144 Q576 115 564.5 88.5 Q553 62 532.5 42 Q512 22 482 9.5 Q452 -3 410 -3 Q323 -3 295 64 Q269 32 231.5 14.5 Q194 -3 155 -3 Q122 -3 98.5 7 Q75 17 60.5 33.5 Q46 50 39 72 Q32 94 32 119 Q32 127 32 134.5 Q32 142 34 150 L59 315 Q67 366 90.5 403.5 Q114 441 159 460 Q166 463 172 463 Q180 463 184 459 Q188 455 191 450 Q195 442 195 433 Q195 420 185 414 Q159 400 139 379 Q119 358 114 323 L87 150 Q86 144 85.5 138 Q85 132 85 127 Q85 90 105 69.5 Q125 49 163 49 Q209 49 243 80 Q277 111 285 165 L314 352 Q316 360 322.5 367 Q329 374 343 374 Z M374 537 Q366 527 353 527 Q344 527 338.5 533 Q333 539 333 545 Q333 550 335 554 Q337 558 339 562 L427 689 Q433 698 447 698 Q461 698 470 687.5 Q479 677 479 665 Q479 656 475 652 L374 537 Z " />
<glyph glyph-name="afii00208" unicode="&#x2015;" horiz-adv-x="984" d="M54 210 Q22 210 22 236 Q22 264 54 264 L921 264 Q952 264 952 236 Q952 222 945 216 Q938 210 921 210 L54 210 Z " />
<glyph glyph-name="Circumflex" unicode="&#xf6c0;" horiz-adv-x="532" d="M357 791 L226 700 Q221 696 213 696 Q203 696 196 704 Q189 712 189 721 Q189 731 198 737 L335 836 Q340 839 344.5 841.5 Q349 844 354 844 L371 844 Q379 844 386 837 L491 738 Q497 733 497 726 Q497 716 488 707.5 Q479 699 469 699 Q462 699 457 703 L357 791 Z " />
<glyph glyph-name="commaaccent" unicode="&#xf6c3;" horiz-adv-x="531" d="M213 -214 Q208 -220 201 -225.5 Q194 -231 185 -231 Q176 -231 171.5 -225.5 Q167 -220 167 -215 Q167 -211 168 -208 Q169 -205 171 -201 L218 -84 Q222 -76 230.5 -72.5 Q239 -69 248 -69 Q263 -69 271 -77.5 Q279 -86 279 -97 Q279 -104 277 -106 L213 -214 Z " />
<glyph glyph-name="Acute" unicode="&#xf6c9;" horiz-adv-x="532" d="M327 706 Q323 705 320 704.5 Q317 704 313 704 Q308 704 301.5 707.5 Q295 711 295 722 Q295 730 300.5 735.5 Q306 741 313 744 L442 813 Q448 815 451 815 Q462 815 470.5 806 Q479 797 479 785 Q479 776 474 768 Q469 760 462 758 L327 706 Z " />
<glyph glyph-name="Caron" unicode="&#xf6ca;" horiz-adv-x="532" d="M478 837 Q485 841 491 841 Q501 841 507.5 833.5 Q514 826 514 818 Q514 807 504 800 L368 701 Q358 694 350 694 L333 694 Q328 694 324.5 696.5 Q321 699 317 702 L211 801 Q206 805 206 813 Q206 824 214.5 833 Q223 842 234 842 Q241 842 245 838 L345 748 L478 837 Z " />
<glyph glyph-name="Dieresis" unicode="&#xf6cb;" horiz-adv-x="532" d="M430 701 Q418 701 410.5 709.5 Q403 718 403 730 Q403 748 414.5 758.5 Q426 769 438 769 Q450 769 459 763 Q468 757 468 743 Q468 725 456 713 Q444 701 430 701 Z M257 701 Q246 701 237.5 709.5 Q229 718 229 730 Q229 749 241 759 Q253 769 265 769 Q277 769 285.5 763 Q294 757 294 743 Q294 725 283 713 Q272 701 257 701 Z " />
<glyph glyph-name="DieresisAcute" unicode="&#xf6cc;" horiz-adv-x="532" d="M450 702 Q438 702 430 710 Q422 718 422 730 Q422 748 433.5 758.5 Q445 769 457 769 Q469 769 478 762.5 Q487 756 487 742 Q487 724 475.5 713 Q464 702 450 702 Z M246 701 Q235 701 226.5 709.5 Q218 718 218 730 Q218 749 230 759 Q242 769 254 769 Q266 769 274.5 762 Q283 755 283 741 Q283 723 272 712 Q261 701 246 701 Z M318 696 Q314 694 310 692 Q306 690 301 690 Q296 690 289.5 694 Q283 698 283 707 Q283 713 287.5 719 Q292 725 297 730 L410 824 Q415 828 422 828 Q434 828 443.5 819.5 Q453 811 453 799 Q453 781 440 774 L318 696 Z " />
<glyph glyph-name="DieresisGrave" unicode="&#xf6cd;" horiz-adv-x="532" d="M446 702 Q434 702 426 710 Q418 718 418 730 Q418 748 429.5 758.5 Q441 769 453 769 Q465 769 474 762.5 Q483 756 483 742 Q483 724 471.5 713 Q460 702 446 702 Z M242 701 Q231 701 222.5 709.5 Q214 718 214 730 Q214 749 226 759 Q238 769 250 769 Q262 769 270.5 762 Q279 755 279 741 Q279 724 268 712.5 Q257 701 242 701 Z M283 774 Q270 781 270 799 Q270 810 278.5 818 Q287 826 299 826 Q310 826 317 818 L401 726 Q412 713 412 706 Q412 698 406 693.5 Q400 689 392 689 Q382 689 375 696 L283 774 Z " />
<glyph glyph-name="Grave" unicode="&#xf6ce;" horiz-adv-x="532" d="M251 758 Q244 760 239 768 Q234 776 234 785 Q234 799 243 806 Q252 813 263 813 Q269 813 275 810 L380 744 Q388 740 393 734 Q398 728 398 721 Q398 711 392 707 Q386 703 380 703 Q375 703 370.5 704.5 Q366 706 362 708 L251 758 Z " />
<glyph glyph-name="Hungarumlaut" unicode="&#xf6cf;" horiz-adv-x="532" d="M282 709 Q277 707 273 706 Q269 705 265 705 Q260 705 254 709 Q248 713 248 723 Q248 730 252.5 735.5 Q257 741 263 745 L383 829 Q389 832 395 832 Q406 832 415 823.5 Q424 815 424 803 Q424 794 419.5 787 Q415 780 410 777 L282 709 Z M408 709 Q403 707 399 706 Q395 705 391 705 Q386 705 380 709 Q374 713 374 723 Q374 730 378.5 735.5 Q383 741 389 745 L509 829 Q515 832 521 832 Q532 832 541 823.5 Q550 815 550 803 Q550 794 545.5 787 Q541 780 536 777 L408 709 Z " />
<glyph glyph-name="Macron" unicode="&#xf6d0;" horiz-adv-x="532" d="M251 720 Q240 720 231.5 725.5 Q223 731 223 742 Q223 761 234 766.5 Q245 772 259 772 L450 772 Q461 772 469.5 766.5 Q478 761 478 750 Q478 730 466.5 725 Q455 720 442 720 L251 720 Z " />
<glyph glyph-name="cyrBreve" unicode="&#xf6d1;" horiz-adv-x="532" d="M346 747 Q379 747 411 770 Q443 793 469 831 Q478 841 489 841 Q498 841 504.5 835 Q511 829 511 821 Q511 818 509 814 Q492 779 470.5 756.5 Q449 734 426.5 720.5 Q404 707 382 701.5 Q360 696 342 696 Q323 696 302.5 702 Q282 708 264 722 Q246 736 232 758.5 Q218 781 211 814 L211 817 Q211 825 218.5 832.5 Q226 840 239 840 Q245 840 250 838 Q255 836 257 831 Q268 793 290.5 770 Q313 747 346 747 Z " />
<glyph glyph-name="cyrbreve" unicode="&#xf6d4;" horiz-adv-x="477" d="M304 558 Q337 558 369 581 Q401 604 427 642 Q436 652 447 652 Q456 652 462.5 646 Q469 640 469 632 Q469 629 467 625 Q450 590 428.5 567.5 Q407 545 384.5 531.5 Q362 518 340 512.5 Q318 507 300 507 Q281 507 260.5 513 Q240 519 222 533 Q204 547 190 569.5 Q176 592 169 625 L169 628 Q169 636 176.5 643.5 Q184 651 197 651 Q203 651 208 649 Q213 647 215 642 Q226 604 248.5 581 Q271 558 304 558 Z " />
<glyph glyph-name="caron" unicode="&#x2c7;" horiz-adv-x="477" d="M167 624 Q166 625 166 631 Q166 634 167.5 639 Q169 644 172.5 649 Q176 654 182 657.5 Q188 661 197 661 Q206 661 210 657 L302 565 L435 658 Q440 662 448 662 Q459 662 465 654.5 Q471 647 471 638 Q471 627 464 623 L323 514 Q318 510 314.5 508.5 Q311 507 306 507 L289 507 Q281 507 272 516 L167 624 Z " />
<glyph glyph-name="breve" unicode="&#x2d8;" horiz-adv-x="477" d="M298 562 Q331 562 363 585 Q395 608 421 646 Q430 656 441 656 Q450 656 456.5 650 Q463 644 463 636 Q463 633 461 629 Q444 594 422.5 571.5 Q401 549 378.5 535.5 Q356 522 334 516.5 Q312 511 294 511 Q275 511 254.5 517 Q234 523 216 537 Q198 551 184 573.5 Q170 596 163 629 L163 632 Q163 640 170.5 647.5 Q178 655 191 655 Q197 655 202 653 Q207 651 209 646 Q220 608 242.5 585 Q265 562 298 562 Z " />
<glyph glyph-name="dotaccent" unicode="&#x2d9;" horiz-adv-x="477" d="M309 553 Q295 553 285.5 563 Q276 573 276 588 Q276 611 292 622 Q308 633 322 633 Q336 633 345.5 623 Q355 613 355 598 Q355 578 341.5 565.5 Q328 553 309 553 Z " />
<glyph glyph-name="ring" unicode="&#x2da;" horiz-adv-x="477" d="M309 502 Q283 502 262.5 519.5 Q242 537 242 569 Q242 591 250.5 608 Q259 625 272 635.5 Q285 646 301 651.5 Q317 657 332 657 Q357 657 378 640 Q399 623 399 591 Q399 568 390.5 551 Q382 534 368.5 523 Q355 512 339.5 507 Q324 502 309 502 Z M314 534 Q332 534 349.5 546.5 Q367 559 367 588 Q367 607 355.5 616.5 Q344 626 329 626 Q309 626 291.5 613 Q274 600 274 571 Q274 552 286 543 Q298 534 314 534 Z " />
<glyph glyph-name="ogonek" unicode="&#x2db;" horiz-adv-x="477" d="M382 0 Q347 -38 331.5 -66 Q316 -94 316 -118 Q316 -135 324.5 -144.5 Q333 -154 359 -154 Q365 -154 373.5 -151.5 Q382 -149 391 -145.5 Q400 -142 408.5 -139.5 Q417 -137 423 -137 Q431 -137 436 -143 Q441 -149 441 -157 Q441 -169 429 -176.5 Q417 -184 402 -188.5 Q387 -193 372.5 -194.5 Q358 -196 353 -196 Q327 -196 310.5 -189.5 Q294 -183 284 -172.5 Q274 -162 270 -148.5 Q266 -135 266 -122 Q266 -95 284.5 -61 Q303 -27 347 15 L382 0 Z " />
<glyph glyph-name="hungarumlaut" unicode="&#x2dd;" horiz-adv-x="477" d="M265 535 Q257 525 244 525 Q235 525 229.5 531 Q224 537 224 543 Q224 548 226 552 Q228 556 230 560 L318 687 Q324 696 338 696 Q352 696 361 685.5 Q370 675 370 663 Q370 654 366 650 L265 535 Z M375 535 Q367 525 354 525 Q345 525 339.5 531 Q334 537 334 543 Q334 548 336 552 Q338 556 340 560 L428 687 Q434 696 448 696 Q462 696 471 685.5 Q480 675 480 663 Q480 654 476 650 L375 535 Z " />
<glyph glyph-name="numbersign" unicode="&#x23;" horiz-adv-x="460" d="M258 228 L138 228 L53 33 Q49 25 42.5 21.5 Q36 18 29 18 Q18 18 13.5 22.5 Q9 27 9 32 Q9 39 12 45 L91 228 L46 228 Q29 228 29 243 Q29 269 54 269 L109 269 L167 403 L104 403 Q87 403 87 418 Q87 444 112 444 L185 444 L262 622 Q265 630 271 633 Q277 636 283 636 Q294 636 300.5 631 Q307 626 307 620 Q307 613 303 606 L232 444 L353 444 L431 621 Q437 634 453 634 Q466 634 470.5 628.5 Q475 623 475 617 Q475 613 473 609 L400 444 L451 444 Q467 444 467 429 Q467 415 460.5 409 Q454 403 445 403 L382 403 L324 269 L393 269 Q409 269 409 254 Q409 240 402.5 234 Q396 228 387 228 L306 228 L219 29 Q213 15 197 15 Q189 15 182 19 Q175 23 175 32 Q175 39 179 47 L258 228 Z M156 269 L276 269 L335 403 L214 403 L156 269 Z " />
<glyph glyph-name="Eacute" unicode="&#xc9;" horiz-adv-x="464" d="M52 0 Q37 0 32 6 Q27 12 29 28 L126 639 Q128 655 135 661 Q142 667 157 667 L493 667 Q518 667 514 639 Q510 614 485 614 L175 614 L138 380 L404 380 Q427 380 424 354 Q421 339 414 333.5 Q407 328 395 328 L129 328 L86 53 L396 53 Q421 53 417 28 Q413 0 388 0 L52 0 Z M291 706 Q287 705 284 704.5 Q281 704 277 704 Q272 704 265.5 707.5 Q259 711 259 722 Q259 730 264.5 735.5 Q270 741 277 744 L406 813 Q412 815 415 815 Q426 815 434.5 806 Q443 797 443 785 Q443 776 438 768 Q433 760 426 758 L291 706 Z " />
<glyph glyph-name="Odieresis" unicode="&#xd6;" horiz-adv-x="536" d="M367 667 Q401 667 430.5 656.5 Q460 646 481.5 625.5 Q503 605 515 575 Q527 545 527 506 Q527 486 524 465 L481 193 Q466 96 414.5 48 Q363 0 284 0 L201 0 Q167 0 138 10 Q109 20 87.5 40 Q66 60 54 89 Q42 118 42 157 Q42 176 45 197 L90 474 Q106 571 156 619 Q206 667 282 667 L367 667 Z M471 469 Q474 485 474 500 Q474 550 445.5 582 Q417 614 359 614 L285 614 Q225 614 189 576.5 Q153 539 143 478 L98 197 Q96 189 96 181 Q96 173 96 165 Q96 116 122 84.5 Q148 53 208 53 L279 53 Q350 53 383.5 90.5 Q417 128 427 189 L471 469 Z M427 701 Q415 701 408 709.5 Q401 718 401 729 Q401 748 412 758.5 Q423 769 436 769 Q448 769 457 762.5 Q466 756 466 741 Q466 724 453.5 712.5 Q441 701 427 701 Z M254 701 Q243 701 235 709.5 Q227 718 227 730 Q227 749 239 759 Q251 769 263 769 Q275 769 283.5 762.5 Q292 756 292 742 Q292 724 280 712.5 Q268 701 254 701 Z " />
<glyph glyph-name="macron" unicode="&#xaf;" horiz-adv-x="477" d="M190 536 Q179 536 171 542 Q163 548 163 559 Q163 576 174 582 Q185 588 199 588 L390 588 Q401 588 409.5 582 Q418 576 418 565 Q418 548 406 542 Q394 536 381 536 L190 536 Z " />
<glyph glyph-name="Scaron" unicode="&#x160;" horiz-adv-x="520" d="M45 0 Q40 0 35 3.5 Q30 7 30 18 Q30 38 39.5 45.5 Q49 53 53 53 L283 53 Q305 53 327.5 61 Q350 69 368.5 84.5 Q387 100 398.5 123 Q410 146 410 176 Q410 216 391 239.5 Q372 263 330 283 L199 343 Q175 354 154 366 Q133 378 117.5 394.5 Q102 411 93 434 Q84 457 84 490 Q84 532 98.5 564.5 Q113 597 138 619.5 Q163 642 197.5 654 Q232 666 273 666 L490 666 Q494 666 499.5 661 Q505 656 505 644 Q505 625 496 619 Q487 613 482 613 L264 613 Q241 613 219.5 605.5 Q198 598 181 583 Q164 568 154 546 Q144 524 144 496 Q144 458 159.5 437.5 Q175 417 211 401 L337 345 Q363 334 386.5 321 Q410 308 428 290 Q446 272 457 247.5 Q468 223 468 187 Q468 145 454 111 Q440 77 415 52 Q390 27 356.5 13.5 Q323 0 283 0 L45 0 Z M466 837 Q473 841 479 841 Q489 841 495.5 833.5 Q502 826 502 818 Q502 807 492 800 L356 701 Q346 694 338 694 L321 694 Q316 694 312.5 696.5 Q309 699 305 702 L199 801 Q194 805 194 813 Q194 824 202.5 833 Q211 842 222 842 Q229 842 233 838 L333 748 L466 837 Z " />
<glyph glyph-name="Zcaron" unicode="&#x17d;" horiz-adv-x="461" d="M14 0 Q0 1 -6 7.5 Q-12 14 -12 22 Q-12 32 -7 42 Q-2 52 3 59 L433 614 L112 614 Q90 614 90 632 Q90 650 98 658.5 Q106 667 120 667 L486 667 Q495 667 500 661.5 Q505 656 505 648 Q505 636 500 626 Q495 616 488 607 L60 53 L394 53 Q413 53 413 36 Q413 18 405.5 9 Q398 0 386 0 L14 0 Z M432 837 Q439 841 445 841 Q455 841 461.5 833.5 Q468 826 468 818 Q468 807 458 800 L322 701 Q312 694 304 694 L287 694 Q282 694 278.5 696.5 Q275 699 271 702 L165 801 Q160 805 160 813 Q160 824 168.5 833 Q177 842 188 842 Q195 842 199 838 L299 748 L432 837 Z " />
<glyph glyph-name="zcaron" unicode="&#x17e;" horiz-adv-x="408" d="M341 52 Q346 52 352.5 47.5 Q359 43 359 30 Q359 12 348.5 6 Q338 0 333 0 L23 0 Q12 0 4 6.5 Q-4 13 -4 23 Q-4 31 0 39 Q4 47 9 52 L331 407 L76 407 Q73 407 67 411.5 Q61 416 61 427 Q61 445 69.5 452 Q78 459 87 459 L391 459 Q402 459 409.5 452.5 Q417 446 417 436 Q417 418 403 407 L81 52 L341 52 Z M109 624 Q108 625 108 631 Q108 634 109.5 639 Q111 644 114.5 649 Q118 654 124 657.5 Q130 661 139 661 Q148 661 152 657 L244 565 L377 658 Q382 662 390 662 Q401 662 407 654.5 Q413 647 413 638 Q413 627 406 623 L265 514 Q260 510 256.5 508.5 Q253 507 248 507 L231 507 Q223 507 214 516 L109 624 Z " />
<glyph glyph-name="Ydieresis" unicode="&#x178;" horiz-adv-x="475" d="M256 344 L488 656 Q493 662 499 664.5 Q505 667 511 667 Q525 667 531.5 658.5 Q538 650 538 645 Q538 639 533 632 L279 289 L237 21 Q234 -5 204 -5 Q193 -5 187 1.5 Q181 8 181 17 L181 21 L223 289 L72 631 Q70 637 70 641 Q70 648 77.5 657.5 Q85 667 100 667 Q115 667 121 653 L256 344 Z M229 701 Q218 701 209.5 709.5 Q201 718 201 730 Q201 749 213 759 Q225 769 237 769 Q249 769 257.5 763 Q266 757 266 743 Q266 725 255 713 Q244 701 229 701 Z M402 701 Q390 701 382.5 709.5 Q375 718 375 730 Q375 748 386.5 758.5 Q398 769 410 769 Q422 769 431 763 Q440 757 440 743 Q440 725 428 713 Q416 701 402 701 Z " />
<glyph glyph-name="Agrave" unicode="&#xc0;" horiz-adv-x="532" d="M399 156 L114 156 L45 13 Q40 4 34 0.5 Q28 -3 20 -4 Q3 -4 -4 3 Q-11 10 -11 17 Q-11 21 -7 31 L288 638 Q297 656 303 661.5 Q309 667 323 667 L352 667 Q365 667 370 661.5 Q375 656 378 638 L479 31 Q480 28 480 23 Q480 16 473 6.5 Q466 -3 446 -3 Q438 -3 431.5 1 Q425 5 423 13 L399 156 Z M141 210 L391 210 L328 606 L141 210 Z M251 758 Q244 760 239 768 Q234 776 234 785 Q234 799 243 806 Q252 813 263 813 Q269 813 275 810 L380 744 Q388 740 393 734 Q398 728 398 721 Q398 711 392 707 Q386 703 380 703 Q375 703 370.5 704.5 Q366 706 362 708 L251 758 Z " />
<glyph glyph-name="Aacute" unicode="&#xc1;" horiz-adv-x="532" d="M399 156 L114 156 L45 13 Q40 4 34 0.5 Q28 -3 20 -4 Q3 -4 -4 3 Q-11 10 -11 17 Q-11 21 -7 31 L288 638 Q297 656 303 661.5 Q309 667 323 667 L352 667 Q365 667 370 661.5 Q375 656 378 638 L479 31 Q480 28 480 23 Q480 16 473 6.5 Q466 -3 446 -3 Q438 -3 431.5 1 Q425 5 423 13 L399 156 Z M141 210 L391 210 L328 606 L141 210 Z M327 706 Q323 705 320 704.5 Q317 704 313 704 Q308 704 301.5 707.5 Q295 711 295 722 Q295 730 300.5 735.5 Q306 741 313 744 L442 813 Q448 815 451 815 Q462 815 470.5 806 Q479 797 479 785 Q479 776 474 768 Q469 760 462 758 L327 706 Z " />
<glyph glyph-name="Acircumflex" unicode="&#xc2;" horiz-adv-x="532" d="M399 156 L114 156 L45 13 Q40 4 34 0.5 Q28 -3 20 -4 Q3 -4 -4 3 Q-11 10 -11 17 Q-11 21 -7 31 L288 638 Q297 656 303 661.5 Q309 667 323 667 L352 667 Q365 667 370 661.5 Q375 656 378 638 L479 31 Q480 28 480 23 Q480 16 473 6.5 Q466 -3 446 -3 Q438 -3 431.5 1 Q425 5 423 13 L399 156 Z M141 210 L391 210 L328 606 L141 210 Z M357 791 L226 700 Q221 696 213 696 Q203 696 196 704 Q189 712 189 721 Q189 731 198 737 L335 836 Q340 839 344.5 841.5 Q349 844 354 844 L371 844 Q379 844 386 837 L491 738 Q497 733 497 726 Q497 716 488 707.5 Q479 699 469 699 Q462 699 457 703 L357 791 Z " />
<glyph glyph-name="Atilde" unicode="&#xc3;" horiz-adv-x="532" d="M399 156 L114 156 L45 13 Q40 4 34 0.5 Q28 -3 20 -4 Q3 -4 -4 3 Q-11 10 -11 17 Q-11 21 -7 31 L288 638 Q297 656 303 661.5 Q309 667 323 667 L352 667 Q365 667 370 661.5 Q375 656 378 638 L479 31 Q480 28 480 23 Q480 16 473 6.5 Q466 -3 446 -3 Q438 -3 431.5 1 Q425 5 423 13 L399 156 Z M141 210 L391 210 L328 606 L141 210 Z M499 792 Q479 761 454.5 750 Q430 739 412 739 Q396 739 379.5 744.5 Q363 750 347 757 Q331 764 316 769.5 Q301 775 288 775 Q280 775 272 769.5 Q264 764 256.5 757.5 Q249 751 242.5 745.5 Q236 740 230 740 Q219 740 213.5 747.5 Q208 755 208 760 Q208 765 210 769 Q227 792 247.5 807 Q268 822 292 822 Q307 822 323.5 816 Q340 810 356.5 803.5 Q373 797 388.5 791 Q404 785 416 785 Q427 785 436 791 Q445 797 452.5 804.5 Q460 812 467 818 Q474 824 481 824 Q492 824 497.5 816.5 Q503 809 503 805 Q503 798 499 792 Z " />
<glyph glyph-name="AE" unicode="&#xc6;" horiz-adv-x="802" d="M425 0 Q400 0 400 22 L400 28 L415 203 L183 203 L76 13 Q71 4 64 0.5 Q57 -3 51 -4 Q37 -4 30 3 Q23 10 23 15 Q23 23 28 31 L367 638 Q377 656 384 661.5 Q391 667 405 667 L819 667 Q841 667 841 645 Q841 614 814 614 L504 614 L484 380 L750 380 Q771 380 771 360 Q771 341 765 334.5 Q759 328 745 328 L479 328 L455 53 L765 53 Q788 53 788 33 Q788 0 761 0 L425 0 Z M215 258 L420 258 L451 613 L407 613 L215 258 Z " />
<glyph glyph-name="Egrave" unicode="&#xc8;" horiz-adv-x="464" d="M52 0 Q37 0 32 6 Q27 12 29 28 L126 639 Q128 655 135 661 Q142 667 157 667 L493 667 Q518 667 514 639 Q510 614 485 614 L175 614 L138 380 L404 380 Q427 380 424 354 Q421 339 414 333.5 Q407 328 395 328 L129 328 L86 53 L396 53 Q421 53 417 28 Q413 0 388 0 L52 0 Z M247 758 Q240 760 235 768 Q230 776 230 785 Q230 799 239 806 Q248 813 259 813 Q265 813 271 810 L376 744 Q384 740 389 734 Q394 728 394 721 Q394 711 388 707 Q382 703 376 703 Q371 703 366.5 704.5 Q362 706 358 708 L247 758 Z " />
<glyph glyph-name="Ecircumflex" unicode="&#xca;" horiz-adv-x="464" d="M52 0 Q37 0 32 6 Q27 12 29 28 L126 639 Q128 655 135 661 Q142 667 157 667 L493 667 Q518 667 514 639 Q510 614 485 614 L175 614 L138 380 L404 380 Q427 380 424 354 Q421 339 414 333.5 Q407 328 395 328 L129 328 L86 53 L396 53 Q421 53 417 28 Q413 0 388 0 L52 0 Z M340 791 L209 700 Q204 696 196 696 Q186 696 179 704 Q172 712 172 721 Q172 731 181 737 L318 836 Q323 839 327.5 841.5 Q332 844 337 844 L354 844 Q362 844 369 837 L474 738 Q480 733 480 726 Q480 716 471 707.5 Q462 699 452 699 Q445 699 440 703 L340 791 Z " />
<glyph glyph-name="Edieresis" unicode="&#xcb;" horiz-adv-x="464" d="M52 0 Q37 0 32 6 Q27 12 29 28 L126 639 Q128 655 135 661 Q142 667 157 667 L493 667 Q518 667 514 639 Q510 614 485 614 L175 614 L138 380 L404 380 Q427 380 424 354 Q421 339 414 333.5 Q407 328 395 328 L129 328 L86 53 L396 53 Q421 53 417 28 Q413 0 388 0 L52 0 Z M404 701 Q392 701 384.5 709.5 Q377 718 377 730 Q377 748 388.5 758.5 Q400 769 412 769 Q424 769 433 763 Q442 757 442 743 Q442 725 430 713 Q418 701 404 701 Z M231 701 Q220 701 211.5 709.5 Q203 718 203 730 Q203 749 215 759 Q227 769 239 769 Q251 769 259.5 763 Q268 757 268 743 Q268 725 257 713 Q246 701 231 701 Z " />
<glyph glyph-name="Igrave" unicode="&#xcc;" horiz-adv-x="233" d="M81 -5 Q66 -5 61 1 Q56 7 58 23 L156 643 Q159 659 166 665 Q173 671 188 671 Q203 671 207.5 665.5 Q212 660 209 643 L111 23 Q109 6 102.5 0.5 Q96 -5 81 -5 Z M83 758 Q76 760 71 768 Q66 776 66 785 Q66 799 75 806 Q84 813 95 813 Q101 813 107 810 L212 744 Q220 740 225 734 Q230 728 230 721 Q230 711 224 707 Q218 703 212 703 Q207 703 202.5 704.5 Q198 706 194 708 L83 758 Z " />
<glyph glyph-name="Iacute" unicode="&#xcd;" horiz-adv-x="233" d="M81 -5 Q66 -5 61 1 Q56 7 58 23 L156 643 Q159 659 166 665 Q173 671 188 671 Q203 671 207.5 665.5 Q212 660 209 643 L111 23 Q109 6 102.5 0.5 Q96 -5 81 -5 Z M189 706 Q185 705 182 704.5 Q179 704 175 704 Q170 704 163.5 707.5 Q157 711 157 722 Q157 730 162.5 735.5 Q168 741 175 744 L304 813 Q310 815 313 815 Q324 815 332.5 806 Q341 797 341 785 Q341 776 336 768 Q331 760 324 758 L189 706 Z " />
<glyph glyph-name="Icircumflex" unicode="&#xce;" horiz-adv-x="233" d="M81 -5 Q66 -5 61 1 Q56 7 58 23 L156 643 Q159 659 166 665 Q173 671 188 671 Q203 671 207.5 665.5 Q212 660 209 643 L111 23 Q109 6 102.5 0.5 Q96 -5 81 -5 Z M212 791 L81 700 Q76 696 68 696 Q58 696 51 704 Q44 712 44 721 Q44 731 53 737 L190 836 Q195 839 199.5 841.5 Q204 844 209 844 L226 844 Q234 844 241 837 L346 738 Q352 733 352 726 Q352 716 343 707.5 Q334 699 324 699 Q317 699 312 703 L212 791 Z " />
<glyph glyph-name="Idieresis" unicode="&#xcf;" horiz-adv-x="233" d="M81 -5 Q66 -5 61 1 Q56 7 58 23 L156 643 Q159 659 166 665 Q173 671 188 671 Q203 671 207.5 665.5 Q212 660 209 643 L111 23 Q109 6 102.5 0.5 Q96 -5 81 -5 Z M277 701 Q265 701 257.5 709.5 Q250 718 250 730 Q250 748 261.5 758.5 Q273 769 285 769 Q297 769 306 763 Q315 757 315 743 Q315 725 303 713 Q291 701 277 701 Z M104 701 Q93 701 84.5 709.5 Q76 718 76 730 Q76 749 88 759 Q100 769 112 769 Q124 769 132.5 763 Q141 757 141 743 Q141 725 130 713 Q119 701 104 701 Z " />
<glyph glyph-name="Eth" unicode="&#xd0;" horiz-adv-x="566" d="M52 0 Q37 0 32 6 Q27 12 29 28 L75 320 L30 320 Q3 320 3 337 Q3 339 3.5 341 Q4 343 4 345 Q6 360 13.5 364.5 Q21 369 37 369 L83 369 L126 639 Q128 655 135 661 Q142 667 157 667 L418 667 Q504 667 538 623.5 Q572 580 557 482 L510 184 Q495 87 444.5 43.5 Q394 0 318 0 L52 0 Z M505 494 Q509 521 507 543.5 Q505 566 494.5 581.5 Q484 597 464 606 Q444 615 412 615 L175 615 L136 369 L294 369 Q308 369 316.5 365.5 Q325 362 325 351 Q325 332 314.5 326 Q304 320 287 320 L128 320 L86 53 L308 53 Q345 53 371 63 Q397 73 414.5 91 Q432 109 442 134 Q452 159 457 189 L505 494 Z " />
<glyph glyph-name="Ograve" unicode="&#xd2;" horiz-adv-x="536" d="M367 667 Q401 667 430.5 656.5 Q460 646 481.5 625.5 Q503 605 515 575 Q527 545 527 506 Q527 486 524 465 L481 193 Q466 96 414.5 48 Q363 0 284 0 L201 0 Q167 0 138 10 Q109 20 87.5 40 Q66 60 54 89 Q42 118 42 157 Q42 176 45 197 L90 474 Q106 571 156 619 Q206 667 282 667 L367 667 Z M471 469 Q474 485 474 500 Q474 550 445.5 582 Q417 614 359 614 L285 614 Q225 614 189 576.5 Q153 539 143 478 L98 197 Q96 189 96 181 Q96 173 96 165 Q96 116 122 84.5 Q148 53 208 53 L279 53 Q350 53 383.5 90.5 Q417 128 427 189 L471 469 Z M256 758 Q249 760 244 768 Q239 776 239 785 Q239 799 248 806 Q257 813 268 813 Q274 813 280 810 L385 744 Q393 740 398 734 Q403 728 403 721 Q403 711 397 707 Q391 703 385 703 Q380 703 375.5 704.5 Q371 706 367 708 L256 758 Z " />
<glyph glyph-name="Oacute" unicode="&#xd3;" horiz-adv-x="536" d="M367 667 Q401 667 430.5 656.5 Q460 646 481.5 625.5 Q503 605 515 575 Q527 545 527 506 Q527 486 524 465 L481 193 Q466 96 414.5 48 Q363 0 284 0 L201 0 Q167 0 138 10 Q109 20 87.5 40 Q66 60 54 89 Q42 118 42 157 Q42 176 45 197 L90 474 Q106 571 156 619 Q206 667 282 667 L367 667 Z M471 469 Q474 485 474 500 Q474 550 445.5 582 Q417 614 359 614 L285 614 Q225 614 189 576.5 Q153 539 143 478 L98 197 Q96 189 96 181 Q96 173 96 165 Q96 116 122 84.5 Q148 53 208 53 L279 53 Q350 53 383.5 90.5 Q417 128 427 189 L471 469 Z M310 706 Q306 705 303 704.5 Q300 704 296 704 Q291 704 284.5 707.5 Q278 711 278 722 Q278 730 283.5 735.5 Q289 741 296 744 L425 813 Q431 815 434 815 Q445 815 453.5 806 Q462 797 462 785 Q462 776 457 768 Q452 760 445 758 L310 706 Z " />
<glyph glyph-name="Ocircumflex" unicode="&#xd4;" horiz-adv-x="536" d="M367 667 Q401 667 430.5 656.5 Q460 646 481.5 625.5 Q503 605 515 575 Q527 545 527 506 Q527 486 524 465 L481 193 Q466 96 414.5 48 Q363 0 284 0 L201 0 Q167 0 138 10 Q109 20 87.5 40 Q66 60 54 89 Q42 118 42 157 Q42 176 45 197 L90 474 Q106 571 156 619 Q206 667 282 667 L367 667 Z M471 469 Q474 485 474 500 Q474 550 445.5 582 Q417 614 359 614 L285 614 Q225 614 189 576.5 Q153 539 143 478 L98 197 Q96 189 96 181 Q96 173 96 165 Q96 116 122 84.5 Q148 53 208 53 L279 53 Q350 53 383.5 90.5 Q417 128 427 189 L471 469 Z M363 791 L232 700 Q227 696 219 696 Q209 696 202 704 Q195 712 195 721 Q195 731 204 737 L341 836 Q346 839 350.5 841.5 Q355 844 360 844 L377 844 Q385 844 392 837 L497 738 Q503 733 503 726 Q503 716 494 707.5 Q485 699 475 699 Q468 699 463 703 L363 791 Z " />
<glyph glyph-name="Otilde" unicode="&#xd5;" horiz-adv-x="536" d="M367 667 Q401 667 430.5 656.5 Q460 646 481.5 625.5 Q503 605 515 575 Q527 545 527 506 Q527 486 524 465 L481 193 Q466 96 414.5 48 Q363 0 284 0 L201 0 Q167 0 138 10 Q109 20 87.5 40 Q66 60 54 89 Q42 118 42 157 Q42 176 45 197 L90 474 Q106 571 156 619 Q206 667 282 667 L367 667 Z M471 469 Q474 485 474 500 Q474 550 445.5 582 Q417 614 359 614 L285 614 Q225 614 189 576.5 Q153 539 143 478 L98 197 Q96 189 96 181 Q96 173 96 165 Q96 116 122 84.5 Q148 53 208 53 L279 53 Q350 53 383.5 90.5 Q417 128 427 189 L471 469 Z M491 776 Q471 745 446.5 734 Q422 723 404 723 Q388 723 371.5 728.5 Q355 734 339 741 Q323 748 308 753.5 Q293 759 280 759 Q272 759 264 753.5 Q256 748 248.5 741.5 Q241 735 234.5 729.5 Q228 724 222 724 Q211 724 205.5 731.5 Q200 739 200 744 Q200 749 202 753 Q219 776 239.5 791 Q260 806 284 806 Q299 806 315.5 800 Q332 794 348.5 787.5 Q365 781 380.5 775 Q396 769 408 769 Q419 769 428 775 Q437 781 444.5 788.5 Q452 796 459 802 Q466 808 473 808 Q484 808 489.5 800.5 Q495 793 495 789 Q495 782 491 776 Z " />
<glyph glyph-name="multiply" unicode="&#xd7;" horiz-adv-x="460" d="M222 296 L94 186 Q79 174 70 174 Q61 174 52 184 Q43 194 43 202 Q43 212 59 225 L186 336 L104 435 Q95 445 95 456 Q95 465 105.5 476 Q116 487 127 487 Q138 487 149 474 L231 375 L355 483 Q369 496 380 496 Q391 496 399.5 485.5 Q408 475 408 467 Q408 457 395 445 L267 335 L349 235 Q354 230 357 224 Q360 218 360 212 Q360 203 350 192.5 Q340 182 329 182 Q318 182 306 197 L222 296 Z " />
<glyph glyph-name="Oslash" unicode="&#xd8;" horiz-adv-x="536" d="M367 667 Q437 667 480 626 L513 668 Q517 675 527 675 Q537 675 542.5 670 Q548 665 548 659 Q548 655 543 647 L504 596 Q527 559 527 505 Q527 486 524 465 L481 193 Q466 96 414.5 48 Q363 0 284 0 L201 0 Q165 0 134.5 11 Q104 22 82 44 L51 3 Q45 -6 36 -6 Q28 -6 22 -1 Q16 4 16 13 Q16 20 20 25 L59 76 Q42 110 42 155 Q42 176 45 197 L90 474 Q106 571 156 619 Q206 667 282 667 L367 667 Z M471 469 Q473 477 473 484.5 Q473 492 473 500 Q473 526 466 546 L117 90 Q131 73 153.5 63 Q176 53 208 53 L279 53 Q350 53 383.5 90.5 Q417 128 427 189 L471 469 Z M98 197 Q95 179 95 163 Q95 144 99 129 L446 581 Q432 596 410 605 Q388 614 359 614 L285 614 Q225 614 189 576.5 Q153 539 143 478 L98 197 Z " />
<glyph glyph-name="Ugrave" unicode="&#xd9;" horiz-adv-x="546" d="M486 193 Q456 0 292 0 L194 0 Q126 0 86 36.5 Q46 73 46 147 Q46 158 47 169.5 Q48 181 50 193 L121 640 Q124 659 134.5 663 Q145 667 152 667 Q157 667 167 663 Q177 659 174 640 L102 189 Q99 169 99 152 Q99 107 123 80 Q147 53 202 53 L294 53 Q357 53 389.5 90.5 Q422 128 432 189 L504 640 Q507 660 517.5 663.5 Q528 667 534 667 Q540 667 550 663 Q560 659 557 640 L486 193 Z M258 758 Q251 760 246 768 Q241 776 241 785 Q241 799 250 806 Q259 813 270 813 Q276 813 282 810 L387 744 Q395 740 400 734 Q405 728 405 721 Q405 711 399 707 Q393 703 387 703 Q382 703 377.5 704.5 Q373 706 369 708 L258 758 Z " />
<glyph glyph-name="Uacute" unicode="&#xda;" horiz-adv-x="546" d="M486 193 Q456 0 292 0 L194 0 Q126 0 86 36.5 Q46 73 46 147 Q46 158 47 169.5 Q48 181 50 193 L121 640 Q124 659 134.5 663 Q145 667 152 667 Q157 667 167 663 Q177 659 174 640 L102 189 Q99 169 99 152 Q99 107 123 80 Q147 53 202 53 L294 53 Q357 53 389.5 90.5 Q422 128 432 189 L504 640 Q507 660 517.5 663.5 Q528 667 534 667 Q540 667 550 663 Q560 659 557 640 L486 193 Z M315 706 Q311 705 308 704.5 Q305 704 301 704 Q296 704 289.5 707.5 Q283 711 283 722 Q283 730 288.5 735.5 Q294 741 301 744 L430 813 Q436 815 439 815 Q450 815 458.5 806 Q467 797 467 785 Q467 776 462 768 Q457 760 450 758 L315 706 Z " />
<glyph glyph-name="Ucircumflex" unicode="&#xdb;" horiz-adv-x="546" d="M486 193 Q456 0 292 0 L194 0 Q126 0 86 36.5 Q46 73 46 147 Q46 158 47 169.5 Q48 181 50 193 L121 640 Q124 659 134.5 663 Q145 667 152 667 Q157 667 167 663 Q177 659 174 640 L102 189 Q99 169 99 152 Q99 107 123 80 Q147 53 202 53 L294 53 Q357 53 389.5 90.5 Q422 128 432 189 L504 640 Q507 660 517.5 663.5 Q528 667 534 667 Q540 667 550 663 Q560 659 557 640 L486 193 Z M361 791 L230 700 Q225 696 217 696 Q207 696 200 704 Q193 712 193 721 Q193 731 202 737 L339 836 Q344 839 348.5 841.5 Q353 844 358 844 L375 844 Q383 844 390 837 L495 738 Q501 733 501 726 Q501 716 492 707.5 Q483 699 473 699 Q466 699 461 703 L361 791 Z " />
<glyph glyph-name="Yacute" unicode="&#xdd;" horiz-adv-x="475" d="M256 344 L488 656 Q493 662 499 664.5 Q505 667 511 667 Q525 667 531.5 658.5 Q538 650 538 645 Q538 639 533 632 L279 289 L237 21 Q234 -5 204 -5 Q193 -5 187 1.5 Q181 8 181 17 L181 21 L223 289 L72 631 Q70 637 70 641 Q70 648 77.5 657.5 Q85 667 100 667 Q115 667 121 653 L256 344 Z M282 706 Q278 705 275 704.5 Q272 704 268 704 Q263 704 256.5 707.5 Q250 711 250 722 Q250 730 255.5 735.5 Q261 741 268 744 L397 813 Q403 815 406 815 Q417 815 425.5 806 Q434 797 434 785 Q434 776 429 768 Q424 760 417 758 L282 706 Z " />
<glyph glyph-name="Thorn" unicode="&#xde;" horiz-adv-x="528" d="M126 644 Q128 660 135.5 666 Q143 672 157 672 Q169 672 174.5 669 Q180 666 180 656 Q180 649 179 644 L162 535 L350 535 Q431 535 470 489 Q509 443 509 369 Q509 317 494 275.5 Q479 234 450.5 204.5 Q422 175 382 159 Q342 143 293 143 L100 143 L81 23 Q78 6 72 0.5 Q66 -5 50 -5 Q27 -5 27 13 Q27 15 27.5 17.5 Q28 20 28 23 L126 644 Z M154 482 L109 197 L309 197 Q348 197 375.5 212 Q403 227 420.5 251 Q438 275 446 305 Q454 335 454 365 Q454 422 425.5 452 Q397 482 352 482 L154 482 Z " />
<glyph glyph-name="aacute" unicode="&#xe1;" horiz-adv-x="477" d="M239 463 Q281 463 323 450 Q365 437 402 416 Q405 431 414.5 446 Q424 461 447 461 Q460 461 460 454 Q460 450 459 447 L390 8 Q389 1 387 -0.5 Q385 -2 379 -2 Q359 -2 351.5 13 Q344 28 344 43 L344 51 Q306 28 262.5 14 Q219 0 181 0 Q106 0 71.5 31.5 Q37 63 37 126 Q37 137 38 148.5 Q39 160 41 173 L59 290 Q72 372 117 417.5 Q162 463 239 463 Z M94 173 Q91 153 91 137 Q91 92 115 72 Q139 52 188 52 Q223 52 265.5 66.5 Q308 81 352 104 L394 365 Q366 385 322.5 396.5 Q279 408 242 408 Q189 408 156.5 380.5 Q124 353 113 290 L94 173 Z M272 537 Q264 527 251 527 Q242 527 236.5 533 Q231 539 231 545 Q231 550 233 554 Q235 558 237 562 L325 689 Q331 698 345 698 Q359 698 368 687.5 Q377 677 377 665 Q377 656 373 652 L272 537 Z " />
<glyph glyph-name="atilde" unicode="&#xe3;" horiz-adv-x="477" d="M239 463 Q281 463 323 450 Q365 437 402 416 Q405 431 414.5 446 Q424 461 447 461 Q460 461 460 454 Q460 450 459 447 L390 8 Q389 1 387 -0.5 Q385 -2 379 -2 Q359 -2 351.5 13 Q344 28 344 43 L344 51 Q306 28 262.5 14 Q219 0 181 0 Q106 0 71.5 31.5 Q37 63 37 126 Q37 137 38 148.5 Q39 160 41 173 L59 290 Q72 372 117 417.5 Q162 463 239 463 Z M94 173 Q91 153 91 137 Q91 92 115 72 Q139 52 188 52 Q223 52 265.5 66.5 Q308 81 352 104 L394 365 Q366 385 322.5 396.5 Q279 408 242 408 Q189 408 156.5 380.5 Q124 353 113 290 L94 173 Z M455 596 Q435 565 410.5 554 Q386 543 368 543 Q352 543 335.5 548.5 Q319 554 303 561 Q287 568 272 573.5 Q257 579 244 579 Q236 579 228 573.5 Q220 568 212.5 561.5 Q205 555 198.5 549.5 Q192 544 186 544 Q175 544 169.5 551.5 Q164 559 164 564 Q164 569 166 573 Q183 596 203.5 611 Q224 626 248 626 Q263 626 279.5 620 Q296 614 312.5 607.5 Q329 601 344.5 595 Q360 589 372 589 Q383 589 392 595 Q401 601 408.5 608.5 Q416 616 423 622 Q430 628 437 628 Q448 628 453.5 620.5 Q459 613 459 609 Q459 602 455 596 Z " />
<glyph glyph-name="aring" unicode="&#xe5;" horiz-adv-x="477" d="M239 463 Q281 463 323 450 Q365 437 402 416 Q405 431 414.5 446 Q424 461 447 461 Q460 461 460 454 Q460 450 459 447 L390 8 Q389 1 387 -0.5 Q385 -2 379 -2 Q359 -2 351.5 13 Q344 28 344 43 L344 51 Q306 28 262.5 14 Q219 0 181 0 Q106 0 71.5 31.5 Q37 63 37 126 Q37 137 38 148.5 Q39 160 41 173 L59 290 Q72 372 117 417.5 Q162 463 239 463 Z M94 173 Q91 153 91 137 Q91 92 115 72 Q139 52 188 52 Q223 52 265.5 66.5 Q308 81 352 104 L394 365 Q366 385 322.5 396.5 Q279 408 242 408 Q189 408 156.5 380.5 Q124 353 113 290 L94 173 Z M287 502 Q261 502 240.5 519.5 Q220 537 220 569 Q220 591 228.5 608 Q237 625 250 635.5 Q263 646 279 651.5 Q295 657 310 657 Q335 657 356 640 Q377 623 377 591 Q377 568 368.5 551 Q360 534 346.5 523 Q333 512 317.5 507 Q302 502 287 502 Z M292 534 Q310 534 327.5 546.5 Q345 559 345 588 Q345 607 333.5 616.5 Q322 626 307 626 Q287 626 269.5 613 Q252 600 252 571 Q252 552 264 543 Q276 534 292 534 Z " />
<glyph glyph-name="ae" unicode="&#xe6;" horiz-adv-x="778" d="M638 459 Q701 459 735.5 428 Q770 397 770 340 Q770 319 762 293.5 Q754 268 730 246 Q706 224 663 209.5 Q620 195 550 195 Q524 195 493.5 197.5 Q463 200 428 205 L423 169 Q422 162 421.5 155.5 Q421 149 421 142 Q421 101 443 76.5 Q465 52 516 52 L669 52 Q676 52 682.5 46 Q689 40 689 29 Q689 11 679 5.5 Q669 0 663 0 L514 0 Q463 0 429.5 19 Q396 38 381 70 Q352 35 313 17.5 Q274 0 229 0 L123 0 Q80 0 52 27.5 Q24 55 24 109 Q24 139 34 169 Q44 199 66 223 Q88 247 124 261.5 Q160 276 211 276 Q234 276 253.5 275 Q273 274 292.5 271.5 Q312 269 334 265.5 Q356 262 383 258 L389 290 Q392 306 392 320 Q392 406 292 406 L161 406 Q156 406 150.5 409.5 Q145 413 145 424 Q145 443 154.5 450.5 Q164 458 169 458 L301 458 Q397 458 431 395 Q457 427 495 443 Q533 459 581 459 L638 459 Z M377 212 Q351 216 330 218.5 Q309 221 289.5 222.5 Q270 224 249.5 225 Q229 226 203 226 Q171 226 147.5 217.5 Q124 209 108.5 194 Q93 179 85.5 160 Q78 141 78 120 Q78 92 92.5 72.5 Q107 53 140 53 L236 53 Q257 53 278.5 59 Q300 65 318.5 78.5 Q337 92 350.5 113.5 Q364 135 369 165 L377 212 Z M572 410 Q548 410 526 403 Q504 396 486.5 381.5 Q469 367 456.5 344.5 Q444 322 440 291 L435 252 Q471 247 501 244.5 Q531 242 556 242 Q612 242 644.5 252.5 Q677 263 693 278 Q709 293 713 309.5 Q717 326 717 339 Q717 370 693.5 390 Q670 410 630 410 L572 410 Z " />
<glyph glyph-name="igrave" unicode="&#xec;" horiz-adv-x="211" d="M116 439 Q117 444 122 454 Q127 464 141 464 Q157 464 163.5 455 Q170 446 168 437 L100 7 Q99 1 97 -0.5 Q95 -2 90 -2 Q67 -2 59 16.5 Q51 35 54 54 L116 439 Z M69 662 Q64 668 67 680 Q70 692 81 698 Q92 706 104.5 703.5 Q117 701 122 691 L190 553 Q193 545 194 536.5 Q195 528 184 522 Q174 517 165.5 521 Q157 525 152 533 L69 662 Z " />
<glyph glyph-name="iacute" unicode="&#xed;" horiz-adv-x="211" d="M116 439 Q117 444 122 454 Q127 464 141 464 Q157 464 163.5 455 Q170 446 168 437 L100 7 Q99 1 97 -0.5 Q95 -2 90 -2 Q67 -2 59 16.5 Q51 35 54 54 L116 439 Z M164 537 Q156 527 143 527 Q134 527 128.5 533 Q123 539 123 545 Q123 550 125 554 Q127 558 129 562 L217 689 Q223 698 237 698 Q251 698 260 687.5 Q269 677 269 665 Q269 656 265 652 L164 537 Z " />
<glyph glyph-name="eth" unicode="&#xf0;" horiz-adv-x="460" d="M378 284 Q380 291 380 297.5 Q380 304 380 310 Q380 361 349 386 Q318 411 270 411 L233 411 Q189 411 151.5 381 Q114 351 104 289 L87 176 Q86 168 85.5 161 Q85 154 85 147 Q85 99 113.5 75 Q142 51 193 51 L225 51 Q276 51 313.5 77.5 Q351 104 361 167 L378 284 Z M274 459 Q322 459 354 444.5 Q386 430 400 404 L407 459 Q409 467 409 475 Q409 483 409 491 Q409 521 402.5 542.5 Q396 564 385 574 L296 516 Q285 509 279 509 Q271 509 265.5 517 Q260 525 260 533 Q260 545 274 554 L353 605 Q333 619 302.5 626.5 Q272 634 221 636 Q215 637 207 640.5 Q199 644 199 655 Q199 673 206.5 679.5 Q214 686 222 686 Q289 684 334 670.5 Q379 657 402 636 L454 671 Q464 678 472 678 Q480 678 485.5 670 Q491 662 491 654 Q491 643 476 633 L430 603 Q439 591 448 567.5 Q457 544 457 496 Q457 457 448 396 L415 180 Q401 92 353 46 Q305 0 226 0 L183 0 Q111 0 71 36.5 Q31 73 31 139 Q31 156 34 176 L51 289 Q64 371 113.5 415 Q163 459 244 459 L274 459 Z " />
<glyph glyph-name="ntilde" unicode="&#xf1;" horiz-adv-x="478" d="M77 21 Q75 13 69.5 4.5 Q64 -4 50 -4 Q36 -4 30 3.5 Q24 11 24 19 L24 23 L93 449 Q95 457 97 459 Q99 461 105 461 Q125 461 132.5 447.5 Q140 434 140 420 Q140 414 139 411 Q176 431 220.5 446 Q265 461 303 461 Q378 461 412.5 430 Q447 399 447 337 Q447 312 443 289 L398 7 Q397 1 395 -0.5 Q393 -2 388 -2 Q368 -2 359.5 12 Q351 26 351 43 Q351 46 351.5 49 Q352 52 352 54 L390 289 Q393 307 393 322 Q393 368 367 388.5 Q341 409 296 409 Q261 409 218.5 395 Q176 381 132 358 L77 21 Z M444 596 Q424 565 399.5 554 Q375 543 357 543 Q341 543 324.5 548.5 Q308 554 292 561 Q276 568 261 573.5 Q246 579 233 579 Q225 579 217 573.5 Q209 568 201.5 561.5 Q194 555 187.5 549.5 Q181 544 175 544 Q164 544 158.5 551.5 Q153 559 153 564 Q153 569 155 573 Q172 596 192.5 611 Q213 626 237 626 Q252 626 268.5 620 Q285 614 301.5 607.5 Q318 601 333.5 595 Q349 589 361 589 Q372 589 381 595 Q390 601 397.5 608.5 Q405 616 412 622 Q419 628 426 628 Q437 628 442.5 620.5 Q448 613 448 609 Q448 602 444 596 Z " />
<glyph glyph-name="ograve" unicode="&#xf2;" horiz-adv-x="460" d="M183 0 Q111 0 71 36.5 Q31 73 31 139 Q31 156 34 176 L51 289 Q64 371 113.5 415 Q163 459 244 459 L280 459 Q347 459 390.5 423 Q434 387 434 318 Q434 302 431 284 L414 167 Q402 86 353 43 Q304 0 226 0 L183 0 Z M378 284 Q380 291 380 297.5 Q380 304 380 310 Q380 361 349 384.5 Q318 408 270 408 L233 408 Q189 408 151.5 379.5 Q114 351 104 289 L87 176 Q86 168 85.5 161 Q85 154 85 147 Q85 99 113.5 75 Q142 51 193 51 L225 51 Q275 51 313.5 78 Q352 105 361 167 L378 284 Z M203 662 Q198 668 201 680 Q204 692 215 698 Q226 706 238.5 703.5 Q251 701 256 691 L324 553 Q327 545 328 536.5 Q329 528 318 522 Q308 517 299.5 521 Q291 525 286 533 L203 662 Z " />
<glyph glyph-name="oacute" unicode="&#xf3;" horiz-adv-x="460" d="M183 0 Q111 0 71 36.5 Q31 73 31 139 Q31 156 34 176 L51 289 Q64 371 113.5 415 Q163 459 244 459 L280 459 Q347 459 390.5 423 Q434 387 434 318 Q434 302 431 284 L414 167 Q402 86 353 43 Q304 0 226 0 L183 0 Z M378 284 Q380 291 380 297.5 Q380 304 380 310 Q380 361 349 384.5 Q318 408 270 408 L233 408 Q189 408 151.5 379.5 Q114 351 104 289 L87 176 Q86 168 85.5 161 Q85 154 85 147 Q85 99 113.5 75 Q142 51 193 51 L225 51 Q275 51 313.5 78 Q352 105 361 167 L378 284 Z M272 537 Q264 527 251 527 Q242 527 236.5 533 Q231 539 231 545 Q231 550 233 554 Q235 558 237 562 L325 689 Q331 698 345 698 Q359 698 368 687.5 Q377 677 377 665 Q377 656 373 652 L272 537 Z " />
<glyph glyph-name="divide" unicode="&#xf7;" horiz-adv-x="460" d="M50 306 Q27 306 27 322 Q27 344 34.5 352.5 Q42 361 59 361 L408 361 Q432 361 432 342 Q432 321 424 313.5 Q416 306 399 306 L50 306 Z M198 141 Q183 141 173 152 Q163 163 163 178 Q163 202 178 215.5 Q193 229 209 229 Q225 229 236 221 Q247 213 247 195 Q247 172 232 156.5 Q217 141 198 141 Z M247 437 Q232 437 221.5 448 Q211 459 211 475 Q211 498 226.5 511.5 Q242 525 259 525 Q274 525 284.5 517 Q295 509 295 491 Q295 468 281 452.5 Q267 437 247 437 Z " />
<glyph glyph-name="oslash" unicode="&#xf8;" horiz-adv-x="460" d="M183 0 Q109 0 68 39 L42 14 Q32 4 26 4 Q21 4 13.5 11.5 Q6 19 6 24 Q6 30 17 39 L47 68 Q39 83 35 100.5 Q31 118 31 139 Q31 156 34 176 L51 289 Q64 371 113.5 415 Q163 459 244 459 L280 459 Q357 459 400 413 L434 446 Q444 456 450 456 Q455 456 462 449 Q469 442 469 436 Q469 429 460 420 L420 381 Q434 353 434 316 Q434 300 431 284 L414 167 Q402 86 353 43 Q304 0 226 0 L183 0 Z M233 408 Q189 408 151.5 379.5 Q114 351 104 289 L87 176 Q86 168 85.5 161 Q85 154 85 147 Q85 128 90 110 L359 373 Q345 390 322 399 Q299 408 270 408 L233 408 Z M378 284 Q379 290 379.5 296 Q380 302 380 308 Q380 326 376 339 L109 79 Q136 51 193 51 L225 51 Q275 51 313.5 78 Q352 105 361 167 L378 284 Z " />
<glyph glyph-name="uacute" unicode="&#xfa;" horiz-adv-x="469" d="M401 437 Q403 445 408 453.5 Q413 462 427 462 Q442 462 448 454.5 Q454 447 454 439 L454 435 L385 9 Q383 1 381 -1 Q379 -3 373 -3 Q353 -3 345.5 10.5 Q338 24 338 38 Q338 40 338.5 42.5 Q339 45 339 47 Q302 27 257.5 12 Q213 -3 175 -3 Q100 -3 65.5 28.5 Q31 60 31 122 Q31 133 32 144.5 Q33 156 35 169 L80 451 Q81 457 83 458.5 Q85 460 90 460 Q110 460 118.5 446 Q127 432 127 415 Q127 408 126 404 L88 169 Q85 151 85 137 Q85 90 111 69.5 Q137 49 182 49 Q217 49 259.5 63 Q302 77 346 100 L401 437 Z M291 537 Q283 527 270 527 Q261 527 255.5 533 Q250 539 250 545 Q250 550 252 554 Q254 558 256 562 L344 689 Q350 698 364 698 Q378 698 387 687.5 Q396 677 396 665 Q396 656 392 652 L291 537 Z " />
<glyph glyph-name="yacute" unicode="&#xfd;" horiz-adv-x="409" d="M320 337 Q329 356 333.5 368.5 Q338 381 340 391.5 Q342 402 342.5 411.5 Q343 421 343 434 Q343 440 348.5 451.5 Q354 463 372 463 Q390 463 395.5 453 Q401 443 401 434 Q401 415 399.5 401.5 Q398 388 395 375.5 Q392 363 386 350 Q380 337 371 319 L105 -197 Q103 -202 97.5 -208.5 Q92 -215 81 -215 Q67 -215 60 -206 Q53 -197 53 -190 Q53 -184 56 -179 L149 0 L137 0 Q115 0 109 29 L37 429 Q37 431 36.5 432.5 Q36 434 36 436 Q36 446 43.5 454.5 Q51 463 66 463 Q75 463 81.5 458 Q88 453 90 443 L164 31 L320 337 Z M252 537 Q244 527 231 527 Q222 527 216.5 533 Q211 539 211 545 Q211 550 213 554 Q215 558 217 562 L305 689 Q311 698 325 698 Q339 698 348 687.5 Q357 677 357 665 Q357 656 353 652 L252 537 Z " />
<glyph glyph-name="thorn" unicode="&#xfe;" horiz-adv-x="479" d="M75 0 L43 -191 Q42 -196 36.5 -206 Q31 -216 17 -216 Q3 -216 -3 -208.5 Q-9 -201 -9 -193 L-9 -189 L133 696 L143 696 Q163 696 170.5 682.5 Q178 669 178 655 Q178 650 177 647 L140 411 Q177 431 221.5 446 Q266 461 304 461 Q379 461 413.5 430 Q448 399 448 337 Q448 312 444 289 L424 169 Q410 84 362.5 42 Q315 0 245 0 L75 0 Z M83 52 L244 52 Q289 52 324.5 79 Q360 106 371 169 L391 289 Q394 305 394 320 Q394 368 368.5 388.5 Q343 409 297 409 Q262 409 219.5 395 Q177 381 133 358 L83 52 Z " />
<glyph glyph-name="ydieresis" unicode="&#xff;" horiz-adv-x="409" d="M320 337 Q329 356 333.5 368.5 Q338 381 340 391.5 Q342 402 342.5 411.5 Q343 421 343 434 Q343 440 348.5 451.5 Q354 463 372 463 Q390 463 395.5 453 Q401 443 401 434 Q401 415 399.5 401.5 Q398 388 395 375.5 Q392 363 386 350 Q380 337 371 319 L105 -197 Q103 -202 97.5 -208.5 Q92 -215 81 -215 Q67 -215 60 -206 Q53 -197 53 -190 Q53 -184 56 -179 L149 0 L137 0 Q115 0 109 29 L37 429 Q37 431 36.5 432.5 Q36 434 36 436 Q36 446 43.5 454.5 Q51 463 66 463 Q75 463 81.5 458 Q88 453 90 443 L164 31 L320 337 Z M312 547 Q300 547 293 555.5 Q286 564 286 575 Q286 594 297 604.5 Q308 615 321 615 Q333 615 342 608.5 Q351 602 351 587 Q351 570 338.5 558.5 Q326 547 312 547 Z M139 547 Q128 547 120 555.5 Q112 564 112 576 Q112 595 124 605 Q136 615 148 615 Q160 615 168.5 608.5 Q177 602 177 588 Q177 570 165 558.5 Q153 547 139 547 Z " />
<glyph glyph-name="Amacron" unicode="&#x100;" horiz-adv-x="532" d="M399 156 L114 156 L45 13 Q40 4 34 0.5 Q28 -3 20 -4 Q3 -4 -4 3 Q-11 10 -11 17 Q-11 21 -7 31 L288 638 Q297 656 303 661.5 Q309 667 323 667 L352 667 Q365 667 370 661.5 Q375 656 378 638 L479 31 Q480 28 480 23 Q480 16 473 6.5 Q466 -3 446 -3 Q438 -3 431.5 1 Q425 5 423 13 L399 156 Z M141 210 L391 210 L328 606 L141 210 Z M250 720 Q239 720 230.5 725.5 Q222 731 222 742 Q222 761 233 766.5 Q244 772 258 772 L449 772 Q460 772 468.5 766.5 Q477 761 477 750 Q477 730 465.5 725 Q454 720 441 720 L250 720 Z " />
<glyph glyph-name="amacron" unicode="&#x101;" horiz-adv-x="477" d="M239 463 Q281 463 323 450 Q365 437 402 416 Q405 431 414.5 446 Q424 461 447 461 Q460 461 460 454 Q460 450 459 447 L390 8 Q389 1 387 -0.5 Q385 -2 379 -2 Q359 -2 351.5 13 Q344 28 344 43 L344 51 Q306 28 262.5 14 Q219 0 181 0 Q106 0 71.5 31.5 Q37 63 37 126 Q37 137 38 148.5 Q39 160 41 173 L59 290 Q72 372 117 417.5 Q162 463 239 463 Z M94 173 Q91 153 91 137 Q91 92 115 72 Q139 52 188 52 Q223 52 265.5 66.5 Q308 81 352 104 L394 365 Q366 385 322.5 396.5 Q279 408 242 408 Q189 408 156.5 380.5 Q124 353 113 290 L94 173 Z M190 536 Q179 536 171 542 Q163 548 163 559 Q163 576 174 582 Q185 588 199 588 L390 588 Q401 588 409.5 582 Q418 576 418 565 Q418 548 406 542 Q394 536 381 536 L190 536 Z " />
<glyph glyph-name="Abreve" unicode="&#x102;" horiz-adv-x="532" d="M399 156 L114 156 L45 13 Q40 4 34 0.5 Q28 -3 20 -4 Q3 -4 -4 3 Q-11 10 -11 17 Q-11 21 -7 31 L288 638 Q297 656 303 661.5 Q309 667 323 667 L352 667 Q365 667 370 661.5 Q375 656 378 638 L479 31 Q480 28 480 23 Q480 16 473 6.5 Q466 -3 446 -3 Q438 -3 431.5 1 Q425 5 423 13 L399 156 Z M141 210 L391 210 L328 606 L141 210 Z M346 747 Q379 747 411 770 Q443 793 469 831 Q478 841 489 841 Q498 841 504.5 835 Q511 829 511 821 Q511 818 509 814 Q492 779 470.5 756.5 Q449 734 426.5 720.5 Q404 707 382 701.5 Q360 696 342 696 Q323 696 302.5 702 Q282 708 264 722 Q246 736 232 758.5 Q218 781 211 814 L211 817 Q211 825 218.5 832.5 Q226 840 239 840 Q245 840 250 838 Q255 836 257 831 Q268 793 290.5 770 Q313 747 346 747 Z " />
<glyph glyph-name="abreve" unicode="&#x103;" horiz-adv-x="477" d="M239 463 Q281 463 323 450 Q365 437 402 416 Q405 431 414.5 446 Q424 461 447 461 Q460 461 460 454 Q460 450 459 447 L390 8 Q389 1 387 -0.5 Q385 -2 379 -2 Q359 -2 351.5 13 Q344 28 344 43 L344 51 Q306 28 262.5 14 Q219 0 181 0 Q106 0 71.5 31.5 Q37 63 37 126 Q37 137 38 148.5 Q39 160 41 173 L59 290 Q72 372 117 417.5 Q162 463 239 463 Z M94 173 Q91 153 91 137 Q91 92 115 72 Q139 52 188 52 Q223 52 265.5 66.5 Q308 81 352 104 L394 365 Q366 385 322.5 396.5 Q279 408 242 408 Q189 408 156.5 380.5 Q124 353 113 290 L94 173 Z M298 562 Q331 562 363 585 Q395 608 421 646 Q430 656 441 656 Q450 656 456.5 650 Q463 644 463 636 Q463 633 461 629 Q444 594 422.5 571.5 Q401 549 378.5 535.5 Q356 522 334 516.5 Q312 511 294 511 Q275 511 254.5 517 Q234 523 216 537 Q198 551 184 573.5 Q170 596 163 629 L163 632 Q163 640 170.5 647.5 Q178 655 191 655 Q197 655 202 653 Q207 651 209 646 Q220 608 242.5 585 Q265 562 298 562 Z " />
<glyph glyph-name="Aogonek" unicode="&#x104;" horiz-adv-x="532" d="M480 23 Q480 17 475 9 Q470 1 457 -1 Q422 -39 407.5 -66.5 Q393 -94 393 -118 Q393 -135 401.5 -144.5 Q410 -154 436 -154 Q442 -154 450.5 -151.5 Q459 -149 468 -145.5 Q477 -142 485.5 -139.5 Q494 -137 500 -137 Q508 -137 513 -143 Q518 -149 518 -157 Q518 -169 506 -176.5 Q494 -184 479 -188.5 Q464 -193 449.5 -194.5 Q435 -196 430 -196 Q404 -196 387.5 -189.5 Q371 -183 361 -172.5 Q351 -162 347 -148.5 Q343 -135 343 -122 Q343 -95 361 -61 Q379 -27 423 14 L399 156 L114 156 L45 13 Q40 4 34 0.5 Q28 -3 20 -4 Q3 -4 -4 3 Q-11 10 -11 17 Q-11 21 -7 31 L288 638 Q297 656 303 661.5 Q309 667 323 667 L352 667 Q365 667 370 661.5 Q375 656 378 638 L479 31 Q480 28 480 23 Z M141 210 L391 210 L328 606 L141 210 Z " />
<glyph glyph-name="aogonek" unicode="&#x105;" horiz-adv-x="477" d="M239 463 Q281 463 323 450 Q365 437 402 416 Q405 431 414.5 446 Q424 461 447 461 Q460 461 460 454 Q460 450 459 447 L390 8 L388 0 L389 0 Q354 -38 338.5 -66 Q323 -94 323 -118 Q323 -135 331.5 -144.5 Q340 -154 366 -154 Q372 -154 380.5 -151.5 Q389 -149 398 -145.5 Q407 -142 415.5 -139.5 Q424 -137 430 -137 Q438 -137 443 -143 Q448 -149 448 -157 Q448 -169 436 -176.5 Q424 -184 409 -188.5 Q394 -193 379.5 -194.5 Q365 -196 360 -196 Q334 -196 317.5 -189.5 Q301 -183 291 -172.5 Q281 -162 277 -148.5 Q273 -135 273 -122 Q273 -95 291 -61.5 Q309 -28 351 13 Q347 19 345.5 27 Q344 35 344 43 L344 51 Q306 28 262.5 14 Q219 0 181 0 Q106 0 71.5 31.5 Q37 63 37 126 Q37 137 38 148.5 Q39 160 41 173 L59 290 Q72 372 117 417.5 Q162 463 239 463 Z M94 173 Q91 153 91 137 Q91 92 115 72 Q139 52 188 52 Q223 52 265.5 66.5 Q308 81 352 104 L394 365 Q366 385 322.5 396.5 Q279 408 242 408 Q189 408 156.5 380.5 Q124 353 113 290 L94 173 Z " />
<glyph glyph-name="Cacute" unicode="&#x106;" horiz-adv-x="478" d="M178 0 Q116 0 78.5 36 Q41 72 41 145 Q41 170 45 193 L90 474 Q121 667 272 667 L493 667 Q515 667 515 647 Q515 629 507 621.5 Q499 614 485 614 L281 614 Q216 614 184.5 576 Q153 538 143 477 L97 189 Q94 169 94 151 Q94 106 116 79.5 Q138 53 192 53 L396 53 Q418 53 418 35 Q418 18 410 9 Q402 0 388 0 L178 0 Z M317 706 Q313 705 310 704.5 Q307 704 303 704 Q298 704 291.5 707.5 Q285 711 285 722 Q285 730 290.5 735.5 Q296 741 303 744 L432 813 Q438 815 441 815 Q452 815 460.5 806 Q469 797 469 785 Q469 776 464 768 Q459 760 452 758 L317 706 Z " />
<glyph glyph-name="cacute" unicode="&#x107;" horiz-adv-x="383" d="M232 407 Q210 407 188.5 399.5 Q167 392 150 377 Q133 362 120.5 340.5 Q108 319 104 291 L86 169 Q85 161 84.5 154 Q84 147 84 140 Q84 93 110 72.5 Q136 52 180 52 L314 52 Q318 52 324.5 48 Q331 44 331 32 Q331 15 321 7.5 Q311 0 305 0 L169 0 Q103 0 67 37.5 Q31 75 31 136 Q31 144 31 152 Q31 160 33 168 L51 289 Q64 373 114.5 416 Q165 459 250 459 L369 459 Q374 459 380.5 454.5 Q387 450 387 437 Q387 419 376.5 413 Q366 407 361 407 L232 407 Z M267 537 Q259 527 246 527 Q237 527 231.5 533 Q226 539 226 545 Q226 550 228 554 Q230 558 232 562 L320 689 Q326 698 340 698 Q354 698 363 687.5 Q372 677 372 665 Q372 656 368 652 L267 537 Z " />
<glyph glyph-name="Ccircumflex" unicode="&#x108;" horiz-adv-x="478" d="M178 0 Q116 0 78.5 36 Q41 72 41 145 Q41 170 45 193 L90 474 Q121 667 272 667 L493 667 Q515 667 515 647 Q515 629 507 621.5 Q499 614 485 614 L281 614 Q216 614 184.5 576 Q153 538 143 477 L97 189 Q94 169 94 151 Q94 106 116 79.5 Q138 53 192 53 L396 53 Q418 53 418 35 Q418 18 410 9 Q402 0 388 0 L178 0 Z M366 791 L235 700 Q230 696 222 696 Q212 696 205 704 Q198 712 198 721 Q198 731 207 737 L344 836 Q349 839 353.5 841.5 Q358 844 363 844 L380 844 Q388 844 395 837 L500 738 Q506 733 506 726 Q506 716 497 707.5 Q488 699 478 699 Q471 699 466 703 L366 791 Z " />
<glyph glyph-name="ccircumflex" unicode="&#x109;" horiz-adv-x="383" d="M232 407 Q210 407 188.5 399.5 Q167 392 150 377 Q133 362 120.5 340.5 Q108 319 104 291 L86 169 Q85 161 84.5 154 Q84 147 84 140 Q84 93 110 72.5 Q136 52 180 52 L314 52 Q318 52 324.5 48 Q331 44 331 32 Q331 15 321 7.5 Q311 0 305 0 L169 0 Q103 0 67 37.5 Q31 75 31 136 Q31 144 31 152 Q31 160 33 168 L51 289 Q64 373 114.5 416 Q165 459 250 459 L369 459 Q374 459 380.5 454.5 Q387 450 387 437 Q387 419 376.5 413 Q366 407 361 407 L232 407 Z M263 656 Q268 660 273 662.5 Q278 665 283 665 L300 665 Q308 665 315 658 L421 549 Q426 546 426 538 Q426 528 417.5 519 Q409 510 398 510 Q392 510 388 514 L286 613 L157 515 Q149 510 141 510 Q129 510 124 518.5 Q119 527 119 534 Q119 539 120.5 542.5 Q122 546 124 548 L263 656 Z " />
<glyph glyph-name="Cdotaccent" unicode="&#x10a;" horiz-adv-x="478" d="M178 0 Q116 0 78.5 36 Q41 72 41 145 Q41 170 45 193 L90 474 Q121 667 272 667 L493 667 Q515 667 515 647 Q515 629 507 621.5 Q499 614 485 614 L281 614 Q216 614 184.5 576 Q153 538 143 477 L97 189 Q94 169 94 151 Q94 106 116 79.5 Q138 53 192 53 L396 53 Q418 53 418 35 Q418 18 410 9 Q402 0 388 0 L178 0 Z M347 723 Q333 723 323.5 733 Q314 743 314 758 Q314 781 330 792 Q346 803 360 803 Q374 803 383.5 793 Q393 783 393 768 Q393 748 379.5 735.5 Q366 723 347 723 Z " />
<glyph glyph-name="cdotaccent" unicode="&#x10b;" horiz-adv-x="383" d="M232 407 Q210 407 188.5 399.5 Q167 392 150 377 Q133 362 120.5 340.5 Q108 319 104 291 L86 169 Q85 161 84.5 154 Q84 147 84 140 Q84 93 110 72.5 Q136 52 180 52 L314 52 Q318 52 324.5 48 Q331 44 331 32 Q331 15 321 7.5 Q311 0 305 0 L169 0 Q103 0 67 37.5 Q31 75 31 136 Q31 144 31 152 Q31 160 33 168 L51 289 Q64 373 114.5 416 Q165 459 250 459 L369 459 Q374 459 380.5 454.5 Q387 450 387 437 Q387 419 376.5 413 Q366 407 361 407 L232 407 Z M279 553 Q265 553 255.5 563 Q246 573 246 588 Q246 611 262 622 Q278 633 292 633 Q306 633 315.5 623 Q325 613 325 598 Q325 578 311.5 565.5 Q298 553 279 553 Z " />
<glyph glyph-name="Ccaron" unicode="&#x10c;" horiz-adv-x="478" d="M178 0 Q116 0 78.5 36 Q41 72 41 145 Q41 170 45 193 L90 474 Q121 667 272 667 L493 667 Q515 667 515 647 Q515 629 507 621.5 Q499 614 485 614 L281 614 Q216 614 184.5 576 Q153 538 143 477 L97 189 Q94 169 94 151 Q94 106 116 79.5 Q138 53 192 53 L396 53 Q418 53 418 35 Q418 18 410 9 Q402 0 388 0 L178 0 Z M488 837 Q495 841 501 841 Q511 841 517.5 833.5 Q524 826 524 818 Q524 807 514 800 L378 701 Q368 694 360 694 L343 694 Q338 694 334.5 696.5 Q331 699 327 702 L221 801 Q216 805 216 813 Q216 824 224.5 833 Q233 842 244 842 Q251 842 255 838 L355 748 L488 837 Z " />
<glyph glyph-name="ccaron" unicode="&#x10d;" horiz-adv-x="383" d="M232 407 Q210 407 188.5 399.5 Q167 392 150 377 Q133 362 120.5 340.5 Q108 319 104 291 L86 169 Q85 161 84.5 154 Q84 147 84 140 Q84 93 110 72.5 Q136 52 180 52 L314 52 Q318 52 324.5 48 Q331 44 331 32 Q331 15 321 7.5 Q311 0 305 0 L169 0 Q103 0 67 37.5 Q31 75 31 136 Q31 144 31 152 Q31 160 33 168 L51 289 Q64 373 114.5 416 Q165 459 250 459 L369 459 Q374 459 380.5 454.5 Q387 450 387 437 Q387 419 376.5 413 Q366 407 361 407 L232 407 Z M140 624 Q139 625 139 631 Q139 634 140.5 639 Q142 644 145.5 649 Q149 654 155 657.5 Q161 661 170 661 Q179 661 183 657 L275 565 L408 658 Q413 662 421 662 Q432 662 438 654.5 Q444 647 444 638 Q444 627 437 623 L296 514 Q291 510 287.5 508.5 Q284 507 279 507 L262 507 Q254 507 245 516 L140 624 Z " />
<glyph glyph-name="Dcaron" unicode="&#x10e;" horiz-adv-x="566" d="M52 0 Q37 0 32 6 Q27 12 29 28 L126 639 Q128 655 135 661 Q142 667 157 667 L418 667 Q504 667 538 623.5 Q572 580 557 482 L510 184 Q495 87 444.5 43.5 Q394 0 318 0 L52 0 Z M505 494 Q509 521 507 543.5 Q505 566 494.5 581.5 Q484 597 464 606 Q444 615 412 615 L175 615 L86 53 L308 53 Q345 53 371 63 Q397 73 414.5 91 Q432 109 442 134 Q452 159 457 189 L505 494 Z M490 837 Q497 841 503 841 Q513 841 519.5 833.5 Q526 826 526 818 Q526 807 516 800 L380 701 Q370 694 362 694 L345 694 Q340 694 336.5 696.5 Q333 699 329 702 L223 801 Q218 805 218 813 Q218 824 226.5 833 Q235 842 246 842 Q253 842 257 838 L357 748 L490 837 Z " />
<glyph glyph-name="dcaron" unicode="&#x10f;" horiz-adv-x="589" d="M385 8 Q384 1 382 -0.5 Q380 -2 374 -2 Q354 -2 346.5 13 Q339 28 339 43 L339 51 Q301 28 257.5 14 Q214 0 176 0 Q101 0 66.5 31.5 Q32 63 32 125 Q32 136 33 147.5 Q34 159 36 172 L56 292 Q70 377 117.5 418.5 Q165 460 235 460 L405 460 L440 673 Q441 678 446.5 688 Q452 698 466 698 Q480 698 486 690.5 Q492 683 492 675 L492 671 L385 8 Z M396 406 L235 406 Q190 406 155 380.5 Q120 355 109 292 L89 172 Q87 164 87 156 Q87 148 87 141 Q87 93 112 72.5 Q137 52 183 52 Q218 52 260.5 66 Q303 80 347 103 L396 406 Z M578 548 Q573 542 566 536.5 Q559 531 550 531 Q541 531 536.5 536.5 Q532 542 532 547 Q532 551 533 554 Q534 557 536 561 L583 678 Q587 686 595.5 689.5 Q604 693 613 693 Q628 693 636 684.5 Q644 676 644 665 Q644 658 642 656 L578 548 Z " />
<glyph glyph-name="Dcroat" unicode="&#x110;" horiz-adv-x="566" d="M52 0 Q37 0 32 6 Q27 12 29 28 L75 320 L30 320 Q3 320 3 337 Q3 339 3.5 341 Q4 343 4 345 Q6 360 13.5 364.5 Q21 369 37 369 L83 369 L126 639 Q128 655 135 661 Q142 667 157 667 L418 667 Q504 667 538 623.5 Q572 580 557 482 L510 184 Q495 87 444.5 43.5 Q394 0 318 0 L52 0 Z M505 494 Q509 521 507 543.5 Q505 566 494.5 581.5 Q484 597 464 606 Q444 615 412 615 L175 615 L136 369 L294 369 Q308 369 316.5 365.5 Q325 362 325 351 Q325 332 314.5 326 Q304 320 287 320 L128 320 L86 53 L308 53 Q345 53 371 63 Q397 73 414.5 91 Q432 109 442 134 Q452 159 457 189 L505 494 Z " />
<glyph glyph-name="dcroat" unicode="&#x111;" horiz-adv-x="479" d="M476 578 L505 578 Q519 578 527 574.5 Q535 571 535 560 Q535 541 525 535 Q515 529 497 529 L468 529 L384 8 Q383 1 381 -0.5 Q379 -2 373 -2 Q353 -2 345.5 13 Q338 28 338 43 L338 51 Q300 28 256.5 14 Q213 0 175 0 Q100 0 65.5 31.5 Q31 63 31 125 Q31 136 32 147.5 Q33 159 35 172 L55 292 Q69 377 116.5 418.5 Q164 460 234 460 L404 460 L415 529 L240 529 Q213 529 213 546 Q213 548 213.5 550 Q214 552 214 554 Q216 569 224 573.5 Q232 578 248 578 L423 578 L439 673 Q440 678 445.5 688 Q451 698 465 698 Q479 698 485 690.5 Q491 683 491 675 L491 671 L476 578 Z M395 406 L234 406 Q189 406 154 380.5 Q119 355 108 292 L88 172 Q86 164 86 156 Q86 148 86 141 Q86 93 111 72.5 Q136 52 182 52 Q217 52 259.5 66 Q302 80 346 103 L395 406 Z " />
<glyph glyph-name="Emacron" unicode="&#x112;" horiz-adv-x="464" d="M52 0 Q37 0 32 6 Q27 12 29 28 L126 639 Q128 655 135 661 Q142 667 157 667 L493 667 Q518 667 514 639 Q510 614 485 614 L175 614 L138 380 L404 380 Q427 380 424 354 Q421 339 414 333.5 Q407 328 395 328 L129 328 L86 53 L396 53 Q421 53 417 28 Q413 0 388 0 L52 0 Z M241 720 Q230 720 221.5 725.5 Q213 731 213 742 Q213 761 224 766.5 Q235 772 249 772 L440 772 Q451 772 459.5 766.5 Q468 761 468 750 Q468 730 456.5 725 Q445 720 432 720 L241 720 Z " />
<glyph glyph-name="emacron" unicode="&#x113;" horiz-adv-x="441" d="M301 459 Q364 459 398.5 428 Q433 397 433 340 Q433 319 425 293.5 Q417 268 393 246 Q369 224 326 209.5 Q283 195 213 195 Q187 195 156.5 197.5 Q126 200 91 205 L86 169 Q85 162 84.5 155.5 Q84 149 84 142 Q84 101 106 76.5 Q128 52 179 52 L332 52 Q339 52 345.5 46 Q352 40 352 29 Q352 11 342 5.5 Q332 0 326 0 L177 0 Q103 0 67 38 Q31 76 31 134 Q31 142 31.5 149.5 Q32 157 33 165 L51 287 Q65 377 115.5 418 Q166 459 244 459 L301 459 Z M235 410 Q211 410 189 403 Q167 396 149.5 381.5 Q132 367 119.5 344.5 Q107 322 103 291 L98 252 Q134 247 164 244.5 Q194 242 219 242 Q275 242 307.5 252.5 Q340 263 356 278 Q372 293 376 309.5 Q380 326 380 339 Q380 370 356.5 390 Q333 410 293 410 L235 410 Z M187 536 Q176 536 168 542 Q160 548 160 559 Q160 576 171 582 Q182 588 196 588 L387 588 Q398 588 406.5 582 Q415 576 415 565 Q415 548 403 542 Q391 536 378 536 L187 536 Z " />
<glyph glyph-name="Ebreve" unicode="&#x114;" horiz-adv-x="464" d="M52 0 Q37 0 32 6 Q27 12 29 28 L126 639 Q128 655 135 661 Q142 667 157 667 L493 667 Q518 667 514 639 Q510 614 485 614 L175 614 L138 380 L404 380 Q427 380 424 354 Q421 339 414 333.5 Q407 328 395 328 L129 328 L86 53 L396 53 Q421 53 417 28 Q413 0 388 0 L52 0 Z M332 747 Q365 747 397 770 Q429 793 455 831 Q464 841 475 841 Q484 841 490.5 835 Q497 829 497 821 Q497 818 495 814 Q478 779 456.5 756.5 Q435 734 412.5 720.5 Q390 707 368 701.5 Q346 696 328 696 Q309 696 288.5 702 Q268 708 250 722 Q232 736 218 758.5 Q204 781 197 814 L197 817 Q197 825 204.5 832.5 Q212 840 225 840 Q231 840 236 838 Q241 836 243 831 Q254 793 276.5 770 Q299 747 332 747 Z " />
<glyph glyph-name="ebreve" unicode="&#x115;" horiz-adv-x="441" d="M301 459 Q364 459 398.5 428 Q433 397 433 340 Q433 319 425 293.5 Q417 268 393 246 Q369 224 326 209.5 Q283 195 213 195 Q187 195 156.5 197.5 Q126 200 91 205 L86 169 Q85 162 84.5 155.5 Q84 149 84 142 Q84 101 106 76.5 Q128 52 179 52 L332 52 Q339 52 345.5 46 Q352 40 352 29 Q352 11 342 5.5 Q332 0 326 0 L177 0 Q103 0 67 38 Q31 76 31 134 Q31 142 31.5 149.5 Q32 157 33 165 L51 287 Q65 377 115.5 418 Q166 459 244 459 L301 459 Z M235 410 Q211 410 189 403 Q167 396 149.5 381.5 Q132 367 119.5 344.5 Q107 322 103 291 L98 252 Q134 247 164 244.5 Q194 242 219 242 Q275 242 307.5 252.5 Q340 263 356 278 Q372 293 376 309.5 Q380 326 380 339 Q380 370 356.5 390 Q333 410 293 410 L235 410 Z M284 562 Q317 562 349 585 Q381 608 407 646 Q416 656 427 656 Q436 656 442.5 650 Q449 644 449 636 Q449 633 447 629 Q430 594 408.5 571.5 Q387 549 364.5 535.5 Q342 522 320 516.5 Q298 511 280 511 Q261 511 240.5 517 Q220 523 202 537 Q184 551 170 573.5 Q156 596 149 629 L149 632 Q149 640 156.5 647.5 Q164 655 177 655 Q183 655 188 653 Q193 651 195 646 Q206 608 228.5 585 Q251 562 284 562 Z " />
<glyph glyph-name="Edotaccent" unicode="&#x116;" horiz-adv-x="464" d="M52 0 Q37 0 32 6 Q27 12 29 28 L126 639 Q128 655 135 661 Q142 667 157 667 L493 667 Q518 667 514 639 Q510 614 485 614 L175 614 L138 380 L404 380 Q427 380 424 354 Q421 339 414 333.5 Q407 328 395 328 L129 328 L86 53 L396 53 Q421 53 417 28 Q413 0 388 0 L52 0 Z M310 723 Q296 723 286.5 733 Q277 743 277 758 Q277 781 293 792 Q309 803 323 803 Q337 803 346.5 793 Q356 783 356 768 Q356 748 342.5 735.5 Q329 723 310 723 Z " />
<glyph glyph-name="edotaccent" unicode="&#x117;" horiz-adv-x="441" d="M301 459 Q364 459 398.5 428 Q433 397 433 340 Q433 319 425 293.5 Q417 268 393 246 Q369 224 326 209.5 Q283 195 213 195 Q187 195 156.5 197.5 Q126 200 91 205 L86 169 Q85 162 84.5 155.5 Q84 149 84 142 Q84 101 106 76.5 Q128 52 179 52 L332 52 Q339 52 345.5 46 Q352 40 352 29 Q352 11 342 5.5 Q332 0 326 0 L177 0 Q103 0 67 38 Q31 76 31 134 Q31 142 31.5 149.5 Q32 157 33 165 L51 287 Q65 377 115.5 418 Q166 459 244 459 L301 459 Z M235 410 Q211 410 189 403 Q167 396 149.5 381.5 Q132 367 119.5 344.5 Q107 322 103 291 L98 252 Q134 247 164 244.5 Q194 242 219 242 Q275 242 307.5 252.5 Q340 263 356 278 Q372 293 376 309.5 Q380 326 380 339 Q380 370 356.5 390 Q333 410 293 410 L235 410 Z M289 553 Q275 553 265.5 563 Q256 573 256 588 Q256 611 272 622 Q288 633 302 633 Q316 633 325.5 623 Q335 613 335 598 Q335 578 321.5 565.5 Q308 553 289 553 Z " />
<glyph glyph-name="Eogonek" unicode="&#x118;" horiz-adv-x="464" d="M417 28 Q414 11 404 4 Q370 -33 355.5 -60 Q341 -87 341 -111 Q341 -128 349.5 -137.5 Q358 -147 384 -147 Q390 -147 398.5 -144.5 Q407 -142 416 -138.5 Q425 -135 433.5 -132.5 Q442 -130 448 -130 Q456 -130 461 -136 Q466 -142 466 -150 Q466 -162 454 -169.5 Q442 -177 427 -181.5 Q412 -186 397.5 -187.5 Q383 -189 378 -189 Q352 -189 335.5 -182.5 Q319 -176 309 -165.5 Q299 -155 295 -141.5 Q291 -128 291 -115 Q291 -92 304.5 -63 Q318 -34 350 0 L52 0 Q37 0 32 6 Q27 12 29 28 L126 639 Q128 655 135 661 Q142 667 157 667 L493 667 Q518 667 514 639 Q510 614 485 614 L175 614 L138 380 L404 380 Q427 380 424 354 Q421 339 414 333.5 Q407 328 395 328 L129 328 L86 53 L396 53 Q421 53 417 28 Z " />
<glyph glyph-name="eogonek" unicode="&#x119;" horiz-adv-x="441" d="M301 459 Q364 459 398.5 428 Q433 397 433 340 Q433 319 425 293.5 Q417 268 393 246 Q369 224 326 209.5 Q283 195 213 195 Q187 195 156.5 197.5 Q126 200 91 205 L86 169 Q85 162 84.5 155.5 Q84 149 84 142 Q84 101 106 76.5 Q128 52 179 52 L332 52 Q339 52 345.5 46 Q352 40 352 29 Q352 18 347.5 12 Q343 6 338 3 Q303 -34 288.5 -61.5 Q274 -89 274 -113 Q274 -130 282.5 -139.5 Q291 -149 317 -149 Q323 -149 331.5 -146.5 Q340 -144 349 -140.5 Q358 -137 366.5 -134.5 Q375 -132 381 -132 Q389 -132 394 -138 Q399 -144 399 -152 Q399 -164 387 -171.5 Q375 -179 360 -183.5 Q345 -188 330.5 -189.5 Q316 -191 311 -191 Q285 -191 268.5 -184.5 Q252 -178 242 -167.5 Q232 -157 228 -143.5 Q224 -130 224 -117 Q224 -93 238 -64 Q252 -35 284 0 L177 0 Q103 0 67 38 Q31 76 31 134 Q31 142 31.5 149.5 Q32 157 33 165 L51 287 Q65 377 115.5 418 Q166 459 244 459 L301 459 Z M235 410 Q211 410 189 403 Q167 396 149.5 381.5 Q132 367 119.5 344.5 Q107 322 103 291 L98 252 Q134 247 164 244.5 Q194 242 219 242 Q275 242 307.5 252.5 Q340 263 356 278 Q372 293 376 309.5 Q380 326 380 339 Q380 370 356.5 390 Q333 410 293 410 L235 410 Z " />
<glyph glyph-name="Ecaron" unicode="&#x11a;" horiz-adv-x="464" d="M52 0 Q37 0 32 6 Q27 12 29 28 L126 639 Q128 655 135 661 Q142 667 157 667 L493 667 Q518 667 514 639 Q510 614 485 614 L175 614 L138 380 L404 380 Q427 380 424 354 Q421 339 414 333.5 Q407 328 395 328 L129 328 L86 53 L396 53 Q421 53 417 28 Q413 0 388 0 L52 0 Z M458 837 Q465 841 471 841 Q481 841 487.5 833.5 Q494 826 494 818 Q494 807 484 800 L348 701 Q338 694 330 694 L313 694 Q308 694 304.5 696.5 Q301 699 297 702 L191 801 Q186 805 186 813 Q186 824 194.5 833 Q203 842 214 842 Q221 842 225 838 L325 748 L458 837 Z " />
<glyph glyph-name="ecaron" unicode="&#x11b;" horiz-adv-x="441" d="M301 459 Q364 459 398.5 428 Q433 397 433 340 Q433 319 425 293.5 Q417 268 393 246 Q369 224 326 209.5 Q283 195 213 195 Q187 195 156.5 197.5 Q126 200 91 205 L86 169 Q85 162 84.5 155.5 Q84 149 84 142 Q84 101 106 76.5 Q128 52 179 52 L332 52 Q339 52 345.5 46 Q352 40 352 29 Q352 11 342 5.5 Q332 0 326 0 L177 0 Q103 0 67 38 Q31 76 31 134 Q31 142 31.5 149.5 Q32 157 33 165 L51 287 Q65 377 115.5 418 Q166 459 244 459 L301 459 Z M235 410 Q211 410 189 403 Q167 396 149.5 381.5 Q132 367 119.5 344.5 Q107 322 103 291 L98 252 Q134 247 164 244.5 Q194 242 219 242 Q275 242 307.5 252.5 Q340 263 356 278 Q372 293 376 309.5 Q380 326 380 339 Q380 370 356.5 390 Q333 410 293 410 L235 410 Z M144 624 Q143 625 143 631 Q143 634 144.5 639 Q146 644 149.5 649 Q153 654 159 657.5 Q165 661 174 661 Q183 661 187 657 L279 565 L412 658 Q417 662 425 662 Q436 662 442 654.5 Q448 647 448 638 Q448 627 441 623 L300 514 Q295 510 291.5 508.5 Q288 507 283 507 L266 507 Q258 507 249 516 L144 624 Z " />
<glyph glyph-name="Gcircumflex" unicode="&#x11c;" horiz-adv-x="531" d="M406 53 L449 327 L331 327 Q311 327 311 347 Q311 381 340 381 L484 381 Q498 381 503 378.5 Q508 376 508 365 Q508 363 508 360.5 Q508 358 507 355 L455 28 Q453 12 446.5 6 Q440 0 426 0 L178 0 Q116 0 78.5 36 Q41 72 41 145 Q41 170 45 193 L90 474 Q121 667 272 667 L513 667 Q535 667 535 647 Q535 629 527 621.5 Q519 614 505 614 L281 614 Q216 614 184.5 576 Q153 538 143 477 L97 189 Q94 169 94 151 Q94 106 116 79.5 Q138 53 192 53 L406 53 Z M359 791 L228 700 Q223 696 215 696 Q205 696 198 704 Q191 712 191 721 Q191 731 200 737 L337 836 Q342 839 346.5 841.5 Q351 844 356 844 L373 844 Q381 844 388 837 L493 738 Q499 733 499 726 Q499 716 490 707.5 Q481 699 471 699 Q464 699 459 703 L359 791 Z " />
<glyph glyph-name="gcircumflex" unicode="&#x11d;" horiz-adv-x="465" d="M348 46 Q311 26 266.5 11 Q222 -4 184 -4 Q34 -4 34 124 Q34 135 35 145.5 Q36 156 38 168 L56 290 Q68 371 116.5 414.5 Q165 458 244 458 L300 458 Q340 458 367 445.5 Q394 433 410.5 413.5 Q427 394 433.5 369.5 Q440 345 440 321 Q440 304 437 288 L387 -41 Q373 -128 323.5 -168 Q274 -208 202 -208 L46 -208 Q43 -208 37 -203.5 Q31 -199 31 -187 Q31 -169 41 -162.5 Q51 -156 57 -156 L203 -156 Q225 -156 246.5 -149 Q268 -142 285.5 -128.5 Q303 -115 315.5 -94 Q328 -73 333 -45 L348 46 Z M383 287 Q386 300 386 317 Q386 333 382 349 Q378 365 367 377.5 Q356 390 337 398 Q318 406 288 406 L243 406 Q221 406 199 399.5 Q177 393 159 379.5 Q141 366 127.5 345 Q114 324 110 294 L91 168 Q90 160 89.5 153 Q89 146 89 140 Q89 91 117 69.5 Q145 48 191 48 Q226 48 268.5 62 Q311 76 355 99 L383 287 Z M269 656 Q274 660 279 662.5 Q284 665 289 665 L306 665 Q314 665 321 658 L427 549 Q432 546 432 538 Q432 528 423.5 519 Q415 510 404 510 Q398 510 394 514 L292 613 L163 515 Q155 510 147 510 Q135 510 130 518.5 Q125 527 125 534 Q125 539 126.5 542.5 Q128 546 130 548 L269 656 Z " />
<glyph glyph-name="Gbreve" unicode="&#x11e;" horiz-adv-x="531" d="M406 53 L449 327 L331 327 Q311 327 311 347 Q311 381 340 381 L484 381 Q498 381 503 378.5 Q508 376 508 365 Q508 363 508 360.5 Q508 358 507 355 L455 28 Q453 12 446.5 6 Q440 0 426 0 L178 0 Q116 0 78.5 36 Q41 72 41 145 Q41 170 45 193 L90 474 Q121 667 272 667 L513 667 Q535 667 535 647 Q535 629 527 621.5 Q519 614 505 614 L281 614 Q216 614 184.5 576 Q153 538 143 477 L97 189 Q94 169 94 151 Q94 106 116 79.5 Q138 53 192 53 L406 53 Z M350 747 Q383 747 415 770 Q447 793 473 831 Q482 841 493 841 Q502 841 508.5 835 Q515 829 515 821 Q515 818 513 814 Q496 779 474.5 756.5 Q453 734 430.5 720.5 Q408 707 386 701.5 Q364 696 346 696 Q327 696 306.5 702 Q286 708 268 722 Q250 736 236 758.5 Q222 781 215 814 L215 817 Q215 825 222.5 832.5 Q230 840 243 840 Q249 840 254 838 Q259 836 261 831 Q272 793 294.5 770 Q317 747 350 747 Z " />
<glyph glyph-name="gbreve" unicode="&#x11f;" horiz-adv-x="465" d="M348 46 Q311 26 266.5 11 Q222 -4 184 -4 Q34 -4 34 124 Q34 135 35 145.5 Q36 156 38 168 L56 290 Q68 371 116.5 414.5 Q165 458 244 458 L300 458 Q340 458 367 445.5 Q394 433 410.5 413.5 Q427 394 433.5 369.5 Q440 345 440 321 Q440 304 437 288 L387 -41 Q373 -128 323.5 -168 Q274 -208 202 -208 L46 -208 Q43 -208 37 -203.5 Q31 -199 31 -187 Q31 -169 41 -162.5 Q51 -156 57 -156 L203 -156 Q225 -156 246.5 -149 Q268 -142 285.5 -128.5 Q303 -115 315.5 -94 Q328 -73 333 -45 L348 46 Z M383 287 Q386 300 386 317 Q386 333 382 349 Q378 365 367 377.5 Q356 390 337 398 Q318 406 288 406 L243 406 Q221 406 199 399.5 Q177 393 159 379.5 Q141 366 127.5 345 Q114 324 110 294 L91 168 Q90 160 89.5 153 Q89 146 89 140 Q89 91 117 69.5 Q145 48 191 48 Q226 48 268.5 62 Q311 76 355 99 L383 287 Z M281 562 Q314 562 346 585 Q378 608 404 646 Q413 656 424 656 Q433 656 439.5 650 Q446 644 446 636 Q446 633 444 629 Q427 594 405.5 571.5 Q384 549 361.5 535.5 Q339 522 317 516.5 Q295 511 277 511 Q258 511 237.5 517 Q217 523 199 537 Q181 551 167 573.5 Q153 596 146 629 L146 632 Q146 640 153.5 647.5 Q161 655 174 655 Q180 655 185 653 Q190 651 192 646 Q203 608 225.5 585 Q248 562 281 562 Z " />
<glyph glyph-name="Gdotaccent" unicode="&#x120;" horiz-adv-x="531" d="M406 53 L449 327 L331 327 Q311 327 311 347 Q311 381 340 381 L484 381 Q498 381 503 378.5 Q508 376 508 365 Q508 363 508 360.5 Q508 358 507 355 L455 28 Q453 12 446.5 6 Q440 0 426 0 L178 0 Q116 0 78.5 36 Q41 72 41 145 Q41 170 45 193 L90 474 Q121 667 272 667 L513 667 Q535 667 535 647 Q535 629 527 621.5 Q519 614 505 614 L281 614 Q216 614 184.5 576 Q153 538 143 477 L97 189 Q94 169 94 151 Q94 106 116 79.5 Q138 53 192 53 L406 53 Z M358 723 Q344 723 334.5 733 Q325 743 325 758 Q325 781 341 792 Q357 803 371 803 Q385 803 394.5 793 Q404 783 404 768 Q404 748 390.5 735.5 Q377 723 358 723 Z " />
<glyph glyph-name="gdotaccent" unicode="&#x121;" horiz-adv-x="465" d="M348 46 Q311 26 266.5 11 Q222 -4 184 -4 Q34 -4 34 124 Q34 135 35 145.5 Q36 156 38 168 L56 290 Q68 371 116.5 414.5 Q165 458 244 458 L300 458 Q340 458 367 445.5 Q394 433 410.5 413.5 Q427 394 433.5 369.5 Q440 345 440 321 Q440 304 437 288 L387 -41 Q373 -128 323.5 -168 Q274 -208 202 -208 L46 -208 Q43 -208 37 -203.5 Q31 -199 31 -187 Q31 -169 41 -162.5 Q51 -156 57 -156 L203 -156 Q225 -156 246.5 -149 Q268 -142 285.5 -128.5 Q303 -115 315.5 -94 Q328 -73 333 -45 L348 46 Z M383 287 Q386 300 386 317 Q386 333 382 349 Q378 365 367 377.5 Q356 390 337 398 Q318 406 288 406 L243 406 Q221 406 199 399.5 Q177 393 159 379.5 Q141 366 127.5 345 Q114 324 110 294 L91 168 Q90 160 89.5 153 Q89 146 89 140 Q89 91 117 69.5 Q145 48 191 48 Q226 48 268.5 62 Q311 76 355 99 L383 287 Z M278 553 Q264 553 254.5 563 Q245 573 245 588 Q245 611 261 622 Q277 633 291 633 Q305 633 314.5 623 Q324 613 324 598 Q324 578 310.5 565.5 Q297 553 278 553 Z " />
<glyph glyph-name="Gcommaaccent" unicode="&#x122;" horiz-adv-x="531" d="M406 53 L449 327 L331 327 Q311 327 311 347 Q311 381 340 381 L484 381 Q498 381 503 378.5 Q508 376 508 365 Q508 363 508 360.5 Q508 358 507 355 L455 28 Q453 12 446.5 6 Q440 0 426 0 L178 0 Q116 0 78.5 36 Q41 72 41 145 Q41 170 45 193 L90 474 Q121 667 272 667 L513 667 Q535 667 535 647 Q535 629 527 621.5 Q519 614 505 614 L281 614 Q216 614 184.5 576 Q153 538 143 477 L97 189 Q94 169 94 151 Q94 106 116 79.5 Q138 53 192 53 L406 53 Z M216 -214 Q211 -220 204 -225.5 Q197 -231 188 -231 Q179 -231 174.5 -225.5 Q170 -220 170 -215 Q170 -211 171 -208 Q172 -205 174 -201 L221 -84 Q225 -76 233.5 -72.5 Q242 -69 251 -69 Q266 -69 274 -77.5 Q282 -86 282 -97 Q282 -104 280 -106 L216 -214 Z " />
<glyph glyph-name="gcommaaccent" unicode="&#x123;" horiz-adv-x="465" d="M323 660 Q328 666 335 671.5 Q342 677 351 677 Q361 677 365 672 Q369 667 369 661 Q369 654 365 647 L317 530 Q313 522 305 518.5 Q297 515 288 515 Q272 515 264.5 523.5 Q257 532 257 543 Q257 550 259 552 L323 660 Z M348 46 Q311 26 266.5 11 Q222 -4 184 -4 Q34 -4 34 124 Q34 135 35 145.5 Q36 156 38 168 L56 290 Q68 371 116.5 414.5 Q165 458 244 458 L300 458 Q340 458 367 445.5 Q394 433 410.5 413.5 Q427 394 433.5 369.5 Q440 345 440 321 Q440 304 437 288 L387 -41 Q373 -128 323.5 -168 Q274 -208 202 -208 L46 -208 Q43 -208 37 -203.5 Q31 -199 31 -187 Q31 -169 41 -162.5 Q51 -156 57 -156 L203 -156 Q225 -156 246.5 -149 Q268 -142 285.5 -128.5 Q303 -115 315.5 -94 Q328 -73 333 -45 L348 46 Z M383 287 Q386 300 386 317 Q386 333 382 349 Q378 365 367 377.5 Q356 390 337 398 Q318 406 288 406 L243 406 Q221 406 199 399.5 Q177 393 159 379.5 Q141 366 127.5 345 Q114 324 110 294 L91 168 Q90 160 89.5 153 Q89 146 89 140 Q89 91 117 69.5 Q145 48 191 48 Q226 48 268.5 62 Q311 76 355 99 L383 287 Z " />
<glyph glyph-name="Hcircumflex" unicode="&#x124;" horiz-adv-x="546" d="M423 -5 Q408 -5 403.5 0.5 Q399 6 401 23 L449 328 L129 328 L81 23 Q79 6 72.5 0.5 Q66 -5 51 -5 Q36 -5 31 1 Q26 7 28 23 L126 643 Q129 659 136 665 Q143 671 158 671 Q173 671 177.5 665.5 Q182 660 179 643 L138 380 L458 380 L499 643 Q502 660 508.5 665.5 Q515 671 530 671 Q545 671 550 665 Q555 659 552 643 L454 23 Q452 7 445 1 Q438 -5 423 -5 Z M356 791 L225 700 Q220 696 212 696 Q202 696 195 704 Q188 712 188 721 Q188 731 197 737 L334 836 Q339 839 343.5 841.5 Q348 844 353 844 L370 844 Q378 844 385 837 L490 738 Q496 733 496 726 Q496 716 487 707.5 Q478 699 468 699 Q461 699 456 703 L356 791 Z " />
<glyph glyph-name="hcircumflex" unicode="&#x125;" horiz-adv-x="477" d="M139 411 Q176 431 220.5 446 Q265 461 303 461 Q378 461 412.5 430 Q447 399 447 337 Q447 312 443 289 L397 7 Q396 1 394 -0.5 Q392 -2 387 -2 Q364 -2 356 16.5 Q348 35 351 54 L390 289 Q393 307 393 321 Q393 368 367 388.5 Q341 409 296 409 Q261 409 218.5 395 Q176 381 132 358 L77 21 Q76 16 69.5 6 Q63 -4 49 -4 Q33 -4 27.5 5 Q22 14 24 23 L128 672 Q129 677 134 687 Q139 697 153 697 Q169 697 175.5 688 Q182 679 180 670 L139 411 Z M173 791 L42 700 Q37 696 29 696 Q19 696 12 704 Q5 712 5 721 Q5 731 14 737 L151 836 Q156 839 160.5 841.5 Q165 844 170 844 L187 844 Q195 844 202 837 L307 738 Q313 733 313 726 Q313 716 304 707.5 Q295 699 285 699 Q278 699 273 703 L173 791 Z " />
<glyph glyph-name="Hbar" unicode="&#x126;" horiz-adv-x="546" d="M423 -5 Q408 -5 403.5 0.5 Q399 6 401 23 L449 328 L129 328 L81 23 Q79 6 72.5 0.5 Q66 -5 51 -5 Q36 -5 31 1 Q26 7 28 23 L107 525 L82 525 Q68 525 61.5 528 Q55 531 55 541 Q55 547 56 550 Q58 565 65.5 569.5 Q73 574 89 574 L115 574 L126 643 Q129 659 136 665 Q143 671 158 671 Q173 671 177.5 665.5 Q182 660 179 643 L168 574 L488 574 L499 643 Q502 660 508.5 665.5 Q515 671 530 671 Q545 671 550 665 Q555 659 552 643 L541 574 L568 574 Q582 574 590.5 570.5 Q599 567 599 556 Q599 537 588.5 531 Q578 525 561 525 L533 525 L454 23 Q452 7 445 1 Q438 -5 423 -5 Z M458 380 L480 525 L160 525 L138 380 L458 380 Z " />
<glyph glyph-name="hbar" unicode="&#x127;" horiz-adv-x="477" d="M165 574 L372 574 Q386 574 394.5 570.5 Q403 567 403 556 Q403 537 392.5 531 Q382 525 365 525 L157 525 L139 411 Q176 431 220.5 446 Q265 461 303 461 Q378 461 412.5 430 Q447 399 447 337 Q447 312 443 289 L397 7 Q396 1 394 -0.5 Q392 -2 387 -2 Q364 -2 356 16.5 Q348 35 351 54 L390 289 Q393 307 393 321 Q393 368 367 388.5 Q341 409 296 409 Q261 409 218.5 395 Q176 381 132 358 L77 21 Q76 16 69.5 6 Q63 -4 49 -4 Q33 -4 27.5 5 Q22 14 24 23 L104 525 L77 525 Q63 525 56.5 528 Q50 531 50 541 Q50 547 51 550 Q53 565 60.5 569.5 Q68 574 84 574 L112 574 L128 672 Q129 677 134 687 Q139 697 153 697 Q169 697 175.5 688 Q182 679 180 670 L165 574 Z " />
<glyph glyph-name="Itilde" unicode="&#x128;" horiz-adv-x="233" d="M81 -5 Q66 -5 61 1 Q56 7 58 23 L156 643 Q159 659 166 665 Q173 671 188 671 Q203 671 207.5 665.5 Q212 660 209 643 L111 23 Q109 6 102.5 0.5 Q96 -5 81 -5 Z M341 766 Q321 735 296.5 724 Q272 713 254 713 Q238 713 221.5 718.5 Q205 724 189 731 Q173 738 158 743.5 Q143 749 130 749 Q122 749 114 743.5 Q106 738 98.5 731.5 Q91 725 84.5 719.5 Q78 714 72 714 Q61 714 55.5 721.5 Q50 729 50 734 Q50 739 52 743 Q69 766 89.5 781 Q110 796 134 796 Q149 796 165.5 790 Q182 784 198.5 777.5 Q215 771 230.5 765 Q246 759 258 759 Q269 759 278 765 Q287 771 294.5 778.5 Q302 786 309 792 Q316 798 323 798 Q334 798 339.5 790.5 Q345 783 345 779 Q345 772 341 766 Z " />
<glyph glyph-name="itilde" unicode="&#x129;" horiz-adv-x="247" d="M135 439 Q136 444 141 454 Q146 464 160 464 Q176 464 182.5 455 Q189 446 187 437 L119 7 Q118 1 116 -0.5 Q114 -2 109 -2 Q86 -2 78 16.5 Q70 35 73 54 L135 439 Z M323 596 Q303 565 278.5 554 Q254 543 236 543 Q220 543 203.5 548.5 Q187 554 171 561 Q155 568 140 573.5 Q125 579 112 579 Q104 579 96 573.5 Q88 568 80.5 561.5 Q73 555 66.5 549.5 Q60 544 54 544 Q43 544 37.5 551.5 Q32 559 32 564 Q32 569 34 573 Q51 596 71.5 611 Q92 626 116 626 Q131 626 147.5 620 Q164 614 180.5 607.5 Q197 601 212.5 595 Q228 589 240 589 Q251 589 260 595 Q269 601 276.5 608.5 Q284 616 291 622 Q298 628 305 628 Q316 628 321.5 620.5 Q327 613 327 609 Q327 602 323 596 Z " />
<glyph glyph-name="Imacron" unicode="&#x12a;" horiz-adv-x="233" d="M81 -5 Q66 -5 61 1 Q56 7 58 23 L156 643 Q159 659 166 665 Q173 671 188 671 Q203 671 207.5 665.5 Q212 660 209 643 L111 23 Q109 6 102.5 0.5 Q96 -5 81 -5 Z M97 720 Q86 720 77.5 725.5 Q69 731 69 742 Q69 761 80 766.5 Q91 772 105 772 L296 772 Q307 772 315.5 766.5 Q324 761 324 750 Q324 730 312.5 725 Q301 720 288 720 L97 720 Z " />
<glyph glyph-name="imacron" unicode="&#x12b;" horiz-adv-x="211" d="M116 439 Q117 444 122 454 Q127 464 141 464 Q157 464 163.5 455 Q170 446 168 437 L100 7 Q99 1 97 -0.5 Q95 -2 90 -2 Q67 -2 59 16.5 Q51 35 54 54 L116 439 Z M59 536 Q48 536 40 542 Q32 548 32 559 Q32 576 43 582 Q54 588 68 588 L259 588 Q270 588 278.5 582 Q287 576 287 565 Q287 548 275 542 Q263 536 250 536 L59 536 Z " />
<glyph glyph-name="Ibreve" unicode="&#x12c;" horiz-adv-x="271" d="M106 -5 Q91 -5 86 1 Q81 7 83 23 L181 643 Q184 659 191 665 Q198 671 213 671 Q228 671 232.5 665.5 Q237 660 234 643 L136 23 Q134 6 127.5 0.5 Q121 -5 106 -5 Z M218 747 Q251 747 283 770 Q315 793 341 831 Q350 841 361 841 Q370 841 376.5 835 Q383 829 383 821 Q383 818 381 814 Q364 779 342.5 756.5 Q321 734 298.5 720.5 Q276 707 254 701.5 Q232 696 214 696 Q195 696 174.5 702 Q154 708 136 722 Q118 736 104 758.5 Q90 781 83 814 L83 817 Q83 825 90.5 832.5 Q98 840 111 840 Q117 840 122 838 Q127 836 129 831 Q140 793 162.5 770 Q185 747 218 747 Z " />
<glyph glyph-name="ibreve" unicode="&#x12d;" horiz-adv-x="253" d="M136 439 Q137 444 142 454 Q147 464 161 464 Q177 464 183.5 455 Q190 446 188 437 L120 7 Q119 1 117 -0.5 Q115 -2 110 -2 Q87 -2 79 16.5 Q71 35 74 54 L136 439 Z M174 568 Q207 568 239 591 Q271 614 297 652 Q306 662 317 662 Q326 662 332.5 656 Q339 650 339 642 Q339 639 337 635 Q320 600 298.5 577.5 Q277 555 254.5 541.5 Q232 528 210 522.5 Q188 517 170 517 Q151 517 130.5 523 Q110 529 92 543 Q74 557 60 579.5 Q46 602 39 635 L39 638 Q39 646 46.5 653.5 Q54 661 67 661 Q73 661 78 659 Q83 657 85 652 Q96 614 118.5 591 Q141 568 174 568 Z " />
<glyph glyph-name="Iogonek" unicode="&#x12e;" horiz-adv-x="233" d="M111 23 Q108 2 99 -2 Q64 -40 49.5 -67 Q35 -94 35 -118 Q35 -135 43.5 -144.5 Q52 -154 78 -154 Q84 -154 92.5 -151.5 Q101 -149 110 -145.5 Q119 -142 127.5 -139.5 Q136 -137 142 -137 Q150 -137 155 -143 Q160 -149 160 -157 Q160 -169 148 -176.5 Q136 -184 121 -188.5 Q106 -193 91.5 -194.5 Q77 -196 72 -196 Q46 -196 29.5 -189.5 Q13 -183 3 -172.5 Q-7 -162 -11 -148.5 Q-15 -135 -15 -122 Q-15 -96 2 -63.5 Q19 -31 58 7 Q57 13 58 23 L156 643 Q159 659 166 665 Q173 671 188 671 Q203 671 207.5 665.5 Q212 660 209 643 L111 23 L111 23 Z " />
<glyph glyph-name="iogonek" unicode="&#x12f;" horiz-adv-x="211" d="M116 439 Q117 444 122 454 Q127 464 141 464 Q155 464 161.5 456.5 Q168 449 168 441 L168 437 L100 7 Q98 0 97 0 Q62 -38 47 -66 Q32 -94 32 -118 Q32 -135 40.5 -144.5 Q49 -154 75 -154 Q81 -154 89.5 -151.5 Q98 -149 107 -145.5 Q116 -142 124.5 -139.5 Q133 -137 139 -137 Q147 -137 152 -143 Q157 -149 157 -157 Q157 -169 145 -176.5 Q133 -184 118 -188.5 Q103 -193 88.5 -194.5 Q74 -196 69 -196 Q43 -196 26.5 -189.5 Q10 -183 0 -172.5 Q-10 -162 -14 -148.5 Q-18 -135 -18 -122 Q-18 -95 0 -61 Q18 -27 61 13 Q53 25 53 43 Q53 46 53.5 49 Q54 52 54 54 L116 439 Z M173 634 Q187 634 195 626 Q203 618 203 606 Q203 589 191 577.5 Q179 566 162 566 Q150 566 142 573.5 Q134 581 134 594 Q134 611 146.5 622.5 Q159 634 173 634 Z " />
<glyph glyph-name="Idotaccent" unicode="&#x130;" horiz-adv-x="233" d="M81 -5 Q66 -5 61 1 Q56 7 58 23 L156 643 Q159 659 166 665 Q173 671 188 671 Q203 671 207.5 665.5 Q212 660 209 643 L111 23 Q109 6 102.5 0.5 Q96 -5 81 -5 Z M195 723 Q181 723 171.5 733 Q162 743 162 758 Q162 781 178 792 Q194 803 208 803 Q222 803 231.5 793 Q241 783 241 768 Q241 748 227.5 735.5 Q214 723 195 723 Z " />
<glyph glyph-name="IJ" unicode="&#x132;" horiz-adv-x="578" d="M180 0 Q164 0 164 22 Q164 40 173.5 45.5 Q183 51 188 51 L283 51 Q337 51 368 77 Q399 103 409 164 L485 643 Q487 659 495 665 Q503 671 517 671 Q529 671 534 668 Q539 665 539 655 Q539 648 538 643 L462 164 Q449 81 406 40.5 Q363 0 277 0 L180 0 Z M80 -5 Q65 -5 60 1 Q55 7 57 23 L155 643 Q158 659 165 665 Q172 671 187 671 Q202 671 206.5 665.5 Q211 660 208 643 L110 23 Q108 6 101.5 0.5 Q95 -5 80 -5 Z " />
<glyph glyph-name="ij" unicode="&#x133;" horiz-adv-x="458" d="M343 439 Q344 444 349 454 Q354 464 368 464 Q382 464 388.5 456.5 Q395 449 395 441 L395 437 L318 -42 Q312 -83 301.5 -114 Q291 -145 272.5 -166 Q254 -187 225.5 -197.5 Q197 -208 154 -208 L119 -208 Q115 -208 109 -203.5 Q103 -199 103 -188 Q103 -171 112 -163.5 Q121 -156 130 -156 L165 -156 Q210 -156 233.5 -128 Q257 -100 265 -46 L343 439 Z M116 439 Q117 444 122 454 Q127 464 141 464 Q155 464 161.5 456.5 Q168 449 168 441 L168 437 L100 7 Q99 1 97 -0.5 Q95 -2 90 -2 Q70 -2 61.5 12 Q53 26 53 43 Q53 46 53.5 49 Q54 52 54 54 L116 439 Z M400 634 Q414 634 422 626 Q430 618 430 606 Q430 589 418 577.5 Q406 566 389 566 Q377 566 369 573.5 Q361 581 361 594 Q361 611 373.5 622.5 Q386 634 400 634 Z M173 634 Q187 634 195 626 Q203 618 203 606 Q203 589 191 577.5 Q179 566 162 566 Q150 566 142 573.5 Q134 581 134 594 Q134 611 146.5 622.5 Q159 634 173 634 Z " />
<glyph glyph-name="Jcircumflex" unicode="&#x134;" horiz-adv-x="380" d="M-18 1 Q-34 1 -34 23 Q-34 41 -24.5 46.5 Q-15 52 -10 52 L85 52 Q139 52 170 78 Q201 104 211 165 L287 644 Q289 660 297 666 Q305 672 319 672 Q331 672 336 669 Q341 666 341 656 Q341 649 340 644 L264 165 Q251 82 208 41.5 Q165 1 79 1 L-18 1 Z M338 793 L207 702 Q202 698 194 698 Q184 698 177 706 Q170 714 170 723 Q170 733 179 739 L316 838 Q321 841 325.5 843.5 Q330 846 335 846 L352 846 Q360 846 367 839 L472 740 Q478 735 478 728 Q478 718 469 709.5 Q460 701 450 701 Q443 701 438 705 L338 793 Z " />
<glyph glyph-name="jcircumflex" unicode="&#x135;" horiz-adv-x="304" d="M160 439 Q161 444 166 454 Q171 464 185 464 Q201 464 207.5 455 Q214 446 212 437 L135 -42 Q129 -83 118.5 -114 Q108 -145 89.5 -166 Q71 -187 42.5 -197.5 Q14 -208 -29 -208 L-64 -208 Q-69 -208 -75 -202 Q-81 -196 -79 -181 Q-77 -167 -69 -161.5 Q-61 -156 -53 -156 L-18 -156 Q27 -156 50.5 -128 Q74 -100 82 -46 L160 439 Z M184 656 Q189 660 194 662.5 Q199 665 204 665 L221 665 Q229 665 236 658 L342 549 Q347 546 347 538 Q347 528 338.5 519 Q330 510 319 510 Q313 510 309 514 L207 613 L78 515 Q70 510 62 510 Q50 510 45 518.5 Q40 527 40 534 Q40 539 41.5 542.5 Q43 546 45 548 L184 656 Z " />
<glyph glyph-name="Kcommaaccent" unicode="&#x136;" horiz-adv-x="497" d="M265 390 L452 38 Q456 31 455 21 Q454 11 446 5 Q439 0 432 -1 Q425 -2 419.5 -0.5 Q414 1 410 4.5 Q406 8 404 12 L223 356 L120 267 L81 23 Q79 6 72.5 0.5 Q66 -5 51 -5 Q36 -5 31 3 Q26 11 28 23 L126 643 Q128 655 135.5 663 Q143 671 158 671 Q173 671 177 664 Q181 657 179 643 L132 341 L506 658 Q515 666 526 669.5 Q537 673 547 662 Q555 654 552.5 643 Q550 632 543 627 L265 390 Z M188 -194 Q183 -200 176 -205.5 Q169 -211 160 -211 Q151 -211 146.5 -205.5 Q142 -200 142 -195 Q142 -191 143 -188 Q144 -185 146 -181 L193 -64 Q197 -56 205.5 -52.5 Q214 -49 223 -49 Q238 -49 246 -57.5 Q254 -66 254 -77 Q254 -84 252 -86 L188 -194 Z " />
<glyph glyph-name="kcommaaccent" unicode="&#x137;" horiz-adv-x="426" d="M107 206 L77 21 Q76 16 70.5 6 Q65 -4 51 -4 Q37 -4 30.5 3.5 Q24 11 24 20 L24 23 L128 672 Q129 677 135 687 Q141 697 155 697 Q169 697 174.5 689.5 Q180 682 180 674 L180 670 L117 270 L391 459 Q398 465 407 465 Q418 465 424 457 Q430 449 430 439 Q430 427 419 420 L270 318 L378 30 Q379 28 379 22 Q379 14 373.5 5 Q368 -4 353 -4 Q336 -4 331 11 L227 288 L107 206 Z M149 -214 Q144 -220 137 -225.5 Q130 -231 121 -231 Q112 -231 107.5 -225.5 Q103 -220 103 -215 Q103 -211 104 -208 Q105 -205 107 -201 L154 -84 Q158 -76 166.5 -72.5 Q175 -69 184 -69 Q199 -69 207 -77.5 Q215 -86 215 -97 Q215 -104 213 -106 L149 -214 Z " />
<glyph glyph-name="kgreenlandic" unicode="&#x138;" horiz-adv-x="426" d="M107 206 L77 21 Q76 16 70.5 6 Q65 -4 51 -4 Q37 -4 30.5 3.5 Q24 11 24 20 L24 23 L92 441 Q93 446 99 456 Q105 466 119 466 Q133 466 138.5 458.5 Q144 451 144 443 L144 439 L117 270 L391 459 Q398 465 407 465 Q418 465 424 457 Q430 449 430 439 Q430 427 419 420 L270 318 L378 30 Q379 28 379 22 Q379 14 373.5 5 Q368 -4 353 -4 Q336 -4 331 11 L227 288 L107 206 Z " />
<glyph glyph-name="Lacute" unicode="&#x139;" horiz-adv-x="464" d="M52 0 Q37 0 32 6 Q27 12 29 28 L126 644 Q129 660 135.5 666 Q142 672 157 672 Q172 672 177 666.5 Q182 661 179 644 L86 53 L393 53 Q419 53 416 28 Q413 0 387 0 L52 0 Z M176 706 Q172 705 169 704.5 Q166 704 162 704 Q157 704 150.5 707.5 Q144 711 144 722 Q144 730 149.5 735.5 Q155 741 162 744 L291 813 Q297 815 300 815 Q311 815 319.5 806 Q328 797 328 785 Q328 776 323 768 Q318 760 311 758 L176 706 Z " />
<glyph glyph-name="lacute" unicode="&#x13a;" horiz-adv-x="209" d="M151 672 Q152 677 157 687 Q162 697 176 697 Q192 697 198.5 688 Q205 679 203 670 L100 7 Q99 1 97 -0.5 Q95 -2 90 -2 Q67 -2 59 16.5 Q51 35 54 54 L151 672 Z M167 726 Q163 725 160 724.5 Q157 724 153 724 Q148 724 141.5 727.5 Q135 731 135 742 Q135 750 140.5 755.5 Q146 761 153 764 L282 833 Q288 835 291 835 Q302 835 310.5 826 Q319 817 319 805 Q319 796 314 788 Q309 780 302 778 L167 726 Z " />
<glyph glyph-name="Lcommaaccent" unicode="&#x13b;" horiz-adv-x="464" d="M52 0 Q37 0 32 6 Q27 12 29 28 L126 644 Q129 660 135.5 666 Q142 672 157 672 Q172 672 177 666.5 Q182 661 179 644 L86 53 L393 53 Q419 53 416 28 Q413 0 387 0 L52 0 Z M177 -214 Q172 -220 165 -225.5 Q158 -231 149 -231 Q140 -231 135.5 -225.5 Q131 -220 131 -215 Q131 -211 132 -208 Q133 -205 135 -201 L182 -84 Q186 -76 194.5 -72.5 Q203 -69 212 -69 Q227 -69 235 -77.5 Q243 -86 243 -97 Q243 -104 241 -106 L177 -214 Z " />
<glyph glyph-name="lcommaaccent" unicode="&#x13c;" horiz-adv-x="209" d="M151 672 Q152 677 157 687 Q162 697 176 697 Q192 697 198.5 688 Q205 679 203 670 L100 7 Q99 1 97 -0.5 Q95 -2 90 -2 Q67 -2 59 16.5 Q51 35 54 54 L151 672 Z M32 -214 Q27 -220 20 -225.5 Q13 -231 4 -231 Q-5 -231 -9.5 -225.5 Q-14 -220 -14 -215 Q-14 -211 -13 -208 Q-12 -205 -10 -201 L37 -84 Q41 -76 49.5 -72.5 Q58 -69 67 -69 Q82 -69 90 -77.5 Q98 -86 98 -97 Q98 -104 96 -106 L32 -214 Z " />
<glyph glyph-name="Lcaron" unicode="&#x13d;" horiz-adv-x="464" d="M52 0 Q37 0 32 6 Q27 12 29 28 L126 644 Q129 660 135.5 666 Q142 672 157 672 Q172 672 177 666.5 Q182 661 179 644 L86 53 L393 53 Q419 53 416 28 Q413 0 387 0 L52 0 Z M331 520 Q326 514 319 508.5 Q312 503 303 503 Q294 503 289.5 508.5 Q285 514 285 519 Q285 523 286 526 Q287 529 289 533 L336 650 Q340 658 348.5 661.5 Q357 665 366 665 Q381 665 389 656.5 Q397 648 397 637 Q397 630 395 628 L331 520 Z " />
<glyph glyph-name="lcaron" unicode="&#x13e;" horiz-adv-x="328" d="M287 550 Q282 544 275 538.5 Q268 533 259 533 Q250 533 245.5 538.5 Q241 544 241 549 Q241 553 242 556 Q243 559 245 563 L292 680 Q296 688 304.5 691.5 Q313 695 322 695 Q337 695 345 686.5 Q353 678 353 667 Q353 660 351 658 L287 550 Z M151 672 Q152 677 157 687 Q162 697 176 697 Q192 697 198.5 688 Q205 679 203 670 L100 7 Q99 1 97 -0.5 Q95 -2 90 -2 Q67 -2 59 16.5 Q51 35 54 54 L151 672 Z " />
<glyph glyph-name="Ldot" unicode="&#x13f;" horiz-adv-x="464" d="M52 0 Q37 0 32 6 Q27 12 29 28 L126 644 Q129 660 135.5 666 Q142 672 157 672 Q172 672 177 666.5 Q182 661 179 644 L86 53 L393 53 Q419 53 416 28 Q413 0 387 0 L52 0 Z M291 317 Q277 317 267.5 327 Q258 337 258 352 Q258 375 274 386 Q290 397 304 397 Q318 397 327.5 387 Q337 377 337 362 Q337 342 323.5 329.5 Q310 317 291 317 Z " />
<glyph glyph-name="ldot" unicode="&#x140;" horiz-adv-x="322" d="M267 334 Q253 334 243.5 344 Q234 354 234 369 Q234 392 250 403 Q266 414 280 414 Q294 414 303.5 404 Q313 394 313 379 Q313 359 299.5 346.5 Q286 334 267 334 Z M151 672 Q152 677 157 687 Q162 697 176 697 Q192 697 198.5 688 Q205 679 203 670 L100 7 Q99 1 97 -0.5 Q95 -2 90 -2 Q67 -2 59 16.5 Q51 35 54 54 L151 672 Z " />
<glyph glyph-name="Lslash" unicode="&#x141;" horiz-adv-x="464" d="M52 0 Q37 0 32 6 Q27 12 29 28 L58 214 L9 188 Q-3 182 -9 182 Q-18 182 -24 194 Q-25 197 -25.5 199 Q-26 201 -26 203 Q-26 215 -6 225 L66 263 L126 644 Q129 660 135.5 666 Q142 672 157 672 Q172 672 177 666.5 Q182 661 179 644 L124 293 L237 353 Q251 361 258 361 Q263 361 269 356 Q275 351 275 341 Q274 327 253 316 L116 244 L86 53 L393 53 Q419 53 416 28 Q413 0 387 0 L52 0 Z " />
<glyph glyph-name="lslash" unicode="&#x142;" horiz-adv-x="302" d="M119 262 L36 218 Q24 212 17 212 Q9 212 3 224 Q1 232 1 234 Q1 245 21 255 L127 311 L184 672 Q185 677 190 687 Q195 697 209 697 Q225 697 231.5 688 Q238 679 236 670 L185 341 L264 383 Q278 391 285 391 Q290 391 296 386 Q302 381 302 371 Q302 358 279 346 L177 292 L133 7 Q132 1 130 -0.5 Q128 -2 123 -2 Q100 -2 92 16.5 Q84 35 87 54 L119 262 Z " />
<glyph glyph-name="Nacute" unicode="&#x143;" horiz-adv-x="563" d="M420 0 Q409 0 405 3.5 Q401 7 397 15 Q396 16 394 20 Q392 24 384.5 41 Q377 58 363 93 Q349 128 324 192 Q299 256 261.5 353 Q224 450 171 592 L81 24 Q79 7 72.5 1.5 Q66 -4 51 -4 Q36 -4 31 2 Q26 8 28 24 L126 639 Q128 655 135 661 Q142 667 157 667 L185 667 Q196 667 200 663.5 Q204 660 208 651 L426 75 L516 643 Q519 660 525.5 665.5 Q532 671 547 671 Q562 671 567 665 Q572 659 569 643 L472 28 Q470 12 463 6 Q456 0 441 0 L420 0 Z M323 706 Q319 705 316 704.5 Q313 704 309 704 Q304 704 297.5 707.5 Q291 711 291 722 Q291 730 296.5 735.5 Q302 741 309 744 L438 813 Q444 815 447 815 Q458 815 466.5 806 Q475 797 475 785 Q475 776 470 768 Q465 760 458 758 L323 706 Z " />
<glyph glyph-name="nacute" unicode="&#x144;" horiz-adv-x="478" d="M77 21 Q75 13 69.5 4.5 Q64 -4 50 -4 Q36 -4 30 3.5 Q24 11 24 19 L24 23 L93 449 Q95 457 97 459 Q99 461 105 461 Q125 461 132.5 447.5 Q140 434 140 420 Q140 414 139 411 Q176 431 220.5 446 Q265 461 303 461 Q378 461 412.5 430 Q447 399 447 337 Q447 312 443 289 L398 7 Q397 1 395 -0.5 Q393 -2 388 -2 Q368 -2 359.5 12 Q351 26 351 43 Q351 46 351.5 49 Q352 52 352 54 L390 289 Q393 307 393 322 Q393 368 367 388.5 Q341 409 296 409 Q261 409 218.5 395 Q176 381 132 358 L77 21 Z M278 537 Q270 527 257 527 Q248 527 242.5 533 Q237 539 237 545 Q237 550 239 554 Q241 558 243 562 L331 689 Q337 698 351 698 Q365 698 374 687.5 Q383 677 383 665 Q383 656 379 652 L278 537 Z " />
<glyph glyph-name="Ncommaaccent" unicode="&#x145;" horiz-adv-x="563" d="M420 0 Q409 0 405 3.5 Q401 7 397 15 Q396 16 394 20 Q392 24 384.5 41 Q377 58 363 93 Q349 128 324 192 Q299 256 261.5 353 Q224 450 171 592 L81 24 Q79 7 72.5 1.5 Q66 -4 51 -4 Q36 -4 31 2 Q26 8 28 24 L126 639 Q128 655 135 661 Q142 667 157 667 L185 667 Q196 667 200 663.5 Q204 660 208 651 L426 75 L516 643 Q519 660 525.5 665.5 Q532 671 547 671 Q562 671 567 665 Q572 659 569 643 L472 28 Q470 12 463 6 Q456 0 441 0 L420 0 Z M180 -194 Q175 -200 168 -205.5 Q161 -211 152 -211 Q143 -211 138.5 -205.5 Q134 -200 134 -195 Q134 -191 135 -188 Q136 -185 138 -181 L185 -64 Q189 -56 197.5 -52.5 Q206 -49 215 -49 Q230 -49 238 -57.5 Q246 -66 246 -77 Q246 -84 244 -86 L180 -194 Z " />
<glyph glyph-name="ncommaaccent" unicode="&#x146;" horiz-adv-x="478" d="M77 21 Q75 13 69.5 4.5 Q64 -4 50 -4 Q36 -4 30 3.5 Q24 11 24 19 L24 23 L93 449 Q95 457 97 459 Q99 461 105 461 Q125 461 132.5 447.5 Q140 434 140 420 Q140 414 139 411 Q176 431 220.5 446 Q265 461 303 461 Q378 461 412.5 430 Q447 399 447 337 Q447 312 443 289 L398 7 Q397 1 395 -0.5 Q393 -2 388 -2 Q368 -2 359.5 12 Q351 26 351 43 Q351 46 351.5 49 Q352 52 352 54 L390 289 Q393 307 393 322 Q393 368 367 388.5 Q341 409 296 409 Q261 409 218.5 395 Q176 381 132 358 L77 21 Z M155 -214 Q150 -220 143 -225.5 Q136 -231 127 -231 Q118 -231 113.5 -225.5 Q109 -220 109 -215 Q109 -211 110 -208 Q111 -205 113 -201 L160 -84 Q164 -76 172.5 -72.5 Q181 -69 190 -69 Q205 -69 213 -77.5 Q221 -86 221 -97 Q221 -104 219 -106 L155 -214 Z " />
<glyph glyph-name="Ncaron" unicode="&#x147;" horiz-adv-x="563" d="M420 0 Q409 0 405 3.5 Q401 7 397 15 Q396 16 394 20 Q392 24 384.5 41 Q377 58 363 93 Q349 128 324 192 Q299 256 261.5 353 Q224 450 171 592 L81 24 Q79 7 72.5 1.5 Q66 -4 51 -4 Q36 -4 31 2 Q26 8 28 24 L126 639 Q128 655 135 661 Q142 667 157 667 L185 667 Q196 667 200 663.5 Q204 660 208 651 L426 75 L516 643 Q519 660 525.5 665.5 Q532 671 547 671 Q562 671 567 665 Q572 659 569 643 L472 28 Q470 12 463 6 Q456 0 441 0 L420 0 Z M493 837 Q500 841 506 841 Q516 841 522.5 833.5 Q529 826 529 818 Q529 807 519 800 L383 701 Q373 694 365 694 L348 694 Q343 694 339.5 696.5 Q336 699 332 702 L226 801 Q221 805 221 813 Q221 824 229.5 833 Q238 842 249 842 Q256 842 260 838 L360 748 L493 837 Z " />
<glyph glyph-name="ncaron" unicode="&#x148;" horiz-adv-x="478" d="M77 21 Q75 13 69.5 4.5 Q64 -4 50 -4 Q36 -4 30 3.5 Q24 11 24 19 L24 23 L93 449 Q95 457 97 459 Q99 461 105 461 Q125 461 132.5 447.5 Q140 434 140 420 Q140 414 139 411 Q176 431 220.5 446 Q265 461 303 461 Q378 461 412.5 430 Q447 399 447 337 Q447 312 443 289 L398 7 Q397 1 395 -0.5 Q393 -2 388 -2 Q368 -2 359.5 12 Q351 26 351 43 Q351 46 351.5 49 Q352 52 352 54 L390 289 Q393 307 393 322 Q393 368 367 388.5 Q341 409 296 409 Q261 409 218.5 395 Q176 381 132 358 L77 21 Z M151 624 Q150 625 150 631 Q150 634 151.5 639 Q153 644 156.5 649 Q160 654 166 657.5 Q172 661 181 661 Q190 661 194 657 L286 565 L419 658 Q424 662 432 662 Q443 662 449 654.5 Q455 647 455 638 Q455 627 448 623 L307 514 Q302 510 298.5 508.5 Q295 507 290 507 L273 507 Q265 507 256 516 L151 624 Z " />
<glyph glyph-name="napostrophe" unicode="&#x149;" horiz-adv-x="529" d="M128 21 Q126 13 120.5 4.5 Q115 -4 101 -4 Q87 -4 81 3.5 Q75 11 75 19 L75 23 L144 449 Q146 457 148 459 Q150 461 156 461 Q176 461 183.5 447.5 Q191 434 191 420 Q191 414 190 411 Q227 431 271.5 446 Q316 461 354 461 Q429 461 463.5 430 Q498 399 498 337 Q498 312 494 289 L449 7 Q448 1 446 -0.5 Q444 -2 439 -2 Q419 -2 410.5 12 Q402 26 402 43 Q402 46 402.5 49 Q403 52 403 54 L441 289 Q444 307 444 322 Q444 368 418 388.5 Q392 409 347 409 Q312 409 269.5 395 Q227 381 183 358 L128 21 Z M79 513 Q74 507 67 501.5 Q60 496 51 496 Q42 496 37.5 501.5 Q33 507 33 512 Q33 516 34 519 Q35 522 37 526 L84 643 Q88 651 96.5 654.5 Q105 658 114 658 Q129 658 137 649.5 Q145 641 145 630 Q145 623 143 621 L79 513 Z " />
<glyph glyph-name="Eng" unicode="&#x14a;" horiz-adv-x="563" d="M463 -37 Q457 -77 446 -105 Q435 -133 416.5 -150 Q398 -167 371 -175 Q344 -183 305 -183 L289 -183 Q284 -183 277.5 -178.5 Q271 -174 271 -163 Q271 -145 281 -138 Q291 -131 296 -131 L314 -131 Q339 -131 356 -126.5 Q373 -122 383.5 -111.5 Q394 -101 400 -83.5 Q406 -66 409 -40 Q403 -24 388 15 Q373 54 345.5 126.5 Q318 199 275.5 312.5 Q233 426 171 592 L81 24 Q78 7 72.5 1.5 Q67 -4 51 -4 Q27 -4 27 15 Q27 17 27.5 19.5 Q28 22 28 24 L126 639 Q128 655 135 661 Q142 667 157 667 L190 667 Q201 667 205.5 663.5 Q210 660 213 651 L426 75 L516 643 Q519 660 525.5 665.5 Q532 671 547 671 Q570 671 570 654 Q570 647 569 643 L463 -37 Z " />
<glyph glyph-name="eng" unicode="&#x14b;" horiz-adv-x="478" d="M77 21 Q75 13 69.5 4.5 Q64 -4 50 -4 Q36 -4 30 3.5 Q24 11 24 19 L24 23 L93 449 Q95 457 97 459 Q99 461 105 461 Q125 461 132.5 447.5 Q140 434 140 420 Q140 414 139 411 Q176 431 220.5 446 Q265 461 303 461 Q378 461 412.5 430 Q447 399 447 337 Q447 312 443 289 Q432 218 424 169 Q416 120 410.5 86.5 Q405 53 402 33 Q399 13 396.5 0 Q394 -13 392.5 -22 Q391 -31 390 -41 Q384 -79 373.5 -106 Q363 -133 344.5 -150 Q326 -167 299 -175 Q272 -183 233 -183 L217 -183 Q212 -183 205.5 -178.5 Q199 -174 199 -163 Q199 -145 209 -138 Q219 -131 224 -131 L242 -131 Q289 -131 309.5 -109 Q330 -87 338 -36 Q343 -5 346 16.5 Q349 38 354 68.5 Q359 99 367 149.5 Q375 200 390 289 Q393 307 393 322 Q393 368 367 388.5 Q341 409 296 409 Q261 409 218.5 395 Q176 381 132 358 L77 21 Z " />
<glyph glyph-name="Omacron" unicode="&#x14c;" horiz-adv-x="536" d="M367 667 Q401 667 430.5 656.5 Q460 646 481.5 625.5 Q503 605 515 575 Q527 545 527 506 Q527 486 524 465 L481 193 Q466 96 414.5 48 Q363 0 284 0 L201 0 Q167 0 138 10 Q109 20 87.5 40 Q66 60 54 89 Q42 118 42 157 Q42 176 45 197 L90 474 Q106 571 156 619 Q206 667 282 667 L367 667 Z M471 469 Q474 485 474 500 Q474 550 445.5 582 Q417 614 359 614 L285 614 Q225 614 189 576.5 Q153 539 143 478 L98 197 Q96 189 96 181 Q96 173 96 165 Q96 116 122 84.5 Q148 53 208 53 L279 53 Q350 53 383.5 90.5 Q417 128 427 189 L471 469 Z M249 720 Q238 720 229.5 725.5 Q221 731 221 742 Q221 761 232 766.5 Q243 772 257 772 L448 772 Q459 772 467.5 766.5 Q476 761 476 750 Q476 730 464.5 725 Q453 720 440 720 L249 720 Z " />
<glyph glyph-name="omacron" unicode="&#x14d;" horiz-adv-x="460" d="M183 0 Q111 0 71 36.5 Q31 73 31 139 Q31 156 34 176 L51 289 Q64 371 113.5 415 Q163 459 244 459 L280 459 Q347 459 390.5 423 Q434 387 434 318 Q434 302 431 284 L414 167 Q402 86 353 43 Q304 0 226 0 L183 0 Z M378 284 Q380 291 380 297.5 Q380 304 380 310 Q380 361 349 384.5 Q318 408 270 408 L233 408 Q189 408 151.5 379.5 Q114 351 104 289 L87 176 Q86 168 85.5 161 Q85 154 85 147 Q85 99 113.5 75 Q142 51 193 51 L225 51 Q275 51 313.5 78 Q352 105 361 167 L378 284 Z M188 536 Q177 536 169 542 Q161 548 161 559 Q161 576 172 582 Q183 588 197 588 L388 588 Q399 588 407.5 582 Q416 576 416 565 Q416 548 404 542 Q392 536 379 536 L188 536 Z " />
<glyph glyph-name="Obreve" unicode="&#x14e;" horiz-adv-x="536" d="M367 667 Q401 667 430.5 656.5 Q460 646 481.5 625.5 Q503 605 515 575 Q527 545 527 506 Q527 486 524 465 L481 193 Q466 96 414.5 48 Q363 0 284 0 L201 0 Q167 0 138 10 Q109 20 87.5 40 Q66 60 54 89 Q42 118 42 157 Q42 176 45 197 L90 474 Q106 571 156 619 Q206 667 282 667 L367 667 Z M471 469 Q474 485 474 500 Q474 550 445.5 582 Q417 614 359 614 L285 614 Q225 614 189 576.5 Q153 539 143 478 L98 197 Q96 189 96 181 Q96 173 96 165 Q96 116 122 84.5 Q148 53 208 53 L279 53 Q350 53 383.5 90.5 Q417 128 427 189 L471 469 Z M347 747 Q380 747 412 770 Q444 793 470 831 Q479 841 490 841 Q499 841 505.5 835 Q512 829 512 821 Q512 818 510 814 Q493 779 471.5 756.5 Q450 734 427.5 720.5 Q405 707 383 701.5 Q361 696 343 696 Q324 696 303.5 702 Q283 708 265 722 Q247 736 233 758.5 Q219 781 212 814 L212 817 Q212 825 219.5 832.5 Q227 840 240 840 Q246 840 251 838 Q256 836 258 831 Q269 793 291.5 770 Q314 747 347 747 Z " />
<glyph glyph-name="obreve" unicode="&#x14f;" horiz-adv-x="460" d="M183 0 Q111 0 71 36.5 Q31 73 31 139 Q31 156 34 176 L51 289 Q64 371 113.5 415 Q163 459 244 459 L280 459 Q347 459 390.5 423 Q434 387 434 318 Q434 302 431 284 L414 167 Q402 86 353 43 Q304 0 226 0 L183 0 Z M378 284 Q380 291 380 297.5 Q380 304 380 310 Q380 361 349 384.5 Q318 408 270 408 L233 408 Q189 408 151.5 379.5 Q114 351 104 289 L87 176 Q86 168 85.5 161 Q85 154 85 147 Q85 99 113.5 75 Q142 51 193 51 L225 51 Q275 51 313.5 78 Q352 105 361 167 L378 284 Z M288 562 Q321 562 353 585 Q385 608 411 646 Q420 656 431 656 Q440 656 446.5 650 Q453 644 453 636 Q453 633 451 629 Q434 594 412.5 571.5 Q391 549 368.5 535.5 Q346 522 324 516.5 Q302 511 284 511 Q265 511 244.5 517 Q224 523 206 537 Q188 551 174 573.5 Q160 596 153 629 L153 632 Q153 640 160.5 647.5 Q168 655 181 655 Q187 655 192 653 Q197 651 199 646 Q210 608 232.5 585 Q255 562 288 562 Z " />
<glyph glyph-name="Ohungarumlaut" unicode="&#x150;" horiz-adv-x="536" d="M367 667 Q401 667 430.5 656.5 Q460 646 481.5 625.5 Q503 605 515 575 Q527 545 527 506 Q527 486 524 465 L481 193 Q466 96 414.5 48 Q363 0 284 0 L201 0 Q167 0 138 10 Q109 20 87.5 40 Q66 60 54 89 Q42 118 42 157 Q42 176 45 197 L90 474 Q106 571 156 619 Q206 667 282 667 L367 667 Z M471 469 Q474 485 474 500 Q474 550 445.5 582 Q417 614 359 614 L285 614 Q225 614 189 576.5 Q153 539 143 478 L98 197 Q96 189 96 181 Q96 173 96 165 Q96 116 122 84.5 Q148 53 208 53 L279 53 Q350 53 383.5 90.5 Q417 128 427 189 L471 469 Z M276 709 Q271 707 267 706 Q263 705 259 705 Q254 705 248 709 Q242 713 242 723 Q242 730 246.5 735.5 Q251 741 257 745 L377 829 Q383 832 389 832 Q400 832 409 823.5 Q418 815 418 803 Q418 794 413.5 787 Q409 780 404 777 L276 709 Z M402 709 Q397 707 393 706 Q389 705 385 705 Q380 705 374 709 Q368 713 368 723 Q368 730 372.5 735.5 Q377 741 383 745 L503 829 Q509 832 515 832 Q526 832 535 823.5 Q544 815 544 803 Q544 794 539.5 787 Q535 780 530 777 L402 709 Z " />
<glyph glyph-name="ohungarumlaut" unicode="&#x151;" horiz-adv-x="460" d="M183 0 Q111 0 71 36.5 Q31 73 31 139 Q31 156 34 176 L51 289 Q64 371 113.5 415 Q163 459 244 459 L280 459 Q347 459 390.5 423 Q434 387 434 318 Q434 302 431 284 L414 167 Q402 86 353 43 Q304 0 226 0 L183 0 Z M378 284 Q380 291 380 297.5 Q380 304 380 310 Q380 361 349 384.5 Q318 408 270 408 L233 408 Q189 408 151.5 379.5 Q114 351 104 289 L87 176 Q86 168 85.5 161 Q85 154 85 147 Q85 99 113.5 75 Q142 51 193 51 L225 51 Q275 51 313.5 78 Q352 105 361 167 L378 284 Z M242 535 Q234 525 221 525 Q212 525 206.5 531 Q201 537 201 543 Q201 548 203 552 Q205 556 207 560 L295 687 Q301 696 315 696 Q329 696 338 685.5 Q347 675 347 663 Q347 654 343 650 L242 535 Z M352 535 Q344 525 331 525 Q322 525 316.5 531 Q311 537 311 543 Q311 548 313 552 Q315 556 317 560 L405 687 Q411 696 425 696 Q439 696 448 685.5 Q457 675 457 663 Q457 654 453 650 L352 535 Z " />
<glyph glyph-name="Racute" unicode="&#x154;" horiz-adv-x="527" d="M121 275 L80 23 Q78 9 71.5 2 Q65 -5 49 -5 Q33 -5 29 4 Q25 13 27 23 L126 639 Q128 655 135 661 Q142 667 157 667 L366 667 Q447 667 488.5 624 Q530 581 530 504 Q530 455 516 415.5 Q502 376 478 347 Q454 318 421 300.5 Q388 283 351 277 L443 30 Q446 24 446 18 Q446 2 428 -4 Q423 -6 415 -6 Q399 -6 395 7 L296 275 L121 275 Z M175 614 L130 329 L327 329 Q366 329 394 344.5 Q422 360 440 384 Q458 408 466.5 437 Q475 466 475 493 Q475 557 445 585.5 Q415 614 367 614 L175 614 Z M306 706 Q302 705 299 704.5 Q296 704 292 704 Q287 704 280.5 707.5 Q274 711 274 722 Q274 730 279.5 735.5 Q285 741 292 744 L421 813 Q427 815 430 815 Q441 815 449.5 806 Q458 797 458 785 Q458 776 453 768 Q448 760 441 758 L306 706 Z " />
<glyph glyph-name="racute" unicode="&#x155;" horiz-adv-x="322" d="M93 18 Q92 13 86.5 4 Q81 -5 67 -5 Q53 -5 45.5 2.5 Q38 10 40 20 L109 449 Q111 457 113 459.5 Q115 462 121 462 Q141 462 148.5 448 Q156 434 156 420 Q156 413 155 410 L152 390 Q178 418 222.5 440 Q267 462 319 462 Q336 445 336 424 Q336 413 330 404.5 Q324 396 312 394 Q270 388 230.5 379.5 Q191 371 146 355 L93 18 Z M243 537 Q235 527 222 527 Q213 527 207.5 533 Q202 539 202 545 Q202 550 204 554 Q206 558 208 562 L296 689 Q302 698 316 698 Q330 698 339 687.5 Q348 677 348 665 Q348 656 344 652 L243 537 Z " />
</font>
</svg>
