<svg width="10" height="6" viewBox="0 0 10 6" fill="none" xmlns="http://www.w3.org/2000/svg">
<path fill-rule="evenodd" clip-rule="evenodd" d="M9.00016 0.333496C8.8135 0.333496 8.64683 0.406829 8.52683 0.526829L5.00016 4.06016L1.4735 0.526829C1.3535 0.406829 1.18683 0.333496 1.00016 0.333496C0.633496 0.333496 0.333496 0.633496 0.333496 1.00016C0.333496 1.18683 0.406829 1.3535 0.526829 1.4735L4.52683 5.4735C4.64683 5.5935 4.8135 5.66683 5.00016 5.66683C5.18683 5.66683 5.3535 5.5935 5.4735 5.4735L9.4735 1.4735C9.5935 1.3535 9.66683 1.18683 9.66683 1.00016C9.66683 0.633496 9.36683 0.333496 9.00016 0.333496Z" fill="#81888C"/>
</svg>
