<svg width="16" height="16" viewBox="0 0 16 16" fill="none" xmlns="http://www.w3.org/2000/svg">
<path fill-rule="evenodd" clip-rule="evenodd" d="M12.0002 5.3335C11.8135 5.3335 11.6468 5.40683 11.5268 5.52683L8.00016 9.06016L4.4735 5.52683C4.3535 5.40683 4.18683 5.3335 4.00016 5.3335C3.6335 5.3335 3.3335 5.6335 3.3335 6.00016C3.3335 6.18683 3.40683 6.3535 3.52683 6.4735L7.52683 10.4735C7.64683 10.5935 7.8135 10.6668 8.00016 10.6668C8.18683 10.6668 8.3535 10.5935 8.4735 10.4735L12.4735 6.4735C12.5935 6.3535 12.6668 6.18683 12.6668 6.00016C12.6668 5.6335 12.3668 5.3335 12.0002 5.3335Z" fill="#81888C"/>
</svg>
