<svg width="10" height="6" viewBox="0 0 10 6" fill="none" xmlns="http://www.w3.org/2000/svg">
<path fill-rule="evenodd" clip-rule="evenodd" d="M0.999837 5.6665C1.1865 5.6665 1.35317 5.59317 1.47317 5.47317L4.99984 1.93984L8.5265 5.47317C8.6465 5.59317 8.81317 5.6665 8.99984 5.6665C9.3665 5.6665 9.6665 5.3665 9.6665 4.99984C9.6665 4.81317 9.59317 4.6465 9.47317 4.5265L5.47317 0.526503C5.35317 0.406503 5.1865 0.33317 4.99984 0.33317C4.81317 0.33317 4.6465 0.406503 4.5265 0.526503L0.526505 4.5265C0.406505 4.6465 0.33317 4.81317 0.33317 4.99984C0.33317 5.3665 0.63317 5.6665 0.999837 5.6665Z" fill="#81888C"/>
</svg>
