<svg width="275" height="64" viewBox="0 0 275 64" fill="none" xmlns="http://www.w3.org/2000/svg">
<path d="M35.7651 17.5722C36.6897 17.8363 37.2528 18.75 37.1008 19.6764L37.0529 19.8901L29.5529 46.1401C29.2684 47.1358 28.2306 47.7124 27.2349 47.4279C26.3103 47.1637 25.7472 46.25 25.8992 45.3236L25.9471 45.1099L33.4471 18.8599C33.7316 17.8642 34.7694 17.2877 35.7651 17.5722ZM23.4508 23.6742C24.1267 24.3501 24.1787 25.4137 23.6068 26.1492L23.4508 26.3258L17.2781 32.5L23.4508 38.6742C24.1267 39.3501 24.1787 40.4137 23.6068 41.1492L23.4508 41.3259C22.7749 42.0018 21.7114 42.0537 20.9758 41.4818L20.7992 41.3259L13.2992 33.8258C12.6233 33.1499 12.5713 32.0864 13.1432 31.3508L13.2992 31.1742L20.7992 23.6742C21.5314 22.942 22.7186 22.942 23.4508 23.6742ZM39.5492 23.6742C40.2251 22.9983 41.2886 22.9463 42.0242 23.5182L42.2008 23.6742L49.7008 31.1742L49.8568 31.3508C50.3811 32.0251 50.3811 32.975 49.8568 33.6492L49.7008 33.8258L42.2008 41.3259L42.0242 41.4818C41.3499 42.0061 40.4001 42.0061 39.7258 41.4818L39.5492 41.3259L39.3932 41.1492C38.8689 40.475 38.8689 39.5251 39.3932 38.8508L39.5492 38.6742L45.7219 32.5L39.5492 26.3258L39.3932 26.1492C38.8213 25.4137 38.8733 24.3501 39.5492 23.6742Z" fill="#3DE2BB"/>
<path d="M65.04 37.1846C65.2891 40.9199 68.3945 43.3516 72.877 43.3516C77.7402 43.3516 80.7871 40.9346 80.7871 37.0674C80.7871 34.0352 79.0146 32.3506 74.6348 31.252L72.4229 30.666C69.5518 29.9189 68.3799 28.9668 68.3799 27.3701C68.3799 25.3047 70.2842 23.8838 73.0234 23.8838C75.7773 23.8838 77.6084 25.2754 77.8428 27.5459H80.4795C80.3623 24.001 77.3154 21.5107 73.1113 21.5107C68.7168 21.5107 65.6406 23.9717 65.6406 27.4873C65.6406 30.3584 67.3691 32.0723 71.2656 33.0684L73.9756 33.7715C76.8174 34.5039 78.0625 35.6025 78.0625 37.3896C78.0625 39.4697 75.9824 40.9785 73.126 40.9785C70.1084 40.9785 67.9404 39.4697 67.6914 37.1846H65.04ZM89.7812 43.2637C93.9854 43.2637 96.8271 40.2314 96.8271 35.3828C96.8271 30.5195 93.9854 27.502 89.7812 27.502C85.5625 27.502 82.7207 30.5195 82.7207 35.3828C82.7207 40.2314 85.5625 43.2637 89.7812 43.2637ZM89.7812 41.0225C87.0859 41.0225 85.3135 38.9717 85.3135 35.3828C85.3135 31.7939 87.0859 29.7432 89.7812 29.7432C92.4766 29.7432 94.2344 31.7939 94.2344 35.3828C94.2344 38.9717 92.4766 41.0225 89.7812 41.0225ZM100.226 43H102.774V29.8604H105.88V27.7656H102.76V26.0811C102.76 24.5723 103.419 23.8398 104.796 23.8398C105.221 23.8398 105.646 23.8838 105.953 23.9277V21.8623C105.587 21.8037 104.972 21.7451 104.4 21.7451C101.588 21.7451 100.226 23.1367 100.226 26.0664V27.7656H98.1016V29.8604H100.226V43ZM109.337 24.0889V27.7656H107.066V29.8604H109.337V39.0449C109.337 41.9746 110.421 43.1172 113.219 43.1172C113.819 43.1172 114.522 43.0732 114.83 43V40.8613C114.654 40.8906 114.068 40.9346 113.775 40.9346C112.472 40.9346 111.886 40.3047 111.886 38.9131V29.8604H114.845V27.7656H111.886V24.0889H109.337ZM136.949 27.7656H134.43L131.383 40.1582H131.324L127.867 27.7656H125.406L121.964 40.1582H121.905L118.858 27.7656H116.324L120.587 43H123.18L126.607 31.208H126.666L130.108 43H132.701L136.949 27.7656ZM143.775 41.0957C141.944 41.0957 140.729 40.1436 140.729 38.6934C140.729 37.2578 141.9 36.3496 143.951 36.2178L148.023 35.9688V37.2139C148.023 39.4111 146.178 41.0957 143.775 41.0957ZM143.204 43.2637C145.255 43.2637 147.188 42.1211 148.097 40.3779H148.155V43H150.572V32.4678C150.572 29.4355 148.316 27.502 144.742 27.502C141.139 27.502 138.883 29.5234 138.707 32.1602H141.168C141.49 30.666 142.721 29.7432 144.684 29.7432C146.793 29.7432 148.023 30.8564 148.023 32.7168V33.9912L143.658 34.2402C140.143 34.4453 138.136 36.0859 138.136 38.6934C138.136 41.4326 140.172 43.2637 143.204 43.2637ZM153.81 43H156.358V33.5078C156.358 31.3545 157.647 29.9336 159.625 29.9336C160.24 29.9336 160.782 30.0068 160.987 30.0801V27.6045C160.782 27.5752 160.401 27.502 159.962 27.502C158.175 27.502 156.769 28.5713 156.271 30.2559H156.212V27.7656H153.81V43ZM168.443 29.7139C170.846 29.7139 172.442 31.5303 172.501 34.0791H164.225C164.386 31.5449 166.056 29.7139 168.443 29.7139ZM172.442 38.6348C172.018 40.0703 170.597 41.0518 168.663 41.0518C165.924 41.0518 164.21 39.1328 164.21 36.2178V36.0713H175.138V35.1045C175.138 30.4902 172.604 27.502 168.487 27.502C164.283 27.502 161.588 30.71 161.588 35.4414C161.588 40.2314 164.239 43.2637 168.604 43.2637C171.93 43.2637 174.508 41.3008 174.947 38.6348H172.442ZM188.907 43L196.012 21.8623H191.192L186.358 38.4443H186.256L181.422 21.8623H176.471L183.575 43H188.907ZM202.809 30.124C204.713 30.124 206.017 31.501 206.104 33.5078H199.439C199.586 31.5449 200.934 30.124 202.809 30.124ZM206.163 38.1953C205.768 39.3965 204.566 40.1729 202.999 40.1729C200.816 40.1729 199.396 38.6348 199.396 36.3936V36.1299H210.221V34.8262C210.221 30.0508 207.335 26.96 202.765 26.96C198.121 26.96 195.191 30.2119 195.191 35.2217C195.191 40.2461 198.092 43.3369 202.926 43.3369C206.808 43.3369 209.62 41.2715 210.089 38.1953H206.163ZM212.433 43H216.71V33.9912C216.71 31.9551 217.926 30.5488 219.845 30.5488C221.764 30.5488 222.73 31.7207 222.73 33.7715V43H227.008V32.8779C227.008 29.2012 225.045 27.0039 221.559 27.0039C219.142 27.0039 217.486 28.1465 216.651 30.0947H216.563V27.2969H212.433V43ZM235.548 43.249C237.862 43.249 239.679 42.0332 240.44 40.3047H240.514V43H244.732V21.8623H240.455V29.9922H240.367C239.605 28.249 237.848 27.0479 235.577 27.0479C231.637 27.0479 229.146 30.1387 229.146 35.1191C229.146 40.1436 231.622 43.249 235.548 43.249ZM236.998 30.4756C239.122 30.4756 240.484 32.292 240.484 35.1484C240.484 38.0195 239.122 39.8066 236.998 39.8066C234.845 39.8066 233.526 38.0342 233.526 35.1484C233.526 32.2773 234.845 30.4756 236.998 30.4756ZM254.796 43.3369C259.542 43.3369 262.574 40.3047 262.574 35.1338C262.574 30.0361 259.498 26.96 254.796 26.96C250.094 26.96 247.018 30.0508 247.018 35.1338C247.018 40.29 250.05 43.3369 254.796 43.3369ZM254.796 40.0703C252.687 40.0703 251.354 38.2979 251.354 35.1484C251.354 32.0283 252.716 30.2266 254.796 30.2266C256.876 30.2266 258.224 32.0283 258.224 35.1484C258.224 38.2979 256.891 40.0703 254.796 40.0703ZM264.786 43H269.063V34.2256C269.063 32.0137 270.294 30.7246 272.403 30.7246C273.019 30.7246 273.604 30.8271 273.956 30.9736V27.209C273.663 27.1211 273.238 27.0479 272.74 27.0479C270.895 27.0479 269.562 28.1318 269.005 30.124H268.917V27.2969H264.786V43Z" fill="black"/>
</svg>
